<?xml version="1.0" encoding="utf-8" ?>
<svg xmlns="http://www.w3.org/2000/svg" xmlns:xlink="http://www.w3.org/1999/xlink" width="32" height="32">
	<path fill="#1877F2" d="M0 0L32 0L32 32L0 32L0 0Z"/>
	<path fill="white" transform="translate(8 8)" d="M11.562497 3.28125C11.562497 3.28125 11.04752 3.1933594 10.420778 3.1494141L10.262001 3.1394196C10.101358 3.1304932 9.9358311 3.125 9.771719 3.125C7.9443564 3.125 6.7499967 4.2325001 6.7499967 6.2375002L6.7499967 8L4.7187467 8L4.71875 10.3125L6.7499967 10.3125L6.7499967 15.902765L6.5018706 15.859807C2.7996719 15.158437 0 11.906226 0 8C0 3.5817187 3.5817187 -1.7763568e-15 8 -1.7763568e-15C12.418282 -1.7763568e-15 16 3.5817187 16 8C16 11.993032 13.074515 15.302656 9.25 15.902765L9.25 10.3125L11.114062 10.3125L11.468747 8L9.25 8L9.25 6.4993281C9.25 5.866672 9.5599222 5.25 10.553719 5.25L11.5625 5.25L11.562497 3.28125Z" fill-rule="evenodd"/>
</svg>
