<?xml version="1.0" encoding="UTF-8"?>
<svg width="24px" height="24px" viewBox="0 0 24 24" version="1.1" xmlns="http://www.w3.org/2000/svg" xmlns:xlink="http://www.w3.org/1999/xlink">
    <title>Frame 3</title>
    <defs>
        <path d="M12,0 C18.627417,-1.77635684e-15 24,5.372583 24,12 C24,18.627417 18.627417,24 12,24 C5.372583,24 0,18.627417 0,12 C0,5.372583 5.372583,0 12,0 Z" id="path-1"></path>
    </defs>
    <g id="Frame-3" stroke="none" fill="none" opacity="0.65" xlink:href="#path-1" fill-rule="evenodd" stroke-width="1">
        <g id="Gradient-Square">
            <rect id="Background" fill="#000000" x="0" y="0" width="24" height="24"></rect>
            <g id="s/Instagram/White" transform="translate(5.1429, 5.1429)" fill="#FFFFFF">
                <path d="M6.8552619,8.84256068 C5.75102381,8.84256068 4.85588095,7.94919038 4.85588095,6.84716266 C4.85588095,5.74511117 5.75102381,4.85174088 6.8552619,4.85174088 C7.95947619,4.85174088 8.85461905,5.74511117 8.85461905,6.84716266 C8.85461905,7.94919038 7.95947619,8.84256068 6.8552619,8.84256068 Z M7.71201058,0.861980574 C8.58954505,0.864808363 8.82318672,0.873945358 9.3282619,0.896944837 C9.96669048,0.926006223 10.4027143,1.02721018 10.7842381,1.17520226 C11.1786667,1.32816068 11.5131667,1.53284979 11.8466429,1.86564187 C12.1800952,2.19845771 12.3851905,2.53229533 12.5384762,2.92594286 C12.6867381,3.30671117 12.7881429,3.74187157 12.8172619,4.37903593 C12.8218709,4.47985093 12.8259244,4.5698301 12.8294827,4.65628163 L12.8359573,4.82664657 C12.8466831,5.13829895 12.8512958,5.46802737 12.8527802,6.17609921 L12.8532975,6.60200727 L12.8533571,6.84716266 C12.8533571,6.93272847 12.853338,7.01435553 12.8532975,7.09231449 L12.8527802,7.51821654 C12.8512958,8.22627862 12.8466831,8.55600399 12.8359573,8.86765542 L12.8294827,9.03802002 C12.8259244,9.12447145 12.8218709,9.21445062 12.8172619,9.31526563 C12.7881429,9.95242999 12.6867381,10.3875904 12.5384762,10.7683587 C12.3851905,11.1620062 12.1800952,11.4958438 11.8466429,11.8286597 C11.5131667,12.1614518 11.1786667,12.3661409 10.7842381,12.5191231 C10.4027143,12.6670914 9.96669048,12.7682953 9.3282619,12.7973567 C8.75584336,12.8234228 8.53206609,12.8316833 7.32448618,12.8331335 L6.38603088,12.8331335 C5.17843391,12.8316833 4.95465664,12.8234228 4.3822381,12.7973567 C3.74380952,12.7682953 3.30778571,12.6670914 2.9262619,12.5191231 C2.53183333,12.3661409 2.19733333,12.1614518 1.86385714,11.8286597 C1.53040476,11.4958438 1.32530952,11.1620062 1.17204762,10.7683587 C1.0237619,10.3875904 0.922357143,9.95242999 0.893238095,9.31526563 C0.888629073,9.21445062 0.88457565,9.12447145 0.88101728,9.03802002 L0.874542672,8.86765542 C0.86479198,8.58433594 0.860093391,8.28607932 0.858204459,7.7022148 L0.858204459,5.99209845 C0.860093391,5.40822614 0.86479198,5.10996691 0.874542672,4.82664657 L0.88101728,4.65628163 C0.88457565,4.5698301 0.888629073,4.47985093 0.893238095,4.37903593 C0.922357143,3.74187157 1.0237619,3.30671117 1.17204762,2.92594286 C1.32530952,2.53229533 1.53040476,2.19845771 1.86385714,1.86564187 C2.19733333,1.53284979 2.53183333,1.32816068 2.9262619,1.17520226 C3.30778571,1.02721018 3.74380952,0.926006223 4.3822381,0.896944837 C4.88731328,0.873945358 5.12095495,0.864808363 5.99850114,0.861980574 Z M7.51559603,1.94004114 L6.19491819,1.94004114 C5.18274232,1.94201335 4.96411153,1.95017339 4.4315,1.97442603 C3.84669048,2.00103989 3.52909524,2.09856068 3.3177381,2.18054088 C3.0377619,2.28913494 2.83795238,2.41885375 2.62807143,2.62834286 C2.41816667,2.8378082 2.28819048,3.03722207 2.17938095,3.31664385 C2.0972381,3.52758246 1.99952381,3.8445488 1.97285714,4.42820028 C1.94703759,4.99297944 1.93942112,5.20400566 1.93810374,6.38708452 L1.93810374,7.30723406 C1.93942112,8.49029589 1.94703759,8.70132212 1.97285714,9.26610127 C1.99952381,9.84975276 2.0972381,10.1667191 2.17938095,10.3776577 C2.28819048,10.6570795 2.41819048,10.8564934 2.62807143,11.0659587 C2.83795238,11.2754478 3.0377619,11.4051666 3.3177381,11.5137607 C3.52909524,11.5957409 3.84669048,11.6932617 4.4315,11.7198755 C4.96405138,11.7441282 5.1826389,11.7522882 6.1948737,11.7542604 L7.51564202,11.7542604 C8.52786743,11.7522882 8.74646867,11.7441282 9.279,11.7198755 C9.86380952,11.6932617 10.1814048,11.5957409 10.3927619,11.5137607 C10.6727381,11.4051666 10.8725476,11.2754478 11.0824286,11.0659587 C11.2923333,10.8564934 11.4223095,10.6570795 11.531119,10.3776577 C11.6132619,10.1667191 11.7109762,9.84975276 11.7376429,9.26610127 C11.7634624,8.70132212 11.7710789,8.49029589 11.7723963,7.30723406 L11.7723963,6.38708452 C11.7710789,5.20400566 11.7634624,4.99297944 11.7376429,4.42820028 C11.7109762,3.8445488 11.6132619,3.52758246 11.531119,3.31664385 C11.4223095,3.03722207 11.2923333,2.8378082 11.0824286,2.62834286 C10.8725476,2.41885375 10.6727381,2.28913494 10.3927619,2.18054088 C10.1814048,2.09856068 9.86380952,2.00103989 9.279,1.97442603 C8.74638847,1.95017339 8.52775768,1.94201335 7.51559603,1.94004114 Z M6.8552619,3.77314286 C8.55635714,3.77314286 9.93535714,5.14941216 9.93535714,6.84716266 C9.93535714,8.54488939 8.55635714,9.9211587 6.8552619,9.9211587 C5.15414286,9.9211587 3.77514286,8.54488939 3.77514286,6.84716266 C3.77514286,5.14941216 5.15414286,3.77314286 6.8552619,3.77314286 Z M10.0570476,2.93333296 C10.4545714,2.93333296 10.7768333,3.25495672 10.7768333,3.65169335 C10.7768333,4.04842999 10.4545714,4.37002999 10.0570476,4.37002999 C9.65954762,4.37002999 9.33728571,4.04842999 9.33728571,3.65169335 C9.33728571,3.25495672 9.65954762,2.93333296 10.0570476,2.93333296 Z" id="Fill-4"></path>
            </g>
        </g>
    </g>
</svg>