<?xml version="1.0" encoding="utf-8" ?>
<svg xmlns="http://www.w3.org/2000/svg" xmlns:xlink="http://www.w3.org/1999/xlink" width="32" height="32">
	<path fill="red" d="M0 0L32 0L32 32L0 32L0 0Z"/>
	<path fill="white" transform="translate(8.00038 10.2862)" d="M8.2804403 0.00052671094C9.3525333 0.0064951917 13.181246 0.048274558 14.250648 0.34073013C14.939194 0.52847207 15.481285 1.0816518 15.665285 1.7841402C15.962497 2.9158556 15.995521 5.140563 15.999189 5.6209702L15.999189 5.8066621C15.995521 6.2870555 15.962497 8.5117083 15.665285 9.6435871C15.481285 10.345984 14.939194 10.899163 14.250648 11.086997C13.181246 11.379374 9.3525333 11.421142 8.2804403 11.427109L8.1044111 11.427889C8.0817432 11.42796 8.0625467 11.428008 8.0470266 11.42804L7.95227 11.42804C7.9367499 11.428008 7.9175539 11.42796 7.894886 11.427889L7.7188563 11.427109C6.6467614 11.421142 2.818038 11.379374 1.7485576 11.086997C1.0601029 10.899163 0.51792115 10.345984 0.33392116 9.6435871C0.049170326 8.5588694 0.0069850162 6.4705458 0.00073534076 5.8755908L0.00073534076 5.5520396C0.0069850162 4.957068 0.049170326 2.8687007 0.33392116 1.7841402C0.51792115 1.0816518 1.0601029 0.52847207 1.7485576 0.34073013C2.818038 0.048274558 6.6467614 0.0064951917 7.7188563 0.00052671094L8.2804403 0.00052671094ZM6.3632574 3.3019376L6.3632574 8.1257162L10.545075 5.7139192L6.3632574 3.3019376Z" fill-rule="evenodd"/>
</svg>
