<?xml version="1.0" encoding="UTF-8"?>
<svg width="24px" height="24px" viewBox="0 0 24 24" version="1.1" xmlns="http://www.w3.org/2000/svg" xmlns:xlink="http://www.w3.org/1999/xlink">
    <title>Frame 7</title>
    <defs>
        <path d="M12,0 C18.627417,-1.77635684e-15 24,5.372583 24,12 C24,18.627417 18.627417,24 12,24 C5.372583,24 0,18.627417 0,12 C0,5.372583 5.372583,0 12,0 Z" id="path-1"></path>
    </defs>
    <g id="Frame-7" stroke="none" fill="none" opacity="0.5" xlink:href="#path-1" fill-rule="evenodd">
        <g id="Logo/YouTube/_Red-Square" stroke-width="1">
            <g id="Red-Square">
                <rect id="Background" fill="#FF0000" x="0" y="0" width="24" height="24"></rect>
                <g id="s/YouTube/White" transform="translate(5.1429, 5.1429)" fill="#FFFFFF">
                    <path d="M7.13946003,2.57259946 C7.53119197,2.57520584 8.28022836,2.58354624 9.06272614,2.61023551 L9.49091513,2.62668885 C10.3461442,2.66353825 11.1711224,2.72495392 11.5454133,2.82731336 C12.0618224,2.96811982 12.4683906,3.38300461 12.6063906,3.90987097 C12.8244538,4.74020557 12.8528969,6.35503052 12.8566068,6.76216252 L12.8566068,6.95209263 C12.8528969,7.35921304 12.8244538,8.9740014 12.6063906,9.80445622 C12.4683906,10.3312535 12.0618224,10.7461382 11.5454133,10.8870138 C10.6720679,11.125788 7.34498058,11.1417063 6.90525048,11.1427675 L6.80907612,11.1427675 C6.36934574,11.1417063 3.04225422,11.125788 2.16884513,10.8870138 C1.65250422,10.7461382 1.24586786,10.3312535 1.10786786,9.80445622 C0.889863905,8.9740014 0.861428606,7.35921304 0.857719654,6.95209263 L0.857719654,6.76216252 C0.861428606,6.35503052 0.889863905,4.74020557 1.10786786,3.90987097 C1.24586786,3.38300461 1.65250422,2.96811982 2.16884513,2.82731336 C2.94867468,2.61406452 5.68456483,2.57852304 6.57486628,2.57259946 Z M5.62987013,5.04821889 L5.62987013,8.666053 L8.76623377,6.85720507 L5.62987013,5.04821889 Z" id="Fill-2"></path>
                </g>
            </g>
        </g>
        <rect id="Rectangle-9" fill="#4A60B2" style="mix-blend-mode: color;" x="0" y="0" width="24" height="24"></rect>
    </g>
</svg>