<?xml version="1.0" encoding="utf-8" ?>
<svg xmlns="http://www.w3.org/2000/svg" xmlns:xlink="http://www.w3.org/1999/xlink" width="167" height="59">
	<path fill="white" d="M59 29.5Q59 30.224182 58.964466 30.947495Q58.928932 31.670807 58.857948 32.391502Q58.786964 33.112198 58.680702 33.828545Q58.574444 34.544891 58.433163 35.255161Q58.291882 35.965431 58.115921 36.667915Q57.939957 37.370396 57.72974 38.063396Q57.519516 38.756393 57.275543 39.438248Q57.03157 40.120094 56.75444 40.789158Q56.477306 41.458214 56.167679 42.112873Q55.858055 42.767529 55.516678 43.406204Q55.175293 44.044876 54.802986 44.666031Q54.430679 45.287178 54.028347 45.889317Q53.626015 46.491455 53.194618 47.073128Q52.763226 47.654797 52.30381 48.2146Q51.844391 48.774403 51.358059 49.310989Q50.871727 49.847572 50.35965 50.35965Q49.847572 50.871727 49.310989 51.358059Q48.774406 51.844391 48.214603 52.30381Q47.6548 52.763226 47.073128 53.194622Q46.491455 53.626015 45.88932 54.028351Q45.287186 54.430687 44.666031 54.80299Q44.044876 55.175293 43.406204 55.516674Q42.767532 55.858051 42.112873 56.167679Q41.458221 56.477306 40.789162 56.75444Q40.120102 57.03157 39.438251 57.275543Q38.756401 57.519516 38.0634 57.729736Q37.370399 57.939953 36.667919 58.115913Q35.965435 58.291878 35.255165 58.433159Q34.544895 58.57444 33.828548 58.680702Q33.112206 58.786964 32.391506 58.857948Q31.670807 58.928932 30.947495 58.964462Q30.224182 59 29.5 59Q28.775814 59 28.052502 58.964466Q27.329191 58.928932 26.608494 58.857948Q25.887794 58.786964 25.171448 58.680702Q24.455101 58.574444 23.744833 58.433163Q23.034563 58.291882 22.332083 58.115921Q21.629601 57.939957 20.936602 57.72974Q20.243599 57.519516 19.561749 57.275543Q18.879894 57.03157 18.210836 56.75444Q17.541779 56.477306 16.887123 56.167679Q16.23247 55.858055 15.593796 55.516678Q14.955121 55.175293 14.333967 54.802986Q13.712812 54.430679 13.110676 54.028347Q12.508538 53.626015 11.926868 53.194618Q11.345198 52.763226 10.785397 52.30381Q10.225595 51.844391 9.6890106 51.358059Q9.1524258 50.871727 8.6403494 50.35965Q8.128274 49.847572 7.6419411 49.310989Q7.1556087 48.774406 6.6961913 48.214603Q6.2367735 47.6548 5.805377 47.073128Q5.373981 46.491455 4.9716458 45.88932Q4.5693107 45.287186 4.1970053 44.666031Q3.8247004 44.044876 3.4833221 43.406204Q3.1419439 42.767532 2.8323154 42.112873Q2.522687 41.458221 2.2455535 40.789162Q1.9684203 40.120102 1.7244499 39.438251Q1.4804795 38.756401 1.27026 38.0634Q1.0600404 37.370399 0.88407791 36.667919Q0.70811552 35.965435 0.56683415 35.255165Q0.42555282 34.544895 0.3192929 33.828548Q0.21303302 33.112206 0.14205055 32.391506Q0.071068078 31.670807 0.035534039 30.947495Q0 30.224182 0 29.5Q0 28.775814 0.035534039 28.052502Q0.071068078 27.329191 0.14205055 26.608494Q0.21303302 25.887794 0.3192929 25.171448Q0.42555282 24.455101 0.56683415 23.744833Q0.70811552 23.034563 0.88407803 22.332083Q1.0600405 21.629601 1.2702601 20.936602Q1.4804796 20.243599 1.7244499 19.561749Q1.9684203 18.879894 2.2455535 18.210836Q2.522687 17.541779 2.8323154 16.887123Q3.1419439 16.23247 3.4833221 15.593796Q3.8247004 14.955121 4.1970053 14.333967Q4.5693107 13.712812 4.9716458 13.110676Q5.373981 12.508538 5.805377 11.926868Q6.2367735 11.345198 6.6961913 10.785397Q7.1556087 10.225595 7.6419411 9.6890106Q8.128274 9.1524258 8.6403494 8.6403494Q9.1524258 8.128274 9.6890106 7.6419411Q10.225595 7.1556087 10.785398 6.6961913Q11.345199 6.2367735 11.926868 5.805377Q12.508538 5.373981 13.110676 4.9716458Q13.712812 4.5693107 14.333966 4.1970053Q14.955121 3.8247004 15.593796 3.4833221Q16.23247 3.1419439 16.887123 2.8323154Q17.541779 2.522687 18.210836 2.2455535Q18.879894 1.9684203 19.561747 1.7244499Q20.243599 1.4804795 20.9366 1.27026Q21.629601 1.0600404 22.332081 0.88407791Q23.034563 0.70811552 23.744833 0.56683415Q24.455101 0.42555282 25.171448 0.3192929Q25.887794 0.21303302 26.608494 0.14205055Q27.329191 0.071068078 28.052504 0.035534039Q28.775814 0 29.5 0Q30.224182 0 30.947495 0.035534039Q31.670807 0.071068078 32.391502 0.14205055Q33.112198 0.21303302 33.828545 0.3192929Q34.544891 0.42555282 35.255161 0.56683415Q35.965431 0.70811552 36.667915 0.88407803Q37.370396 1.0600405 38.063396 1.2702601Q38.756393 1.4804796 39.438248 1.7244499Q40.120094 1.9684203 40.789158 2.2455535Q41.458214 2.522687 42.112873 2.8323154Q42.767529 3.1419439 43.406204 3.4833221Q44.044876 3.8247004 44.666031 4.1970053Q45.287178 4.5693107 45.889317 4.9716458Q46.491455 5.373981 47.073128 5.805377Q47.654797 6.2367735 48.2146 6.6961913Q48.774403 7.1556087 49.310989 7.6419411Q49.847572 8.128274 50.35965 8.6403494Q50.871727 9.1524258 51.358059 9.6890106Q51.844391 10.225595 52.30381 10.785398Q52.763226 11.345199 53.194622 11.926868Q53.626015 12.508538 54.028351 13.110676Q54.430687 13.712812 54.80299 14.333966Q55.175293 14.955121 55.516674 15.593796Q55.858051 16.23247 56.167679 16.887123Q56.477306 17.541779 56.75444 18.210836Q57.03157 18.879894 57.275543 19.561747Q57.519516 20.243599 57.729736 20.9366Q57.939953 21.629601 58.115913 22.332081Q58.291878 23.034563 58.433159 23.744833Q58.57444 24.455101 58.680702 25.171448Q58.786964 25.887794 58.857948 26.608494Q58.928932 27.329191 58.964462 28.052504Q59 28.775814 59 29.5Z"/>
	<path fill="white" transform="translate(34.369 7.53595)" d="M28.639008 1.2010894C29.658237 2.3286867 29.878603 3.9446073 29.206791 5.3312836C28.470804 6.8141608 27.126774 8.408205 23.870577 11.843771C23.725266 11.997971 23.640728 12.206483 23.634022 12.44425C23.585196 14.016396 23.281868 15.89855 22.824167 17.859964C22.351679 19.916565 20.979349 21.658991 19.126232 22.592005C18.333616 23.00915 17.408817 22.985737 16.600561 22.536037C15.893484 22.120132 15.386008 21.385881 15.321487 20.519724L15.318904 20.464357L15.275693 19.815613L14.010624 20.920614L14.028523 20.937805L12.403221 22.344421C10.134509 24.307878 6.9789758 24.88158 4.1890998 23.82386L1.7879173 22.919661C-0.35685095 22.097546 -0.63646996 19.181677 1.3000116 17.984846L1.6602124 17.756014C2.7748137 17.074305 4.0495405 16.688511 5.3481412 16.630327L5.5831623 16.624613L5.5117655 16.543354C4.9980383 15.911109 4.8107295 15.072759 4.9942169 14.298877L5.0431623 14.121556C5.5665331 12.428391 6.8337498 11.086948 8.4915075 10.463444C10.035043 9.8748398 11.837341 9.2549047 13.367479 8.8112803C14.682315 8.4300766 15.867234 7.6731424 16.785276 6.6285381L19.046947 4.0667887C20.484802 2.4419837 22.294355 1.1699921 24.285791 0.37601486L24.552256 0.26521534C25.973436 -0.30322641 27.58325 0.057252418 28.639008 1.2010894ZM25.295076 2.1221688L25.055063 2.2221687C23.324968 2.9121687 21.774883 4.0021687 20.544817 5.3921685L18.284693 7.9521689C17.12463 9.2721691 15.614547 10.242168 13.924454 10.732169C12.234362 11.222169 10.38426 11.882169 9.204196 12.332169C8.1141357 12.742168 7.2940907 13.612168 6.9540725 14.712169C6.8940692 14.902168 6.9340711 15.122169 7.0640783 15.282168C7.1940856 15.442168 7.4040971 15.522169 7.6041079 15.492168L12.134356 14.892169L9.6842222 17.652168C9.014185 18.402168 8.0341311 18.79217 7.0340767 18.71217L6.1640291 18.642168C4.9539628 18.54217 3.7338958 18.832169 2.7038395 19.46217L2.3738215 19.672169C1.8237913 20.012169 1.9037956 20.822168 2.5038285 21.052168L4.8939595 21.952169C7.0040751 22.752169 9.3842058 22.312168 11.094299 20.832169L11.084298 20.822168L17.004623 15.652168L17.31464 20.332169C17.31464 20.532169 17.444647 20.71217 17.614656 20.812168C17.794666 20.912169 18.004677 20.922169 18.194689 20.822168C19.544762 20.142168 20.534817 18.892168 20.874834 17.412169C21.224854 15.912169 21.584873 13.992168 21.634876 12.382169C21.652878 11.743169 21.87339 11.128469 22.274542 10.632838L22.414919 10.472169C25.135069 7.6021686 26.745155 5.7921686 27.415194 4.4421687C27.72521 3.8021686 27.625204 3.0621686 27.155178 2.5421686C26.675152 2.0221686 25.945112 1.8621687 25.295076 2.1221688Z"/>
	<defs>
		<linearGradient id="gradient_0" gradientUnits="userSpaceOnUse" x1="2.0266366" y1="18.773634" x2="24.954126" y2="50.048119">
			<stop offset="0" stop-color="#00BDFF"/>
			<stop offset="0.51789224" stop-color="#20C3DD"/>
			<stop offset="1" stop-color="#62A0F6"/>
		</linearGradient>
	</defs>
	<path fill="url(#gradient_0)" transform="translate(5.00027 4)" d="M48.953533 27.128119C48.823528 27.18812 48.69352 27.238119 48.54351 27.288118C47.563457 27.59812 46.803417 28.408119 46.613407 29.418119C46.593407 29.52812 46.573402 29.628119 46.553402 29.728119C45.633354 33.958118 43.483234 37.748119 40.493073 40.69812C39.173 42.008118 37.372898 42.718121 35.512798 42.718121C30.0625 42.718121 24.802212 40.708118 20.711987 36.988121C14.91167 31.708118 12.341529 23.668119 14.011621 15.998119C14.931671 11.778119 17.071789 7.9581194 20.121956 4.9681191C21.422026 3.6981192 23.182123 3.0081191 25.002222 3.0081191L25.002222 3.0081191C30.42252 3.0081191 35.752811 4.9981194 39.863037 8.7381191C40.443069 9.2681189 40.993099 9.8281193 41.503128 10.408119C42.043156 11.028119 42.903202 11.268119 43.703247 11.068119C43.743248 11.068119 43.773251 11.04812 43.803253 11.038119C44.013264 10.988119 44.193272 10.878119 44.333282 10.71812L44.413284 10.628119C44.753304 10.248119 44.773304 9.6681194 44.453289 9.2681189C43.673244 8.2981195 42.813198 7.378119 41.873146 6.5281191C35.282787 0.50811923 25.912271 -1.5318807 17.421806 1.1781192C8.9313421 3.8881192 2.4709883 10.978119 0.57088423 19.68812C-1.3292198 28.398119 1.5909401 37.53812 8.1813011 43.53812C12.851557 47.78812 18.901888 50.048119 25.062225 50.048119C27.602365 50.048119 30.162504 49.658119 32.642639 48.868118C41.133106 46.158119 47.59346 39.068119 49.493565 30.35812C49.673573 29.51812 49.81358 28.67812 49.903587 27.828119C49.963589 27.318119 49.433559 26.908119 48.963535 27.128119L48.953533 27.128119ZM31.732592 46.01812C24.252182 48.398121 16.01173 46.60812 10.201411 41.328117C4.401094 36.048119 1.8309532 28.00812 3.5010448 20.33812C5.0111275 13.438119 9.7713881 7.6981192 16.151737 4.878119C13.681602 7.9081192 11.921506 11.478119 11.08146 15.358119C9.1813555 24.068119 12.101516 33.208118 18.691877 39.208118C22.692097 42.848118 27.692369 45.048119 32.95266 45.58812C32.552635 45.748119 32.142612 45.888119 31.722591 46.028118L31.732592 46.01812Z" fill-rule="evenodd"/>
	<defs>
		<linearGradient id="gradient_1" gradientUnits="userSpaceOnUse" x1="38.258694" y1="6.8605399" x2="7.5110559" y2="23.116583">
			<stop offset="0" stop-color="#0086C3"/>
			<stop offset="1" stop-color="#0085C3" stop-opacity="0"/>
		</linearGradient>
	</defs>
	<path fill="url(#gradient_1)" transform="translate(5.00027 4)" d="M48.953533 27.128119C48.823528 27.18812 48.69352 27.238119 48.54351 27.288118C47.563457 27.59812 46.803417 28.408119 46.613407 29.418119C46.593407 29.52812 46.573402 29.628119 46.553402 29.728119C45.633354 33.958118 43.483234 37.748119 40.493073 40.69812C39.173 42.008118 37.372898 42.718121 35.512798 42.718121C30.0625 42.718121 24.802212 40.708118 20.711987 36.988121C14.91167 31.708118 12.341529 23.668119 14.011621 15.998119C14.931671 11.778119 17.071789 7.9581194 20.121956 4.9681191C21.422026 3.6981192 23.182123 3.0081191 25.002222 3.0081191L25.002222 3.0081191C30.42252 3.0081191 35.752811 4.9981194 39.863037 8.7381191C40.443069 9.2681189 40.993099 9.8281193 41.503128 10.408119C42.043156 11.028119 42.903202 11.268119 43.703247 11.068119C43.743248 11.068119 43.773251 11.04812 43.803253 11.038119C44.013264 10.988119 44.193272 10.878119 44.333282 10.71812L44.413284 10.628119C44.753304 10.248119 44.773304 9.6681194 44.453289 9.2681189C43.673244 8.2981195 42.813198 7.378119 41.873146 6.5281191C35.282787 0.50811923 25.912271 -1.5318807 17.421806 1.1781192C8.9313421 3.8881192 2.4709883 10.978119 0.57088423 19.68812C-1.3292198 28.398119 1.5909401 37.53812 8.1813011 43.53812C12.851557 47.78812 18.901888 50.048119 25.062225 50.048119C27.602365 50.048119 30.162504 49.658119 32.642639 48.868118C41.133106 46.158119 47.59346 39.068119 49.493565 30.35812C49.673573 29.51812 49.81358 28.67812 49.903587 27.828119C49.963589 27.318119 49.433559 26.908119 48.963535 27.128119L48.953533 27.128119ZM31.732592 46.01812C24.252182 48.398121 16.01173 46.60812 10.201411 41.328117C4.401094 36.048119 1.8309532 28.00812 3.5010448 20.33812C5.0111275 13.438119 9.7713881 7.6981192 16.151737 4.878119C13.681602 7.9081192 11.921506 11.478119 11.08146 15.358119C9.1813555 24.068119 12.101516 33.208118 18.691877 39.208118C22.692097 42.848118 27.692369 45.048119 32.95266 45.58812C32.552635 45.748119 32.142612 45.888119 31.722591 46.028118L31.732592 46.01812Z" fill-rule="evenodd"/>
	<defs>
		<linearGradient id="gradient_2" gradientUnits="userSpaceOnUse" x1="5.4102964" y1="6.71" x2="29.461615" y2="6.71">
			<stop offset="0" stop-color="#00BDFF"/>
			<stop offset="1" stop-color="#117DE1"/>
		</linearGradient>
	</defs>
	<path fill="url(#gradient_2)" transform="translate(6.07119 22.0081)" d="M30.581675 8.8800001C30.241657 8.71 29.841635 8.6999998 29.491615 8.8400002C29.001589 9.04 28.50156 9.2299995 27.991533 9.3900003C20.521124 11.77 12.270672 9.9799995 6.4603539 4.6999998C4.9402704 3.3199999 3.6301987 1.74 2.5501397 0L0 1.58C1.2200668 3.5599999 2.720149 5.3499999 4.4402432 6.9200001C9.1104994 11.17 15.170831 13.43 21.321167 13.43C23.861307 13.43 26.421448 13.04 28.901583 12.25C30.111649 11.87 31.271713 11.39 32.381775 10.84C32.811798 10.63 32.801796 10.01 32.381775 9.79L30.591675 8.8800001L30.581675 8.8800001Z"/>
	<defs>
		<linearGradient id="gradient_3" gradientUnits="userSpaceOnUse" x1="4.2300663" y1="20.362555" x2="28.161377" y2="1.6625553">
			<stop offset="0" stop-color="#117DE1"/>
			<stop offset="1" stop-color="#2E84EE"/>
		</linearGradient>
	</defs>
	<path fill="url(#gradient_3)" transform="translate(36.373 9.53556)" d="M9.0803318 18.822556L15.000656 13.652555L15.310674 18.332556C15.310674 18.532555 15.440681 18.712555 15.61069 18.812555C15.7907 18.912556 16.000711 18.922556 16.190722 18.822556C17.540796 18.142555 18.530849 16.892555 18.870869 15.412556C19.220888 13.912556 19.580908 11.992556 19.630911 10.382555C19.650911 9.672555 19.920925 8.9925556 20.410954 8.4725552L20.410954 8.4725552C23.131102 5.6025553 24.74119 3.7925553 25.411226 2.4425552C25.721243 1.8025553 25.621239 1.0625553 25.151213 0.54255527C24.671186 0.022555279 23.941147 -0.13744472 23.291111 0.12255528L23.051098 0.22255528C21.321003 0.91255528 19.770918 2.0025554 18.54085 3.3925552L16.280727 5.9525552C15.120663 7.2725554 13.61058 8.2425556 11.920487 8.7325554C10.230395 9.2225552 8.3802938 9.882555 7.2002292 10.332555C6.1101694 10.742556 5.2901244 11.612556 4.9501057 12.712555C4.8901024 12.902555 4.9301047 13.122556 5.060112 13.282556C5.1901188 13.442555 5.4001303 13.522555 5.6001415 13.492556L10.130389 12.892555L7.6802554 15.652555C7.0102186 16.402555 6.0301652 16.792555 5.0301104 16.712555L4.1600628 16.642555C2.9499962 16.542555 1.7299294 16.832556 0.69987303 17.462555L0.36985496 17.672556C-0.18017516 18.012556 -0.10017078 18.822556 0.49986207 19.052555L2.889993 19.952555C5.0001087 20.752556 7.380239 20.312555 9.090333 18.832556L9.0803318 18.822556Z" fill-rule="evenodd"/>
	<path transform="translate(67.3545 9.08812)" d="M6.1203351 18.290001C5.2502875 18.290001 4.4402432 18.15 3.7002027 17.870001C2.9601622 17.59 2.3101265 17.200001 1.7500958 16.709999C1.2000657 16.219999 0.76004165 15.63 0.46002519 14.96C0.16000876 14.29 0 13.56 0 12.77L3.6401994 12.77C3.6401994 13.44 3.8802125 14 4.3702393 14.46C4.8602662 14.92 5.460299 15.15 6.1703382 15.15C6.8803768 15.15 7.4204063 14.96 7.8904324 14.57C8.3504572 14.19 8.5804701 13.71 8.5804701 13.15C8.5804701 12.48 8.2604523 11.96 7.6204176 11.56C6.9803824 11.17 6.1903391 10.85 5.2502875 10.61C4.5802507 10.44 3.9502163 10.21 3.360184 9.9200001C2.7601511 9.6300001 2.2301221 9.2700005 1.7700969 8.8299999C1.3100717 8.3900003 0.9400515 7.8699999 0.67003667 7.27C0.40002191 6.6700001 0.26001424 5.96 0.26001424 5.1599998C0.26001424 4.4299998 0.41002247 3.75 0.7100389 3.1199999C1.0100553 2.5 1.4200778 1.96 1.9401063 1.49C2.4601347 1.03 3.0701683 0.67000002 3.7802072 0.40000001C4.4902458 0.13 5.2502875 0 6.0703325 0C6.8903775 0 7.6804209 0.13 8.4004602 0.40000001C9.1204996 0.66000003 9.7405338 1.04 10.270562 1.51C10.800591 1.99 11.210614 2.55 11.510631 3.2C11.810647 3.8499999 11.960655 4.5500002 11.960655 5.3000002L8.3204556 5.3000002C8.3204556 4.6900001 8.1104441 4.1700001 7.6804209 3.76C7.2503972 3.3499999 6.7203679 3.1500001 6.0703325 3.1500001C5.460299 3.1500001 4.9402704 3.3199999 4.5202475 3.6700001C4.1002245 4.02 3.890213 4.46 3.890213 4.9899998C3.890213 5.6399999 4.1702285 6.1500001 4.7202587 6.54C5.2702885 6.9200001 6.02033 7.2399998 6.960381 7.4699998C7.6604195 7.6399999 8.3304567 7.8699999 8.9604912 8.1499996C9.5905256 8.4300003 10.150556 8.7799997 10.620582 9.1999998C11.100608 9.6199999 11.480629 10.13 11.770645 10.74C12.06066 11.35 12.210669 12.08 12.210669 12.93C12.210669 13.7 12.06066 14.41 11.750644 15.05C11.440627 15.69 11.020603 16.26 10.470573 16.74C9.9205437 17.219999 9.280508 17.59 8.5404682 17.870001C7.8004274 18.15 6.9903827 18.280001 6.1203351 18.280001L6.1203351 18.290001Z"/>
	<path transform="translate(79.7552 9.40812)" d="M8.4704638 7.6500001L5.8303194 7.6500001L5.8303194 17.66L2.5001369 17.66L2.5001369 7.6500001L0 7.6500001L0 4.5999999L2.5001369 4.5999999L2.5001369 0.70999998L5.8303194 0L5.8303194 4.5999999L8.4704638 4.5999999L8.4704638 7.6500001L8.4704638 7.6500001Z"/>
	<path transform="translate(87.7257 13.7381)" d="M14.040769 6.8299999C14.040769 7 14.040769 7.1900001 14.010767 7.4099998C13.980765 7.6300001 13.970765 7.8099999 13.930763 7.96L3.560195 7.96C3.7802072 8.8000002 4.2002301 9.46 4.8302646 9.96C5.4502983 10.45 6.2003398 10.7 7.0703874 10.7C7.6504192 10.7 8.1804485 10.6 8.6604748 10.41C9.140501 10.21 9.5305223 9.96 9.840539 9.6499996L13.580744 9.6499996C13.030714 10.84 12.180667 11.81 11.030604 12.54C9.8805408 13.27 8.5404682 13.64 7.0203843 13.64C6.0303302 13.64 5.1002793 13.47 4.2402325 13.12C3.3801851 12.77 2.6401446 12.29 2.0101101 11.69C1.3900762 11.08 0.90004927 10.36 0.54002959 9.5299997C0.18000986 8.6899996 0 7.79 0 6.8200002C0 5.8499999 0.18000986 4.9400001 0.54002959 4.1100001C0.90004927 3.27 1.3900762 2.55 2.0101101 1.95C2.6301441 1.34 3.3801851 0.87 4.2402325 0.51999998C5.1002793 0.17 6.0303302 0 7.0203843 0C8.0104389 0 8.9604912 0.17 9.8105373 0.51999998C10.660583 0.87 11.400624 1.35 12.020658 1.97C12.640693 2.5899999 13.130719 3.3099999 13.490739 4.1500001C13.850759 4.9899998 14.030768 5.8899999 14.030768 6.8600001L14.040769 6.8299999ZM7.030385 2.8900001C6.1903391 2.8900001 5.4702997 3.1300001 4.8702669 3.6099999C4.2602334 4.0900002 3.8502109 4.73 3.6301987 5.5300002L10.470573 5.5300002C10.250562 4.73 9.8305387 4.0900002 9.2005043 3.6099999C8.5804701 3.1300001 7.8604307 2.8900001 7.0403857 2.8900001L7.030385 2.8900001Z"/>
	<path transform="translate(102.806 13.7081)" d="M15.830867 0C16.550907 0 17.200943 0.12 17.790974 0.34999999C18.381006 0.57999998 18.881035 0.91000003 19.301058 1.34C19.721081 1.77 20.041098 2.28 20.271111 2.8800001C20.501123 3.48 20.62113 4.1399999 20.62113 4.8800001L20.62113 13.38L17.290947 13.38L17.290947 5.8800001C17.290947 5.0799999 17.060934 4.4400001 16.60091 3.96C16.140884 3.48 15.52085 3.24 14.730807 3.24C13.940763 3.24 13.250726 3.48 12.750698 3.97C12.250671 4.46 11.990657 5.1100001 11.990657 5.9299998L11.990657 13.38L8.6604748 13.38L8.6604748 5.8800001C8.6604748 5.0799999 8.4304619 4.4400001 7.9604359 3.96C7.4904103 3.48 6.8703761 3.24 6.1003342 3.24C5.2802892 3.24 4.6202531 3.48 4.1002245 3.97C3.5901966 4.46 3.3301823 5.1100001 3.3301823 5.9299998L3.3301823 13.38L0 13.38L0 0.31999999L3.3301823 0.31999999L3.3301823 1.83C4.290235 0.62 5.5703049 0.0099999998 7.2003942 0.0099999998C8.1704473 0.0099999998 9.0204945 0.20999999 9.7305326 0.62C10.450572 1.03 11.000603 1.61 11.390624 2.3599999C12.41068 0.79000002 13.89076 0 15.820867 0L15.830867 0Z"/>
	<path transform="translate(124.448 9.09812)" d="M9.3205109 18.280001C7.9904375 18.280001 6.7603703 18.049999 5.6203079 17.59C4.4802456 17.129999 3.5001917 16.49 2.6601458 15.67C1.8200997 14.85 1.1700641 13.88 0.70003831 12.76C0.2300126 11.64 0 10.43 0 9.1400003C0 7.8499999 0.2300126 6.6399999 0.70003831 5.52C1.1700641 4.4000001 1.8200997 3.4300001 2.6601458 2.6099999C3.5001917 1.79 4.4802456 1.15 5.6203079 0.69C6.7603703 0.23 7.9904375 0 9.3205109 0C10.530577 0 11.660639 0.2 12.710696 0.58999997C13.760754 0.98000002 14.690804 1.52 15.500849 2.22C16.310894 2.9100001 16.98093 3.73 17.51096 4.6900001C18.040989 5.6500001 18.381006 6.6900001 18.531015 7.8099999L14.870814 7.8099999C14.720806 7.1599998 14.470793 6.5700002 14.140775 6.0300002C13.810757 5.4899998 13.400734 5.0300002 12.910707 4.6300001C12.42068 4.2399998 11.880651 3.9300001 11.270617 3.72C10.660583 3.51 10.010549 3.4000001 9.3105097 3.4000001C8.4904652 3.4000001 7.7404242 3.55 7.0403857 3.8399999C6.350348 4.1300001 5.7503152 4.5300002 5.2402868 5.04C4.7302589 5.5500002 4.3302374 6.1599998 4.0402212 6.8600001C3.7502055 7.5599999 3.6001971 8.3199997 3.6001971 9.1400003C3.6001971 9.96 3.7502055 10.72 4.0402212 11.42C4.3302374 12.12 4.7302589 12.73 5.2402868 13.24C5.7503152 13.75 6.350348 14.15 7.0403857 14.44C7.7304235 14.73 8.4904652 14.88 9.3105097 14.88C10.010549 14.88 10.660583 14.77 11.270617 14.56C11.880651 14.35 12.42068 14.04 12.910707 13.65C13.400734 13.26 13.810757 12.79 14.140775 12.25C14.470793 11.71 14.720806 11.12 14.870814 10.47L18.531015 10.47C18.381006 11.6 18.040989 12.64 17.51096 13.59C16.98093 14.55 16.310894 15.37 15.500849 16.059999C14.690804 16.75 13.760754 17.290001 12.710696 17.690001C11.660639 18.08 10.530577 18.280001 9.3205109 18.280001L9.3205109 18.280001Z"/>
	<path transform="translate(143.359 13.7381)" d="M14.040769 6.8299999C14.040769 7 14.040769 7.1900001 14.010767 7.4099998C13.980765 7.6300001 13.970765 7.8099999 13.930763 7.96L3.560195 7.96C3.7802072 8.8000002 4.2002301 9.46 4.8302646 9.96C5.460299 10.46 6.2003398 10.7 7.0703874 10.7C7.6504192 10.7 8.1804485 10.6 8.6604748 10.41C9.140501 10.22 9.5305223 9.96 9.840539 9.6499996L13.580744 9.6499996C13.030714 10.84 12.180667 11.81 11.030604 12.54C9.8805408 13.27 8.5404682 13.64 7.0203843 13.64C6.0303302 13.64 5.1002793 13.47 4.2402325 13.12C3.3801851 12.77 2.6401446 12.29 2.0101101 11.69C1.3900762 11.08 0.90004927 10.36 0.54002959 9.5299997C0.18000986 8.6899996 0 7.79 0 6.8200002C0 5.8499999 0.18000986 4.9400001 0.54002959 4.1100001C0.90004927 3.28 1.3900762 2.55 2.0101101 1.95C2.6301441 1.34 3.3801851 0.87 4.2402325 0.51999998C5.1002793 0.17 6.0303302 0 7.0203843 0C8.0104389 0 8.9604912 0.17 9.8105373 0.51999998C10.660583 0.87 11.400624 1.35 12.020658 1.97C12.640693 2.5799999 13.130719 3.3099999 13.490739 4.1500001C13.850759 4.9899998 14.030768 5.8899999 14.030768 6.8600001L14.040769 6.8299999ZM7.030385 2.8900001C6.1903391 2.8900001 5.4702997 3.1300001 4.8702669 3.6099999C4.2602334 4.0900002 3.8502109 4.73 3.6301987 5.5300002L10.470573 5.5300002C10.250562 4.73 9.8305387 4.0900002 9.2005043 3.6099999C8.5804701 3.1300001 7.8604307 2.8900001 7.0403857 2.8900001L7.030385 2.8900001Z"/>
	<path transform="translate(158.45 8.63812)" d="M0 0L3.3301823 0L3.3301823 18.43L0 18.43L0 0L0 0Z"/>
	<path transform="translate(163.67 8.63812)" d="M0 0L3.3301823 0L3.3301823 18.43L0 18.43L0 0L0 0Z"/>
	<path transform="translate(68.8446 29.4081)" d="M27.861526 0L21.56118 17.66L18.000986 17.66L13.930763 5.3000002L9.8305387 17.66L6.2703433 17.66L0 0L3.890213 0L8.1204453 12.9L12.340676 0L15.570853 0L19.841087 12.9L24.021317 0L27.861526 0L27.861526 0Z"/>
	<path transform="translate(94.496 33.7381)" d="M7.0203843 13.64C6.0303302 13.64 5.1002793 13.47 4.2402325 13.12C3.3801851 12.77 2.6401446 12.29 2.0101101 11.69C1.3900762 11.08 0.90004927 10.36 0.54002959 9.5299997C0.18000986 8.6899996 0 7.79 0 6.8200002C0 5.8499999 0.18000986 4.9400001 0.54002959 4.1100001C0.90004927 3.27 1.3900762 2.55 2.0101101 1.95C2.6301441 1.34 3.3801851 0.87 4.2402325 0.51999998C5.1002793 0.17 6.0303302 0 7.0203843 0C8.0104389 0 8.9604912 0.17 9.8105373 0.51999998C10.660583 0.87 11.400624 1.35 12.020658 1.95C12.640693 2.5599999 13.130719 3.28 13.490739 4.1100001C13.850759 4.9499998 14.030768 5.8499999 14.030768 6.8200002C14.030768 7.79 13.850759 8.6999998 13.490739 9.5299997C13.130719 10.37 12.640693 11.09 12.020658 11.69C11.400624 12.3 10.660583 12.77 9.8105373 13.12C8.9604912 13.47 8.0304394 13.64 7.0203843 13.64L7.0203843 13.64ZM7.0203843 10.41C7.5304127 10.41 8.0104389 10.32 8.4504633 10.13C8.8904867 9.9399996 9.2705078 9.6899996 9.5905256 9.3699999C9.9105425 9.0500002 10.150556 8.6700001 10.330565 8.2299995C10.510575 7.79 10.60058 7.3099999 10.60058 6.8000002C10.60058 6.29 10.510575 5.8099999 10.330565 5.3699999C10.150556 4.9299998 9.9005423 4.5500002 9.5905256 4.23C9.2705078 3.9100001 8.8904867 3.6600001 8.4504633 3.47C8.0104389 3.28 7.5304127 3.1900001 7.0203843 3.1900001C6.5103564 3.1900001 6.0303302 3.28 5.6003065 3.47C5.1602826 3.6600001 4.7902622 3.9100001 4.4602442 4.23C4.1402268 4.5500002 3.8802125 4.9299998 3.7002027 5.3699999C3.5201929 5.8099999 3.4301879 6.29 3.4301879 6.8000002C3.4301879 7.3099999 3.5201929 7.79 3.7002027 8.2299995C3.8802125 8.6700001 4.1302261 9.0500002 4.4602442 9.3699999C4.780262 9.6899996 5.1602826 9.9399996 5.6003065 10.13C6.0403309 10.32 6.5103564 10.41 7.0203843 10.41Z"/>
	<path transform="translate(109.627 34.0081)" d="M3.3301823 1.92C3.7902076 1.27 4.3402376 0.79000002 4.9702721 0.49000001C5.6003065 0.18000001 6.3003449 0.02 7.0703874 0L7.6804209 0L7.6804209 3.4300001L7.0703874 3.4300001C5.860321 3.45 4.9302702 3.75 4.290235 4.3299999C3.6501999 4.9099998 3.3301823 5.75 3.3301823 6.8400002L3.3301823 13.06L0 13.06L0 0L3.3301823 0L3.3301823 1.92Z"/>
	<path transform="translate(117.617 28.6381)" d="M0 0L3.3301823 0L3.3301823 18.43L0 18.43L0 0L0 0Z"/>
	<path transform="translate(122.098 28.6381)" d="M13.950764 0L13.950764 18.43L10.620582 18.43L10.620582 16.709999C10.110554 17.34 9.4905195 17.84 8.7804813 18.190001C8.0704422 18.540001 7.2603974 18.73 6.3703489 18.73C5.4802999 18.73 4.6202531 18.559999 3.8502109 18.209999C3.0701683 17.860001 2.4001315 17.379999 1.8301003 16.780001C1.260069 16.17 0.81004435 15.45 0.49002683 14.62C0.17000932 13.78 0 12.88 0 11.91C0 10.94 0.16000876 10.03 0.49002683 9.1999998C0.82004493 8.3699999 1.260069 7.6399999 1.8301003 7.04C2.4001315 6.4299998 3.0801687 5.96 3.8502109 5.6100001C4.6302538 5.2600002 5.4702997 5.0900002 6.3703489 5.0900002C7.2703981 5.0900002 8.060441 5.27 8.7804813 5.6300001C9.5005207 5.9899998 10.110554 6.48 10.620582 7.1100001L10.620582 0.02L13.950764 0.02L13.950764 0ZM7.0203843 15.51C7.5304127 15.51 8.0104389 15.42 8.4504633 15.23C8.8904867 15.04 9.280508 14.79 9.6005259 14.47C9.9205437 14.15 10.180557 13.77 10.360567 13.33C10.540577 12.89 10.630582 12.41 10.630582 11.9C10.630582 11.39 10.540577 10.91 10.360567 10.47C10.180557 10.03 9.9305439 9.6499996 9.6005259 9.3299999C9.280508 9.0100002 8.8904867 8.7600002 8.4504633 8.5699997C8.0104389 8.3800001 7.5304127 8.29 7.0203843 8.29C6.5103564 8.29 6.0303302 8.3800001 5.6003065 8.5699997C5.1702833 8.7600002 4.7902622 9.0100002 4.4602442 9.3299999C4.1402268 9.6499996 3.8802125 10.03 3.7002027 10.47C3.5201929 10.91 3.4301879 11.39 3.4301879 11.9C3.4301879 12.41 3.5201929 12.89 3.7002027 13.33C3.8802125 13.77 4.1302261 14.15 4.4602442 14.47C4.780262 14.79 5.1602826 15.04 5.6003065 15.23C6.0403309 15.42 6.5103564 15.51 7.0203843 15.51Z"/>
</svg>
