<?xml version="1.0" encoding="utf-8" ?>
<svg xmlns="http://www.w3.org/2000/svg" xmlns:xlink="http://www.w3.org/1999/xlink" width="174" height="60">
	<path fill="white" transform="translate(3.91591 0.584145)" d="M59.076263 8.5529222C56.950954 2.484041 48.313046 -0.5841561 38.203678 0.092173412C21.547228 0.11869614 -3.916012 15.116508 0.50810111 30.230389C4.6930428 44.527203 24.896973 58.436493 39.036068 55.87067C56.921787 52.624947 65.895485 25.842176 59.076263 8.5529222Z" fill-rule="evenodd"/>
	<path fill="none" stroke="black" stroke-width="1" stroke-miterlimit="5" stroke-opacity="0.50196081" transform="translate(3.91591 0.584145)" d="M59.076263 8.5529222C56.950954 2.484041 48.313046 -0.5841561 38.203678 0.092173412C21.547228 0.11869614 -3.916012 15.116508 0.50810111 30.230389C4.6930428 44.527203 24.896973 58.436493 39.036068 55.87067C56.921787 52.624947 65.895485 25.842176 59.076263 8.5529222Z" fill-rule="evenodd"/>
	<defs>
		<radialGradient id="gradient_0" gradientUnits="userSpaceOnUse" cx="11.99931" cy="39.479729" r="34.627739" gradientTransform="matrix(-0.679966 -0.733244 0.635913 -0.589708 -4.94725 71.5596)">
			<stop offset="0" stop-color="#EB6D95"/>
			<stop offset="1" stop-color="#FFAEC8"/>
		</radialGradient>
	</defs>
	<path fill="url(#gradient_0)" transform="translate(29.891 8.16796)" d="M9.3378534 0L11.433054 2.543582C7.9591193 5.3996162 5.0732374 10.936575 3.8754194 17.400686C2.0441201 27.282764 4.7576065 36.049229 9.500432 37.518967C9.6816921 37.575016 9.8670254 37.620689 10.05489 37.655651C10.954947 37.822075 11.892488 37.731613 12.861485 37.382874C14.069646 36.948463 15.307334 36.115589 16.501095 34.920048C19.055389 32.361671 21.184464 28.386032 22.444267 23.750999C23.249342 24.190458 24.163338 24.253302 24.989468 23.926607C25.312275 23.798702 25.622181 23.647135 25.917162 23.474024C24.571085 29.115419 22.034737 34.042126 18.83556 37.246418C17.316284 38.76796 15.675669 39.871971 13.978557 40.482189C12.47505 41.023296 10.947246 41.170719 9.4529381 40.894409C9.1381798 40.835835 8.8289185 40.759624 8.5245237 40.665497C1.7714852 38.572819 -1.4642187 28.119226 0.63321441 16.801033C1.9630632 9.6244106 5.2109814 3.3928354 9.3378534 0ZM25.85033 6.6582565L25.907 6.8569999L23.151175 9.4543104C23.021791 8.8141365 22.868067 8.1946545 22.690414 7.5992079L25.85033 6.6582565Z"/>
	<defs>
		<radialGradient id="gradient_1" gradientUnits="userSpaceOnUse" cx="29.230215" cy="19.235012" r="29.567772" gradientTransform="matrix(-0.898126 -0.439738 0.381368 -0.778909 48.147 47.071)">
			<stop offset="0" stop-color="#EB6D95"/>
			<stop offset="1" stop-color="#FFAEC8"/>
		</radialGradient>
	</defs>
	<path fill="url(#gradient_1)" transform="translate(13.0965 28.2953)" d="M3.0696301 0C4.5321259 3.725174 7.4409513 7.6330166 11.305906 10.929131C16.708019 15.535817 22.940067 18.04715 27.517363 17.682512C27.892368 17.652597 28.248743 17.604031 28.58609 17.536901L29.230215 20.767553C28.763887 20.86035 28.280272 20.926256 27.779631 20.966192C22.234789 21.407907 15.182815 18.566168 9.165163 13.434578C4.9041753 9.8007183 1.6693884 5.4549651 0 1.2028074L3.0696301 0Z"/>
	<defs>
		<radialGradient id="gradient_2" gradientUnits="userSpaceOnUse" cx="22.586973" cy="23.113226" r="22.917313" gradientTransform="matrix(-0.985586 -0.169177 0.146721 -0.85476 41.4572 46.6907)">
			<stop offset="0" stop-color="black"/>
			<stop offset="0.8405813" stop-color="#E96791"/>
			<stop offset="1" stop-color="#FFAEC8"/>
		</radialGradient>
	</defs>
	<path fill="url(#gradient_2)" transform="translate(12.7231 7.80797)" d="M42.992626 6.9388599C43.024612 7.0290608 43.05492 7.1195273 43.083557 7.2102451L40.150742 9.9745245C40.187016 9.2993383 40.101379 8.6501579 39.884708 8.0391617C38.172573 3.2136538 28.608019 1.679814 18.468018 5.2695832C8.3277254 8.8594551 1.864602 16.067396 3.5767109 20.893497C5.2881002 25.718792 14.852526 27.252647 24.992508 23.662886C25.698977 23.412781 26.387598 23.145115 27.05685 22.861914L27.191936 22.952068L30.059349 24.757412C30.17211 24.828199 30.287128 24.893812 30.404083 24.954226C29.041897 25.624897 27.600248 26.23452 26.093842 26.767818C14.465521 30.884483 2.9680939 29.04063 0.46879089 21.993799C-2.0314059 14.946231 5.7380371 6.2814302 17.366684 2.1646495C28.994907 -1.9519808 40.492271 -0.10818166 42.992626 6.9388599Z"/>
	<path transform="translate(40.9982 14.8367)" d="M3.1000459 15.636849C3.7100458 16.019791 4.4436946 16.078262 5.0907893 15.822144C5.2490592 15.759556 5.4089785 15.674732 5.5524106 15.575085C7.0246539 14.534143 9.7597618 12.579908 12.37864 10.600967L12.287141 14.483909C12.279721 14.653556 12.362978 14.809203 12.498168 14.906379C12.638303 15.001085 12.813884 15.02332 12.972154 14.960732C14.140222 14.497909 15.042857 13.543438 15.434411 12.344379C15.92983 10.85132 16.49037 8.8163795 16.494492 7.3620262C16.75168 7.1421437 16.99733 6.9321437 17.225668 6.7336731C19.687099 4.564497 21.14533 3.1908498 21.803141 2.1342616C22.109789 1.631085 22.078465 1.0084969 21.727303 0.54484981C21.372019 0.082849793 20.779329 -0.1073855 20.221262 0.059790969L18.631966 0.53332037C18.059883 0.70626158 17.529842 1.0126145 17.098722 1.4202615L12.222843 6.0147324C10.429113 6.1489673 7.6874108 6.853085 6.1788974 7.2730851C5.2515326 7.5275555 4.5112891 8.1863794 4.1469378 9.0733204C4.0793433 9.2289677 4.0974784 9.4101439 4.1955729 9.5484972C4.2936673 9.6876736 4.455235 9.7683792 4.6258702 9.7650852L8.4103432 9.6119089L5.222681 12.612026L1.6830324 11.98532C1.5379514 11.95732 1.3879243 12.000144 1.2758162 12.098144L0.1753432 13.029555C0.054167531 13.13085 -0.013427064 13.286497 0.002235098 13.447908C0.010478341 13.605203 0.099505365 13.747673 0.23551889 13.833321L3.1000459 15.636849Z" fill-rule="evenodd"/>
	<path transform="translate(73.5284 9.30615)" d="M6.118 18.278C5.2480001 18.278 4.441 18.136999 3.6989999 17.856001C2.9560001 17.573999 2.3080001 17.186001 1.753 16.691C1.199 16.195999 0.76800001 15.611 0.46000001 14.937C0.153 14.263 0 13.533 0 12.748L3.635 12.748C3.635 13.414 3.878 13.977 4.3639998 14.438C4.8509998 14.899 5.4520001 15.129 6.1690001 15.129C6.8520002 15.129 7.4239998 14.937 7.8839998 14.553C8.3450003 14.169 8.5760002 13.696 8.5760002 13.132C8.5760002 12.467 8.2559996 11.938 7.6160002 11.545C6.9759998 11.153 6.1859999 10.837 5.2480001 10.598C4.5819998 10.427 3.951 10.197 3.3529999 9.9069996C2.756 9.6169996 2.227 9.2539997 1.766 8.8190002C1.3049999 8.3839998 0.93800002 7.8629999 0.66500002 7.257C0.39199999 6.651 0.25600001 5.947 0.25600001 5.145C0.25600001 4.4109998 0.405 3.733 0.704 3.1099999C1.002 2.487 1.4119999 1.9450001 1.932 1.484C2.4530001 1.024 3.0669999 0.66100001 3.776 0.396C4.4840002 0.132 5.2480001 0 6.0669999 0C6.9029999 0 7.6799998 0.132 8.3959999 0.396C9.1129999 0.66100001 9.7360001 1.0319999 10.265 1.51C10.794 1.988 11.208 2.5510001 11.507 3.2C11.805 3.848 11.955 4.5479999 11.955 5.2989998L8.3199997 5.2989998C8.3199997 4.684 8.1059999 4.1719999 7.6799998 3.763C7.2529998 3.3529999 6.7150002 3.148 6.0669999 3.148C5.4520001 3.148 4.9359999 3.323 4.5180001 3.6730001C4.0999999 4.0229998 3.891 4.4629998 3.891 4.9920001C3.891 5.6399999 4.1680002 6.1560001 4.723 6.54C5.277 6.9239998 6.0240002 7.2360001 6.9629998 7.4749999C7.6630001 7.645 8.3280001 7.8720002 8.96 8.1529999C9.5909996 8.4350004 10.146 8.7849998 10.624 9.2030001C11.101 9.6210003 11.485 10.133 11.776 10.739C12.066 11.345 12.211 12.074 12.211 12.928C12.211 13.696 12.057 14.404 11.75 15.052C11.443 15.701 11.016 16.264 10.47 16.742001C9.9239998 17.219999 9.2799997 17.594999 8.5369997 17.868C7.7950001 18.141001 6.9879999 18.278 6.118 18.278" fill-rule="evenodd"/>
	<path transform="translate(85.918 9.61335)" d="M8.474 7.6539998L5.8369999 7.6539998L5.8369999 17.664L2.5090001 17.664L2.5090001 7.6539998L0 7.6539998L0 4.6079998L2.5090001 4.6079998L2.5090001 0.71600002L5.8369999 0L5.8369999 4.6079998L8.474 4.6079998L8.474 7.6539998Z" fill-rule="evenodd"/>
	<path transform="translate(93.906 13.9141)" d="M7.0139999 2.918C6.178 2.918 5.4569998 3.1570001 4.8509998 3.635C4.2449999 4.1129999 3.8310001 4.7529998 3.609 5.5549998L10.444 5.5549998C10.223 4.7529998 9.8000002 4.1129999 9.177 3.635C8.5539999 3.1570001 7.8330002 2.918 7.0139999 2.918M14.028 6.8600001C14.028 7.0310001 14.02 7.223 14.003 7.4359999C13.986 7.6500001 13.96 7.8330002 13.926 7.987L3.5580001 7.987C3.78 8.823 4.2020001 9.4890003 4.8249998 9.9840002C5.448 10.479 6.1950002 10.726 7.0650001 10.726C7.645 10.726 8.1750002 10.628 8.6520004 10.432C9.1300001 10.235 9.5229998 9.9840002 9.8299999 9.6759996L13.568 9.6759996C13.021 10.871 12.172 11.835 11.02 12.569C9.868 13.303 8.533 13.67 7.0139999 13.67C6.0240002 13.67 5.098 13.495 4.2360001 13.145C3.375 12.795 2.632 12.317 2.0090001 11.712C1.386 11.106 0.89600003 10.385 0.537 9.5480003C0.17900001 8.7119999 0 7.8080001 0 6.835C0 5.862 0.17900001 4.9569998 0.537 4.1209998C0.89600003 3.2850001 1.386 2.5639999 2.0090001 1.9579999C2.632 1.352 3.375 0.87400001 4.2360001 0.52399999C5.098 0.175 6.0240002 0 7.0139999 0C8.0209999 0 8.9510002 0.175 9.8039999 0.52399999C10.658 0.87400001 11.396 1.3559999 12.019 1.971C12.642 2.585 13.132 3.3110001 13.491 4.1469998C13.849 4.9829998 14.028 5.888 14.028 6.8600001" fill-rule="evenodd"/>
	<path transform="translate(108.984 13.9137)" d="M15.821 0C16.538 0 17.191 0.115 17.778999 0.34599999C18.368 0.57599998 18.872 0.90499997 19.290001 1.331C19.708 1.758 20.032 2.27 20.263 2.8670001C20.493 3.4649999 20.608 4.1300001 20.608 4.8639998L20.608 13.363L17.280001 13.363L17.280001 5.862C17.280001 5.0599999 17.049999 4.4200001 16.589001 3.9419999C16.128 3.4649999 15.505 3.2260001 14.72 3.2260001C13.901 3.2260001 13.24 3.4690001 12.736 3.9549999C12.233 4.4419999 11.981 5.0939999 11.981 5.914L11.981 13.363L8.6529999 13.363L8.6529999 5.862C8.6529999 5.0599999 8.4180002 4.4200001 7.9489999 3.9419999C7.48 3.4649999 6.8610001 3.2260001 6.0929999 3.2260001C5.2740002 3.2260001 4.6079998 3.4690001 4.0960002 3.9549999C3.5840001 4.4419999 3.3280001 5.0939999 3.3280001 5.914L3.3280001 13.363L0 13.363L0 0.30700001L3.3280001 0.30700001L3.3280001 1.818C4.2839999 0.60600001 5.572 0 7.1939998 0C8.1669998 0 9.0109997 0.205 9.7279997 0.61400002C10.445 1.024 11 1.604 11.392 2.355C12.416 0.78500003 13.892 0 15.821 0" fill-rule="evenodd"/>
	<path transform="translate(130.616 9.30615)" d="M9.3179998 18.278C7.987 18.278 6.7540002 18.048 5.619 17.587C4.4840002 17.125999 3.4979999 16.486 2.6619999 15.667C1.826 14.848 1.173 13.879 0.704 12.761C0.234 11.643 0 10.436 0 9.1389999C0 7.842 0.234 6.6339998 0.704 5.5159998C1.173 4.3990002 1.826 3.4300001 2.6619999 2.6110001C3.4979999 1.7920001 4.4840002 1.152 5.619 0.69099998C6.7540002 0.23 7.987 0 9.3179998 0C10.53 0 11.66 0.19599999 12.71 0.588C13.76 0.98100001 14.69 1.523 15.5 2.214C16.311001 2.905 16.981001 3.7290001 17.51 4.684C18.039 5.6399999 18.379999 6.6810002 18.534 7.8080001L14.873 7.8080001C14.72 7.1589999 14.476 6.566 14.144 6.0279999C13.811 5.4910002 13.401 5.026 12.915 4.6329999C12.428 4.2410002 11.882 3.938 11.276 3.724C10.671 3.5109999 10.018 3.404 9.3179998 3.404C8.4989996 3.404 7.744 3.549 7.052 3.8399999C6.3610001 4.1300001 5.7600002 4.5310001 5.2480001 5.0430002C4.7360001 5.5549998 4.335 6.1609998 4.0440001 6.8600001C3.7539999 7.5599999 3.609 8.3199997 3.609 9.1389999C3.609 9.9580002 3.7539999 10.717 4.0440001 11.417C4.335 12.117 4.7360001 12.723 5.2480001 13.235C5.7600002 13.747 6.3610001 14.148 7.052 14.438C7.744 14.728 8.4989996 14.873 9.3179998 14.873C10.018 14.873 10.671 14.767 11.276 14.553C11.882 14.34 12.428 14.037 12.915 13.644C13.401 13.252 13.811 12.787 14.144 12.249C14.476 11.712 14.72 11.119 14.873 10.47L18.534 10.47C18.379999 11.596 18.039 12.637 17.51 13.593C16.981001 14.549 16.311001 15.372 15.5 16.063999C14.69 16.754999 13.76 17.297001 12.71 17.688999C11.66 18.082001 10.53 18.278 9.3179998 18.278" fill-rule="evenodd"/>
	<path transform="translate(149.535 13.9141)" d="M7.0139999 2.918C6.178 2.918 5.4569998 3.1570001 4.8509998 3.635C4.2449999 4.1129999 3.8310001 4.7529998 3.609 5.5549998L10.444 5.5549998C10.223 4.7529998 9.8000002 4.1129999 9.177 3.635C8.5539999 3.1570001 7.8330002 2.918 7.0139999 2.918M14.028 6.8600001C14.028 7.0310001 14.02 7.223 14.003 7.4359999C13.986 7.6500001 13.96 7.8330002 13.926 7.987L3.5580001 7.987C3.78 8.823 4.2020001 9.4890003 4.8249998 9.9840002C5.448 10.479 6.1950002 10.726 7.0650001 10.726C7.645 10.726 8.1750002 10.628 8.6520004 10.432C9.1300001 10.235 9.5229998 9.9840002 9.8299999 9.6759996L13.568 9.6759996C13.021 10.871 12.172 11.835 11.02 12.569C9.868 13.303 8.533 13.67 7.0139999 13.67C6.0240002 13.67 5.098 13.495 4.2360001 13.145C3.375 12.795 2.632 12.317 2.0090001 11.712C1.386 11.106 0.89600003 10.385 0.537 9.5480003C0.17900001 8.7119999 0 7.8080001 0 6.835C0 5.862 0.17900001 4.9569998 0.537 4.1209998C0.89600003 3.2850001 1.386 2.5639999 2.0090001 1.9579999C2.632 1.352 3.375 0.87400001 4.2360001 0.52399999C5.098 0.175 6.0240002 0 7.0139999 0C8.0209999 0 8.9510002 0.175 9.8039999 0.52399999C10.658 0.87400001 11.396 1.3559999 12.019 1.971C12.642 2.585 13.132 3.3110001 13.491 4.1469998C13.849 4.9829998 14.028 5.888 14.028 6.8600001" fill-rule="evenodd"/>
	<path transform="translate(164.613 8.84475)" d="M0 0L3.3280001 0L3.3280001 18.431999L0 18.431999L0 0Z"/>
	<path transform="translate(169.835 8.84475)" d="M0 0L3.3280001 0L3.3280001 18.431999L0 18.431999L0 0Z"/>
	<path transform="translate(75.0158 29.6129)" d="M27.853001 0L21.555 17.664L17.997 17.664L13.927 5.2989998L9.8310003 17.664L6.2719998 17.664L0 0L3.891 0L8.1149998 12.902L12.339 0L15.565 0L19.84 12.902L24.013 0L27.853001 0Z" fill-rule="evenodd"/>
	<path transform="translate(100.668 33.9135)" d="M7.0139999 10.445C7.526 10.445 8.0039997 10.351 8.448 10.163C8.8909998 9.9759998 9.2709999 9.724 9.5869999 9.408C9.9029999 9.092 10.15 8.7130003 10.329 8.2690001C10.508 7.8249998 10.598 7.3470001 10.598 6.835C10.598 6.323 10.508 5.8460002 10.329 5.402C10.15 4.9580002 9.9029999 4.5780001 9.5869999 4.263C9.2709999 3.947 8.8909998 3.6949999 8.448 3.507C8.0039997 3.3199999 7.526 3.2260001 7.0139999 3.2260001C6.5019999 3.2260001 6.0279999 3.3199999 5.5929999 3.507C5.158 3.6949999 4.7779999 3.947 4.454 4.263C4.1300001 4.5780001 3.878 4.9580002 3.6989999 5.402C3.52 5.8460002 3.4300001 6.323 3.4300001 6.835C3.4300001 7.3470001 3.52 7.8249998 3.6989999 8.2690001C3.878 8.7130003 4.1300001 9.092 4.454 9.408C4.7779999 9.724 5.158 9.9759998 5.5929999 10.163C6.0279999 10.351 6.5019999 10.445 7.0139999 10.445M7.0139999 13.671C6.0240002 13.671 5.098 13.496 4.2360001 13.146C3.375 12.796 2.632 12.318 2.0090001 11.712C1.386 11.106 0.89600003 10.385 0.537 9.5489998C0.17900001 8.7130003 0 7.8080001 0 6.835C0 5.8629999 0.17900001 4.9580002 0.537 4.1220002C0.89600003 3.286 1.386 2.5639999 2.0090001 1.959C2.632 1.353 3.375 0.875 4.2360001 0.52499998C5.098 0.175 6.0240002 0 7.0139999 0C8.0209999 0 8.9510002 0.175 9.8039999 0.52499998C10.658 0.875 11.396 1.353 12.019 1.959C12.642 2.5639999 13.132 3.286 13.491 4.1220002C13.849 4.9580002 14.028 5.8629999 14.028 6.835C14.028 7.8080001 13.849 8.7130003 13.491 9.5489998C13.132 10.385 12.642 11.106 12.019 11.712C11.396 12.318 10.658 12.796 9.8039999 13.146C8.9510002 13.496 8.0209999 13.671 7.0139999 13.671" fill-rule="evenodd"/>
	<path transform="translate(115.797 34.2209)" d="M3.3280001 1.92C3.789 1.271 4.335 0.79400003 4.9660001 0.486C5.598 0.17900001 6.2979999 0.017000001 7.066 0L7.6799998 0L7.6799998 3.4300001L7.066 3.4300001C5.8540001 3.447 4.928 3.7460001 4.2880001 4.3260002C3.648 4.9070001 3.3280001 5.743 3.3280001 6.835L3.3280001 13.056L0 13.056L0 0L3.3280001 0L3.3280001 1.92Z" fill-rule="evenodd"/>
	<path transform="translate(123.784 28.8447)" d="M0 0L3.3280001 0L3.3280001 18.431999L0 18.431999L0 0Z"/>
	<path transform="translate(128.264 28.8445)" d="M7.0139999 15.514C7.526 15.514 8.0039997 15.42 8.448 15.232C8.8909998 15.045 9.2749996 14.793 9.6000004 14.477C9.9239998 14.161 10.176 13.782 10.355 13.338C10.534 12.894 10.624 12.416 10.624 11.904C10.624 11.392 10.534 10.915 10.355 10.471C10.176 10.027 9.9239998 9.6470003 9.6000004 9.3319998C9.2749996 9.0159998 8.8909998 8.7639999 8.448 8.5760002C8.0039997 8.3889999 7.526 8.2950001 7.0139999 8.2950001C6.5019999 8.2950001 6.0279999 8.3889999 5.5929999 8.5760002C5.158 8.7639999 4.7779999 9.0159998 4.454 9.3319998C4.1300001 9.6470003 3.878 10.027 3.6989999 10.471C3.52 10.915 3.4300001 11.392 3.4300001 11.904C3.4300001 12.416 3.52 12.894 3.6989999 13.338C3.878 13.782 4.1300001 14.161 4.454 14.477C4.7779999 14.793 5.158 15.045 5.5929999 15.232C6.0279999 15.42 6.5019999 15.514 7.0139999 15.514L7.0139999 15.514ZM13.952 0L13.952 18.431999L10.624 18.431999L10.624 16.716999C10.112 17.349001 9.4969997 17.844 8.7799997 18.202C8.0640001 18.559999 7.2610002 18.74 6.3740001 18.74C5.4689999 18.74 4.6290002 18.565001 3.852 18.215C3.076 17.865 2.402 17.386999 1.83 16.781C1.258 16.174999 0.81 15.454 0.486 14.618C0.162 13.782 0 12.877 0 11.904C0 10.932 0.162 10.027 0.486 9.191C0.81 8.3549995 1.258 7.6329999 1.83 7.0279999C2.402 6.4219999 3.076 5.9439998 3.852 5.5939999C4.6290002 5.244 5.4689999 5.0689998 6.3740001 5.0689998C7.2610002 5.0689998 8.0640001 5.2480001 8.7799997 5.6069999C9.4969997 5.9650002 10.112 6.46 10.624 7.092L10.624 0L13.952 0Z" fill-rule="evenodd"/>
</svg>
