<?xml version="1.0" encoding="utf-8" ?>
<svg xmlns="http://www.w3.org/2000/svg" xmlns:xlink="http://www.w3.org/1999/xlink" width="111" height="36">
	<path transform="translate(0.899532 1.03852)" d="M33.124249 18.391945C33.036278 18.432623 32.948311 18.466522 32.846806 18.50042C32.183659 18.710588 31.669378 19.259743 31.540808 19.944489C31.527273 20.019064 31.513741 20.086861 31.500206 20.154657C30.877657 23.022453 29.422787 25.591946 27.399504 27.591946C26.506281 28.480082 25.28825 28.961437 24.029617 28.961437C20.341692 28.961437 16.782335 27.598724 14.014698 25.076691C10.089932 21.49703 8.3508549 16.046183 9.480917 10.846183C10.103466 7.9851656 11.551569 5.3953352 13.615455 3.3682165C14.495144 2.5071995 15.686107 2.039403 16.917671 2.039403L16.917671 2.039403C20.585297 2.039403 24.192022 3.3885553 26.973192 5.9241486C27.365669 6.2834706 27.737844 6.6631317 28.082954 7.0563521C28.448362 7.4766908 29.030312 7.6394029 29.571657 7.5038095C29.598724 7.5038095 29.619026 7.4902501 29.639326 7.4834704C29.781429 7.4495726 29.903233 7.3749962 29.997969 7.2665215L30.052103 7.2055044C30.282175 6.9478774 30.29571 6.554657 30.07917 6.2834706C29.551357 5.6258435 28.96941 5.0021148 28.333326 4.4258437C23.873981 0.34448761 17.533453 -1.0385633 11.788408 0.79872489C6.0433631 2.636013 1.6719861 7.4427929 0.38628691 13.347878C-0.89941221 19.252962 1.0765043 25.449572 5.5358505 29.517368C8.6959639 32.398724 12.789901 33.930927 16.958273 33.930927C18.67705 33.930927 20.409359 33.666523 22.087536 33.130928C27.832581 31.29364 32.203957 26.48686 33.489658 20.581776C33.611462 20.012283 33.706196 19.442793 33.767097 18.866522C33.807697 18.52076 33.449055 18.242792 33.131016 18.391945L33.124249 18.391945ZM21.471754 31.198725C16.410158 32.812283 10.834285 31.598724 6.9027514 28.019064C2.9779859 24.439404 1.2389085 18.988556 2.3689704 13.788555C3.3907628 9.110589 6.6117778 5.2190638 10.92902 3.3071995C9.2576113 5.3614368 8.0666475 7.781776 7.4982333 10.412284C6.2125344 16.317369 8.1884508 22.513979 12.647797 26.581776C15.354532 29.049572 18.737951 30.541098 22.297308 30.9072C22.026634 31.015675 21.749193 31.11059 21.464987 31.205505L21.471754 31.198725Z"/>
	<path transform="translate(1.62416 13.2474)" d="M20.692989 6.020339C20.462917 5.9050846 20.192244 5.8983049 19.955404 5.9932203C19.623829 6.1288137 19.285488 6.257627 18.940378 6.3661017C13.88555 7.979661 8.3029099 6.7661018 4.371377 3.1864407C3.3428178 2.2508473 2.456362 1.179661 1.7255436 0L0 1.0711864C0.82555419 2.4135594 1.8405799 3.6271186 3.0044758 4.6915255C6.1645889 7.5728812 10.265293 9.1050844 14.426898 9.1050844C16.145676 9.1050844 17.877985 8.8406782 19.556162 8.3050852C20.374949 8.0474577 21.159901 7.722034 21.91102 7.3491526C22.201994 7.2067795 22.195229 6.7864408 21.91102 6.6372881L20.699757 6.020339L20.692989 6.020339Z"/>
	<path transform="translate(22.1278 4.79145)" d="M6.144177 12.761054L10.150145 9.25597L10.359917 12.428851C10.359917 12.564445 10.447886 12.686479 10.562922 12.754274C10.684725 12.822071 10.826828 12.828851 10.955399 12.761054C11.868921 12.300037 12.538838 11.452579 12.768911 10.44919C13.005751 9.4322405 13.249356 8.1305456 13.283191 7.0390205C13.296724 6.5576644 13.479429 6.0966477 13.811004 5.7441053L13.811004 5.7441053C15.651584 3.7983425 16.741045 2.571224 17.194424 1.6559697C17.404194 1.2220714 17.336527 0.72037643 17.018484 0.36783409C16.693676 0.015291714 16.199697 -0.093182862 15.759853 0.083088323L15.597449 0.15088494C14.426786 0.61868155 13.377926 1.3576646 12.545606 2.3000374L11.0163 4.0356307C10.231347 4.9305458 9.2095547 5.5881729 8.065959 5.9203763C6.9223633 6.2525797 5.6704984 6.7000375 4.8720112 7.0051222C4.1344261 7.2830882 3.5795453 7.8729186 3.3494728 8.6186819C3.3088717 8.7474947 3.3359392 8.8966475 3.423908 9.0051222C3.5118768 9.1135969 3.6539805 9.1678343 3.7893174 9.1474953L6.8546948 8.740715L5.1968193 10.611902C4.7434416 11.120377 4.0802913 11.384783 3.4036076 11.330546L2.8148925 11.283089C1.9961053 11.215292 1.1705511 11.411901 0.4735668 11.839021L0.25026116 11.981394C-0.12191493 12.211902 -0.067780226 12.761054 0.33823004 12.916986L1.9555043 13.527156C3.383307 14.069529 4.9938145 13.771224 6.1509438 12.767834L6.144177 12.761054Z"/>
	<path transform="translate(43.0913 4.4881)" d="M4.1413045 12.4C3.5525899 12.4 3.0044758 12.305085 2.5037301 12.115254C2.002984 11.925424 1.5631396 11.661017 1.1841966 11.328814C0.81202054 10.996611 0.51427966 10.59661 0.31127453 10.142373C0.1082694 9.6881351 0 9.1932201 0 8.6576271L2.4631288 8.6576271C2.4631288 9.1118641 2.6255331 9.4915257 2.957108 9.8033895C3.2886832 10.115254 3.6946933 10.271187 4.175139 10.271187C4.6555843 10.271187 5.0209937 10.142373 5.339035 9.8779659C5.6503096 9.6203394 5.8059468 9.2949152 5.8059468 8.9152546C5.8059468 8.4610167 5.5894079 8.1084747 5.1563301 7.8372879C4.7232528 7.5728812 4.1886725 7.3559322 3.5525899 7.1932201C3.0992117 7.0779662 2.6729009 6.9220338 2.2736576 6.7254238C1.8676472 6.5288134 1.5090048 6.2847457 1.1977303 5.9864407C0.88645571 5.6881356 0.63608277 5.3355932 0.45337814 4.9288135C0.27067351 4.5220337 0.17593779 4.040678 0.17593779 3.4983051C0.17593779 3.0033898 0.27744034 2.5423729 0.48044547 2.1152542C0.68345058 1.6949153 0.96089095 1.3288136 1.3127666 1.0101695C1.6646421 0.69830507 2.0774193 0.45423728 2.5578647 0.27118644C3.0383101 0.088135593 3.5525899 0 4.1074705 0C4.6623511 0 5.1969314 0.088135593 5.6841435 0.27118644C6.1713562 0.44745764 6.5908999 0.70508474 6.9495425 1.0237288C7.3081846 1.3491526 7.5856252 1.7288135 7.78863 2.1694915C7.9916353 2.6101694 8.0931377 3.0847456 8.0931377 3.5932202L5.6300092 3.5932202C5.6300092 3.179661 5.4879055 2.8271186 5.1969314 2.5491526C4.9059572 2.2711864 4.5473151 2.1355932 4.1074705 2.1355932C3.6946933 2.1355932 3.3428178 2.2508473 3.0586107 2.4881356C2.7744036 2.7254238 2.6322999 3.0237288 2.6322999 3.3830509C2.6322999 3.8237288 2.8217714 4.1694913 3.1939473 4.4338984C3.5661235 4.6915255 4.0736365 4.9084744 4.7097192 5.0644069C5.1833978 5.1796608 5.636776 5.3355932 6.0630865 5.5254235C6.4893975 5.7152543 6.8683405 5.9525423 7.1863818 6.237288C7.5111899 6.5220337 7.7683296 6.8677964 7.9645681 7.2813559C8.1608067 7.6949153 8.2623091 8.1898308 8.2623091 8.7661018C8.2623091 9.2881355 8.1608067 9.7694912 7.9510341 10.20339C7.7412624 10.637288 7.4570551 11.023728 7.0848789 11.349153C6.7127032 11.674576 6.2796254 11.925424 5.7788792 12.115254C5.2781334 12.305085 4.7300196 12.39322 4.1413045 12.39322L4.1413045 12.4Z"/>
	<path transform="translate(51.4822 4.70505)" d="M5.7315116 5.1864405L3.9450665 5.1864405L3.9450665 11.972881L1.6917094 11.972881L1.6917094 5.1864405L0 5.1864405L0 3.118644L1.6917094 3.118644L1.6917094 0.48135594L3.9450665 0L3.9450665 3.118644L5.7315116 3.118644L5.7315116 5.1864405L5.7315116 5.1864405Z"/>
	<path transform="translate(56.8754 7.64064)" d="M9.5006399 4.6305084C9.5006399 4.7457628 9.5006399 4.8745761 9.48034 5.0237288C9.4600391 5.1728811 9.4532719 5.2949152 9.4262047 5.3966103L2.4089942 5.3966103C2.5578647 5.9661016 2.8420718 6.4135594 3.2683825 6.7525425C3.6879265 7.0847459 4.1954393 7.2542372 4.7841544 7.2542372C5.176631 7.2542372 5.5352731 7.1864405 5.8600817 7.0576272C6.1848898 6.9220338 6.4487963 6.7525425 6.6585684 6.5423727L9.1893654 6.5423727C8.8171892 7.3491526 8.2420082 8.0067797 7.4638219 8.5016947C6.6856356 8.9966106 5.7788792 9.2474575 4.75032 9.2474575C4.0804033 9.2474575 3.4510872 9.1322031 2.8691392 8.8949156C2.2871912 8.6576271 1.7864451 8.3322039 1.3601344 7.9254236C0.94059044 7.5118642 0.60901541 7.0237288 0.36540923 6.4610171C0.12180308 5.8915253 0 5.2813559 0 4.6237288C0 3.9661016 0.12180308 3.3491526 0.36540923 2.7864406C0.60901541 2.2169492 0.94059044 1.7288135 1.3601344 1.3220339C1.7796783 0.90847456 2.2871912 0.58983052 2.8691392 0.35254237C3.4510872 0.11525424 4.0804033 0 4.75032 0C5.4202371 0 6.0630865 0.11525424 6.638268 0.35254237C7.213449 0.58983052 7.7141948 0.91525424 8.1337385 1.3355932C8.5532827 1.7559322 8.8848581 2.2440679 9.1284637 2.8135593C9.3720703 3.3830509 9.4938736 3.9932203 9.4938736 4.6508474L9.5006399 4.6305084ZM4.7570868 1.959322C4.1886725 1.959322 3.7014601 2.1220338 3.29545 2.4474576C2.8826728 2.7728813 2.6052325 3.2067797 2.456362 3.7491527L7.0848789 3.7491527C6.9360085 3.2067797 6.6518016 2.7728813 6.2254906 2.4474576C5.8059468 2.1220338 5.3187346 1.959322 4.7638535 1.959322L4.7570868 1.959322Z"/>
	<path transform="translate(67.0798 7.6203)" d="M10.711905 0C11.199117 0 11.638961 0.081355929 12.038204 0.23728813C12.437448 0.39322034 12.775789 0.61694914 13.059997 0.90847456C13.344204 1.2 13.560742 1.5457627 13.71638 1.9525424C13.872017 2.3593221 13.953219 2.8067796 13.953219 3.3084745L13.953219 9.0711861L11.699862 9.0711861L11.699862 3.9864407C11.699862 3.4440677 11.544225 3.0101695 11.23295 2.6847458C10.921676 2.3593221 10.502132 2.1966102 9.9675522 2.1966102C9.432972 2.1966102 8.9660597 2.3593221 8.627718 2.6915255C8.2893763 3.0237288 8.1134386 3.4644067 8.1134386 4.020339L8.1134386 9.0711861L5.8600817 9.0711861L5.8600817 3.9864407C5.8600817 3.4440677 5.7044444 3.0101695 5.3864026 2.6847458C5.0683613 2.3593221 4.6488175 2.1966102 4.1277709 2.1966102C3.5728903 2.1966102 3.1262791 2.3593221 2.7744036 2.6915255C2.4292948 3.0237288 2.2533569 3.4644067 2.2533569 4.020339L2.2533569 9.0711861L0 9.0711861L0 0.21694915L2.2533569 0.21694915L2.2533569 1.240678C2.9029734 0.42033899 3.7691286 0.0067796609 4.8721232 0.0067796609C5.5285063 0.0067796609 6.1036878 0.14237288 6.5841331 0.42033899C7.0713453 0.69830507 7.4435215 1.0915254 7.707428 1.6C8.397646 0.53559321 9.3991375 0 10.705137 0L10.711905 0Z"/>
	<path transform="translate(81.7232 4.49488)" d="M6.3066926 12.39322C5.4067035 12.39322 4.5743823 12.237288 3.8029628 11.925424C3.0315433 11.61356 2.3683932 11.179661 1.7999789 10.623729C1.2315644 10.067797 0.79172003 9.4101696 0.47367865 8.6508474C0.15563726 7.8915253 0 7.0711865 0 6.19661C0 5.3220339 0.15563726 4.5016947 0.47367865 3.742373C0.79172003 2.9830508 1.2315644 2.3254237 1.7999789 1.7694916C2.3683932 1.2135593 3.0315433 0.779661 3.8029628 0.46779662C4.5743823 0.1559322 5.4067035 0 6.3066926 0C7.1254802 0 7.8901329 0.13559322 8.6006508 0.40000001C9.3111687 0.66440678 9.940485 1.0305085 10.488599 1.5050848C11.036713 1.9728813 11.49009 2.5288136 11.848733 3.179661C12.207376 3.8305085 12.437448 4.535593 12.53895 5.2949152L10.062287 5.2949152C9.9607849 4.8542371 9.7916145 4.4542375 9.5683088 4.0881357C9.3450031 3.722034 9.0675621 3.4101696 8.7359877 3.138983C8.4044123 2.8745763 8.0390034 2.6644068 7.6262259 2.5220339C7.213449 2.3796611 6.7736044 2.3050847 6.2999258 2.3050847C5.7450452 2.3050847 5.2375326 2.4067798 4.7638535 2.6033897C4.2969418 2.8 3.8909316 3.0711865 3.5458229 3.416949C3.2007143 3.7627118 2.9300408 4.176271 2.7338023 4.6508474C2.537564 5.1254239 2.4360616 5.6406779 2.4360616 6.19661C2.4360616 6.7525425 2.537564 7.2677965 2.7338023 7.742373C2.9300408 8.2169495 3.2007143 8.6305084 3.5458229 8.9762716C3.8909316 9.3220339 4.2969418 9.5932207 4.7638535 9.7898302C5.2307653 9.9864407 5.7450452 10.088136 6.2999258 10.088136C6.7736044 10.088136 7.213449 10.013559 7.6262259 9.8711863C8.0390034 9.7288132 8.4044123 9.5186443 8.7359877 9.2542372C9.0675621 8.989831 9.3450031 8.6711864 9.5683088 8.3050852C9.7916145 7.938983 9.9607849 7.5389829 10.062287 7.0983052L12.53895 7.0983052C12.437448 7.8644066 12.207376 8.5694914 11.848733 9.2135592C11.49009 9.8644066 11.036713 10.420339 10.488599 10.888136C9.940485 11.355932 9.3111687 11.722034 8.6006508 11.99322C7.8901329 12.257627 7.1254802 12.39322 6.3066926 12.39322L6.3066926 12.39322Z"/>
	<path transform="translate(94.5193 7.64064)" d="M9.5006399 4.6305084C9.5006399 4.7457628 9.5006399 4.8745761 9.48034 5.0237288C9.4600391 5.1728811 9.4532719 5.2949152 9.4262047 5.3966103L2.4089942 5.3966103C2.5578647 5.9661016 2.8420718 6.4135594 3.2683825 6.7525425C3.6946933 7.0915256 4.1954393 7.2542372 4.7841544 7.2542372C5.176631 7.2542372 5.5352731 7.1864405 5.8600817 7.0576272C6.1848898 6.9288135 6.4487963 6.7525425 6.6585684 6.5423727L9.1893654 6.5423727C8.8171892 7.3491526 8.2420082 8.0067797 7.4638219 8.5016947C6.6856356 8.9966106 5.7788792 9.2474575 4.75032 9.2474575C4.0804033 9.2474575 3.4510872 9.1322031 2.8691392 8.8949156C2.2871912 8.6576271 1.7864451 8.3322039 1.3601344 7.9254236C0.94059044 7.5118642 0.60901541 7.0237288 0.36540923 6.4610171C0.12180308 5.8915253 0 5.2813559 0 4.6237288C0 3.9661016 0.12180308 3.3491526 0.36540923 2.7864406C0.60901541 2.2237289 0.94059044 1.7288135 1.3601344 1.3220339C1.7796783 0.90847456 2.2871912 0.58983052 2.8691392 0.35254237C3.4510872 0.11525424 4.0804033 0 4.75032 0C5.4202371 0 6.0630865 0.11525424 6.638268 0.35254237C7.213449 0.58983052 7.7141948 0.91525424 8.1337385 1.3355932C8.5532827 1.7491525 8.8848581 2.2440679 9.1284637 2.8135593C9.3720703 3.3830509 9.4938736 3.9932203 9.4938736 4.6508474L9.5006399 4.6305084ZM4.7570868 1.959322C4.1886725 1.959322 3.7014601 2.1220338 3.29545 2.4474576C2.8826728 2.7728813 2.6052325 3.2067797 2.456362 3.7491527L7.0848789 3.7491527C6.9360085 3.2067797 6.6518016 2.7728813 6.2254906 2.4474576C5.8059468 2.1220338 5.3187346 1.959322 4.7638535 1.959322L4.7570868 1.959322Z"/>
	<path transform="translate(104.73 4.18301)" d="M0 0L2.2533569 0L2.2533569 12.494915L0 12.494915L0 0L0 0Z"/>
	<path transform="translate(108.263 4.18301)" d="M0 0L2.2533569 0L2.2533569 12.494915L0 12.494915L0 0L0 0Z"/>
	<path transform="translate(44.0996 18.2644)" d="M18.852409 0L14.589302 11.972881L12.180308 11.972881L9.4262047 3.5932202L6.6518016 11.972881L4.2428074 11.972881L0 0L2.6322999 0L5.4946723 8.7457628L8.3502779 0L10.535966 0L13.425406 8.7457628L16.253944 0L18.852409 0L18.852409 0Z"/>
	<path transform="translate(61.4565 21.2)" d="M4.75032 9.2474575C4.0804033 9.2474575 3.4510872 9.1322031 2.8691392 8.8949156C2.2871912 8.6576271 1.7864451 8.3322039 1.3601344 7.9254236C0.94059044 7.5118642 0.60901541 7.0237288 0.36540923 6.4610171C0.12180308 5.8915253 0 5.2813559 0 4.6237288C0 3.9661016 0.12180308 3.3491526 0.36540923 2.7864406C0.60901541 2.2169492 0.94059044 1.7288135 1.3601344 1.3220339C1.7796783 0.90847456 2.2871912 0.58983052 2.8691392 0.35254237C3.4510872 0.11525424 4.0804033 0 4.75032 0C5.4202371 0 6.0630865 0.11525424 6.638268 0.35254237C7.213449 0.58983052 7.7141948 0.91525424 8.1337385 1.3220339C8.5532827 1.7355932 8.8848581 2.2237289 9.1284637 2.7864406C9.3720703 3.3559322 9.4938736 3.9661016 9.4938736 4.6237288C9.4938736 5.2813559 9.3720703 5.8983049 9.1284637 6.4610171C8.8848581 7.0305085 8.5532827 7.5186439 8.1337385 7.9254236C7.7141948 8.3389826 7.213449 8.6576271 6.638268 8.8949156C6.0630865 9.1322031 5.4337707 9.2474575 4.75032 9.2474575L4.75032 9.2474575ZM4.75032 7.0576272C5.0954289 7.0576272 5.4202371 6.9966102 5.717978 6.8677964C6.0157189 6.7389832 6.2728586 6.5694914 6.4893975 6.3525424C6.705936 6.1355934 6.8683405 5.8779659 6.9901433 5.5796609C7.1119466 5.2813559 7.1728477 4.9559321 7.1728477 4.6101694C7.1728477 4.2644067 7.1119466 3.938983 6.9901433 3.6406779C6.8683405 3.3423729 6.6991692 3.0847456 6.4893975 2.8677967C6.2728586 2.6508474 6.0157189 2.4813559 5.717978 2.3525424C5.4202371 2.2237289 5.0954289 2.1627119 4.75032 2.1627119C4.4052114 2.1627119 4.0804033 2.2237289 3.7894292 2.3525424C3.4916883 2.4813559 3.2413154 2.6508474 3.0180097 2.8677967C2.8014708 3.0847456 2.6255331 3.3423729 2.5037301 3.6406779C2.3819268 3.938983 2.3210254 4.2644067 2.3210254 4.6101694C2.3210254 4.9559321 2.3819268 5.2813559 2.5037301 5.5796609C2.6255331 5.8779659 2.794704 6.1355934 3.0180097 6.3525424C3.2345483 6.5694914 3.4916883 6.7389832 3.7894292 6.8677964C4.0871701 6.9966102 4.4052114 7.0576272 4.75032 7.0576272Z"/>
	<path transform="translate(71.6948 21.383)" d="M2.2533569 1.3016949C2.5646315 0.86101693 2.9368076 0.53559321 3.3631184 0.33220339C3.7894292 0.1220339 4.2631078 0.013559322 4.7841544 0L5.1969314 0L5.1969314 2.3254237L4.7841544 2.3254237C3.9653668 2.3389831 3.336051 2.5423729 2.9029734 2.9355931C2.4698958 3.3288136 2.2533569 3.8983052 2.2533569 4.6372881L2.2533569 8.8542376L0 8.8542376L0 0L2.2533569 0L2.2533569 1.3016949Z"/>
	<path transform="translate(77.1015 17.7423)" d="M0 0L2.2533569 0L2.2533569 12.494915L0 12.494915L0 0L0 0Z"/>
	<path transform="translate(80.133 17.7423)" d="M9.4397383 0L9.4397383 12.494915L7.1863818 12.494915L7.1863818 11.328814C6.8412728 11.755932 6.4217291 12.094915 5.9412837 12.332204C5.4608378 12.569491 4.912724 12.698305 4.3104758 12.698305C3.7082272 12.698305 3.1262791 12.583051 2.6052325 12.345762C2.0774193 12.108475 1.6240411 11.783051 1.2383313 11.376271C0.85262156 10.962712 0.54811388 10.474576 0.33157504 9.9118643C0.11503624 9.3423729 0 8.7322035 0 8.0745764C0 7.4169493 0.1082694 6.8000002 0.33157504 6.237288C0.55488068 5.6745763 0.85262156 5.1796608 1.2383313 4.7728815C1.6240411 4.3593221 2.0841861 4.040678 2.6052325 3.8033898C3.1330459 3.5661018 3.7014601 3.4508474 4.3104758 3.4508474C4.9194908 3.4508474 5.454071 3.5728815 5.9412837 3.8169491C6.4284959 4.061017 6.8412728 4.3932204 7.1863818 4.8203392L7.1863818 0.013559322L9.4397383 0.013559322L9.4397383 0ZM4.75032 10.515254C5.0954289 10.515254 5.4202371 10.454237 5.717978 10.325424C6.0157189 10.19661 6.2796254 10.027119 6.4961643 9.8101692C6.7127032 9.5932207 6.8886409 9.3355932 7.0104437 9.0372877C7.132247 8.7389832 7.1931486 8.413559 7.1931486 8.0677967C7.1931486 7.722034 7.132247 7.3966103 7.0104437 7.0983052C6.8886409 6.8000002 6.71947 6.5423727 6.4961643 6.3254237C6.2796254 6.1084747 6.0157189 5.938983 5.717978 5.8101697C5.4202371 5.681356 5.0954289 5.6203389 4.75032 5.6203389C4.4052114 5.6203389 4.0804033 5.681356 3.7894292 5.8101697C3.498455 5.938983 3.2413154 6.1084747 3.0180097 6.3254237C2.8014708 6.5423727 2.6255331 6.8000002 2.5037301 7.0983052C2.3819268 7.3966103 2.3210254 7.722034 2.3210254 8.0677967C2.3210254 8.413559 2.3819268 8.7389832 2.5037301 9.0372877C2.6255331 9.3355932 2.794704 9.5932207 3.0180097 9.8101692C3.2345483 10.027119 3.4916883 10.19661 3.7894292 10.325424C4.0871701 10.454237 4.4052114 10.515254 4.75032 10.515254Z"/>
</svg>
