<svg height="32" viewBox="0 0 43 32" width="43" xmlns="http://www.w3.org/2000/svg" xmlns:xlink="http://www.w3.org/1999/xlink"><defs><path id="a" d="m10.1943626.11764381v9.37309378c-.0011867.55152001-.29332464.94784821-.8764139 1.18898471-.58308927.2411364-1.21755249.3185516-1.90338967.2322455-.65623419-.1410966-1.15758745-.1410966-1.50405978 0-.27707656.1128361-.50436049.1884822-.68185179.2269384l.00156475.0218962c-.01932501-.0025117-.03944909-.0056203-.06037224-.0093256l-.06518406.0093256.00175941-.0218541c-.17751977-.038443-.40486859-.1141032-.68204645-.2269805-.34647233-.1410966-.84782559-.1410966-1.50405978 0-.68583718.0863061-1.32030041.0088909-1.90338967-.2322455-.58308926-.2411365-.87522722-.6374647-.87641387-1.18898471v-9.37309378z"/><mask id="b" fill="#fff"><path d="m0 0h43.335938v32h-43.335938z" fill="#fff" fill-rule="evenodd"/></mask><mask id="c" fill="#fff"><path d="m0 0h42.666667v32h-42.666667z" fill="#fff" fill-rule="evenodd"/></mask><mask id="d" fill="#fff"><use fill="#fff" fill-rule="evenodd" xlink:href="#a"/></mask></defs><g fill="none" fill-rule="evenodd"><g fill-rule="evenodd" mask="url(#b)"><g mask="url(#c)" transform="translate(.3346)"><path d="m10.6666667 0h21.3333333v32h-21.3333333z" fill="#ffd018"/><path d="m0 0h10.666667v32h-10.666667z" fill="#2e42a5"/><path d="m32 0h10.6666667v32h-10.6666667z" fill="#e31d1c"/><g transform="translate(13.0667 5.8667)"><path d="m11.0528934.42619581c.3261281.51553761-.0681225 1.04746787-.1663693 1.22865587s-.3089065.84596093.1663693 1.06455769 1.1725126.0977858 1.5330202-.21859676c-.2946686-.13326159-.4039394-.30757047-.3278125-.52292666.1141903-.32303427.8919236-1.2346595 2.3165021-.55635575 1.4245786.67830375 1.6693876 1.29975529 1.2794707 1.80278367-.389917.50302838-1.4341663 1.36598812-1.1825705 1.94826848.1209054-.21293049.2629431-.26616311.4261132-.15969786.1631701.10646524.2271957.25310605.1920768.43992242 1.1581344-.06390189 1.8006886.46594179 1.9276625 1.58953102s-.2486693 1.83484832-1.1269296 2.13377726c.2772169.30298439.3245987.55334258.1421455.75107458-.1824532.19773203-.3782645.23667573-.587434.11683133-.3817118.360822-.4771397.7467538-.2862838 1.1577953s.3559292.6769961.4952199.7978639c.0268957-.1267046.1530617-.1900569.3784979-.1900569.3381543 0 .9672785 1.0271489.5770383 1.3463741-.2601601.2128168-.4525062.2995164-.5770383.2600989.5623695.4665292.7547157 1.0701671.5770383 1.8109135-.2665159 1.1111197-.9788591 1.6462127-1.7119935 1.9573648-.7331344.3111522-1.6075524.3111522-2.7310886.3111522-.7490241 0-1.3453275.2330183-1.7889104.6990548.3794854.1461102.5058848.3895703.3791982.7303804-.1266867.3408101-.3344557.5112151-.623307.5112151-.2115394.3043488-.4190032.4055079-.62239131.3034771-.2033881-.1020308-.36923344-.2031898-.497536-.3034771-.17588829.3556438-.35866617.5548934-.54833363.5977488-.0129201.0088075-.0259962.0080751-.03904004.0066104l-.03930735.0021971c-.1900664-.0523034-.37253962-.2514838-.54814537-.6065563-.12830256.1002873-.2941479.2014463-.497536.3034771-.20338811.1020308-.41085187.0008717-.6223913-.3034771-.28885133 0-.49662032-.170405-.62330698-.5112151s-.00028727-.5842702.37919816-.7303804c-.44358285-.4660365-1.03988632-.6990548-1.78891042-.6990548-1.12353615 0-1.99795418 0-2.73108858-.3111522-.7331344-.3111521-1.44547754-.8462451-1.71199352-1.9573648-.17767732-.7407464.01466879-1.3443843.57703834-1.8109135-.12453212.0394175-.31687824-.0472821-.57703834-.2600989-.39024015-.3192252.23888407-1.3463741.57703834-1.3463741.22543618 0 .35160216.0633523.37849794.1900569.13929069-.1208678.30436398-.3868224.49521987-.7978639s.09542795-.7969733-.28628384-1.1577953c-.20916944.1198444-.40498076.0809007-.58743397-.11683133-.18245321-.197732-.13507139-.44809019.14214545-.75107458-.87826029-.29892894-1.25390347-1.01018803-1.12692954-2.13377726s.76952809-1.65343291 1.92766247-1.58953102c-.03511892-.18681637.02890668-.33345718.1920768-.43992242.16317012-.10646525.30520784-.05323263.42611316.15969786.25159583-.58228036-.79265343-1.4452401-1.1825704-1.94826848-.38991698-.50302838-.14510794-1.12447992 1.27947061-1.80278367s2.20231183.23332148 2.31650218.55635575c.07612691.21535619-.03314393.38966507-.3278125.52292666.36050757.31638256 1.05774437.43719352 1.53302016.21859676s.26461613-.88336969.16636933-1.06455769c-.09824679-.181188-.49249743-.71311826-.16636933-1.22865587s.89074682-.51553761 1.34177591-.22278112c.30068606.19517098.67542506.33678183 1.12421702.42483252l-.03951306-.00938379.17920231-.0391049c.35342303-.0882534.65542041-.21370134.90599212-.37634383.45102911-.29275649 1.01564781-.29275649 1.34177591.22278112z" fill="#bf9937"/><path d="m3.08019863 15.4637579.14013108-.3388153c1.61026148.6902289 3.44271081 1.0358275 5.49852262 1.0358275 2.05477917 0 3.83793037-.3452436 5.35061407-1.0342054l.1474709.3355711c-1.5618327.7113471-3.3949145 1.066258-5.49808497 1.066258-2.10213782 0-3.9820806-.3545559-5.6386537-1.0646359z" fill="#805440" fill-rule="nonzero"/><g transform="translate(3.4306 3.6593)"><use fill="#bf9937" xlink:href="#a"/><g mask="url(#d)"><path d="m0 0h4.875v5.2h-4.875z" fill="#d00f3a"/><g fill="#fedf00"><path d="m5.41666667 0h5.05555553v5.2h-5.05555553z"/><path d="m5.41666667 5.77777778h4.87500003v5.39259262h-4.87500003z"/><path d="m0 5.777778h4.875v5.392593h-4.875z"/></g><path d="m9.02772727 8.20547184c.15104909-.15324017.22657363-.4107487.22657363-.77252561 0-.54266535.19089514-.90165935-.22657363-.90165935s-.98436025 0-1.38353236 0-.19414788.24124484-.59555625 0-.72485264-.16448019-.72485264 0 .4050677.09208463.4050677.42621728c0 .33413266.15328534.04358671.15328534.64577719 0 .60219049.08466398.50109373.12558179.50109373s.04091781-.10877646.04091781-.2670843-.02034168-.79686927.09100834-.60060691.16638784.10356561.221346.32661258c.05495817.22304696.20278767.43998187.10139384.54107863-.10139384.10109676-.30611964.18793038-.15305982.18793038s.37549437-.25680959.26427709-.68902411c-.07414485-.28814301-.02811628-.30147131.13808571-.0399849.39306151.08721507.60222114.07097837.62747889-.04871011.03788662-.17953271.09199519.17170312.25177212.17170312s-.15417492.36141764-.28610106.41808562c-.08795077.03777865-.08795077.07147757 0 .10109676.0820213.06739783.15021013.06739783.2045665 0 .08153456-.10109676.37323763-.43185537.37323763-.60219049s.18701707-.06799321.18701707.08300811-.1735448.69284962-.10773925.606016c.04387037-.05788908.06580555-.08683362.06580555-.08683362z" fill="#d00f3a"/><path d="m9.02772727 10.3239904c.15104909-.1532402.22657363-.41074875.22657363-.77252565 0-.54266535.19089514-.90165935-.22657363-.90165935s-.98436025 0-1.38353236 0-.19414788.24124484-.59555625 0-.72485264-.16448019-.72485264 0 .4050677.09208463.4050677.42621728c0 .33413266.15328534.04358671.15328534.64577719 0 .60219053.08466398.50109373.12558179.50109373s.04091781-.1087765.04091781-.2670843c0-.15830784-.02034168-.79686927.09100834-.60060691s.16638784.10356561.221346.32661258c.05495817.22304696.20278767.43998183.10139384.54107863-.10139384.1010968-.30611964.1879304-.15305982.1879304s.37549437-.2568096.26427709-.68902413c-.07414485-.28814301-.02811628-.30147131.13808571-.0399849.39306151.08721507.60222114.07097837.62747889-.04871011.03788662-.17953271.09199519.17170312.25177212.17170312s-.15417492.36141762-.28610106.41808562c-.08795077.0377786-.08795077.0714776 0 .1010968.0820213.0673978.15021013.0673978.2045665 0 .08153456-.1010968.37323763-.43185541.37323763-.60219053s.18701707-.06799321.18701707.08300811-.1735448.69284962-.10773925.60601602c.04387037-.0578891.06580555-.0868336.06580555-.0868336z" fill="#d00f3a"/><path d="m2.46336664 4.05224284c.00095066-.0014442.00184687-.00294506.00268291-.00450461-.00027868.00051985-.0005568.00106824-.00083427.00164504zm-.01400818.15200711c0 .22010306-.11193419.38819568-.36707254.64562436-.01291131.01302721-.08285474.0829805-.10199109.10238963-.03704725.03757534-.06535089.06742591-.0901327.09541131-.21797375.24615174-.59924134.03394265-.69687189-.20500234-.01562991-.0382533-.09217815-.17562815-.21657404-.39074339-.00341886-.00591141-.00341886-.00591141-.00683896-.01182203-.0219764-.03797518-.04462833-.07699371-.07339321-.12645286-.03503897-.06022414-.03503897-.06022414-.06673304-.1147271-.04889446-.08414293-.07453474-.12875911-.08731332-.15227593-.00882176-.01623498-.05927424.00264132-.14777625.11559454-.03373359.04305345.03541776.19025284.25563365.42578729l-.12483374.13907414c-.30643973-.29880306-.454628-.49238869-.454628-.62661471 0-.22400277.18003296-.34423049.51553926-.34423049.21101561 0 .32365723.14861213.49259177.52261628.00805809.01783979.0370262.08241887.043085.09585526.08329316.18471615.13673333.28536192.2016298.36733733.07707652.0973609.12329866.09278519.20287056-.00757987.07832099-.09878725.15081082-.25282535.2595979-.53027773.07967995-.20321708.09030154-.1872847-.03883826-.1194594l-.08427467.04426176-.76539403-1.83896434 1.46208808-1.77519442v3.69136857l-.10664474-.09642458c-.00229696.0250781-.00372554.05681456-.00372554.09444872zm.0964748.00197586v-3.69136857l1.46208808 1.77519442-.76539403 1.83896434-.08427467-.04426176c-.1291398-.0678253-.11851821-.08375768-.03883826.1194594.10878708.27745238.18127691.43149048.25959789.53027773.07957191.10036506.12579405.10494077.20287056.00757987.06489648-.08197541.11833665-.18262118.20162981-.36733733.0060588-.01343639.03502691-.07801547.043085-.09585526.16893454-.37400415.28157616-.52261628.49259177-.52261628.3355063 0 .51553926.12022772.51553926.34423049 0 .13422602-.14818827.32781165-.454628.62661471l-.12483374-.13907414c.22021589-.23553445.28936724-.38273384.25563365-.42578729-.08850201-.11295322-.13895449-.13182952-.14777625-.11559454-.01277858.02351682-.03841886.068133-.08731332.15227593-.03169407.05450296-.03169407.05450296-.06673304.1147271-.02876488.04945915-.05141681.08847768-.07339321.12645286-.0034201.00591062-.0034201.00591062-.00683896.01182203-.1243959.21511524-.20094413.35249009-.21657404.39074339-.09763055.23894499-.47889814.45115408-.69687189.20500234-.02478181-.0279854-.05308545-.05783597-.0901327-.09541131-.01913635-.01940913-.08907978-.08936242-.10199109-.10238963-.25513835-.25742868-.36707254-.4255213-.36707254-.64562436 0-.03763416-.00142858-.06937062-.00372554-.09444872z" fill="#fff" fill-rule="nonzero"/><path d="m1.30955362 2.32456222.64475318 1.54910812c.23764031-.08275288.32085209.09258809.19841474.40485434-.07295951.18607716-.13058057.32008542-.18677766.42361306.21375736-.21673575.30285902-.35226392.30285902-.49788779 0-.11782236.01094125-.19883794.03950015-.25211239.01868008-.03484627.19846902-.05698964.22598295-.06755306v-2.96906197zm1.23123069-1.41995385v2.96906197c.02751393.01056342.23779456.04362095.25647464.07846722.0285589.05327445.03950014.13429003.03950014.25211239 0 .14562387.08910167.28115204.30285903.49788779-.05619709-.10352764-.11381815-.2375359-.18677767-.42361306-.12243734-.31226625-.03922556-.48760722.19841475-.40485434l.64475318-1.54910812z" fill="#fedf00" fill-rule="nonzero"/></g><g fill="#d00f3a"><path d="m.54166667 5.77777778h.54166666v5.39259262h-.54166666zm1.08333333 0h.54166667v5.39259262h-.54166667zm1.08333333 0h.54166667v5.39259262h-.54166667zm1.08333334 0h.54166666v5.39259262h-.54166666z" mask="url(#d)"/><path d="m6.13888889 0h.54166667v5.39259259h-.54166667zm1.08333333 0h.54166667v5.39259259h-.54166667zm1.08333334 0h.54166666v5.39259259h-.54166666zm1.08333333 0h.54166667v5.39259259h-.54166667z" mask="url(#d)"/></g></g></g></g></g><rect height="32" mask="url(#b)" rx="2" width="43.335938"/></g></svg>