<svg height="32" viewBox="0 0 43 32" width="43" xmlns="http://www.w3.org/2000/svg" xmlns:xlink="http://www.w3.org/1999/xlink"><mask id="a" fill="#fff"><path d="m0 0h43.335938v32h-43.335938z" fill="#fff" fill-rule="evenodd"/></mask><mask id="b" fill="#fff"><path d="m0 0h42.666667v32h-42.666667z" fill="#fff" fill-rule="evenodd"/></mask><g fill="none" fill-rule="evenodd"><g fill-rule="evenodd" mask="url(#a)"><g mask="url(#b)" transform="translate(.3346)"><path d="m29.3333333 0h13.3333334v32h-13.3333334z" fill="#67bd38"/><path d="m13.3333333 0h16v32h-16z" fill="#d51700"/><path d="m0 0h13.3333333v32h-13.3333333z" fill="#272727"/><g transform="translate(13.3333 8)"><path d="m3.31697189 2.63580473.46132862.28953428c-.76901554 1.29432687-1.2855145 2.48034584-1.55250897 3.55839445.11359797.10386919.18421651.19504025.25634934.31997798.20858929.36128725.38402518.71199919.52619929 1.05229496l-.61313734.26104028c-.09578291-.22925776-.2085596-.4649562-.33837201-.70703373-.06440086.52552533-.05987512 1.02125123.01073576 1.48816954.1132272.01067102.20684639.03419338.3150254.07356732.39201964.14268348.75184462.2985764 1.07949421.46787033l-.30189699.59408556c-.27878167-.14404429-.58493116-.27853492-.91843344-.40332258l.00464615.01942769c.28506199.86144519.72132319 1.65397039 1.3100203 2.37796659.09233173-.0203371.17771899-.0277774.27744037-.0277774.41717858 0 .80862198.023424 1.17441382.0704455l-.08050116.6615127c-.24816794-.0319013-.51060925-.0521436-.78729089-.0606583.52673213.5295731 1.14729976 1.0173516 1.86030269 1.4641901l-.28141126.4743301c-.88448111-.5543038-1.63725609-1.1722945-2.25738499-1.8536749-.0790645.0303792-.17826362.0725105-.3048588.127842l-.04663604.0209012c.54127475.5674356 1.18114826 1.0892849 1.92023316 1.565788l-.28724136.470624c-.85517916-.5513514-1.58710275-1.1638435-2.19495874-1.837158-.28954722.0764238-.53351186.074619-.81879928-.0090802l.17804859-.6410597c.04334118.0127157.08574798.0221086.12832627.0280853-.56517007-.7509915-.99015613-1.5695007-1.27516289-2.4555453-.05020778-.15608869-.09323404-.3149991-.12909122-.47673002-.22093442-.0432958-.40744601-.12623002-.60102994-.26869661l.38656626-.54150283c.0332659.02448177.0667479.04608534.10126504.06503283-.06879574-.81763899.02671517-1.6988481.28538297-2.6447837-.16245426-.18672597-.26135461-.37982533-.32231205-.63085213l.56626045-.14603285c.30524747-.86449444.73698378-1.7792549 1.29426937-2.74419138l.4648213.28357213c-.60782598 1.05244685-1.05811777 2.03561966-1.35226534 2.94965153.08240372.07371684.18317618.15382451.30658897.24536832.29552144-1.07363809.81476698-2.23472321 1.55557438-3.48157306zm-1.66321373 6.92334489-.07575414.00385425c-.04115543.00226857-.08557277.00493302-.1336722.00796667-.0880808.00555529-.17079825.00956368-.24892683.01167796.02403589.09012526.05009503.1804017.07875825.26951149.295055.91728311.75169945 1.75847941 1.37123794 2.52410031l.10563784-.0412367.26305733-.1117038c-.56653369-.7317479-.99335392-1.5300632-1.27944737-2.39462542-.0294221-.08891232-.05638482-.17876067-.08089082-.26954476zm-.59671712-.81200998.01682575.17218309c.09931338.00078627.21185536-.00347721.34175693-.01167016l.10571769-.00635792c-.08817007-.64893775-.06246671-1.34132662.07627102-2.07707258-.05861216-.0452042-.13107958-.0994944-.21939219-.16458293l-.12086237-.09011665c-.18948242.78042034-.2559295 1.50626158-.20031683 2.17761715z" fill="#f7fcff" fill-rule="nonzero"/><path d="m13.2629178 2.63580473.4613287.28953428c-.7690156 1.29432687-1.2855145 2.48034584-1.552509 3.55839445.113598.10386919.1842165.19504025.2563493.31997798.2085893.36128725.3840252.71199919.5261993 1.05229496l-.6131373.26104028c-.0957829-.22925776-.2085596-.4649562-.338372-.70703373-.0644009.52552533-.0598752 1.02125123.0107357 1.48816954.1132272.01067102.2068464.03419338.3150254.07356732.3920197.14268348.7518446.2985764 1.0794942.46787033l-.301897.59408556c-.2787816-.14404429-.5849311-.27853492-.9184334-.40332258l.0046462.01942769c.2850619.86144519.7213231 1.65397039 1.3100203 2.37796659.0923317-.0203371.1777189-.0277774.2774403-.0277774.4171786 0 .808622.023424 1.1744138.0704455l-.0805011.6615127c-.248168-.0319013-.5106093-.0521436-.7872909-.0606583.5267321.5295731 1.1472998 1.0173516 1.8603027 1.4641901l-.2814113.4743301c-.8844811-.5543038-1.6372561-1.1722945-2.257385-1.8536749-.0790645.0303792-.1782636.0725105-.3048588.127842l-.046636.0209012c.5412747.5674356 1.1811483 1.0892849 1.9202332 1.565788l-.2872414.470624c-.8551792-.5513514-1.5871028-1.1638435-2.1949587-1.837158-.2895473.0764238-.5335119.074619-.8187993-.0090802l.1780486-.6410597c.0433411.0127157.0857479.0221086.1283262.0280853-.56517-.7509915-.9901561-1.5695007-1.2751629-2.4555453-.0502077-.15608869-.093234-.3149991-.1290912-.47673002-.2209344-.0432958-.407446-.12623002-.60102992-.26869661l.38656632-.54150283c.0332658.02448177.0667478.04608534.101265.06503283-.0687958-.81763899.0267152-1.6988481.285383-2.6447837-.1624543-.18672597-.2613547-.37982533-.3223121-.63085213l.5662605-.14603285c.3052474-.86449444.7369837-1.7792549 1.2942693-2.74419138l.4648213.28357213c-.607826 1.05244685-1.0581177 2.03561966-1.3522653 2.94965153.0824037.07371684.1831762.15382451.306589.24536832.2955214-1.07363809.8147669-2.23472321 1.5555743-3.48157306zm-1.6632137 6.92334489-.0757541.00385425c-.0411555.00226857-.0855728.00493302-.1336722.00796667-.0880808.00555529-.1707983.00956368-.2489269.01167796.0240359.09012526.0500951.1804017.0787583.26951149.295055.91728311.7516994 1.75847941 1.3712379 2.52410031l.1056379-.0412367.2630573-.1117038c-.5665337-.7317479-.9933539-1.5300632-1.2794474-2.39462542-.0294221-.08891232-.0563848-.17876067-.0808908-.26954476zm-.5967171-.81200998.0168257.17218309c.0993134.00078627.2118554-.00347721.341757-.01167016l.1057177-.00635792c-.0881701-.64893775-.0624668-1.34132662.076271-2.07707258-.0586122-.0452042-.1310796-.0994944-.2193922-.16458293l-.1208624-.09011665c-.1894824.78042034-.2559295 1.50626158-.2003168 2.17761715z" fill="#f7fcff" fill-rule="nonzero" transform="matrix(-1 0 0 1 25.9282 0)"/><path d="m5.67073317 13.6854665-1.48842912 1.4727986c.85568594.5240427 2.089884.786064 3.70259418.786064 1.61271017 0 2.88860777-.2620213 3.82769287-.786064l-1.1314482-1.4727986c-1.02782606.3983262-1.90572452.5974893-2.63369533.5974893s-1.48687561-.1991631-2.2767144-.5974893z" fill="#f7fcff"/><path d="m5.70180343 14.6253147c.84009631.1982319 1.58215776.2973479 2.22618435.2973479s1.38608804-.099116 2.22618432-.2973479" stroke="#c00001" stroke-width=".666667"/><g fill="#f7fcff"><path d="m6.29839407 3.82400607-.00074778 2.11254949.06948323.00038138.35261067-.27027027h2.47926627l.41797407.27027027.20866576-.00038138.00090878-2.11254949h.64864863l-.0005574 2.11254949.2280564.00038138v.36036036l-.2280564-.00074174.0005574 3.83203934c0 .2249982.2404634.6115683.7435149 1.1142203l.5727891.5723342h-7.96986141l1.32422244-.6353741c.2491791-.1195585.42695277-.4636889.50387669-1.0723227l-.00009913-3.81089704-.56856521.00074174v-.36036036l.56856521-.00038138.00009913-2.11254949zm3.52725222 2.47254949h-3.528l.00074778 3.85278354c-.04968806.4087126-.13698344.7363293-.26755238.9991437h4.22716981c-.28537039-.3755864-.43145643-.7108874-.43145643-1.0198879zm-1.71753818 1.70344444 1.4054054 2.7777778h-2.81081081v-2.7777778zm-.10810811-4.44444444c.65677105 0 1.18918919.47258832 1.18918919 1.05555555 0 .58296724-.53241814 1.05555556-1.18918919 1.05555556s-1.18918919-.47258832-1.18918919-1.05555556c0-.58296723.53241814-1.05555555 1.18918919-1.05555555z" fill-rule="nonzero"/><path d="m8.64195098.5260635c-.0013595-.00459721-.00253374-.00793255-.00346024-.00995921.00036894.00080702.00074717.00161791.00113471.0024325zm-.31832952.42897062c-.47275306.50874313-.96688882.50874313-1.37017852.19131077-.09819422-.07728941-.16848046-.15505236-.20990438-.21254233l-.00804441-.01196398c-.01295904-.02068945-.04217223-.05911795-.08084437-.09674163-.1022979-.09952444-.15332962-.10613732-.24006903.00265931-.01915576.02402694-.03873959.05305894-.05854464.08731424-.2229729.38565918-.40159718.6046682-.61296017.69773145-.2871456.12643037-.55714983-.00996654-.79812139-.35974261-.12166645-.17660179-.28288487-.21796684-.36803364-.14716977-.11758878.09776936-.12540841.3836933.08365453.81497652.23118626.47692221.27514075.8038376.01667078.97566594-.21374477.14209545-.53889126.06162695-1.03710112-.19125194l.1914818-.3984976c.20054449.10179138.36213262.16736864.48142894.19689256.04664877.01154481.08097286.01634002.10249118.01831887-.00042493-.00455132-.0009861-.00951524-.00170838-.01488724-.01166342-.0867477-.05801457-.21825963-.14031904-.38804839-.28920035-.59660149-.27533335-1.10364721.03142609-1.35870279.29761741-.24745443.73775015-.13452618.99292848.23587135.13644653.19805545.21149258.23596615.27491567.20804093.0988127-.04350729.23404026-.20930814.41149399-.51623629.03052875-.05280324.06242317-.10008506.09581379-.14196668.27389203-.34354085.60819758-.30022033.87182707-.04373825.06372953.06200171.11126649.12328788.14181181.17051585.00454567.00582033.0132144.01629894.02566836.03007769.0277873.03074318.0604093.06179692.09696361.09056909.23842459.18766579.48500898.18766579.79453247-.14542132.40429093-.43506907.64035964-.59612401.86603509-.48469036.12416276.06130888.17602398.17475214.19737617.32694397.01125339.08021072.01321411.14760455.01321411.31122952 0 .1201014-.03396283.24898654-.09875049.42136735.00470538-.00152654.0105332-.00592705.01642612-.01039172.3253446-.24649134.38705159-.44786991.31288472-.62345586-.05789013-.05608484-.09739432-.10085117-.12171093-.13949892-.0107573-.01709718-.01976219-.0344659-.02711441-.05512399-.02102377-.05907207-.02577414-.1206262.01570218-.19388975.05831773-.10301212.1547929-.12536204.23847617-.10597702.02856688.00661745.05074179.01699141.0720818.03021902.06220374.03855699.1293699.11628106.18098232.20890478.1041753.12968739.1633496.29052739.19278155.48148614.00882475.05725628.01411819.10453148.01820465.16533922.02569613-.07171018.0475362-.15551987.0649124-.2479483.00659498-.03508042.01070747-.06005051.01837345-.10936429.00338637-.02178385.00483321-.03079645.00664801-.04083397.00190391-.01033221.00190391-.01033221.00510679-.02440197.00673868-.02739753.01306871-.04604754.03231666-.07530028.0173989-.02531277.0173989-.02531277.0597884-.06100913.0678389-.03704428.0678389-.03704428.168665-.03159252.1327586.07877843.1327586.07877843.1499355.12759773.0110001.02556741.0146346.04268888.0177381.06542326.0019059.01396248.003064.02875945.0042985.05049957.0008778.01545831.001791.03463632.0030984.06440505.0005315.0121042.0032022.07416716.0040506.09356815.0016331.03734616.0022648.075485.0019648.11464593-.0006591.08600778-.0049246.16569388-.0139121.26710079.1093445-.10674177.2746504-.08009856.460827.02203856.1838051.10083612.2974655.24615849.3468815.42328589.0142788.05118111.0225827.09770501.0265942.1474876.0693667-.07707621.1372038-.202776.1977876-.36739116.0596456-.16206616.1702657-.59218904.1628795-.57018411.0101896-.03035702.0198089-.05261996.0396962-.07984959.0364628-.04992494.0864692-.08795977.1679197-.09120523.0983599-.00391923.1631886.04881185.199671.1153494.0280844.05122119.0315962.07987912.0354735.162672.0033533.07160179.0041237.17744614.0041237.45587756 0 .55023734.0810146.94947846.1860876 1.11454027.0000127.00001998.0855641.00004993.2566542.00008983 0 .43617366-.3717169.63094655-.61852.24323735-.1074271-.16875976-.1865306-.44072782-.2267589-.79230215-.0741835.10878292-.1590606.19453822-.2583411.25454752-.2089305.12628626-.3211289.16530989-.455014.07928064-.0855299-.05495814-.1173348-.13437781-.1250309-.22657165-.0031338-.03754071-.0025853-.05692137.001334-.13284994.0048737-.09442026.0029108-.14309544-.0102381-.19022686-.0066397-.02379918-.0162578-.0455199-.0301381-.06574135.0162002.1226331.0168274.21005742-.0083169.29897213-.0471309.16666356-.1818235.26780743-.3635841.26780743-.2514008 0-.41140544-.14811335-.45371504-.3882946-.01353617-.07684155-.01767682-.13977035-.01228928-.24001536-.15503729.0874882-.31464369.07768343-.40958242-.09536599-.02463567-.04490464-.03823099-.08378314-.04667806-.13971154-.06203002.06508493-.13404951.12908276-.21640626.19147883-.17534556.13284734-.30499603.2190224-.40194253.26610051-.16945188.08228736-.32340202.09047636-.41665767-.08405-.05514831-.10320914-.04228209-.1928189.00424799-.33315766.01232536-.03717437.0273837-.07754599.04777153-.12910585.01083125-.02739171.04953177-.12327193.05338445-.13290316.01453918-.03634619.02618595-.06615433.03679754-.09438864.0466261-.12405827.06970153-.21162691.06970153-.26121995 0-.07315278-.00045295-.12364503-.00190289-.16243503-.08280103.06404097-.19248615.16839879-.32956953.31591815zm2.41745934.48891571c.0004213-.00277972.0007198-.00532171.0009176-.00763239-.0000778.00090862-.0001482.00189788-.0002105.00296674zm1.2724528-.46436849c.0007004-.00201443.00139-.0040389.0020757-.00608164-.0002753.00082018-.0005936.00181895-.0009534.00298942zm-.3978122-.03680202c-.0004439-.00517872-.0008603-.00932651-.0012358-.01239093.0001383.00112863.000278.00225205.0004195.0033709zm-1.2178489.85502776c.0024648-.00004377.0050187-.00006711.0076652-.00006711-.0010935 0-.0023484.00015768-.0037503.00046563zm-.83586342-1.58553948c-.00083655-.00136112-.00167335-.00270618-.00251045-.00403663.00029458.00046819.00092799.00130963.00189318.00250914z" fill-rule="nonzero"/><path d="m3.99050949 6.22412857 2.04473151 3.00136748-.26567303.19118906-1.1934345-1.75356267c-.16786852.0691015-.29939337.21421464-.39457455.43533942-.13844537.32163606-.23419445.76522871-.28724726 1.33077797l-.7629639-.48998537c.17029659-.39725015.25544489-.83833238.25544489-1.32324668 0-.42290658.20150094-.69206481.60450281-.80747469l-.266459-.39321545z" fill-rule="nonzero"/><path d="m10.9094284 6.22412857 2.0447315 3.00136748-.265673.19118906-1.1934345-1.75356267c-.1678685.0691015-.2993934.21421464-.3945746.43533942-.1384453.32163606-.2341944.76522871-.2872472 1.33077797l-.7629639-.48998537c.1702966-.39725015.2554449-.83833238.2554449-1.32324668 0-.42290658.2015009-.69206481.6045028-.80747469l-.266459-.39321545z" fill-rule="nonzero" transform="matrix(-1 0 0 1 23.0044 0)"/></g></g></g></g><rect height="32" mask="url(#a)" rx="2" width="43.335938"/></g></svg>