<svg height="32" viewBox="0 0 43 32" width="43" xmlns="http://www.w3.org/2000/svg" xmlns:xlink="http://www.w3.org/1999/xlink"><mask id="a" fill="#fff"><path d="m0 0h43.335938v32h-43.335938z" fill="#fff" fill-rule="evenodd"/></mask><mask id="b" fill="#fff"><path d="m0 0h42.666667v32h-42.666667z" fill="#fff" fill-rule="evenodd"/></mask><g fill="none" fill-rule="evenodd"><g fill-rule="evenodd" mask="url(#a)"><g mask="url(#b)" transform="translate(.3346)"><path d="m0 0h42.6666667v32h-42.6666667z" fill="#1b1b1b"/><g transform="translate(0 2.6667)"><path d="m21.3333333 16-2.6702512 5.0658977.0669488-5.5940637-4.8785752 3.5343685 2.7908887-5.0142569-6.1206375 1.3028143 4.962059-3.4413149-6.15043257-1.1867783 6.15043257-1.18677835-4.962059-3.4413149 6.1206375 1.30281427-2.7908887-5.01425687 4.8785752 3.53436852-.0669488-5.59406377 2.6702512 5.06589773 2.6702512-5.06589773-.0669487 5.59406377 4.8785752-3.53436852-2.7908888 5.01425687 6.1206375-1.30281427-4.9620589 3.4413149 6.1504325 1.18677835-6.1504325 1.1867783 4.9620589 3.4413149-6.1206375-1.3028143 2.7908888 5.0142569-4.8785752-3.5343685.0669487 5.5940637z" fill="#f9d313"/><path d="m8 16h26.666667v13.333333h-26.666667z" fill="#f1f9ff"/><path d="m2.666667 10.666667h37.333333v5.333333h-37.333333z" fill="#4a80e8"/><path d="m0 5.33333333 21.3333333 23.99999997 21.3333334-23.99999997v23.99999997h-42.6666667z" fill="#e31d1c"/></g></g></g><rect height="32" mask="url(#a)" rx="2" width="43.335938"/></g></svg>