<svg height="32" viewBox="0 0 43 32" width="43" xmlns="http://www.w3.org/2000/svg" xmlns:xlink="http://www.w3.org/1999/xlink"><defs><path id="a" d="m0 0h42.666667v32h-42.666667z"/><path id="b" d="m.08466243.27308033c.03570137 3.91509578.18018974 6.47719074.43346512 7.6862849.37991308 1.81364122 2.87630438 6.61037537 5.18463241 6.61037537 2.30832802 0 4.76198584-4.3554513 5.34709164-6.61037537.3900706-1.50328272.5739266-4.06537769.5515682-7.6862849-.8966213.46411782-1.86344329.69617673-2.90046594.69617673-1.03702264 0-2.03642061-.30948915-2.9981939-.92846746-1.00973574.61897831-1.96982614.92846746-2.8802712.92846746s-1.82305384-.23205891-2.73782633-.69617673z"/><path id="c" d="m0 0h24v18.666667h-24z"/><mask id="d" fill="#fff"><path d="m0 0h43.335938v32h-43.335938z" fill="#fff" fill-rule="evenodd"/></mask><mask id="e" fill="#fff"><path d="m0 0h42.666667v32h-42.666667z" fill="#fff" fill-rule="evenodd"/></mask><mask id="f" fill="#fff"><use fill="#fff" fill-rule="evenodd" xlink:href="#a"/></mask><mask id="g" fill="#fff"><use fill="#fff" fill-rule="evenodd" xlink:href="#b"/></mask><mask id="h" fill="#fff"><use fill="#fff" fill-rule="evenodd" xlink:href="#c"/></mask></defs><g fill="none" fill-rule="evenodd"><g fill-rule="evenodd" mask="url(#d)"><g mask="url(#e)" transform="translate(.3346)"><use fill="#2e42a5" xlink:href="#a"/><g mask="url(#f)"><g transform="translate(26.6667 14.6667)"><path d="m1.55132909 1.60641367c.03570137 3.91509577.18018975 6.47719074.43346513 7.68628489.37991307 1.81364124 2.87630438 6.61037544 5.1846324 6.61037544 2.30832803 0 4.76198588-4.3554514 5.34709168-6.61037544.3900705-1.50328272.5739266-4.06537768.5515681-7.68628489-.8966213.46411782-1.8634432.69617673-2.9004659.69617673-1.03702262 0-2.03642059-.30948916-2.99819388-.92846747-1.00973574.61897831-1.96982614.92846747-2.88027119.92846747-.91044506 0-1.82305384-.23205891-2.73782634-.69617673zm-.28970073.00245642-.00426103-.46727483.42886074.21758625c.87445957.4436647 1.74113565.66404381 2.60292736.66404381.85094748 0 1.75874571-.29263256 2.72484497-.88486126l.15927359-.09763634.15698098.10102987c.91545933.58917156 1.85933796.88146773 2.83736553.88146773.9894386 0 1.9091623-.22075427 2.7634422-.66295493l.4238661-.21940568.0028644.46388557c.0224933 3.64274548-.1627261 6.2238397-.5602271 7.75575835-.3211393 1.23763057-1.1276823 2.91708027-2.0694792 4.24100197-1.14737606 1.6129126-2.37776941 2.5809284-3.55866028 2.5809284-1.17667202 0-2.40613856-1.0409911-3.55845598-2.7523009-.91650052-1.3610975-1.69571758-3.0584483-1.91015292-4.0821266-.25820382-1.23262169-.40332245-3.80589243-.43918936-7.73914141z" fill="#fbe625" fill-rule="nonzero"/><g fill="none" fill-rule="evenodd" transform="translate(1.4667 1.3333)"><use fill="#f5fbff" xlink:href="#b"/><path d="m6.32238131 3.83237936c-.10320927-.41449677.66258267.26895914.86526569.37672762.20268301.10776847.14828147.0856734.51850017.11690397 1.38013937.06953387 1.55426575.80575759 1.6659867.96125127.11172094.15549369.04524226.5147006.51498276.66832421.31316037.10241574.57298607.40287386.77947717.90137436-.67386029-.45261331-1.01604882-.45834684-1.02656561-.01720058-.01577518.66171939-1.35997935 1.45436015-1.75878552 1.9810911-.39880618.52673095-.12856756.93645321-.1922227 1.05617112s-.16271484.24818957-.25012034.20171527c-.08740551-.0464744-.05813843-.71866303.00539258-1.03065759.063531-.31199455-.44432355.00194844-.66042641.06555713-.21610286.06360868-1.05895587-.22093505-.40018092-.28371746.65877495-.06278242 1.3492416-.57495817 1.70677601-1.13218127.35753441-.55722309.30591157-1.52702225-.11397414-1.86344337-.27992381-.22428074-.52915207-.06211375-.74768478.48650098-.02840297-.06366008-.027652-.19473744.0022529-.39323206.02990491-.19849463.11719098-.36265587.26185824-.49248372-.33869291-.18008622-1.06732253-1.18820421-1.1705318-1.60270098zm-3.69360031.87969253c.06435132-.21588289.76204043-.76778528.45589964-.18109636-.3061408.58668891-.25264915 1.44471388.01995026 2.04805291.27259941.60333904 1.11405724 1.08823497 1.62488987.91931725.3405551-.11261182.34028985-.4099547-.00079573-.89202865.0688592.01085104.17838092.0828707.32856514.21605898s.24032201.29580117.27041338.48783866c.33549839-.1859698 1.57781741-.2479896 1.98165545-.10879706s-.5864365.40920293-.78720783.5204923c-.20077133.11128936-.15261164.07769822-.38043936.37118037-.80999379 1.1196114-1.52227897.8646699-1.71353454.87367904-.19125556.00900914-.45630494-.24238269-.84098356.06790544-.25645241.20685875-.64994902.26112571-1.18048983.16280089.74660407-.31863591.93778184-.60249666.57353332-.85158225-.5463728-.37362839-.47903122-1.93267596-.70357955-2.5540212-.22454833-.62134523-.71535283-.61785479-.78108765-.73644354-.06573481-.11858874-.11952843-.27163787-.03294733-.31963056.08658111-.04799269.63438596.34265294.86144515.56585893.22705918.223206.24036185-.37370227.30471317-.58958515zm1.85650398-3.53078204c-.08327559.80747239.07230979 1.11229866.46675615.91447881.59166954-.29672978 1.92259543.51800976 2.57489941.62284951.65230397.10483975.88719791-.32611974 1.02278683-.32611974s.29552838.02715073.29552838.12614359-.60724744.38872502-.91254827.47910304c-.30530084.09037803.21031763.39139967.36793492.5523447.15761728.16094504.3020756 1.03872527-.06263409.48653607-.36470968-.5521892-1.14108849-.92138311-1.80093952-.97546687-.65985103-.05408375-1.49189741.44678964-1.59181522.97546687-.06661188.35245148.19357866.49637418.78057161.4317681-.04287413.05496493-.15896113.11583896-.34826098.18262208-.18929985.06678311-.37522395.06678311-.55777231 0 0 .38359344-.54804447 1.50021794-.86556958 1.78594076-.3175251.28572283-.07358689-.71129444-.07358689-.94084715 0-.22955272.00603119-.171146-.14020101-.51269158-.58654141-1.25123491-.01824184-1.75061547.06660113-1.92225908.08484296-.1716436.43321369-.28158383.34832548-.768462-.05659214-.32458545.08671585-.69505448.42992396-1.11140711z" fill="#ff9800" mask="url(#g)"/><path d="m.4345679 10.3365079h9.7053498v4.6095238h-9.7053498z" fill="#36c6ff" mask="url(#g)"/></g></g></g><g mask="url(#f)"><use fill="#2b409a" xlink:href="#c"/><g mask="url(#h)"><g fill-rule="nonzero"><path d="m1.32764499 3.28505196 5.28126726-2.31626725 21.51092825 17.13103699 2.7857478 3.4420421-5.6475555.7741648-8.7737935-7.382254-7.06200197-4.97391428z" fill="#f7fcff" transform="matrix(1 0 0 -1 -4 20.6181)"/><path d="m2.05065842 2.76731119 2.69056181-1.34416892 25.16402527 21.54362063h-3.7778619z" fill="#f50100" transform="matrix(1 0 0 -1 -4 21.7233)"/><path d="m1.32764499 3.28505196 5.28126726-2.31626725 21.51092825 17.13103699 2.7857478 3.4420421-5.6475555.7741648-8.7737935-7.382254-7.06200197-4.97391428z" fill="#f7fcff" transform="matrix(-1 0 0 -1 28 20.6181)"/><path d="m1.50784817 3.09890547 2.6905618-1.34416891 10.71510273 9.22394324 3.176798 1.030569 13.0833277 10.4993758h-3.7778619l-13.075977-10.2501652-3.4732688-1.2357627z" fill="#f50100" transform="matrix(-1 0 0 -1 28 21.5967)"/></g><path d="m14.3127673-1-.000682 7.99909357 10.6879147.00099999v4.66663544l-10.6879147-.0006666.000682 8.0006043h-4.66675002l-.00001536-8.0006041-10.64600192.0006667v-4.66663537l10.64600192-.001.00001536-7.99909393z" fill="#f50100" stroke="#f7fcff" stroke-width="2"/></g></g></g></g><rect height="32" mask="url(#d)" rx="2" width="43.335938"/></g></svg>