<svg height="32" viewBox="0 0 43 32" width="43" xmlns="http://www.w3.org/2000/svg" xmlns:xlink="http://www.w3.org/1999/xlink"><mask id="a" fill="#fff"><path d="m0 0h43.335938v32h-43.335938z" fill="#fff" fill-rule="evenodd"/></mask><mask id="b" fill="#fff"><path d="m0 0h42.666667v32h-42.666667z" fill="#fff" fill-rule="evenodd"/></mask><g fill="none" fill-rule="evenodd"><g fill-rule="evenodd" mask="url(#a)"><g mask="url(#b)" transform="translate(.3346)"><path d="m0 0h42.6666667v32h-42.6666667z" fill="#f50100"/><path d="m9.94821175 5.63139801.01467951.0050912c.00852514.0026099.01667051.00446879.02443611.00557667h.02534523c.0077656-.00110788.015911-.00296677.0244361-.00557667l.0143751-.00776094.0498594-.02180304c.1513915-.08906967.3855183-.34175349.7023803-.75805146.6865345-.90197891-.2856672-2.23188814.9382877-2.23188814s1.7658613-.75570671 2.4113042-.37785336c.5695084.33340003 1.2432344.37262356 1.2099623.37723809l-.0529382.00061527c-.2677233 0-1.2295175.54767954-.485742.54767954.7437756 0 1.5892932-1.09535908 1.5892932-.54767954.1410216.41216176.0413015.63388146-.2991603.66515911-1.536209.15011813-2.1542089.25893372-1.8539997.32644678.273308.11264327.5035212.1723916.6906397.17924498.0809679.28463388-.1274666.46635774-.6253036.54517158-1.4069908.26123033-2.1426751.61789759-2.2070528 1.07000177-.0965666.67815627-.7633125 2.20638651 0 2.20638651s1.2589352-.5227523 1.2589352-1.11013777.1036212-1.57958992.7753662-1.62789374c1.100927-.37173637 1.7196349-.5448456 1.8561237-.51932771.2047331.03827684-.1626126.33147745.4044516.33147745.5670641 0 2.2102829-1.36230426 2.4689505-1.90334329.2586677-.54103903.6471153 0 .6471153 0s.2500421 1.5145664-1.0518226 2.06870247c-.8679098.36942405-1.5559909.55413608-2.0642432.55413608-.5412239.39800624-.640944.59700936-.2991603.59700936.5126756 0 1.6066345.21030391 2.3634035-.19335273.2018051-.10764177.370777-.20263015.5100763-.27977881l.1870895-.10169489c.2484375-.13052777.3546568-.15761399.3546568-.02218293l-.0008694.10317247c-.0078388.37506334-.0861167 1.38864009-.8659498 1.38864009h-2.2492466c-.2991603 0-1.007646.42618529.1691977.71457395s1.5561701.16787129 2.0800489 0c.5238789-.16787129.8668192-.26323531.8668192 0s-.7185984 1.24804376-1.3360695 1.24804376-1.3023604-.54670266-1.6107986-.54670266c-.3084381 0-.6282779.54670266-.468358.54670266s.6903423.7935336 1.3847494.7935336c.6944072 0 1.1110118-.25711101 1.5707443-.25711101.4597324 0 .4597324-.09558274.4597324.25711101 0 .35269378-.9172837.74180518-1.3360695.74180518s-2.1844479-1.01018052-2.1844479-.74180518 1.1062529 1.71174038 1.7874738 1.71174038h1.2733112c.3064883 0 .3989239.1945921.2773068.5837765-.2967722.2637092-.6294015.3955638-.9978881.3955638-.5527299 0-1.0955453-.5585138-1.4310498-.7689271-.3355046-.2104132-.8038626-.3733632-.8038626 0 0 .3733633 1.0574739 1.8650665 1.9127924 1.8650665.8553184 0 1.5024337-.3441635 1.5024337 0s-.3975689 1.1103565-.8668192.9410635-1.9500864-.7002475-2.2492466-1.2642294c-.2991603-.5639819-.8460406-.3231659-.6252461 0s1.3835597 1.9943328 2.2388782 2.1500649c.8553184.155732 1.6848594.1153773 1.5024337.4851316-.1824256.3697543-.9390954.8863823-1.3360695.723651-.3969741-.1627312-1.7530708-1.4093533-2.0791566-1.9290434-.3260858-.5196902-1.16336-1.5146693-1.16336-1.1066382s-.3401305 1.5217778.3589691 1.6743384 1.0674209.8255768.6990996.8255768-1.6833723-.3152918-1.6833723-1.1493989c0-.834107-.5946679-1.3023969-.5946679-1.0682519 0 .2341449-.0600815.9392043.2672932 1.392074s-.1365218.8225146-.2672932.6376922c-.1307714-.1848225-.6912346-1.0398178-.6912346-1.2053924 0-.1655747-.197793-.5542487-.4302865-.5542487-.2324936 0-.2791906.4051877.1558549 1.2745095.4350455.8693217 1.5076885 1.5644292 1.8466631 1.5644292.225983 0 .225983.259845 0 .7795352l2.3061972.5973374c.5855466-.3018402.8783199-.5009527.8783199-.5973374 0-.1445771.4591376-.4969428.8662244-.4969428s.4394079.4969428.2197039.4969428c-.2197039 0-.6247086.3807999-.8553184.3807999-.1537399 0-.465582.1643717-.9355263.493115h1.5711408c-.1676862-.184385-.0319906-.2765775.4070868-.2765775.658616 0 .9297759.2765775.9297759.2765775s-.742393.4355905-.9297759.4355905c-.1022088 0-.2620263.0452598-.500594.0617179l-.0976301.0040528.0396619.0425494c.0428284.0503871.0933202.1196693.1514754.2078466.4070868.6172414.4692503.8095005 0 .8095005s-.8662244-.1428273-.8662244-.4761639c0-.2222244-.2927733-.4387255-.8783199-.6495033l-1.1299484.6495033c.1406746.2413993.0961257.4001206-.1336466.4761639-.3446585.114065-.8304005-.05351-.8304005-.167575s.1139754-.6419255.4067538-.6419255c.1951856 0 .5893654-.1612388 1.1825394-.4837165l-2.15316-.6432875c-.4021093.4288584-.6692607.6432875-.8014543.6432875-.1049773 0-.314844-.4388698-.5414715-.9046953l-.152601-.3100234c-.1531499-.3049762-.305045-.5812498-.4295731-.7067721-.3528298-.3556466-.5751676-1.0913847-.9833467-.7980697s-.5702864 1.197249 0 1.9584048c.5702864.7611557 1.5570812 1.3625058 1.8320367 1.3625058.2749556 0 .8143713.0259121.8143713.215703s-.2399282.9670411-.8143713.637815c-.574443-.3292261-1.1885333-.7242195-1.2757667-.637815-.0872335.0864045.2718656 1.0652902.7738162 1.2988851.5019505.233595.921907-.1035345.921907.3071954s-.3546945.868485-.9943995.4342425-1.0265236-1.1801754-1.1420586-.8923928c-.1155351.2877826-.0664999 1.4121403.4407349 1.4121403.5072347 0 .8571786-.0714764.8571786.1267508s-.1170148 1.0432984-.6467187.7061195-.9170598-.7574916-1.0117269-1.0550547-.6600346-.0010867-.4817991.4172996.6112611 1.2616793.7267961 1.2616793c.0267908 0-.0098964.1027711-.1100614.3083133l-.0870259.1734263c-.214344.4175076-.5963092 1.1063952-1.1458958 2.0666628l-.009301-3.193-.00930103 3.193c-.54958655-.9602676-.9315518-1.6491552-1.14589577-2.0666628l-.08702588-.1734263c-.10016503-.2055422-.13685218-.3083133-.11006144-.3083133.11553506 0 .5485606-.843293.72679612-1.2616793s-.38713201-.7148627-.4817991-.4172996c-.0946671.2975631-.48202301.7178758-1.0117269 1.0550547-.52970388.3371789-.64671873-.5078923-.64671873-.7061195s.34994392-.1267508.85717865-.1267508.55626996-1.1243577.4407349-1.4121403-.50235359.4581503-1.14205859.8923928c-.63970501.4342425-.99439957-.0235126-.99439957-.4342425s.4199565-.0736004.92190706-.3071954c.50195057-.2335949.86104965-1.2124806.7738162-1.2988851-.08723344-.0864045-.70132369.3085889-1.27576676.637815s-.81437128-.4480241-.81437128-.637815.53941575-.215703.81437128-.215703c.27495552 0 1.2617503-.6013501 1.83203672-1.3625058.57028642-.7611558.40817909-1.6650898 0-1.9584048s-.63051691.4424231-.98334664.7980697c-.12452814.1255223-.27642323.4017959-.42957309.7067721l-.15260101.3100234c-.22662755.4658255-.43649424.9046953-.54147151.9046953-.1321936 0-.39934504-.2144291-.80145432-.6432875l-2.15315997.6432875c.59317399.3224777.98735378.4837165 1.18253937.4837165.29277837 0 .40675378.5278605.40675378.6419255s-.48574196.28164-.83040046.167575c-.22977233-.0760433-.2743212-.2347646-.13364661-.4761639l-1.12994839-.6495033c-.58554665.2107778-.87831998.4272789-.87831998.6495033 0 .3333366-.39697405.4761639-.86622436.4761639-.4692503 0-.40708678-.1922591 0-.8095005.05815526-.0881773.10864706-.1574595.1514754-.2078466l.03866191-.0425494-.09663009-.0040528c-.19880644-.0137151-.34292518-.0474314-.44459099-.0582891l-.05600301-.0034288c-.18738286 0-.92977591-.4355905-.92977591-.4355905s.27115985-.2765775.92977591-.2765775c.43907736 0 .57477296.0921925.40708678.2765775h1.57114084c-.46994432-.3287433-.78178641-.493115-.93552628-.493115-.23060981 0-.63561456-.3807999-.85531848-.3807999-.21970393 0-.18738286-.4969428.21970392-.4969428.40708679 0 .86622436.3523657.86622436.4969428 0 .0963847.29277333.2954972.87831998.5973374l2.3061972-.5973374c-.22598307-.5196902-.22598307-.7795352 0-.7795352.3389746 0 1.41161755-.6951075 1.84666304-1.5644292.4350455-.8693218.3883485-1.2745095.15585496-1.2745095-.23249355 0-.43028657.388674-.43028657.5542487 0 .1655746-.56046313 1.0205699-.69123455 1.2053924-.13077143.1848224-.59466794-.1848225-.26729323-.6376922.32737472-.4528697.26729323-1.1579291.26729323-1.392074 0-.234145-.59466794.2341449-.59466794 1.0682519 0 .8341071-1.31505093 1.1493989-1.68337226 1.1493989-.36832134 0 0-.6730162.69909962-.8255768s.3589691-1.2663073.3589691-1.6743384-.83727421.586948-1.16336004 1.1066382c-.32608584.5196901-1.68218254 1.7663122-2.07915659 1.9290434-.39697406.1627313-1.1536439-.3538967-1.33606954-.723651s.64711531-.3293996 1.50243379-.4851316c.85531848-.1557321 2.01808366-1.826899 2.23887817-2.1500649s-.32608583-.5639819-.62524608 0-1.77999634 1.0949364-2.24924665 1.2642294c-.4692503.169293-.86681923-.5969-.86681923-.9410635s.64711531 0 1.50243379 0 1.91279234-1.4917032 1.91279234-1.8650665c0-.3733632-.46835801-.2104132-.80386256 0-.33550455.2104133-.87831998.7689271-1.43104984.7689271-.36848658 0-.70111594-.1318546-.99788809-.3955638-.12161709-.3891844-.02918149-.5837765.27730681-.5837765h1.27331114c.68122097 0 1.78747386-1.44336504 1.78747386-1.71174038s-1.76566209.74180518-2.18444791.74180518c-.41878583 0-1.33606954-.3891114-1.33606954-.74180518 0-.35269375 0-.25711101.45973245-.25711101.45973244 0 .87633709.25711101 1.57074426.25711101s1.22482955-.7935336 1.38474942-.7935336-.15991987-.54670266-.46835801-.54670266c-.30843813 0-.99332745.54670266-1.61079858.54670266-.61747114 0-1.33606954-.98480845-1.33606954-1.24804376s.34294038-.16787129.86681923 0 .90320521.28838866 2.08004889 0 .46835801-.71457395.16919776-.71457395h-2.24924665c-.77983309 0-.858111-1.01357675-.86594975-1.38864009l-.00086948-.10317247c0-.13543106.10621931-.10834484.35465686.02218293l.18708945.10169489c.13929928.07714866.30827125.17213704.51007632.27977881.75676897.40365664 1.85072796.19335273 2.3634035.19335273.34178369 0 .24206361-.19900312-.29916025-.59700936-.50825235 0-1.19633344-.18471203-2.06424325-.55413608-1.30186473-.55413607-1.05182263-2.06870247-1.05182263-2.06870247s.38844764-.54103903.64711531 0c.25866766.54103903 1.90188645 1.90334329 2.46895057 1.90334329s.19971844-.29320061.40445157-.33147745c.13648875-.02551789.75519665.14759134 1.85612369.51932771.67174505.04830382.77536619 1.04050827.77536619 1.62789374s.49562271 1.11013777 1.25893521 1.11013777c.76331251 0 .09656662-1.52823024 0-2.20638651-.06437774-.45210418-.80006202-.80877144-2.20705283-1.07000177-.49783693-.07881384-.70627144-.2605377-.62530354-.54517158.18711847-.00685338.4173317-.06660171.69063968-.17924498.30020916-.06751306-.31779075-.17632865-1.85399972-.32644678-.34046177-.03127765-.44018185-.25299735-.29916025-.66515911 0-.54767954.84551759.54767954 1.58929315.54767954s-.21801865-.54767954-.48574196-.54767954l-.05293826-.00061527c-.03327204-.00461453.64045392-.04383806 1.20996233-.37723809.64544287-.37785335 1.18734931.37785336 2.41130421.37785336s.25175322 1.32990923.93828767 2.23188814c.31686205.41629797.55098882.66898179.70238031.75805146zm8.40143105 13.60333129c-.0133703-.0881773-.0190772-.1574595-.0171206-.2078466l.0044778-.0425494-.0329708.0000617c-.1467084-.005486-.3148663-.0243443-.5071163-.0658324-.4699443-.1014154-.285701.0039735.5527299.3161667zm-16.69928561 0c.83843089-.3121932 1.02267418-.4175821.55272986-.3161667-.19224994.0414881-.36040781.0603464-.5071163.0658324l-.03397075-.0000617.0054778.0425494c.00130439.0335914-.0007972.0755806-.00630477.1259677z" fill="#1a1a1a" transform="translate(12 2.6667)"/></g></g><rect height="32" mask="url(#a)" rx="2" width="43.335938"/></g></svg>