<svg height="32" viewBox="0 0 43 32" width="43" xmlns="http://www.w3.org/2000/svg" xmlns:xlink="http://www.w3.org/1999/xlink"><defs><path id="a" d="m0 0h42.666667v32h-42.666667z"/><path id="b" d="m6.46153846 7.28571429-1.265999.87646498.44662723-1.46873613-1.22905765-.92705099 1.54202982-.03126386.5063996-1.449414.5063996 1.449414 1.54202982.03126386-1.22905765.92705099.44662724 1.46873613z"/><filter id="c" height="90.5%" width="95.1%" x="2.4%" y="0%"><feOffset dx="0" dy="0" in="SourceAlpha" result="shadowOffsetOuter1"/><feColorMatrix in="shadowOffsetOuter1" type="matrix" values="0 0 0 0 0   0 0 0 0 0   0 0 0 0 0  0 0 0 0.2 0"/></filter><path id="d" d="m3.48546946 7.81298771c-1.49676052 2.19427139-1.6558431 3.69250629-.47724774 4.49470459 1.17859535.8021983 4.88399563 2.8940605 11.11620088 6.2755866 1.2877233-.0074039 2.0232011.1258673 2.2064333.3998138.2748483.4109196.8465512.8941822 1.0875435.8941822.1606616 0 .448488-.145097.8634791-.4352911.3234777-.2646915.3234777-.5509264 0-.8587049-.3234776-.3077784-1.3401289-.9885826-3.049954-2.0424127-6.67376874-4.2590811-10.29439972-6.59945172-10.86189296-7.02111187-.56749323-.42166015-.86234726-.99058236-.88456208-1.70676662z"/><filter id="e" height="100%" width="100%" x="0%" y="0%"><feOffset dx="0" dy="0" in="SourceAlpha" result="shadowOffsetOuter1"/><feColorMatrix in="shadowOffsetOuter1" type="matrix" values="0 0 0 0 0   0 0 0 0 0   0 0 0 0 0  0 0 0 0.2 0"/></filter><mask id="f" fill="#fff"><path d="m0 0h43.335938v32h-43.335938z" fill="#fff" fill-rule="evenodd"/></mask><mask id="g" fill="#fff"><path d="m0 0h42.666667v32h-42.666667z" fill="#fff" fill-rule="evenodd"/></mask><mask id="h" fill="#fff"><use fill="#fff" fill-rule="evenodd" xlink:href="#a"/></mask></defs><g fill="none" fill-rule="evenodd"><g fill-rule="evenodd" mask="url(#f)"><g mask="url(#g)" transform="translate(.3346)"><use fill="#1d1d1d" xlink:href="#a"/><path d="m0 0h42.666667v16h-42.666667z" fill="#f50100" mask="url(#h)"/><g mask="url(#h)"><g transform="translate(6.6667 5.3333)"><path d="m6.57735605 2.52883931.56901769-1.87313532c4.26696846 1.30226203 6.83937286 3.58525642 7.56299666 6.84224788.4800533 2.16069438.261863 4.09201693-.5144675 5.81180063-.5531377 1.2253507-1.255675 2.1400297-2.2658667 3.1698483-1.6844361 1.7171627-4.45518899 2.8128445-6.956677 2.348268-1.74360828-.323823-3.34981854-.9354335-4.81269034-1.8338736l1.02061352-1.6695552c1.25683593.7719007 2.63751487 1.2976337 4.14797726 1.5781569 1.80633505.3354726 3.94792459-.5114093 5.20781976-1.7957828.8631471-.8799171 1.4392627-1.6299995 1.8790402-2.6042265.6046505-1.3394657.7740601-2.83900271.3874711-4.57901868-.5520899-2.48492695-2.5757626-4.28092505-6.22523465-5.39472961z" fill="#ffea42" fill-rule="nonzero"/><g fill="none"><use fill="#000" filter="url(#c)" xlink:href="#b"/><g fill-rule="evenodd"><use fill="#fcff01" xlink:href="#b"/><use fill="#ffea42" xlink:href="#b"/></g></g><g fill="none"><use fill="#000" filter="url(#e)" xlink:href="#d"/><g fill-rule="evenodd"><use fill="#fcff01" xlink:href="#d"/><use fill="#ffea42" xlink:href="#d"/></g></g><path d="m8.94900748.09893275-.51974199 1.17713024 1.70433361.73785722.4832884-1.17743388zm3.48372122 1.87988867-.9383665.88047473 1.2805436 1.34513736.9049294-.8949978zm2.4818581 3.07166772-1.1998699.46484369.6834021 1.72688973 1.1743079-.49083501zm1.1374159 3.79769514-1.2861149-.04093564-.0456747 1.85663686 1.2727407.0070226zm-.4120445 3.93032532-1.1771303-.519742-.7378572 1.7043337 1.1774339.4832883zm-1.8751722 3.4908633-.8804748-.9383665-1.3451373 1.2805437.8949978.9049293zm-3.0645772 2.4866517-.4648436-1.1998699-1.72688977.683402.49083501 1.174308zm-3.78930982 1.139131.04093564-1.2861149-1.85663683-.0456747-.00702267 1.2727407zm-3.92192197-.4136688.519742-1.1771302-1.70433366-.7378572-.48328836 1.1774339z" fill="#ffea42" fill-rule="evenodd"/></g></g></g></g><rect height="32" mask="url(#f)" rx="2" width="43.335938"/></g></svg>