<svg height="32" viewBox="0 0 43 32" width="43" xmlns="http://www.w3.org/2000/svg" xmlns:xlink="http://www.w3.org/1999/xlink"><defs><path id="a" d="m0 0h42.666667v32h-42.666667z"/><mask id="b" fill="#fff"><path d="m0 0h43.335938v32h-43.335938z" fill="#fff" fill-rule="evenodd"/></mask><mask id="c" fill="#fff"><path d="m0 0h42.666667v32h-42.666667z" fill="#fff" fill-rule="evenodd"/></mask><mask id="d" fill="#fff"><use fill="#fff" fill-rule="evenodd" xlink:href="#a"/></mask></defs><g fill="none" fill-rule="evenodd"><g fill-rule="evenodd" mask="url(#b)"><g mask="url(#c)" transform="translate(.3346)"><use fill="#5196ed" xlink:href="#a"/><g fill="#f5f8fb" mask="url(#d)"><path d="m7.62313039 7.85834667s2.75216001 1.50997333 3.13491201 1.92762666c.382592.41773337.995872 1.95167997 1.952256 1.08421337.956544-.8671734 1.912928-.1929867 1.912928-1.5745867 0-1.38149333 1.428064-4.58621333 3.500192-3.78314667 2.07232.80298667 3.776096.30064 4.254112.62168.478336.32125334 1.626112 1.91656 2.518688 1.91656.892928 0 1.338944.93157334 1.402912 2.28098667.063456 1.34952-.286816 1.4784.541824 1.63928.82912.16048 1.147744.7712.733696 1.5741867-.41456.80328-.382944.4498133-.319136 1.2852.063968.8353866-.828608 5.7616533-3.571008 6.2441066-2.74208.4816267-5.341152.2248534-4.639424-.7073066.701376-.9314667 1.672288-2.0036.237888-2.22848-1.435072-.2251734-2.339264-.4166134-3.774176-.0311734-1.434912.3855467-2.93328.99576-3.826368-.1605866-.892576-1.15672-.701024-1.9921067-1.4344-2.5383467-.73318401-.5461067-1.62627201-.4498133-.89257601-1.51008.73286401-1.06024 1.33862401-.6643467.73286401-1.4996267-.60528001-.8351733-2.89187201-1.1990933-2.89187201-2.03416 0-.83570663-1.4544-2.66703997.426688-2.50634663z" transform="translate(4 2.6667)"/></g></g></g><rect height="32" mask="url(#b)" rx="2" width="43.335938"/></g></svg>