<svg height="32" viewBox="0 0 43 32" width="43" xmlns="http://www.w3.org/2000/svg" xmlns:xlink="http://www.w3.org/1999/xlink"><defs><path id="a" d="m0 0h42.666667v32h-42.666667z"/><mask id="b" fill="#fff"><path d="m0 0h43.335938v32h-43.335938z" fill="#fff" fill-rule="evenodd"/></mask><mask id="c" fill="#fff"><path d="m0 0h42.666667v32h-42.666667z" fill="#fff" fill-rule="evenodd"/></mask><mask id="d" fill="#fff"><use fill="#fff" fill-rule="evenodd" xlink:href="#a"/></mask></defs><g fill="none" fill-rule="evenodd"><g fill-rule="evenodd" mask="url(#b)"><g mask="url(#c)" transform="translate(.3346)"><use fill="#f7fcff" xlink:href="#a"/><g fill="#58a5ff"><path d="m0 0h42.666667v9.333333h-42.666667z" mask="url(#d)"/><path d="m0 22.666667h42.666667v9.333333h-42.666667z" mask="url(#d)"/></g></g><g transform="translate(14.8967 9.3333)"><g fill="#ffc125" stroke="#984111" stroke-width=".2"><path d="m.47249529 5.13191763c.26306344.3026072.61429394.21465428.82255804.21822831.04901236.0008411.0990594.00080091.16190142.00006558-.00150243.00001759.15387284-.0022536.19823759-.00249716.35166217-.00193059.42649775-.03604971.71237213.08342271.45786637.1913512 1.13983101.48189072 1.55726238.41900173.09763261-.01470905.36342686.06218326.37730022.1590608.01387337.09687753.03436332.38261731-.06326929.39732636-.4885887.07360934-1.49842444-.43329831-2.01239914-.64809827-.23479901-.09812704-.26492333-.05756309-.57269577-.05587345-.04242323.0002329-.19604062.00247839-.1960052.00247798-.06601312.00077243-.11929722.00081521-.17227128-.00009387-.3267721-.00560775-.76172314.03133677-1.08418654-.33959939-.06415841-.07380272-.05545992-.18588479.01942864-.25034231.07488855-.06445752.18760838-.05688174.2517668.01692098zm1.07028398-2.22172847c.12877138.3775959.48789119.42558864.67963045.50571465l.15008743.0597735c-.00139972-.00053783.14352587.05466206.18475282.0707989.32679004.12791047.40915812.12387672.62875904.34008618.35172048.34628859.87348183.86719518 1.28444563.96284309.09611992.02237099.31330386.19169486.2893068.28663494-.02399707.09494008-.11371815.36743052-.20983807.34505953-.48101863-.1119525-1.22445244-.95439797-1.61927382-1.34312182-.18036621-.17758067-.22373088-.15108092-.50973539-.26302733-.03942275-.01543065-.18270868-.07000602-.18267569-.06999334-.06150019-.02363085-.11092063-.04324349-.15969143-.06362435-.30084416-.1257199-.7181805-.25188473-.87602857-.7147421-.03140598-.09209168.01930441-.19280417.11326483-.22494766.09396043-.03214348.19558999.01645413.22699597.10854581zm1.72008923-1.85972825c.09924749.00655804.17351154.09038894.16587339.18724156-.03131809.39711679.28020703.57944657.42490513.72696442.03405289.03471649.06947035.06953014.11443449.11275995-.00107501-.00103355.11042306.10553063.1419686.13624454.25004924.24345728.3274703.27143093.44380909.55493254.18633228.45406606.45988906 1.13428301.80022439 1.38042382.0796007.05756963.21232167.29698303.15255432.37514424s-.25049664.29447457-.33009733.23690494c-.3983505-.28809912-.74835189-1.34957085-.95751789-1.85927954-.09555328-.23285017-.14598736-.22513926-.36482883-.43821149-.03016503-.02936979-.14040163-.13472832-.14037629-.13470396l-.06478376-.06295787-.05696301-.05704142c-.22703529-.23145956-.56112563-.50814283-.52273589-.99492893.00763815-.09685262.09428609-.17005084.19353359-.1634928zm2.45115139-.88001535c.08952546.04268509.12648567.1478019.08255296.23478497-.18013369.3566495.03933404.64059982.1173678.83074372.01836427.044748.03795678.09008937.0631986.14675507-.00060348-.00135477.06222991.13857267.07979231.17868478.13921034.31795314.20035041.37244438.20035041.67821072 0 .48972602-.00517335 1.22130575.21672777 1.57504643.05190023.08273606.08386432.35366662-.00128999.40409296s-.34429892.18064359-.39619915.09790753c-.25972742-.41404099-.18037145-1.52730839-.18037145-2.07704692 0-.251137-.04969553-.26258873-.17153152-.54085924-.01679382-.0383567-.07891633-.17670103-.0789021-.1766691-.02651556-.05952513-.04737532-.10779919-.06722399-.1561642-.1224371-.29834101-.32692707-.67809688-.10611904-1.11527815.04393271-.08698306.15212194-.12289367.24164739-.08020857zm7.63371441 5.22805294c.0883475.04325423.1248214.1497726.0814668.23791544-.0433547.08814285-.1501204.12453226-.2384679.08127803-.3622439-.17735174-.6506482.03872658-.8437747.1155552-.04545.01808066-.0915026.03737058-.1490571.06222258.001376-.00059417-.1407463.06126884-.1814877.07856001-.3229405.13706041-.3782865.19725624-.6888491.19725624-.4974079 0-1.2404632-.00509345-1.59975268.21338067-.08403386.0510987-.35921424.08256914-.41043157-.00127006-.05121734-.08383921-.18347717-.33898164-.09944331-.39008034.42053565-.25571624 1.55126576-.17758583 2.10962756-.17758583.2550763 0 .2667077-.04892805.5493432-.16888242l.0336249-.01442967.0938864-.04067726.04502-.01957025c.0673678-.02911244.1163991-.04965005.1655228-.06919217.3030208-.12054622.6887335-.32187809 1.1327724-.10448017zm-.9871006-2.34418949c.0983719.00752019.1727183.09282995.1660574.19054469-.006661.09771474-.0918068.17083187-.1901787.16331168-.403346-.03083442-.5885358.27587957-.7383676.41834298-.035261.03352699-.0706208.06839748-.1145287.11266719l-.0479948.04863018c-.0089365.00904625-.0184453.01866706-.0278977.02822269l-.0624892.06292321c-.2472761.24618753-.2756886.32241291-.5636372.436955-.4611886.18345459-1.15207542.45278662-1.4020772.78786589-.05847267.07837136-.30164151.20904262-.38102877.15019831-.07938725-.05884432-.29909371-.24662803-.24062104-.32499938.29261826-.39219847 1.37074031-.73679451 1.88844431-.94273019.2365026-.09407758.2286708-.14373277.4450852-.3591945l.0972593-.09812314.0156541-.01585635.0239036-.02422886c.0461235-.04650362.0837704-.08362954.1218816-.11986654.2350902-.22352901.5161136-.55245972 1.0105354-.51466286zm-1.6290719-1.70966303c.0326477.09250932-.0167122.19256933-.1102484.22349029-.3835189.12678266-.4322645.48035631-.5136474.66913438-.0191524.04442657-.0378625.0901278-.0607111.14776952.0005463-.00137811-.05551945.14130929-.07190942.18189954-.12991688.32174316-.12581985.40283916-.34542077.61904861-.35172049.34628859-.88079804.85999197-.97794629 1.26460894-.0227219.09463546-.19470179.30846526-.2911311.2848388-.09642932-.02362646-.37319405-.11196191-.35047215-.20659737.11370859-.47358989.96936869-1.20554226 1.36419008-1.59426611.1803662-.17758067.15345077-.22027562.26715318-.50186315.0156727-.03881391.07110414-.17988696.07109126-.17985448.02400153-.0605504.04392181-.1092076.06462236-.15722519.12769195-.29619799.25583585-.70708908.72595355-.86249937.0935363-.03092096.1958285.01900627.2284762.11151559zm-2.37139671-1.06882364c.0654686.07373199.05777399.18471101-.0171864.24787857-.30735391.25900075-.21802136.60480692-.22165145.80985463l-.00006662.15940106c-.00001785-.00147923.00228896.15149646.00253634.19517605.00196087.34623117.03661519.41991101-.08473129.70137041-.19435274.45079518-.48944967 1.1222277-.4255742 1.53321236.01493977.09612479-.06315867.35781417-.16155583.37147327-.09839716.01365911-.38861906.03383262-.40355883-.06229217-.07476399-.48104304.44009504-1.4752831.65826436-1.98132009.09966626-.23117282.05846602-.2608319.05674988-.56385117-.00023655-.04176806-.00251727-.19301301-.00251685-.19297814-.00078455-.06499363-.000828-.11745482.00009535-.16961076.0056957-.3217255-.03182833-.74995926.34492635-1.0674426.07496039-.06316756.18880059-.05460341.25426919.01912858zm-.89420522 8.74083925c.25972742.41404099.18037145 1.52730841.18037145 2.07704691 0 .251137.04969553.2625887.17153152.5408593.01679382.0383567.07891633.176701.0789021.1766691.02651556.0595251.04737532.1077991.06722399.1561642.1224371.298341.32692707.6780968.10611904 1.1152781-.04393271.0869831-.15212194.1228937-.24164739.0802086-.08952546-.0426851-.12648568-.1478019-.08255296-.234785.18013369-.3566495-.03933405-.6405998-.1173678-.8307437-.01836427-.044748-.03795678-.0900894-.06319861-.1467551.00060349.0013548-.0622299-.1385727-.0797923-.1786848-.13921035-.3179531-.20035041-.3724443-.20035041-.6782107 0-.489726.00517334-1.22130573-.21672777-1.57504642-.05190023-.08273606-.08386432-.35366661.00128999-.40409296.08515431-.05042634.34429891-.18064358.39619915-.09790753zm.89998002-.44440518c.3983505.28809913.74835189 1.34957085.95751789 1.85927959.09555327.2328501.14598736.2251392.36482883.4382114.03016503.0293698.14040163.1347284.14037629.134704l.06478376.0629579.20219454.202663c.2005407.2049154.4082162.4598784.3775044.8493073-.0076382.0968526-.0942861.1700509-.1935336.1634928-.0992475-.006558-.1735116-.0903889-.1658734-.1872415.0313181-.3971168-.28020705-.5794466-.42490515-.7269645-.03405289-.0347164-.06947036-.0695301-.11443449-.1127599.00107501.0010335-.11042306-.1055306-.1419686-.1362446-.25004925-.2434572-.3274703-.2714309-.4438091-.5549325-.18633227-.454066-.45988905-1.134283-.80022438-1.3804238-.0796007-.05756963-.21232167-.29698303-.15255432-.37514425.05976735-.07816121.25049664-.29447457.33009733-.23690494zm.62661721-.72002302c.48101863.11195249 1.2244524.95439797 1.6192738 1.34312181.1803662.17758068.2237309.15108092.5097354.26302733.0394228.01543065.1827087.07000602.1826757.06999335.0615002.02363085.1109206.04324349.1596914.06362434.3008442.1257199.7181805.25188473.8760286.71474208.031406.0920917-.0193044.1928042-.1132648.2249477-.0939605.0321435-.19559-.0164541-.226996-.1085458-.1287714-.3775959-.4878912-.42558867-.6796304-.50571468-.0451235-.01885665-.0915416-.03727781-.1500875-.0597735.0013997.00053784-.1435259-.05466206-.1847528-.0707989-.32679-.12791047-.4091581-.12387672-.628759-.34008617-.3517205-.34628859-.87348187-.86719519-1.28444568-.96284309-.09611991-.022371-.31330385-.19169487-.28930679-.28663495.02399707-.09494008.11371815-.36743052.20983807-.34505952zm2.3234647-.27732775c.234799.09812705.2649234.05756309.5726958.05587345.0424232-.00023289.1960406-.00247839.1960052-.00247797l.1722713.00009387c.3267721.00560774.7617231-.03133678 1.0841865.33959939.0641584.07380272.0554599.18588479-.0194286.25034231-.0748886.06445752-.1876084.05688174-.2517668-.01692098-.2630635-.3026072-.614294-.21465429-.8225581-.21822831l-.1619014-.00006559c.0015025-.00001758-.1538728.00225361-.1982376.00249716-.3516621.00193059-.4264977.03604972-.7123721-.08342271-.4578664-.1913512-1.139831-.48189071-1.55726238-.41900172-.09763261.01470904-.36342686-.06218326-.37730022-.1590608-.01387337-.09687754-.03436332-.38261732.06326929-.39732636.48858869-.07360935 1.49842441.43329831 2.01239911.64809826zm-4.82191814 1.52653117c.07476398.48104304-.44009504 1.47528309-.65826436 1.98132009-.09966626.2311728-.05846602.2608319-.05674988.5638512.00014193.0250608.00101976.0895333.00169923.1370941l.00081762.055884c.00078455.0649936.000828.1174548-.00009535.1696108-.0056957.3217255.03182833.7499592-.34492635 1.0674426-.0749604.0631675-.18880059.0546034-.25426919-.0191286-.06546861-.073732-.05777399-.184711.0171864-.2478786.30735391-.2590007.21802136-.6048069.22165145-.8098546.00085429-.0482554.00081348-.0975296.00006662-.1594011.00001785.0014793-.00228896-.1514964-.00253634-.195176-.00196087-.3462312-.03661519-.419911.08473129-.7013704.19435274-.4507952.48944966-1.12222773.42557419-1.53321238-.01493977-.0961248.06315867-.35781417.16155584-.37147328.09839716-.01365911.38861906-.03383262.40355883.06229217zm-1.31217051-.50353954c.09642932.02362646.37319405.11196191.35047215.20659737-.11370859.47358989-.96936869 1.20554226-1.36419008 1.59426616-.1803662.1775806-.15345077.2202756-.26715318.5018631l-.01341304.0336125-.0371734.0941256c-.01164403.0295655-.02050997.0521294-.02050482.0521164-.02400153.0605504-.04392181.1092076-.06462236.1572252-.12769195.296198-.2558358.7070891-.72595358.8624993-.09353623.030921-.1958285-.0190062-.22847619-.1115155-.03264768-.0925094.01671223-.1925694.11024846-.2234903.38351888-.1267827.43226445-.4803563.51364731-.6691344.01915244-.0444266.03786255-.0901278.06071111-.1477695-.00054627.0013781.05551949-.1413093.07190946-.1818996.12991688-.3217431.12581985-.4028391.34542077-.6190486.35172049-.34628858.88079804-.85999196.97794628-1.26460893.02272191-.09463546.1947018-.30846526.29113111-.2848388zm-.6597433-.74687455c.08041825.05747126.30341993.24145117.24634539.32081533-.28562152.39716675-1.35747096.76023555-1.87144566.9750355-.23479901.09812704-.22608814.1476401-.43865036.36678764-.02929949.03020721-.13437048.14056357-.13434618.1405382l-.06280506.06487231-.05693321.05707025c-.23109213.22753445-.50624198.56124395-1.00125852.53194835-.09849017-.0058287-.17433747-.089848-.16940968-.1876623s.08876461-.17238334.18725478-.16655461c.40383112.02389908.58355587-.28595029.73083954-.43096655.03466137-.03412777.06939761-.06960052.1125141-.11461796-.00103084.00107628.10524251-.11054292.13588291-.14213258.24287454-.25039896.26993147-.32710094.55580585-.44657336.45786637-.1913512 1.14387377-.47251363 1.38789781-.81183762.05707454-.07936415.29789005-.21419385.37830829-.1567226zm-.29708973-.90108599c.05121734.0838392.18347717.33898163.09944331.39008033-.42053565.25571625-1.5512658.17758583-2.10962755.17758583-.25507634 0-.2667077.04892805-.54934318.16888243-.03895836.01653446-.17947277.07769756-.17944033.07768355-.06045884.02610607-.10949014.04664367-.1586138.0661858-.30302079.12054621-.68873354.32187808-1.13277244.10448016-.08834749-.04325422-.12482139-.1497726-.08146673-.23791544.04335465-.08814284.15012033-.12453226.23846782-.08127803.36224392.17735174.65064829-.03872658.84377479-.1155552.04544992-.01808065.09150252-.03737058.14905708-.06222258-.00137603.00059417.14074633-.06126884.18148764-.07856001.32294056-.13706041.37828655-.19725623.68884915-.19725623.49740788 0 1.24046319.00509344 1.59975267-.21338068.08403386-.05109869.35921424-.08256914.41043157.00127007z"/><path d="m6.77124023 0c.08478442-0 .15515503.06552045.16119951.15008912l.29021651 4.0604372h-.90283203l.29021651-4.0604372c.00604448-.08456867.07641509-.15008912.1611995-.15008912zm6.74272977 6.57894737c0 .08342606-.0645673.1526216-.1477939.15838783l-4.1287789.28605661v-.88888889l4.1287789.28605661c.0832266.00576624.1477939.07496178.1477939.15838784zm-6.74272977 6.57894733c-.08478441 0-.15515502-.0655204-.1611995-.1500891l-.29021651-4.06043718h.90283203l-.29021651 4.06043718c-.00604448.0845687-.07641509.1500891-.16119951.1500891zm-6.74272974-6.57894733c0-.08342606.0645673-.1526216.14779385-.15838784l4.12877892-.28605661v.88888889l-4.12877892-.28605661c-.08322655-.00576623-.14779385-.07496177-.14779385-.15838783zm12.99447991-2.46451706c.0316522.07713213-.0023066.1655676-.0774486.20169122l-3.71861722 1.78768141-.33820684-.82416343 3.93646856-1.25739201c.0798826-.0255162.1659678.01460218.1978041.09218281zm-1.4014363-2.1056038c.058631.05977652.060315.15495547.0038353.21676864l-2.76656439 3.02781529-.62715983-.63941316 3.17023892-2.61671674c.0651153-.05374617.1605284-.04873074.21965.01154597zm-2.21571946-1.48583213c.07780231.0325151.11681718.12000332.08901572.1996118l-1.3444752 3.84985639-.83106126-.34731655 1.87895371-3.62674469c.03902288-.07532172.12929717-.10811743.20756703-.07540695zm-1.2922101 8.08542293 1.27601054 3.87232129c.02639839.0801115-.01414824.1669258-.09252382.1981025-.07883035.0313577-.16853239-.0030123-.20622603-.079017l-1.81435198-3.65842315zm.69547378-.63450747 2.65744758 3.12090846c.0543141.0637865.0493034.158901-.011412.2166278-.0612234.0582097-.1568062.0598971-.2200461.0038847l-3.07543249-2.72394685zm.40863366-.87865991 3.68630782 1.85127841c.0745135.03742094.1069274.12644949.0739159.20301856-.0332103.07703014-.120003.1156504-.199458.08875299l-3.91353029-1.32482342zm-3.82562667 1.49018223.83106126.34731656-1.87895371 3.62674468c-.03902288.0753217-.12929717.1081174-.20756703.075407-.07780231-.0325151-.11681718-.1200034-.08901572-.1996118zm-.70844985-.68094786.62715983.63941316-3.17023892 2.61671674c-.06511525.0537462-.1605284.0487307-.21965001-.011546-.058631-.0597765-.060315-.1549554-.00383529-.2167686zm-.36809957-.8503925.33820684.82416342-3.93646856 1.25739201c-.07988258.0255162-.16596781-.01460217-.19780409-.0921828-.03165224-.07713213.00230661-.16556761.07744857-.20169122zm-3.5515731-3.13449696 3.91353027 1.32482343-.35276457.81822654-3.68630785-1.85127841c-.07451343-.03742095-.10692733-.12644949-.07391586-.20301856.03321024-.07703014.12000303-.1156504.19945801-.088753zm1.54340992-2.07703094 3.07543245 2.72394689-.64944301.6174741-2.65744759-3.12090841c-.0543141-.06378651-.04930343-.15890107.01141201-.2166278.06122345-.05820971.15680617-.05989717.22004614-.00388478zm2.14420253-1.28449324 1.81435197 3.65842313-.83709128.33298364-1.27601054-3.87232134c-.02639839-.08011146.01414824-.16692575.09252382-.1981025.07883035-.03135765.16853239.00301237.20622603.07901707z"/><ellipse cx="6.77124" cy="6.578947" rx="2.618213" ry="2.54386"/></g><g transform="translate(5.0559 5.4386)"><path d="m1.46275304.4766995c-.02700372-.01647172-.14149817-.09087362-.16963392-.1084049-.09908703-.06174075-.17812766-.10199209-.25152704-.12454652-.0402222-.01235962-.07694713-.01859569-.11016021-.01859569-.1593373 0-.38444465.09791666-.66915861.29746585l-.10563708-.14228253c.31271718-.21917598.56892794-.33062191.77479569-.33062191.05303353 0 .10775706.0092923.16460887.02676194.09179151.02820603.18320397.07475771.2945544.14413973.03039151.01893683.14390274.09269981.16816658.10750026.03945656.02406771.06499867.03564195.06469694.03564195.21558621 0 .22864745.7594092.07617394.99226426-.04121185.06293808-.09179906.11381345-.15808963.1650212-.02549013.01969047-.10553624.07645991-.11733106.08541125-.05311985.04031379-.06996386.06379812-.06996386.09253822 0 .00497725.0648865.02080499.20957985.01411814.02866425-.00132468.05713156-.00319214.09906196-.00632787.10283071-.00769012.11612162-.00854773.14929154-.00854773v.1754386c-.0261574 0-.03998538.00089226-.13543431.00803034-.04354889.00325677-.07351689.00522267-.10434031.00664714-.25440039.01175683-.39872514-.02344825-.39872514-.18935862 0-.09529305.04679261-.16053247.13937858-.23079794.01511637-.01147213.09431977-.06764391.11611073-.08447686.05182855-.04003622.08902622-.07744579.11811377-.12186781.04669897-.07131792.07568858-.25689273.07230478-.45363446-.00155348-.09032232-.00992699-.17321923-.02315852-.23137195-.00397182-.01745616-.00821379-.03182649-.01222485-.04236266-.03424927-.00816731-.07111964-.02707904-.12145309-.05778143z" fill="#984111" fill-rule="nonzero"/><path d="m3.16968603.5261171c-.00073047-.00156214-.00144711-.00297666-.00214645-.00423837.00023609.00042594.00051293.00087148.00083236.00133213zm-.11794865-.0494176c-.02700372-.01647172-.14149816-.09087362-.16963392-.1084049-.09908703-.06174075-.17812766-.10199209-.25152704-.12454652-.04022219-.01235962-.07694713-.01859569-.11016021-.01859569-.1593373 0-.38444465.09791666-.66915861.29746585l-.10563708-.14228253c.31271718-.21917598.56892794-.33062191.77479569-.33062191.05303353 0 .10775707.0092923.16460887.02676194.09179151.02820603.18320397.07475771.2945544.14413973.03039151.01893683.14390274.09269981.16816658.10750026.03945656.02406771.06499868.03564195.06469694.03564195.21558621 0 .22864745.7594092.07617394.99226426-.04121185.06293808-.09179906.11381345-.15808962.1650212-.02549014.01969047-.10553625.07645991-.11733107.08541125-.05311985.04031379-.06996386.06379812-.06996386.09253822 0 .00497725.0648865.02080499.20957985.01411814.02866425-.00132468.05713156-.00319214.09906196-.00632787.10283071-.00769012.11612162-.00854773.14929154-.00854773v.1754386c-.0261574 0-.03998538.00089226-.13543431.00803034-.04354889.00325677-.07351689.00522267-.10434031.00664714-.25440039.01175683-.39872514-.02344825-.39872514-.18935862 0-.09529305.04679262-.16053247.13937858-.23079794.01511637-.01147213.09431977-.06764391.11611073-.08447686.05182855-.04003622.08902622-.07744579.11811377-.12186781.04669897-.07131792.07568858-.25689273.07230478-.45363446-.00155347-.09032232-.00992699-.17321923-.02315852-.23137195-.00397182-.01745616-.00821379-.03182649-.01222485-.04236266-.03424926-.00816731-.07111964-.02707904-.12145309-.05778143z" fill="#984111" fill-rule="nonzero" transform="matrix(-1 0 0 1 5.1468 0)"/><g stroke="#984111" stroke-width=".2"><path d="m1.7369742 2.52642688c.14169058 0 .27086597-.07936178.38927536-.24725349-.11153986-.06596726-.24066344-.09893224-.38927536-.09893224-.14954852 0-.29243342.03348165-.42963313.10094681.14424655.16578338.28748433.24523892.42963313.24523892zm-.61342748-.34554709c.19217307-.11708451.39723441-.17607724.61342748-.17607724.21868765 0 .40898211.06048445.56754051.18138791l.06218007.04741336-.04015154.06615154c-.16005213.26369343-.3574108.40211012-.58956904.40211012-.22906016 0-.44175703-.13501761-.63821121-.39471968l-.05756284-.07609505z"/><path d="m2.61821289.95298246c.24931018 0 .45141602-.09551259.45141602-.21333334 0-.11782074-.20210584-.21333333-.45141602-.21333333s-.45141602.09551259-.45141602.21333333c0 .11782075.20210584.21333334.45141602.21333334zm-1.80566406 0c.24931018 0 .45141601-.09551259.45141601-.21333334 0-.11782074-.20210583-.21333333-.45141601-.21333333s-.45141602.09551259-.45141602.21333333c0 .11782075.20210584.21333334.45141602.21333334z"/></g></g></g></g><rect height="32" mask="url(#b)" rx="2" width="43.335938"/></g></svg>