<svg height="32" viewBox="0 0 43 32" width="43" xmlns="http://www.w3.org/2000/svg" xmlns:xlink="http://www.w3.org/1999/xlink"><mask id="a" fill="#fff"><path d="m0 0h43.335938v32h-43.335938z" fill="#fff" fill-rule="evenodd"/></mask><mask id="b" fill="#fff"><path d="m0 0h42.666667v32h-42.666667z" fill="#fff" fill-rule="evenodd"/></mask><g fill="none" fill-rule="evenodd"><g fill-rule="evenodd" mask="url(#a)"><g mask="url(#b)" transform="translate(.3346)"><path d="m0 0h42.6666667v32h-42.6666667z" fill="#f7fcff"/><path d="m-1.33333333 14.0759994 51.35289053 19.2573339h-51.35289053zm51.35289053-15.40933273-51.35289053 19.25733393v-19.25733393z" fill="#3547a0" stroke="#e31d1c" stroke-width="2.666667"/><g transform="translate(23.8667 6.8)"><path d="m14.8298518.01342838c-1.7869118.48219064-3.0034624.81092523-3.649652.98620379-.130746.03546476-.3801876.09890619-.3623751-.2570917-.614049.39414702-1.60393512.79252448-2.00975687.90557295-.20418794.05687999-.14965125-.29645979-.23683526-.39759334-.17671367.26049434-.63087745.64214321-.75971922.6794262-1.27766534.36971852-2.126014.63846664-2.54504598.80624437-.39918383.38394551-.59877574.72812097-.59877574 1.03252636 0 .4566081-.06381037.84657679-.47597332.84657679-.41216294 0-1.36280732.82940432-1.01458498 1.29677724.34822234.46737293 1.4905583.21850037 1.4905583 0 0-.21850036.81429854-.49185009.81429854-.24592504 0 .16395003-.07184094.39419773-.2155228.69074309h.89907518l-.68355238.35357332h.68355238l-.68355238.41880305h1.27985383l-.81794484.36485075h.56739145l-.34574806.4801882h.88657355c.23006462.23263988.45348776.41252356.6702694.53965105.32517247.19069123 1.0460995 1.81361714.68563599 2.44207794-.36046352.6284609.08177549.7219295.16321108.4458352.08143558-.2760942.24994451-.6717564.39464617-.6717564h.42236466c.13081828.3442152.19622742.5163228.19622742.5163228s.46573238.4977012.46573238.4977012.0331632-.4326205.1205363-.4977012c.2424241.0246705.4224159.0227545.5399753-.005748-.0521986-.4194301-.0762382-.6573468-.072119-.7137501.375817.1275329.6442438.1898742.8052807.1870239-.2418771-.3781965-.3628156-.6318529-.3628156-.76096923.4492554.02286534.6738831.12982893.6738831.32089063-.0497528-.47687848-.0746292-.71531773-.0746292-.71531773.4252479-.18089586.6453058-.34747714.6601737-.49974382-.2786284-.03407633-.4179426-.05111449-.4179426-.05111449.1446885-.18368277.2103229-.29365492.1969032-.32991643-.4116995-.05225458-.6175492-.07838188-.6175492-.07838188.4498347-.15654206.6917117-.2842966.7256312-.38326361-.1009216-.15863224-.1976435-.26909527-.2901656-.33138906-.3142213-.20363453-.471332-.30545179-.471332-.30545179.7027178.0045604 1.1128886.0068406 1.2305125.0068406.1836605-.06599912.2048038-.15548114.0634299-.26844604-.1383809-.08316396-.1981261-.16491864-.1792355-.24526401.0940669-.18070585.1303356-.28678266.1088061-.31823041.1003744.13304333.1505617.03518475.1505617-.29357575.0025745-.33043898-.0277728-.5036075-.0910418-.51950556.1849477-.13605194.2410564-.24749671.1683259-.33433433-.1090957-.13025642-1.2772401-.47698933-1.5567858-.47698933 1.4268364-.90438432 2.1402547-1.35657647 2.1402547-1.35657647.0988941-.3735411.2207498-.67194644.365567-.89521602.3791639-.34038318.6069454-.6439348.6833445-.91065486.0763992-.26672006.222198-.72899894.4373965-1.38683663v-.45157461z" fill="#9c3900"/><path d="m11.1321237 8.63805806.3410198-.11867458c.2211302-.07695312.3903166-.14648948.50675-.20798727.0709154-.03745604.1193458-.07082486.1450576-.09529687-.0841789-.12520786-.1634377-.21224184-.2350244-.26045449l-.7146098-.4631106.2912854.00189035c.6745557.00437764 1.0795938.00665421 1.2145927.00682798.1073042-.03930947.1078677-.05059024.0287478-.11418583-.1630764-.09926985-.2424413-.20954986-.2132357-.33376664.0525159-.1064916.0835089-.17468669.1000351-.22302164.0071394-.02088108.0111621-.03691342.0122999-.04706373.0003633.00197768.0417438-.01861364.1241415-.06177395.0125858-.04489824.0206716-.13413176.0206737-.26146379.0012513-.16060236-.0054417-.28196853-.0195773-.36262945-.0063208-.03606761-.0138821-.06230268-.0214728-.07763289-.0000126-.0000254-.0533089-.01345071-.1598889-.04027594l.1445057-.10630184c.1506418-.11081565.1836119-.17630191.1534092-.21236296-.0855639-.10216029-1.2233229-.44609472-1.4902267-.44609472h-.2932039l2.3585988-1.49497152c.0994765-.36662369.2217551-.66232848.367722-.8873704.3829244-.34771447.601828-.63943503.6730311-.88801488.0762712-.2662734.2209309-.72509751.4341613-1.37713156v-.39567892l-.0888811-.06526167c-1.7647007.47620391-2.9676825.80127697-3.6089151.97521096-.1255597.034058-.201846.04393535-.2862265.01722752-.0926138-.0293138-.152129-.1000346-.1752606-.20892504-.5582846.33257332-1.43089499.70653848-1.91007186.84002126-.09664962.02692337-.17654377-.00550677-.22438794-.08314454-.02897804-.0470233-.04246434-.09568541-.06068373-.19194602-.21732076.2193478-.57188798.51653335-.71064296.55668493-1.25905521.3643333-2.10026852.63039158-2.52116768.7971782-.3760614.36470355-.56073333.68603907-.56073333.96015949 0 .28014589-.02417321.47624018-.09042849.62801887-.08579985.19655173-.24221984.30343856-.4717982.30343856-.17439952 0-.49486558.19244693-.72863048.44535717-.25626787.27725619-.34347219.54579099-.21639511.71634981.13436109.18033516.44021324.25672521.7980562.22290034.15207673-.01437495.29826394-.04846462.40546333-.09300353.0868649-.03609038.13122601-.07334553.13122601-.07970719 0-.15307417.20583329-.29465597.46681682-.37787002.11539225-.03679258.22630592-.05503927.31284729-.04875604.12134457.00881007.20714117.06905437.20714117.18070102 0 .15497884-.05615479.35599803-.16740251.60586245h1.11418338l-.68355238.35357332h.63580393l-.68355237.41880305h1.37733726l-.81794484.36485076h.33500201l-.34574806.48018819h.75616183l.02539759.02568188c.22511184.22763166.44278586.40288658.65261036.52593419.18826762.11040597.45748119.5823832.63742687 1.10243091.2097577.60620525.25813865 1.14225505.07916894 1.45428515-.14164741.2469594-.15555442.4091807-.10133836.4574736.02725945.0242813.08387033.0000426.10660092-.0770219.12078131-.4094895.29144826-.732976.47748063-.732976h.48219432l.21127565.5559184.32637854.3487818c.00366821-.0249593.00764691-.0495492.01194852-.0734981.02782423-.1549095.06014023-.2523401.12100823-.2976782l.0609277-.0167509c.1846421.0187903.3303899.0215736.435627.0092091-.0465145-.3791045-.0671108-.5896145-.0626743-.6503615l.0080456-.1101653.1061043.0360064c.257795.0874823.4631572.1433838.613871.167977-.1907661-.3134417-.2857778-.5296351-.2857778-.66167873v-.08938404l.0907084.0046167c.2390874.01216861.4246579.04842303.5520694.11186101l-.0495302-.47474592.0580357-.02468778c.3084283-.13120205.4987019-.25248473.5730928-.3511329l-.4576365-.05596904.0928285-.11784614c.068393-.08682523.118196-.15612832.1490331-.20705833zm1.4769184-1.85412507c.0000396-.00035348.0000781-.00070468.0001155-.00105361-.0000502.00046843.0000068.00153868.0003101.00322422zm-.8590133 3.44283701.015442.1333333c0-.0461805-.0051474-.0906249-.015442-.1333333zm-.58261-.2681245c-.0317084-.00250791-.0586045-.00424139-.0863579-.00565393 0 .02073909.0031202.04469129.0093606.07185663.0402029.1566817.156896.381775.353455.6891126-.1484917.0026282-.3882931-.0501736-.7194044-.1584053-.0001854-.0065209-.0288108-.0160605-.0858763-.0286186l-.0281184.0802436c.0397686.1245241.0627358.3321705.1002374.6335065-.1175594.0285025-.2975512.0304185-.5399753.005748-.0873731.0650807-.1205363.4977012-.1205363.4977012l-.46573238-.4977012-.19622742-.5163228h-.42236466c-.14470166 0-.31321059.3956622-.39464617.6717564-.08143559.2760943-.5236746.1826257-.16321108-.4458352.36046351-.6284608-.36046352-2.25138671-.68563599-2.44207794-.21678164-.12712749-.44020478-.30701117-.6702694-.53965105h-.88657355l.28463178-.39530756h.06111628l-.02578226-.04907325.02578226-.03580739h-.04459486l-.02578225-.04907324-.03533403.04907324h-.46168031l.62765422-.27997012h.19029062l-.01697335-.07730953-.0186356-.08488064-.17331727.07730954h-1.07092761l.54501384-.33392241h.13853854l-.02093114-.07205642-.02465635-.08488064-.1176074.07205642h-.52035749l.51945526-.26869268h.16409712l-.01884319-.07513384-.02128764-.08488064-.14525393.07513384h-.71369042c.14368186-.29654536.2155228-.52679306.2155228-.69074309 0-.24592505-.81429854.02742468-.81429854.24592504 0 .21850037-1.14233596.46737293-1.4905583 0-.34822234-.46737292.60242204-1.29677724 1.01458498-1.29677724.41216295 0 .47597332-.38996869.47597332-.84657679 0-.30440539.19959191-.64858085.59877574-1.03252636.41903198-.16777773 1.26738064-.43652585 2.54504598-.80624437.12884177-.03728299.58300555-.41893186.75971922-.6794262.08718401.10113355.03264732.45447333.23683526.39759334.40582175-.11304847 1.39570787-.51142593 2.00975687-.90557295-.0178125.35599789.2316291.29255646.3623751.2570917.6461896-.17527856 1.8627402-.50401315 3.649652-.98620379l.1573174.11551159v.45157461c-.2151985.65783769-.3609973 1.12011657-.4373965 1.38683663-.0763991.26672006-.3041806.57027168-.6833445.91065486-.1448172.22326958-.2666729.52167492-.365567.89521602l-2.0223322 1.28183265c-.0467061-.00657021-.0866532-.01013682-.1179225-.01013682l.0213318.07135974.0253736.08488063.0901748-.05715626c.4095913.06645645 1.3239969.34827421 1.4199056.46278586.0622119.0742788.0301563.16656186-.0961666.27684919-.0149501-.01178666-.0318236-.01998344-.05082-.02475679l-.0213393.08224193.0516423.06798534c.0281303.0800196.0411205.23063155.0393995.45152022 0 .20692233-.0198815.32237376-.0596445.34635426.0052284-.04120335-.0010468-.07342051-.0193837-.10020481l-.0715335.0474263-.0692532.05059814c.0175766.02329714.0366215.04283798.056314.05797708-.0184646.05246545-.0504202.12235051-.0958669.20965519-.0188906.08034537.0408546.16210005.1792355.24526401.1413739.1129649.1202306.20244692-.0634299.26844604-.1084906 0-.4658609-.00193984-1.0721107-.00581953l-.110963-.07191074-.0218991.07105524c-.0056466-.00003657-.0143494.02820117-.0261085.08471322.045516.00029538.0898044.0005812.1328654.00085745l.3390354.21971555c.0925221.06229379.189244.17275682.2901656.33138906-.029222.08526122-.2127906.19188861-.5507057.31988215l-.1638922-.02080186.0083549.07740892c-.0042795.00150141-.0011567.03043433.0093683.08679878.0553505-.01926194.1076515-.0380604.1569433-.0564546l.4318494.0548121c.011393.03078516-.034193.11469801-.1367582.25173857l-.0495075-.00605478.0193309.04577474c-.0095812.01243864-.0195707.02525794-.0299684.0384579l.0487259.00595919.0194443.04604351c.0107955-.01370495.0211744-.02698424.0311394-.0398571l.318633.03896889c-.0148679.15226668-.2349258.31884796-.6601737.49974382l.069714.66820553c-.0325488-.1498966-.2267522-.2392714-.58261-.2681245z" fill="#212121" fill-rule="nonzero"/><path d="m12.6756602 7.58949306c1.696481.22582574 2.5960305.33873861 2.6986484.33873861.1539269 0 .7944679-.16292038.5751073-1.18796107-.2193607-1.02504069-.1300791-1.64510788-.7580064-1.64510788-.6279272 0-1.2827572.27279465-1.5183777.27279465-.2356206 0-.0076865 0-.9973716 0s-6.8852242-.03403872-7.30975505.43881827c-.42453085.472857-1.61849923 1.13976379-2.17153245 1.37502857-.55303323.23526478-.69483914.07088976-.94346759.74642746-.16575229.45035847-.31028853.69119454-.43360872.72250822l.43360872.48360571h1.28871329c.59153588-.74219285 1.50132867-1.14423083 2.72937837-1.20611393 1.22804971-.0618831 3.36360419-.17479597 6.40666343-.33873861z" fill="#fff"/><path d="m2.30929057 9.00702465h1.16820226c.61701741-.74227437 1.5485401-1.1436461 2.78488754-1.20594734 1.22785575-.06187333 3.36329175-.17477994 6.40620743-.33871484 1.6976856.22369477 2.6126955.33854825 2.7057208.33854825.0898823 0 .2317042-.05669682.3306772-.16667994.1522217-.16915538.2075756-.44834008.117827-.86772241-.0300246-.14030052-.0558072-.27920038-.0826067-.44000333-.0126112-.07567019-.0525332-.32651641-.0605943-.37506656-.0974194-.58673364-.1853789-.7289548-.4882023-.7289548-.0351019 0-.0708798.00090731-.1073481.00269829-.2290077.0112467-.4652524.05399984-.7669736.12974771-.0611055.01534069-.3072099.07992192-.3644386.09394966-.1280512.03138753-.2119339.04639899-.2796174.04639899h-.9973716c-.0286788 0-.0623832-.00002767-.1078249-.00008434-.0275269-.00003433-.1412484-.00019406-.1348759-.00018535-1.2614692-.00172538-2.2652482.00546197-3.35046723.03455822-.97414838.02611828-1.79457158.06717181-2.41805344.12576336-.69027953.06486884-1.12971802.1557088-1.20157525.23574584-.38317725.42679594-1.48959453 1.09808758-2.21715285 1.40759674-.08402407.03574451-.16326228.06466729-.24895017.09204352-.04532589.01448107-.17511394.05312589-.18738198.05694642-.16364446.05096244-.2247279.09288666-.30203009.2231533-.04242393.07149117-.08616994.168653-.13479626.30077349-.12734617.34600683-.24212767.57752989-.3626494.70152655zm10.36636963-1.41753159c-3.04305924.16394264-5.17861372.27685551-6.40666343.33873861-1.2280497.0618831-2.13784249.46392108-2.72937837 1.20611393h-1.28871329l-.43360872-.48360571c.12332019-.03131368.26785643-.27214975.43360872-.72250822.24862845-.6755377.39043436-.51116268.94346759-.74642746.55303322-.23526478 1.7470016-.90217157 2.17153245-1.37502857.42453085-.47285699 6.32006995-.43881827 7.30975505-.43881827h.9973716c.2356205 0 .8904505-.27279465 1.5183777-.27279465.6279273 0 .5386457.62006719.7580064 1.64510788.2193606 1.02504069-.4211804 1.18796107-.5751073 1.18796107-.1026179 0-1.0021674-.11291287-2.6986484-.33873861z" fill="#4d4d4d" fill-rule="nonzero"/><path d="m2.14261588 8.39910968c-.64707827.41498594-.85184551.76193501-.61430174 1.0408472.35631566.41836829.39160088.47137248.46262192.47137248.01267823-.29858809.05732931-.44788213.13395324-.44788213.1149359 0 1.02527298.4350105 1.35525117-.30028173.21998546-.49019482-.22585607-.74488009-1.33752459-.76405582z" fill="#ffc221"/><path d="m.02948191 10.4278602 2.23397583-.4138256.85688525.9276946.24722981-.8302451.61423465.1507275v.4191829h.22676645v.575074l1.6063975.3357689.20153307-.5509464c.3487198.5755278.79093187.848959 1.3266362.8202937.8035565-.0429979.94689541.1846189 1.08818321-.4532621.09419187-.425254.27262218-.7520748.53529093-.9804624l.93759389.3157781c-.68669117.8434669-.86586878 1.3977303-.53753284 1.6627904l3.67167304.8495501-.1450829.4447494h-.4213916l.113759.383035-4.01250075-.2771755c-.2980721.377686-.44710815.5183034-.44710815.4218523 0-.1446768-.02429865-.1446768-.22184608-.1446768-.13169828 0-.23170733-.0923918-.30002716-.2771755l-.26101059.1004682c.02628155.0035942-.06997533-.0298952-.28877065-.1004682s-.39228019-.1058595-.5204546-.1058595l-1.35531135-.0999608v.2058203s-.3589369.0179498-.23428544.1004682c.08310097.0550122.96971185.1139147 2.65983263.1767073l-.15449304.2848502c.83560552.0030022 1.34125772-.0437223 1.51695659-.1401734.17569888-.0964512.20704481.010402.09403781.3205595h1.24503218c-.2058618.1948474-.44072736.2922711-.70459658.2922711-.26386921 0 .11489762.1619712 1.13630048.4859135-.5701912.176961-.9873074.2069408-1.25134849.0899393-.39606163-.1755022.16802727.3392704.41816849.4692956.2501412.1300251-.87984293.118418-1.33107605-.3832887.09453918.2477877.09453918.407116 0 .477985-.52705094-.6209493-.92221024-.9314239-1.18547789-.9314239-.39490149 0 .06200346.6140992.06200346.6140992-.15034658-.2140446-.30948022-.2775984-.4774009-.1906613-.25188102.1304057-.4383419.2780635-.4383419.2780635-.11004264-.3792928-.45589588-.647356-1.0375597-.8041896-.87249575-.2352503-.57972237-.3217012-1.28778182-.3980037-.70805945-.0763026-.74378229-.4652363-.8410011-.4652363-.06481255 0-.34686548-.2184211-.8461588-.6552632-.11103046-.4097801-.03639428-.6146701.22390856-.6146701.39045425 0 1.00971844-.183745 1.23648489 0 .15117764.1224967.25871934.1224967.32262511 0h.39902645s.19058654.147383.57175961.4421489h1.13443138c.14493256-.2238969.33246833-.3712799.56260732-.4421489s.23013899-.2066694 0-.4074012c-.54914481.0312975-.93490679.0894845-1.15728592.1745611-.22237914.0850766-.26230554-.1207859-.11977921-.6175877l-1.48661829-.2700083-.22676645.2700083-.4920566.1480384v.2949882l-.5186506-.1140313.14924274-.8840748-1.21380743.5550795z" fill="#ffc221"/><path d="m.2255847 10.4779052 1.69410869 1.385882 1.31252193-.6002222-.16265194.9635074.33393411.0734193v-.2518601l.52832457-.1589498.24255911-.2888124 1.62953331.2959653-.02571363.0896296c-.06784148.236474-.09197117.4017282-.07523458.4880229.0092971.0479364.01735166.0516453.08075179.0273901.23294973-.0891207.6260378-.1484128 1.18355227-.1801872l.06219814.0212173c.27410402.239079.27410402.4578367-.03145242.5519297-.21009547.0646968-.3813006.1992456-.51561891.4067453l-.02542476.039277h-1.21158874l-.57175961-.4421488h-.32106251c-.09771306.1320434-.25486975.1189697-.42558033-.0193542-.09364673-.0758803-.28277367-.0788992-.67712353-.028579-.01427434.0018215-.02814371.0036067-.04959217.0063784-.24570745.031752-.34162298.0415548-.45494293.0415548-.18252181 0-.23674064.1374491-.14705977.4834346.23912805.2088565.42675784.3659792.56250066.4710981.06849808.0530448.12334839.0924987.16395656.1180696.01870589.0117791.0338251.0202451.04478515.0252691.02902099.0039964.05026389.0117534.06941252.0242867.02664002.0174367.15173325.1840919.2149418.237629.12489063.1057811.30242538.1779263.56410353.2061255.30080602.0324158.43714402.0657763.58187867.1337035.02192708.0102909.09834105.0479518.10528923.0513123.04488262.0217076.08500167.0398408.131162.0587976.12213304.050157.27460407.1005526.48285531.1567032.55052244.1484369.90601046.3976337 1.05705302.7491583.09126957-.0634473.18130445-.1204286.27673718-.1736954.02628235-.0146697.05267942-.028883.07915958-.0425925.08351999-.0432405.16575856-.0568199.24532336-.0423651-.032813-.0867707-.04541045-.1625264-.03096831-.228005.0230811-.1046465.11074392-.1628293.24120171-.1628293.28376471 0 .66669712.2895248 1.16974121.866609.00565894-.0652279-.0137273-.1640347-.06501263-.2984539l-.16412358-.4301688.3094614.3440768c.18251576.2029315.51506038.3428142.87784542.4010258.07262169.0116527.14212916.0189692.20245663.0220066-.11123283-.0785373-.23611414-.1824162-.3267581-.2732273-.08290617-.083059-.12596871-.1398379-.12832772-.1949828-.00327174-.076481.05971386-.1119949.12686482-.1044639.03368694.003778.07608422.0178718.13165197.0424949.19903205.0881947.50670052.0836014.92052652-.0181404-.3694213-.1203492-.63211255-.2138596-.78909482-.2809895-.11185849-.0478338-.17239078-.0815482-.19993052-.1203709-.04063469-.0572827-.01481912-.1258128.04736309-.150209.02580401-.0101237.057566-.0136274.10076977-.0136274.16308324 0 .31360123-.0405529.45278628-.1225099h-1.11577866l.04136474-.1135291c.02687507-.0737609.04492326-.1346104.05418605-.1819118.0040696-.0207818.00625208-.0381148.00695291-.0515598-.00886669.0037437-.01961742.0089093-.03196523.0156877-.19435732.1066939-.70621045.1539914-1.55929099.1509264l-.14321218-.0005146.15704982-.2895643c-1.66317273-.0630753-2.46426592-.1179175-2.56700556-.1859305-.0829495-.0549119-.08765831-.1500183-.00396792-.1994137.03394794-.0200365.08088986-.0323518.14265488-.0419469.01865589-.0028982.03795329-.0053917.05748834-.0075208v-.2193156l1.44488752.1065675c.13848761.0005831.3190906.0375306.54399671.1100746.1099833.0354754.18926591.0616626.23817466.0786788.00700723.0024379.11887123-.0338075.33559197-.1087364l.03020464.0816941c.05716625.1546167.12936545.2213169.21897222.2213169.19011782 0 .2689602.0191959.29604614.1136022.07061679-.0708432.17266214-.1905473.30478645-.3579615l.02823796-.0357802 3.93484013.2718109-.1112854-.3747064h.4735626l.0973035-.2982824-3.60022225-.8330178c-.38348251-.309579-.21795068-.873828.43361398-1.6994065l-.77390922-.2606497c-.22815617.2138795-.3855762.5137398-.47155382.9019084-.0592339.2674271-.12196727.3995228-.23800553.4693257-.09859636.0593107-.16505464.0629717-.46729673.0506491-.18198482-.0074196-.3056135-.0084277-.46247246-.0000342-.52151046.0279057-.95992665-.2131749-1.30952164-.7140295l-.16765736.4583377-1.74832424-.3654344v-.5589388h-.22676645v-.4377496l-.4684971-.1149649-.26716219.897182-.92784535-1.0045186zm7.25412162 5.2276544s-.01636039-.021989-.04407834-.0612721c.0147194.0199682.02941218.0403923.04407834.0612721zm2.69630568-1.1565601h.0949252l.0095213.0365353c-.0243653.0343616-.0491278.0666276-.0742875.096798h-.1522965c.0417197-.038589.0824211-.0830214.1221375-.1333333zm-2.83287133-.6393919c.01343657.0018376.01667814.0005898.00972472-.0037432zm-2.36168142.0143665c-.00017621.0001065-.00035084.0002108-.00052387.0003129.00051909-.0003063.00106032-.0006154.00162347-.0009272zm2.62269201.1597891-.10851859.2000837c-.01510712-.0000206-.03032737-.0000585-.04565954-.0001136l.02414553.0397806-.02446044.0450995c.01744715.0000627.03475044.0001037.0519099.000123l.02418335.0398442.02161027-.0398445c.77742649-.0008985 1.25051085-.0476639 1.41925307-.1402961.15857743-.0870523.19956485-.0084926.12296227.2356788l-.00900775.0278492c-.00604808.0181784-.01268699.0371889-.01991671.0570315h.06070365l.02048838.0286485c.00354352-.0097255.00695957-.0192741.01024716-.0286485h1.15359299c-.1989859.1883393-.42507023.2856543-.67825316.291945-.0202974-.0111706-.02846016-.0162788-.03384578-.0202358.00457172.0076342.00769723.0137606.00981451.0205594-.10480068.0000025-.11034136.0244374-.01893419.0733072.18157399.0903638.55837782.2240464 1.15292252.4126088-.5701912.176961-.9873074.2069408-1.25134849.0899393-.0150735-.0066794-.02875627-.0123589-.04111855-.0170978-.11464098-.0417961-.11410569-.0049952-.05928364.0635285.1087075.1310621.36943629.3453438.51857068.4228649.2287731.1189178-.69685843.1193675-1.2018619-.2652272-.01229793-.0462912-.02851506-.0956087-.04846484-.1478972l-.07005628.0414984c-.00587219-.0044819-.03096604.0103826-.07528154.0445936.03509481.0390204.07431971.0757964.11713496.1102961.03629095.154157.01877547.2579679-.05254645.3114326-.52705094-.6209493-.92221024-.9314239-1.18547789-.9314239-.35274227 0-.0258454.4899773.04797322.5945961-.14620704-.1983432-.30066393-.2553959-.46337066-.1711582-.25188102.1304057-.4383419.2780635-.4383419.2780635-.11004264-.3792928-.45589588-.647356-1.0375597-.8041896-.87249575-.2352503-.57972237-.3217012-1.28778182-.3980037-.70805945-.0763026-.74378229-.4652363-.8410011-.4652363-.06481255 0-.34686548-.2184211-.8461588-.6552632-.11103046-.4097801-.03639428-.6146701.22390856-.6146701.39045425 0 1.00971844-.183745 1.23648489 0 .15117764.1224967.25871934.1224967.32262511 0h.39902645l.57175961.4421489h1.13443138c.14493256-.2238969.33246833-.3712799.56260732-.4421489s.23013899-.2066694 0-.4074012c-.54914481.0312975-.93490679.0894845-1.15728592.1745611-.20968929.0802218-.25715469-.0982386-.14239622-.5353813.00825219-.0311974.01518666-.0563065.02261701-.0822064l-.07730487-.0140405-1.40931342-.2559678-.22676645.2700083-.4920566.1480384v.2949882l-.5186506-.1140313.13212045-.7826469.05347123-.0244526-.04380844-.0327872.0074595-.0441881-.04127882.018877-.04380843-.0327872-.00966279.0572398-1.11905739.5117499-1.87705365-1.5355419 2.23397583-.4138256.78891684.8541096-.0148042.0497154.05021373-.0113798.03255888.0352494.01361239-.045713.05021373-.0113798-.03540952-.0383356.21881321-.7348167.61423465.1507275v.4191829h.22676645v.575074l1.6063975.3357689.20153307-.5509464c.3487198.5755278.79093187.848959 1.3266362.8202937.8035565-.0429979.94689541.1846189 1.08818321-.4532621.09419187-.425254.27262218-.7520748.53529093-.9804624l.93759389.3157781c-.68669117.8434669-.86586878 1.3977303-.53753284 1.6627904l3.67167304.8495501-.1450829.4447494h-.3315298l-.0070719-.0238116-.0181371.0238116h-.0646528l.0181371.061069-.0181371.0238116.113759.2981544-4.01250075-.2771755c-.2980721.377686-.44710815.5183034-.44710815.4218523 0-.1446768-.02429865-.1446768-.22184608-.1446768-.0631796 0-.11906623-.0212631-.16765987-.0637894l-.01783424-.0168965c-.04489662-.045907-.08307431-.1114036-.11453305-.1964896l-.07843032.0301894-.18258027.0702788c.00367343.0005024.00763091-.0275219.01187244-.0840727-.03060653.0001717-.03060653.0001717-.06967187.0250559-.00984311.0134462-.01528196.020876-.01843716.0284244-.0487201-.0165964-.11956479-.0398883-.21253406-.0698758-.21879532-.070573-.39228019-.1058595-.5204546-.1058595l-1.26905798-.0935992-.08625337-.0063616v.0787571.1270632s-.3589369.0179498-.23428544.1004682c.00720162.0047674.02043773.009564.03970832.0143899.20576799.0510261 1.07883077.1050541 2.62012431.1623174z" fill="#4d4d4d" fill-rule="nonzero"/></g></g></g><rect height="32" mask="url(#a)" rx="2" width="43.335938"/></g></svg>