<svg height="32" viewBox="0 0 43 32" width="43" xmlns="http://www.w3.org/2000/svg" xmlns:xlink="http://www.w3.org/1999/xlink"><defs><path id="a" d="m0 0h42.666667v32h-42.666667z"/><path id="b" d="m0 0h24v18.666667h-24z"/><mask id="c" fill="#fff"><path d="m0 0h43.335938v32h-43.335938z" fill="#fff" fill-rule="evenodd"/></mask><mask id="d" fill="#fff"><path d="m0 0h42.666667v32h-42.666667z" fill="#fff" fill-rule="evenodd"/></mask><mask id="e" fill="#fff"><use fill="#fff" fill-rule="evenodd" xlink:href="#a"/></mask><mask id="f" fill="#fff"><use fill="#fff" fill-rule="evenodd" xlink:href="#b"/></mask></defs><g fill="none" fill-rule="evenodd"><g fill-rule="evenodd" mask="url(#c)"><g mask="url(#d)" transform="translate(.3346)"><use fill="#2e42a5" xlink:href="#a"/><g mask="url(#e)"><use fill="#2b409a" xlink:href="#b"/><g mask="url(#f)"><g fill-rule="nonzero"><path d="m1.32764499 3.28505196 5.28126726-2.31626725 21.51092825 17.13103699 2.7857478 3.4420421-5.6475555.7741648-8.7737935-7.382254-7.06200197-4.97391428z" fill="#f7fcff" transform="matrix(1 0 0 -1 -4 20.6181)"/><path d="m2.05065842 2.76731119 2.69056181-1.34416892 25.16402527 21.54362063h-3.7778619z" fill="#f50100" transform="matrix(1 0 0 -1 -4 21.7233)"/><path d="m1.32764499 3.28505196 5.28126726-2.31626725 21.51092825 17.13103699 2.7857478 3.4420421-5.6475555.7741648-8.7737935-7.382254-7.06200197-4.97391428z" fill="#f7fcff" transform="matrix(-1 0 0 -1 28 20.6181)"/><path d="m1.50784817 3.09890547 2.6905618-1.34416891 10.71510273 9.22394324 3.176798 1.030569 13.0833277 10.4993758h-3.7778619l-13.075977-10.2501652-3.4732688-1.2357627z" fill="#f50100" transform="matrix(-1 0 0 -1 28 21.5967)"/></g><path d="m14.3127673-1-.000682 7.99909357 10.6879147.00099999v4.66663544l-10.6879147-.0006666.000682 8.0006043h-4.66675002l-.00001536-8.0006041-10.64600192.0006667v-4.66663537l10.64600192-.001.00001536-7.99909393z" fill="#f50100" stroke="#f7fcff" stroke-width="2"/></g></g><g fill="#f7fcff" fill-rule="nonzero" mask="url(#e)"><g transform="translate(8 2.6667)"><path d="m4 24.6666667-1.73553496 1.6038754.171872-2.3568958-2.33604869-.3568959 1.94985583-1.3351256-1.17747011-2.0489173 2.25955845.6920214.86776748-2.1980622.86776748 2.1980622 2.25955845-.6920214-1.17747011 2.0489173 1.94985583 1.3351256-2.33604869.3568959.171872 2.3568958z"/><path d="m21.3333333 14.6666667-1.1570233 1.0692503.1145814-1.5712639-1.5573658-.2379306 1.2999039-.8900837-.7849801-1.3659449 1.5063723.4613476.5785116-1.4653748.5785117 1.4653748 1.5063723-.4613476-.7849801 1.3659449 1.2999039.8900837-1.5573658.2379306.1145813 1.5712639z"/><path d="m24 4-1.1570233 1.06925031.1145813-1.57126391-1.5573658-.23793058 1.2999039-.89008373-.7849801-1.36594489 1.5063723.46134764.5785117-1.46537484.5785117 1.46537484 1.5063723-.46134764-.7849801 1.36594489 1.2999039.89008373-1.5573658.23793058.1145813 1.57126391z"/><path d="m30.6666667 9.33333333-1.1570233 1.06925027.1145813-1.57126386-1.5573658-.23793058 1.2999039-.89008374-.7849801-1.36594489 1.5063723.46134765.5785117-1.46537485.5785116 1.46537485 1.5063723-.46134765-.7849801 1.36594489 1.2999039.89008374-1.5573658.23793058.1145814 1.57126386z"/><path d="m25.3333333 26.6666667-1.1570233 1.0692503.1145814-1.5712639-1.5573658-.2379306 1.2999039-.8900837-.7849801-1.3659449 1.5063723.4613476.5785116-1.4653748.5785117 1.4653748 1.5063723-.4613476-.7849801 1.3659449 1.2999039.8900837-1.5573658.2379306.1145813 1.5712639z"/><path d="m30 16.3333333-1.1755705.618034.224514-1.309017-.9510565-.927051 1.3143277-.190983.5877853-1.190983.5877853 1.190983 1.3143277.190983-.9510565.927051.224514 1.309017z"/></g></g></g></g><rect height="32" mask="url(#c)" rx="2" width="43.335938"/></g></svg>