<svg height="32" viewBox="0 0 43 32" width="43" xmlns="http://www.w3.org/2000/svg" xmlns:xlink="http://www.w3.org/1999/xlink"><defs><path id="a" d="m0 0h42.666667v32h-42.666667z"/><mask id="b" fill="#fff"><path d="m0 0h43.335938v32h-43.335938z" fill="#fff" fill-rule="evenodd"/></mask><mask id="c" fill="#fff"><path d="m0 0h42.666667v32h-42.666667z" fill="#fff" fill-rule="evenodd"/></mask><mask id="d" fill="#fff"><use fill="#fff" fill-rule="evenodd" xlink:href="#a"/></mask></defs><g fill="none" fill-rule="evenodd"><g fill-rule="evenodd" mask="url(#b)"><g mask="url(#c)" transform="translate(.3346)"><use fill="#af0100" xlink:href="#a"/><path d="m0 0h42.666667v10.666667h-42.666667z" fill="#3ca5d9" mask="url(#d)"/><path d="m0 21.333333h42.666667v10.666667h-42.666667z" fill="#73be4a" mask="url(#d)"/><g fill="#f7fcff" mask="url(#d)"><path d="m6.66210665 1.05732929c1.55454828-.00407654 3.44977085.84478562 3.99418885 2.05533337-1.36533279-.56482505-2.70643565-.69861812-4.02330861-.40137921-1.97530944.44585836-3.11647931 2.01591132-3.13392818 3.95538322-.01864035 2.07190691 1.55820337 3.61784803 3.35417011 4.03195693 1.19731116.2760726 2.43720506.0315965 3.71968168-.7334283-.2314455.6427017-1.34703847 2.1541246-3.69544745 2.1602829-2.9294161.0076819-6.25798412-1.9805972-6.226519-5.47799933.03035003-3.37345876 3.11747716-5.58256139 6.0111626-5.59014958zm2.92902419 2.67957637.62697096 1.8037152 1.9091798.03890615-1.5216905 1.15366344.5529671 1.82776053-1.56742736-1.09071199-1.56742734 1.09071199.55296706-1.82776053-1.52169043-1.15366344 1.90917978-.03890615z" transform="translate(16 9.3333)"/></g></g></g><rect height="32" mask="url(#b)" rx="2" width="43.335938"/></g></svg>