<svg height="32" viewBox="0 0 44 32" width="44" xmlns="http://www.w3.org/2000/svg" xmlns:xlink="http://www.w3.org/1999/xlink"><mask id="a" fill="#fff"><path d="m0 0h43.335938v32h-43.335938z" fill="#fff" fill-rule="evenodd"/></mask><mask id="b" fill="#fff"><path d="m0 0h45.333333v32h-45.333333z" fill="#fff" fill-rule="evenodd"/></mask><g fill="none" fill-rule="evenodd"><g fill-rule="evenodd" mask="url(#a)"><g mask="url(#b)" transform="translate(.3556)"><g transform="translate(0 -2.6667)"><path d="m0 2.66666667h42.6666667v32.00000003h-42.6666667z" fill="#2e42a5"/><path d="m12 2.66666667h26.6666667v32.00000003z" fill="#feca00"/><g fill="#f7fcff" transform="translate(4)"><path d="m4.14404417 6.39170576-1.56742734.82404532.29935199-1.745356-1.26807536-1.23606797 1.75243704-.25464401.78371367-1.58797734.78371367 1.58797734 1.75243704.25464401-1.26807535 1.23606797.29935198 1.745356z"/><path d="m8.79296004 12.0985549-1.56742734.8240453.29935198-1.745356-1.26807535-1.23606797 1.75243704-.25464401.78371367-1.58797734.78371367 1.58797734 1.75243699.25464401-1.2680753 1.23606797.299352 1.745356z"/><path d="m13.1512191 17.6512632-1.5674273.8240453.299352-1.745356-1.2680754-1.2360679 1.7524371-.2546441.7837136-1.5879773.7837137 1.5879773 1.7524371.2546441-1.2680754 1.2360679.299352 1.745356z"/><path d="m17.4204912 22.9723322-1.5674273.8240453.2993519-1.745356-1.2680753-1.236068 1.752437-.254644.7837137-1.5879773.7837137 1.5879773 1.752437.254644-1.2680753 1.236068.2993519 1.745356z"/><path d="m22.0192392 28.4490405-1.5674273.8240453.299352-1.745356-1.2680754-1.236068 1.7524371-.254644.7837136-1.5879773.7837137 1.5879773 1.752437.254644-1.2680753 1.236068.299352 1.745356z"/><path d="m27.1024604 33.7480588-1.5674274.8240453.299352-1.745356-1.2680754-1.236068 1.7524371-.254644.7837137-1.5879773.7837136 1.5879773 1.7524371.254644-1.2680754 1.236068.299352 1.745356z"/></g></g></g></g><rect height="32" mask="url(#a)" rx="2" width="43.335938"/></g></svg>