<svg height="32" viewBox="0 0 43 32" width="43" xmlns="http://www.w3.org/2000/svg" xmlns:xlink="http://www.w3.org/1999/xlink"><mask id="a" fill="#fff"><path d="m0 0h43.335938v32h-43.335938z" fill="#fff" fill-rule="evenodd"/></mask><mask id="b" fill="#fff"><path d="m0 0h42.666667v32h-42.666667z" fill="#fff" fill-rule="evenodd"/></mask><g fill="none" fill-rule="evenodd"><g fill-rule="evenodd" mask="url(#a)"><g mask="url(#b)" transform="translate(.3346)"><path d="m29.3333333 0h13.3333334v32h-13.3333334z" fill="#2e42a5"/><path d="m13.3333333 0h16v32h-16z" fill="#feca00"/><path d="m0 0h13.3333333v32h-13.3333333z" fill="#2e42a5"/><path d="m24.815972 20.8903674c.1671772-1.1462709.8431061-2.9651277 2.0277867-5.4565703l.8241173-2.1928135-3.266276 1.0598381.7729667.4022649-1.512616 4.2646165-1.14262-.2727588v-8.2249359l.903896-.0659931-2.2294-3.2419867-2.176776 3.3079798h1.0503v8.2249359l-1.287024.2152242-.9179774-4.3130028.5299174-.4442327-3.5536947-.655149 1.0609547 1.9576875c.951944 2.2369949 1.6062182 4.0486268 1.9628226 5.4348959l2.2050014-.1698959v3.1961578h2.45198v-3.1961578z" fill="#000"/></g></g><rect height="32" mask="url(#a)" rx="2" width="43.335938"/></g></svg>