<svg height="32" viewBox="0 0 43 32" width="43" xmlns="http://www.w3.org/2000/svg" xmlns:xlink="http://www.w3.org/1999/xlink"><mask id="a" fill="#fff"><path d="m0 0h43.335938v32h-43.335938z" fill="#fff" fill-rule="evenodd"/></mask><mask id="b" fill="#fff"><path d="m0 0h42.666667v32h-42.666667z" fill="#fff" fill-rule="evenodd"/></mask><g fill="none" fill-rule="evenodd"><g fill-rule="evenodd" mask="url(#a)"><g mask="url(#b)" transform="translate(.3346)"><rect fill="#5eaa22" height="32" rx="2.666667" width="42.666667"/><path d="m21.3333333 15c.9148148 0 1.8296297.2888889 2.6.8666667l13.3333334 10c1.0911586.818369 1.7333333 2.1027183 1.7333333 3.4666666 0 1.196617-.4850249 2.2799503-1.2692039 3.0641294-.7841791.7841791-1.8675125 1.269204-3.0641294 1.269204h-26.6666667c-1.36394831 0-2.64829768-.6421747-3.46666667-1.7333334-.71797017-.9572935-.97995029-2.1149751-.82311447-3.2128258.15683582-1.0978508.73248757-2.1358707 1.68978114-2.8538408l13.3333333-10c.7703704-.5777778 1.6851852-.8666667 2.6-.8666667zm13.3333334-16.66666667c1.1966169 0 2.2799503.48502486 3.0641294 1.26920395.784179.7841791 1.2692039 1.86751243 1.2692039 3.06412939 0 1.36394831-.6421747 2.64829767-1.7333333 3.46666666l-13.3333334 9.99999997c-.7703703.5777778-1.6851852.8666667-2.6.8666667s-1.8296296-.2888889-2.6-.8666667l-13.3333333-9.99999997c-.95729357-.71797017-1.53294532-1.75599005-1.68978114-2.85384079-.15683582-1.09785073.1051443-2.25553231.82311447-3.21282587.81836899-1.09115865 2.10271836-1.73333334 3.46666667-1.73333334z" fill="#dd2c2b" fill-rule="nonzero" stroke="#fff" stroke-width="3.333333"/><circle cx="21.333333" cy="16" fill="#fff" r="8"/><g fill="#dd2c2b" stroke="#5eaa22" stroke-width=".333333"><path d="m21.3333333 14.0533331-1.3333333.7894011.0169747-1.5494011-1.350308-.76 1.350308-.76-.0169747-1.5494011 1.3333333.7894011 1.3333334-.7894011-.0169748 1.5494011 1.3503081.76-1.3503081.76.0169748 1.5494011z" transform="matrix(.8660254 .5 -.5 .8660254 9.12477 -8.987506)"/><path d="m17.9999997 19.5199997-1.3333333.7894011.0169747-1.5494011-1.350308-.76 1.350308-.76-.0169747-1.549401 1.3333333.789401 1.3333334-.789401-.0169747 1.549401 1.350308.76-1.350308.76.0169747 1.5494011z" transform="matrix(.8660254 .5 -.5 .8660254 11.411543 -6.588457)"/><path d="m24.6666664 19.5199997-1.3333333.7894011.0169747-1.5494011-1.3503081-.76 1.3503081-.76-.0169747-1.549401 1.3333333.789401 1.3333333-.789401-.0169747 1.549401 1.3503081.76-1.3503081.76.0169747 1.5494011z" transform="matrix(.8660254 .5 -.5 .8660254 12.304711 -9.921807)"/></g></g></g><rect height="32" mask="url(#a)" rx="2" width="43.335938"/></g></svg>