<svg height="32" viewBox="0 0 43 32" width="43" xmlns="http://www.w3.org/2000/svg" xmlns:xlink="http://www.w3.org/1999/xlink"><defs><path id="a" d="m0 0h42.666667v32h-42.666667z"/><ellipse id="b" cx="2.472103" cy="2.78607" rx="2.472103" ry="2.78607"/><mask id="c" fill="#fff"><path d="m0 0h43.335938v32h-43.335938z" fill="#fff" fill-rule="evenodd"/></mask><mask id="d" fill="#fff"><path d="m0 0h42.666667v32h-42.666667z" fill="#fff" fill-rule="evenodd"/></mask><mask id="e" fill="#fff"><use fill="#fff" fill-rule="evenodd" xlink:href="#a"/></mask><mask id="f" fill="#fff"><use fill="#fff" fill-rule="evenodd" xlink:href="#b"/></mask></defs><g fill="none" fill-rule="evenodd"><g fill-rule="evenodd" mask="url(#c)"><g mask="url(#d)" transform="translate(.3346)"><use fill="#feca00" xlink:href="#a"/><path d="m0 0h42.666667v10.666667h-42.666667z" fill="#db501c" mask="url(#e)"/><path d="m0 21.333333h42.666667v10.666667h-42.666667z" fill="#5eaa22" mask="url(#e)"/><g mask="url(#e)"><g transform="translate(13.3333 9.3333)"><g fill-rule="evenodd"><g fill="none" transform="translate(0 2.7861)"><g fill-rule="nonzero"><path d="m3.26141865 1.15934509.04845382-.04700509 9.62618323 9.2596476-.0484538.0470051z" fill="#864c26"/><path d="m13.6284353 9.7703726-.0415645.05280334-11.19882985-8.2260468.04156451-.05280334z" fill="#864c26"/><path d="m13.8642741 8.94945244-.0337103.05779187-12.45726565-6.78072254.03371031-.05779187z" fill="#a05a2c"/><path d="m0 1.45936982 1.07276622.35867184-.30834821.35867184zm1.02325513.09667062.15313919.13929314c.24334851.22134621.32017721.40578644.21560903.54981882-.10213458.14068033-.31480056.16810705-.63299173.09002092l-.12930345-.03173189.12909631-.03250938c.10614864-.02673064.19344449-.06349922.26217853-.11012481l-.05638196-.00043613c-.06717287 0-.12167326-.04425969-.16503174-.12765303l-.04055077.04644637-.48971771-.45955996.6872583.22977998-.00255913.00156214.04322526.00944867c.03498219.0085997.07201288.01878759.11110175.03056169.0298158.00898093.05287752.02325435.06933968.04233098.00390112-.05865611-.01429345-.12461518-.05507439-.19814304zm-.0188-.82037848 1.0374237.45080473-.04868613.04508423c.02478987.00890829.05052318.0186883.07720336.02933965.0289196.01154537.05064955.02777443.06538643.04821324.00912582-.05808306-.00323883-.12544985-.03749941-.20234918l-.08334918-.18708073.14041625.15211005c.2231309.24171314.28359222.43214758.16686871.56651816-.11400702.13124338-.32825414.14003068-.63842885.0345095l-.12604579-.04288068.13143844-.02113419c.10836291-.01742384.19872392-.04655279.27135933-.08717959l-.05680595-.00486419c-.0484523-.00423903-.08826377-.03101461-.12018279-.07843893l-.08010958.07858533zm1.13126696-.70543498.94338149.62410272-.05348449.03550788c.02174042.01249131.04417902.02590017.06731875.04022674.02605517.01613162.04446521.03552135.05549308.05775688.01976139-.05522323.01923308-.12357193-.00110137-.20504304l-.04959669-.19871199.11186938.17418218c.177768.27678725.20424218.47482756.06595875.58688792-.13506517.10945239-.34758329.08090257-.63472218-.07687678l-.11668473-.06411685.13311151.00201093c.10889876.00164515.20234204-.0111386.28056054-.03810491l-.05344641-.01494929c-.04576911-.01226379-.07974742-.04416821-.10291953-.09411437l-.09302921.06198871z" fill="#e7e7e7"/></g><g transform="translate(1.2361 .199)"><path d="m3.39245098 9.29918071 1.11289959-1.98500269 1.56124512.42038876-1.12354654 1.81169659h-.43769858v.19760135z" fill="#925229"/><path d="m2.91529638 1.66646329-.73664707.76556397-.26803547 5.05890152 2.65445213.38697045c-.77114631-.67704416-1.213555-1.22448169-1.32722606-1.64231259-.1705066-.62674634-.22490204-2.96651957.09764149-3.32226693.16795388.09805718.25193082.14708576.25193082.14708576l.2027159-.60194194" fill="#ffe000"/><path d="m.34958877 2.01144032c-.19017755 2.63347332-.28526632 4.18146389-.28526632 4.64397173 0 .69376174.58900232 2.34575674 1.93165731 2.34575674 1.342655 0 3.1850047-.73912769 3.1850047-1.04058822 0-.20097369-.18334528-.37344407-.55003582-.51741115-1.64612821.11256268-2.46919232-.15002312-2.46919232-.78775737 0-.95660139.16774741-3.78821982.31432227-4.12210014.09771658-.22258688.31593649-.50170895.65465975-.83736619l-.96898202-.72008923-.16577656.72008923-.62132424-.21138138-.18953937 1.04874757z" fill="#d52c1e"/><path d="m3.79929856 2.4497836-.1784831.55870971-.36065492-.15216924c-.35942535 1.68549628-.35942535 2.88128136 0 3.58735524.35942535.70607387.99175911 1.0847288 1.89700127 1.13596478l-.57367773-4.57115078z" fill="#027934"/><path d="m3.7200752 5.86593833-1.29398155 1.02331581c-.23658024.33910766-.23658024.63702139 0 .89374117.35487035.38507967 1.33883287.77769086 1.5709699.3128418.15475801-.30989938.46201051-.64634662.92175751-1.00934172z" fill="#e8a30c"/><ellipse cx="4.518085" cy="1.754605" fill="#e1e5e8" rx="1" ry="1" transform="matrix(.75470958 -.65605903 .65605903 .75470958 -.042875 3.394527)"/><path d="m3.94173294.08601801c-.0844933-.01730123-.14585469-.02884908-.18408418-.03464357-.40928932-.06203649-.61393398.0214253-.61393398.25038536 0 .39155841.26089216.81437669.26089216 1.11013084 0 .29575414.01265897.75606809.13811692.52591112.08363863-.15343799.33817337-.46076908.76360421-.92199329l-.36459513-.60010396c.603383.06786473.7726164.02988316.50770019-.11394471" fill="#d52c1e"/></g><g transform="translate(6.4549 8.0929)"><path d="m.45529451.12569027.64764619.20327899c.32535682.6296557.16230149 1.28167108-.46530841 1.9291949-.12131335.09252817-.19461445.12852-.21990329.10797547-.03540713-.02876457-.05314999-.13872005-.05322857-.32986641.27313186-.74270651-.04442573-1.39658797.09079408-1.91058295z" fill="#d52c1e" transform="matrix(-.95105652 -.30901699 -.30901699 .95105652 1.976761 .313088)"/><path d="m.64529743.31247262.24407929-.11346764c.24058043.49975216.12001151 1.01725102-.34406564 1.53118495l-.20196344-.17611288c.20196344-.58947959.20196344-.83365116.30194979-1.24160443z" fill="#ffe000"/><path d="m.33361909.29648948.25466035-.07452117c.12246827.41850944.06131107.85033553-.1791924 1.28848848l-.23260276-.12767635c.20793281-.37881523.25888468-.73858229.15713481-1.08629096z" fill="#027934" fill-rule="nonzero"/></g></g><g fill="none" transform="matrix(-1 0 0 1 16 2.7861)"><g fill-rule="nonzero"><path d="m3.26141865 1.15934509.04845382-.04700509 9.62618323 9.2596476-.0484538.0470051z" fill="#864c26"/><path d="m13.6284353 9.7703726-.0415645.05280334-11.19882985-8.2260468.04156451-.05280334z" fill="#864c26"/><path d="m13.8642741 8.94945244-.0337103.05779187-12.45726565-6.78072254.03371031-.05779187z" fill="#a05a2c"/><path d="m0 1.45936982 1.07276622.35867184-.30834821.35867184zm1.02325513.09667062.15313919.13929314c.24334851.22134621.32017721.40578644.21560903.54981882-.10213458.14068033-.31480056.16810705-.63299173.09002092l-.12930345-.03173189.12909631-.03250938c.10614864-.02673064.19344449-.06349922.26217853-.11012481l-.05638196-.00043613c-.06717287 0-.12167326-.04425969-.16503174-.12765303l-.04055077.04644637-.48971771-.45955996.6872583.22977998-.00255913.00156214.04322526.00944867c.03498219.0085997.07201288.01878759.11110175.03056169.0298158.00898093.05287752.02325435.06933968.04233098.00390112-.05865611-.01429345-.12461518-.05507439-.19814304zm-.0188-.82037848 1.0374237.45080473-.04868613.04508423c.02478987.00890829.05052318.0186883.07720336.02933965.0289196.01154537.05064955.02777443.06538643.04821324.00912582-.05808306-.00323883-.12544985-.03749941-.20234918l-.08334918-.18708073.14041625.15211005c.2231309.24171314.28359222.43214758.16686871.56651816-.11400702.13124338-.32825414.14003068-.63842885.0345095l-.12604579-.04288068.13143844-.02113419c.10836291-.01742384.19872392-.04655279.27135933-.08717959l-.05680595-.00486419c-.0484523-.00423903-.08826377-.03101461-.12018279-.07843893l-.08010958.07858533zm1.13126696-.70543498.94338149.62410272-.05348449.03550788c.02174042.01249131.04417902.02590017.06731875.04022674.02605517.01613162.04446521.03552135.05549308.05775688.01976139-.05522323.01923308-.12357193-.00110137-.20504304l-.04959669-.19871199.11186938.17418218c.177768.27678725.20424218.47482756.06595875.58688792-.13506517.10945239-.34758329.08090257-.63472218-.07687678l-.11668473-.06411685.13311151.00201093c.10889876.00164515.20234204-.0111386.28056054-.03810491l-.05344641-.01494929c-.04576911-.01226379-.07974742-.04416821-.10291953-.09411437l-.09302921.06198871z" fill="#e7e7e7"/></g><g transform="translate(1.2361 1.1277)"><path d="m3.39245098 8.37049082 1.11289959-1.98500269 1.56124512.42038877-1.12354654 1.81169659h-.43769858v.19760134z" fill="#925229"/><path d="m2.91529638.73777341-.73664707.76556397-.26803547 5.05890152 2.65445213.38697044c-.77114631-.67704416-1.213555-1.22448169-1.32722606-1.64231258-.1705066-.62674634-.22490204-2.96651957.09764149-3.32226693.16795388.09805717.25193082.14708576.25193082.14708576l.2027159-.60194194" fill="#ffe000"/><path d="m.34958877 1.08275044c-.19017755 2.63347332-.28526632 4.18146389-.28526632 4.64397172 0 .69376175.58900232 2.34575675 1.93165731 2.34575675 1.342655 0 3.1850047-.7391277 3.1850047-1.04058823 0-.20097368-.18334528-.37344406-.55003582-.51741114-1.64612821.11256267-2.46919232-.15002312-2.46919232-.78775738 0-.95660138.16774741-3.78821982.31432227-4.12210014.09771658-.22258688.31593649-.50170894.65465975-.83736618l-.96898202-.72008923-.16577656.72008923-.62132424-.21138138-.18953937 1.04874756z" fill="#d52c1e"/><path d="m3.79929856 1.52109372-.1784831.5587097-.36065492-.15216923c-.35942535 1.68549628-.35942535 2.88128136 0 3.58735523.35942535.70607388.99175911 1.08472881 1.89700127 1.13596478l-.57367773-4.57115078z" fill="#027934"/><path d="m3.7200752 4.93724844-1.29398155 1.02331582c-.23658024.33910766-.23658024.63702138 0 .89374116.35487035.38507967 1.33883287.77769087 1.5709699.3128418.15475801-.30989937.46201051-.64634661.92175751-1.00934172z" fill="#e8a30c"/><ellipse cx="4.518085" cy=".825915" fill="#e1e5e8" rx="1" ry="1" transform="matrix(.75470958 -.65605903 .65605903 .75470958 .566407 3.166726)"/></g><g transform="translate(6.4549 8.0929)"><path d="m.45529451.12569027.64764619.20327899c.32535682.6296557.16230149 1.28167108-.46530841 1.9291949-.12131335.09252817-.19461445.12852-.21990329.10797547-.03540713-.02876457-.05314999-.13872005-.05322857-.32986641.27313186-.74270651-.04442573-1.39658797.09079408-1.91058295z" fill="#d52c1e" transform="matrix(-.95105652 -.30901699 -.30901699 .95105652 1.976761 .313088)"/><path d="m.64529743.31247262.24407929-.11346764c.24058043.49975216.12001151 1.01725102-.34406564 1.53118495l-.20196344-.17611288c.20196344-.58947959.20196344-.83365116.30194979-1.24160443z" fill="#ffe000"/><path d="m.33361909.29648948.25466035-.07452117c.12246827.41850944.06131107.85033553-.1791924 1.28848848l-.23260276-.12767635c.20793281-.37881523.25888468-.73858229.15713481-1.08629096z" fill="#027934" fill-rule="nonzero"/></g></g><g fill="none" transform="translate(4.7382 4.2454)"><path d="m3.22746781 6.30182421c1.36530479 0 2.47210301-1.24736587 2.47210301-2.78606965s-1.10679822-2.78606965-2.47210301-2.78606965-2.472103 1.24736587-2.472103 2.78606965 1.10679821 2.78606965 2.472103 2.78606965zm0 .72968491c-1.81054478 0-3.22746781-1.59687773-3.22746781-3.51575456s1.41692303-3.51575456 3.22746781-3.51575456c1.81054479 0 3.22746781 1.59687773 3.22746781 3.51575456s-1.41692302 3.51575456-3.22746781 3.51575456z" fill="#00a6de" fill-rule="nonzero"/><g transform="translate(.7554 .7297)"><use fill="#ffc036" xlink:href="#b"/><path d="m2.472103 2.28855721-.32088855.66159113.00804534-.73056803-.58626654.46157797.33538577-.65484698-.73552726.17014366.59629893-.44942545-.73910777-.15498971.73910777-.1549897-.59629893-.44942546.73552726.17014366-.33538577-.65484698.58626654.46157798-.00804534-.73056803.32088855.66159112.32088856-.66159112-.00804534.73056803.58626654-.46157798-.33538577.65484698.73552726-.17014366-.59629893.44942546.73910777.1549897-.73910777.15498971.59629893.44942545-.73552726-.17014366.33538577.65484698-.58626654-.46157797.00804534.73056803z" fill="#d52c1e" mask="url(#f)"/><path d="m-.10535383 2.94627143c1.28886766-.90750847 2.09160849-1.36126271 2.40822249-1.36126271.47492099 0 2.50094316 1.36871325 2.91541967 1.55489583.27631766.12412172.27631766 1.4031855 0 3.83719136h-5.4838494z" fill="#027934" mask="url(#f)"/></g><path d="m.75490778 2.12153822-.11919516-.06590472c.67421977-1.13789142 1.54589887-1.71129339 2.61428027-1.711184 1.1891885.0660537 2.07998195.7152672 2.66612678 1.9389043l-.12464155.05571503c-.56584946-1.18126846-1.41355468-1.79907909-2.54542722-1.86205874-1.01096113 0-1.83977583.5452052-2.49114312 1.64452813zm-.37722538 1.90499578-.22199614.14922676.07831722-.25006674-.21551839-.15783952.27039885-.00532298.08879846-.24677696.08879846.24677696.27039885.00532298-.21551838.15783952.07831722.25006674zm.27467812.99502487-.22199615.14922677.07831722-.25006674-.21551839-.15783953.27039886-.00532298.08879846-.24677695.08879845.24677695.27039886.00532298-.21551839.15783953.07831722.25006674zm.54935622.7960199-.22199615.14922677.07831722-.25006674-.21551838-.15783953.27039885-.00532298.08879846-.24677695.08879846.24677695.27039885.00532298-.21551839.15783953.07831722.25006674zm.82403433.66334992-.22199614.14922676.07831722-.25006673-.21551839-.15783953.27039885-.00532298.08879846-.24677696.08879846.24677696.27039885.00532298-.21551838.15783953.07831722.25006673zm1.16738198.33167496-.22199615.14922676.07831722-.25006674-.21551838-.15783952.27039885-.00532298.08879846-.24677696.08879846.24677696.27039885.00532298-.21551839.15783952.07831722.25006674zm2.88412017-2.78606965.22199615.14922676-.07831723-.25006674.21551839-.15783952-.27039885-.00532298-.08879846-.24677696-.08879846.24677696-.27039885.00532298.21551838.15783952-.07831722.25006674zm-.27467811.99502487.22199614.14922677-.07831722-.25006674.21551839-.15783953-.27039885-.00532298-.08879846-.24677695-.08879846.24677695-.27039885.00532298.21551838.15783953-.07831722.25006674zm-.54935623.7960199.22199615.14922677-.07831722-.25006674.21551838-.15783953-.27039885-.00532298-.08879846-.24677695-.08879845.24677695-.27039886.00532298.21551839.15783953-.07831722.25006674zm-.82403433.66334992.22199615.14922676-.07831723-.25006673.21551839-.15783953-.27039885-.00532298-.08879846-.24677696-.08879846.24677696-.27039885.00532298.21551839.15783953-.07831723.25006673z" fill="#ffc036" fill-rule="nonzero"/></g><g fill="none" transform="translate(3.5708)"><path d="m2.67367592.00932458.26500004.19282328c-.67926871.60945596-.8069111 1.28907875-.67685282 1.87294308.13549561.6082739.73781243 1.25713306 1.83285117 1.92343858l-.40258795.6174106c-1.25041986-.7608513-1.97053543-1.46488067-2.15729865-2.30330777-.19220055-.86283666.27963087-1.53236176 1.13888821-2.30330777z" fill="#036a2d" fill-rule="nonzero"/><path d="m6.03848278.00932458.26500005.19282328c-.67926872.60945596-.8069111 1.28907875-.67685282 1.87294308.13549561.6082739.73781243 1.25713306 1.83285116 1.92343858l-.40258795.6174106c-1.25041985-.7608513-1.97053542-1.46488067-2.15729864-2.30330777-.19220056-.86283666.27963087-1.53236176 1.1388882-2.30330777z" fill="#036a2d" fill-rule="nonzero" transform="matrix(-1 0 0 1 12.3164 0)"/><path d="m.12930661 2.48201387c.77283995-.53433347 1.34260542-.80150021 1.7092964-.80150021.55003648 0 1.28417295-.18359108 1.39927737.23809343.11510441.4216845.33265428.29956039.75869991.29956039h1.26321438c-.16666247-.35843588-.09554309-.53765382.21335815-.53765382.46335187 0 2.39858156.27380744 2.98273857.53765382.38943801.1758976.59393767.31583822.613499.41982188-.36037547-.20796732-.73992104-.25995915-1.13863671-.15597549-.59807349.15597549-1.68272094.84272115-2.17683997.84272115-.32941269 0-.62593441.17695038-.88956517.53085115.02174102-.18140451-.11745177-.22675564-.41757837-.13605339-.45018988.13605339-.43962677.77696201-.82425828.65929203s.11082887-1.05408979 0-1.05408979c-.07388592 0-.37258733-.10259357-.89610423-.3077807-.50797963-.46061062-1.13913971-.63892411-1.89348024-.53494045-.75434052.10398366-.9888808.10398366-.70362081 0z" fill="#452c24"/><ellipse cx="4.257511" cy="2.686567" fill="#e7e7e7" rx="1" ry="1"/><path d="m3.36748812 2.67621388c.08880841-.16796114.22123857-.25194171.39729048-.25194171.26407787 0 .75920291 0 .75920291.12597085 0 .12597086.03973744.29053067-.35973274.29053067-.39947017 0-.14352422-.16455981-.39947017-.16455981-.17063063 0-.30306079 0-.39729048 0z" fill="#e8a30c"/></g><path d="m11.6484467 4.377853c.1023337-.10716903.182088-.29070613.239263-.55061129-.4570084.07315569-.7387195.07315569-.8451331 0s-.1872018-.21692956-.2423647-.43132162c-.4117939.18815319-.539166.28222979-.3821165.28222979.1570494 0 .2844216.06957889.3821165.20873667l.4792803.17658595c-.2121454.209587-.2651817.3143805-.159109.3143805.159109 0 .374563.16075356.5280635 0z" fill="#e1e5e8"/></g><path d="m10.4409943 4.51177626-.0863048-.10312474.6022464-.47140878.0863048.10312474z" fill="#925229" fill-rule="nonzero"/></g></g></g></g><rect height="32" mask="url(#c)" rx="2" width="43.335938"/></g></svg>