<svg height="32" viewBox="0 0 43 32" width="43" xmlns="http://www.w3.org/2000/svg" xmlns:xlink="http://www.w3.org/1999/xlink"><defs><path id="a" d="m0 0h42.666667v32h-42.666667z"/><path id="b" d="m.03969614.05694289h11.85166576v11.98648881c-.2452802 1.1001018-1.1283886 2.0133435-2.64932541 2.7397249s-2.61310597 1.0895722-3.27650749 1.0895722c-2.42261361-.5952435-3.88437075-1.1715903-4.38527143-1.7290406-.75135101-.8361753-1.54056143-1.1454082-1.54056143-2.6070502 0-.9744279 0-4.800993 0-11.47969511z"/><path id="c" d="m4.43144012.14547741c0-.25066477 1.52922029.82285663 2.40048726.82285663.3127625 0 .51981705-.05530059.62116367-.16590178l.02760549-.03889311.00001117.49165886c0 .26078543.14773711.64641711.04029194.71437671l-.04029194.0104152c-.17876189 0-.97938642.5630399-.97938642 1.21155962 0 .43234648.32646214.82612883.97938642 1.18134703-.43252022 1.52213118-.83795516 2.39946032-1.2163048 2.63198741-.56752447.34879065-.7543861-.34879064-.7543861 0 0 .34879065-.49195224.8407806-1.07857669 1.03496547-.36664028.12136554-.27498021.21540665-.15467637.3201373l.07218231.06442525c.04583003.04421082.08249406.0913484.08249406.14384565 0 .13999268-.24142639.06999634-.72427917-.20998901l.07553559.04227051-.04970484.02888279c-.39905189.21982321-.59857783.26610178-.59857783.13883571 0-.20998901.58662445-.33422334 0-.5284082-.58662446-.19418487-1.07857669-.68617482-1.07857669-1.03496547 0-.34879064-.18686163.34879065-.7543861 0-.37834964-.23252709-.78378458-1.10985623-1.2163048-2.63198741.65292428-.3552182.97938642-.74900055.97938642-1.18134703 0-.64851972-.80062453-1.21155962-.97938642-1.21155962-.1787619 0 0-.43792794 0-.72479191l-.00044974-.49165886.0280664.03889311c.10134662.11060119.30840117.16590178.62116367.16590178.87126697 0 2.40048726-1.0735214 2.40048726-.82285663 0 .21187142.21296692.06557925.53624165.01522376.01194841-.00987743.02394948-.01522376.03650543-.01522376.02595355 0 .05143208.00092959.07639719.00261894l.0751349-.00261894c.0121972 0 .02387079.00504519.03502076.01513556.32390152.04985354.53772632.19716216.53772632-.01513556z"/><path id="d" d="m0 0h24v18.666667h-24z"/><mask id="e" fill="#fff"><path d="m0 0h43.335938v32h-43.335938z" fill="#fff" fill-rule="evenodd"/></mask><mask id="f" fill="#fff"><path d="m0 0h42.666667v32h-42.666667z" fill="#fff" fill-rule="evenodd"/></mask><mask id="g" fill="#fff"><use fill="#fff" fill-rule="evenodd" xlink:href="#a"/></mask><mask id="h" fill="#fff"><use fill="#fff" fill-rule="evenodd" xlink:href="#b"/></mask><mask id="i" fill="#fff"><use fill="#fff" fill-rule="evenodd" xlink:href="#c"/></mask><mask id="j" fill="#fff"><use fill="#fff" fill-rule="evenodd" xlink:href="#d"/></mask></defs><g fill="none" fill-rule="evenodd"><g fill-rule="evenodd" mask="url(#e)"><g mask="url(#f)" transform="translate(.3346)"><use fill="#af0100" xlink:href="#a"/><g mask="url(#g)"><g transform="translate(28 14.6667)"><g fill-rule="evenodd"><use fill="#fff" xlink:href="#b"/><path d="m6.00836194.63434879-.00406636.2098936c.04575341.03967441.09759386.05951161.15552135.05951161.17514716-.10374005.26272074-.15561008.26272074-.15561008-.04028431.22920977-.03397752.34057427.01892036.33409349.16330157-.1079335.2773241-.13276058.34206757-.07448126-.19011123.21777311-.17071379.32737445.05819233.32880403.28771517-.04629465.41912209-.00264472.39422075.13094979-.21564092.39589912-.27815026.60640518-.18752801.63151818.35599603-.01045978.53399404-.01568967.53399404-.01568967-.23856412.20750394-.35464624.35491775-.34824636.44224143.1187817.0933041.17817256.13995615.17817256.13995615.0666518-.1640208.12804407-.1789242.1841768-.0447102.00728422.24372003-.0077264.36558005-.04503186.36558005-.31650297.10128594-.47475446.15192891-.47475446.15192891-.02045633.11917955.02587878.17876932.13900532.17876932.26188293-.11084031.3965596-.10998256.40403001.00257325-.03455934.13018734-.0594374.25023655-.0746342.36014764-.01666295.39873446-.02623949.61529242-.02872962.64967388.02071232-.01493914.13067383.09490047.32988453.32951883.50261138.31765329.79998454.43991836.89211949.3667952.13820242-.10968474.10270056-.63519936.67854979-.45650152.57584924.17869785.71600649.22158533.57085733.45650152-.09676613.15661079-.32891873.42148865-.69645781.79463358l-.47800095 1.91742788h1.02386385c.30886967 0 .59267507.11976329.64709727.37580156.0544223.25603828.06863.75381899.06863.81318242 0 .05936342-.0704801.2802697.2125224.2802697.3264868.04217269.4559156.0751484.3882863.09892713-.2313962-.04462681-.3478972.03488181-.349503.23852588-.0889001.02618519-.1118349.1650215-.0688045.41650894.1794991.55086587.2096948.76950867.0905873.65592827-.2440331-.286393-.3660496-.490597-.3660496-.6126119-.174193.0686676-.2585899.1927554-.2531908.3722633-.1649306.2205847-.2448825.2230507-.23985569.0073981.27929059-.529851.34090399-.73474595.18484009-.61468482-.20223612.43752382-.316631.62310752-.34318467.55675102l-1.1253077-.3043224-.42867536 1.8863701c.07612362.2359527.21901541.353929.42867536.353929.31448992 0 .53179481-.3386324.73367018 0s.29165982.3703334.39163752.3703334c.09997771 0 .21671147.1298061.15834458.3284824-.05836687.1986763-.3206338.3481034-.43530795.3481034s.16469791.2649732-.17339011.2649732c-.33808801 0-.33868145-.0808429-.67495422-.0808429-.33627278 0-.65125142.032237-.65125142-.1841303 0-.2163674-.30356359-.4038214-.51563221-.5661863-.14137909-.1082432-.36627074-.773988-.67467497-1.9972343l-.87505565-5.51094198-.02671906-1.29031853-.02550965 1.29031853-.87505565 5.51094198c-.30840422 1.2232463-.53329588 1.8889911-.67467496 1.9972343-.21206863.1623649-.51563222.3498189-.51563222.5661863 0 .2163673-.31497864.1841303-.65125141.1841303-.33627278 0-.33686622.0808429-.67495423.0808429s-.05871596-.2649732-.17339011-.2649732c-.11467414 0-.37694107-.1494271-.43530795-.3481034-.05836687-.1986763.05836688-.3284824.15834458-.3284824s.18976215-.031701.39163752-.3703334.41918026 0 .73367019 0c.20965995 0 .35255173-.1179763.42867535-.353929l-.42867535-1.8863701-1.12530771.3043224c-.02655367.0663565-.14094855-.1192272-.34318464-.55675102-.15606389-.12006113-.09445054.08483382.18484006.61468482.00502682.2156526-.07492509.2131866-.23985572-.0073981.00539916-.1795079-.07899775-.3035957-.25319075-.3722633 0 .1220149-.12201655.3262189-.36604965.6126119-.11910752.1135804-.08891174-.1050624.09058734-.65592827.04303044-.25148744.02009561-.39032375-.06880449-.41650894-.00160579-.20364407-.11810681-.28315269-.34950306-.23852588-.06762924-.02377873.06179953-.05675444.38828631-.09892713.28300253 0 .21252244-.22090628.21252244-.2802697 0-.05936343.01420773-.55714414.06862995-.81318242.05442222-.25603827.33822764-.37580156.64709731-.37580156h1.02386385l-.47800095-1.91742788c-.36753907-.37314493-.59969168-.63802279-.69645781-.79463358-.14514919-.23491619-.0049919-.27780367.57085733-.45650152.57584924-.17869784.54034738.34681678.6785498.45650152.09213494.07312316.38950811-.04914191.89211948-.3667952.1992107-.23461836.30917221-.34445797.32988454-.32951883-.00249014-.03438146-.01206668-.25093942-.02872963-.64967388-.0151968-.10991109-.04007486-.2299603-.07463419-.36014764.0074704-.11255581.14214707-.11341356.40403001-.00257325.11312654 0 .15946164-.05958977.13900531-.17876932 0 0-.15825149-.05064297-.47475446-.15192891-.03730546 0-.05231608-.12186002-.04503186-.36558005.05613274-.134214.117525-.1193106.18417681.0447102 0 0 .05939085-.04665205.17817255-.13995615.00639988-.08732368-.10968224-.23473749-.34824636-.44224143 0 0 .17799802.00522989.53399405.01568967.09062224-.025113.02811291-.23561906-.18752802-.63151818-.02490133-.13359451.10650558-.17724444.39422075-.13094979.22890612-.00142958.24830356-.11103092.05819233-.32880403.06474347-.05827932.178766-.03345224.34206757.07448126.05289789.00648078.05920467-.10488372.01892036-.33409349 0 0 .08757358.05187003.26272074.15561008.05792749 0 .10976794-.0198372.15552135-.05951161l-.00406636-.2098936c.02000092.05271943.04237605.09770143.06712542.134946l.03213696-.05262774z" fill="#cf142b" mask="url(#h)"/><g fill="none" mask="url(#h)"><g transform="translate(-1.3333 4)"><path d="m1.19379845 12.4285714v-4.85714283l.43604651.42857143c-.06585216-.51638501.03521544-.34488145.15469483-.14597244l.05591091.09134508c.03742449.0589873.07442904.11094906.10668752.13664498.08728047.06952442.0475831-.52349386.11875325-.51058905.08806191-.14037096.15911259-.18399991.21315203-.13088685.03367243.03309518.04964791.50481286.09905178.6414759.01992154.05510779.06120245.02776858.1238427-.08201762-.00316811-.41494133.02702421-.65364363.09057697-.71610691s.09849523.17623902.1048274.71610691c.09742093-.39995123.19526946-.58643732.29354558-.55945828.0488913.01342178.0514526.61058944.10656008.73132288.03710916.08130144.09914888-.16247286.18611916-.73132288.02583784.4659501.08219821.70972439.1690811.73132288.04271881.0106196.07904661-.43343575.13736335-.53003013.04019314-.0665749.1550316.03038399.34451537.29087665l.19872925-.80640291.5489143.44512036h5.1627907l.54891426-.44512036.1987293.80640291c.1894838-.26049266.3043222-.35745155.3445154-.29087665.0583167.09659438.0946445.54064973.1373633.53003013.0868829-.02159849.1432433-.26537278.1690811-.73132288.0869703.56885002.14901.81262432.1861192.73132288.0551075-.12073344.0576688-.7179011.1065601-.73132288.0982761-.02697904.1961246.15950705.2935455.55945828.0063322-.53986789.0412747-.77857019.1048274-.71610691.0635528.06246328.0937451.30116558.090577.71610691.0626403.1097862.1039212.13712541.1238427.08201762.0494039-.13666304.0653794-.60838072.0990518-.6414759.0540394-.05311306.1250901-.00948411.213152.13088685.0711702-.01290481.0314728.58011347.1187533.51058905.0322584-.02569592.069263-.07765768.1066875-.13664498l.0559109-.09134508c.1194794-.19890901.220547-.37041257.1546948.14597244l.4360465-.42857143v4.85714283z" fill="#5dc852" fill-rule="evenodd"/><g fill="none" fill-rule="evenodd" transform="translate(3.4264 .8571)"><use fill="#4abce6" xlink:href="#c"/><path d="m-.13953488 3c1.94363332-.20704954 3.48608812-.31057431 4.62736441-.31057431 1.71191442 0 .79137434.10537532 1.44937315.17920432.43866587.04921933.87820296.09300933 1.31861127.13136999v5.85714286h-7.39534883z" fill="#fff" mask="url(#i)"/><path d="m.55336317 2.17307129c-.15879154-.31120646.08400049-.52247429.72837607-.63380351.96656338-.16699383 1.26567034-.23727003 1.63196053.19826674.3662902.43553677 1.11079711 2.31085725.55539856 2.81473763-.55539856.50388038-.94236489 1.03411433-1.16210691.84972715-.21974203-.18438719.25028543-.84972715-.91182148-.84972715-.77473794 0-1.29444273 0-1.55911435 0z" fill="#ffda3a" mask="url(#i)"/><path d="m5.45000601 2.62589852-2.08380789.63889981c.12590903.94824879.0097094 1.42237319-.34859889 1.42237319-.35830828 0-.61379534-1.02630754-.76646116-3.07892262-.14801246 0-.2220187 0-.2220187 0l.70807052 3.38607278-.48605182.31457123 1.48842462.66157532 2.52334854-1.28329671z" fill="#b35a1f" mask="url(#i)"/></g><path d="m10.258284 1.96833404c-.25987738 0-.5747529-.08297006-.95627955-.23601714-.14607505-.05859711-.29898922-.12623452-.47161713-.20742182-.0846036-.03978927-.61202373-.29708154-.72386155-.34622401-.05331757-.02342818-.09741657-.04108921-.13207601-.05302891-.03515911.08276026-.10910286.13124182-.20972144.13124182-.04104393 0-.08395916-.00716673-.14174857-.02133549-.02811954-.00689433-.13278904-.03517391-.14656211-.03874893-.06671011-.01731571-.12169217-.02935406-.17736603-.0379588l-.04049244-.00625837c-.01816599-.00613538-.02913063-.00557417-.0401458-.0048347-.02927475-.00073947-.04023939-.00130068-.05116136-.00168012l-.04773646.01277319c-.05567385.00860474-.11065591.02064309-.17736603.0379588-.01377306.00357502-.11844256.0318546-.14656211.03874893-.0577894.01416876-.10070463.02133549-.14174857.02133549-.10061857 0-.17456232-.04848156-.20972144-.13124182-.03465943.0119397-.07875843.02960073-.132076.05302891-.11183782.04914247-.63925795.30643474-.72386156.34622401-.17262791.0811873-.32554207.14882471-.47161712.20742182-.38152665.15304708-.69640217.23601714-.95627952.23601714-.20528777 0-.37641972-.0257426-.50924545-.07595752v.21996435c0 .07544655-.00954474.15687943-.02837479.26555127-.00390673.02254644-.0079665.04496938-.013787.07643512-.02729553.14755997-.03582288.2003971-.0371079.24571536.38733745.07027868 1.05865611.76931218 1.05865611 1.34864978 0 .47172173-.32522513.88723527-.95342559 1.25135015.41021607 1.41756983.79537288 2.23837771 1.1226247 2.43950097.1869754.11491182.30887462.10126018.43637903.0067636-.0010022.00074275.11617079-.09843894.15591657-.11485749.08274249-.03418003.17312461.00105546.20956638.08889098.01580273.03808931.02024339.07973766.02024339.14168623 0 .28083952.45715719.72531312.98196862.89903659.31361205.10381209.44598954.25606904.31083944.45185514-.01855418.02687863-.0316801.04280339-.05991343.06923879.07949762-.03603401.17560308-.08559881.28738899-.14857765l.06727131-.03789986.06727132.03789986c.1117859.06297884.20789137.11254364.28738898.14857765-.02823333-.0264354-.04135924-.04236016-.05991342-.06923879-.1351501-.1957861-.00277262-.34804305.31083944-.45185514.52481142-.17372347.98196861-.61819707.98196861-.89903659 0-.06194857.00444066-.10359692.0202434-.14168623.03644177-.08783552.12682389-.12307101.20956638-.08889098.03974578.01641855.15691877.11560024.15591657.11485749.12750441.09449658.24940363.10814822.43637903-.0067636.32725182-.20112326.71240861-1.02193114 1.12262471-2.43950097-.6282005-.36411488-.95342561-.77962842-.95342561-1.25135015 0-.5793376.67131871-1.2783711 1.05865611-1.34864978-.001285-.04531826-.0098124-.09815539-.0371079-.24571536-.0058205-.03146574-.0098803-.05388868-.013787-.07643512-.01883-.10867184-.0283748-.19010472-.0283748-.26555127v-.21996435c-.1328257.05021492-.3039577.07595752-.5092454.07595752zm-3.12167051-.82285159c-.0010323-.00000336-.00206428-.00000504-.00309595-.00000504.003095 0 .00613219-.00014836.00910316-.00043256zm-3.62511063.10780259c-.06034302.15519039-.06034302.27881262 0 .3708667zm7.39556144 0c.060343.15519039.060343.27881262 0 .3708667zm-6.7467811.57219186c.87126697 0 2.40048726-1.0735214 2.40048726-.82285663 0 .21223712.21370275.06507316.53791663.01496386.01109247-.00997591.02270262-.01496386.03483045-.01496386.02573487 0 .0510027.00091399.07576604.0025764.02476335-.00166241.05003117-.0025764.07576605-.0025764.01212783 0 .02373797.00498795.03483044.01496386.32421388.0501093.53791664.19727326.53791664-.01496386 0-.25066477 1.52922029.82285663 2.40048729.82285663.3445388 0 .5607989-.06710839.6487803-.20132516v.48818913c0 .28686397.1787619.72479191 0 .72479191s-.97938642.5630399-.97938642 1.21155962c0 .43234648.32646212.82612882.97938642 1.18134703-.4325202 1.52213118-.8379552 2.39946031-1.2163048 2.63198741-.30446671.18711993-.4993737.07308039-.61464514-.0189853-.10100909-.08171884-.13974096-.1398105-.13974096.0189853 0 .01266395-.00064853.02551668-.00192658.03853708-.0410947.35253401-.51556883.81069884-1.07665011.99642838-.58662445.19418487 0 .3184192 0 .52840821 0 .13246822-.21617104.07691415-.64851313-.16666222-.43234208.24357637-.64851312.29913044-.64851312.16666222 0-.20998901.58662445-.33422334 0-.52840821-.56108129-.18572954-1.03555541-.64389437-1.07581132-.98862558-.00211684-.0208232-.00276537-.03367593-.00276537-.04633988 0-.1587958-.03873187-.10070414-.13448416-.02321206-.12052824.09629245-.31543523.21033199-.61990194.02321206-.37834964-.2325271-.78378458-1.10985623-1.21630481-2.63198741.65292429-.35521821.97938643-.74900055.97938643-1.18134703 0-.64851972-.80062453-1.21155962-.97938643-1.21155962-.17876189 0 0-.43792794 0-.72479191v-.48818913c.0879814.13421677.30424151.20132516.64878034.20132516z" fill="#ffd129" fill-rule="nonzero"/></g></g></g><path d="m.3187659 11.536638c0 .7822774.20090434 1.1750953.76021918 1.7159886.06117388.0591591.29352.2781722.28695358.2719371.12282335.1166266.21765299.2101035.31087637.3080764.03734789.0392507.07352884.0783296.10882366.117609.44662264.4970444 1.86552629 1.0580041 4.21169851 1.636454.61544916-.0119006 1.66622801-.3649591 3.1267232-1.0624743 1.4351141-.6853935 2.2550652-1.5252035 2.4882317-2.5138726v-11.66769902h-11.2935262zm-.27906976-11.47969511h11.85166576v11.98648881c-.2452802 1.1001018-1.1283886 2.0133435-2.64932541 2.7397249s-2.61310597 1.0895722-3.27650749 1.0895722c-2.42261361-.5952435-3.88437075-1.1715903-4.38527143-1.7290406-.75135101-.8361753-1.54056143-1.1454082-1.54056143-2.6070502z" fill="#000" fill-rule="nonzero" mask="url(#h)"/></g></g><g mask="url(#g)"><use fill="#2b409a" xlink:href="#d"/><g mask="url(#j)"><g fill-rule="nonzero"><path d="m1.32764499 3.28505196 5.28126726-2.31626725 21.51092825 17.13103699 2.7857478 3.4420421-5.6475555.7741648-8.7737935-7.382254-7.06200197-4.97391428z" fill="#f7fcff" transform="matrix(1 0 0 -1 -4 20.6181)"/><path d="m2.05065842 2.76731119 2.69056181-1.34416892 25.16402527 21.54362063h-3.7778619z" fill="#f50100" transform="matrix(1 0 0 -1 -4 21.7233)"/><path d="m1.32764499 3.28505196 5.28126726-2.31626725 21.51092825 17.13103699 2.7857478 3.4420421-5.6475555.7741648-8.7737935-7.382254-7.06200197-4.97391428z" fill="#f7fcff" transform="matrix(-1 0 0 -1 28 20.6181)"/><path d="m1.50784817 3.09890547 2.6905618-1.34416891 10.71510273 9.22394324 3.176798 1.030569 13.0833277 10.4993758h-3.7778619l-13.075977-10.2501652-3.4732688-1.2357627z" fill="#f50100" transform="matrix(-1 0 0 -1 28 21.5967)"/></g><path d="m14.3127673-1-.000682 7.99909357 10.6879147.00099999v4.66663544l-10.6879147-.0006666.000682 8.0006043h-4.66675002l-.00001536-8.0006041-10.64600192.0006667v-4.66663537l10.64600192-.001.00001536-7.99909393z" fill="#f50100" stroke="#f7fcff" stroke-width="2"/></g></g></g></g><rect height="32" mask="url(#e)" rx="2" width="43.335938"/></g></svg>