<svg height="32" viewBox="0 0 43 32" width="43" xmlns="http://www.w3.org/2000/svg" xmlns:xlink="http://www.w3.org/1999/xlink"><defs><path id="a" d="m0 0h42.666667v32h-42.666667z"/><mask id="b" fill="#fff"><path d="m0 0h43.335938v32h-43.335938z" fill="#fff" fill-rule="evenodd"/></mask><mask id="c" fill="#fff"><path d="m0 0h42.666667v32h-42.666667z" fill="#fff" fill-rule="evenodd"/></mask><mask id="d" fill="#fff"><use fill="#fff" fill-rule="evenodd" xlink:href="#a"/></mask></defs><g fill="none" fill-rule="evenodd"><g fill-rule="evenodd" mask="url(#b)"><g mask="url(#c)" transform="translate(.3346)"><use fill="#ffd221" xlink:href="#a"/><path d="m-4.0893111 14.1536316 2.67732011-6.1054403 46.43554689 20.3626302-2.6773201 6.1054403z" fill="#313131" fill-rule="nonzero" mask="url(#d)"/><path d="m-4.0229947 7.42601306 2.67619773-6.10593237 48.74479167 21.36458331-2.6761977 6.1059324z" fill="#faf9f9" fill-rule="nonzero" mask="url(#d)"/><g mask="url(#d)"><g transform="translate(8 3.7333)"><g fill="#cf1225" fill-rule="evenodd"><path d="m.19924029 8.90547833c-.21080263 1.04659658.31426888 2.34357957 1.57521454 3.89094897.54016844 2.8853699.54016844 4.6592351 0 5.3215956-.04728848.5131835.37455868.7697753 1.26554148.7697753s1.42947893-.1623323 1.61548837-.4869969c-.26631521-3.5660983-.39947281-5.5260002-.39947281-5.8797059 0-.5305586-2.14267638-1.3701443-2.14267638-2.2966671.01439215-.83213922-.62363958-1.27178921-1.9140952-1.31894997zm26.26887711 0c.2108026 1.04659658-.3142689 2.34357957-1.5752145 3.89094897-.5401685 2.8853699-.5401685 4.6592351 0 5.3215956.0472884.5131835-.3745587.7697753-1.2655415.7697753s-1.4294789-.1623323-1.6154884-.4869969c.2663152-3.5660983.3994728-5.5260002.3994728-5.8797059 0-.5305586 2.1426764-1.3701443 2.1426764-2.2966671-.0143922-.83213922.6236396-1.27178921 1.9140952-1.31894997z"/><path d="m13.4130462.09969536 1.5024677 1.07247295-.9845318.26304536.9845318.85094148-1.2258119-.31051639v.85969105h1.2258119l.4098134 2.01519176-.4743029-.3364486-.4743666.3364486-.4743233-.3364486-.4743462.3364486-.4886206-.3364486-.488597.3364486-.4886416-.3364486-.488576.3364486.6154467-2.01519176h1.1341667v-2.73563445zm.2786093 4.79988635v1.22981033c.331462-.3559771.8701229-.60787143 1.6159826-.75568299 1.1187896-.22171734 2.3836316 1.09002259 3.3657761 1.49484393.654763.26988089 1.1347697.26988089 1.4400203 0 0 .22846559-.2433731.51862352-.7301191.87047378-.2433731.17592514-.5068636.2431754-.7904715.20175079l-.0522788-.01108219.0123341.01142979c.1572305.15463749.1237948.29312585-.1003074.41546509l-.0817624.04018163c-.5329449.23750109-1.2475469.01825272-2.143806-.65774511 1.133002.83297983 1.4583448 1.24946975.9760284 1.24946975s-1.114121-.31599209-1.8954137-.94797627c.9480335.90961536 1.1670307 1.43527637.6569917 1.57698305-.4590351.12753602-1.0020288-.49569721-1.2916959-.91973193l-.0523688-.077076-.0051687.03684595c-.0537795.15717571-.3520111.20311867-.4057906.43106141l-.0083113.07413605c0 .40091253-.1771157.21048879-.1771157.45476452v.31107292l.1771157.26123389c0 .2708997-.0590386.5140104-.1771157.7293321-.1771157.3229824 0 .5781321.1771157 1.1928992.1180771.4098447.0590385.9647619-.1771157 1.6647515h.1771157c-.1180771.0862149-.1771157.3019249-.1771157.64713 0 .5178076.1771157.7607888.5071261 1.4606058.2200069.4665447.1100034.9963913-.3300104 1.5895399.7375624-.3237161 1.0324188-.3237161.8845691 0s-.7278235.6416931-1.7399215.9539311h.2101153l-.1054923-.0333043-.104623.0333043h.2101153c-1.0120979-.312238-1.5920717-.630215-1.7399214-.9539311s.1470067-.3237161.8845691 0c-.4400139-.5931486-.5500173-1.1229952-.3300104-1.5895399.3300104-.699817.5071261-.9427982.5071261-1.4606058 0-.3452051-.0590386-.5609151-.1771157-.64713h.1771157c-.2361543-.6999896-.2951928-1.2549068-.1771157-1.6647515.1771157-.6147671.3542313-.8699168.1771157-1.1928992-.1180772-.2153217-.1771157-.4584324-.1771157-.7293321l.1771157-.26123389v-.31107292c0-.24427573-.1771157-.05385199-.1771157-.45476452 0-.29400253-.3549445-.33230418-.4141019-.50519746l-.0070381-.03784595-.0504994.078076c-.2896671.42403472-.8326608 1.04726795-1.2916959.91973193-.510039-.14170668-.2910418-.66736769.6569916-1.57698305-.7812927.63198418-1.4130972.94797627-1.89541363.94797627-.4823164 0-.15697359-.41648992.97602843-1.24946975-.8962591.67599783-1.6108611.8952462-2.14380601.65774511-.2960805-.13194505-.35677044-.28382729-.18206981-.45564672l.0114647-.01142979-.05140943.01108219c-.28360793.04142461-.54709841-.02582565-.79047145-.20175079-.48674608-.35185026-.73011912-.64200819-.73011912-.87047378.30525054.26988089.7852573.26988089 1.44002029 0 .9821445-.40482134 2.24698643-1.71656127 3.36577603-1.49484393.7458598.14781156 1.2845207.39970589 1.6159826.75568299v-1.22981033z"/><path d="m6.97235135 9.03742933c-1.06101198 1.44321607-1.53247942 2.93583967-1.41440231 4.47787067.17711566 2.3130466 2.06433102 7.694621 7.66302786 7.694621.0481176 0 .0959688-.0013049.143592-.0013049 5.9324593 0 7.6164458-5.9336623 7.6164458-8.0674321 0-1.4348448-.4474147-2.8027631-1.3422441-4.10375467.1045359 1.92533997.1045359 3.29325817 0 4.10375467-.4730037 3.6673345-2.7834212 5.3612505-6.3139794 5.3612505-3.55240508 0-5.75061173-1.7579432-6.35243985-5.3612505-.12972115-.7766755-.12972115-2.1445937 0-4.10375467z"/><path d="m4.08740964 22.6016584c.19259016-.5515514.4072567-.8273271.64399962-.8273271.35511439 0-.67944799-.7179402 0-.9210503.67944799-.20311 1.72498549.8093333 1.72498549-.20311s-.88419068-1.5648146-.23451427-1.5648146c.43311761 0 .87561243-.0646396 1.32748445-.1939189 1.84281029 1.9219292 3.68667187 2.8828938 5.53158467 2.8828938s3.8766549-.896325 6.0952262-2.6889749c.8177092-.207986 1.2265638-.149819 1.2265638.1745012 0 .3243201-.0896931.7312738-.2690795 1.2208608.5729767-.1129683 1.0052113-.1129683 1.2967036 0 .2914924.1129684.2914924.4396619 0 .9800804v.3135325c.7584184-.166993 1.1376276-.1010588 1.1376276.1978025 0 .4482919-.5491343.1922361-1.6620363.320264s-1.5352547.9980742-2.2343822.9980742c-.466085 0-.7493355-.2296046-.8497515-.6888136-1.4443421.7829251-3.0246327 1.1743876-4.7408717 1.1743876-1.7162391 0-3.09271204-.3914625-4.12941898-1.1743876.16189347.8037237-.03132744 1.1194569-.57966274.9471995-.82250295-.2583859-1.66392852-1.8969881-2.65219357-1.5767241-.65884336.2135093-1.20293159.4233509-1.63226467.6295246z"/></g><path d="m8.53501654 17.3676657c.00160279.0001942.00273975.0001865.0032365-.0000353-.00011577.0000517-.0011946.0000635-.0032365.0000353zm-.29088454.2867706c-.06410043.0695817-.11298166.1199958-.16166389.1653421-.06952596.0647618-.13279798.1131332-.19462618.1457518-.21895906.1155158-.37022348-.0133449-.43198099-.2795618-.04012035-.1729461-.05208444-.3954097-.05195333-.7656237.00001472-.041561.00012253-.0756776.00042311-.1485046.00032053-.0776632.00042238-.1101112.00042238-.1511184 0-.1417981-.01146726-.1657981-.01152544-.1657981-.03047271 0-.04085809.005287-.25030069.1248327-.18100479.103314-.30879761.1531149-.4506303.1531149-.22441319 0-.30614309-.160625-.20063762-.3679765.07628629-.1499265.25522584-.3609301.54008577-.6408498l.15117569.1620007c-.2685214.2638646-.43544518.4606992-.49750423.5826648-.03283986.0645407-.04539709.0398617.00688039.0398617.09396955 0 .19391028-.0389469.34438113-.1248327.01907113-.0108854.0825179-.047792.08772182-.0507927.0349017-.0201246.06093005-.0345288.08583864-.0472092.0709972-.0361433.12710683-.055113.1829894-.055113.16318091 0 .23010467.1400658.23010467.3900972 0 .0414346-.00010247.0740812-.00042434.1520683-.00029939.072541-.00040657.1064583-.00042116.1476363-.00012474.3522337.01125101.5637577.0460114.7135986.03351112.1444558.05734882.1647629.11940327.132025.04210666-.0222141.09108391-.0596573.14765567-.1123525.04370634-.0407113.08914022-.08757.14973521-.1533466.27141843-.2946278.27482989-.2980631.36517812-.338398.19979102-.0891943.2926989.0744277.2926989.3837027 0 .4880578.01736429.8573869.06285323 1.1026764.02003902.1080561.04538056.1814002.06402298.2101856.01940853-.0150815.0458575-.0454932.07675504-.0919341.36369411-.5466539 1.16876605-.6261286 1.16876605-.1713319 0 .0869156-.0085672.1105119-.13024174.4084704-.01621372.0397044-.02887127.0715295-.04043611.1019681-.05567209.146529-.07965768.2490254-.07125981.3131997.00654012.0499778.03332641.0704419.13264806.0704419.1203591 0 .2207045-.0987934.3474096-.3212198.018803-.033008.0802184-.1450762.0840872-.1520164.0337465-.0605373.0594037-.1028906.0856771-.1395137.1901145-.2650051.3931592-.1651631.5810537.2789352.0629853.1488691.2422893.5872291.2735085.6605941.0795663.1869799.1341619.2949446.1833537.3595715.0631523.0829677.0974061.0826621.2196358-.0218904.0478281-.0409111.1001305-.0804056.1595484-.1213143.0592796-.0408134.2592338-.1670997.2939351-.1913378.0528646-.0369249.0781221-.0621202.0838292-.0632763-.0079585.0023578-.0552965-.029105-.1677647-.0709489-.3346845-.1245194-.3880217-.3507243-.1188965-.4844935.1640301-.0815315.4579881-.1343906.7228172-.1343906.1669908 0 .2497692.114102.2459992.2831981-.0021749.0975485-.0183688.1698415-.0824577.4104062-.0081005.0304062-.013898.0524294-.0194719.0741024-.0542073.2107756-.0690752.3365067-.043639.4114425.0236487.0696698.1007918.0974565.2983273.0583685.3160419-.062538.4355917-.1601115.4653282-.3023226.0083629-.0399946.0102626-.0750397.0103683-.1536487.0003543-.2634418.0737913-.3802455.3519833-.3802455.2892044 0 .4316474.1276216.5422818.3863083.0075484.0176498.0152164.0361933.0291672.0700874.0435157.1049564.0717818.1528439.1124337.1716542-.00551-.0107973-.0104768-.0206163-.0135417-.0268872-.1693507-.3464923-.0897896-.6598701.4187718-.9854637.1958074-.1253608.7493043-.5294634.8292427-.5503769.1307514-.0342072.2034856.0503812.2256306.1941995.0069125.044892.0111397.1002906.0148418.1840889.001899.0429823.0083408.2259169.0097845.2627284.0156952.4002044.099468.7689708.1948995.885873.0898458-.0722275.1572025-.2413483.2220169-.5072738.1490556-.6115562.3621829-1.1893795.5756074-1.5497615.119607-.2019646.238054-.3357359.3593458-.3903998.1586576-.0715039.3061969-.0040342.4056139.1765089.1582585.2874.4042675.5567489.5820433.6252381.1637019.0630671.2618302-.0711073.2618302-.5700653 0-.5603517.0922863-1.0134946.2471595-1.3681775.0950794-.2177462.1925253-.3558079.2618538-.4237589l.1509725.1622001c-.010156.0099542-.0317731.0351873-.0612256.0769159-.05134.0727386-.1032547.1644275-.1521305.2763602-.1421329.3255059-.2280504.7473769-.2280504 1.2764602 0 .6310199-.2075277.91478-.5572352.7800532-.2356864-.0907995-.5143816-.3959357-.6955169-.7248805-.048174-.0874848-.0809046-.1024525-.1274204-.0814887-.0701009.0315931-.1621762.1355808-.2604486.3015205-.2004869.338536-.406196.8962472-.5503512 1.487698-.1506809.6182246-.372224.8778946-.6016214.5968862-.1354111-.1658766-.2282387-.5745018-.2457451-1.0208888-.0014798-.0377319-.0078925-.2198421-.0097369-.2615897-.002954-.0668626-.0061893-.1126459-.01054-.1461667-.1314449.0857721-.52314.3690835-.7251204.4983963-.4112319.2632809-.4586387.4500084-.3390894.6946067.0083658.0171167.0379132.0740141.0430515.0844175.0193186.0391142.0300567.0671522.0340905.0988929.0158528.1247388-.0736835.1788404-.2023603.1788404-.1926441 0-.2781432-.0965427-.3701881-.3185478-.0142224-.0345437-.0212672-.05158-.0281872-.0677605-.0792563-.185318-.1538481-.2521484-.3421296-.2521484-.1323488 0-.1331959.0013473-.1334042.156256-.0001265.0940603-.0026215.1400847-.0152327.2003964-.0502569.240348-.2426003.3973338-.6376561.4755069-.2919834.0577773-.4799753-.0099368-.5461297-.2048294-.045153-.133022-.0269085-.287307.0387114-.5424584.0057702-.0224364.011717-.0450269.0199728-.076016.0578878-.2172881.0732008-.2856484.0747779-.3563878.0012175-.0546069.0018257-.0537686-.0274771-.0537686-.2345748 0-.4973586.0472534-.627532.1119564-.0252321.0125416-.0355445.0189558-.0412185.0150044.0126598-.0007862.057802.0264233.1393328.0567568.2075052.0772023.3115905.1553915.3130995.2801494.0011925.0985917-.0591418.1654758-.1806753.2503644-.0400467.0279718-.2408331.1547837-.2951452.1921771-.0535439.0368644-.0999103.0718766-.141376.1073455-.2094847.1791885-.3848801.1807532-.5318494-.0123311-.0639828-.0840589-.1247287-.2041858-.2114081-.4078818-.0320252-.0752589-.2114483-.5139103-.2736923-.6610273-.1319836-.3119499-.1449564-.3183289-.2045311-.2352863-.0201588.0280997-.0420611.0642547-.0719718.117911-.0030605.0054903-.0652064.1188913-.0851137.153838-.1633603.2867732-.3111979.4323244-.5361132.4323244-.20221047 0-.32710562-.095417-.34928279-.264889-.01485875-.1135465.01568986-.2440883.08424603-.4245282.0123305-.0324539.02562968-.0658922.04248993-.1071798.09763468-.2390894.11325723-.2821178.11325723-.3217822 0-.1532252-.50260376-.1036094-.76966648.2978018-.11673319.1754569-.242546.2491108-.36739222.164512-.08541628-.0578801-.13380162-.1794867-.16863182-.3673012-.0488846-.2635999-.06670682-.6426687-.06670682-1.1446086 0-.0756574-.00508965-.1307222-.01256737-.1644153-.0371593.0238918-.08631916.076098-.26789079.2731961zm3.8412334 1.7752645c-.0039176-.0026728-.005865-.004229-.0059193-.0044593.00218.0092456.0042215.0147486.0076552.0171399zm3.8658941-.657212c.0008682-.0001264.0016851-.0002896.0024452-.0004885-.0002549.0000667-.0005316.00015-.0008298.0002498z" fill="#f6e017" fill-rule="nonzero"/><path d="m10.4617669 22.4017935-.0013201-.0087684c-.0207271-.1376206-.0419832-.2430846-.0692992-.3227205.1080288.136565.1457243.2871551.09156.4581331-.0073138-.0399363-.0142392-.0821256-.0209407-.1266442zm-.018283.1985686c-.0969524.2615746-.2499051.3482379-.4227351.2174484-.05249726-.0397273-.10351701-.0962906-.17464779-.1877252-.00582325-.0074854-.13985812-.1843815-.18274827-.2377543-.14887978-.1852671-.27711117-.3012745-.4164107-.3606375-.23790187-.1013827-.22754171-.0968916-.29394236-.1293023-.20433843-.0997392-.32092594-.2030252-.43316889-.3963176-.08779167-.1511852-.17280271-.355883-.31683308-.751827l.20477744-.0784404c.1394714.3834113.22097244.5796574.29982578.7154499.08898296.1532367.17236654.227107.33928807.3085827.06128683.0299146.05211861.0259402.28388445.124708.17969518.0765777.33157407.2139784.5012166.4250828.04528366.0563514.18086015.235282.18493435.2405191.0597955.0768637.100886.1224189.1335551.1471413.0177388.0134239.0187633.0143583.0164616.015758.0152123-.0092503.0421739-.0513015.0722421-.1324247.0670276-.1808387.008197-.3209371-.1547582-.4668399-.0232917-.0208543-.20499505-.1602078-.23108517-.1990111-.06213852-.0924173-.00892089-.1861834.08700589-.2116789.04319906-.0114815.10705988-.0157462.20898638-.0157462.3529399 0 .4500164.2073366.5154643.7374886l.0010838.0087827c.0515575.4178489.1037493.532596.2821123.532596.2012261 0 .3237753-.0800905.5377022-.3085544.0232841-.0249177.0232841-.0249177.0468687-.0501008.2726174-.2901675.463539-.3877644.7842494-.2989723.2561843.0709273.3656716.1968983.3914256.392195.0028725.0217827.0042749.037483.0070939.0746398.0124931.164666.041548.1907927.3603189.1907927.2417585 0 .4667415.0128867.7602486.0388471.0152952.0013529.2383774.0217445.2944933.0263681.0955358.0078716.1632971.0116505.2168858.0116505.0381384 0 .0675602-.002051.0876839-.0054963.0082688-.0642433.046118-.1094419.1992842-.282892.0177244-.0200716.0313625-.0357499.0440784-.0507599.0715411-.0844478.1031516-.1409858.1011847-.1500888-.0003667-.0016975-.0644187-.0248288-.2373563-.0248288-.1588539 0-.2383273-.019757-.2526677-.1318107-.011997-.0937424.0421292-.1390414.1621891-.2028976.1375202-.0731429.3881488-.1682177.6888762-.2639709.2894816-.0921724.5950107-.1750818.8275177-.2238297.1256678-.0263478.2279805-.0423851.3025076-.0466151.1420828-.0080645.2265785.0117274.2265785.1396064 0 .0533773.1500371.2366826.2996533.319898.1786505.0993641.3055256.0616406.3930676-.171585.127794-.3404637.3941708-.708195.6537597-.9187365.1392977-.1129784.2675047-.17379.3784153-.1637809.149711.0135108.2279179.1419935.2279179.3361486h-.2185793c0-.0910615-.0122886-.11125-.0284875-.1127119-.0412192-.0037198-.124345.0357087-.2237299.1163155-.2291224.1858315-.4717282.5207471-.5853245.8233859-.1377567.3670058-.4125426.4487071-.7011957.2881604-.1769563-.0984217-.3461154-.2853121-.3979379-.4332973-.0738487.0040602-.1667778.0186266-.2828899.042971-.2248247.0471372-.523507.1281886-.8064974.2182942-.1873697.0596595-.3544057.1190029-.482281.1712006.1560416.0223575.2462771.0803799.2698611.1895309.0235689.1090813-.0295124.2040217-.1496215.3457996-.0138643.0163655-.028421.0330998-.0470672.0542154-.1057631.1197694-.1447749.1710223-.1447749.1730588 0 .1482115-.1126047.1890152-.3041645.1890152-.0607368 0-.1334894-.0040573-.2343799-.0123701-.0572415-.0047164-.2813204-.025199-.2957697-.0264771-.2878009-.0254557-.5071296-.0380185-.7414781-.0380185-.4304222 0-.5566805-.1135342-.5782387-.3976817-.0024917-.0328428-.0036543-.0458592-.0057791-.0619714-.0138687-.1051687-.0599081-.1581395-.2317575-.2057178-.2241762-.0620656-.3468796.0006589-.5699551.2380953-.0230606.0246237-.0230606.0246237-.0466146.0498299-.2518162.2689279-.4178629.3774457-.6953137.3774457-.313817 0-.4166218-.1679055-.4817958-.6020759-.0061232.0235814-.0136787.0475506-.0227128.0719244zm4.0234595-.359347c-.0023057-.0009143-.0045451-.0016216-.0066806-.0021525.0008435.0002097.0017289.0004161.0026558.0006191zm1.8116326-.5015183v.0014735c0-.0003893 0-.0009319 0-.0014735zm-1.8280692 1.2349632c.0019942-.00058.0038418-.0011786.0055417-.0017946-.0005719.0002073-.0012137.0005303-.0019112.0009637z" fill="#f6e017" fill-rule="nonzero"/></g></g></g></g><rect height="32" mask="url(#b)" rx="2" width="43.335938"/></g></svg>