<svg xmlns="http://www.w3.org/2000/svg" width="512" height="512"><g fill="none" fill-rule="evenodd"><path fill="#007934" fill-rule="nonzero" d="M0 0h512v512H0z"/><path fill="#ffe000" fill-rule="nonzero" d="M0 0h512v341H0z"/><path fill="#d52b1e" fill-rule="nonzero" d="M0 0h512v171H0z"/><g stroke="#000" stroke-width=".1"><path fill="#a05a2c" fill-rule="nonzero" d="M308 225 203 329l-1-1 104-104z"/><path fill="#e7e7e7" fill-rule="nonzero" d="m314 218-1 4-2-1v1l-2 1 2 1h2l-3 1h-2l-1-1-1-2 1-3v2l2 1v-1l2-1-2-1 4-2 5-4z"/><path fill="#a05a2c" fill-rule="nonzero" d="m328 238-134 75-1-1 134-76z"/><path fill="#e7e7e7" fill-rule="nonzero" d="m336 233-2 3-2-2-1 2h-2l2 2h2-6l-1-2 1-1 1-3v2l1 1 1-1h2l-2-2h5l6-3z"/><path fill="#a05a2c" fill-rule="nonzero" d="m316 232-120 91-2-1 121-91z"/><path fill="#e7e7e7" fill-rule="nonzero" d="m324 226-2 4-2-2v2h-3l3 1 2 1h-6c-1 1-2-1-1-1v-2l1-3v2l1 2v-2h3l-2-2 4-1 6-3z"/><path fill="#a05a2c" fill-rule="nonzero" d="m204 225 105 104 1-1-105-104z"/><path fill="#e7e7e7" fill-rule="nonzero" d="m198 218 1 4 2-1v1l2 1-2 1h-2l3 1h2l2-1v-2l-1-3v2l-2 1 1-1-3-1 2-1-4-2-5-4z"/><path fill="#a05a2c" fill-rule="nonzero" d="m185 238 134 75 1-1-134-76z"/><path fill="#e7e7e7" fill-rule="nonzero" d="m176 233 2 3 2-2 1 2h2l-2 2h-2 6l1-2-1-1-1-3v2l-1 1-1-1h-2l2-2h-5l-6-3z"/><path fill="#a05a2c" fill-rule="nonzero" d="m196 232 120 91 2-1-121-91z"/><path fill="#e7e7e7" fill-rule="nonzero" d="m188 226 2 4 2-2v2h3l-3 1-2 1h6c1 1 2-1 1-1v-2l-1-3v2l-1 2-1-2h-2l2-2-5-1-5-3z"/><path fill="#00e519" fill-rule="nonzero" d="M235 302c6-3 12-4 18-4-9 7-17 7-18 4z"/><path fill="#ffe533" fill-rule="nonzero" d="M235 302c1 3 9 3 18-4-6 2-12 4-18 4z"/><path stroke-linecap="round" d="M235 302c1 3 9 3 18-4-6 2-12 4-18 4z"/><path d="M235 302c6-3 12-4 18-4-9 7-17 7-18 4z"/><path fill="#a05a2c" fill-rule="nonzero" d="m285 235-27 56c-1 1-2-1-3-1l-4 3c-2 3-1 5-1 5 2 2-1 4-1 4l-4 2-5 10-4 7-11-6 17-20c3-6 8-12 10-12 4-1 5-6 4-7l5-1 20-40c1-1 1 0 2 1l1-2z"/><path fill="#cce5e5" fill-rule="nonzero" d="m286 223 1 1h1l2 1-32 66h-3l22-45 11-20-3-1c-1-1-2-1-1-2l13-23-10 22z"/><path fill="#e7e7e7" fill-rule="nonzero" d="m286 223 1 1h1l2 1-32 66h-3l22-45 11-20-3-1c-1-1-2-1-1-2l13-23-10 22z"/><path d="M244 291c-3 0-5 2-3 5m2-3h-2m16-14-5 11c-3 2-4 8-4 9l-9 14"/><path fill="#cce5e5" fill-rule="nonzero" d="M258 291c-1-1-6-5-11-4l-6 9 8 5 1-1v-2c0-3 2-5 4-5h2z"/><path d="M258 291c-1-1-6-5-11-4l-6 9 8 5 1-1v-2c0-3 2-5 4-5h2z"/><path fill="#cce5e5" fill-rule="nonzero" d="M253 291c-2 0-4 1-5 3z"/><path d="M253 291c-2 0-4 1-5 3m-3 1h1v-1l-1-1-1 1zm2-4h1l1-1h-1z"/><path fill="#cce5e5" fill-rule="nonzero" d="m283 241 1-2-5-2-1 1v1z"/><path d="m283 241 1-2-5-2-1 1v1z"/><path fill="#00e519" fill-rule="nonzero" d="M229 305c4-3 16-4 18-4-9 7-17 7-18 4z"/><path fill="#ffe533" fill-rule="nonzero" d="M229 305c1 3 9 3 18-4-6 2-12 4-18 4z"/><path stroke-linecap="round" d="M229 305c1 3 9 3 18-4-6 2-12 4-18 4z"/><path d="M229 305c6-3 12-4 18-4-9 7-17 7-18 4z"/><path fill="#a05a2c" fill-rule="nonzero" d="m278 237-26 56h-3l-4 3c-2 2-1 4-1 4 2 2-1 4-1 5l-3 2-5 10-4 6-11-5c4-8 16-20 16-21 3-5 8-11 10-11 3-2 5-6 4-7l4-2 19-40c2-1 2 0 2 1l1-2z"/><path d="m278 237-26 56h-3l-4 3c-2 2-1 4-1 4 2 2-1 4-1 5l-3 2-5 10-4 6-11-5c4-8 16-20 16-21 3-5 8-11 10-11 3-2 5-6 4-7l4-2 19-40c2-1 2 0 2 1l1-2z"/><path fill="#cce5e5" fill-rule="nonzero" d="M279 225v1h2l2 1-31 66h-3l21-45 10-20-3-1-1-2 13-23-10 22z"/><path fill="#e7e7e7" fill-rule="nonzero" d="M279 225v1h2l2 1-31 66h-3l21-45 10-20-3-1-1-2 13-23-10 22z"/><path d="M238 293c-3 0-5 2-3 5m2-2-2-1m16-14-5 11c-3 3-4 8-4 9l-8 15"/><path fill="#cce5e5" fill-rule="nonzero" d="M252 293c-2 0-6-4-11-4l-6 9 8 6 1-2v-2c0-2 2-4 4-4l2-1z"/><path d="M252 293c-2 0-6-4-11-4l-6 9 8 6 1-2v-2c0-2 2-4 4-4l2-1z"/><path fill="#cce5e5" fill-rule="nonzero" d="m247 294-5 2z"/><path d="m247 294-5 2m-4 1 2 1v-1l-1-1zm3-4 1 1 1-1-1-1z"/><path fill="#cce5e5" fill-rule="nonzero" d="m276 243 1-2-5-2-1 1v1z"/><path d="m276 243 1-2-5-2-1 1v1z"/><path fill="#00e519" fill-rule="nonzero" d="M278 302c-6-3-12-4-18-4 9 7 17 7 18 4z"/><path fill="#ffe533" fill-rule="nonzero" d="M278 302c-1 3-9 3-18-4z"/><path stroke-linecap="round" d="M278 302c-1 3-9 3-18-4z"/><path d="M278 302c-4-3-17-4-18-4 9 7 17 7 18 4z"/><path fill="#a05a2c" fill-rule="nonzero" d="m227 234 27 56h3l5 3c2 2 1 5 0 5-1 2 2 3 2 4l3 2 5 10 4 7c3 0 11-6 12-6-5-8-17-20-17-21-3-5-8-11-11-11-3-2-5-6-4-7l-4-2-20-40c-2-1-2 0-2 1l-1-2z"/><path fill="#cce5e5" fill-rule="nonzero" d="m226 222-1 1h-1l-2 1 32 66h3l-22-45-10-20 3-1v-2l-13-23 11 22z"/><path fill="#e7e7e7" fill-rule="nonzero" d="m226 222-1 1h-1l-2 1 32 66h3l-22-45-10-20 3-1v-2l-13-23 11 22z"/><path d="M269 290c3 0 5 3 2 5m-1-2 2-1m-16-14c1 6 4 10 5 12l4 8 8 15"/><path fill="#cce5e5" fill-rule="nonzero" d="M255 291c1-1 6-5 10-5l7 9-9 6-1-1c-1-1 1-2 1-2-1-3-2-5-4-5h-3l-2-2z"/><path d="M255 291c1-1 6-5 10-5l7 9-9 6-1-1c-1-1 1-2 1-2-1-3-2-5-4-5h-3l-2-2z"/><path fill="#cce5e5" fill-rule="nonzero" d="m259 291 5 2z"/><path d="m259 291 5 2m4 1-1 1-1-1 2-1zm-3-3h-1v-1l1-1z"/><path fill="#cce5e5" fill-rule="nonzero" d="M229 240v-2l5-2 1 1-1 1z"/><path d="M229 240v-2l5-2 1 1-1 1z"/><path fill="#00e519" fill-rule="nonzero" d="M283 305c-4-3-16-4-17-4 8 7 17 7 17 4z"/><path fill="#ffe533" fill-rule="nonzero" d="M283 305c0 3-9 3-17-4z"/><path stroke-linecap="round" d="M283 305c0 3-9 3-17-4z"/><path d="M283 305c-5-2-11-4-17-4 8 7 17 7 17 4z"/><path fill="#a05a2c" fill-rule="nonzero" d="m234 237 26 56h3l4 3c2 2 1 4 1 5-1 1 2 3 1 4l4 2 5 10 3 7c3 0 11-6 12-6-5-8-17-20-16-21-3-5-9-11-11-11-3-2-4-6-4-7l-4-2-19-40c-2-1-1 0-2 1l-1-2z"/><path d="m234 237 26 56h3l4 3c2 2 1 4 1 5-1 1 2 3 1 4l4 2 5 10 3 7c3 0 11-6 12-6-5-8-17-20-16-21-3-5-9-11-11-11-3-2-4-6-4-7l-4-2-19-40c-2-1-1 0-2 1l-1-2z"/><path fill="#cce5e5" fill-rule="nonzero" d="M233 225v1h-1l-2 1 30 66h3l-21-45-10-20 3-1 1-2-13-23 10 22z"/><path fill="#e7e7e7" fill-rule="nonzero" d="M233 225v1h-1l-2 1 30 66h3l-21-45-10-20 3-1 1-2-13-23 10 22z"/><path d="M274 293c4 0 5 2 3 5m-1-2 2-1m-16-14c1 6 4 10 5 11 2 3 4 8 3 9l9 15"/><path fill="#cce5e5" fill-rule="nonzero" d="M260 293c2 0 7-4 11-4l6 9-8 6-1-2v-2c0-2-2-4-4-4l-2-1z"/><path d="M260 293c2 0 7-4 11-4l6 9-8 6-1-2v-2c0-2-2-4-4-4l-2-1z"/><path fill="#cce5e5" fill-rule="nonzero" d="m265 294 5 2z"/><path d="m265 294 5 2m4 1-1 1-1-1 1-1zm-3-4-1 1-1-1 2-1z"/><path fill="#cce5e5" fill-rule="nonzero" d="M236 243v-2l5-2 1 1-1 1-4 2"/><path d="M236 243v-2l5-2 1 1-1 1-4 2"/><path fill="#a05a2c" fill-rule="nonzero" d="m251 267 38-40-2-1-38 40z"/><path fill="#e7e7e7" d="m288 226-5-2c-1-2 2-4 4-4-1 3 3 4 3 4z"/><path fill="#e7e7e7" fill-rule="nonzero" d="m290 224 3 2c2 1 4-1 5-2 0 0 1 4-2 6s-4 3-7 2c0 0 3-2 2-3l-2-2"/><path fill="#e7e7e7" fill-rule="nonzero" d="m292 224-4 4-1-1 3-4z"/><path fill="#007934" d="m243 310-1 9 2-2c1-1 2-2 2-8l-1-3zm3-22-3 17s1 2 2-1l2-12z"/><path fill="#d52b1e" d="m252 304-2-3v4s2 1 1 4h1v-2l1-3z"/><path fill="#ffe000" d="M242 319s4-3 4-10l1-2s0 2 0 0l1-3s1-1 2 1l-1 10-1 2h-1c-1 1-2 3-5 2zm5-26-2 11 2 3q0 1.5 0 0v-2l1-8z"/><path fill="#ffe000" d="m246 319-1 2 2-1 1-3h-1zm2-12v-3l-1 1v2z"/><path fill="#d52b1e" d="m251 306-1-1-2 12s0 4-2 4c0 0 1 11 4 8l1-6-1-6 1-8z"/><path fill="#d52b1e" d="m253 304 1 1-3 21v-6c-1-4 0-8 1-11z"/><path fill="#f7e214" d="m248 297-1 8s2-3 3 0v-4z"/><path fill="#007934" d="M247 307s-1-6-4-2v3l1 3h2z"/><path fill="#d52b1e" fill-rule="nonzero" d="m222 253-2-14-13-13s-1 10-6 16z"/><path fill="#ffe000" fill-rule="nonzero" d="m223 253 1-11-8-8c0 4-4 9-4 15"/><path fill="#007934" fill-rule="nonzero" d="M230 261c1-4-2-5 2-11l-8-8-2 11 6 5"/><path fill="#d52b1e" fill-rule="nonzero" d="M200 288v-19l3-22-15-10-3 32v23c2 9 3 13 7 17 7 7 21 3 21 3 12-2 19-10 19-10l-10 2c-14-1-20 2-20-12"/><path fill="#f7e214" fill-rule="nonzero" d="M240 297h1l-7 2-8 1c-18 0-16-11-15-29l1-19-13-7c-4 11-2 19-3 25s-2 18 0 24c3 12 13 12 26 10 6 0 10-2 10-2z"/><path fill="#007a3d" fill-rule="nonzero" d="m241 297-7 2-8 1c-14 1-21-8-20-29l3-21 7 4v1l-1 10c0 17 11 30 25 32z"/><path fill="#d52b1e" fill-rule="nonzero" d="M211 283c-2-5 1-14 0-20l2-21-14-10-3 32c-1 8-2 19-1 25 2 11 7 14 8 15 7 6 23 6 25 5 11-4 16-12 16-12l-11 1c-14-1-21 0-22-15"/><path fill="#ffe000" fill-rule="nonzero" d="M251 292h1l-7 2h-8c-19 1-16-11-16-29v-16l-11-8c-4 11-3 17-3 23-1 7-2 19 0 24 3 13 13 12 26 11l10-2z"/><path fill="#007934" fill-rule="nonzero" d="m252 292-7 2-8 1c-14 1-22-8-20-30 0-7 0-8 3-18l11 10c1 0-2 3-1 7 0 17 7 26 21 28l2-14"/><path fill="#e8a30e" fill-rule="nonzero" d="m188 239-1 6v11l1 6h-2v-6l1-11 1-7z"/><path d="m188 239-1 6v11l1 6c-1 1-1 2-2 1v-7l1-11 1-7z"/><path fill="#f7e214" fill-rule="nonzero" d="m188 237-1 10-1 9v5l-3-1 2-5 3-18s-1 4 0 0"/><path fill="#e8a30e" fill-rule="nonzero" d="m188 237-1 10-1 9v5l-3-1 2-5 3-18s-1 4 0 0zm-1 19h-1m0-2h1m0-1h-1m1-2h-1m1-1h-1m0 6-1-1m1-2h-1m1-1h-1m1-3v-1m1-3h-1m0 10-1-1m14-21-1 7v10l1 6c-1 2-1 2-3 1l1-7v-10l1-7s1-2 1 0"/><path d="m199 233-1 7v10l1 6c-1 2-1 2-2 1v-7l1-10z"/><path fill="#e8a30e" fill-rule="nonzero" d="m199 231-2 11v8l-1 5h1-3l2-5 2-18z"/><path d="m199 231-2 11v8l-1 5h-2l2-5 2-18zm-1 19h-1m0-1 1-1m0-1-1 1m1-2h-1m1-2h-1m1-2h-1m1-2h-1m0 10h-1m1-2h-1m1-2h-1m1-1h-1m1-6v1m0 9h-1"/><path fill="#e8a30e" fill-rule="nonzero" d="m207 225 1 9-1 7v4h2l-1-4v-15z"/><path fill="#e8a30e" fill-rule="nonzero" d="m207 225 1 9-1 7v4h2l-1-4v-15zm0 16h1m-1-2h1m-1-1h1m-1-1h1m-1-2h1m-1-1h1m-1 6h1"/><path fill="#005000" fill-rule="nonzero" d="M241 236h1z"/><path fill="#fff" d="M253 274h-1zm-1 1 2-1"/><path fill="#e8a30e" d="M226 303c0 3-7 7-13 0-6-4-5-12 0-13l58-57 4-3 10 9-3 4z"/><path fill="#e7e7e7" stroke-linejoin="round" d="M275 229c3-3 14 6 11 10-3 3-14-6-11-10z"/><path fill="#cccccf" d="M285 238c-2 1-10-5-9-8 2-2 11 6 9 8z"/><path d="M282 243c-5-1-9-5-11-10m-24 48c-6-1-11-6-13-12m10 15q-9-3-12-12m-2 27c-6-2-11-7-13-13m10 16c-6-2-11-7-13-13"/><path stroke-linecap="round" d="m213 304-3 2m15-2c-2 3-5 2-7 2"/><path fill="#e8a30e" fill-rule="nonzero" d="m210 304 1 2 2-2-2-2z"/><path stroke-linecap="round" d="M213 304c-1 1-1 2-2 1m14-2c-2 4-5 3-7 3"/><path fill="#007934" d="m269 310 1 9-2-2c-1-1-2-2-2-8l1-3zm-3-22 3 17s-1 2-2-1l-2-11z"/><path fill="#d52b1e" d="m260 304 2-3v4s-2 1-2 4v-2l-1-3 1-1z"/><path fill="#ffe000" d="M270 319s-4-3-4-10l-1-2s0 2 0 0l-1-3s-1-1-2 1l2 12h1c1 1 2 3 5 2zm-5-26 2 11-2 3q0 1.5 0 0v-2l-1-8z"/><path fill="#ffe000" d="M267 319v2l-2-1-1-3h1l1 2zm-2-12-1-3 1 1z"/><path fill="#d52b1e" d="m261 306 1-1 2 12s0 4 2 4c0 0-1 11-4 8-1 0-2-4-1-6l1-6-2-8z"/><path fill="#d52b1e" d="m259 304-1 1 3 21v-6c1-4 0-8-1-11z"/><path fill="#f7e214" d="m264 297 1 8s-2-3-3 0v-4z"/><path fill="#007934" d="M265 307s1-6 4-2v3l-1 3h-2z"/><path fill="#d52b1e" fill-rule="nonzero" d="m290 253 2-14 12-13s2 10 7 16z"/><path fill="#ffe000" fill-rule="nonzero" d="m289 253-1-11 8-8c0 4 4 9 4 15"/><path fill="#007934" fill-rule="nonzero" d="M282 261c-1-4 2-5-2-11l8-8 2 11-6 5"/><path fill="#d52b1e" fill-rule="nonzero" d="M312 288c2-4-1-13 0-19l-3-22 15-10 3 32v23c-2 9-3 13-7 17-7 7-21 3-21 3-12-2-19-10-19-10l10 2c14-1 20 2 20-12"/><path fill="#f7e214" fill-rule="nonzero" d="M272 297h-1l7 2 8 1c19 0 16-11 16-29l-2-19 13-7c4 11 2 19 3 25s2 18 0 24c-3 12-13 12-26 10l-10-2z"/><path fill="#007a3d" fill-rule="nonzero" d="m271 297 7 2 8 1c14 1 21-8 20-29l-3-21-7 4v1l1 10c0 17-11 30-25 32z"/><path fill="#d52b1e" fill-rule="nonzero" d="M301 283c2-5 0-14 0-20l-2-21 14-10 3 32c1 8 2 19 1 25-2 11-7 14-8 15-7 6-23 6-25 5-11-4-16-12-16-12l12 1c14-1 21 0 21-15"/><path fill="#ffe000" fill-rule="nonzero" d="M261 292h-1l7 2h8c19 1 16-11 16-29v-16l11-8c4 11 3 17 3 23 1 7 2 19 0 24-3 13-13 12-26 11l-10-2z"/><path fill="#007934" fill-rule="nonzero" d="m260 292 7 2 8 1c14 1 22-8 20-30 0-7 0-8-3-18l-11 10s2 3 1 7c0 17-7 26-21 28l-2-14"/><path fill="#f7e214" fill-rule="nonzero" d="m324 239 1 6v11l-1 6h2v-6l-1-11-1-7z"/><path fill="#e8a30e" fill-rule="nonzero" d="m324 239 1 6v11l-1 6c1 1 1 2 2 1v-7l-1-11-1-7z"/><path fill="#f7e214" fill-rule="nonzero" d="m324 237 1 10 1 9v5l3-1-2-5-3-18s1 4 0 0"/><path fill="#e8a30e" fill-rule="nonzero" d="m324 237 1 10 1 9v5l3-1-2-5-3-18s1 4 0 0zm1 19h1m0-2h-1m0-1h1m-1-2h1m-1-1h1m0 6 1-1m-1-2h1m-1-1h1m-1-3v-1m-1-1h1m-1-2h1m0 10 1-1"/><path fill="#f7e214" fill-rule="nonzero" d="m313 233 1 7v10l-1 6c1 2 1 2 2 1v-17l-1-7s-1-2-1 0"/><path fill="#e8a30e" fill-rule="nonzero" d="m313 233 1 7v10l-1 6c1 2 1 2 2 1v-7l-1-10z"/><path fill="#f7e214" fill-rule="nonzero" d="m313 231 2 11v13h3l-2-5-2-18z"/><path fill="#e8a30e" fill-rule="nonzero" d="m305 225-1 9 1 7v4h-2l1-4 1-15zm0 16h-1m1-2h-1m1-1h-1m1-1h-1m1-2h-1m1-1h-1m1 6h-1"/><path fill="#005000" fill-rule="nonzero" d="M271 236h-1z"/><path fill="#fff" d="m261 275-3-1"/><path fill="#d52b1e" fill-rule="nonzero" d="m226 230 2-4 4-1c0 1 0 2-2 3z"/><path fill="#a05a2c" d="m226 229 31 41 2-1-32-42z"/><path fill="#d52b1e" fill-rule="nonzero" d="M225 221s4 0 3-2c0-2-3-2-3-2l-5 1c-1 1-3 3-3 6l3 6v6l3-1c1-1 3-3 3-5l2-4 4-1-2-2z"/><path d="M225 221s4 0 3-2c0-2-3-2-3-2l-5 1c-1 1-3 3-3 6l3 6v6l3-1c1-1 3-3 3-5l2-4 4-1-2-2z"/><path d="M225 221h-2c-1 0-3 1-3 3m11 0-3 1-4 4-4 4m10-10-2 1-1 2"/><path fill="#e8a30e" d="M286 303c0 3 7 7 13 0 6-4 5-12 0-13l-58-57-4-3-10 9 3 4z"/><path fill="#e7e7e7" stroke-linejoin="round" d="M237 229c-3-3-14 6-11 10 3 3 14-6 11-10z"/><path fill="#cccccf" d="M227 238c2 1 10-5 9-8-2-2-11 6-9 8z"/><path fill="#e8a30e" fill-rule="nonzero" d="m303 304-2 2-2-2 2-2 1 2"/><path fill="#007934" d="M277 187c2 3 5 9 5 13 2 8-1 16-7 22-6 5-14 7-18 7l-7 3 1-2 8-2c8-1 16-4 21-13 5-11 2-19-3-28z"/><path fill="#d52b1e" fill-rule="nonzero" d="m279 220-1-1z"/><path fill="#007934" d="m284 219-3 1h-2l-2 1-2 2 3 1 3-1 1-1zm-6 1h-1l-1 1z"/><path fill="#007934" d="m284 219-5 3-5 1 5-1zm-2 4-5 2c-2 0-4-1-5 1 4 3 8 1 10-3z"/><path fill="#007934" d="M278 228c-1-1-9-4-10-1 2 2 7 3 10 1z"/><path fill="#007934" d="m276 230-3-1h-2c-1 0-2-2-6-1 1 4 6 5 11 2zm1-2c-4 1-8 0-10-1h-1c3 2 7 2 11 1zm5-4-12 2h-1c10 0 10-1 13-3z"/><path fill="#007934" d="M276 230c-4 0-5 1-11-1l-2-1h1c8 4 7 2 12 2zm-12-4-1 2h-1z"/><path fill="#d52b1e" fill-rule="nonzero" d="M284 199a1 1 0 1 1-1 2 1 1 0 0 1 1-2z"/><path fill="#007934" d="M279 217c0-3-1 1-3-4l-1-5 4 4z"/><path fill="#007934" d="m275 208 2 4c2 2 2 5 2 5"/><path fill="#007934" d="M276 210c1 2 3 4 3 7 0-3-2-5-3-6zm11 3-3 2-1 1h-2l-2 2s2 2 3 1l4-2z"/><path fill="#007934" d="m278 219 5-2 4-4-4 3z"/><path fill="#007934" d="m288 208-2 2-2 2h-1l-2 3h2c2 0 3-1 4-4z"/><path fill="#d52b1e" fill-rule="nonzero" d="M279 213a1 1 0 1 0 1-1z"/><path fill="#007934" d="M280 215c3-1 7-4 8-7zm9-11-2 2-2 1-1 1-1 2 2 1 2-2 1-2z"/><path fill="#007934" d="m287 207-5 4zm1-6-2 2-1 1-1 1-1 2 2 1 2-2 1-2zm-5-1v1z"/><path fill="#d52b1e" fill-rule="nonzero" d="M279 193v1z"/><path fill="#007934" d="m281 195-2-1zm6 0c-2 3-5 4-3 8 3 3 3-5 3-8z"/><path fill="#007934" d="M284 190c-1 2-3 4-1 8 4 1 2-5 1-9z"/><path fill="#007934" d="M281 186c2 4 3 6 0 8l-1-3z"/><path fill="#007934" d="M278 183c0 3-2 4 1 7 3-2 1-3-1-7z"/><path fill="#007934" d="M277 188c-4 0-2-3-3-6 2 2 5 2 3 6zm2 4c-1-4-4-2-6-4 1 3 3 5 6 5zm2 5c-3 0-6-2-7-5 3 1 6 2 7 5z"/><path fill="#007934" d="m281 201-1-3-4-4c0 3 1 7 5 7z"/><path fill="#007934" d="m282 204-6-6c1 3 0 7 6 6z"/><path fill="#007934" d="M281 209c-5 0-4-5-4-7l3 3z"/><path fill="#007934" d="m281 212-1-2-4-5c-1 2-1 4 1 5zm-5 8c-4-3-2-6-1-9 1 3 4 6 1 9zm2-31-4-7z"/><path fill="#007934" d="m276 221-1-9zm5-8c0-2-4-4-5-8 1 4 5 5 5 8zm1-3v1c-1-4-4-5-5-9 1 4 4 5 5 8zm1-5c-2-2-5-3-7-7l7 8zm0-3-7-8zm-1-5-8-5 8 6zm-2-4c-2-2-5-2-7-5 2 3 4 3 7 5zm7 2c-1 3-2 7-4 9zm-3-5c0 3 0 7-2 9v-1c2-1 2-5 2-8zm-2-4-1 10zm-4-3c1 3 2 6 1 8 1-3 0-5-1-8zm-5 34c2 3 0 6-2 7-2-5 1-4 2-7z"/><path fill="#007934" d="M273 217c1 2-2 4-2 8h-1zm8-22v-2zm2 6-1-1v1z"/><path fill="#d52b1e" fill-rule="nonzero" d="M281 212h-1z"/><path fill="#007934" d="m280 214 1-1h-1z"/><path fill="#d52b1e" fill-rule="nonzero" d="M282 213v1z"/><path fill="#007934" d="m280 215 2-1z"/><path fill="#d52b1e" fill-rule="nonzero" d="M278 219v-1z"/><path fill="#007934" d="m277 220 1-1z"/><path fill="#d52b1e" fill-rule="nonzero" d="M276 218a1 1 0 1 0 1-2 1 1 0 0 0-1 2z"/><path fill="#007934" d="M277 219v1l-1-1zm-13 10-2-1z"/><path fill="#d52b1e" fill-rule="nonzero" d="M264 230v-1z"/><path fill="#007934" d="M270 220a6 6 0 0 1-5 7c-1-5 3-5 5-7z"/><path fill="#007934" d="m270 220-5 8h-1c3-2 5-5 6-8z"/><path fill="#d52b1e" fill-rule="nonzero" d="M264 228v-1z"/><path fill="#007934" d="m262 228 2-1zm3-5-2 3-2 2c-2-3 3-4 4-5zm0 0-5 5zm-30-36c-2 3-5 9-5 13-2 8 1 16 7 22 6 5 14 7 18 7l7 3-1-2-8-2c-8-1-16-4-20-13-6-11-3-19 2-28z"/><path fill="#007934" d="M250 228c-1 0-5 4-8 4l-3-1s-1-1 2-2c2 0 6-2 9-1z"/><path fill="#007934" fill-rule="nonzero" d="m239 231 8-2"/><path fill="#007934" d="m247 223 4 4c2 1 1 2 1 2l-1-1z"/><path fill="#007934" fill-rule="nonzero" d="m252 229-4-5"/><path fill="#007934" d="M235 188c0-1 0-4 2-5l2-1v2z"/><path fill="#007934" fill-rule="nonzero" d="m239 182-3 4"/><path fill="#007934" d="M234 189v-5l1-1v1z"/><path fill="#007934" fill-rule="nonzero" d="m235 183-1 5"/><path fill="#007934" d="m234 189 4-2 1-1h-1z"/><path fill="#007934" fill-rule="nonzero" d="m239 186-4 2"/><path fill="#007934" d="M233 192c0-1-2-4-1-6v-2l1 2z"/><path fill="#007934" fill-rule="nonzero" d="M233 184v6"/><path fill="#007934" d="M232 194c0-1-3-3-2-6v-2l1 2z"/><path fill="#007934" fill-rule="nonzero" d="m230 186 1 6"/><path fill="#007934" d="M231 196c-1-1-3-3-3-5v-2l1 2z"/><path fill="#007934" fill-rule="nonzero" d="m228 190 2 5"/><path fill="#007934" d="m233 192 5-2 1-2-2 1z"/><path fill="#007934" fill-rule="nonzero" d="m239 188-5 3"/><path fill="#007934" d="M232 194s3 0 5-2l1-1h-2z"/><path fill="#007934" fill-rule="nonzero" d="m238 191-4 2"/><path fill="#007934" d="m231 196 5-1 1-2h-1z"/><path fill="#007934" fill-rule="nonzero" d="m237 193-4 3"/><path fill="#007934" d="M231 195v-2 1h-1v-1 1zm0 0 1-1h1-1v1h1v-1 1zm-1 4-3-5v-2l1 2z"/><path fill="#007934" fill-rule="nonzero" d="m227 192 2 6"/><path fill="#007934" d="M230 199s4 0 5-2l1-2-1 1z"/><path fill="#007934" fill-rule="nonzero" d="m236 195-4 4"/><path fill="#007934" d="m230 202 5-3 1-1h-1z"/><path fill="#007934" fill-rule="nonzero" d="m236 198-5 3"/><path fill="#007934" d="M229 202s-3-2-4-5v-2l2 2 3 5z"/><path fill="#007934" fill-rule="nonzero" d="m225 195 3 6"/><path fill="#007934" d="m230 206 5-4v-2l-1 1-5 5z"/><path fill="#007934" fill-rule="nonzero" d="m235 200-4 4"/><path fill="#007934" d="m229 206-4-4-1-2s1-1 2 1z"/><path fill="#007934" fill-rule="nonzero" d="m224 200 4 4"/><path fill="#007934" d="M229 204v-2h-1l1 1v1l-1-1h-1l1 1 1 1"/><path fill="#000" fill-rule="nonzero" d="m227 202 1 1zm2-1-1 2z"/><path fill="#007934" d="m229 204 1-1h1-1v1l1-1h1l-1 1h-1"/><path fill="#000" fill-rule="nonzero" d="m232 202-1 1zm-1 0v1-2z"/><path fill="#007934" d="m230 209-6-4-1-2s1-1 2 1zm0 0 5-4 1-3-2 1c-1 2-4 4-4 6z"/><path fill="#007934" fill-rule="nonzero" d="m236 202-4 6"/><path fill="#007934" d="m231 213 5-5v-3l-1 1z"/><path fill="#007934" fill-rule="nonzero" d="m236 205-3 6"/><path fill="#007934" d="m231 213-7-4-1-3s1-1 2 1z"/><path fill="#007934" fill-rule="nonzero" d="m223 206 6 5"/><path fill="#007934" d="m235 219 3-6v-2l-1 2z"/><path fill="#007934" fill-rule="nonzero" d="m238 211-2 6"/><path fill="#007934" d="M235 219c-1 1-6 0-8-2l-2-2h2z"/><path fill="#007934" d="M233 217c-1 0-5-1-8-4l-1-2 2 1zm0 0c0-1 4-3 4-6v-3l-1 2z"/><path fill="#007934" fill-rule="nonzero" d="m237 208-3 6"/><path fill="#007934" d="m232 215-1-1-1-1 1 1h-2l1 1z"/><path fill="#000" fill-rule="nonzero" d="M229 213a1 1 0 1 1 1 1 1 1 0 1 1-1-1z"/><path fill="#000" fill-rule="nonzero" d="M230 212a1 1 0 1 1 0 1 1 1 0 1 1 0-1z"/><path fill="#007934" d="m232 215 1-1-1-1 1-1v2-1h1l-1 1z"/><path fill="#000" fill-rule="nonzero" d="M234 211a1 1 0 1 0-1 2 1 1 0 0 0 1-2z"/><path fill="#000" fill-rule="nonzero" d="M232 211a1 1 0 1 0 1 2 1 1 0 0 0-1-2z"/><path fill="#007934" d="M237 221c-1 1-5 2-8 0l-2-1h2zm0 0s2-2 2-5l-1-2v2z"/><path fill="#007934" fill-rule="nonzero" d="M238 214c1 2 0 4-1 5"/><path fill="#007934" d="M241 224c-1 1-6 2-9 1l-2-2h2zm0 0v-6l-2-1v2z"/><path fill="#007934" fill-rule="nonzero" d="m239 217 2 5"/><path fill="#007934" d="M238 223h-1l-1-1 1 1h-2l1 1z"/><path fill="#000" fill-rule="nonzero" d="M234 223a1 1 0 1 1 2 0 1 1 0 0 1-2 0z"/><path fill="#000" fill-rule="nonzero" d="M235 221a1 1 0 1 1 1 1 1 1 0 1 1-1-1z"/><path fill="#007934" d="m238 223 1-1-1-1v-1l1 1v1-2 3"/><path fill="#000" fill-rule="nonzero" d="M239 219a1 1 0 1 0 0 1 1 1 0 1 0 0-1zm-2 1a1 1 0 1 0 1 1 1 1 0 1 0-1-1z"/><path fill="#007934" d="M244 226c-1 0-5 3-8 2l-3-1h2c2-1 6-2 8-1z"/><path fill="#007934" fill-rule="nonzero" d="M233 227h8"/><path fill="#007934" d="M246 227h-3l2 1h-2v1l2-1z"/><path fill="#000" fill-rule="nonzero" d="M242 228a1 1 0 1 1 1 1 1 1 0 1 1-1-1zm0-2a1 1 0 1 1 2 1 1 1 0 0 1-2-1z"/><path fill="#007934" d="M245 226s1-4-1-6l-2-1v2z"/><path fill="#007934" fill-rule="nonzero" d="m242 219 2 5"/><path fill="#007934" d="m247 227-1-1-1-1 1 1h1v-1l-1-1h1z"/><path fill="#000" fill-rule="nonzero" d="M245 223a1 1 0 1 0 1 1 1 1 0 1 0-1-1zm-1 2a1 1 0 1 0 1 0 1 1 0 1 0-1 0z"/></g><path fill="#452c25" fill-rule="nonzero" d="m255 223-2 6 5-6 2-1-3-2z"/><path stroke="#000" stroke-width=".2" d="m255 223-2 6 5-6 2-1-3-2z"/><path fill="#452c25" fill-rule="nonzero" d="m246 227-3 7 5-8h-1z"/><path stroke="#000" stroke-width=".1" d="m246 227-3 7 5-8h-1z"/><path fill="#452c25" fill-rule="nonzero" d="m247 226-3 6 5-8h-1z"/><path stroke="#000" stroke-width=".1" d="m247 226-3 6 5-8h-1z"/><path fill="#452c25" fill-rule="nonzero" d="m248 225-4 6 6-8h-1z"/><path stroke="#000" stroke-width=".1" d="m248 225-4 6 6-8h-1z"/><path fill="#452c25" fill-rule="nonzero" d="m249 224-4 5 7-7h-2z"/><path stroke="#000" stroke-width=".1" d="m249 224-4 5 7-7h-2z"/><path fill="#452c25" fill-rule="nonzero" d="m249 222-3 6 5-8h-1z"/><path stroke="#000" stroke-width=".1" d="m249 222-3 6 5-8h-1z"/><path fill="#452c25" fill-rule="nonzero" d="m248 227-3 6 5-8h-1z"/><path stroke="#000" stroke-width=".1" d="m248 227-3 6 5-8h-1z"/><path fill="#452c25" fill-rule="nonzero" d="m250 225-2 5 5-5c2-3-3 0-3 0"/><path stroke="#000" stroke-width=".1" d="m250 225-2 5 5-5c2-3-3 0-3 0"/><path fill="#452c25" fill-rule="nonzero" d="m251 225-2 6 4-6c1-3 0 0 0 0v-3z"/><path stroke="#000" stroke-width=".2" d="m251 225-2 6 4-6c1-3 0 0 0 0v-3z"/><path fill="#452c25" fill-rule="nonzero" d="m249 224-4 6 7-7h-1z"/><path stroke="#000" stroke-width=".1" d="m249 224-4 6 7-7h-1z"/><path fill="#452c25" fill-rule="nonzero" d="m250 225-4 6c1 1 6-7 6-7h-1z"/><path stroke="#000" stroke-width=".1" d="m250 225-4 6c1 1 6-7 6-7h-1z"/><path fill="#452c25" fill-rule="nonzero" d="m250 226-4 5 7-6h-2z"/><path stroke="#000" stroke-width=".1" d="m250 226-4 5 7-6h-2z"/><path fill="#452c25" fill-rule="nonzero" d="m251 219-4 5c1 1 4-2 5-4 2-2-1-1-1-1"/><path stroke="#000" stroke-width=".1" d="m251 219-4 5c1 1 4-2 5-4 2-2-1-1-1-1"/><path fill="#452c25" fill-rule="nonzero" d="m251 224-3 6 4-6 1-2-3 1z"/><path stroke="#000" stroke-width=".1" d="m251 224-3 6 4-6 1-2-3 1z"/><path fill="#452c25" fill-rule="nonzero" d="M251 222s2-5 0 1c-3 6-4 5-4 5l2-5 3-3"/><path stroke="#000" stroke-width=".1" d="M251 222s2-5 0 1c-3 6-4 5-4 5l2-5 3-3"/><path fill="#452c25" fill-rule="nonzero" d="M253 221s3-5 0 1-4 5-4 5l3-4 2-4"/><path stroke="#000" stroke-width=".1" d="M253 221s3-5 0 1-4 5-4 5l3-4 2-4"/><path fill="#452c25" fill-rule="nonzero" stroke="#000" stroke-width=".1" d="m252 219-3 6c0 1 4-2 5-5 1-2-2-1-2-1"/><path fill="#e8a30e" fill-rule="nonzero" d="M291 268c0 14-7 27-17 34-11 7-25 7-35 0-11-7-18-20-18-34 0-22 16-39 35-39s35 17 35 39"/><path stroke="#390" stroke-width=".9" d="M228 268c0-18 13-32 28-32s28 14 28 32"/><path fill="#007934" fill-rule="nonzero" stroke="#eee" stroke-width=".1" d="M221 270c1 21 16 37 35 37s34-16 35-37z"/><path stroke="#000" stroke-width=".4" d="M291 268c0 14-7 27-17 34-11 7-25 7-35 0-11-7-18-20-18-34 0-22 16-39 35-39s35 17 35 39z"/><path fill="#d52b1e" fill-rule="nonzero" stroke="#000" stroke-width=".1" d="m250 240 1 4 1 3-1 1-6-4 4 6h-3l-4-1 3 2 3 1v1l-7 2 7 1-3 2-3 2h4l3-1-4 6 6-4v4l-1 4 2-4 2-2h1l1 7 1-7h1l2 2 2 4-1-4-1-3 1-1 6 4-4-6 3 1h4l-3-2-3-1v-1l7-1-7-2 3-2 3-2h-4l-3 1 4-6-6 4v-4l1-4-2 4-2 2h-1l-1-7-1 7h-1l-2-2z"/><path fill="#000" fill-rule="nonzero" d="M262 253c-2-2-4-2-5-1v4-4c1-2 4-2 5 1"/><path fill="#000" fill-rule="nonzero" d="m260 252-2 1h-1 1zl2 1zm1 1h-3z"/><circle cx="259.4" cy="253.3" r="1" fill="#000" fill-rule="nonzero"/><path fill="#000" fill-rule="nonzero" d="M258 253h3zm3 1h-4zm-3 2a1 1 0 1 1-1 0l-1 1h1a1 1 0 1 0 1-1m1 3-2-1h-1v1h2m0 0h-2zm1 0-3 1zm-9-7h5v4-4c-1-2-4-2-5 1"/><path fill="#000" fill-rule="nonzero" d="m253 252 1 1h1-1l-2-1-2 1 2-1m-1 1h3z"/><circle cx="252.7" cy="253.3" r="1" fill="#000" fill-rule="nonzero" transform="matrix(-1 0 0 1 505 0)"/><path fill="#000" fill-rule="nonzero" d="M254 253h-3zm-3 1h4zm3 2a1 1 0 1 0 1 0l1 1h-1a1 1 0 1 1-1-1m-1 3 2-1h1v1h-1zm1 0h2zm0 0 2 1z"/><path fill="#007934" fill-rule="nonzero" d="m259 276 5-1h5v-1l-2-1-3-2c2 3 8 1 12 1h3l5-1-2-1-3-2-5-3h-2l-5-5-8-5-3-1-6 3-4 3-8 5-10 5c9 0-7 3 31 6"/><path fill="#00a6de" fill-rule="nonzero" stroke="#000" stroke-width=".1" d="M256 228c-19 0-35 18-35 40s16 39 35 39 35-17 35-39-16-40-35-40zm0 9c14 0 26 13 26 31s-12 30-26 30-26-13-26-30 12-31 26-31z"/><path fill="#e8a30e" fill-rule="nonzero" d="M261 285h-1l1-1zm0 0h-1zm-3 9v-6c2-2 4-1 5 0v6zm2-7v8z"/><path fill="#e8a30e" fill-rule="nonzero" d="m261 287-1 8h1zm0-3v1zm0 0v1zm0 1v1l-1-1m0 0 1 1zm0 1 1 1zm0 0 1 1zm2-1h-1zm0 0-1 1zm0 0-1 1zm0 1-1 1zm0 1-1 8zm1-3-1 1zm-1 1v1zm0 0v1zm0 1v1zm-1 0 1 1zm0 1v1zm2-2-1 1zm0 1h-1zm0 0-1 1zm0 1h-1zm-1 0-1 1zm0 0v8zm2-2-1 1zm-1 0v1zm0 1v1zm0 0v1zm-1 0v1zm0 1v1zm2-1h-1zm0 0-1 1zm0 0-1 1zm-1 1h-1zm0 0-1 1zm-4-3 1 1zm1 0-1 1zm0 1v1zm0 0v1zm0 1v1zm0 0v1zm-1-2v1zm0 1 1 1zm0 0 1 1zm0 1 1 1zm0 0 1 1zm0 1 1 8zm-1-3v1zm1 1-1 1v-1m1 0-1 1zm0 1v1zm0 0v1zm0 1v1zm-1-2v1zm0 0v1zm0 1 1 1zm0 0 1 1zm0 1 1 1zm0 1 1 7zm-1-3v1l-1-1m1 0v1zm1 1q-1.5 0 0 0v-1zm0 0v1zm0 0v1zm0 1v1zm-2-2 1 1zm1 1h1zm0 0 1 1zm0 1h1zm1 0v1zm2-3v1zm1 0-1 1zm0 1-1 1zm0 0-1 1zm0 1-1 1zm0 0-1 1zm-1-2v1zm0 1v1zm0 0v1zm0 1v1zm0 0v1zm-1 1 1 8v-8m-1-3v1l-1-1zm0 0v1zm0 1v1zm1 0-1 1zm0 1-1 1zm0 0v1zm-2-1h1zm0 0 1 1zm0 1h1zm1 0v1l-1-1"/><path fill="#e8a30e" fill-rule="nonzero" d="M259 287h1zm-1 1 1 4-1 2h1c1-3 0-5-1-6"/><path fill="#e8a30e" fill-rule="nonzero" d="M259 287v8h1zm-2-2h1zm1 0v1zm0 0v1zm0 1v1zm1 0v1zm0 1v1zm-2-2 1 1zm0 1h1zm0 0 1 1zm1 1h1zm0 0 1 1zm-2-2 1 1zm1 0v1zm0 1v1zm0 0v1zm1 1v1zm0 0v1zm-2-1h1zm0 0 1 1zm1 1h1zm0 0 1 1zm0 1h1zm4-1-1 8h1zm1-3v1zm0 0v1l-1-1m0 1 1 1zm0 0v1zm0 1v1zm0 0v1zm2-1-1 1v-1zm-1 0v1zm0 1h-1zm0 0-1 1zm0 1h-1zm0 0-1 8zm2-2-1 1zm-1 0v1zm-1 0 1 1zm0 1v1zm0 0v1zm0 1v1zm2-2-1 1zm-1 1-1 1zm0 1h-1zm0 0-1 1zm0 1c-2 2-1 4-1 6v-3zm2-2h-1zm-1-1v1zm0 1v1zm-1 0v1zm0 1v1zm0 0v1zm2-1-1 1zm-1 1h-1zm0 0h-1zm0 0-1 1zm-4 4h2-4zm-1 0h-1zm1 0h-1zm1 0h-1zm1 0h-1z"/><path fill="#e7e7e7" fill-rule="nonzero" stroke="#000" stroke-width=".1" d="m252 287 1 3v3h1v1h-1v-1l-1-1v-1l-1-3m-7-2 2 1-1 3v1l1 2 1 1h1l-1-1v-1l-1-1 1-2 1-2-1-2-1-1m-2-1c-3 1-1 4-1 4m10-9 1-1z"/><path fill="#e7e7e7" fill-rule="nonzero" stroke="#000" stroke-width=".1" d="M255 280h1l-1-1v-1h-2l-2 1v4l-5-1-2 1-1 2v1c1 3 2 0 2 0h1s1 2 3 2c4 1 5-1 5-6v-2h2"/><path fill="#e7e7e7" fill-rule="nonzero" stroke="#000" stroke-width=".1" d="m253 279 1-2-1 1m-10 8 1 2-1 1v1l1 2v2h1-1l1-1-1-1v-2h1l1-1 1-1v-1l-1-1m6 2-2 1v3l-1 1v1h1-1v-2l-1-1v-5m6-6h2m-1-1v1z"/><path fill="#e7e7e7" stroke="#000" stroke-width=".1" d="M266 291v3h1v-18h-1v13z"/><path fill="#e7e7e7" stroke="#000" stroke-linejoin="round" stroke-width=".1" d="M266 292h1m-1-1h1m-1-1h1m-1-1h1m-1 0h1m-1-1h1m-1-1h1m-1-1h1m-1-1h1m-1-1h1m-1 0h1m-1-1h1m-1-1h1m-1-1h1m-1-1h1m-1-1h1m-1 0h1m-1-1h1m-1-1h1m-1-1h1m-1 17h1m-1 0h1"/><path fill="#007934" stroke="#e7e7e7" stroke-width=".1" d="M268 274h3-1 2l-1-1h2-1 2-1l3-1c-3-1-6-1-8 1l1-1h-1l1-1h-1l2-1h-1l2-1h-1l2-2c-4 1-6 4-6 6-1-2-3-4-7-4l3 1h-1l2 1h-1l1 1 1 1h-1l2 1c-2-1-6 0-8 3l2-1v1l2-2v1l2-1-1 1 2-1-1 1h1c-2 1-3 4-3 6l1-2v1l1-2v1l1-2v1l2-2 1-1v2l1-1v3l1-1v2l1-1v3c1-4 0-6-2-7l2 1-1-1 2 2v-1l1 1v-1l1 2v-1l2 2c0-3-4-5-7-6z"/><path stroke="#e7e7e7" stroke-linecap="round" stroke-linejoin="round" stroke-width=".1" d="M267 274c3 0 8 3 8 6l-2-2v1l-1-2v1l-1-1-2-1v1l-1-1m-2-2c-2-1-6-1-9 3l2-1v1l2-2-1 1 3-1-1 1 2-1-1 1h1"/><path stroke="#e7e7e7" stroke-linecap="round" stroke-linejoin="round" stroke-width=".1" d="M266 274c0-3-3-5-7-5l3 1h-1l2 1h-1l1 1 1 1h-1l2 1m1 1c-2 1-5 3-5 7l1-2v1l1-2v1l1-2v1l2-2 1-1m-2 0-1 2m0-1-1 2m0-1-1 2m5-4v-1"/><path stroke="#e7e7e7" stroke-linecap="round" stroke-linejoin="round" stroke-width=".1" d="M269 279v1m-1-3v2m-1-3 1 1m5 0v1m-2-2 1 1m-2-2 1 2m-12-1 2-2m0 2 2-2m-1 1 2-1m0 1 2-1m-4-4 2 1m-1 0 2 1m-2 0 3 1m-2 0h2m1 1c2-2 6-3 9-2h-3l1 1h-2 1-2l1 1h-2 1-3m5-2h-2m1 1h-2m1 0h-3m2 1h-2m0 1 1 1m-3-3c0-2 2-5 6-5l-2 1h1l-2 1h1l-2 1h1l-1 1h1l-2 1m3-4-2 1m1 0-2 1m1 0-1 1m1 0-2 1m0 2-1 2m2-3c2 2 4 4 3 8l-1-2v1l-1-2v1-3l-1 1-1-2"/><path fill="#e8a30e" fill-rule="nonzero" stroke="#000" stroke-width=".1" d="m228 249 1 1v-1q1.5 0 0 0v-1h-1q-1.5 0 0 0l-1 1m2 1 2 1h1v-2h-2zm-2-1v-1l1-1h2v1h2l1 1-1 2-1 1v1l-1-1-2-1-2-1v-1m10-11v3l2 1 1-1 1-1-1-1-2-2c-1-1-1 0-1 1m4 0 1 2-2 2-2 1-2-1v-3l1-2 2-1zm9-3v1l2-1 1 1h-1l-3 1-1-2v-2l-1-2h2v2zm9-3v-2h2v2l-1 2v2h-1zm11 5 3-3 1 1-5 4-1-1 1-4v-2l1 1zm9 4 1-1 1 1-1 1-2 2-1 1-1-1 1-1zm5 11 2-1h-2zm-1-1h-2v-1h6v1l-4 4v-1h-1l2-2z"/><path d="m261 299-1 3h-2l2 1-1 3 2-2 2 2v-3l2-1h-3zm10-4-1 2h-2l2 2-1 3 2-2 2 2-1-3 2-1h-2zm15-27-1 3h-2l2 1-1 3 2-2 2 2-1-3 2-1h-2zm-7 20 1 2h2l-2 1 1 3-2-2-2 2 1-3-2-1h2zm5-9 1 2h2l-2 2 1 2-2-1-2 1 1-2-2-2h2zm-33 20 1 3h2l-2 1 1 3-2-2-2 2v-3l-2-1h3zm-10-4 1 2h2l-2 2 1 3-2-2-2 2 1-3-2-1h2zm-15-27 1 3h2l-2 1 1 3-2-2-2 2 1-3-2-1h2zm7 20-1 2h-2l2 1-1 3 2-2 2 2-1-3 2-1h-2zm-5-9-1 2h-2l2 2-1 2 2-1 2 1-1-2 2-2h-2z" style="stroke:#000;stroke-width:.1;fill:#e8a30e;fill-rule:nonzero;stroke-linecap:square;stroke-linejoin:round"/><path fill="#e7e7e7" fill-rule="nonzero" stroke="#000" stroke-width=".1" d="M257 265v-1h-2v1z"/><path fill="#e7e7e7" fill-rule="nonzero" stroke="#000" stroke-width=".1" d="M257 265v-1h-1v-1 1h-1v1zm0 0v1h-2v-1z"/><path fill="#e7e7e7" fill-rule="nonzero" stroke="#000" stroke-width=".1" d="M257 265v1h-2v-1zm-2 0h2m-2 0h2m0 0v-1zm0-1v1zm-2 1v-1zm0-1v1zm1 1v-1zm0-1v1zm0 1v-1zm0-1v1zm1 0v1h-1v-1z"/><path fill="#e7e7e7" fill-rule="nonzero" stroke="#000" stroke-width=".1" d="M257 264v1h-1v-1zm-1 1h1m0-1h-2zm-1-1v1z"/><path fill="#e7e7e7" d="M256 262v1z"/><path fill="#452c25" fill-rule="nonzero" d="M253 224s-3 6-2 7l4-7c1-3 0 0 0 0v-3z"/><path stroke="#000" stroke-width=".2" d="M253 224s-3 6-2 7l4-7c1-3 0 0 0 0v-3z"/><path fill="#452c25" fill-rule="nonzero" d="m254 222-3 6s3-2 3-5c1-2 0 0 0 0l1-4"/><path stroke="#000" stroke-width=".1" d="m254 222-3 6s3-2 3-5c1-2 0 0 0 0l1-4"/><path fill="#452c25" fill-rule="nonzero" d="m257 220-3 7s3-3 3-5l1-4"/><path stroke="#000" stroke-width=".1" d="m257 220-3 7s3-3 3-5l1-4"/><path fill="#452c25" fill-rule="nonzero" d="m295 209 4 2h-1l-14-7-4-2h4z"/><path stroke="#000" stroke-width=".1" d="m295 209 4 2h-1l-14-7-4-2h4z"/><path fill="#452c25" fill-rule="nonzero" d="m297 208 3 2h-1l-14-7c-3-2 0 2 0 2v-2z"/><path stroke="#000" stroke-width=".1" d="m297 208 3 2h-1l-14-7c-3-2 0 2 0 2v-2z"/><path fill="#452c25" fill-rule="nonzero" d="m302 210-5-2-2-1s1 2-5-2l-4-2h2l10 4z"/><path stroke="#000" stroke-width=".1" d="m302 210-5-2-2-1s1 2-5-2l-4-2h2l10 4z"/><path fill="#452c25" fill-rule="nonzero" d="m280 211 2 2s-1 2-6-1l-4-4h2z"/><path stroke="#000" stroke-width=".1" d="m280 211 2 2s-1 2-6-1l-4-4h2z"/><path fill="#452c25" fill-rule="nonzero" d="m274 212 1 4c0 1-3 0-5-3l1-5z"/><path stroke="#000" stroke-width=".1" d="m274 212 1 4c0 1-3 0-5-3l1-5z"/><path fill="#452c25" fill-rule="nonzero" d="m276 211 2 3-6-2c-3-2 0-4 0-4z"/><path stroke="#000" stroke-width=".1" d="m276 211 2 3-6-2c-3-2 0-4 0-4z"/><path fill="#452c25" fill-rule="nonzero" d="M289 209s6 3 1 3c0 0-9-3-14-7l2-1z"/><path stroke="#000" stroke-width=".1" d="M289 209s6 3 1 3c0 0-9-3-14-7l2-1z"/><path fill="#452c25" fill-rule="nonzero" d="m292 209 4 2c1 0-11-2-17-6l3-2z"/><path stroke="#000" stroke-width=".1" d="m292 209 4 2c1 0-11-2-17-6l3-2z"/><path fill="#452c25" fill-rule="nonzero" d="m282 210 2 3c-3 0-6-2-9-4l1-2z"/><path stroke="#000" stroke-width=".1" d="m282 210 2 3c-3 0-6-2-9-4l1-2z"/><path fill="#452c25" fill-rule="nonzero" d="m286 210 2 2s-2 2-11-4h-1l1-2z"/><path stroke="#000" stroke-width=".1" d="m286 210 2 2s-2 2-11-4h-1l1-2z"/><path fill="#452c25" fill-rule="nonzero" d="m277 205 3 3-6-1-2-3 3-1z"/><path stroke="#000" stroke-width=".1" d="m277 205 3 3-6-1-2-3 3-1z"/><path fill="#452c25" fill-rule="nonzero" d="m274 201 5 3 4 3s-4 0-7-2l-5-4"/><path stroke="#000" stroke-width=".1" d="m274 201 5 3 4 3s-4 0-7-2l-5-4"/><path fill="#452c25" fill-rule="nonzero" d="m270 216 1 3-4-3c-1-2 1-1 1-1z"/><path stroke="#000" stroke-width=".1" d="m270 216 1 3-4-3c-1-2 1-1 1-1z"/><path fill="#452c25" fill-rule="nonzero" d="m272 214 1 3s-2 1-4-2 2-2 2-2z"/><path stroke="#000" stroke-width=".1" d="m272 214 1 3s-2 1-4-2 2-2 2-2z"/><path fill="#452c25" fill-rule="nonzero" d="m267 203 5 11c0 1-2 0-4-3l-2-6z"/><path stroke="#000" stroke-width=".1" d="m267 203 5 11c0 1-2 0-4-3l-2-6z"/><path fill="#452c25" fill-rule="nonzero" d="m273 206 4 4-5-3c-2-2 1-2 1-2"/><path stroke="#000" stroke-width=".1" d="M273 206s5 3 4 4-3 0-5-3c-3-2 1-1 1-1z"/><path fill="#452c25" fill-rule="nonzero" d="m271 206 3 6-4-3-2-3"/><path stroke="#000" stroke-width=".1" d="m271 206 3 6-4-3-2-3"/><path fill="#452c25" fill-rule="nonzero" d="M248 217v4c1 0 2 0 2-3v-2z"/><path stroke="#000" stroke-width=".1" d="M248 217v4c1 0 2 0 2-3v-2z"/><path fill="#452c25" fill-rule="nonzero" d="M249 213v5c1 1 2-4 2-5z"/><path stroke="#000" stroke-width=".1" d="M249 213v5c1 1 2-4 2-5z"/><path fill="#452c25" fill-rule="nonzero" d="m250 218 1 4c1 1 2-1 2-2l-1-3z"/><path stroke="#000" stroke-width=".1" d="m250 218 1 4c1 1 2-1 2-2l-1-3z"/><path fill="#452c25" fill-rule="nonzero" stroke="#000" stroke-width=".1" d="M250 214v4c1 1 2-3 2-4z"/><path fill="#452c25" fill-rule="nonzero" d="m250 208-1 3 3-2z"/><path stroke="#000" stroke-width=".1" d="m250 208-1 3 3-2z"/><path fill="#452c25" fill-rule="nonzero" d="m249 207-1 3 2-1c1-1-1-2-1-2"/><path stroke="#000" stroke-width=".1" d="m249 207-1 3 2-1c1-1-1-2-1-2z"/><path fill="#452c25" fill-rule="nonzero" d="m268 204 2 4-3-2c-1-1 1-2 1-2"/><path stroke="#000" stroke-width=".1" d="m268 204 2 4-3-2c-1-1 1-2 1-2z"/><path fill="#452c25" fill-rule="nonzero" stroke="#000" stroke-width=".1" d="M268 212v4l-2-4zm-2 5-1 3-2-2v-1l2-1z"/><path fill="#452c25" fill-rule="nonzero" stroke="#000" stroke-width=".1" d="M268 217v2c-1 1-2 0-3-2 0-2 3-1 3-1z"/><path fill="#452c25" fill-rule="nonzero" stroke="#000" stroke-width=".1" d="m266 208 2 8c-1 1-3-4-4-6-1-3 2-2 2-2z"/><path fill="#452c25" fill-rule="nonzero" stroke="#000" stroke-width=".1" d="M264 209s4 7 2 7c-1 1-4-5-5-6z"/><path fill="#452c25" fill-rule="nonzero" stroke="#000" stroke-width=".1" d="m264 211 1 6-3-7zm7-10 2 5-5-3 3-1z"/><path fill="#452c25" fill-rule="nonzero" stroke="#000" stroke-width=".1" d="M269 202s4 5 2 5l-1-1-3-3zm4 0s2 2 1 3l-4-4zm-7 3 4 9c-1 1-6-6-6-7z"/><path fill="#452c25" fill-rule="nonzero" stroke="#000" stroke-width=".2" d="m264 206 2 4-3-3z"/><path fill="#452c25" fill-rule="nonzero" stroke="#000" stroke-width=".1" d="m267 205 1 3-3-2z"/><path fill="#452c25" fill-rule="nonzero" stroke="#000" stroke-width=".2" d="m261 207 2 4-3-3z"/><path fill="#452c25" fill-rule="nonzero" stroke="#000" stroke-width=".1" d="m274 201 3 3c-1 1-5-2-5-3z"/><path fill="#452c25" fill-rule="nonzero" stroke="#000" stroke-width=".1" d="m272 201 2 2 2 2-4-2-1-2zm8 0 8 5-11-4c-2-1 2-1 2-1"/><path fill="#452c25" fill-rule="nonzero" stroke="#000" stroke-width=".1" d="m280 203 6 4c-1 0-6-1-8-3l-4-3h3zm-17 4 1 3-2-1c-1-1 1-2 1-2zm1 6v4l-2-4z"/><path fill="#452c25" fill-rule="nonzero" stroke="#000" stroke-width=".1" d="m258 207 5-2h1l1-1s0-5 4-4l13 1 7 2 14 6v1l-16-7v1l-4-2h-3l-2-1h-6 1-2l-1 1h-1c-1-1-1 2-2 3l-2 1-1 1-2 1h-3zm5 10v4s-2 0-2-2l1-3z"/><path fill="#452c25" fill-rule="nonzero" stroke="#000" stroke-width=".1" d="m264 215-1-2-1-2-1-2-1-2-2-1h-5l-3 1v7l1 4v1l1 1s0 1 0 0l1 1v1l1 2v-1 1h1v1l1-2 1-1v-1l2 2v1l1-1v1l1 1v-1l1-2 1-1v-3h1l-1-3z"/><path fill="#000" fill-rule="nonzero" d="M261 210v1zm0 1 1 2zm1 1 1 2zm1 2-1 2zm-1 2v1zm-1-2v1zm2 2v1zm0-3v1zm-2 3v1zm-1 0v1z"/><path fill="#452c25" fill-rule="nonzero" d="M246 207v4c1 1 2-2 2-3z"/><path stroke="#000" stroke-width=".1" d="M246 207v4c1 1 2-2 2-3z"/><path fill="#452c25" fill-rule="nonzero" d="m248 207-2 3 3-2z"/><path stroke="#000" stroke-width=".1" d="m248 207-2 3 3-2z"/><path fill="#452c25" fill-rule="nonzero" d="m219 208-4 2c-1 1 11-1 17-5l-3-2z"/><path stroke="#000" stroke-width=".1" d="m219 208-4 2c-1 1 11-1 17-5l-3-2z"/><path fill="#452c25" fill-rule="nonzero" d="M223 208s-7 3-2 3c0 0 9-2 14-6l-1-2z"/><path stroke="#000" stroke-width=".1" d="M223 208s-7 3-2 3c0 0 9-2 14-6l-1-2z"/><path fill="#452c25" fill-rule="nonzero" d="m232 202-6 4 9-3 3-2-3-1z"/><path stroke="#000" stroke-width=".1" d="m232 202-6 4 9-3 3-2-3-1z"/><path fill="#452c25" fill-rule="nonzero" d="m230 209-2 3c1 1 5-1 9-4l-1-2z"/><path stroke="#000" stroke-width=".1" d="m230 209-2 3c1 1 5-1 9-4l-1-2z"/><path fill="#452c25" fill-rule="nonzero" d="m226 209-2 2c1 0 2 2 11-4l1-1-2-2-9 5"/><path stroke="#000" stroke-width=".1" d="m226 209-2 2c1 0 2 2 11-4l1-1-2-2z"/><path fill="#452c25" fill-rule="nonzero" d="m224 202-15 8 19-8m12 12-1 3c1 1 2 1 4-2s-2-3-2-3z"/><path stroke="#000" stroke-width=".1" d="m240 214-1 3c1 1 2 1 4-2s-2-3-2-3z"/><path fill="#452c25" fill-rule="nonzero" d="m242 216-1 2 4-2c2-2-1-1-1-1zm-4-4-2 3s3 0 6-3c2-2 0 0 0 0l-1-2z"/><path stroke="#000" stroke-width=".1" d="m242 216-1 2 4-2c2-2-1-1-1-1zm-4-4-2 3s3 0 6-3c2-2 0 0 0 0l-1-2z"/><path fill="#452c25" fill-rule="nonzero" d="m236 210-2 4s3 0 6-3c2-3 0-4 0-4z"/><path stroke="#000" stroke-width=".1" d="m236 210-2 4s3 0 6-3c2-3 0-4 0-4z"/><path fill="#452c25" fill-rule="nonzero" d="m232 211-2 2s1 1 6-2l5-3-3-1-6 3"/><path stroke="#000" stroke-width=".1" d="m232 210-2 2s1 2 6-1l5-3-3-1z"/><path fill="#452c25" fill-rule="nonzero" d="m216 207-4 2 2 1c6-1 12-4 17-8l-2-1z"/><path stroke="#000" stroke-width=".1" d="m216 207-4 2 2 1c6-1 12-4 17-8l-2-1z"/><path fill="#452c25" fill-rule="nonzero" d="m210 210 7-2 2-1s-2 3 5-2c7-4 0 0 0 0l8-4v-1l-16 7z"/><path stroke="#000" stroke-width=".1" d="m224 205 8-4v-1l-16 7-6 2 7-1 2-1s-1 2 5-2z"/><path fill="#452c25" fill-rule="nonzero" d="M244 215v4l3-3c1-2-3-2-3-2z"/><path stroke="#000" stroke-width=".2" d="M244 215v4l3-3c1-2-3-2-3-2z"/><path fill="#452c25" fill-rule="nonzero" d="M246 217v3l3-2v-1l-2-2z"/><path stroke="#000" stroke-width=".1" d="M246 217v3l3-2v-1l-2-2z"/><path fill="#452c25" fill-rule="nonzero" d="m247 212-1 5 3-4z"/><path stroke="#000" stroke-width=".1" d="m247 212-1 5 3-4z"/><path fill="#452c25" fill-rule="nonzero" d="M247 212v5l2-5z"/><path stroke="#000" stroke-width=".1" d="M247 212v5l2-5z"/><path fill="#452c25" fill-rule="nonzero" d="M248 213v4c1 1 2-4 2-5z"/><path stroke="#000" stroke-width=".1" d="M248 213v4c1 1 2-4 2-5z"/><path fill="#452c25" fill-rule="nonzero" stroke="#000" stroke-width=".1" d="m244 212-1 3c1 1 3-2 3-3zm-9-7-3 2c1 1 5 0 6-1l2-2-3-1z"/><path stroke="#000" stroke-width=".1" d="m238 202-2 2 5-2v-1z"/><path fill="#452c25" fill-rule="nonzero" stroke="#000" stroke-width=".1" d="M240 202s-3 2-2 3l5-4zm-1-1-6 2-4 3s4 0 7-2l5-3m-1 3-5 5 8-4"/><path fill="#452c25" fill-rule="nonzero" stroke="#000" stroke-width=".1" d="m241 205-3 6 4-3 2-3"/><path fill="#452c25" fill-rule="nonzero" stroke="#000" stroke-width=".1" d="m243 206-3 7c1 1 2 0 3-3l1-4z"/><path fill="#452c25" fill-rule="nonzero" stroke="#000" stroke-width=".1" d="M245 206s-4 8-3 9 5-6 5-7c0-2-2-2-2-2m-8-5-3 2 4-2z"/><path fill="#452c25" fill-rule="nonzero" stroke="#000" stroke-width=".1" d="m237 201-2 2c1 1 4-1 5-2zm5 0-2 4c1 1 4-2 4-3z"/><path fill="#452c25" fill-rule="nonzero" stroke="#000" stroke-width=".1" d="m243 202-2 4h1l2-3zm1 1-2 4 3-2c1-1-1-2-1-2zm1 2-1 3 2-1c1-1-1-2-1-2zm0 7v4l2-4z"/><path fill="#452c25" fill-rule="nonzero" stroke="#000" stroke-width=".1" d="M251 207h-1l-3-2c-1 0 0 0 0 0l-1-3s0-2-2-3h-13l-12 5 12-3 3-1s-3 2 0 1h8l2 3 3 3 2 1h1z"/><path fill="#452c25" fill-rule="nonzero" stroke="#000" stroke-width=".1" d="m233 201-9 4 11-4c1-1-2-1-2-1"/><path fill="#000" fill-rule="nonzero" d="M258 208v-1h-1 1zm-7 6v1zm1-7h1zm2 0h1zm-3 7v1z"/><path fill="#bd8759" fill-rule="nonzero" d="m252 228-1 1v1h1l1-1 1-1 1 1h1v-1l-1-1h-1l1-3-1-2v3l-1 2-3 1-1 1v1l1-1h2"/><path stroke="#000" stroke-width=".1" d="m252 228-1 1v1h1l1-1 1-1 1 1h1v-1l-1-1h-1l1-3-1-2v3l-1 2-3 1-1 1v1l1-1h2"/><path fill="#bd8759" fill-rule="nonzero" d="M259 223v4h-2v1h2v1l1 2v-1l1 1v-2l-1-1 2 1h1l-1-1-1-1-1-1v-3z"/><path stroke="#000" stroke-width=".1" d="M259 223v4h-2v1h2v1l1 2v-1l1 1v-2l-1-1 2 1h1l-1-1-1-1-1-1v-3z"/><path fill="#dcddde" fill-rule="nonzero" d="M251 211v-2l2-1 1-1h2l1 1h1v1l1 2v2l-1 2h-1l-1 1v-1h-1l-2 1-1-1v-1l-1-1v-1z"/><path fill="#d9c0b9" fill-rule="nonzero" d="M249 229h1l-1 1z"/><path stroke="#000" stroke-width=".1" d="M249 229h1l-1 1z"/><path fill="#d9c0b9" fill-rule="nonzero" d="M251 230v2l1-2z"/><path stroke="#000" stroke-width=".1" d="M251 230v2l1-2z"/><path fill="#d9c0b9" fill-rule="nonzero" d="m256 229-1-1h1z"/><path stroke="#000" stroke-width=".1" d="m256 229-1-1h1z"/><path fill="#d9c0b9" fill-rule="nonzero" d="M257 228v1z"/><path stroke="#000" stroke-width=".1" d="M257 228v1z"/><path fill="#d9c0b9" fill-rule="nonzero" d="M260 230v1z"/><path stroke="#000" stroke-width=".1" d="M260 230v1z"/><path fill="#d9c0b9" fill-rule="nonzero" d="m262 229 1 1v-1z"/><path stroke="#000" stroke-width=".1" d="m262 229 1 1v-1z"/><path fill="#000" fill-rule="nonzero" d="M260 211v1zm-1-2 1 1zm1 4v1zm2 5v2zm0 1v1zm-11-3 1 1zm2 0h-1zm-1 2v1zm1 1h1l-1-1zm0 1v1zm1 0v1zm0 1v1zm0-4h1l-1-1m0 2h1zm1 1v1zm0 2v1zm1-4v-1zm2-1h1m1 1v1zm1 2-1 1zm-3-2v1zm0 2v1zm-1 1v-1zm-1-1v1zm3 1v1zm2 1-1 1zm2-1v1zm-12-5v2-1z"/><path fill="#fff" fill-rule="nonzero" d="m255 209 3-1zm3 1h-2zm-3 1 1 4zm-1 1v3zm2-1 2 2zm-1 2v2zm1 0 2 2-2-3zm-4 1 1-1zm1-5-1-1zm-1 0h-1 2zm2 0v-2zm2 0h2zm1 2 2 1v-1l-2-1zm-4 2v2l1-2zm3-1v3zm1 0 1 2v-1zm0 1v2zm-1-3 3 1zm-1-1 1-1v-1zm-1 0-1-2zm-1 1-1-2zm-1-1h-1l1 1zm3 3-1 2v1z"/><path fill="#fff" fill-rule="nonzero" d="m255 212 1 2zm1-1 2 1zm-2-1v-2q0-1.5 0 0v1zm-1-1-1-1v1zm0 4-1 1zm1 0-1 1v1zm2-4 2-1zm-5 0v1zm1 4h-1zm0 0h-1v1zm1 0v2zm1 0v2zm2-1 1 2zm0 0 2 2v-1l-2-2zm1-1 1 1h1v1-1l-1-1zm1 2h1zm-2-4 2-1h-2zm-2 0 1-1v-1 1zm-2 5v1zm1 1v1zm1-1v1zm-1-1v1zm0 0h-1v1zm1-1 1 1v-1zm1 0v1zm0 0h1zm0 0h1zm0-2v-1zm0-1v-1zm-1-1 1 1zm-1 1v-1zm0 0h-1zm1 0v-1zm1 0v-1z"/><path fill="#fff" fill-rule="nonzero" d="M254 209v-1l-1 1zm3 3h1l-1-1zm-1 2s0 1 0 0v-1zm-1-1v1s0 1 0 0zm0 0v2-1zm1 1v1zm-2-1v1zm0 0v-1zm1 0v-1zm1-1v1zm0 0h1l-1-1zm-5-2v-1zm3-2v1zm0 1h1v-1zm2 1h-1zm-1 1h1l-1-1z"/><path fill="#fff" fill-rule="nonzero" d="m256 211 1 1v-1zm-2-1v-1zm-3-1h1l1 1-1-1-1-1zm1 1v-1zm0 2-1 1h1zm0 1v1zm1 2v-2c0-1 0 0 0 0zm1-2v1zm0 0v1zm0 0 1 1v-2zm1 0 1 1v-1l-1-1zm1-1v-1zm0-1h1zm0-3v2-1zm-1 1v1-2zm-1 0v1zm0 0h-1l1 1z"/><path fill="#dba05f" fill-rule="nonzero" d="m254 209-2 1h-5l-1 1-1 1 1 1h6l4-1v-2z"/><path stroke="#000" stroke-width=".1" d="m254 209-2 1h-5l-1 1-1 1 1 1h6l4-1v-2z"/><path fill="#000" fill-rule="nonzero" d="M247 211h1zh1z"/><path d="m247 211 1-1m-1 1h1m-1 0h1"/><path fill="#000" fill-rule="nonzero" d="M248 211h-1z"/><path d="M248 211h-1m0 0h1m-1 0v1m0-1v1"/><path fill="#c6262c" fill-rule="nonzero" d="M248 210v-1h-3v1l-1 1h1l1-1z"/><path stroke="#000" stroke-width=".1" d="M248 210v-1h-3v1l-1 1h1l1-1z"/><path fill="#000" fill-rule="nonzero" d="M248 211h-1z"/><path fill="#d9c0b9" fill-rule="nonzero" d="M244 214s-1-2 1-2h1l-2 1z"/><path stroke="#000" stroke-width=".1" d="M244 214s-1-2 1-2h1l-2 1z"/><path fill="#d9c0b9" fill-rule="nonzero" d="M244 213h2v-1l-1 1z"/><path stroke="#000" stroke-width=".1" d="M244 213h2v-1l-1 1z"/><path fill="#dcddde" fill-rule="nonzero" d="m250 208-3-1c-3-1-3-3-3-3l-2-2h-4l-2-1h-2c-3 0 0 0 0 0h-3l-3 1-3 1-7 3-6 2 8-4 11-4h13c2 0 2 3 2 3l1 2v1l3 1h2l1-1h4l2 1 4-2h1l1-1s0-5 5-4l12 1 12 4 5 2 4 3-4-2-3-1-4-2-5-2 1 1-5-1-3-1h-2l-5-1h-1l1 1-2-1-1 1h-1c-1-1-1 2-2 3l-3 1-1 1h-11l-1 1"/><path fill="#e7e7e7" fill-rule="nonzero" stroke="#000" stroke-width=".1" d="m250 208-3-1c-3-1-3-3-3-3l-2-2h-4l-2-1h-2c-3 0 0 0 0 0h-3l-3 1-3 1-7 3-6 2 8-4 11-4h13c2 0 2 3 2 3l1 2v1l3 1h2l1-1h4l2 1 4-2h1l1-1s0-5 5-4l12 1 12 4 5 2 4 3-4-2-3-1-4-2-5-2 1 1-5-1-3-1h-2l-5-1h-1l1 1-2-1-1 1h-1c-1-1-1 2-2 3l-3 1-1 1h-11l-1 1"/><path fill="#452c25" fill-rule="nonzero" d="M250 207v1"/><path fill="#574f4c" fill-rule="nonzero" d="M260 207s0 1 0 0h-1z"/></g></svg>