<svg height="32" viewBox="0 0 43 32" width="43" xmlns="http://www.w3.org/2000/svg" xmlns:xlink="http://www.w3.org/1999/xlink"><mask id="a" fill="#fff"><path d="m0 0h43.335938v32h-43.335938z" fill="#fff" fill-rule="evenodd"/></mask><mask id="b" fill="#fff"><path d="m0 0h42.666667v32h-42.666667z" fill="#fff" fill-rule="evenodd"/></mask><g fill="none" fill-rule="evenodd"><g fill-rule="evenodd" mask="url(#a)"><g mask="url(#b)" transform="translate(.3346)"><path d="m0 0h42.6666667v32h-42.6666667z" fill="#fff"/><path d="m0 14.5777778v-14.5777778h21.3333333z" fill="#feda00"/><path d="m0 32h42.6786697v-32z" fill="#00268d"/><path d="m12.4561196 7.8845795.3672736.78818129c1.4100576.09162187 2.6705977.73109254 3.571602 1.70718251.8936941.9681707 1.4336375 2.267855 1.4142706 3.693811l.6784714.3854498-.7420656.3710843c-.1887982 1.2102467-.7845129 2.2855844-1.6423522 3.0823441-.8578027.7967257-1.9779856 1.3149791-3.2167253 1.4101238l-.4153411.8301988-.4150701-.8301562c-1.2387152-.0950139-2.35890656-.6131169-3.21677145-1.409694-.85784309-.7965569-1.45365115-1.8716551-1.64268278-3.0816762l-.68386596-.3424223.6224744-.3115273c-.04689144-1.4438471.479836-2.7644013 1.36960902-3.7511916.89188181-.98912896 2.14842927-1.64328429 3.55805947-1.74960578z" fill="#fff" stroke="#000" stroke-width="1.056"/><path d="m12.5010602 11.0666667-.8653745 1.4520808h-1.70679681l.85107651 1.5255668-.85107651 1.4633237h1.70679681l.8653745 1.4929788.8785727-1.4929788h1.6914397l-.8302609-1.4633237.8302609-1.5255668h-1.6914397z" fill="#f00a17"/></g></g><rect height="32" mask="url(#a)" rx="2" width="43.335938"/></g></svg>