<svg height="32" viewBox="0 0 43 32" width="43" xmlns="http://www.w3.org/2000/svg" xmlns:xlink="http://www.w3.org/1999/xlink"><mask id="a" fill="#fff"><path d="m0 0h43.335938v32h-43.335938z" fill="#fff" fill-rule="evenodd"/></mask><mask id="b" fill="#fff"><path d="m0 0h42.666667v32h-42.666667z" fill="#fff" fill-rule="evenodd"/></mask><g fill="none" fill-rule="evenodd"><g fill-rule="evenodd" mask="url(#a)"><g mask="url(#b)" transform="translate(.3346)"><path d="m0 0h42.6666667v32h-42.6666667z" fill="#fff"/><path d="m0 15.552v-15.552h21.3333333z" fill="#f00000"/><path d="m21.3333333 15.552v-15.552h21.3333334z" fill="#f00000" transform="matrix(-1 0 0 1 64 0)"/><path d="m0 32v-16.448h21.3333333z" fill="#00268d" transform="matrix(1 0 0 -1 0 47.552)"/><path d="m21.3333333 32.448v-16.896l21.3333334.448z" fill="#00268d" transform="matrix(-1 0 0 -1 64 48)"/><path d="m20.9519757 19.0083571-4.6899304 3.3426877 1.7209795-5.5216898-4.6496915-3.3800282h5.792761l1.8258814-5.4493268 1.9353356 5.4493268h5.6350363l-4.6092047 3.3800282 1.7520277 5.5216898z" fill="#feda00"/></g></g><rect height="32" mask="url(#a)" rx="2" width="43.335938"/></g></svg>