<svg height="32" viewBox="0 0 44 32" width="44" xmlns="http://www.w3.org/2000/svg" xmlns:xlink="http://www.w3.org/1999/xlink"><mask id="a" fill="#fff"><path d="m0 0h43.335938v32h-43.335938z" fill="#fff" fill-rule="evenodd"/></mask><g fill="none" fill-rule="evenodd"><g fill-rule="evenodd" mask="url(#a)"><g transform="translate(-1.3182 -1.3038)"><g fill-rule="nonzero"><g><path d="m1.318174 1.303831h10.833984v10.666667h-10.833984z" fill="#c00"/><path d="m12.152158 2.69049729v-1.38666672h-1.324988l-9.50899633 9.28000033v1.3866663h1.32498407z" fill="#08672f"/><path d="m1.31817367 2.69049715v-1.38666658h1.32498791l9.50899642 9.27999943-.0000007 1.3866672-1.3514861-.0000013z" fill="#08672f"/><g fill="#fff"><path d="m1.31817367 5.31808225 10.83262223-.01425168.0013621 2.65241499-10.8326222.01425168z"/><path d="m5.38091781 1.3051644 2.69402732-.00133383.01446877 10.66533283-2.69402733.0013338z"/></g></g><path d="m1.31817367 11.9704972h10.83398433v10.6666667h-10.83398433z" fill="#fff"/><path d="m9.96089103 17.6102103c-.0682839.0491759-.14097879.0602543-.19443123.0301407-.04154385-.0238093-.04598222-.0095003-.01185521.0380382.01780771.0238093.05786398.049173.0934805.0586909.03415607.0095296.0935079.0317041.13210178.0475532.08904183.0396583.16917903.0396583.23002013 0 .1231973-.079284.046009-.222006-.1187319-.222006-.0474704 0-.0830872.0126868-.13058517.047583zm.35765557.1728622c-.0074163.0174364-.0148326.0649957-.0148326.1078048-.0029776.28385-.1083385.5518486-.30720783.7833716-.04303225.0491467-.07864905.0935461-.07864905.0999097 0 .0158434.22260468.0110932.25229438-.0063724.0267127-.0142502.0296621-.0095296.0385665.0459924.0118801.0761331.0519638.1490561.1009233.1839406.0311782.0222161.0430594.023809.0771873.0047797.0593521-.0301437.0979462-.0951391.1053617-.1776066.0074162-.0618446.0133688-.0729525.0326397-.0618446.0133688.0063434.0801651.0142503.1484211.0174367l.1246589.0063428-.0653071-.0824376c-.1231697-.15542-.1632243-.2140781-.2122116-.3171713-.0682556-.1411315-.096457-.2521195-.1083385-.4202079-.0044666-.0792842-.0148301-.158571-.020785-.1791936-.0148329-.0428121-.0519367-.0459927-.072722-.0047502zm-5.04516774-.7028192c-.01929686.0253727-.04154363.0729525-.04600953.1030929-.00592697.0317012-.02373528.0872115-.03856635.1236863-.03859402.0919555-.03710534.1696786.00443845.2362676.05193641.0840574.13951712.0824671.1810608-.0014763.0385939-.0776936.02820112-.1871209-.02373528-.2695586-.04600956-.0713624-.05193652-.1363877-.02227444-.2109305.01929711-.0428091-.01483099-.0317009-.05491365.0190297zm.1840382.5027048c-.02820112.012657-.05937974.0348848-.06974494.0507338-.08311486.1157619.10536202.2426019.24190161.1649083.14693322-.0856215.15137077-.0872115.22111568-.0618446.0593795.0206226.06232919.0206226.05047565-.0047502-.0237627-.0475827-.06084079-.0697692-.20482377-.1220959-.16471355-.0586906-.17066854-.0586906-.23892423-.026966zm-.56691783.0380356c-.06828374.0491759-.14100579.0602543-.19443082.0301407-.04154368-.0237798-.04600953-.0095003-.01185393.0380677.01780828.0237796.05786337.0491435.09348011.0586611.03412804.0095299.09350759.0317045.13210153.047583.0890418.0396288.16917941.0396288.23002001 0 .12316986-.0792839.04600958-.222006-.11873153-.222006-.04747056 0-.08311486.0126573-.13058537.0475535zm.35765572.1728622c-.00741548.0174364-.01483099.0649957-.01483099.1078343-.00297733.28385-.10833874.5518191-.30720788.7833424-.04303225.0491759-.07867654.0935753-.07867654.0999097 0 .0158431.222632.0111225.25232178-.0063431.02671261-.0142798.02966222-.0095296.03856638.0459628.01188132.0761331.05196404.1490856.1009232.1839701.0311784.0221866.04303231.0237798.0771879.0047502.059352-.0301142.09794615-.0951388.10536191-.1776065.00741633-.0618447.01334385-.0729496.03263983-.0618447.01337127.0063435.08013717.0142798.1484208.0174367l.12465893.0063429-.06530683-.0824377c-.12316997-.155417-.16325225-.2140781-.21221155-.3171418-.0682841-.1411285-.09648531-.2521461-.10833913-.4202374-.00446584-.0792842-.01485865-.158571-.02078562-.1791936-.01483126-.0428121-.05193646-.0459927-.07272208-.0047502zm2.53418961-.719996c-.01929639.0253727-.04154412.0729525-.04600933.1030929-.0059276.0317012-.02373503.0872115-.03859443.1236863-.03856622.0919558-.03710493.1696789.00446659.2362676.05193638.0840577.139489.0824671.18106079-.0014763.03856649-.0776966.02820135-.1871241-.0237627-.2695621-.04600933-.0713592-.05193638-.1363842-.02224608-.210927.01929639-.0428091-.01485746-.0317015-.05491373.0190297zm.1840376.5027048c-.02820107.0126573-.05937922.0348848-.06977203.0507338-.08311508.1157616.10538883.2426019.24190158.1649083.14693268-.0856212.15139899-.0872118.22114308-.0618446.05935238.0206226.06232918.0206226.05044797-.0047502-.02373503-.0475826-.06084078-.0697689-.2047961-.1220959-.16474094-.0586909-.17066799-.0586909-.2389245-.026966zm-.56694453.0380356c-.06825651.0491762-.14097851.0602516-.19440385.0301407-.04157096-.0237798-.04600933-.0095003-.01188259.038068.01780743.0237796.05789082.0491432.09350817.0586611.03412784.0095293.09347967.0317012.13207355.0475827.08904213.0396285.16917958.0396285.23004776 0 .12317025-.0792839.04600961-.2220057-.11873161-.2220057-.04749801 0-.0831148.012657-.13061254.0475532zm.35768266.1728625c-.00741655.0174361-.01485773.0649954-.01485773.107834-.00294997.2838503-.1083388.5518191-.30720813.7833424-.04303197.0491759-.07864877.0935753-.07864877.0999097 0 .0158431.22260464.011093.25229411-.0063431.02671267-.0142798.02969003-.0095004.03859416.0459628.01187982.0761328.05193638.1490856.10092279.1839701.03115076.0221866.0430328.0237795.07716037.0047502.05937977-.0301139.09794626-.0951391.10536199-.1776063.00744395-.0618446.01336878-.0729525.0326671-.0618446.01334085.0063432.08013773.0142795.14839314.0174361l.1246866.0063435-.06530655-.0824377c-.12317025-.1554173-.16325253-.2140813-.2122395-.3171418-.06825596-.1411317-.09645731-.252149-.10833852-.420235-.00443865-.0792866-.01482979-.1585737-.0207574-.1791963-.01485774-.042812-.05196349-.0459927-.072722-.0047502zm-4.94148741-.7179929c-.01929697.0253727-.04154365.0729525-.04600952.1030634-.00592692.0317307-.02373529.087241-.03859396.1236863-.03856639.091985-.03707777.1696789.00446587.2362971.05193645.0840279.13951716.0824671.1810608-.0014763.03859395-.0776966.02820117-.1871209-.02373528-.269591-.04600951-.0713596-.051964-.1363553-.02227423-.2108981.01929697-.0428091-.0148311-.0317009-.05491368.0190296zm.18403807.5026753c-.02820112.0126865-.05937956.0348847-.0697724.0507633-.08308727.1157616.10538906.2426019.24192898.1649083.14690518-.0856212.15137099-.0872118.22111586-.0618446.05937955.0206226.06232921.0206226.05047536-.0047502-.02376295-.0475827-.06086817-.0697988-.20482368-.1221255-.1647135-.058661-.17066796-.058661-.23892412-.0269659zm7.28361715-4.239096c-.0074163.0174361-.0148575.0649954-.0148575.1078045-.00295.2838503-.1083385.5518486-.30720758.7833719-.04303253.0491467-.07864933.0935458-.07864933.0999097 0 .0158435.22260441.0110933.25229411-.0063726.0267127-.0142503.0296898-.0095001.0385942.0459926.0118801.0761332.0519363.1490561.1009233.1839406.0311508.0222158.043032.023809.0771598.0047797.0593795-.0301407.0979468-.0951364.1053623-.1776036.0074439-.0618446.0133688-.0729496.0326665-.0618446.0133412.0063434.0801383.0142502.1483932.0174364l.1246871.0063431-.0653065-.0824376c-.1231979-.1554171-.1632526-.2140811-.2122395-.3171714-.0682563-.1411288-.0964573-.2521195-.1083388-.4202081-.0044389-.0792839-.0148301-.1585708-.0207574-.1791936-.0148577-.0428121-.0519643-.0459927-.0727223-.0047499zm-5.07041907.0107834c-.00741551.0174361-.01483099.0649957-.01483099.1078373-.0029773.283847-.10833874.5518159-.30720787.7833394-.04303231.0491759-.07864897.0935751-.07864897.0999097 0 .0158432.22260442.011093.25229425-.0063434.02671259-.0142798.02968978-.0095001.03859391.0459631.01185393.0761332.05193646.1490854.10089565.1839698.03117837.0221866.04305981.0237798.0771879.0047505.05935197-.0301112.0979459-.0951393.10536149-.1776065.00741548-.0618446.01337014-.0729496.03266708-.0618446.01334109.0063434.08013797.0142797.14839366.0174364l.12465893.0063431-.06527916-.0824406c-.12319764-.155417-.16325253-.2140781-.21223983-.3171418-.06825571-.1411288-.09645689-.252149-.10833829-.420238-.00443818-.0792836-.01483099-.1585704-.02078565-.1791933-.01483126-.042812-.05193646-.0459926-.07272208-.0047499zm2.50896562-.0063934c-.00741656.0174364-.01483007.0649954-.01483007.1078341-.00297763.2838502-.10833852.5518193-.30720758.7833423-.0430328.0491733-.07864932.0935757-.07864932.0999097 0 .0158432.22260464.0110933.25229411-.0063428.02671267-.0142798.02966209-.0095003.03856677.0459626.0118826.0761331.05196405.1490859.10092307.1839703.0311787.0221866.04303225.0237795.07718803.0047499.05935156-.0301138.09794599-.0951387.10536172-.1776062.00741628-.0618446.01334112-.0729525.03263916-.0618446.01336851.0063431.08013773.0142797.14842108.0174364l.12465838.0063431-.065306-.0824376c-.12316997-.15542-.16325225-.2140781-.21221183-.3171419-.0682839-.1411314-.09648497-.252149-.10833879-.4202347-.00446632-.0792868-.01485774-.1585737-.02078507-.1791963-.01483007-.042812-.05193638-.0459926-.07272227-.0047504zm-4.93958555-.00439c-.00741555.0174361-.0148311.0649954-.0148311.1078045-.00148851.1419252-.03961394.3035026-.09119202.4349098l-.00380427.4880006c.01188142.0761331.05196401.1490561.10092321.1839409.0311784.0222155.04303226.023809.07718791.0047794.05935199-.0301408.09794599-.0951362.10536153-.1776036.00741551-.0618446.01337014-.0729496.03263947-.0618446.01337011.0063434.08013759.0142502.1484213.0174364l.12465852.0063434-.06530652-.082438c-.12316984-.155417-.16325242-.214081-.21221159-.3171713-.06828379-.1411285-.09645737-.2521195-.1083388-.4202082-.00446587-.0792839-.0148311-.1585707-.0207856-.1791936-.0148311-.042812-.05193644-.0459926-.07272205-.0047498zm6.29737593 6.036269c-.01929611.0253725-.04154357.0729523-.04600933.1030632-.0059276.0317337-.02373503.0872118-.03856621.1236863-.03859416.0919853-.03710576.1696818.00443865.2362971.0519361.0840282.13951694.0824376.18106079-.0014763.03859388-.0776936.02820079-.1871212-.02373503-.2695884-.04601016-.0713622-.05193694-.1363579-.02227402-.2109007.01929638-.0428091-.01483257-.0317012-.05491402.0190293zm.18403843.5026751c-.02820107.0126868-.05935211.0348847-.06974464.0507662-.08311536.1157295.10536116.242599.24190158.1649054.14693268-.0856212.15137049-.0872118.22111513-.0618446.05937978.0206226.06232919.0206226.05047565-.0047794-.0237627-.0475535-.06084079-.0697693-.20482377-.1220963-.16471327-.058661-.17066799-.058661-.23892395-.0269659zm-.56691797.0380651c-.06828335.0491467-.14100535.0602546-.19443068.0301407-.04154385-.023809-.04600961-.0095003-.01185493.0380385.01780743.023809.05786398.0491756.0934805.0586906.03412784.0095296.09350734.0317041.13210122.0475531.08904213.0396584.16917958.0396584.23002009 0 .12316998-.0792836.04600961-.2220056-.11873133-.2220056-.04747062 0-.0831148.0126865-.1305857.0475827zm.38465981.1618575c-.00741434.017275-.01482869.0644236-.01482869.1068401-.0029768.2812227-.10830947.5467459-.30712596.7761257-.04302035.0486918-.07862747.0926808-.07862747.0989888 0 .0156967.22254461.0109904.25222661-.0063138.02670548-.0141184.02965462-.0094416.03855626.0455673.01187678.0754289.05194993.1476777.10089595.1822397.03116986.0220106.04302036.0235889.07716757.0047353.05933661-.0298616.0979197-.0942562.10533349-.1759639.00741435-.0612698.01333752-.0722751.03263059-.0612698.01336795.0062843.08011587.014118.14838179.017275l.12462518.0062846-.06528939-.0817047c-.1231365-.1539539-.16320855-.2120727-.21215484-.3142123-.0682651-.1398239-.09645897-.2497855-.10830947-.4163201-.00446521-.0785537-.01485636-.1571076-.02077954-.1775396-.01482869-.0424133-.05192199-.0455673-.07270235-.0047353zm-5.07217154-.6918143c-.01929683.0253725-.04154363.0729523-.0460095.1030927-.00592697.0317042-.02373528.0872118-.03859393.1236863-.03856641.0919558-.03707779.1696523.00446584.2362676.05193641.0840282.13951714.0824671.18106076-.0014763.03859399-.0776936.02820113-.1871212-.02373528-.2695589-.04600947-.0713592-.05196399-.1363874-.02227416-.2109273.01929686-.0428123-.01483098-.0317041-.05491368.0190294zm.18403804.5026754c-.02820118.0126865-.05937956.034914-.06977236.0507659-.08308726.1157619.10538913.242599.24192899.1649054.14690518-.0856212.15137102-.0872115.2211158-.0618446.05937958.0206226.06232927.0206226.05047539-.0047499-.02376294-.047583-.0608682-.0697663-.2048236-.1221258-.16474107-.058661-.17066807-.058661-.23892422-.0269659zm-.5669177.0380648c-.06828371.0491762-.14100573.0602546-.19443079.0301436-.04154371-.023809-.04600958-.0095298-.01188135.0380356.01780832.023809.05789093.0491756.09350764.0586906.03412812.0095296.09350762.0317041.13207403.0475532.08906933.0396583.16920697.0396583.23004756 0 .1231699-.0792837.04600953-.2219762-.1187316-.2219762-.0474981 0-.08311478.012657-.13058549.0475532zm.38601266.161787c-.00741352.017275-.01482703.0643944-.01482703.1068109-.00297653.2812257-.10830986.5467459-.30712593.7761257-.04304838.0487211-.07865555.092713-.07865555.0989889 0 .0156967.22257257.0109903.25222688-.0062847.02670548-.0141476.02968187-.0094416.03858365.0455352.01187816.0754289.05192263.1477069.10089626.182269.03114257.0219813.04302082.0235596.07713978.004706.05936373-.0298616.09791982-.0942562.10536097-.1759639.00741351-.0612699.0133389-.0722751.03263075-.0612699.01336657.0062844.08011623.0141181.14838171.0172751l.12462527.0062846-.06528907-.0816755c-.12313713-.1539831-.16320898-.2121019-.2121552-.3142415-.06826548-.1398239-.09645908-.2497855-.1083098-.4163201-.00446465-.0785537-.0148547-.1571076-.02078009-.1775396-.01485469-.0424133-.05192263-.0455673-.07270266-.004706zm2.50583309-.7089208c-.01929639.0253727-.04157151.0729528-.04601044.1030929-.00595527.0317015-.0237627.0872115-.0385936.1236863-.0385936.0919558-.03710548.1696523.00446631.2362676.05193611.0840282.13948928.0824674.18106052-.0014763.03856677-.0776936.02817396-.1871209-.0237627-.2695621-.04600961-.0713592-.05193666-.1363842-.02224608-.210927.01929611-.0428091-.01485774-.0317012-.05491318.0190297zm.18400993.5026756c-.02820107.0126865-.05935183.0349143-.06974436.0507633-.08311536.1157616.10536088.2426016.24190075.164908.1469335-.0856212.15139871-.0872115.22114335-.0618446.05935266.0206229.06232974.0206229.05044825-.0047502-.02373503-.0475827-.06084078-.0697689-.2047961-.1221252-.16474066-.0586616-.17066798-.0586616-.23895189-.0269659zm-.56691742.0380648c-.06825623.0491762-.14097796.0602546-.19440329.0301436-.04157096-.023809-.04600933-.0095295-.01188011.0380356.01780744.023809.0578911.049173.0935079.0586906.03412812.0095296.09348023.0317042.1320741.0475532.08904158.0396583.16917876.0396583.23004749 0 .12316942-.079284.04598138-.2219762-.11873189-.2219762-.04749828 0-.0831148.012657-.13061281.0475532zm.38537054.1618461c-.00744201.0172753-.01485635.0643946-.01485635.1068109-.0029768.2812256-.10830947.5467429-.30712596.7761257-.0430198.0487213-.07862719.09271-.07862719.0989888 0 .0156967.22254433.0109907.25222661-.0062846.02670547-.0141473.02968172-.0094121.03858364.0455381.01185188.0754291.05192227.1477072.10089623.1822692.03114246.0219811.04302063.0235597.07713934.0047061.05933634-.0298619.09791999-.0942594.10533378-.1759642.00741434-.0612699.01336795-.0722752.03265825-.0612699.01333752.0062847.08011615.0141184.14835413.0172753l.12462518.0062844-.06526146-.0816784c-.12316444-.15398-.16320854-.2120987-.2121825-.3142387-.06823771-.1398235-.09643186-.2497884-.10831003-.4163198-.00443754-.0785539-.01482592-.1571076-.02077953-.1775398-.01482869-.0424133-.05192282-.0455673-.07267497-.0047061zm2.55091286-5.2147464c-.01929638.0253727-.04154329.0729492-.04600988.1030634-.0059276.0317304-.02373503.0872115-.0385936.1236863-.03856622.091985-.03707781.1696789.00446631.2362938.0519361.0840312.13951722.0824409.18106135-.0014763.03859332-.0777231.02820079-.1871214-.02373503-.2695886-.04600934-.0713593-.05196405-.136355-.02227375-.2108975.01929611-.042812-.01483007-.0317339-.05491346.0190296zm.18403816.5026723c-.02820107.0126866-.0593795.0348845-.06977259.0507368-.08308714.1157616.10538911.2426314.24192897.1649346.14690557-.0856478.15137105-.0872112.22111541-.0618417.05938033.0205933.06233002.0205933.05047565-.0047794-.0237627-.0475532-.06086818-.0697693-.20482322-.1220963-.16471327-.058661-.17066799-.058661-.23892422-.0269656zm-.56691797.0380681c-.06828363.0491434-.14100535.0602516-.19443041.0301109-.04154413-.0237795-.04601016-.0095293-.01188287.038068.01780743.0237795.05789109.049173.09350761.0586614.03412785.0094997.0935079.0317304.13207383.0475827.08906953.039658.16920725.039658.23004804 0 .1231697-.0792869.04600933-.2220057-.11873161-.2220057-.04749856 0-.08311536.0126862-.1305857.0475827zm.35765583.1728297c-.00741629.0174364-.01483257.0650282-.01483257.107837-.00297763.2838503-.10833907.5518483-.30720785.7833719-.04305964.0491434-.07867644.0935458-.07867644.0998801 0 .0158727.22263176.0110933.25229384-.0063434.02671267-.0142499.0296903-.0095293.03859443.0459927.01188011.0761036.05193583.1490529.10092307.1839377.03115076.0222157.04303197.0237797.07716009.0047796.05938005-.0301404.09797393-.0951656.10538966-.1776033.00741628-.0618446.01334112-.0729528.03263889-.0618446.01336878.0063429.08013773.0142497.14842135.0174361l.12465893.0063434-.06530682-.0824674c-.1231697-.1553902-.16325253-.2140813-.21221156-.3171445-.06828335-.1411288-.09648525-.2521168-.10833879-.420235-.00446631-.0792839-.01485746-.1585705-.02078507-.1791667-.01483256-.0428092-.0519361-.0459924-.07272172-.0047794zm-5.0451676-.7027867c-.0192971.0253727-.0415712.0729492-.04600952.1030634-.00592697.0317304-.02373528.087241-.03859396.1236863-.03856635.091985-.03710534.1696789.00446584.2362941.05193638.0840309.13948959.0824406.18106079-.0014763.03856641-.0776936.02820116-.1871211-.02376297-.2695886-.04600952-.0713593-.05193646-.136355-.02224674-.2108975.01929683-.042812-.01485868-.0317044-.05491371.0190296zm.18403799.5026724c-.02820107.012716-.05937952.0348844-.06977231.0507662-.08311486.1157321.10538908.2426016.24190147.1649051.1469326-.0856183.15139852-.0872112.22114327-.0618417.05935203.0206229.06232928.0206229.05044784-.0047794-.02373525-.0475473-.06084059-.0697631-.20479605-.1220901-.16474104-.0586614-.17066801-.0586614-.23892422-.0269601zm-.56694522.038068c-.06825613.0491434-.14097818.0602516-.1944033.0301404-.04157118-.023809-.04600952-.0095293-.01188132.0380385.01780832.023809.05789093.049173.09350762.0586909.03412809.0094998.09348003.0317009.13207405.0475532.08904175.039658.16917933.039658.23004756 0 .1231699-.0792869.04600953-.2220057-.11873157-.2220057-.04749812 0-.08311484.0126862-.13061304.0475827zm.35768333.1728297c-.00741551.0174364-.01485868.0650282-.01485868.107837-.00294964.2838503-.1083388.5518483-.30720794.7833719-.04303222.0491434-.07864896.0935458-.07864896.0999097 0 .0158431.22260445.011093.2522942-.006373.02671261-.0142499.0296898-.0095292.03859396.0459927.01188135.0761331.05193649.1490532.10092323.1839377.03115082.022216.04303225.023809.07716032.0047797.05937958-.0301405.09794598-.0951362.10536155-.1776034.00744314-.0618446.01337011-.0729527.03266705-.0618446.01334244.0063429.08013756.0142497.14839374.0174361l.12468607.0063434-.06530652-.0824674c-.12319742-.1553901-.16325242-.2140518-.21223916-.3171415-.06825622-.1411318-.09645734-.2521198-.10833877-.4202085-.00443846-.0792839-.01483102-.1585704-.02075798-.1791962-.01485865-.0428091-.05196405-.0459924-.07272206-.0047794zm2.53418947-.7199635c-.01929639.0253727-.04157096.0729495-.04600961.1030608-.00595499.0317333-.02376242.0872407-.03859388.1236892-.0385936.0919847-.0371052.1696783.00443893.2362939.05196404.0840308.13951695.0824408.18106079-.0014763.03859388-.0776939.02820107-.1871212-.02373503-.2695887-.04600988-.0713593-.05193666-.136355-.02227374-.2108975.01929611-.0428123-.01483008-.0317041-.05488608.0190294zm.18401049.5026727c-.02820135.0126862-.05935183.0348844-.06974492.0507659-.08311508.1157324.10536199.2426019.24190158.1649051.14693295-.0856183.15137105-.0872112.22114308-.0618417.05935238.0206229.06232974.0206229.05044797-.0047794-.02373503-.0475532-.06084023-.0697692-.20479638-.122096-.16474038-.058661-.17066798-.058661-.23895133-.0269659zm-.56691742.038068c-.06828363.0491432-.14097824.0602511-.19443124.0301401-.04154357-.023809-.04598139-.0095293-.01185493.0380356.01780743.023809.05786343.0491759.09348078.0586935.03415496.0095004.09350707.0317012.13210095.0475538.08904185.039658.16917903.039658.23001981 0 .12319737-.0792872.04600933-.222006-.11873133-.222006-.04747062 0-.08308741.0126865-.13058542.047583zm.35765555.1728324c-.00741628.0174366-.01483256.0650252-.01483256.107834-.00297763.2838503-.10833852.5518483-.30720757.7833719-.04303225.0491434-.07864878.0935458-.07864878.0999097 0 .0158431.22260382.0110933.25229384-.006373.02671267-.0142496.02966236-.0095292.03856677.0459927.01188259.0761331.05196349.1490532.10092307.183938.03117815.0222155.04305936.023809.0771872.0047794.05935266-.0301405.09794682-.0951362.10536255-.1776036.00741628-.0618446.01336878-.0729525.03263888-.0618446.01336879.0063434.08016567.0142502.14842163.0174366l.12465866.0063432-.06530683-.082438c-.12316969-.1554199-.16322486-.214081-.21221183-.3171742-.06825624-.1411283-.09645731-.2521166-.10833852-.420205-.00446659-.0792842-.01483007-.1585707-.02078506-.1791965-.01483008-.0428091-.05193611-.0459924-.07272172-.0047794zm-3.69881745 2.2139614c-.00741554.0174361-.01483109.0649951-.01483109.1078367-.00148852.1418956-.03961395.3034731-.09119202.4348773l-.00377671.4880009c.01185386.0761328.05193645.1490853.10089565.1839701.0311784.0221863.04305982.0237795.07718791.0047499.05935199-.0301404.09794603-.0951388.10536154-.1776065.0074155-.0618417.01337014-.0729493.03266702-.0618417.01334245.0063434.08013756.0142502.14839377.0174367l.12465846.0063434-.06527888-.0824382c-.12319747-.15542-.16325248-.2140811-.21223925-.3171448-.06825617-.1411577-.09645732-.2521461-.10833876-.4202344-.00443831-.0792869-.01483109-.158574-.0207856-.1791966-.0148311-.0428091-.05193644-.0459926-.07272204-.0047499z" fill="#000" transform="matrix(.9998477 -.01745241 .01745241 .9998477 -.300967 .120181)"/><path d="m1.31817367 33.3038306h10.83398433v-10.6666667h-10.83398433z" fill="#c00"/><path d="m12.152158 1.30383057h32.5019532v32.00000003h-32.5019532z" fill="#0092c8"/><g fill="#ffcf00" stroke="#650000" stroke-width=".133333" transform="translate(3.2141 23.9705)"><path d="m1.45472106 1.02145174c-.10708988-.12929571-.00126342-.36510512.09475649-.26452098-.05029614-.09649586.03194648-.17289361.06924745-.12455206-.01735699-.07855112.06151651-.13060645.10020123-.05810973-.01389762-.08760151.10305896-.13887663.13338104-.04312978.00204554-.08610351.11635496-.15407504.14159328-.02799378.02226025-.0970576.14968517-.10975935.16024375.02811862.03718065-.08020516.13271926-.07433801.13828432.04219353.0413018-.05480166.1480307.02721358.12986152.12417755.06590841-.01482391.14646647.12364702.06611898.22572915.14252579-.07889441.17621699.17685705.08958248.29298289.04482133.02836828.048762.00330807.08828899.02459209.039527.02128401.11121103.05633086.17678854.07143564.0592905 0 .27668896-.00708427.32114931-.01419975.04446035-.00708426.10525491-.03117702.17787148-.05676777.07607593-.02555954.18605362-.026527.28643534-.05180567.07953529-.00926884 2.31238934.03760592 2.37661318.03052165.06425393-.00708426.15798765-.07115477.1530543-.14920656-.00496344-.07805178-.07893366-.13463231-.1530543-.14171658-.07409055-.00708427-.45453035-.00708427-.52371763.00708427-.0691572.01419975-.16797469.04968351-.21736839.09936701-.02376433.01585378-.06299051.07592963-.09626057.11540805-.03113427.02724478-.1190322.03127064-.1190322-.00421312 0-.02321892-.00736995.00443157-.02896841.01345075-.02803589.0181944-.15449821.02318772-.14890307 0 .00989679-.02627733-.00066179-.03454751-.03390176-.00711547-.02472694.02128401-.19946994.02914848-.23156682.00805172.01925211-.0333616.01940252-.0314579-.03311966-.00402586-.03323997.0151672-.17092266.02702633-.18081945-.00212216-.00132358-.02296926-.01690576-.01170309-.03633836-.00518057-.15603236.04234957-.17101291-.00667856-.14631606-.02796258.02472693-.02128401.06211814-.14305853.02259115-.13597426-.03952699.00708426-.28655567.05676777-.37054301.07096752-.08398734.01416853-.6917224 0-.77570975-.00711548-.08398734-.00708427-.17784139-.0890995-.18280482-.20575588-.00878378-.18715577.13834448-.23418658.22726517-.26255486.08895078-.02839949.3112826-.07096752.4002033-.07096752.08895078 0 .34259737.03264381.41178465.00427553.0691572-.02839949.2792158-.1076684.33859653-.11353555.08756704-.00845743.33841605.02231388.45795964.17145803-.06223847.02933574-.0915077.04659389-.02087651.02012931.06425393-.01419975.3399502-.07380747.40417405-.08941159.22233182-.00995542.16403402.02555954.05531974.05392783-.0362782.11996444-.36299257.28742782-.46674341.30874304-.10375084.02128402-.32394688.0056799-.3731601-.00362015-.04942378-.00386982-.28318655-.01597862-.36831698-.07318331-.1375022-.09677673-.39156993-.16037911-.50296146-.15816332-.10420206.00218458-.40146671.03457872-.40020329.14193504-.00153416.18852893.27668896.19867161.39526994.19158734.11858098-.00711548.41503344-.02128401.49902078-.05676777.08398735-.03548376.26564908-.04419086.36446657-.04419086.09881748 0 .24323841.02290684.28769876.01579136.04446035-.00708426.14824127-.00870709.19763497-.04419085s.15684456-.07255914.26552875-.07255914c.1086842 0 .91531765-.03223811 1.02400184-.02515384.15735594-.0011235.26850682.17729397.27040195.3290284.00090244.07096752-.03257819.17582718-.06103522.19205546.04882216.00468123.17098283.01897461.21129194.0276817.07568487.01557291.19835693.10211334.21243503.18094534-.0574856-.03620155-.15025672-.09090959-.23388309-.09690157-.01636429.00018725-1.77709035-.0030584-1.91546491-.00218457.3762284.04615697.66377676.34678588.7356112.51889928.06422385.10642007.22233183.06385204.28162232.0496523.05929049-.01416854.12847777-.07805179.17787147-.12770409.04942379-.04968351.12667289-.06229163.16153726-.04968351.07679789-.00708426.09045485.07805179.06079457.12065103-.02963021.04256803.00493335.02506021.08398734.02506021.07902391 0 .14872257.03055286.19534878.09499786-.04446035.04256803-.06687101.00764602-.00264716.0147615.06422384.00708426.14177376.1292957.09388413.1637808-.04187335.02153368-.05435714.01360679 0 .02069106.08100928.00711548.10308905.06154263.11361755.15828815-.06858566.01304505-.03456356-.00926884 0 .02621492.03459364.03548376.08498003.192586-.039527.19867161-.04446035-.02128402-.04364815-.0254035-.0341725.02287563.00878378.04968351-.0152212.16871171-.08440848.16871171-.09583942.01916185-.18280483-.03548376-.19267154-.09933581-.00989679-.06385204-.00860328.12324132-.14445101.1527643-.12829728.02961662-.19646179-.04631301-.20635858-.08179677-.00986671-.03548376-.00493336-.00711548-.05432706-.01419975-.04942378-.00708427-.11166225-.00773964-.13834448-.09225154 0-.04965229.00962606-.11512717.09764431-.1239591.039527-.00711547.05056688-.06051276.02093667-.06762824-.02966028-.00708426-.00496343-.11353555.0592905-.08513605.06422384.02836828.21243503.03548376.24702867.07093631.03459364.03548376.04446035-.02836829-.00989679-.08513606-.05432706-.05676778-.38537315-.17030333-.47429385-.1277353-.20708054.10826136-.55337792.09225154-.61266841.07805179-.0592905-.01416853-.23051397.02452967-.31125252-.23415537-.06548727-.26414648-.31438099-.39469051-.42799854-.40889026-.56059746-.05473924-.53012498-.01263933-.16659094.00524298-.00270733.04930901-.01588299.15026764.04304652.16506035.09881749-.01416854.30451428-.05942048.35390798-.01685245.04942379.04256803.09881749.07805179.08895078.17738759-.00989679.09933581.00493336.07096753-.03952699.11353555-.04449043.04256803-.02472693.1277353.04446035.15610358.0691572.0283995.09881748.06388326.14327783.10645129.04446035.04256802-.0197635.12770408-.05929049.0993358-.03952699-.02839949-.03952699-.02839949-.04446035.02836828-.00496343.05676778-.05405632.16421772-.13756236.1720822-.01753747-.00686581-.01266428-.03623276-.01067891-.05854665.00496344-.04965229-.01669519.06169868-.04250505.09259483-.01645454.0208471-.15633318.06166747-.19583009.04038345.01762772-.04444052.00743011-.02630854-.02716353-.00502452-.03375136.01398129-.21583423.04022741-.13470463-.04990197.02108708-.03283106-.02893833.04103883-.05649292.05389662-.02319277.01497995-.13124526.02418638-.13124526-.01841286-.03429283.03130186-.11593382.03130186-.12844769.00711548-.02469685-.02839949-.0270432.02128402-.07150355.02836828-.04446035.00711548-.14096157-.00708426-.14589492-.06385204-.00493335-.05676777.00986671-.02128401-.04446035-.01419975-.13232819.09106563-.19763497-.03548376-.19763497-.07805179 0-.04256802-.00493335-.09225153.00986671-.12061981.01483014-.0283995-.09204917-.03695055-.05929049-.0928445.03684974-.06831482.07553446-.11843524.14824127-.10585832.03459364.00711548.0296302-.01416854.01483014-.04256803-.01483014-.02836828.03952699-.04256803.10375084-.01419975.06422385.0283995.10868419.09936702.12844769.16321906s.17293812.01419975.23716197.02128401c.06422384.00708427.0691572-.10645128.0296302-.14190383-.03952699-.03548376-.14821119-.16321906-.19267153-.20578708-.04446035-.04256803-.01483015-.19158734.02469685-.22707111.23009283-.16137777.10375084-.21287135.01976349-.1986716-.08398734.01416853-.29982157.10379858-.36900885.18185037-.0691572.07805179-.60656189.4606023-.65598567.50320154-.0493937.04256803-.12125823.05289795-.15088844.00324566-.02966028-.04968351-.04942378-.01419975-.04449043.05673656.03925627.2680163-.19270161.35343324-.2333717.35006275-.02830663-.00305841-.06885639-.01938031-.09806545-.04462777-.02884809.1497683-.15633318.16468584-.27154504.14989314-.00174472-.01769507.02150822-.05071338.00881386-.03807405-.03808309.05146238-.15509984.04606335-.2555718.03823009-.00667808-.03130186.0346538-.06925107.0148903-.04796706-.03372127.06584938-.09171826.05405266-.18569264.04706202-.00108293-.01388766.0435579-.06029431.02274156-.03251898-.04115139.04665631-.12679322.03205086-.19330325.03320556-.00788133-.01045476.03438307-.0837941-.00427156-.03532772-.03693999.04138212-.11518178.04827914-.18996421.03716901-.01329599-.0348596.0155521-.0352341.02349359-.05711107.0197635-.03548376-.0098667 0-.03456355 0-.02472694 0-.0592905.00708427-.07412064-.02839949-.01483014-.03545255-.0063171.03548376-.02066594.05483286-.01434884.01672762-.03053265.05611241-.07995643.07028094-.0493937.01419975-.17787148.0283995-.19763497-.03545255-.02662207-.02939815-.039527-.09225153-.0197635-.12773529.0197635-.03548377-.09406462.06843965-.14327784.07805178-.14469166.02899245-.16304133-.20578708-.09881748-.2270711.06425393-.02128401.05435714-.05676777.0197635-.08513605-.03456356-.0283995-.05432706-.14193505-.00986671-.17741881.04446035-.03545255.14736891-.05514494.21243503-.01416853.03808309.02711995.11960375.1201829.10378092.04965229-.0110098-.04356669.01714642-.09902372.04870183-.1228356.0273741-.02618371.11163218-.03283106.134103.0234998.05207095.13057524.0889207.18681248.15314454.18450307.13684041-.03882304.32175094-.08276423.37610808-.08276423.06972875-.01719574.43891809-.05477045.43891809-.09025421-.22142938.07951858-.31092162-.02340618-.33564855-.0162907-.02469685.00708427-.0855215-.02306288-.0855215-.0428489 0-.04256803.05577097-.03748109-.02328302-.02331255-.04734817-.00402586-.08949225-.00630406-.12932006-.05754798-.00652766-.02618371.05234169-.11618825.0736995-.19183701-.0510181-.01432458-.16382345.08098537-.20079352.16499793-.02590011-.03223811-.03639853-.00293358-.12895908.02053501-.04367823.01975482-.11473056.01267055-.15425755-.00861347-.03949691-.02131522-.1943561-.14305854-.11945335-.15872507-.01973341-.01001784-.04238473-.01576016-.05730511-.02003568-.05435714-.02406155-.10573622-.0708739-.08994347-.08370048-.01374721-.02131523.01576267-.02125281-.00601628-.02552834-.02963021-.00708427-.10263783-.06232284-.0838971-.08366927-.01871065-.01282658-.06314092-.0326126-.08197189-.04256803-.03459364-.02128401-.06921736-.0951539-.0741808-.13063766-.03185623.00318324-.09987033-.05938927-.0691572-.07805179-.05192054-.04000895-.09611015-.10585833-.06151651-.12714234-.03032208-.02477934-.05146932-.07003127-.03038224-.0530852-.03149526-.04000896-.02174888-.08232732.00297806-.08232732.02469685 0 .01480006-.11350434-.02966029-.11350434s-.1159639.03579584-.16797469 0c-.04277578-.03395456-.07905398-.18450307-.03952699-.24835512.03952699-.06388325.11858098-.13485077.15810798-.12773529.03952699.00708426.01976349.02128401.00986671-.04256803-.00986671-.06388326.05580104-.11185031.09881748-.1277353.0521612-.02474813.15317463-.00708427.18280483.02128402.02966029.02839949.03952699.02839949.03952699-.02128402 0-.0348908.03817333-.0530852.07213527-.06222922.05655308-.01385645.10080286.00280875.12056635.02674546.03068306.04565764.0493937.0993358.00986671.14193504-.03952699.04256803-.00523417.00646011.05901976-.00770843.04136196-.01419975.11599398.00408828.12871842.05027646.01714642.0496523.02966029.13481957-.01480006.1773876-.04446035.04256802-.10871427.14901931-.07412063.18450307s.14327783.19158734.16797468.21287135c.02472693.02128402.05435714.07093631.09388413.06385204.039527-.00708426.08398735-.01419974.11858099-.02128401.13726155-.02864916.19913904-.04353548.02295213-.03769954.03955707-.0579849.12240132-.07508701.15834862-.0852921-.03167574-.04940264.08549142-.15373176.08549142-.1679315z"/><path d="m1.45472106 4.8881184c-.10708988-.12929571-.00126342-.36510511.09475649-.26452098-.05029614-.09649585.03194648-.17289361.06924745-.12455205-.01735699-.07855112.06151651-.13060646.10020123-.05810973-.01389762-.08760151.10305896-.13887664.13338104-.04312978.00204554-.08610351.11635496-.15407504.14159328-.02799378.02226025-.09705761.14968517-.10975936.16024375.02811861.03718065-.08020515.13271926-.07433801.13828432.04219353.0413018-.05480165.1480307.02721358.12986152.12417756.06590841-.01482391.14646647.12364702.06611898.22572915.14252579-.07889441.17621699.17685705.08958248.29298289.04482133.02836828.048762.00330807.08828899.02459208.039527.02128402.11121103.05633086.17678854.07143565.0592905 0 .27668896-.00708427.32114931-.01419975.04446035-.00708427.10525491-.03117702.17787148-.05676777.07607593-.02555955.18605362-.026527.28643534-.05180567.07953529-.00926885 2.31238934.03760592 2.37661318.03052165.06425393-.00708427.15798765-.07115477.1530543-.14920656-.00496344-.07805179-.07893366-.13463231-.1530543-.14171658-.07409055-.00708427-.45453035-.00708427-.52371763.00708427-.0691572.01419974-.16797469.0496835-.21736839.09936701-.02376433.01585378-.06299051.07592963-.09626057.11540804-.03113427.02724479-.1190322.03127065-.1190322-.00421311 0-.02321892-.00736995.00443157-.02896841.01345075-.02803589.0181944-.15449821.02318772-.14890307 0 .00989679-.02627733-.00066179-.03454751-.03390176-.00711548-.02472694.02128402-.19946994.02914849-.23156682.00805173.01925211-.0333616.01940252-.0314579-.03311966-.00402587-.03323997.01516721-.17092266.02702633-.18081945-.00212216-.00132358-.02296925-.01690576-.01170308-.03633836-.00518056-.15603236.04234957-.17101291-.00667856-.14631606-.02796258.02472693-.02128401.06211814-.14305854.02259115-.13597427s-.28655567.05676778-.37054301.07096752c-.08398734.01416854-.6917224 0-.77570975-.00711547-.08398734-.00708427-.17784139-.08909951-.18280482-.20575588-.00878378-.18715577.13834448-.23418658.22726517-.26255486.08895078-.02839949.3112826-.07096752.4002033-.07096752.08895078 0 .34259737.03264381.41178465.00427552.0691572-.02839949.2792158-.1076684.33859653-.11353555.08756704-.00845743.33841605.02231389.45795964.17145803-.06223847.02933574-.0915077.0465939-.02087651.02012931.06425393-.01419974.3399502-.07380747.40417405-.08941158.22233182-.00995543.16403402.02555954.05531974.05392782-.0362782.11996445-.36299257.28742783-.46674341.30874305-.10375084.02128401-.32394688.0056799-.3731601-.00362016-.04942378-.00386982-.28318655-.01597861-.36831698-.0731833-.1375022-.09677673-.39156993-.16037911-.50296146-.15816332-.10420206.00218457-.40146671.03457872-.40020329.14193504-.00153416.18852893.27668896.19867161.39526994.19158734.11858098-.00711548.41503344-.02128402.49902078-.05676778.08398735-.03548376.26564908-.04419086.36446657-.04419086.09881748 0 .24323841.02290685.28769876.01579137.04446035-.00708427.14824127-.0087071.19763497-.04419086s.15684456-.07255914.26552875-.07255914c.1086842 0 .91531765-.0322381 1.02400184-.02515383.15735594-.0011235.26850682.17729397.27040195.32902839.00090244.07096752-.03257819.17582719-.06103522.19205547.04882216.00468123.17098283.0189746.21129194.0276817.07568487.01557291.19835693.10211334.21243503.18094533-.0574856-.03620155-.15025672-.09090958-.23388309-.09690156-.01636429.00018725-1.77709035-.00305841-1.91546491-.00218458.3762284.04615698.66377676.34678588.7356112.51889929.06422385.10642007.22233183.06385204.28162232.04965229.05929049-.01416853.12847777-.07805178.17787147-.12770408.04942379-.04968351.12667289-.06229164.16153726-.04968351.07679789-.00708427.09045485.07805179.06079457.12065103-.02963021.04256803.00493335.02506021.08398734.02506021.07902391 0 .14872257.03055286.19534878.09499786-.04446035.04256803-.06687101.00764602-.00264716.01476149.06422384.00708427.14177376.12929571.09388413.16378081-.04187335.02153368-.05435714.01360679 0 .02069106.08100928.00711547.10308905.06154263.11361755.15828815-.06858566.01304504-.03456356-.00926884 0 .02621492.03459364.03548376.08498003.192586-.039527.19867161-.04446035-.02128402-.04364815-.02540351-.0341725.02287563.00878378.04968351-.0152212.16871171-.08440848.16871171-.09583942.01916185-.18280483-.03548376-.19267154-.09933581-.00989679-.06385204-.00860328.12324131-.14445101.1527643-.12829728.02961661-.19646179-.04631302-.20635858-.08179678-.00986671-.03548376-.00493336-.00711547-.05432706-.01419974-.04942378-.00708427-.11166225-.00773965-.13834448-.09225154 0-.0496523.00962606-.11512717.09764431-.1239591.039527-.00711548.05056688-.06051276.02093667-.06762824-.02966028-.00708427-.00496343-.11353555.0592905-.08513606.06422384.02836829.21243503.03548376.24702867.07093631.03459364.03548377.04446035-.02836828-.00989679-.08513605-.05432706-.05676778-.38537315-.17030333-.47429385-.1277353-.20708054.10826136-.55337792.09225154-.61266841.07805179-.0592905-.01416854-.23051397.02452967-.31125252-.23415537-.06548727-.26414648-.31438099-.39469052-.42799854-.40889026-.56059746-.05473924-.53012498-.01263934-.16659094.00524298-.00270733.04930901-.01588299.15026764.04304652.16506034.09881749-.01416854.30451428-.05942047.35390798-.01685244.04942379.04256803.09881749.07805179.08895078.17738759-.00989679.09933581.00493336.07096752-.03952699.11353555-.04449043.04256803-.02472693.1277353.04446035.15610358.0691572.02839949.09881748.06388325.14327783.10645128s-.0197635.12770409-.05929049.09933581c-.03952699-.0283995-.03952699-.0283995-.04446035.02836828-.00496343.05676778-.05405632.16421772-.13756236.17208219-.01753747-.00686581-.01266428-.03623275-.01067891-.05854664.00496344-.0496523-.01669519.06169868-.04250505.09259483-.01645454.0208471-.15633318.06166746-.19583009.04038345.01762772-.04444052.00743011-.02630854-.02716353-.00502453-.03375136.01398129-.21583423.04022742-.13470463-.04990196.02108708-.03283106-.02893833.04103883-.05649292.05389662-.02319277.01497995-.13124526.02418638-.13124526-.01841286-.03429283.03130186-.11593382.03130186-.12844769.00711548-.02469685-.02839949-.0270432.02128401-.07150355.02836828-.04446035.00711548-.14096157-.00708427-.14589492-.06385204-.00493335-.05676778.00986671-.02128402-.04446035-.01419975-.13232819.09106562-.19763497-.03548376-.19763497-.07805179s-.00493335-.09225153.00986671-.12061982c.01483014-.02839949-.09204917-.03695054-.05929049-.09284449.03684974-.06831482.07553446-.11843524.14824127-.10585832.03459364.00711547.0296302-.01416854.01483014-.04256803-.01483014-.02836829.03952699-.04256803.10375084-.01419975.06422385.02839949.10868419.09936701.12844769.16321906.0197635.06385204.17293812.01419974.23716197.02128401.06422384.00708427.0691572-.10645128.0296302-.14190383-.03952699-.03548376-.14821119-.16321906-.19267153-.20578709-.04446035-.04256803-.01483015-.19158734.02469685-.2270711.23009283-.16137777.10375084-.21287135.01976349-.19867161-.08398734.01416854-.29982157.10379858-.36900885.18185037-.0691572.07805179-.60656189.46060231-.65598567.50320155-.0493937.04256803-.12125823.05289795-.15088844.00324565-.02966028-.0496835-.04942378-.01419974-.04449043.05673657.03925627.2680163-.19270161.35343323-.2333717.35006275-.02830663-.00305841-.06885639-.01938032-.09806545-.04462778-.02884809.14976831-.15633318.16468585-.27154504.14989314-.00174472-.01769506.02150822-.05071337.00881386-.03807404-.03808309.05146238-.15509984.04606335-.2555718.03823008-.00667808-.03130185.0346538-.06925106.0148903-.04796705-.03372127.06584937-.09171826.05405266-.18569264.04706202-.00108293-.01388767.0435579-.06029431.02274156-.03251898-.04115139.04665631-.12679322.03205085-.19330325.03320556-.00788133-.01045476.03438307-.08379411-.00427156-.03532772-.03693999.04138211-.11518178.04827913-.18996421.037169-.01329599-.03485959.0155521-.03523409.02349359-.05711106.0197635-.03548376-.0098667 0-.03456355 0-.02472694 0-.0592905.00708427-.07412064-.02839949-.01483014-.03545256-.0063171.03548376-.02066594.05483286-.01434884.01672761-.03053265.0561124-.07995643.07028094-.0493937.01419975-.17787148.02839949-.19763497-.03545255-.02662207-.02939816-.039527-.09225154-.0197635-.1277353s-.09406462.06843966-.14327784.07805179c-.14469166.02899245-.16304133-.20578708-.09881748-.2270711.06425393-.02128401.05435714-.05676777.0197635-.08513606-.03456356-.02839949-.05432706-.14193504-.00986671-.1774188.04446035-.03545255.14736891-.05514495.21243503-.01416854.03808309.02711996.11960375.12018291.10378092.0496523-.0110098-.04356669.01714642-.09902372.04870183-.1228356.0273741-.02618371.11163218-.03283106.134103.0234998.05207095.13057524.0889207.18681248.15314454.18450307.13684041-.03882304.32175094-.08276424.37610808-.08276424.06972875-.01719573.43891809-.05477044.43891809-.0902542-.22142938.07951857-.31092162-.02340618-.33564855-.0162907-.02469685.00708427-.0855215-.02306289-.0855215-.0428489 0-.04256803.05577097-.03748109-.02328302-.02331255-.04734817-.00402587-.08949225-.00630407-.12932006-.05754799-.00652766-.0261837.05234169-.11618825.0736995-.191837-.0510181-.01432458-.16382345.08098536-.20079352.16499792-.02590011-.0322381-.03639853-.00293357-.12895908.02053502-.04367823.01975481-.11473056.01267054-.15425755-.00861347-.03949691-.02131522-.1943561-.14305854-.11945335-.15872507-.01973341-.01001784-.04238473-.01576016-.05730511-.02003569-.05435714-.02406154-.10573622-.07087389-.08994347-.08370048-.01374721-.02131522.01576267-.0212528-.00601628-.02552833-.02963021-.00708427-.10263783-.06232284-.0838971-.08366927-.01871065-.01282659-.06314092-.03261261-.08197189-.04256803-.03459364-.02128402-.06921736-.0951539-.0741808-.13063766-.03185623.00318324-.09987033-.05938927-.0691572-.07805179-.05192054-.04000896-.09611015-.10585833-.06151651-.12714234-.03032208-.02477934-.05146932-.07003128-.03038224-.05308521-.03149526-.04000895-.02174888-.08232731.00297806-.08232731.02469685 0 .01480006-.11350435-.02966029-.11350435s-.1159639.03579585-.16797469 0c-.04277578-.03395455-.07905398-.18450307-.03952699-.24835511.03952699-.06388325.11858098-.13485077.15810798-.1277353.03952699.00708427.01976349.02128402.00986671-.04256803-.00986671-.06388325.05580104-.1118503.09881748-.12773529.0521612-.02474813.15317463-.00708427.18280483.02128401.02966029.02839949.03952699.02839949.03952699-.02128401 0-.03489081.03817333-.05308521.07213527-.06222922.05655308-.01385645.10080286.00280874.12056635.02674546.03068306.04565764.0493937.0993358.00986671.14193504-.03952699.04256803-.00523417.0064601.05901976-.00770844.04136196-.01419974.11599398.00408828.12871842.05027647.01714642.0496523.02966029.13481956-.01480006.17738759s-.10871427.14901931-.07412063.18450307.14327783.19158734.16797468.21287136c.02472693.02128401.05435714.07093631.09388413.06385204.039527-.00708427.08398735-.01419974.11858099-.02128401.13726155-.02864916.19913904-.04353549.02295213-.03769955.03955707-.05798489.12240132-.07508701.15834862-.0852921-.03167574-.04940263.08549142-.15373175.08549142-.1679315z"/></g><path d="m29.5355358 4.20897119c-.4524691-.07636225-1.2979375-.03527712-1.8218838.0939603-.7085405.17622773-1.0478926.16449839-1.8695498-.08222691-.0634984-.0195759.1111504.32113669.5239463 1.02213776-.2619727.07050159-.678744.23495947-.3989022.32895623.4048452.13509388.833543.11749995 1.7087671-.08813209.6192351-.14095866.8812078-.17622772 1.2681839-.15859321.2679568.00587281.5061175.04113373.5299295.06463291.0297537.02349108-.1131582.1879569-.3036542.36418454-.2917696.25845874-.3989438.31722694-.5715699.32309145-.1191007 0-.3036542.01761863-.4048863.03523686-.1786102.03527696-.1845527.04699828-.1845527.37595463v.34072587l-1.381342 1.28059666c-.7621071.70491504-1.4765494 1.32759899-1.5837239 1.39219119-.1071746.06463717-.2322174.54045732-.1071746.58745562.0773785.0293638.0297537.1292293-.2381611.4934141-.3870164.5286869-.6847282 1.0926391-.9169052 1.721188l-.1667252.4405509-.0952476-.3230915c-.1547985-.5169134-.2738997-1.2688267-.2738997-1.7622813 0-.4523208 0-.4523208.3095976-.88700716.3751309-.52868334 1.256298-1.43332496 1.7445053-1.79750967.1964796-.1468642.5299291-.34659484.7442375-.4464563.4763227-.21736547.595423-.31722694.595423-.48168507 0-.19386612-.1429127-.28786268-.3691473-.2408644-.1309861.02349083-.6608753-.0587277-1.5658951-.24086076-.7501809-.14682329-1.375358-.27609317-1.3813009-.27609317 0-.0058726.0595505-.25845873.142872-.56391574.0952887-.35831988.1964792-.61091391.2917688-.71077533.1190737-.12533442-.2262631-.11359157-1.0360105.03522855-.2143483.02349108-.726368.12922933-1.1312539.2408606-.8216165.22323014-1.4646635.25845853-1.8873777.11159482-.1309866-.04699836-.2441045-.08809159-.2500877-.08809159-.0118859 0-.0178268.06459241-.0178268.14685983 0 .2525937.148815.79299836-.0952887.77537972-.2441041-.01761822-.4405837-.01761822-.4405837 0 0 .12336081.2917281.45231717.4822648.54631778.4167713.21149691 1.2860533.13509387 2.2505829-.19972699.4822644-.16445772 1.1074424-.21146005 1.0657605-.08223068-.0238129.07050167-.8632972.69314511-2.3041491 1.70941812-.7264092.51104851-.8395262.6520478-.7264092.89877712.0595506.13509387.0416807.18795706-.136929.48168465-.3870164.64614277-.7501809 1.75641677-.7501809 2.32033257 0 .2819536-.0178679.305457-.4108288.7166805-.8037885.8341404-2.7466576 4.0178327-2.2107852 4.2880609.3100217.1988619.542538.3480083.6975489.4474392.0200564.0128651.0005225.0850406-.0586018.2165266-.2857847.305457-.3453353.5462769-.1964796.7518728.071436.0939966.1607415.111631.4941502.111631.3572623 0 .4763215.0293639.8871507.2290949.4048859.199727.5596849.3230915 1.1550667.9340059 1.8397542 1.8974157 2.2922641 2.2909642 3.3937227 2.9606505.6371037.3876841 1.798113.9516403 2.3696829 1.1572318 1.8576236.6579127 3.9057831.7812768 5.8408252.3524557.893094-.199727 1.5480269-.4288219 2.4053819-.8517748.4763219-.2408243.7085397-.3230918.7204251-.2760931.0178679.0411337.0714364.2114965.1250437.3759546.1011909.3230914.3989022.8165501.5239459.8635078.0416815.0117862.9942845-.1174594 2.1255392-.2878221 1.131254-.1703632 2.0719716-.311322 2.095784-.317227.1131175-.005873.2500877-.6461428.2500877-1.1454622 0-.5110931-.011927-.5463215-.2619735-1.0280065-.3215234-.6109141-.8097303-1.1160981-1.28011-1.3275946l-.3334084-.1527287.1428712-.1820925c.6609169-.8635484 1.4408515-2.1030113 1.7445061-2.7667885l.1726673-.4454436.3095963-.0059131c.1667252 0 .3215241-.0234913.3393932-.0528673.0178679-.0234912-.005945-.2066041-.0536068-.4767882-.0476252-.2702283-.0893063-.4993191-.0893063-.5110931 0-.0058726.1071741-.0117456.2381611-.0117456h.2381612v-1.3334595l1.0300227-1.932644c.5596844-1.0632348.4406244-2.42610269.4941913-2.29683282.0178679.04695777-.0297537.17622762-.0952484.29368712-.1071741.1821326-.1547981.2055915-.2857851.1821326-.0893051-.0176182-.7680899-.1292694-1.5123287-.2525938l-1.3455611-.22322592-.6609169 1.17482572c-.3631632.6461829-.6549325 1.1807348-.6489484 1.1925047.0118858.005873.7025561.0587277 1.5360991.1115949.833543.0528632 1.5301557.1116314 1.5420827.1233609.0118859.0058726-.1905367.3759582-.4465665.81655l-.4643953.7930062h-1.3694139c-1.1907642 0-1.3694155.0117861-1.4349086.0939966-.0595102.0822311-.0893055-.0058726-.2024225-.5110481-.1845535-.8517748-.3632048-1.9737823-.3632048-2.2675059 0-.2878225.2619731-.8811426.7382946-1.68001373.7085401-1.1866402 1.7206937-2.33796699 2.1255804-2.41433316.3453349-.06463271.589439-.24672527.589439-.44058735 0-.19973103-.0952892-.293728-.3334499-.32309184-.1607415-.01761823-2.2624688-.834144-2.3577571-.91637104-.0595094-.04699828-.4405841-1.29823073-.3274662-1.18073479.0786263.09261562-.001728.07209738-.3155401.02349108-.6013664-.07049758-1.1729354-.04113369-1.7087671.09396031-.5954227.1527285-1.0598188.15863368-1.5837647.01178604-.2262341-.05872774-.3989022-.08222692-.3989022-.05286303 0 .13509396.2559899.49931925.4346416.61677874.1071738.07049758.637063.81068119 1.3991696.62268362.4346408-.10573002.8097306-.1527283 1.1848217-.15859321.4703785-.00587261.6966131.03523686.607308.09986147-.7978452.62264344-3.5425783 2.67278784-3.8522166 2.87838339-.4762808.31722693-.5477579.4112239-.5477579.68731706 0 .15272831-.1666836 1.15723184-.2798422 1.40392064l-.2083651.4464563c.5318696-2.21264745.9049791-3.41688036 1.1193286-3.61269876.136929-.12332436.2679148-.25845874.2917679-.29368709.0476245-.08223109-.1309857-.293728-.2500873-.293728-.0893055 0-2.2208276-1.45682386-2.2208276-1.51555561 0-.16449838.3215238-1.01036791.4167718-1.09850406.0654926-.05872769-.6787437-.08808348-.9169061-.13508589zm2.5805634 2.96065057c-.0118859-.01178572-2.3304756-1.01627301-2.2530963-1.26886724l.0714767-.23495534c1.4742494 1.02212429 2.2014559 1.52339848 2.1816196 1.50382258zm-7.73666-.46995564c1.2503147.25259422 1.2741259.25845873 1.0419496.32309185-.0952895.02936384-.6966139.19382562-1.3277348.37005326l-1.1550659.31722694.0416807-.15859322c.1309861-.54045691.2857847-1.06327534.31554-1.06327534.023854 0 .5061171.09400061 1.0836304.21149651zm-1.9647974.76364273-.1190604.42295737-.4644361.12336445c-.2500465.06459261-.6430063.17622765-.869282.24086076-.226235.05873175-.3929593.09982502-.3810323.08223069.0476232-.04113337 1.9767239-1.43332496 1.9945519-1.43332496.005982 0 .005982.03523686-.0118859.07049762-.011927.04109326-.0774196.26432324-.1488552.49341407zm8.5796154 3.95928955-.148856.4816887c-.1786106.5991809-.3036127 1.1924605-.3989023 1.9208741-.0595501.4699557-.1071741.6050495-.3095971.9340059-.1250437.2114965-.2619728.4582258-.2917281.5521823-.1583404.3597982-.1751045.103859-.2024629-.7166404-.0416819-.8811423.0357398-1.7740545.2202921-2.6140594.1250432-.5580512.8930928-1.0397359.9764558-.8694096zm-7.5972171 1.233606c.1191011.3465949.1369299.4699152.089305.6696462-.0297536.1292654-.0833621.5286826-.1190595.8752733-.1131175 1.1220035.5894389 3.1368385 1.0776471 4.1296162.1488556.2878186-1.3515465-1.2864652-1.6373312-1.9620123-.178611-.417052-.1905371-.4816847-.0654935-.4816847.0774193 0 .0893051-.1233648.0893051-.7342789v-.7342748h-.1786106c-.1547981 0-.1845531-.0293638-.2500873-.2525938-.0476244-.1468642-.0773793-.5639559-.0773793-1.039776 0-.8693687.0833634-1.2335984.4643953-2.0736033.2241244-.5591688.2856082-.5206675.2738997.0646372.0059409.3406854.1547986 1.0162325.3334092 1.5390509zm12.8545455 1.7387816c.07742.2995925.07742.3524598-.0297537.6579168-.0654923.1820925-.1905359.610914-.3453349.7812731-.2798427.3054611-.2857843.3113661-.3572208.1820966-.2857851-.5345519-.3929593-1.8915107-.2143491-2.8137867.0773789-.4053226.3810327-1.4861922.4167709-1.4861922.0118858 0 .0476244.2173654.0893055.4817255.0774188.5404164.3095959 1.7035123.4405821 2.1969669zm-17.1116082-.5698248-.3870151-1.2981659-.1547994.0998453c.0079513.0744207.1885562.4738609.5418145 1.1983206zm3.0960534.540461c0 .0293638-.2441032.0528672-.541815.0528672h-.5418158l-1.4825338.0220589c.0238129-.0880915 2.3530305-.9242988 2.4006545-1.0946214l-.6620884.132652-1.7385661.3465823c.1191008.0880916 2.2505854.0881402 2.3637441.2290989.1131154.1468638.2024205.2878631.2024205.3113621zm-2.8578906.9222359.3870164.599185.0118859.5169535c.0059408.2819581.0654922.7225495.1309861.9751437.1191008.4992786.0952892.7401394-.0952488.7401394-.0536072 0-.3691473-.1585932-.702556-.3524553-.3274663-.1938625-.6787852-.3759546-.7799766-.4111874l-.1786101-.0646328.4465258-1.609553c.2441045-.8870072.4416032-1.67728.4594719-1.67728.0238128 0 .1180824.2028172.189518.3731804.1071754.2467293.1309874.4229569.1309874.9105065zm11.1695904 1.0867747c.1369295.6814116.3870168 1.321694.773992 1.9913762.1845943.3171864.3274667.587411.3155812.5991846-.0595505.0528632-.6668594.1468602-.7204259.1174558-.0833622-.0528632-.4167713-.7636427-.6430466-1.3745531-.2560307-.6873207-.4882077-1.6389205-.4465267-1.8151887.0178679-.082227.1488565-.3759141.2857852-.6520073l.2441041-.4993194.0476231.5756816c.0238129.3171864.0833634.7930066.1429136 1.0573703zm4.4594831-.1938621c.2322191.1175.2977122.1762277.2857856.2760932-.0118859.105726.0178678.1292253.1786101.1468638.3155813.0293638.2619736.1703631-.2321766.5932755-.2560307.2173655-.4882489.3935931-.5239463.3935931-.1369291 0-.6549345-.6745867-.8454713-1.0622707.5517345-.333517.9308007-.4493686 1.1371985-.3475549zm-.4584524 1.5566898-.1547985.105726c-.2083655.1409993-1.5777806.8047761-1.6075759.7812772-.0118858-.0117456.1369699-.5404128.3215229-1.1748662l.2901995-.4111875c.1131167.2114564.6148203.1703632.8053167.3583243zm-2.3696425.0411334c-.1726672.5227783-.3334499.9810042-.3572615 1.010368-.0773793.0763662-.1369299-.3465908-.0952484-.6579123.0714369-.4758201.6191943-.8811791.4525099-.3524557zm-6.8470355-.0411334c-.1369702.4170475-.2738997.7871417-.2977117.8106411-.0238128.0293638-.1488552 0-.2798422-.0645967-.1964801-.0998615-.2441045-.1586297-.3095967-.4170884-.071436-.2878226-.071436-.3113215.0774188-.5639157.1904964-.317227.470339-.5345884.7859194-.6109546.321483-.0763621.3393521-.0763621.3095972.0058726-.0178679.0411297-.1429136.4170844-.2857848.8400417zm1.5242133-.2408648c.0714364.3054571.2202925.6931816.4227146 1.0867747l.3095972.6050495-.3095972-.0352773c-.1726676-.0176183-.5834964-.0940006-.9109627-.1585932l-.6073084-.1233645.1429127-.4523208c.0773789-.2467253.2143492-.6755471.3036542-.9633697.154799-.511089.1786106-.5404569.4167722-.4758202.1071741.029372.1488556.1174676.2322174.5169215zm1.0835896-.0234993.619235.293728-.2738997.305457c-.1547978.1703627-.3215229.4288215-.3750902.5756812-.0536077.1468642-.1131171.2878631-.1369287.311326-.1071746.1174959-.7740336-1.4098256-.7740336-1.7681499 0-.1233648.2202921-.0528632.9407172.2819577zm2.6614113 1.7094181c-.0297537 0-.3691481.0234913-.7442384.0528632-.3750898.0234913-.9585866.0352774-1.2919954.0176182l-.6073084-.0352364.0357398-.1820926c.0535673-.2819981.2381611-.6109545.5060768-.8929122.1309861-.1409993.2500466-.2584547.2619727-.2584547.0178679 0 .2083651.105726.4286979.2408199.6549312.3936178 1.5301557 1.0456656 1.411055 1.0573946z" fill="#ffcf00" stroke="#000" stroke-width=".666667"/></g><g transform="translate(12.0525 20.8149)"><path d="m32.0876044 1.98308614v7.15562816h-31.39111005v-7.59502502c.03094268.12119372.51154371.27060902.85177951.39183919.61854508.21213691.66497803.21213691 1.26807316-.18180455.81960463-.53033965 1.32991615-.5151757 2.25775517.06057438 1.39179905.86366622 1.76293432.87883017 2.18046182.12123017.30929352-.59090997 1.00517268-.59090997 2.19591259.01518826.51031193.25754329 1.0361145.45451625 1.1907395.45451625.1391767 0 .4794112-.2424239.7423133-.53029914.5876444-.66665276.9278386-.62120182 2.443322.2424239 1.2216814.71214866 1.6392093.7576 1.7629348.16668557.1701176-.74243605.3092931-.86366623 1.0206226-.86366623.4330186.01514775 1.0825059.19696891 1.747484.50001215.5721541.27274775 1.1597988.48484375 1.2680328.48484375.1237251 0 .2629017-.212096.324785-.46968425.0463922-.2575838.2474098-.56062259.4175275-.68181671.4175275-.25758785.8505045-.15151717 2.2113626.53029954 1.3608576.66665276 1.7474847.60607798 1.7474847-.28787524 0-.2727518.2938017-.45456081.742271-.45456081.1391758 0 .7113698.27275585 1.2835239.62120547 1.2371318.72730856 1.5773676.72730856 1.6856015-.01510684.1082332-.7576.6185863-.77276395 1.948502-.09090673.9896873.53029914 2.1006206.74449742 2.1006206.42633519z" fill="#0091c8" fill-rule="nonzero"/><path d="m.81254934 1.8031063c.0308604.12126258.3547617.3031121.69407222.42433012.61698087.21218957.66325213.21218957 1.26478224-.18184952.81747678-.53042471 1.32646395-.51525671 2.25189329.0606315 1.38818722.86382825 1.75835855.87899584 2.17480278.12121802.30849085-.59105215 1.00256306-.59105215 2.19021241.01518826.5090279.2576486 1.03342432.45466612 1.18769012.45466612.1388146 0 .4781251-.24248101.7403442-.53042066.5861197-.66685164.9254306-.6213922 2.4369804.24248061 1.2185098.71227382 1.634954.75773327 1.7583574.16668152.169677-.74256972.3084916-.86382825 1.0179739-.86382825.4318946.01518825 1.0796955.19701711 1.7429485.50012921.570668.27277205 1.1567877.48495757 1.2647814.48495757.123363 0 .2622192-.21218552.3239005-.46983412.0462717-.25760811.2467684-.56071616.4164438-.68197874.4164434-.2576081.8483388-.15155402 2.205664.53046522 1.3572832.66681073 1.742907.60617964 1.742907-.28798461 0-.2727761.2930392-.45462522.7403438-.45462522.1388147 0 .7095243.2727761 1.2801931.62135129 1.2339198.72743818 1.5732715.72743818 1.6812249-.01518825.1079937-.75773732.6169804-.77290532 1.943444-.09092658.9871522.53042471 1.9125815.71231473 1.9125815.39403463" stroke="#fff" stroke-linecap="round" stroke-linejoin="round" stroke-width=".666667"/><path d="m3.32747109 6.28150954c-.2642273.16688405-.23488174.17974764.23488215.11555605.39636173-.05136446.66062935.01283929 1.18912427.30812597 1.01293242.57770694 1.43867962.61625641 2.11398175.20539342.80743533-.47501408 1.13039325-.56488385 1.76163713-.43650512.48447782.08987383.52849534.08987383.33767102-.07701427-.41103369-.37231312-1.21846901-.37231312-1.93782939 0-.82210811.41082288-1.21846942.42364557-2.14332567.01283929-.83678129-.37231757-1.14506643-.39799939-1.55614126-.12837914zm15.15021111.3851366c-.5578405.32098957-1.1744112.57774704-1.3799482.57774704-.2055374 0-.8367813-.24393478-1.3946621-.53920162-.9542005-.50073276-1.0422767-.52637853-1.4826963-.37231352-1.218469.43650512-2.0112328.57770694-2.59846.43650512-.6753009-.15406502-.7339908-.05136851-.1468051.25675746.5725532.29530735 1.0717033.28244416 2.1873835-.06418713.9248978-.28244416.9395701-.28244416 1.3946621-.03851747 1.8350405.96288769 2.3635354 1.01421569 3.317778.34663534 1.1010489-.77031737 1.5561408-.83450856 3.1269137-.38518076.9395698.26962066 1.0129728.26962066 1.4680651.07705478l.4844363-.2182566h-.6018988c-.3376298-.01283929-1.0569902-.15406097-1.5854856-.33380821-.5431672-.17974764-1.1597383-.32094906-1.379949-.32094906-.2348817 0-.83678.24393843-1.4093336.57770653zm8.6321164-.06418754c-.1761516.06418754-.3670162.16692456-.4257468.24393478-.1174205.17974724-.880798.17974724-1.2918724 0-.2495545-.1026965-.2348822-.06418714.0880753.19257033.4991502.3979998.8661664.42368203 1.5120831.07705074.4550915-.25675747.5138221-.25675747 1.0276451-.06418755.8661663.30812638 1.0276451.21825256.3376706-.19256992-.6900148-.41086339-.7780902-.42368608-1.2478549-.25679838zm-4.6096508 1.66900942c-.4257468.28244415-.9395698.5135599-1.1303941.5135599-.1761923 0-.7340323-.17974724-1.203797-.3979998l-.8808392-.41082248-.5578396.28243969c-.3082856.15406502-.7340328.34663535-.9542426.42368608-.2348825.08983332-.4110332.20538896-.4110332.25675747 0 .19257033.4697643.1026965 1.1156801-.23111575.7193604-.37231352 1.1303937-.34663129 1.8350817.07705479.9689149.61625235 1.2772.59056607 2.348863-.15406502.6753026-.47501002 1.1450661-.48787362 2.2901329-.0513685.851494.30812597.9542417.32098957 1.3946613.15406501l.4844363-.17974724-.5138218-.01283929c-.2788992-.01283889-.939529-.19256993-1.4386792-.3979998-.5137818-.21825256-1.086335-.3851362-1.2624873-.3851362-.1761927 0-.6900144.23107524-1.1157213.51351493zm-12.0232978.06419159c-.68997407.55206076-1.13039323.56492436-1.84975361.06418755-.66058862-.46218735-1.10100778-.47501043-1.98184732-.06418755-.49910946.23111575-.60189791.32098552-.41103328.38517671.13209288.05132841.44041875-.01287939.68997409-.11555564.64591584-.29530735.96891449-.25676152 1.79102301.24393478.41103369.24393843.80739418.4493278.86612603.4493278.05873062 0 .38168813-.17970714.71935958-.38513661 1.0276048-.65476132 1.2331422-.68044354 2.2314018-.32094906.9101843.34663129 1.1744528.32094906 1.6148719-.14124193.1908243-.20542987.1761515-.20542987-.1174616-.07701023-.4697643.21825216-.8073942.19256993-1.6882342-.16692455-1.0129731-.41082289-1.1891238-.41082289-1.8644264.12837873z" fill="#fff" fill-rule="nonzero"/></g></g></g><rect height="32" mask="url(#a)" rx="2" width="43.335938"/></g></svg>