<svg height="32" viewBox="0 0 43 32" width="43" xmlns="http://www.w3.org/2000/svg" xmlns:xlink="http://www.w3.org/1999/xlink"><defs><path id="a" d="m0 0h42.666667v32h-42.666667z"/><mask id="b" fill="#fff"><path d="m0 0h43.335938v32h-43.335938z" fill="#fff" fill-rule="evenodd"/></mask><mask id="c" fill="#fff"><path d="m0 0h42.666667v32h-42.666667z" fill="#fff" fill-rule="evenodd"/></mask><mask id="d" fill="#fff"><use fill="#fff" fill-rule="evenodd" xlink:href="#a"/></mask></defs><g fill="none" fill-rule="evenodd"><g fill-rule="evenodd" mask="url(#b)"><g transform="translate(.3346)"><g mask="url(#c)"><use fill="#f7fcff" xlink:href="#a"/><path d="m0 0h42.666667v10.666667h-42.666667z" fill="#009d00" mask="url(#d)"/><path d="m0 10.666667h42.666667v10.666667h-42.666667z" fill="#fff" mask="url(#d)"/><path d="m0 21.333333h42.666667v10.666667h-42.666667z" fill="#f80000" mask="url(#d)"/><path d="m0 0v32l10.6666667-15.797395z" fill="#0075d5"/></g><g fill="#ffd500" mask="url(#c)" stroke="#000" stroke-width=".1"><path d="m2.17774805 1.90575802.33236489.04829545-.26329481.25664901.06215547.36239421-.32545028-.17109934-.32545028.17109934.06215547-.36239421z" transform="matrix(.96592583 .25881905 .25881905 -.96592583 16.867331 13.672689)"/><path d="m3.51108139 1.90575802.33236488.04829545-.26329481.25664901.06215548.36239421-.32545029-.17109934-.32545028.17109934.06215547-.36239421z" transform="matrix(.96592583 .25881905 .25881905 -.96592583 16.912765 13.327579)"/><path d="m4.84441472 1.90575802.33236489.04829545-.26329481.25664901.06215547.36239421-.32545028-.17109934-.32545029.17109934.06215548-.36239421z" transform="matrix(.96592583 .25881905 .25881905 -.96592583 16.958196 12.982496)"/><path d="m6.17774805 1.90575802.33236489.04829545-.26329481.25664901.06215547.36239421-.32545028-.17109934-.32545028.17109934.06215547-.36239421z" transform="matrix(.96592583 .25881905 .25881905 -.96592583 17.003627 12.637412)"/><path d="m7.51108139 1.90575802.33236488.04829545-.26329481.25664901.06215548.36239421-.32545029-.17109934-.32545028.17109934.06215547-.36239421z" transform="matrix(.96592583 .25881905 .25881905 -.96592583 17.049062 12.292303)"/><path d="m8.84441472 1.90575802.33236489.04829545-.26329481.25664901.06215547.36239421-.32545028-.17109934-.32545029.17109934.06215548-.36239421z" transform="matrix(.96592583 .25881905 .25881905 -.96592583 17.094493 11.94722)"/></g><path d="m25.2666667 13.4v3.9333333c0 .7179702-.2910149 1.3679702-.7615224 1.8384777-.4705075.4705074-1.1205075.7615223-1.8384776.7615223-.7179702 0-1.3679702-.2910149-1.8384777-.7615223-.4705074-.4705075-.7615223-1.1205075-.7615223-1.8384777v-3.9333333z" mask="url(#c)" stroke="#373737" stroke-width=".133333"/><path d="m22.3018497 15.9464356c-.1793064 2.1024679-.358452 3.2174105-.5374367 3.344828-.2684772.1911261 1.2865836.2865686 1.4351747.1432843s-.678148-2.7131549-.3937504-3.4881123c.1895984-.5166382.4370895-.7958898.7424732-.8377548-.3849719-.0813713-.6324629-.0445451-.7424732.1104785s-.3290642.1181975-.6571619-.1104785z" fill="#6f3e1d" mask="url(#c)"/><path d="m22.2430378 15.7682317h-.2069262c-.0934005.3651016-.2472117.4563771-.4614337.2738262-.214222-.1825508-.472448-.2416493-.7746779-.1772955.0271038-.2184843.205111-.3711538.5340218-.4580087.3289107-.0868549.5629407-.4829192.7020898-1.1881931.4654517-.1732544.8397586-.0823584 1.1229208.2726879.2831621.3550464.6241973.4568325 1.0231056.3053582.2915505.1657793.3644381.3691617.2186629.610147-.2186629.361478-.591701.625913-.9167348.361478-.2166891-.17629-.6303653-.17629-1.2410283 0z" fill="#009d29" mask="url(#c)"/></g></g><rect height="32" mask="url(#b)" rx="2" width="43.335938"/></g></svg>