<svg height="32" viewBox="0 0 44 32" width="44" xmlns="http://www.w3.org/2000/svg" xmlns:xlink="http://www.w3.org/1999/xlink"><mask id="a" fill="#fff"><path d="m0 0h43.335938v32h-43.335938z" fill="#fff" fill-rule="evenodd"/></mask><g fill="none" fill-rule="evenodd"><g fill-rule="evenodd" mask="url(#a)"><path d="m0 0h43.335938v32h-43.335938z" fill="#21428e" fill-rule="nonzero"/><path d="m18.9594727 0h5.4169921v13.3333333h18.9594727v5.3333334h-18.9594727v13.3333333h-5.4169921v-13.3333333h-18.9594727v-5.3333334h18.9594727z" fill="#f7fcff"/><g fill="#fff"><path d="m6.5398805 1.79838667c0 .05176.03638864.08422666.06458409.10938666.04741222.04232.0716668.06396-.13935213.12201334-.31776076.09256-1.17761347.21598666-1.77575775.20056-.11437979 0-.31551271-.03341334-.49401614-.06306667v-.00001333c-.14239919-.02365334-.27038917-.04492-.32844578-.04492-.078262.00808.09941535.08374666.24373756.1452.13148394.056.23528706.1002.09271182.07078666-.41123096-.09256-.65422369-.12341333-.33644938.04628.24299273.12341334.78507113.12341334 1.55145365.04628.15695734-.01618666.44778211-.06212.72924903-.10658666h.00001354c.25485594-.04025334.50204683-.07930667.63527776-.09396.10731061-.00885334.15301648.03312.1936981.07049333.03018618.02773333.05760971.05292.10537404.05292 1.00938878.04628 2.80384869.01542667 3.58893339-.07713333.6542237-.07713334.8972299-.04628 1.0841433.13884.3738537.35482666-.0186887.66337333-1.0841433.84849333-1.30846094.23141333-1.85053935.43196-2.35524051.87936-1.21499072 1.07989333.20561548 2.29864 2.85992811 2.46834667 1.5514672.10798666 2.5608289.35482666 2.3178497.55537333-.0934702.07713333-1.1215476.20056-2.2991611.27769333-2.5608424.16969334-3.70107863.46281334-4.67307662 1.23417334-.54207841.43196-.72899173.69422666-.72899173 1.04905333 0 .19174667 0 .3090133-.05805661.3807333-.09141175.1129334-.32673943.1129334-.93263.1129334h-.00001355c-.52337624 0-1.25238151-.0617067-1.58884443-.15428-.52338979-.1079867-.59815782-.1079867-.41123097.0771466.37385372.3702534 1.43930837.6942134 2.31784971.6942134.67292585 0 1.04676602.108 1.64492384.4628266 1.1963021.7250667 2.56084243 1.00276 4.82261276.9873334 2.9720327-.0154267 4.6731037-.6633734 4.6731037-1.7586934 0-.81763997-1.1215882-1.2958933-3.4580995-1.46558663-1.177627-.09256-3.49546315.06170666-4.50485193.30854666-.18692686.04628.01868862-.06170666.46731037-.24684.54207841-.21597333 1.43930836-.37025333 2.65429906-.46281333 2.6917441-.18513333 3.90664-.6788 3.90664-1.60442667 0-.89477333-1.1962073-1.40388-3.7570904-1.60442666-2.52346514-.18513334-2.710392-.55538667-.5794692-1.09533334 1.5140764-.37025333 2.280459-.92562666 2.280459-1.68156 0-1.15704-.7663826-1.54272-3.32722498-1.65071066-1.55146719-.06170934-1.92530737-.03085467-2.59823322.231408-.44860821.16970266-.8037733.41652933-.8037733.539956zm2.21901668-.12101334c-.08732192.14112-.32021195.28224-.46575299.28224-.17465737 0-.2037737-.14112-.11643825-.28224.08732192-.16934666.32019841-.28224.46575299-.28224.17465737 0 .2037737.11289334.11643825.28224zm1.84938822 9.46578667c1.2364962.0888933 3.2665275-.1777733 3.5803068-.4799733.1107775-.1066667-.6514475-.38216-1.0021029-.5065867-1.2554692-.32352-3.74088002-.20450667-4.97736266.2577067-.44293391.1777733 1.03348086.6044133 2.39915876.7288533z"/><path d="m6.5398805 20.4650667c0 .0517333.03638864.0842666.06458409.1093333.04741222.0424.0716668.064-.13935213.122-.31776076.0926667-1.17761347.216-1.77575775.2006667-.11437979 0-.31551271-.0334667-.49401614-.0630667-.14239919-.0237333-.27038917-.0449333-.32844578-.0449333-.078262.008.09941535.0837333.24373756.1452.13148394.056.23528706.1001333.09271182.0706666-.41123096-.0925333-.65422369-.1233333-.33644938.0464.24299273.1233334.78507113.1233334 1.55145365.0462667.15695734-.0162667.44778211-.0621333.72924903-.1066667h.00001354c.25485594-.0402666.50204683-.0792.63527776-.0938666.10731061-.0089334.15301648.0330666.1936981.0704.03018618.0277333.05760971.0529333.10537404.0529333 1.00938878.0462667 2.80384869.0154667 3.58893339-.0770667.6542237-.0772.8972299-.0462666 1.0841433.1388.3738537.3548-.0186887.6633334-1.0841433.8485334-1.30846094.2313333-1.85053935.4318666-2.35524051.8793333-1.21499072 1.0798667.20561548 2.2986667 2.85992811 2.4682667 1.5514672.108 2.5608289.3549333 2.3178497.5554666-.0934702.0770667-1.1215476.2005334-2.2991611.2776-2.5608424.1697334-3.70107863.4629334-4.67307662 1.2342667-.54207841.432-.72899173.6941333-.72899173 1.0490667 0 .1917333 0 .3089333-.05805661.3806666-.09141175.1129334-.32673943.1129334-.93263.1129334h-.00001355c-.52337624 0-1.25238151-.0617334-1.58884443-.1542667-.52338979-.108-.59815782-.108-.41123097.0772.37385372.3702667 1.43930837.6941333 2.31784971.6941333.67292585 0 1.04676602.108 1.64492384.4628 1.1963021.7252 2.56084243 1.0028 4.82261276.9874667 2.9720327-.0154667 4.6731037-.6634667 4.6731037-1.7588 0-.8176-1.1215882-1.2958667-3.4580995-1.4656-1.177627-.0925333-3.49546315.0617333-4.50485193.3085333-.18692686.0464.01868862-.0616.46731037-.2468.54207841-.216 1.43930836-.3702666 2.65429906-.4628 2.6917441-.1850666 3.90664-.6788 3.90664-1.6044 0-.8948-1.1962073-1.4038666-3.7570904-1.6044-2.52346514-.1852-2.710392-.5554666-.5794692-1.0953333 1.5140764-.3702667 2.280459-.9257333 2.280459-1.6816 0-1.1570667-.7663826-1.5426667-3.32722498-1.6506667-1.55146719-.0617333-1.92530737-.0309333-2.59823322.2313334-.44860821.1697333-.8037733.4165333-.8037733.54zm2.21901668-.1210667c-.08732192.1412-.32021195.2822667-.46575299.2822667-.17465737 0-.2037737-.1410667-.11643825-.2822667.08732192-.1693333.32019841-.2821333.46575299-.2821333.17465737 0 .2037737.1128.11643825.2821333zm1.84938822 9.4658667c1.2364962.0888 3.2665275-.1778667 3.5803068-.48.1107775-.1066667-.6514475-.3821334-1.0021029-.5065334-1.2554692-.3236-3.74088002-.2045333-4.97736266.2576-.44293391.1778667 1.03348086.6044 2.39915876.7289334z"/><path d="m30.9074615 1.79838667c0 .05176.0362938.08422666.0645976.10938666.0473987.04232.0716397.06396-.1393521.12201334-.317842.09256-1.1776541.21598666-1.7758255.20056-.1144339 0-.3155398-.03341334-.4940297-.06306667v-.00001333c-.1423314-.02365334-.2703079-.04492-.3284051-.04492-.0782756.00808.0994018.08374666.2437646.1452.1314975.056.2352329.1002.0926306.07078666-.4111497-.09256-.6542372-.12341333-.3363952.04628.2429521.12341334.7850576.12341334 1.5514265.04628.1569574-.01618666.4478499-.06212.7292626-.10658666.2548695-.04025334.5020198-.07930667.6352778-.09396.1072564-.00885334.15303.03312.1936574.07049333.0301998.02773333.057691.05292.105496.05292 1.009321.04628 2.8038351.01542667 3.5888927-.07713333.6542372-.07713334.8971893-.04628 1.0840756.13884.3739079.35482666-.0186886.66337333-1.0840756.84849333-1.3084744.23141333-1.8505799.43196-2.3553082.87936-1.2148959 1.07989333.2057103 2.29864 2.859901 2.46834667 1.551562.10798666 2.5608831.35482666 2.317931.55537333-.0934431.07713333-1.1215882.20056-2.2991069.27769333-2.5608831.16969334-3.7011599.46281334-4.6731037 1.23417334-.5421055.43196-.7289918.69422666-.7289918 1.04905333 0 .19174667 0 .3090133-.0580972.3807333-.0914118.1129334-.3267801.1129334-.9326706.1129334-.5234169 0-1.2524086-.0617067-1.5888039-.15428-.5234168-.1079867-.5981713-.1079867-.4112851.0771466.3739079.3702534 1.4392948.6942134 2.317931.6942134.6729258 0 1.0466983.108 1.6448697.4628266 1.1963427.7250667 2.560883 1.00276 4.8226127.9873334 2.9720327-.0154267 4.6731037-.6633734 4.6731037-1.7586934 0-.81763997-1.1215882-1.2958933-3.4580724-1.46558663-1.1776541-.09256-3.4954496.06170666-4.5049061.30854666-.1868862.04628.0186886-.06170666.467351-.24684.5421055-.21597333 1.4392948-.37025333 2.6543262-.46281333 2.6917034-.18513333 3.9067347-.6788 3.9067347-1.60442667 0-.89477333-1.1963427-1.40388-3.7572258-1.60442666-2.5235058-.18513334-2.710392-.55538667-.5794827-1.09533334 1.5140493-.37025333 2.2805537-.92562666 2.2805537-1.68156 0-1.15704-.7665044-1.54272-3.327252-1.65071066-1.551562-.06170934-1.9253345-.03085467-2.5982603.231408-.4486624.16970266-.8037462.41652933-.8037462.539956zm2.2189354-.12101334c-.0872136.14112-.3201442.28224-.4657259.28224-.174698 0-.2036789-.14112-.1164653-.28224.087349-.16934666.3202796-.28224.4658613-.28224.1745626 0 .2036789.11289334.1163299.28224zm1.8494966 9.46578667c1.2364284.0888933 3.2664462-.1777733 3.5802255-.4799733.1107775-.1066667-.6513933-.38216-1.0020081-.5065867-1.2555234-.32352-3.7409748-.20450667-4.9774033.2577067-.4429745.1777733 1.0334267.6044133 2.3991859.7288533z"/><path d="m30.9074615 20.4650667c0 .0517333.0362938.0842666.0645976.1093333.0473987.0424.0716397.064-.1393521.122-.317842.0926667-1.1776541.216-1.7758255.2006667-.1144339 0-.3155398-.0334667-.4940297-.0630667-.1423314-.0237333-.2703079-.0449333-.3284051-.0449333-.0782756.008.0994018.0837333.2437646.1452.1314975.056.2352329.1001333.0926306.0706666-.4111497-.0925333-.6542372-.1233333-.3363952.0464.2429521.1233334.7850576.1233334 1.5514265.0462667.1569574-.0162667.4478499-.0621333.7292626-.1066667.2548695-.0402666.5020198-.0792.6352778-.0938666.1072564-.0089334.15303.0330666.1936574.0704.0301998.0277333.057691.0529333.105496.0529333 1.009321.0462667 2.8038351.0154667 3.5888927-.0770667.6542372-.0772.8971893-.0462666 1.0840756.1388.3739079.3548-.0186886.6633334-1.0840756.8485334-1.3084744.2313333-1.8505799.4318666-2.3553082.8793333-1.2148959 1.0798667.2057103 2.2986667 2.859901 2.4682667 1.551562.108 2.5608831.3549333 2.317931.5554666-.0934431.0770667-1.1215882.2005334-2.2991069.2776-2.5608831.1697334-3.7011599.4629334-4.6731037 1.2342667-.5421055.432-.7289918.6941333-.7289918 1.0490667 0 .1917333 0 .3089333-.0580972.3806666-.0914118.1129334-.3267801.1129334-.9326706.1129334-.5234169 0-1.2524086-.0617334-1.5888039-.1542667-.5234168-.108-.5981713-.108-.4112851.0772.3739079.3702667 1.4392948.6941333 2.317931.6941333.6729258 0 1.0466983.108 1.6448697.4628 1.1963427.7252 2.560883 1.0028 4.8226127.9874667 2.9720327-.0154667 4.6731037-.6634667 4.6731037-1.7588 0-.8176-1.1215882-1.2958667-3.4580724-1.4656-1.1776541-.0925333-3.4954496.0617333-4.5049061.3085333-.1868862.0464.0186886-.0616.467351-.2468.5421055-.216 1.4392948-.3702666 2.6543262-.4628 2.6917034-.1850666 3.9067347-.6788 3.9067347-1.6044 0-.8948-1.1963427-1.4038666-3.7572258-1.6044-2.5235058-.1852-2.710392-.5554666-.5794827-1.0953333 1.5140493-.3702667 2.2805537-.9257333 2.2805537-1.6816 0-1.1570667-.7665044-1.5426667-3.327252-1.6506667-1.551562-.0617333-1.9253345-.0309333-2.5982603.2313334-.4486624.1697333-.8037462.4165333-.8037462.54zm2.2189354-.1210667c-.0872136.1412-.3201442.2822667-.4657259.2822667-.174698 0-.2036789-.1410667-.1164653-.2822667.087349-.1693333.3202796-.2821333.4658613-.2821333.1745626 0 .2036789.1128.1163299.2821333zm1.8494966 9.4658667c1.2364284.0888 3.2664462-.1778667 3.5802255-.48.1107775-.1066667-.6513933-.3821334-1.0020081-.5065334-1.2555234-.3236-3.7409748-.2045333-4.9774033.2576-.4429745.1778667 1.0334267.6044 2.3991859.7289334z"/></g></g><rect height="32" mask="url(#a)" rx="2" width="43.335938"/></g></svg>