<svg height="32" viewBox="0 0 43 32" width="43" xmlns="http://www.w3.org/2000/svg" xmlns:xlink="http://www.w3.org/1999/xlink"><defs><path id="a" d="m0 0h24.376465v18.666667h-24.376465z"/><linearGradient id="b" x1="50.739982%" x2="54.906196%" y1="29.732401%" y2="27.385417%"><stop offset="0" stop-color="#d5dfff"/><stop offset="1" stop-color="#fff"/></linearGradient><mask id="c" fill="#fff"><path d="m0 0h43.335938v32h-43.335938z" fill="#fff" fill-rule="evenodd"/></mask><mask id="d" fill="#fff"><path d="m0 0h42.666667v32h-42.666667z" fill="#fff" fill-rule="evenodd"/></mask><mask id="e" fill="#fff"><use fill="#fff" fill-rule="evenodd" xlink:href="#a"/></mask></defs><g fill="none" fill-rule="evenodd"><g mask="url(#c)"><g fill-rule="evenodd"><g fill="#2b409a" mask="url(#d)" transform="translate(.3346)"><path d="m0 0h42.6666667v32h-42.6666667z" transform="translate(0 .1333)"/></g><g><use fill="#2b409a" xlink:href="#a"/><g mask="url(#e)"><g fill-rule="nonzero"><path d="m1.34847048 3.28505196 5.3641094-2.31626725 21.84834942 17.13103699 2.8294451 3.4420421-5.7361432.7741648-8.9114196-7.382254-7.17277672-4.97391428z" fill="#f7fcff" transform="matrix(1 0 0 -1 -4.0627 20.6181)"/><path d="m2.08282512 2.76731119 2.73276605-1.34416892 25.55874913 21.54362063h-3.8371216z" fill="#f50100" transform="matrix(1 0 0 -1 -4.0627 21.7233)"/><path d="m1.34847048 3.28505196 5.3641094-2.31626725 21.84834942 17.13103699 2.8294451 3.4420421-5.7361432.7741648-8.9114196-7.382254-7.17277672-4.97391428z" fill="#f7fcff" transform="matrix(-1 0 0 -1 28.4393 20.6181)"/><path d="m1.53150033 3.09890547 2.73276605-1.34416891 10.88318022 9.22394324 3.2266294 1.030569 13.2885532 10.4993758h-3.8371216l-13.2810872-10.2501652-3.5277507-1.2357627z" fill="#f50100" transform="matrix(-1 0 0 -1 28.4393 21.5967)"/></g><path d="m14.5215684-1-.0005052 7.99909212 10.8554016.001v4.66663598l-10.8554016-.0006667.0005052 8.0006053h-4.70855813l-.00000913-8.000605-10.81300114.0006666v-4.66663582l10.81300114-.001.00000913-7.99909248z" fill="#f50100" stroke="#f7fcff" stroke-width="2"/></g></g><g transform="translate(25.7307 8)"><path d="m7.20187093 16.7352594c-.08322731 0-.38519867-.1601498-.38519867-.1601498s-.21874403.3408425-.33334499.3605468c-.11460096.0201235-.70808579-.2100395-.70808579-.2100395s-.41648516.3202997-.51021393.3001762c-.06248585-.0131362-.4130573-.0865033-1.05171437-.2201013l-.52067181-.320719s-.29155705.4607454-.30197136.4506836c-.00694287-.0067079-.29849991-.0634451-.87467113-.1702117 0 0 .26031412-.350485.26031412-.3605468s-.12497169-.0503089-.12497169-.0503089l-.18741397.1505074-.77057163.0700132.18745754-.521116.30197136-.4406218 3.69659995-3.4566379 1.822286 3.2361174-.27059771.9717995s-.14597461.3706086-.22920192.3706086z" fill="#6a4c2d" fill-rule="nonzero"/><path d="m3.67058034 16.0811674c.12873143.1533019 1.82491279 1.8603417 2.09986795 2.6679488.18330343.5384048-.5601939.4637437-2.23049201-.2239831 2.10320455-1.3450263 3.68013276-2.0175394 4.73078464-2.0175394 1.05065189 0 2.60844488.6725131 4.67337888 2.0175394-1.3856649.9607756-2.0713824 1.1382568-2.0571526.5324435.0213447-.9087199.9756237-2.6988004 2.1145584-2.9764092" fill-rule="nonzero" stroke="#fb0" stroke-linecap="round" stroke-linejoin="round" stroke-width=".666667"/><path d="m14.2761926 16.213305-.5181009-.189916-.4588396-.5982562-1.8998487-.1375108s-.5773622-.155119-1.73208671-.465357l-.73030878.4796111.39324322.5056041.96100487.3481181z" fill="#f7fcff" fill-rule="nonzero"/><path d="m6.68836206 5.15481371c.01763095.0436845.40500834-.03377403.48736416.19471204.41700806-.60622177.90634981-.02808911.90634981-.02808911l.41177911-.48003038s.46494002.43349468.46494002.43349468l.42659445-.03270076s.44576724 1.03007393.44576724 1.03007393l-3.51777017-.06498228c.23822962-.73077508.36322141-1.08160112.37497538-1.05247812z" fill="#656263" fill-rule="nonzero"/><path d="m10.3348782 9.53857689c-.0283235-.32616911-.3220156-.36432-.48585581-.35341974-.1642759.01090025-.31112199.14673417-.31112199.14673417l-.54250265-.33161924s.27146919-1.64761519.5594967-1.75074835c.27364792-.18991595.32201563-.27208709.32201563-.31526886 0-.04360101-.10152861-.22011409-.10152861-.22011409l-1.76912509-.20123545-1.67282543.19033519s-.12985204.25784574-.11285798.33414751c.01699406.07588253.02265875.15763443.32201563.38067038.33160202.2452557.5594967 1.65306532.5594967 1.65306532s-.46886172.22261671-.49718515.19536608c-.02832343-.0268314-.16950485-.05408203-.24314577-.04318178-.07320517.01090026-.31635094.1303838-.31635094.44020253 0 .31023798.24314577.48967294.24314577.48967294s1.5991845 1.1538984 1.83666558 1.5777505c.23181639-.5110542 1.75169529-1.6649525 1.93252951-1.75215457.0736409-.04318178.3054573-.11403342.2771339-.44020254z" fill="#656263" fill-rule="nonzero"/><path d="m11.9310125 8.00206044c.1329022-.08510582 1.0179005-.12786836 1.2305441 0 .2122079.12786835.2919492.75798683.2919492.75798683s.1329023.22135899.1416172.38318583c.0087149.16182683.0265804.27250633.0265804.27250633s.7080858.88585517.7168007 1.68618527c.0797414.5450127.0618758 2.001035-.1590469 2.5544324-.0091507.6900699-.3098148 1.1411727-.3098148 1.1411727s.0705907.1190643.0618758.2469327c-.0091506.1278683-.0797413.2469326-.0797413.2469326-.4424266.1872608-.6636398.2808912-.6636398.2808912l-.7346663-.1190643-.8322731-2.3930249.1947781-4.04483236.0531609-.20417012-.0884563-.54501266s.0178656-.1790157.1503321-.26412152z" fill="#000" fill-rule="nonzero"/><path d="m7.12605128 10.1255136s.89545618 0 .99219159.2796334c.16950484-.3727048.94382388-.3492273.94382388-.3492273.46799023-.0155119.93598047-.0310238 1.40353495-.0465357.0082792 1.0866714.0161226 2.1733428.0244017 3.2600142-.2740836 1.2648486-1.22618667 2.1578308-2.27502512 2.538082-1.25058843-.3882167-2.04103003-1.404875-2.29899113-2.5615595-.04880345-1.0321701-.09717116-2.0647595-.14553886-3.0969296.45186766-.0079656.90373533-.0155119 1.35560299-.0234775z" fill="#f7fcff" fill-rule="nonzero"/><path d="m6.25325385 10.1368331 1.97436104 5.0619099 1.78350471-5.1721702c-.5533963.0343778-1.74036595-.08384806-1.88764779.4016324-.22833043-.43433312-1.47717588-.2590906-1.87021796-.2913721z" fill="#006b00" fill-rule="nonzero"/><path d="m5.81822877 13.2743138c.30748684-.1196972.53733574-.1196972.6895467 0 .22831645.1795458.41537592-.0148762.41537592-.1231831 0-.1083068.36253594-.4801145.36253594-.1784657s-.11284469.4719645.20580721.4719645 1.75357059-.4166818 2.09765732-.2934988c.34408673.1231831.60739104.0925469.51992144-.0842004-.0874696-.1767474-.31226333-.2872144-.74513316-.1907399-.43286983.0964746-.33071255.1907399-.70483149.1907399s-.79050986-.0942653-.79050986-.0942653.11697596-.1585048.54408643-.0457582c.42711048.1127466 1.01623865-.1396293 1.17646664-.1396293.160228 0 .60119704-.0075616.64490484.0889129.0437078.0964746.30997.1850021.107013.2749403-.2029569.0899383-.53762365.146275-.3073582.2615053.2302655.1152303.7597873.0930229.7853012.2128846.025514.1198618.2764785.2988508.1757551.2988508-.1007233 0-.2827503.1688057-.4522513.1174072s-.189436-.0965293-.0268998-.1381682c.1625361-.041639.1609548-.2167417.0268998-.2167417s-.0686355.061348-.3738616 0c-.30522612-.0613481-.70920344-.1295483-.68491541 0 .02428804.1295482.22301638.3284071-.14363164.3549099s-.5382707.1329086-.60963495.04722c-.07136425-.0856885-.3264404-.1998669-.12586425-.23648.20057616-.036613.39225084.1244493.46449308.0981511.07224224-.0262983.23598658-.0409377.09884004-.1523694-.13714655-.1114316-.36325445-.1770349-.15363469-.2604406s.04420229-.0851188-.35519843.0876609-.62154649.3196118-.97218609.2988508c-.35063959-.020761-.4819762.0072466-.5946748-.020761-.1126986-.0280077-.66158682.3094577-.81964559.2238129-.15805877-.0856447-.66832067-.1185029-.57646322-.2238129.09185744-.1053101.21518095-.1595283.3525407-.1053101.13735976.0542183.27384487.1084366.36647035.0542183.09262547-.0542183.36012738-.240264.29284225-.2774614-.06728514-.0371975-.00220316-.1624212-.3831717-.1624212s-.51489919.1395595-.60533524.0516267c-.0602907-.0586219-.02737622-.1219382.09874346-.1899489z" fill="#ffd100" transform="matrix(-0 1 -1 -0 21.8161 5.1125)"/><g fill-rule="nonzero"><g fill="#1e5aa6" transform="translate(4.5094 9.9905)"><path d="m5.51299925.03689316.26624026-.0062886-.4753979.57939038.57039033.64059949-1.12204363 1.3600162 1.05886059 1.22585924c-.11634394.27460254-.25142492.52446988-.43138765.75044051l-.60830015-.6468881 1.10287084-1.32312304-.9063498-.98814987z"/><path d="m1.42396726.15889215.53248051.55465519-.56385415.67707342 1.17259005 1.22627848-.96996858 1.25017519c.11634394.27460253.28323431.57939038.46276129.80494177l.57692651-.70138936-1.18522667-1.26862178.86843998-1.06109772-.6087359-1.4883038z"/><path d="m3.02794496 3.44615696-.41831529.53662785 1.49591292 1.66522329c.26406153-.12828759.47147619-.27460253.6976279-.45110278l-.77998372-.86615089.31722243-.89675544.45622511.50602329-1.4261937 1.75074835c-.23878831-.09768304-.50284984-.25028658-.74163815-.43936405l.75427476-.92065215z"/></g><path d="m12.7101247 9.13484829c0 .08510582.0941858 5.10943631.1975528 5.06148331.2566539-.1194836.3157549.1412914.3157549.1412914s.0884563.826323-.1329022.9370025c-.265514.1361134-.456331.2191783-.5724509.2491948l-.3831381-.2747685s-.3895561-.5366278-.4780124-.7751757c-.0884563-.2381286-.1947781-1.3025802-.1594827-1.5327433.0352953-.2297438.0618758-1.5755058.044446-1.6434227-.0178656-.0683362-.0884563-1.19232-.044446-1.36253169.044446-.17021164.3185297-.91981367.3098148-.91981367 0 0 .9028638.03437772.9028638.11948355z" fill="url(#b)"/><path d="m11.8251264 8.27456677c.1856274 0 .3272446.15344202.3716906.28969519.0087149.05953215-.0178656.10229468-.0091507.21297417.0091507.1106795-1.3451451.02515443-1.35386.01676962 0 0 .6283444-.58735594.9913201-.51943898z" fill="#ff7000"/><path d="m13.3118887 15.5555166s.4248514-.0939098.5398882-.2385478c.0710264-.0511473.442717.5366278-.5398882.2385478z" fill="#fff" stroke="#000" stroke-linejoin="round" stroke-width=".666667"/><path d="m12.6065716 8.6138047c0 .03681953-.0303163.06666713-.0677124.06666713s-.0677124-.0298476-.0677124-.06666713c0-.03681861.0303163-.0666662.0677124-.0666662s.0677124.02984759.0677124.0666662z" fill="#000"/><path d="m9.23680053 7.87838449s.70503557.73409013 1.16126067.72612456c.0827916.21548962-.2074146.41588658-.3233228.51147341-.23225218-.07169012-.44228132.01299646-.981298-.62508759.03355237-.40708253.15163929-.59657924.14336013-.61251038z" fill="#f7fcff"/><path d="m12.0399487 4.18403715c.0662333.47080709-.0039792.58012353-.035135.77782441-.0311558.19770087 1.2247919.27069609 1.5481147-.1204553-.0331166.17566177-.4101088.89046684-2.1186653.88250127.6470814.59070987-.206979 1.06151696-.5721334.91771746.671919-.49470379-.1904206-.78984911-.6714831-.47080708.0910707-.27124861.7629896-1.63545722 1.8493021-1.98678076z" fill="#f7fcff"/><path d="m10.215484 6.15488677s.4061145-.25531747.779548-.00796557c-.2828571.22751535-.2213557.82215027-.0934699 1.3402675.0704272-.19867595.3733308-.93532843 1.0551593-.94911611.0228145 1.01539387-.7320097 1.50432561-.8790918 1.58984705-.1144894 1.16651814-1.0116061.98722434-1.0116061.98722434-.0248375.00796557.4148293-.28717974.3568752-.47877266-.1411814-.77391797-.70503558-.63053772-.74643136-.47877265-.07835812-.07169013-.52245838-1.02037052.53901666-.74912191-.44794594-.79781468-.0248374-1.19783101 0-1.25358999z" fill="#00f"/><path d="m6.88987744 8.08590854s-.68804151.57435949-1.07803337.39073215c-.29020623.1676962-.63017456-.12744911-.63017456-.12744911s.39792242 1.41200202 1.82455187.39073215c-.02483747-.31107646-.09978563-.63011848-.11634394-.65401519z" fill="#f7fcff"/><path d="m5.80356491 8.45274398c.0579541-.29514531.2984854-.43894481.48934175-.15973063.25708961.04821266.51417921-.96509165-.39827102-.79781468.25708961-1.32438076-.51396134-1.81908456-.51396134-1.81908456s-.27364792 1.46818025-.14928627 1.73942886c.12440522.27124861-.1824029-.50266937-1.1692784-.71815899-.01660188 1.10931038 1.10295799 1.62791089 1.10295799 1.62791089s.31517443.27921418.63849729.12744911z" fill="#00f"/><path d="m4.87059807 6.85180262c-.29024981.08762126-.99606087-.33133813-.54824564-.87425459-1.46785093-.03186228-2.26700472-1.25280845-1.77778119-1.01999595.48922354.2328125.83878759-.26328303 1.20368053 0-.44781523-.39869772.15629244-.71775595.15629244-.71775595s1.25224426.35928912 1.47613009 1.42835241c-.07464314.20752405-.10780334.57435949-.12440523.55842835 0-.00796557-.77540142-.01327756-.385671.62522573z" fill="#f7fcff"/><path d="m7.21407179 1.90833068c.00653618-.03659969.94469537-.35385477 1.00787841-.87830886.04212203-.34963606.03790983-.40656892-.01263661-.17079858 0 0 .26013983-.23783514.1651474-.36595504-.09542818-.1280612-.06361879.1647196-.21569383.15859869-.15207504-.00612092-.06971921-.31715545-.06971921-.31715545s-.01263661-.03659969-.05708261-.05489535c-.06361878.00609995-.20915765-.12808636-.20915765-.12808636s-.09499243-.12198222-.177784.26226848c.044446.40866726.31722243.32934695.31722243.59775311 0 .26835585-.24096703.4757122-.31068625.48183311-.06971922.00607899-.044446-.22567716-.044446-.22567716s-.03790982-.10979909-.06318304-.10979909c-.02527321 0 .13943843-.0243998.11416522-.32935534-.05708261-.36595504-.10152861.08539929-.20305722.06707848-.10152861-.01827888-.02527321-.33543433.01263661-.37203402.03790982-.0365997-.044446-.18907747-.26624025.20127736-.01917279.18907747-.044446-.04879959-.088892-.03659969-.07581965.15247777-.06318304.26227686.044446.40255473.15861121.14027787.26013982.28055575.25360364.35375514-.00610043.07319939-.088892.23787706-.20262147.23787706-.11416521 0 .00610043-.20127736 0-.26839777-.00653617-.06707848-.19652104-.31103453-.19652104-.31103453s-.133338-.20739828-.12070139-.21347727c.01263661-.00612091-.30415008.29883464-.11416521.45743332-.14553887-.01827889-.15817547.0365997-.15817547.0365997 0 .07319939.19652103.10367817.22179425.23175615.02527322.1281199-.20305722.20127736-.20305722.20127736s.09542818.12807798.36123269-.12195706c.00653618.15855676-.10109286.26835585-.10109286.26835585.08845625.03861205.15817547.03454542.17081208.13419889 0 0 .13987417-.15252809.1459746-.18908586z" fill="#cdad56"/><path d="m6.19834997 2.09740815s-.11852266-.16924739-.12375161-.20257701c-.00566468-.0332877-.58302694.04209175-.85615196-.63548476-.17769685-.32189286 0-.13319271 0-.13319271l.0107629-.15541246s-.1890698-.22253286-.10832623-.33908172.04749622.14983656.15137785.15038157c.12911127-.00553397.05921776-.28860516.05921776-.28860516s.01071933-.0332877.04845485-.04993155c.0536838.00553398.0759068.17251747.1242745.18362735.04836771.01110987.14858908-.19649803.17996273-.23919348.044446-.00610834.04270302-.17198504.11285798.17764897-.03747408.37186633-.35774673.29971504-.35774673.54392263 0 .24416567.20436445.43286582.26362579.43844172.05926133.00553398.03790982-.205344.03790982-.205344s.03224514-.09990501.05359665-.09990501c.02178725 0-.18824188.03877975-.16645463-.23871554.04836771-.25980334.155561.01672769.24183853.00004192.08627753-.01664385-.01002214-.2747283.01481533-.31413691.00566469-.03940861.13246651-.208656.18170571.16484537.01612257.1720563.11372947-.14807575.15120355-.13696588.06492602.13872669-.02832343.32403099-.11982991.45168972-.13464523.12761681-.19564954.26747545-.18998486.33409276.00522894.0665754.03703834.14933347.13420949.14933347.09673541 0 .03268088-.11604577.03790983-.17708719.00522894-.06104142.16689037-.25867139.16689037-.25867139.03180939-.04875767.00522894-.13990056.03878131-.18203423.05272516.00054501.07451241-.06988739.12810906.12434674.05403239.19423412.11852267-.12765874.11852267-.12765874s.0753839.23867362-.08627753.3829762c.1237516-.01664384.13464523.0332877.13464523.0332877 0 .06661732-.05882559.09432911-.08061284.21087798-.02178726.11654886.06449027.18316617.06449027.18316617s-.08061284.11654886-.30676454-.11101488c-.00566469.14430258.08627752.24420759.08627752.24420759-.07581964.03517428-.13464523.03144304-.14553886.12212476z" fill="#cdad56"/><path d="m7.68598373 1.96604525c-.13856694.39857195-.63836656.2473519-.63836656.2473519s.01655831.19947463-.03311663.29518724c.04092755.02969636.33637264.25347924.64664572.31120223.44620502.08301166 1.35996045-.14408659 1.666725.19146713.2045097.22370249.30139036.42583231.29064198.60638947-.26613181.02992427-.36221918.09101883-.28826211.18328368.07203378.08986546.27066904.15664553.28826211.24952634.05599875.29563963-.1872737.82757812-.09978563 1.02740467-.13813119.01215797-.14902482.15134582-.14902482.15134582-.00522894.10536911-.14074567.12675038-.40655018.0641438.16587364-.40973772.25432989-.6624.26536877-.75798684.01655831-.14379949-.17429804-.39911696-.32332287-.39911696-.14946056 0-.2570896.45487595-.2570896.45487595s-.07451241.34293873-.04967494.37480101-.09978563-.11151797-.09978563-.11151797-.03914819.13929768-.10332054.22345519c-.07217974.09465861-.17032738.13541468-.17032738.13541468s-.07451241-.20752405-.04967494-.28717975c.02483747-.07965569.40655017-.39073215.37343355-.61418734-.01480769-.09861757-.02794196-.27074943-.15343123-.32786554-.15885386-.0723019-.45011142-.0195652-.62611675-.05523643-.09673541.16216222-.14118141 1.0530483-.07494816 1.10922653.066669.05575899-.16558314.17524253-.16558314.17524253l-.27364792.00796557c-.00435745-.12074127.16122569-.45068354.16122569-.72989772s.02091576-.57846805.02091576-.57846805-.18393336.0455839-.28192707.22337134c-.08216714.1490737-.08206428.43084508-.07451242.47080709.01655832.08762126.09934989.33497316.07451242.40708253-.02483748.07169013-.45578938.16727696-.45578938.16727696l-.01699406-.23142076s.1825772-.11151797.1825772-.39073215.01655831-.67833114.00827916-.70222785c-.00496672-.01436094-.14934638-.62537799-.33933909-1.03724293-.12671105-.27468339-.3222068-.40054556-.33214411-.4228879-.02483747-.05584284-.02483747-.11969317-.02483747-.11969317s-.27408366.19150907-.59740653-.21540577c.29630667-.24328527.61396485-.06385033.61396485-.06385033s.08279156-.22341327.46406852-.2074402c.38171271.01597306.45622512.22341326.43966681.19947463 0 0 .28192707-.23938633.58869162-.02393863z" fill="#923f00"/><path d="m9.18363963 6.11715512c.00653618 0 .70416408.02012355.711136.37899342.00697192.35845063-.21395084.26579848-.22092276.26579848-.00697193 0-.511129-.05995139-.511129-.05995139z" fill="#00f"/><path d="m8.50649175 6.01736891s.87018296-.00628164.82181525.35887684c-.0483677.36557773-.26929047.29262988-.26929047.29262988l-.42136551-.03353924z" fill="#f7fcff"/><path d="m8.01627852 5.97754803.50415707.03982785s.30371434.03982785.29020624.31904203c-.01394384.27921417-.311122.28592202-.311122.28592202l-.49021323-.02683139z" fill="#00f"/><path d="m6.8354093 6.11715512c-.00697192 0-.70459982.02012355-.71157174.37899342-.00653618.35845063.21438659.26579848.22135851.26579848s.511129-.05995139.511129-.05995139z" fill="#f7fcff"/><path d="m7.51212144 6.01736891s-.87018296-.00628164-.82181525.35887684c.0483677.36557773.26929047.29262988.26929047.29262988l.42136551-.03353924z" fill="#00f"/><path d="m8.00277042 5.97754803-.50415708.03982785s-.30415008.03982785-.29020623.31904203c.01394384.27921417.31068625.28592202.31068625.28592202l.49021324-.02683139z" fill="#f7fcff"/><path d="m9.86819518 9.55283107c.13333802.04276253.03180939.44062177-.03180939.47751493l-.48367706-.0184466s.36253992-.51398884.51548645-.45906833z" fill="#5e0043"/><path d="m6.86765444 10.1037131c-.11416521-.15302279-.27974835-.57519798-.43225914-.45906836-.13377374.04276253-.03180939.44062176.0318094.47751496z" fill="#5e0043"/><path d="m6.2671977 7.15142145 1.74472337 1.09841013 1.57129682-1.01665823s.32768031-.17398481.29935688-.29891848c-.02788769-.12535291-.14118141-.07630177-.19782828-.05450127-.05621111.02180051-1.64450199 1.10386026-1.64450199 1.10386026l-1.68981949-1.02797773s-.12418735-.03773164-.1468461.03815089c-.02265874.07630177.04662473.11948354.06361879.15763443z" fill="#b4b6b9"/><path d="m12.1162041 15.2364746s-.7626125.2266681-.5501082.2330977c.10483.0031718.4097723.0031718.9148269 0z" fill="#ff7000"/><path d="m12.4251474 15.484665-.6771479.0188658s-.1703763.1488304-.1812699.1844658c-.0104579.0360547.1119865.0461165.1119865.0461165.4656662.1165489.8746856.1370916 1.2270581.0616284.266676-.0897175.3133008-.1974623.1263661-.2628638-.1864989-.0654016-.601764-.0456973-.6069929-.0482127z" fill="#ff7000"/><path d="m4.59180137 9.31973335s-.0881948.26663696 0 .39995544c.08815124.13331848.642419 1.21202431.642419 1.21202431s.37805245-.4485873.51661939-.4607453c.13856694-.0117388.0753839 1.1638116.0753839 1.1638116s-.22658745.2058471-.36515439.1936891c-.13865409-.0121579.33988117.4607454.32724457.8607008-.01263661.3999554-.62965167 2.3875747-.85641342 2.4236294-.22671817.0364739-.42245104-.3742575-.42245104-.7292612s.23351197-.9187733.22091894-1.0764077c-.01259304-.1576344-1.1267941 1.6892766-1.19422815 1.9776409-.01278409.0546679.06050655.2522994.06050655.2522994s-.43661659.0352162-.34009905.5819058c-1.28488156-.4364294-1.91470753-1.1877084-1.90211449-1.9511453.00482994-.2926661-.27858879-.9811479 0-1.7412733.44852576-1.2237961 1.54162743-2.6206032 1.54942241-2.75508117.01259304-.2184243.10074427-.31526886.1133373-.43642936.01259304-.12116051-.0377791-.73954026.08819481-.84854279s.78098594-.37563949.94473894-.36348152c.16375301.01215798.30231995.12116051.30231995.12116051s.61727651 0 .65505561.23016304c.0377791.23058228-.12597391.31526886-.12597391.31526886s.08819481.32742683-.28972692.63011848z" fill="#8a9396"/><path d="m5.24428608 10.9614792s.41417572-.500154.51047538-.4817074c.09629967.0184466.06710475 1.1579423.06710475 1.1579423s-.30807179.2221975-.37517653.2129742c-.06758406-.0092233.34641735.5374663.33683096.7412172s-.01917278.2037509-.01917278.2037509 0-.120322-.09629967-.3148496-.03878131-.4171443-.6644677-.908075c-.15407947-.3056263.30811536.1853043.40432788.1110988.09629966-.0737864-.17325225-.7131281-.16362229-.7223514z"/></g><path d="m4.99878729 8.38021537s-.48263126-.13709164-.64878087.09139444c-.16614961.22806683-.12658395.35761215-.03956565.38025113"/><path d="m4.95917807 16.1940199c.13877028.0944689.3683789.1696527.68882584.2255514-.78721709.2087818-1.58073796.1105398-2.38056261-.2947261-.10976419-.4733225.25735106-.5789711.34820391-.5827443.21190284-.0545012 1.13537742.5097965 1.34353286.651919z" fill="#2b2b2b" fill-rule="nonzero"/></g></g><path d="m32.1353029 24.1438685c1.2920416.6723507 1.4302791.2197282 2.3204691-.4193516.0617824-.0443544.3555643 1.0264118 1.6030329.4193516 1.7653152-.8590618-1.513346-2.2908412-1.9767487-2.2598174-.4634027.0318622-3.2387949 1.5874666-1.9467533 2.2598174z" fill="#00713d" fill-rule="nonzero"/></g><rect height="32" mask="url(#c)" rx="2" width="43.335938"/></g></svg>