<svg height="32" viewBox="0 0 44 32" width="44" xmlns="http://www.w3.org/2000/svg" xmlns:xlink="http://www.w3.org/1999/xlink"><mask id="a" fill="#fff"><path d="m0 0h43.335938v32h-43.335938z" fill="#fff" fill-rule="evenodd"/></mask><g fill="none" fill-rule="evenodd"><g mask="url(#a)"><g fill-rule="nonzero"><path d="m0 0h43.335938v32h-43.335938z" fill="#fff"/><path d="m15.0191118 28.3052411c-.9017692.2683438-2.2009281.8184486-2.7205917 1.127044-.1681265.1073375-.152843.2280923.1069888.6842767.1834107.2951782.3668221.5501049.3973905.5501049.0458534 0 .5502328-.2012579 1.1157483-.4561845.5655163-.2415095 1.2880987-.5601568 1.6201276-.6171908.2539154-.043615.4858195-.0849131.6293369-.1372286.0578112.1232357.0222782.0545598.1275886.2480759.1513791.2781695.0571373.2718567.3189699.3479712.2760581.0802495.9569035-.2441434.9569035-.2441434.7947796-.2415095 1.2380221-.2683439 4.0961718-.2683439 2.8581496 0 3.3013921.0268344 4.0961717.281761 0 0 .6395822.1910127.7217835.2141116.0816713.0229489.1247992.0410645.2111231.0228842.078729-.0165806.1606983-.1222599.1969796-.1860854 0 0 .1757692-.370728.220889-.5007942.1522538.0642964.429834.1479971.6973079.2217916.320968.0939203 1.0393272.3756813 1.6048434.6171908.5655163.2549266 1.0698956.4561845 1.1157483.4561845.0305684 0 .2139791-.2549267.3973905-.5501049.3668206-.6306079.3973898-.5769392-.9323376-1.1807127-1.7729699-.8050315-3.5459397-1.1672956-3.7140662-.7781971-.0305684.0737945-.056496.1169619-.0984742.2126838-.1776791-.0359404-.6428113-.1321807-1.1089815-.1992666-1.4367169-.2280923-5.3800465-.2280923-6.8167634 0-.4661695.0670859-.7813156.1789999-1.0447045.2431555-.1491114-.2618701-.1179004-.157699-.1484688-.2314935-.1222731-.2683439-.9313372-.2263371-2.0470855.1225099z" fill="#dfdfdf"/><g transform="translate(14.7089 8.3627)"><path d="m1.6090128 3.36132997c-.03079268.43722989.06158974.7464918.30280771.98110258.07185313.07464939.13857384.15640762.20016212.24527466-.08211757.08886661-.15739197.16706976-.2258232.23460947-.24122049.23461077-.33873449.53854074-.33873449.85846132 0 .33058904.097514.55986721.35926398.85846393.14729872.07298891.21915143.15474714.21555814.24527466-.00359328.09052753-.08228916.18117276-.23608763.2719357-.47217528.54387073-.45677737 1.16772062.03592677 1.68493489l.2104253.22927949h4.83466404 4.82953056l.2360889-.26127115c.4567761-.50654712.4567761-1.05574849.0051335-1.63694217-.1515197-.10640328-.2285049-.20415799-.2309554-.29326412-.0024506-.08910614.0694021-.17797427.2155581-.2666044.4721753-.58652629.4619102-1.12506769-.0256611-1.69026815-.2206916-.25060792-.2258232-.29859542-.051324-.41590146.2822788-.19728651.4567779-.86379718.32847-1.26903279-.1898964-.60785536-1.0059346-1.01309554-1.5037748-.74649179-.0923811.04798815-.277146.18129002-.4157196.29326412-.1385724.11730408-.2668816.2079504-.292542.2079504-.0205289 0-.14370649-.09597761-.2720138-.21328365-.49783699-.44256118-1.09731627-.49588127-1.59515011.00533325-.04730751.17875293-.10580895.27117547-.17550434.27726763s-.15352348-.07388918-.25148429-.23994402c-.50810205-.49588127-1.1445133-.47455284-1.66287475.04798946-.0484533.14552616-.11175211.20951101-.18989643.19195456s-.14933539-.11175674-.21357322-.28260088c-.30280709-.28793284-.49468969-.28259893-.84368924-.28793087-.20087787-.00321142-.56484797.04491067-.78466547.20670627-.2198175.16179559-.1810002.35562266-.2315336.34249771-.08467749-.02199314-.17363801-.10019695-.26688157-.23461143-.49270415-.43722989-.88788988-.51187907-1.3652024-.25060792-.37467511.20262303-.56970313.50121845-.60049768.9064547z" fill="#171796"/><path d="m1.92779627 10.9598789c.13116701.062881.19448552.1346116.18995552.2151917s-.07640529.1610583-.21562585.2414346c-.11808086.1312156-.24642936.3201649-.28749987.4146386-.16428582.4041417-.04107114.9447499.28236669 1.2544146.1950887.1941965.20022314.2729255.01540207.5038638-.08214354.0997228-.17968789.241436-.21562585.3149151-.38504485.7452979.18995615 1.6795482 1.04218687 1.6795482.3388399 0 .59553625-.1102204.82656417-.362152.18482233-.1994475.28236668-.2046953.44665187-.0262436.24129555.2729268.55959956.4408822.82656417.4408822.31316957 0 .5082589-.0997228.82656417-.4093901.08410181-.1618283.16453282-.2423066.24129303-.2414346.07676021.0008719.15034676.0830996.22075966.2466831.47745602.5248589.96004459.540605 1.6017902.0419884.09400257-.134698.1812793-.20118.26183017-.1994463s.15584849.071715.22589284.2099438c.28236669.2519329.49285809.3516557.77009096.3516557.2772335 0 .48258983-.110221.80603017-.4356324.11132178-.164584.20030998-.2520608.26696464-.2624305.0666546-.0103696.1351071.0526137.2053576.18895.3953143.362152.6109383.4776208.8984363.4776208.2977668 0 .5082582-.0997228.8060301-.3726495.2772317-.2571807.4261167-.5563504.3901787-.8030323-.0359379-.2676789-.2720984-.7557973-.4466519-.9237508-.1166808-.0100185-.1663089-.0590057-.1488843-.1469616.0174245-.0879559.0944334-.1771816.2310266-.267677.5031276-.6035879.5082608-1.0707118.0102689-1.6690487-.1386662-.0788305-.2071187-.1628079-.2053576-.2519322s.0736362-.1783506.2156252-.2676789c.4825911-.5825934.4774554-1.12319648-.0102676-1.65330584l-.2618314-.27817649-4.80535804.00524975-4.80536431.00524975-.21562459.24668441c-.50313263.57209131-.49799945 1.15468402.01026071 1.73202832z" fill="#d42e12"/><g fill="#e9d315" transform="translate(2.0826 9.7995)"><path d="m7.34192856-0c.2326895 0 .42621688.15598591.46635026.36168799l.00763656.07926117-.00092319.82005084.99705341-.5209666c.22047455-.11524449.49521506-.03475351.61365009.17978163.10527559.19069789.05161435.42311752-.11645639.55335191l-.0683025.0437669-.83594461.43606616.83594461.43684214.0683025.0437669c.16807074.1302344.22173198.36265402.11645639.55335192-.11843503.21453513-.39317554.29502611-.61365009.17978163l-.99705341-.52174259.00092319.91405084c0 .2435295-.21221113.44094916-.47398682.44094916-.2326895 0-.42621688-.15598591-.46635025-.36168799l-.00763656-.07926117-.00094956-.80205084-.78230927.40974259c-.22047456.11524448-.49521506.0347535-.61365009-.17978163-.10527559-.1906979-.05161436-.42311752.11645638-.55335192l.06830251-.0437669.83420047-.43684214-.83420047-.43606616-.06830251-.0437669c-.16807074-.13023439-.22173197-.36265402-.11645638-.55335191.11843503-.21453514.39317553-.29502612.61365009-.17978163l.78230927.4089666.00094956-.70805084c0-.2435295.21221112-.44094916.47398681-.44094916z"/><path d="m2.73861982-0c.23268951 0 .42621688.15598591.46635026.36168799l.00763656.07926117-.00092319.82005084.99705341-.5209666c.22047456-.11524449.49521506-.03475351.61365009.17978163.10527559.19069789.05161436.42311752-.11645638.55335191l-.06830251.0437669-.83594461.43606616.83594461.43684214.06830251.0437669c.16807074.1302344.22173197.36265402.11645638.55335192-.11843503.21453513-.39317553.29502611-.61365009.17978163l-.99705341-.52174259.00092319.91405084c0 .2435295-.21221113.44094916-.47398682.44094916-.2326895 0-.42621688-.15598591-.46635025-.36168799l-.00763656-.07926117-.00094956-.80205084-.78230927.40974259c-.22047455.11524448-.49521506.0347535-.61365009-.17978163-.10527559-.1906979-.05161436-.42311752.11645639-.55335192l.0683025-.0437669.83420047-.43684214-.83420047-.43606616-.0683025-.0437669c-.16807075-.13023439-.22173198-.36265402-.11645639-.55335191.11843503-.21453514.39317554-.29502612.61365009-.17978163l.78230927.4089666.00094956-.70805084c0-.2435295.21221112-.44094916.47398681-.44094916z"/></g><path d="m13.9264316.77066667v15.17830693c-.647752 1.0570016-2.2322734 1.2577231-4.58994903 1.2219965-.97520917.0071072-1.34225244.4783852-1.62051237.8316759-.23657367.300364-.43729037.501354-.73177002.501354-.28974517 0-.49399256-.1960922-.73783168-.4895069-.29539036-.355447-.68957625-.8336885-1.70721483-.8434361-2.01106702.155649-3.77166909-.1591618-4.12132155-.4320169-.41435908-1.1793065-.42009426-2.3120138-.42189232-3.5160334l-.00071889-.5096627-.00121836-1.0133743-.00094294-.9532003-.00104903-1.33464955-.00039269-8.64145318z" stroke="#000" stroke-width=".4"/><path d="m5.42700207 4.79164995c-.36350839.66637085-.37886872.96538683-.07679915 1.49933441.2355119.41007613.51198406.67064203.89085027.83724031.98813048.43997382 2.25272935.11532965 2.74934931-.70481704.30718968-.50405043.27135205-1.34555524-.06655579-1.71291566l-.09215696-.09824716-.08703874.29046862c-.12287512.4143473-.24575213.62365348-.49150236.8457771-.46078672.41434619-1.09564213.50832161-1.75098113.25202466-.5068652-.20076549-.71165581-.47842001-.90109425-1.25158371l-.04607911-.19222258-.12799397.23493827z" fill="#fff"/></g><path d="m8.83378556 6.60357518v-2.69400631l1.20911354 2.69400631h.5294343l1.1804955-2.69400631v2.69400631h.7154518v-3.87381703h-.8299241l-1.3235858 2.97791798-1.33789488-2.97791798h-.85138764v3.87381703zm5.01531714 0 .4507346-1.0725552h1.6813117l.4507347 1.0725552h.7583789l-1.6884663-3.87381703h-.7154518l-1.6884662 3.87381703zm1.8887927-1.64037854h-1.201959l.6009795-1.43217666zm3.56295 1.64037854v-1.54574132l1.5954575-2.32807571h-.786997l-1.1590319 1.73501577-1.1661864-1.73501577h-.8084606l1.588303 2.32807571v1.54574132zm3.6917313.06309149c1.1876499 0 2.0318831-.84542587 2.0318831-2 0-1.16088328-.8442332-2-2.0318831-2-1.18765 0-2.0247286.83911672-2.0247286 2 0 1.15457413.8370786 2 2.0247286 2zm0-.58675079c-.772688 0-1.2735043-.59305994-1.2735043-1.41324921 0-.82018928.5008163-1.41324921 1.2735043-1.41324921.7726879 0 1.2806587.59305993 1.2806587 1.41324921 0 .82018927-.5079708 1.41324921-1.2806587 1.41324921zm4.4501101.5236593v-3.29337539h1.4595217v-.58044164h-3.6631132v.58044164h1.4595217v3.29337539zm4.0923843 0v-3.29337539h1.4595217v-.58044164h-3.6631132v.58044164h1.4595217v3.29337539zm5.0296262 0v-.58675078h-2.1392009v-1.1104101h1.9388744v-.57413249h-1.9388744v-1.02208202h2.1392009v-.58044164h-2.8689617v3.87381703z" fill="#ff2500"/></g><g fill-rule="evenodd" transform="matrix(-1 0 0 1 41.9817 9.07)"><path d="m5.71970378 15.9968615c.3070069-.5953298.07233248-1.0399027-.70402327-1.3337187-1.16453361-.4407241-1.73372214.1343386-2.24666424.6680664-.34196139.3558185-.4941563 1.0707269-.45658472 2.144725l1.26749642 1.9958791 3.88822938.7915124 1.54930356-.7915124 1.81652349-3.4749518-.1357419-3.4116388c-.1224904-.8712111-.1837355-1.3969927-.1837355-1.5773448s-.2813033-.9694435-.84390968-2.36727417l-.79914247-.77943124-2.26011105-1.18378532-1.06425042-.52337901-1.32144752-1.64449932.14620513-1.30916331 1.50599826 1.88871584h1.27564565l1.32783917.54766139.53612684.4975626.65313641.0197228.25589439-.5172854-.71304981-1.12721392-1.07703629-1.06759994.49539754-.90282888-.7333262-.32889765.1410791-.49766916-.81395509.49766916-.61425716-.49766916-.11702242-.45769742 1.40415557-.74087664c-.91590685-.37838163-1.58944942-.54782901-2.0206277-.50834212-.43117828.03948688-.85016465.30898697-1.25695912.80850029l-1.85187386-.30015817c.33051901.79904937.44237083 1.19857406.33555546 1.19857406s-.49548673 0-1.16601409 0l.37387391 1.48783232h-1.43403776l1.06016385 1.14619856-.82761868.44682516 1.25923009.84335351-1.25923009.83419437 1.17080585.75717202-.65964377 1.25563112-1.03817645-.62254778-.58392459.77943124.87839379 1.91933927 1.43403776 1.0015922 1.36613305.338893 1.33711591.3421131.53141287.3426814.33075587-1.3132105 2.25855636 1.5250004 1.17325394 2.3912563-.34537894 2.1728487-.827875 1.1125568-1.52506181.5376153-1.99045367-.3682402-1.04096216-1.2468956-.24855976-1.2725266c.40206959-.576103.74889719-.8402424 1.04048278-.7924181.2915856.0478243.74086986.2697084 1.34785279.6656523z" fill="#dfdfdf" stroke="#000" stroke-width=".4"/><g fill="#000"><path d="m7.88737541 6.84378121.18791882.50021324c-1.4723939.53619175-2.49161392.72548835-3.10055958.54318116l-.12422428-.04476265.21587017-.48915514c.38538419.16486214 1.23887309.03894151 2.51822047-.40209428z" fill-rule="nonzero" transform="matrix(.96592583 .25881905 -.25881905 .96592583 2.164053 -1.416811)"/><path d="m9.70017019 8.38266769.18791882.50021324c-1.47239391.53619174-2.49161392.72548835-3.10055958.54318115l-.12422428-.04476264.21587017-.48915515c.38538418.16486214 1.23887309.03894152 2.51822047-.40209428z" fill-rule="nonzero" transform="matrix(.96592583 .25881905 -.25881905 .96592583 2.624119 -1.833561)"/><path d="m9.99259982 9.86156648.34488198.41127412c-.72010044.5853467-1.25614738.8092363-1.62619305.5615456l-.0890635-.0718109.37713501-.3828484c.07123558.0680218.3527308-.0272762.82775381-.38796246z" fill-rule="nonzero" transform="matrix(.8660254 .5 -.5 .8660254 6.534166 -3.329439)"/><ellipse cx="7.109802" cy="3.263326" rx="1" ry="1"/></g></g><g fill-rule="evenodd" transform="translate(1.3542 9.07)"><path d="m5.71970378 15.9968615c.3070069-.5953298.07233248-1.0399027-.70402327-1.3337187-1.16453361-.4407241-1.73372214.1343386-2.24666424.6680664-.34196139.3558185-.4941563 1.0707269-.45658472 2.144725l1.26749642 1.9958791 3.88822938.7915124 1.54930356-.7915124 1.81652349-3.4749518-.1357419-3.4116388c-.1224904-.8712111-.1837355-1.3969927-.1837355-1.5773448s-.2813033-.9694435-.84390968-2.36727417l-.79914247-.77943124-2.26011105-1.18378532-1.06425042-.52337901-1.32144752-1.64449932.14620513-1.30916331 1.50599826 1.88871584h1.27564565l1.32783917.54766139.53612684.4975626.65313641.0197228.25589439-.5172854-.71304981-1.12721392-1.07703629-1.06759994.49539754-.90282888-.7333262-.32889765.1410791-.49766916-.81395509.49766916-.61425716-.49766916-.11702242-.45769742 1.40415557-.74087664c-.91590685-.37838163-1.58944942-.54782901-2.0206277-.50834212-.43117828.03948688-.85016465.30898697-1.25695912.80850029l-1.85187386-.30015817c.33051901.79904937.44237083 1.19857406.33555546 1.19857406s-.49548673 0-1.16601409 0l.37387391 1.48783232h-1.43403776l1.06016385 1.14619856-.82761868.44682516 1.25923009.84335351-1.25923009.83419437 1.17080585.75717202-.65964377 1.25563112-1.03817645-.62254778-.58392459.77943124.87839379 1.91933927 1.43403776 1.0015922 1.36613305.338893 1.33711591.3421131.53141287.3426814.33075587-1.3132105 2.25855636 1.5250004 1.17325394 2.3912563-.34537894 2.1728487-.827875 1.1125568-1.52506181.5376153-1.99045367-.3682402-1.04096216-1.2468956-.24855976-1.2725266c.40206959-.576103.74889719-.8402424 1.04048278-.7924181.2915856.0478243.74086986.2697084 1.34785279.6656523z" fill="#dfdfdf" stroke="#000" stroke-width=".4"/><g fill="#000"><path d="m7.88737541 6.84378121.18791882.50021324c-1.4723939.53619175-2.49161392.72548835-3.10055958.54318116l-.12422428-.04476265.21587017-.48915514c.38538419.16486214 1.23887309.03894151 2.51822047-.40209428z" fill-rule="nonzero" transform="matrix(.96592583 .25881905 -.25881905 .96592583 2.164053 -1.416811)"/><path d="m9.70017019 8.38266769.18791882.50021324c-1.47239391.53619174-2.49161392.72548835-3.10055958.54318115l-.12422428-.04476264.21587017-.48915515c.38538418.16486214 1.23887309.03894152 2.51822047-.40209428z" fill-rule="nonzero" transform="matrix(.96592583 .25881905 -.25881905 .96592583 2.624119 -1.833561)"/><path d="m9.99259982 9.86156648.34488198.41127412c-.72010044.5853467-1.25614738.8092363-1.62619305.5615456l-.0890635-.0718109.37713501-.3828484c.07123558.0680218.3527308-.0272762.82775381-.38796246z" fill-rule="nonzero" transform="matrix(.8660254 .5 -.5 .8660254 6.534166 -3.329439)"/><ellipse cx="7.109802" cy="3.263326" rx="1" ry="1"/></g></g></g><rect height="32" mask="url(#a)" rx="2" width="43.335938"/></g></svg>