<svg height="32" viewBox="0 0 44 32" width="44" xmlns="http://www.w3.org/2000/svg" xmlns:xlink="http://www.w3.org/1999/xlink"><mask id="a" fill="#fff"><path d="m0 0h43.335938v32h-43.335938z" fill="#fff" fill-rule="evenodd"/></mask><g fill="none" fill-rule="evenodd"><g fill-rule="nonzero" mask="url(#a)"><path d="m-0 0v9.33333333h43.3359375v-9.33333333z" fill="#002488"/><path d="m.00093951 9.33333333v22.66666667h43.33593749v-22.66666667z" fill="#da121a"/><g fill="#fcdd09"><g transform="translate(4.0627 .4)"><path d="m2.74660492.65267045c-.51757881.84034981-.57932898 1.5125444-.22608136 2.67326013.17008219.54166734.35691381 1.35055439.43541328 1.789047.10466596.61904839.09370299.67789848.10840293.81250101.13083245 0 .42815378.00049008.56563592-.00032242.01976852-.21432177.03575154-.46169918.08216566-.80187259.05411688-.3966274.21462096-1.22616733.38724993-1.8023354.34497129-1.1513748.32186903-1.85777672-.21454403-2.65738088-.19624868-.29662736-.45791358-.54166734-.57566279-.54166734-.1177492 0-.38412264.22647412-.56257954.52877049z"/><path d="m3.87438772 5.37755585c-.04445386.22173218-.05529411.30000517-.07758561.54991462.15858411.00063194.220914.0016998.3755.0007867.03384008-.16812025.0582088-.25687425.13279036-.49550077.29566721-.92290365 1.16649364-1.29329809 1.12724391-.42920972-.01308325.23859157-.1152337.37181181-.22894005.49971765.1405554-.03454535.43906259-.17187581.68110263-.30729265 1.34757425-.79960417.8169122-2.75889644-.59607828-2.16564174-.73266173.30952497-1.17332244 1.16638557-1.41403296 2.34722591z"/><path d="m2.29458377 6.25283741c.59129923.00298217 1.6132319.00833519 2.10407.00535303.00057566-.14334329.00240731-.07019038.00361228-.18602352-.36135387-.00342242-1.74509192.00222659-2.10488116.00222659.00082425.07494072-.00082424.11122602-.00280112.17844361z"/><path d="m1.92236047 7.30697814s.29454899.03264668.56923839.01289684c.27468954-.01974983.42710477-.05353994.58944965-.13128056-.04408085.32266505-.0466122.63425738-.0466122.63425738.03995336.41524218.08515832.52151293.17650646.72361043.12393902.16858377.19601409.1695086.28712777-.00850418.09847615-.19932313.16330141-.40432242.18386919-.71704632-.00715131-.23437972-.02044585-.34177907-.0767598-.6282904.19006541.08107406.31011177.10208689.59366521.1272534.29015825.02575267.55685889.01312808.55685889.01312808s-.39194302-.19389511-.56445594-.43169739c-.17028917-.2347367-.13397309-.19482717-.25779488-.49722844-.15045732-.00701975-.9132987-.00010924-1.15533873-.00010924-.13256573.27568908-.14589376.33326058-.30963293.50722878-.21315354.22646995-.54612108.39578162-.54612108.39578162z"/><path d="m1.39138363 3.02990706c.73266174.30952419 1.17332244 1.16638479 1.41403296 2.34722513.04445386.22173217.05529411.30000517.07758561.54991462-.15858411.00063194-.220914.0016998-.3755.0007867-.03384007-.16812026-.0582088-.25687426-.13279036-.49550077-.29566721-.92290365-1.16649364-1.2932981-1.1272439-.42920972.01308324.23859156.11523369.37181181.22894004.49971765-.14055539-.03454535-.43906259-.17187582-.68110262-.30729265-1.34757426-.79960417-.81691221-2.75889644.59607827-2.16564174z"/></g><g transform="translate(17.6052 .4)"><path d="m2.74660492.65267045c-.51757881.84034981-.57932898 1.5125444-.22608136 2.67326013.17008219.54166734.35691381 1.35055439.43541328 1.789047.10466596.61904839.09370299.67789848.10840293.81250101.13083245 0 .42815378.00049008.56563592-.00032242.01976852-.21432177.03575154-.46169918.08216566-.80187259.05411688-.3966274.21462096-1.22616733.38724993-1.8023354.34497129-1.1513748.32186903-1.85777672-.21454403-2.65738088-.19624868-.29662736-.45791358-.54166734-.57566279-.54166734-.1177492 0-.38412264.22647412-.56257954.52877049z"/><path d="m5.28842068 3.03033072c-.73266173.30952419-1.17332244 1.16638479-1.41403296 2.34722513-.04445386.22173218-.05529411.30000517-.07758561.54991462.15858411.00063194.220914.0016998.3755.0007867.03384008-.16812025.0582088-.25687425.13279036-.49550077.29566721-.92290365 1.16649364-1.29329809 1.12724391-.42920972-.01308325.23859157-.1152337.37181181-.22894005.49971765.1405554-.03454535.43906259-.17187581.68110263-.30729265 1.34757425-.79960417.8169122-2.75889644-.59607828-2.16564174z"/><path d="m2.29458377 6.25283741c.59129923.00298217 1.6132319.00833519 2.10407.00535303.00057566-.14334329.00240731-.07019038.00361228-.18602352-.36135387-.00342242-1.74509192.00222659-2.10488116.00222659.00082425.07494072-.00082424.11122602-.00280112.17844361z"/><path d="m2.46848155 6.91119678c-.21315354.22646969-.54612108.39578136-.54612108.39578136s.29454899.03264668.56923839.01289684c.27468954-.01974983.42710477-.05353994.58944965-.13128056-.04408085.32266505-.0466122.63425738-.0466122.63425738.03995336.41524218.08515832.52151293.17650646.72361043.12393902.16858377.19601409.1695086.28712777-.00850418.09847615-.19932313.16330141-.40432242.18386919-.71704632-.00715131-.23437972-.02044585-.34177907-.0767598-.6282904.19006541.08107406.31011177.10208689.59366521.1272534.29015825.02575267.55685889.01312808.55685889.01312808s-.39194302-.19389511-.56445594-.43169739c-.17028917-.2347367-.13397309-.19482717-.25779488-.49722844-.15045732-.00701975-.9132987-.00010924-1.15533873-.00010924-.13256573.27568908-.14589376.33326058-.30963293.50722878z"/><path d="m1.39138363 3.02990706c.73266174.30952419 1.17332244 1.16638479 1.41403296 2.34722513.04445386.22173217.05529411.30000517.07758561.54991462-.15858411.00063194-.220914.0016998-.3755.0007867-.03384007-.16812026-.0582088-.25687426-.13279036-.49550077-.29566721-.92290365-1.16649364-1.2932981-1.1272439-.42920972.01308324.23859156.11523369.37181181.22894004.49971765-.14055539-.03454535-.43906259-.17187582-.68110262-.30729265-1.34757426-.79960417-.81691221-2.75889644.59607827-2.16564174z"/></g><g transform="translate(31.1477 .4)"><path d="m2.74660492.65267045c-.51757881.84034981-.57932898 1.5125444-.22608136 2.67326013.17008219.54166734.35691381 1.35055439.43541328 1.789047.10466596.61904839.09370299.67789848.10840293.81250101.13083245 0 .42815378.00049008.56563592-.00032242.01976852-.21432177.03575154-.46169918.08216566-.80187259.05411688-.3966274.21462096-1.22616733.38724993-1.8023354.34497129-1.1513748.32186903-1.85777672-.21454403-2.65738088-.19624868-.29662736-.45791358-.54166734-.57566279-.54166734-.1177492 0-.38412264.22647412-.56257954.52877049z"/><path d="m5.28842068 3.03033072c-.73266173.30952419-1.17332244 1.16638479-1.41403296 2.34722513-.04445386.22173218-.05529411.30000517-.07758561.54991462.15858411.00063194.220914.0016998.3755.0007867.03384008-.16812025.0582088-.25687425.13279036-.49550077.29566721-.92290365 1.16649364-1.29329809 1.12724391-.42920972-.01308325.23859157-.1152337.37181181-.22894005.49971765.1405554-.03454535.43906259-.17187581.68110263-.30729265 1.34757425-.79960417.8169122-2.75889644-.59607828-2.16564174z"/><path d="m2.29458377 6.25283741c.59129923.00298217 1.6132319.00833519 2.10407.00535303.00057566-.14334329.00240731-.07019038.00361228-.18602352-.36135387-.00342242-1.74509192.00222659-2.10488116.00222659.00082425.07494072-.00082424.11122602-.00280112.17844361z"/><path d="m2.46848155 6.91119678c-.21315354.22646969-.54612108.39578136-.54612108.39578136s.29454899.03264668.56923839.01289684c.27468954-.01974983.42710477-.05353994.58944965-.13128056-.04408085.32266505-.0466122.63425738-.0466122.63425738.03995336.41524218.08515832.52151293.17650646.72361043.12393902.16858377.19601409.1695086.28712777-.00850418.09847615-.19932313.16330141-.40432242.18386919-.71704632-.00715131-.23437972-.02044585-.34177907-.0767598-.6282904.19006541.08107406.31011177.10208689.59366521.1272534.29015825.02575267.55685889.01312808.55685889.01312808s-.39194302-.19389511-.56445594-.43169739c-.17028917-.2347367-.13397309-.19482717-.25779488-.49722844-.15045732-.00701975-.9132987-.00010924-1.15533873-.00010924-.13256573.27568908-.14589376.33326058-.30963293.50722878z"/><path d="m1.39138363 3.02990706c.73266174.30952419 1.17332244 1.16638479 1.41403296 2.34722513.04445386.22173217.05529411.30000517.07758561.54991462-.15858411.00063194-.220914.0016998-.3755.0007867-.03384007-.16812026-.0582088-.25687426-.13279036-.49550077-.29566721-.92290365-1.16649364-1.2932981-1.1272439-.42920972.01308324.23859156.11523369.37181181.22894004.49971765-.14055539-.03454535-.43906259-.17187582-.68110262-.30729265-1.34757426-.79960417-.81691221-2.75889644.59607827-2.16564174z"/></g></g><g fill="#008000" transform="translate(5.2989 13.0065)"><path d="m10.0024722 4.49802734c.2840621.13054828.6467715.23342638.8296884.23949821.2161764.00717258.1587907-.04519762-.2446731-.19989394-.3158216-.12150824-.69353035-.3258142-.86119018-.45249858-.30056139-.24211821-.30056139-.24211821-.26906413-.02911527.01799927.12171459.24454548.31091319.54523901.44200958z"/><path d="m8.23549555 1.98179812c.18316543.72222248.94199365 2.05059714 1.20365856 2.10218451.23549841.03869052.23549841.02579368.03924973-.19345262-.32708113-.3740084-1.03357637-1.74107295-1.03357637-1.99900978 0-.14186525-.06541623-.24503998-.1439157-.24503998-.09158271 0-.1177492.12896841-.06541622.33531787z"/><path d="m.37151592 1.07621223c-.00454382.02540162.24103969.21214143.54877358.42277974.30773421.21063831.66625896.50867915.78526939.66032279.20391154.2711677 1.35903387.94339364 1.46740043.85746327.10609465-.07322955-1.38181573-1.26165286-2.01091474-1.60672332-.74885644-.41826972-.77462546-.42274944-.79052866-.33384248z"/><path d="m.79300829 2.06840557c0 .02579369.27474815.16765894.61491266.32242104.34016438.1547621.74574498.38690589.88966067.5158743.24858166.23214315 1.5045732.69642944 1.59615592.5932547.09158272-.09027789-1.58307267-1.00595427-2.26340142-1.23809742-.81116134-.28373051-.83732783-.28373051-.83732783-.19345262z"/><path d="m7.27109356 2.1715803c0 .14186526.51024722 1.12202585.81116055 1.53472478.17008219.23214314.36633087.36111156.58874604.36111156.32708113 0 .32708113 0-.17008219-.55456418-.2878314-.29662736-.6672442-.74801681-.86349353-.99305744-.19624868-.24503998-.36633087-.39980208-.36633087-.34821472z"/><path d="m5.16470874 6.14190453c-.86349418.33531788-1.04665961.45138945-1.04665961.63194523 0 .07738105.09158271.06448421.23549841-.05158737.11774921-.11607157.5494963-.27083367.94199366-.36111156.39249735-.09027789.86349418-.24503998 1.04665961-.33531787l.32708113-.16765894h-.39249735c-.20933193.01289684-.71957849.14186526-1.11207585.28373051z"/><path d="m3.45268303 4.12078764c-.22241517.16765893-.20933192.18055578.27474815.10317473.28783139-.03869053.70649524-.11607158.91582716-.16765894.34016438-.09027789.31399789-.10317473-.27474815-.11607157-.39249735-.01289685-.75882822.0644842-.91582716.18055578z"/><path d="m.20238324 2.76480083c2.1587352.38690525 6.48928937 1.81845464 6.22762447 2.06349463-.06541623.06448421-1.28215804-.23214315-1.45224022-.34821472-.06541623-.06448421-.70649525-.03869052-1.41299049.05158737-1.32140776.14186525-1.54382293.25793682-1.51765644.78670732.01308324.25793683.01308324.25793683.07849947 0 .11774921-.47718313.31399788-.58035786 1.05974286-.58035786.81116121 0 3.03531289.32242103 4.01655628.58035786 1.30832453.36111156 1.34757426.36111156.91582717.12896842-.56257955-.3095242-1.41299048-.87698522-1.56998943-1.04464416-.28783139-.32242103-5.50804597-1.74107359-6.26687419-1.71527991-.35324763.02579369-.36633087.02579369-.07849948.07738105z"/><path d="m1.1948658 3.45200387c-.15699895.11607157-.32708113.38690524-.36633087.60615155-.07849947.3740084-.07849947.3740084.13083245.12896841.54949604-.6835326.58874578-.70932628 1.26907453-.72222312.5494963-.01289684.62799577-.03869052.36633086-.11607157-.5494963-.16765894-1.0989926-.12896842-1.39990697.10317473z"/><path d="m7.86359776 4.24790406c.10466596.18055578 1.12515909.6835326 1.20365856.60615155.03924973-.03869052-.07849947-.14186526-.23549841-.23214315-.17008219-.09027789-.39249736-.23214314-.48408008-.33531787-.20933192-.19345262-.60182928-.23214315-.48408007-.03869053z"/><path d="m7.9423131 5.47321233c.10466597.18055578 1.12515909.6835326 1.20365856.60615155.03924974-.03869053-.07849947-.14186526-.23549841-.23214315-.17008219-.09027789-.39249736-.23214314-.48408007-.33531787-.20933193-.19345263-.60182928-.23214315-.48408008-.03869053z"/><path d="m6.47963769 3.93762863c.01882417-.01791629.31320177.07835927.66243741.21206083.3492363.13370155.80037211.26003385.99445943.27249285.34208435.01500547 1.55337698.58309779 1.54170345.71970694-.00225686.12765487-1.83377512-.42374894-2.47577193-.74489899-.77053642-.37809476-.78871362-.39664494-.72282836-.45936163z"/><path d="m8.64667316 4.880173c-.24407121.09298236-.48952336.26115459-.5657869.38146278-.09012982.14218252-.0138545.14354249.30093884-.01233132.24684355-.12169201.60324881-.22151872.79878707-.23794221.36611827-.01780538.36611827-.01780538.13312006-.16132594-.13314295-.08201166-.41605439-.07378283-.66705907.03013669z"/><path d="m2.52377196.53366403c.40558061.76091365 2.0540695 2.51488408 2.96989667 3.18551983.24858166.18055578.693412.36111156.96816014.39980209l.51024657.07738105-.37941411-.41269893c-.61491253-.65773891-1.55690618-1.92162937-1.85782082-2.47619355-.32708113-.60615155-.36633087-.45138945-.09158272.32242103.10466596.3095242.52332981.92857259.92891041 1.36706519.4055806.45138945.66724551.82539785.60182928.82539785-.17008219 0-1.26907479-1.2767873-2.0540695-2.38591566-.85041094-1.21230309-.88966067-1.25099361-.65416226-.58035786.11774921.32242103.37941411.79960417.60182928 1.057541.20933192.27083366.34016438.49007997.27474815.49007997-.13083245 0-.70649524-.64484207-1.42607373-1.57341465-.19624868-.27083367-.47099683-.61904839-.58874603-.77381049-.13083246-.16765894-.03924974.05158737.19624867.47718313z"/><path d="m3.29002885 5.5247249c-.56257954.12896841-.86349418.32242103-.86349418.55456418 0 .09027789.05233298.07738104.11774921-.02579369.10466596-.16765894 1.17749207-.47718313 1.28215803-.3740084.02616649.02579368-.01308325.21924631-.09158272.41269893s-.10466596.38690524-.06541623.42559576c.03924974.05158737.10466597-.05158736.1439157-.19345262.15699894-.55456418.64107902-.72222312 1.80548784-.61904839.58874604.05158737 1.2429083.11607158 1.45224022.12896842.22241517.01289684.52332981.09027789.68032875.18055578.34016438.18055578 1.66157215.19345262 1.54382294.01289684-.03924974-.06448421-.2878314-.1547621-.56257955-.19345262-.2616649-.03869053-.8111612-.16765894-1.2167418-.27083367-.8111612-.20634946-3.40164376-.23214315-4.22588821-.03869052z"/><path d="m8.06762443 7.0134073c-.98605345-.17337675-1.45500537-.0184902-1.8538566.58747241l-.3403253.52042624.43768819-.40902075c.59460079-.56914664 1.02671552-.62407493 2.09549956-.31790907.49996248.14574656.92399504.24100907.93862668.21962482.08047439-.11761145-.76278525-.52272962-1.27763253-.60059365z"/><path d="m8.33642101 7.28421775c-.91582717.39980209-1.21674181.78670733-1.20365856 1.50893045l.01308324.61904839.13083246-.58035787c.17008218-.79960416.49716331-1.08333467 1.55690618-1.41865255.49716331-.1547621.90274392-.3095242.90274392-.33531788 0-.14186525-.92891041-.01289684-1.39990724.20634946z"/><path d="m8.16259832 8.39145931c-.15699894.20634946-.27474815.47718313-.27474815.61904839 0 .16765893.06541623.12896841.24858166-.16765894.1439157-.23214315.39249736-.50297682.5494963-.61904839.30091464-.20634946.30091464-.20634946.02616649-.20634946-.15699894 0-.39249736.15476209-.5494963.3740084z"/><path d="m22.3077268 10.4931892c.4248516.1814798 2.6290271.7294344 4.1885872 1.1796431 1.5595602.4502081 3.3829904.9685122 3.7865993 1.0243523.5769011-1.239507-.4729855 1.0789123.126186-.3262211-.7788953-.1954394-3.8490175-.9075037-5.0810877-1.2565025-1.0621299-.2931594-2.5688945-.7504543-2.9548012-.8342141-.3859066-.0837599-.3912034.073343-.0654836.2129423z"/><path d="m22.5772371 10.1714175c.4310183.1667542 2.6532501.6385459 4.2278003 1.0348277 1.5745483.3962813 3.4152176.8515398 3.8205575.893461.5326673-1.2585983-.4344991 1.0945272.1145602-.3303636-.7853408-.1685249-3.8788028-.7745359-5.1224778-1.0809365-1.0718619-.2564408-2.5938979-.6616209-2.9825351-.73205373-.3886371-.07043287-.3883689.08675643-.0579051.21506513z"/><path d="m21.9670005 10.7270102c.4146336.2031498 2.5866963.8640671 4.1202168 1.394117 1.5335199.5300486 3.3269332 1.1417142 3.7270247 1.2183001.6419183-1.2080458-.5296202 1.0530316.1433329-.3192645-.7674521-.2353545-3.7955613-1.1048312-5.0074133-1.5169149-1.0451099-.3475538-2.5255314-.8819563-2.9064619-.9855096-.3809311-.1035545-.3945605.0530602-.0766992.2092719z"/><path d="m21.7024226 10.9911034c.4032799.2242625 2.5372763.9963313 4.0405536 1.6047694 1.5032767.6084362 3.261757 1.3117868 3.6572341 1.4089084.7051765-1.1732734-.5848021 1.0242658.1600873-.3114323-.753905-.2746254-3.731702-1.2991311-4.9200146-1.77317-1.0252253-.4009944-2.4752447-1.0110401-2.8501555-1.1341044-.3749109-.1230642-.3968371.0326323-.0877049.2050289z"/><path d="m21.4532483 11.3237832c.3950937.2379996 2.5004567 1.0830122 3.9812773 1.7427966 1.4808199.6597818 3.2133268 1.4231987 3.6051255 1.5338665.7462853-1.148298-.6207097 1.0035232.171015-.3057345-.7437229-.3003945-3.6834346-1.4267189-4.8542398-1.9413499-1.0104046-.4360209-2.4379424-1.0955789-2.8082682-1.2314659-.3703258-.1358869-.3977503.0189603-.0949098.2018872z"/></g><path d="m10.0487892 15.2848324c.607475.4171326.9415326.9969217.9084486 1.5952537l-.022441.4941505.1994115-.4861803c.2181399-.5087896.1881085-1.2792121-.0695507-1.8498112l-.1503217-.3327139.4773665.2048659c.6821409.2835916 1.1312912.7821338 1.2250979 1.3743662l.0822562.4879695.0924867-.5165971c.1060173-.5424594-.0857214-1.2896221-.4582257-1.7949146l-.2172323-.2948149.510203.1025549c.7270229.1376075 1.271465.5332694 1.4882023 1.0933771l.1834058.4604806-.0185633-.5243233c-.010643-.5523002-.3559211-1.2439156-.8267699-1.6618615l-.2746549-.2438222.520681-.0041477c.740141-.0143951 1.3561963.2609824 1.6862937.7645669l.2763875.4126596-.1286233-.5089522c-.1268907-.5378238-.6104451-1.143638-1.1591774-1.4559385l-.3201145-.1822566.5084705-.1106877c.7209176-.165991 1.3816075-.0226906 1.8106269.4020869l.3574061.3470276-.233238-.4714599c-.2375283-.5001687-.8383204-.9937499-1.4409277-1.1867419l-.3515483-.1123956.4739839-.2125921c.6700953-.3100233 1.3465434-.3053063 1.8558389.0221213l.4229141.26635-.3275398-.4134728c-.3379353-.4406365-1.0296466-.8001074-1.65981-.8653327l-.3674717-.0379802.418789-.30514366c.5900666-.44047384 1.2527366-.57474679 1.8199497-.35865761l.4698588.17371715-.4075684-.33718695c-.4234917-.36166675-1.1759257-.57165631-1.8060892-.50626839l-.3674716.0379803.3451956-.38427601c.4842969-.55181222 1.1042299-.81881288 1.7046096-.72365882l.4961774.07352074-.4698587-.24618063c-.4904847-.26700066-1.2707225-.31815613-1.8733297-.12516418l-.3515484.11247697.2565866-.44649212c.3573236-.63907743.907376-1.0272572 1.5146859-1.05742998l.5008802-.02960349-.5115231-.14452031c-.5361093-.1606233-1.3100768-.0506675-1.8588091.26147035l-.3201144.18217529.1569221-.48943344c.2147572-.69828441.6708378-1.19064567 1.2585944-1.34460006l.4837193-.13167044-.530829-.03651639c-.5583027-.04733305-1.2921734.21869168-1.7630222.63663759l-.2746549.24382211.0502448-.51082278c.0627028-.72723726.4050108-1.30222803.9474728-1.57337643l.4453552-.22780045-.5269514.07295145c-.5560751.06815308-1.217755.47886077-1.5901768.98415322l-.2172324.29481493-.0585776-.51000949c-.0919917-.72398414.1214455-1.35688062.5948519-1.73302381l.38752-.31417105-.5000551.17932881c-.5295089.18063005-1.0900393.71796584-1.3477809 1.28856488l-.1503218.33295788-.164925-.48691227c-.242726-.68933829-.1673175-1.35208225.2164073-1.81703589l.3128541-.38671423-.4512954.2778157c-.4798416.28521819-.9148838.9256782-1.0466423 1.53661606l-.0768109.35646175-.264012-.44234439c-.3828173-.62476366-.4488203-1.28823957-.1716077-1.82183588l.2244101-.44234113-.3828173.36418468c-.40921849.37744606-.69963162 1.09321604-.69963162 1.71773571v.36426926l-.35154839-.37858303c-.50607787-.53237476-.71060462-1.16811774-.55203245-1.74676665l.1260657-.47878107-.29759096.43494514c-.32069199.4528341-.45377051 1.21244001-.32201205 1.82354052l.07672847.35629909-.42365665-.29831204c-.60747496-.41713262-.94153256-.99692176-.90844857-1.59549854l.02235851-.49414966-.19941151.48642592c-.21805736.50878794-.188026 1.27896652.06955064 1.84956557l.1503218.33295787-.47736658-.2049472c-.68214083-.2835103-1.13129114-.78213384-1.22509788-1.37428487l-.08225621-.48796953-.09240418.51651575c-.10601729.54229681.08563887 1.28970348.45822571 1.79499593l.21714982.29465228-.51012056-.10263626c-.72702286-.13752608-1.27146497-.53310672-1.48820227-1.09329575l-.18340579-.46039925.01856334.52424194c.01064298.55230018.35592109 1.24391567.82676987 1.66178025l.27465491.24382211-.52068103.00414774c-.74014096.01447643-1.3561963-.26098238-1.68629373-.76432295l-.27646999-.41282223.12870582.5088709c.12689073.53806774.61044509 1.14388192 1.15917739 1.45618242l.32003197.18217529-.50838798.11068776c-.72091759.16582831-1.38160745.02277191-1.81062685-.40200557l-.35748865-.347109.23323804.4714599c.23761074.5002501.8384029.9935873 1.44101013 1.18657925l.3515484.11263964-.47398393.21251073c-.67017779.31010464-1.34662587.30530627-1.85592139-.02220261l-.42291412-.26626871.32753981.41331019c.33793527.44063649 1.02964654.80010738 1.65981002.86541397l.36755412.03814295-.41878893.30498096c-.59014918.44063649-1.25281913.57466546-1.82003227.35865761l-.46985874-.17363582.40756842.33710562c.42349165.36182941 1.17592566.57165631 1.80608914.50634972l.36755412-.0379803-.34527811.38411335c-.48429689.55197487-1.10422991.81881292-1.70460955.72382148l-.49617743-.0736834.46985874.24634324c.49056717.267082 1.27080494.3181562 1.87341218.1251642l.35154839-.1125583-.2566691.4466548c-.35732365.6389961-.90737602 1.0272572-1.51468597 1.0572673l-.50088014.0295222.51152312.144683c.53610924.1606233 1.31007672.0506675 1.85880903-.2615517l.32011446-.1822566-.15683958.4894334c-.21475721.6984471-.67083783 1.1908897-1.2585944 1.3447627l-.48371936.1316705.53082899.0365977c.55830274.0471704 1.29217341-.2189357 1.7630222-.6368816l.27465491-.2438221-.05024477.5110668c-.06270283.7269932-.40501081 1.3021467-.94747283 1.5731324l-.44535513.2279631.52695132-.0728701c.55607514-.0681531 1.21775505-.4791048 1.59017688-.9843972l.21723232-.2946523.05866015.5100908c.09199166.7239842-.12152799 1.3566367-.59493439 1.7329425l-.38760252.3141711.5000551-.1793288c.52950894-.1805488 1.09012178-.7181285 1.34786343-1.2886463l.15023929-.3327952.16492495.4866683c.24272598.6895823.16731757 1.3520823-.21640728 1.8171985l-.31285414.3867972.4512954-.2779799c.47984169-.2851369.91488385-.9257596 1.04664231-1.5366974l.07681097-.3562991.26401194.4424257c.3828173.624601.44882028 1.2882396.17160775 1.8217529l-.22441014.4424257.3828173-.3644319c.4092185-.3772004.69963163-1.0929704.69963163-1.7175714v-.3643506l.35154839.3786643c.50607787.5324561.71060462 1.1681178.55211496 1.7467683l-.12623071.4787795.29759095-.4349435c.320692-.4529984.45377051-1.2124417.32209456-1.8234609l-.07681097-.3562991z" fill="#fcdd09" transform="translate(12.2899 12.3885)"/></g><rect height="32" mask="url(#a)" rx="2" width="43.335938"/></g></svg>