<svg height="32" viewBox="0 0 43 32" width="43" xmlns="http://www.w3.org/2000/svg" xmlns:xlink="http://www.w3.org/1999/xlink"><mask id="a" fill="#fff"><path d="m0 0h43.335938v32h-43.335938z" fill="#fff" fill-rule="evenodd"/></mask><mask id="b" fill="#fff"><path d="m0 0h42.666667v32h-42.666667z" fill="#fff" fill-rule="evenodd"/></mask><mask id="c" fill="#fff"><path d="m21.3333333 9.33333333 13.3333334 6.66666667-13.3333334 6.6666667-13.3333333-6.6666667z" fill="#fff" fill-rule="evenodd"/></mask><g fill="none" fill-rule="evenodd"><g fill-rule="evenodd" mask="url(#a)"><g mask="url(#b)" transform="translate(.3346)"><path d="m0 0h42.6666667v32h-42.6666667z" fill="#00268d"/><path d="m41.3333333 1.33333333v29.33333337h-39.99999997v-29.33333337z" fill="#00268d" stroke="#e31d1c" stroke-width="2.666667"/><path d="m20 0h2.666667v32h-2.666667z" fill="#e31d1c" fill-rule="nonzero"/><path d="m20-5.33333333h2.6666667v42.66666663h-2.6666667z" fill="#e31d1c" fill-rule="nonzero" transform="matrix(0 -1 1 0 5.3333 37.3333)"/><path d="m21.3333333 7.84262135 16.3147573 8.15737865-16.3147573 8.1573787-16.31475727-8.1573787z" stroke="#e31d1c" stroke-width="2.666667"/><path d="m15.478444 21.3333333h17.8548893l-1.8878663-1.7015316c-2.5167209-2.2429623-3.8560528-3.4158405-4.0179955-3.5186346-.2429141-.1541912-.6442614-.2207382-1.1009942.2693251-.4567328.4900632-.7186383-.2693251-1.0988772-.2693251s-.5410291 0-1.092746.6287665c-.3678113.4191777-1.2139682 1.382467-2.5384707 2.8898681h-2.9196855c-.3283564-.2476146-.5860988-.3272466-.7732272-.2388962-.2806926.1325257-1.8618338-1.4659145-2.4250267-1.5853382-.5631928-.1194237-.933753.4332931-.933753.8731171 0 .4398239-.2650079-.4030356-.8038692-.155625-.3592409.1649403-.4809523.4542224-.3651343.8678461 1.1627211 1.2936186 1.86364 1.9404278 2.1027565 1.9404278z" fill="#059334" fill-rule="nonzero" mask="url(#c)"/><path d="m20.6730227 15.0683082-1.2350849.9316918.4532169-1.5390349-1.224488-.9420996h1.5255133l.4808427-1.5188655.5096671 1.5188655h1.4839769l-1.2138259.9420996.4613934 1.5390349z" fill="#feda00" mask="url(#c)"/></g></g><rect height="32" mask="url(#a)" rx="2" width="43.335938"/></g></svg>