<svg height="32" viewBox="0 0 43 32" width="43" xmlns="http://www.w3.org/2000/svg" xmlns:xlink="http://www.w3.org/1999/xlink"><defs><path id="a" d="m0 0h42.666667v32h-42.666667z"/><linearGradient id="b" x1="50%" x2="50%" y1="100%" y2="0%"><stop offset="0" stop-color="#ffc600"/><stop offset="1" stop-color="#ffde42"/></linearGradient><path id="c" d="m21.235712 4.93872 16.2691413 11.337952-16.4904533 10.618368-15.93582933-10.838144z"/><filter id="d" height="68.6%" width="76%" x="11.9%" y="15.4%"><feOffset dx="0" dy="0" in="SourceAlpha" result="shadowOffsetOuter1"/><feColorMatrix in="shadowOffsetOuter1" type="matrix" values="0 0 0 0 0.03137255   0 0 0 0 0.36862746   0 0 0 0 0  0 0 0 0.28 0"/></filter><circle id="e" cx="21.333333" cy="16.266683" r="6.666667"/><mask id="f" fill="#fff"><path d="m0 0h43.335938v32h-43.335938z" fill="#fff" fill-rule="evenodd"/></mask><mask id="g" fill="#fff"><path d="m0 0h42.666667v32h-42.666667z" fill="#fff" fill-rule="evenodd"/></mask><mask id="h" fill="#fff"><use fill="#fff" fill-rule="evenodd" xlink:href="#a"/></mask><mask id="i" fill="#fff"><use fill="#fff" fill-rule="evenodd" xlink:href="#e"/></mask></defs><g fill="none" fill-rule="evenodd"><g fill-rule="evenodd" mask="url(#f)"><g mask="url(#g)" transform="translate(.3346)"><use fill="#093" xlink:href="#a"/><g mask="url(#h)"><use fill="#000" filter="url(#d)" xlink:href="#c"/><use fill="#ffd221" fill-rule="evenodd" xlink:href="#c"/><use fill="url(#b)" fill-rule="evenodd" xlink:href="#c"/><use fill="#2e42a5" xlink:href="#e"/><g fill="#f7fcff"><path d="m19.1733333 19.4266667-.2978112.1565686.0568769-.3316177-.2409343-.2348529.332963-.0483823.1489056-.3017157.1489056.3017157.3329631.0483823-.2409344.2348529.0568769.3316177z" mask="url(#i)"/><path d="m21.84 19.4266667-.2978112.1565686.0568769-.3316177-.2409343-.2348529.332963-.0483823.1489056-.3017157.1489056.3017157.332963.0483823-.2409343.2348529.0568769.3316177z" mask="url(#i)"/><path d="m21.84 21.0266829-.2978112.1565686.0568769-.3316176-.2409343-.2348529.332963-.0483824.1489056-.3017157.1489056.3017157.332963.0483824-.2409343.2348529.0568769.3316176z" mask="url(#i)"/><path d="m20.5066667 15.4266667-.2978112.1565686.0568768-.3316177-.2409343-.2348529.3329631-.0483823.1489056-.3017157.1489056.3017157.332963.0483823-.2409343.2348529.0568769.3316177z" mask="url(#i)"/><path d="m20.5066667 18.0933333-.2978112.1565686.0568768-.3316176-.2409343-.2348529.3329631-.0483824.1489056-.3017157.1489056.3017157.332963.0483824-.2409343.2348529.0568769.3316176z" mask="url(#i)"/><path d="m18.6399674 16.76-.2978111.1565686.0568768-.3316176-.2409343-.2348529.332963-.0483824.1489056-.3017157.1489056.3017157.3329631.0483824-.2409343.2348529.0568768.3316176z" mask="url(#i)"/><path d="m16.7732682 17.8266504-.2978112.1565686.0568769-.3316176-.2409343-.234853.332963-.0483823.1489056-.3017157.1489056.3017157.3329631.0483823-.2409344.234853.0568769.3316176z" mask="url(#i)"/><path d="m22.9067318 13.2933252-.2978112.1565686.0568769-.3316176-.2409344-.234853.3329631-.0483823.1489056-.3017157.1489056.3017157.332963.0483823-.2409343.234853.0568769.3316176z" mask="url(#i)"/><path d="m13.2330787 14.6628922.2005092-2.6591177c6.3972547.4823811 11.4464546 2.5858072 15.0840361 6.32744l-1.9120164 1.8588449c-3.1527779-3.2429615-7.5890996-5.0910712-13.3725289-5.5271672z" fill-rule="nonzero" mask="url(#i)"/></g><path d="m16.3859097 14.1370356.0686894-.6631185c4.1239556.4271816 7.661174 2.0067725 10.6010119 4.735336l-.4535193.4886355c-2.8328816-2.6292937-6.2347279-4.1484325-10.216182-4.560853z" fill="#093" fill-rule="nonzero" mask="url(#i)"/></g></g></g><rect height="32" mask="url(#f)" rx="2" width="43.335938"/></g></svg>