<svg height="32" viewBox="0 0 43 32" width="43" xmlns="http://www.w3.org/2000/svg" xmlns:xlink="http://www.w3.org/1999/xlink"><mask id="a" fill="#fff"><path d="m0 0h43.335938v32h-43.335938z" fill="#fff" fill-rule="evenodd"/></mask><mask id="b" fill="#fff"><path d="m0 0h42.666667v32h-42.666667z" fill="#fff" fill-rule="evenodd"/></mask><g fill="none" fill-rule="evenodd"><g fill-rule="evenodd" mask="url(#a)"><g mask="url(#b)" transform="translate(.3346)"><path d="m0 0h42.6666667v32h-42.6666667z" fill="#ff6230"/><path d="m0 0v32l42.6666667-32z" fill="#feca00"/><g transform="translate(2.6667 2.6667)"><g fill="#fff"><path d="m36.4059078 2.95443312c0 .27348128-1.7829461.78201054-1.9050973.89404757-.3803245.34883364-.7178952.54082854-1.0246674.53636493-.0222171.04326886-.0457054.08909599-.0694796.13540172l.0874155-.05062134c.4115078 0 .5377771-.04842228.7465041-.22153159.0286918-.02386923.044753-.03720292.0603666-.04997605.3600903-.29458164.7384955-.41890027 1.5228001-.41890027h1.432116c-1.5334462.46980349-2.3799226.76994964-2.5394293.90043846-.0135238.01106346-.0274707.02264188-.0570369.0472333-.321922.26698837-1.6006159.31789596-2.1710474.31789596l.6355721-.36422281-.6886227-.4214423c.621381-1.20325921 1.3239617-1.86819904 1.579697-2.45731854.0717507-.16528713.6221356-.76203352 1.6511547-1.79023916 0 .28539392-.0875445.53428172-.2589848.80551248-.0851308.13468291-.4239926.5873042-.4573686.63495378-.142453.20337466-.2505259.38884448-.3398608.59463903-.1617149.37253116-.3924441.86028374-.6924378 1.46390035.0434869-.03333907.0909432-.07450414.1404345-.11989751.2348821-.21543388.5258568-.32501616.8930779-.37565434.1264588-.01743811.21072-.02404924.4373965-.03787179.2268191-.01383123.323201-.02565123.3837152-.04801033l-.0066248.01730812zm-15.2660935-.04815964c.4704691 0 1.0718174.17241351 1.8138024.51244376l-.2200394.45524568c-.6792824-.31129545-1.2137893-.46454479-1.593763-.46454479-.2940913 0-.5634917.03986526-.7497499.10932423-.1449075.05403853-.1978202.10473866-.1978202.12759772 0 .04162841.0784583.26373941.2353749.66633301-.4690758-.08980224-.7520992-.30821451-.7520992-.66633301 0-.5008839.6413823-.7400666 1.4642944-.7400666zm2.7200071-1.73390645c.161253.10419953.8101468.58730838.9001392.65091172.1495332.10568462.2874617.19732226.4230224.27990228.3375135.20560438.5568793.39668855.6599307.59245819.1361984.25873969.0636014.51751626-.1817092.69655263l-.3099111-.40260584c.0504477-.03681853.0490141-.0317084.0317809-.06444672-.05038-.09570834-.2090406-.23391372-.4741484-.39541042-.0248936-.01516457-.0848325-.05904189-.1798166-.13163195l-.1687601-.13041965c.130249.23993926.1836311.56650331.1585206.96588527l-.5157587-.03074547c.0416285-.66210049-.1313076-.91948454-.5392816-.91948454-.6535716-.40341483-1.3794375-.57832783-2.1775977-.52473901.1233479-.2572128.472987-.33261186 1.1034738-.33261186.3961433 0 .5706145.07881305.7100221.27851711.0030387.00435437.0030387.00435437.0057647.00824777.0184645.0263176.0178245.02572606.0329516.03195318.0511012.02103611.1543169.03548815.3253855.03548815.1201647 0 .2302848.01353876.3302775.04002077-.2713887-.21447427-.6038083-.47998155-.9962538-.79466849.2418183-.16277406.5020295-.08576049.8619682.14682688zm.6570376-.60691705c.5923037 0 .8563835.17729067 1.1954233.71527506.0488177.07746337.1464624.1356391.3699886.21245063-.0114427-.00393212.5688665.17996285.7861024.26072439.3844708.14293423.753794.31743992 1.1451617.55282308l-.2715422.42807009c-.3625705-.21806342-.7027549-.37880099-1.0579294-.51084376-.0601719-.02237006-.1528601-.05406372-.2534404-.08756871.2551628.20858654.3841262.42496924.3804585.66079263l-.5166651-.0076188c.0014608-.09392156-.6641013-.63165813-1.9966862-1.61320972.222868 0 .4226758.06184299 1.0874859.3703282-.2287824-.23093263-.5187407-.55869084-.8683571-.98122309zm-4.2347598 4.14553585-.0748453.49783862c-.7273852-.10368321-1.8186723-.08856183-2.047611 0 .8733851-.40909133 1.5808705-.57503754 2.1224563-.49783862zm.5220527 2.21881616.1484876.48192285c-.1067364.03118119-.2109592.06194521-.3121092.09227984l.3643814.33736155c-.6349224.66405599-1.1354895 1.21765747-1.2319217 1.4970963l-.0070657.02410047-.0005427-.05136962c.0108542-.61002593.2976806-1.21101978.8604792-1.80298154-.727649.21876762-1.2937598.41489819-1.488645.5840756l-.0182915.01827556.0253371-.04569552c.3161763-.52580339.8694732-.90415856 1.6598905-1.13506549zm2.2927636 4.05778601-.1960259.4646203c-1.0214144-.4486923-1.8220305-.7669292-1.9612086-.6010633.6156994-.2703312 1.3347775-.2248502 2.1572345.136443zm-.0190821 1.1834017-.2737283.4235222c-.9279822-.6192424-1.6611739-1.0716702-1.8270398-.9324921.653288-.1593093 1.353544.0103474 2.1007681.5089699zm-4.1078514-1.0369541-.4819229.1484875c-.3128342-1.0708626-.5836767-1.88872891-.8001993-1.88872891.6028496.2978875 1.0302237.87796791 1.2821222 1.74024141zm-2.8668008-.2672531-.4020736.30436c-.6602247-.899286-1.1944601-1.57519544-1.3979248-1.50114036.6683769.07373597 1.2683763.47266276 1.7999984 1.19678036zm13.3893796.7877552-.1866365.3520253.1141369-.0585922c.1401399.2568704.2135647.4587471.2135647.6309318 0 .2854995-.2074247.4755998-.4987718.4755998v-.6289308c-.0569216 0-.1471336.0826774-.1471336.153331 0-.0426613-.0437879-.1630534-.1380735-.3358748l.1901723-.1012676c-.2294597-.0938192-.3447053-.0825322-.3962897-.0167181-.1940444.2475721-.3812547.4441055-.5639807.589889-.0768182-.5066524-.0599764-.8304708.0505256-.9714551.2975351-.379611.7813281-.379611 1.3624863-.0889383zm-7.3069252 4.4490708c.1034878.0941088.2461899 0 .4076361 0h1.013124v.6289308l-.4104714-.0009763-.065.069.0562489.0915406c.1452768.2144792.3448658.4095349.3448658.5571217 0 .2854995-.6474202.2840911-.9387673.2840911.1611716-.2507636.2299528-.4567455.2063434-.6179458-.0081-.0553054-.0057095-.0908323.0016681-.1148028-.232166-.1114516-.2038382-.0760158-.2593405-.005203-.1940444.2475721-.3812547.4441055-.5639807.589889-.0768182-.5066524-.0599764-.8304708.0505256-.9714551l.0651836-.0728891c-.2863193-.1693752-.5612634-.3979341-.5885344-.4535387-.0297521-.0606634.1970809-.0552509.6804988.0162376z" stroke="#979797" stroke-width=".2"/><path d="m30.6804678 9.1686709.0740083-.03876817c.3528817 0 .4611618-.03874124.6401522-.1772409.0246042-.01909708.0383772-.02976497.0517664-.03998437.3087894-.23568611.6332846-.33514979 1.3058519-.33514979h1.2280873c-1.3149813.37587596-2.0408631.61601406-2.1776454.72041432-.0115971.00885155-.0235571.01811511-.048911.03778998-.2760589.21360954-1.3725816.2543392-1.8617457.2543392l.5445074-.2919335-.59-.33665404c.5328549-.96269229 1.1353413-1.49469109 1.3546429-1.96602827.0287134-.06171264.1468125-.19860171.3542973-.41066719l.1997346-.20018097c.2216249-.21859152.508921-.4924147.8618883-.82146953 0 .22833528-.0750723.42746309-.2220881.64446684-.0730025.10775584-.3635878.46988481-.3922088.50800784-.1221582.16271408-.2148344.31110303-.291442.47575319-.1387639.29824032-.336785.6887829-.5942782 1.17214287.0378169-.02762179.0784952-.06054377.1209169-.09684573.2014193-.17236231.4509398-.26003587.7658441-.30054999.1084427-.01395172.1806995-.01924109.3750822-.0303001.1945049-.01106597.2771556-.0205228.3290486-.03841165-.0044884.01221197-.0076102.01796843-.0091523.02024054h.5526418c0 .21880433-1.5289358.62566363-1.6336845.71530116-.3258417.27883546-.6150879.43241901-.8779623.42913923z" stroke="#979797" stroke-width=".2" transform="matrix(-.8660254 .5 -.5 -.8660254 63.339515 -1.818572)"/><path d="m11.98033 20.3803381c.1034877.0941088.2461898 0 .407636 0h1.013124v.6289308l-.4108462-.0009391-.065.069.0566237.0915034c.1452768.2144791.3448659.4095348.3448659.5571216 0 .2854996-.6474203.2840912-.9387674.2840912.1611717-.2507636.2299528-.4567456.2063435-.6179458-.0081001-.0553055-.0057096-.0908323.0016681-.1148029-.232257-.1115651-.2037493-.0761292-.2593406-.0052029-.1940444.247572-.3812547.4441055-.5639807.589889-.0768182-.5066525-.0599763-.8304709.0505257-.9714551l.0652397-.0728559c-.2863395-.1693786-.5613178-.3979637-.5885905-.4535719-.0297521-.0606635.1970808-.055251.6804988.0162376z"/><path d="m30.1420342 5.95433012c.3370223.11826214.668984.33819747 1.1373605.74905336.4477349.39274932.6857529.53636455.9106576.56498598.1334367.01698119.0243402.02989419.6373719-.05980451.3081214-.04508428.5881964-.06855593.9271938-.06858076l-.0159068.06405335c.1019721-.32811451.1019721-.52251366 0-.58319745-.1019722-.06068379-.1903108-.1383994-.2650158-.23314681.5132902-.09864304.7931659-.06761709.8396273.09307786s.0464614.36673462 0 .61811903l-.1315664.02430153c.1947734-.00724425.3768072-.01075389.5461664-.01050197l-.0207874.09134781c.0769521-.32811451.0769521-.52251366 0-.58319745-.0769522-.06068379-.1436159-.1383994-.1999912-.23314681.3873487-.09864304.5985538-.06761709.6336154.09307786.0350615.16069495.0350615.36673462 0 .61811903l-.0793422.01973862c.3685832.01328353.662751.04884092.8834346.10705783.4840011.12768074.6675153.39842607.4664715.75332184l-.2262281-.12150785c.1071637-.18917238.0325862-.29919941-.307804-.38899521-.3953516-.10429479-1.0792559-.13093944-2.0532537-.07689812-.3616134-.00272057-.6438003.01973092-.9582207.06573687.0054321-.00079482-.0490704.00765494-.1190878.01827622l-.14756.02204219c-.047308.00691536-.0883503.01270012-.1099653.01525854-.1294746.01532501-.231491.01777066-.3326334.00489925-.2910053-.0370334-.5663118-.20314781-1.0501028-.62752519-.4457063-.39096979-.7523616-.59413882-1.0520261-.699292-.3052126-.10709998-.520202-.12007998-1.325631-.10772868-.217943.00334217-.3558647.00478237-.5165365.00478237v-.25157233c.159005 0 .2957749-.00142817.5124681-.00475117.8393603-.01287165 1.0711093.00112022 1.4172921.12259677z" stroke="#979797" stroke-width=".133333"/></g><path d="m33.8219825 4.12075327c0 .08222821-.024957.16342051-.0735434.25240464-.0255788.0468467-.057161.09521346-.0997562.15435678-.0239764.03329115-.1112024.14998633-.116806.15759096-.1931675.26214655-.2779945.4459797-.2779945.6859245 0 .25386744-.1411735.40339852-.4074159.47324591-.1958907.05139097-.3891013.05897566-.8529423.05132219-.1277266-.00210747-.1847233-.00281394-.2540455-.00281394-.2190079 0-.3790911-.03068242-.5891323-.1010873-.0371641-.01245722-.1741914-.06053957-.2047651-.07091813-.3403986-.1155521-.6436977-.16849996-1.1402139-.16849996-.5272402 0-.6541867.2211374-.400164.57079408.2634915.3626902.8708104.76088983 1.5872511 1.01359118.7062224.2490972.8933301.62450491.6407932 1.04552337-.1920014.32009646-.6489431.64616904-1.0350232.77722096-.3182146.1080155-.5432257-.06588758-.67949-.44139878-.0984594-.27132978-.1456624-.63908714-.1456624-.96895393 0-.25615359-.5599828-.35832473-1.613227-.36145604-.1721845-.00051191-.3259291.00097368-.6016197.00499317-.283769.00413727-.3640045.0050843-.4823816.0050843-.5698392 0-.7340216-.08086615-.8662076-.37009515-.0061581-.01347424-.0695682-.15944216-.0926249-.20822301-.0424995-.08991569-.0874706-.17108585-.1433086-.25481924-.1541424-.23114844-.4226223-.19526222-.7197655.05106814-.2645436.21930549-.4781016.55523054-.4781016.75062272 0 .05436291.0104002.10778329.0314441.16179423.0617224.1584154.2138497.32408872.4982416.5517592.1198574.09595212.2600035.20101687.4724653.35557674-.0137208-.00998155.4601091.33302889.6133312.44538672.2271663.1665811.7301955.57487492.8205137.63507753.2054126.13691993.4104556.20594128.8354104.27592626.1913191.03150797.4322481.06395226.7879798.10684188.8756029.1055691 1.3758274.06956782 1.9335394-.07490644.1215989-.0321594.1423032-.03767892.1608599-.04258769.0629331-.01664765.10917-.02834784.1546896-.03889601.1575497-.03650874.2901951-.0541959.4368046-.0541959.3587117 0 .5436508-.14189449.6911776-.43817794.0137414-.02759731.0270105-.05586162.0440866-.0934718-.0065552.01443781.0317852-.0704365.0413267-.09102045.0381406-.08228134.0674986-.13515298.1022401-.17874789.0513598-.06444821.1636826-.046437.3606769.03346803.0743423.03015481.1591428.06846318.2787809.12513507.0218559.010353.2516051.12027542.3228245.15369867.1238567.05812592.2284409.10505733.3283592.14667297.6166896.25684918.9965347.27813478 1.1490168-.01245544.1278168-.24358473.2415908-.31777354.3436988-.22013947.0679369.06496017.1130422.18159681.1911333.45008455.0988571.34064469.1459814.46427412.2104376.53169215.1183523.12379084.0591176.30272484-.1328282.57016164-.0274703.0382742-.0572421.0779442-.0949319.1268774-.2429589.3154376-.2738482.36044-.2738482.4254898 0 .2002695-.1327975.2825567-1.4461734.9916959-.1731949.0935142-.3683338.0976897-.5794589.0239378-.2619534-.0915077-.5393922-.2984021-.8206113-.5859459-.1351004-.1381389-.2622805-.2860343-.3778163-.4339261-.0404409-.0517665-.076549-.0998502-.1078532-.1430288-.078069.042093-.1254025.0878841-.1791514.1371692-.1534584.1407141-.3276904.2813973-.5194874.4127362-.6152265.4212951-1.265232.652466-1.9159669.5928645-.4209906-.038559-.8260132-.142374-1.2761053-.3070321-.0789962-.0288994-.6901476-.2720744-.7996135-.3009873-.1668838-.0440785-.2044267-.0147808-.1623691.1453004.0691843.2633325-.1562305.9828561-.7261812 2.4982197-.0145603.0387124-.029694.0788927-.0458796.1218172-.6445002 1.7092201-.7791452 2.0948387-.7791452 2.3357199 0 .538815.415596.6262361 2.5018591.6262361.5277666 0 .7852884-.0166057.9011322-.056826.0823865-.0286041.0870584-.0471661.0654593-.1742228-.0412977-.2429335.0184205-.4212706.3182744-.6696396.1916043-.1587058.4101228-.2562706.6500805-.2992293.3611155-.064649.7464422-.0044239 1.1234118.1351715.094765.0350924.1816178.0726964.2587328.110329-.1316701.0815717-.3058801.176811-.5010843.3012694-.4193743.2673851-.7921693.5741194-.8290203.6936367-.0187329.0607556.1163251.1374599.3650381.1978376.2342632.0568698.5400508.0926818.7801185.0926818.807253 0 1.0742325.4132352.7885344 1.2150353-1.3199468-.4314735-2.1691894-.4314735-2.5912201.0110897-.2033415.2132344-.1697533.5386308.0467843 1.0671005.0271326.0662181.0559209.1333301.0962805.225262.2201577.5014792.2673774.6256073.2805957.8020592.0185682.2478692-.1209605.3774291-.4473265.3774291-.5768752 0-.9540465-.4354982-1.2946757-1.2701532-.0531902-.1303339-.2997197-.8028336-.3638825-.9424801-.0563754-.1226978-.1077041-.2045961-.1579158-.2491928-1.0443278-.0041922-2.8346977-.5488212-4.2208165-1.1761867-.3848787-.1741983-.445993-.4668828-.3705033-1.1159323.0567651-.4809444.0585992-.653366-.014066-.8230577-.0940004-.2195149-.3212256-.3327136-.7421625-.3327136-.6795584 0-.8995253-.0412343-3.0601703-.5126372-1.6158891-.3525497-2.6769267-.5111155-3.8274369-.5111155-1.1789989 0-1.6190916.6275361-1.4395036 1.6122483.1401564.7685014.6849757 1.623245.9806652 1.623245.1716827 0 .2338295-.0723115.3036375-.304769.1315735-.4381335.169374-.5315789.3534828-.7498047.1841158-.218234.4491194-.40564.8190354-.5623605.6767701-.2867238.9384227-.2094445.7449306.1231904-.1511647.2598693-.5333922.5679459-.7320457.5679459-.0592515.0623564-.0087911.1139804.068954.1758432.0272011.0216444.0573394.0442554.089913.0675827.0538122.0385372.1115614.0771368.1693216.1139053.0346507.0220576.0615602.0385756.0723554.045465l1.3219248.5351451-.4476907 2.3906086h-1.2747781c-.1443016 0-.3824056-.0845689-.6920631-.2333288-.0686788-.0329934-.1399335-.0687343-.2132164-.1068128-.1421035-.0738382-.2851701-.1529175-.4221514-.231995-.0479437-.0276773-.0917088-.0533812-.1304115-.0764556-.0736027.1101439-.1042463.1869723-.1328565.2713111-.1323941.3902792-.1760719.7929778-.0786266 1.1677378.0422184.1623658.1104973.3148456.2071476.4558646.1533659.2237707.4918616.8094698.551371.8709831.0987103.1020343.1956466.0803941.4544541-.1103361.2003188-.1476264.3322467-.1541774.4740516-.047682.0406723.0305449.1897597.169759.2199233.1951399.1980233.1666248.4132036.2522166.7420099.2522166.3392791 0 .5070062.110934.5425969.3378128.025846.1647596.0110083.2465858-.1181426.79591-.0854444.3634253-.1239517.6014364-.1239517.8549967 0 .259966-.0625241.3689124-.184158.2923313-.0802942-.0505536-.1827684-.1960972-.3064446-.4206488-.0405895-.0736959-.0828339-.1549008-.1263323-.2423892-.0727367-.1462955-.1454848-.3029513-.2148012-.4595953-.024257-.0548169-.0463549-.1057224-.065861-.1514162-.0881311-.0188926-.1295877.0003713-.1683613.0303999-.1130539.0875556-.1818809.2474668-.1818809.5014446 0 .8289655-.0674742 1.0510743-.4691582 1.0510743h-2.785326v-1.6522809c0-.1028327.0002984-.130543.0022596-.1546838.0698164-.041981.1475395.0836477.1925732.1340413.1881287.2105196.4749377.2461802.926768-.0066233.4647619-.2600389.3518647-.70056-.1896177-1.2225696-.4161951-.4012279-1.0682775-.7992228-1.2581801-.7992228-.1209193 0-.1769259-.1256372-.1890672-.3513788-.0093728-.1742675.0066954-.4045735.0443675-.7128294.0093682-.0766566.0198392-.1565188.0330214-.2530118.0823374-.602703.079383-.579235.079383-.6823274-.1233273-.0293322-.2117413-.0020875-.3260072.0468481-.2186989.0936599-.5264313.2641799-.8863541.4891707-.7031383.4395378-1.51364324 1.0292185-1.9971689 1.4553958-.30749742.2710269-.6097878.4608935-.94116008.6010687-.26148615.1106123-.50158557.1801232-.93279679.2817508-.63282142.1491429-.77571282.1860588-1.10129058.297836-1.02167773.3507619-1.62739033.0890854-1.62739033-.4357036 0-.3421036 1.04782288-1.1039985 2.16848232-1.6650428.26495536-.1326466.43480925-.2851903.74434493-.6291034.6503606-.7218083 1.0896011-.9673678 2.05601896-.9673678.79170207 0 1.28662867-.399154 1.55111227-1.1035205.1815739-.4835634.2291764-.9646732.2291764-1.6578592 0-.2964428-.0330452-.2176001.7135379-1.8560754.128704-.282458.22909-.5134587.3178211-.7354306.2557669-.6398324.3901664-1.151318.3901664-1.5723394 0-.5266962.3119528-.8191162.9205999-.941267.459061-.0921301.9000593-.0925032 2.0895183-.0387534.3518194.0158981.5375634.0233569.7491267.0290263.1572323.0042134.3031309.0063941.442576.0063941h2.52798c.1154945 0 .2354397.074046.4010868.2302056.0689906.0650391.389683.3966896.4839289.4871743.4803509.4611808.9196793.6992712 1.4647773.6992712.2911424 0 .4556861-.0722237.5151188-.2026584.0508934-.1116939.0269105-.2695968-.0605155-.4614674-.0484866-.1064119-.1148523-.2196955-.1946009-.3363763-.0621982-.0910028-.1288938-.1788274-.1955853-.2601415-.0233338-.0284499-.0449897-.0540416-.0644059-.0763623-.0398394-.0687032-.0446402-.0843484-.0502316-.1023129-.0159927-.0513825-.0351031-.1110111-.0573011-.1781979-.0634526-.1920523-.1388973-.4060907-.2260924-.63661117-.2491178-.6586005-.542355-1.31717757-.8777153-1.93165324-.1573796-.28836436-.3207962-.56058354-.4901178-.81400583-1.0943344-1.63788132-.5775025-3.09407273 1.1086373-3.09407273.5442563 0 .8115405-.07666357.8786726-.21944086.0502727-.10692035.0154066-.209715-.1464546-.52558646-.0443032-.08645766-.0705425-.14042826-.0948367-.19745637-.0505655-.11869716-.0768669-.21896855-.0768669-.31264269 0-.41653534.5941801-.41653534 1.7623431-.02977253.2649057.37183547 1.1410774.22146288 2.6371511-.45546537 1.1184968-.50608608 1.5876351-.55531005 2.1061172-.33214346.0468264.02015513.2092597.0944126.2309237.1040344.3480824.15459677.6446953.22518049 1.1100463.22518049.7136418 0 .995312.16021319 1.1861521.53037454.0115921.0224846.0029085.00499416.0427851.08568609.153137.30987928.2874305.41001236.7051741.41001236.7688372 0 1.398729.11433255 1.8896373.34354901.1319671.00519316.1928665.14539133.1928665.40511739zm-2.5870811 12.09227153c.0045272-.0095326.0063004-.0144823.0075106-.0162588-.0044729-.003073-.0167608-.0023435-.0347018.0016929.0100568.0052846.0191317.0101554.0271912.0145659zm.0064299-.016315c.0004824-.0007081.0008753-.0009043.0013175-.0007012-.0001474-.0000703-.0003011-.000138-.0004611-.0002031zm-.1192306-.0378502c.0688385-.025931.1167913-.0342704.1483157-.019628.0458687.0213048.0415431.0691238.0046435.1317355l-.01634.0277259-.0282023-.0163633c-.0164368-.0095368-.0480764-.0265193-.0930545-.0484689-.0292097-.0142546-.0598711-.0285134-.0918743-.0426319.0277534-.0127969.0533655-.0236502.0765119-.0323693zm-.23739-.0327691c-.3668951-.1358648-.7410746-.1943476-1.0887723-.1321007-.229097.0410143-.4371707.1339157-.6199095.2852782-.2818714.2334742-.3341291.3895319-.2964017.6114635.0261307.1537133.0140984.2015189-.1074897.2437336-.1257966.0436759-.3863833.0604792-.9228252.0604792-1.1392034 0-1.5953511-.0174932-1.9542121-.09298-.4250144-.0894023-.6122375-.2676094-.6122375-.5961492 0-.2530231.1301119-.625659.7831029-2.3573969.0161798-.0429091.0313074-.0830735.0458613-.1217687.5594242-1.4873759.788199-2.2176247.7242569-2.4610037-.0553053-.2105054.0304482-.2774254.241854-.2215875.1139805.0301053.7301012.2752577.8054207.3028119.4451698.1628574.84494.2653261 1.2594375.3032904.6329451.0579722 1.2689667-.1682255 1.8727621-.5816929.1891278-.129511.361026-.2683098.5123622-.4070778.0529292-.0485336.0994869-.0935742.1392601-.1339561.0158447-.0160871.0411449-.0430848.0759006-.0809929.029822.0436744.0425635.0618119.0610387.0872951.0308753.042587.0665328.0900706.1064938.1412228.1141841.1461617.2398703.2923198.3731831.4286308.2748897.281072.5451514.4826143.7956482.5701198.1947298.0680247.3707509.0642582.526325-.0197419 1.2391942-.6690858 1.4129055-.7767251 1.4129055-.936693 0-.0873406.0225226-.1201535.2867661-.4632252.0372931-.0484183.0666696-.0875616.0936617-.1251694.1747056-.2434161.2263418-.399397.1384954-.49128003-.074772-.07820789-.1228296-.20428576-.2075586-.49621697-.0917354-.31556449-.1359838-.42998524-.1919921-.48353959-.0573523-.05483939-.1300366-.00744404-.2409257.20388095-.1751639.33381579-.585727.31080883-1.231936.04166491-.1009299-.04203694-.2063432-.08934041-.3310009-.14784223-.7996391-.37527048-.8357726-.38992698-.8832097-.3304011-.0308351.0386931-.0582011.08797718-.0943979.16606497-.0093919.02026144-.0475429.10471642-.0411233.09057708-.0173561.03822695-.0309115.06710098-.0450418.09547953-.1573926.3160972-.3627177.47363287-.7492973.47363287-.1410967 0-.2688736.01703799-.4218508.05248716-.044733.0103659-.0903777.02191623-.15271.03840492-.1119508.02980388-.1365422.03628914-.1611873.0426734-.5655992.14651745-1.0741464.18311771-1.9580825.07654391-.3566044-.04299484-.5983402-.07554779-.7908141-.10724594-.4334027-.07137625-.646889-.14323975-.8611246-.28604074-.0933764-.06224105-.597984-.47181605-.8228844-.63673561-.1530323-.11221857-.6267131-.45512108-.6131332-.44524214-.2132036-.1550994-.3540113-.26066023-.4748269-.35737939-.2924866-.23415071-.4508054-.40656682-.5176122-.57803186-.0237755-.06102171-.0356442-.12198475-.0356442-.18410331 0-.21722164.2232684-.5684211.5008211-.79851105.3226605-.26748409.6345928-.30917834.8158087-.03743093.0576498.08645033.1040787.17025172.1478111.26277579.0235725.04987203.0872018.19634465.0929613.20894676.120537.26374041.2606935.33277289.8071966.33277289.1179167 0 .1980304-.00094559.4814146-.00507725.2760603-.00402488.4300999-.00551333.6027839-.00499993 1.108603.0032959 1.6776204.10711542 1.6776204.42434883 0 .32334767.0463558.68450504.1419724.94800079.1259034.34695879.3201182.49706059.5973278.40296395.3725597-.12646252.8170026-.44361607 1.0005105-.74955244.2304046-.38412048.0639994-.71799142-.6070173-.9546709-.7278775-.25673533-1.3459928-.6620138-1.6179834-1.03640285-.2849979-.39229328-.1255722-.67000852.4528947-.67000852.5039781 0 .8144297.05419649 1.1614766.17200544.031045.01053858.1679119.05856461.2045263.0708376.2037449.06829438.3569701.09766236.5681084.09766236.0698093 0 .1270476.00070947.2539147.00280275.4582552.0075613.6485986.00008917.83627-.0491455.2400246-.06296929.3596285-.18965379.3596285-.41251833 0-.2561819.0897546-.45069411.2901055-.72258915.0058955-.00800077.0928145-.12428521.1164026-.15703717.0412041-.05721183.0714704-.10356343.0956079-.14777038.043996-.08057712.065984-.1521103.065984-.22288018 0-.23371148-.0489088-.34237402-.1359608-.34237402-.4962013-.22978922-1.1188257-.3433993-1.8819524-.3433993-.445192 0-.6003088-.11565946-.7633768-.4456346-.0395595-.08005017-.0309686-.06274653-.0423075-.08473994-.1796-.34835964-.4386357-.49569844-1.128427-.49569844-.4752265 0-.7808001-.07271605-1.136851-.23085194-.0222712-.00989152-.1842163-.08392577-.230233-.10373239-.4989683-.21476741-.9496479-.16748022-2.0527843.33165576-1.51611.68599408-2.4119987.84293862-2.695255.45463811-1.1179171-.36903516-1.6668675-.36801196-1.6668675-.02643616 0 .08401859.0243415.17681804.0719376.28854505.0235696.05532717.0492938.10823837.092971.19347418.173244.33808499.2100453.44658533.1473872.57984724-.0816655.17368697-.3691797.25615299-.9374008.25615299-1.6280583 0-2.1237293 1.39656972-1.0544961 2.99688211.1704049.25504368.334775.5288513.4930134.81878923.3368651.6172328.6312303 1.27834338.8812887 1.93943054.0875166.23137021.1632509.44623031.2269692.63908691.0223119.0675313.0415311.1274994.0576282.1792175.022309.0623301.0291398.0700596.037704.079905.0198067.0227695.0418564.0488265.0655902.0777641.0677872.0826501.1355704.1719068.1988857.2645441.0816259.1194276.149739.2356939.1998701.3457149.0941204.2065625.1205671.3806872.0605155.5124802-.0716841.1573224-.2601472.240045-.5741592.240045-.5654605 0-1.0188534-.2457124-1.5101267-.7173798-.0954635-.0916537-.4158848-.4230238-.4835074-.4867733-.1541719-.1453416-.2629567-.2124979-.3561589-.2124979h-2.52798c-.1400753 0-.2865582-.0021894-.4443529-.0064179-.2120898-.0056835-.3981349-.0131544-.7503441-.0290702-1.1830327-.0534593-1.6219772-.053088-2.0734854.0375263-.5812466.1166518-.8690479.3864326-.8690479.8796687 0 .4305671-.1361347.9486565-.3945653 1.5951524-.0891491.2230174-.1898974.4548517-.3189726.7381243-.7353707 1.6138685-.7079876 1.5485348-.7079876 1.8305687 0 .7002326-.048152 1.1868963-.2331039 1.6794561-.2731707.7275018-.7906158 1.1448167-1.61177527 1.1448167-.94516122 0-1.36828226.2365478-1.9564629.8892743-.36558252.4061954-.54010305.5629302-.81436682.7002369-1.09186552.546629-2.13342594 1.3039703-2.13342594 1.6091097 0 .4739425.55668.7144363 1.54132201.3763894.32843934-.1127597.47243521-.1499608 1.10757359-.2996498.42784263-.1008337.66505848-.1695098.92225513-.2783076.32492092-.1374462.62126378-.3235772.92355073-.5900115.48636683-.4286815 1.29966717-1.020396 2.00562057-1.4616936.3625153-.2266114.6728528-.3985749.8952441-.4938162.1204472-.0515827.2148557-.0806747.2821124-.0855461.0825408-.0059784.1344894.0265997.1344894.0962689 0 .1075775.0034682.0800285-.0799469.6906206-.0131463.0962296-.0235818.1758217-.03291.2521504-.0372654.3049283-.0531331.5323601-.0440034.7021084.0104608.1944963.0538257.2917749.1245651.2917749.2120583 0 .8761599.4053309 1.3036237.8174221.5671776.5467807.6918774 1.0333547.1763542 1.321795-.4777068.2672817-.7985513.2273893-1.0076742-.0066233-.0248365-.0277925-.0565335-.0728147-.0812994-.1101358-.0001688.0211503-.0002167.0495936-.0002167.0894933v1.5893878h2.7207354c.3449302 0 .4045676-.1963124.4045676-.9881812 0-.2720781.0767277-.4503455.2062652-.550667.0793015-.0614158.1589843-.0819862.2141762-.0819862.0342277.0299854.0424036.0494224.0540346.0766685.0194031.0454526.0413934.0961103.0655362.150669.0689686.1558581.1413408.3117043.2136188.4570773.0431315.0867505.08498.1671945.1251178.2400701.1181125.2144499.2171289.3550825.2845944.397559.0529914.0333636.0844962-.0215325.0844962-.239517 0-.2594638.0391316-.5013343.1255805-.8690317.1262057-.536797.1412206-.6196011.1172543-.7723784-.0302447-.1927999-.1687644-.2844163-.4787469-.2844163-.345093 0-.5749805-.0914419-.7842419-.2675228-.0325487-.0273878-.1797825-.1648712-.2171383-.1929253-.1174884-.0882337-.217461-.0832695-.3956249.0480297-.282041.2078523-.4113808.2367263-.5404493.1033116-.0659058-.0681251-.4086178-.6611197-.5580809-.879196-.1008187-.1471008-.1720511-.3061764-.216037-.4753397-.1009199-.3881229-.0560027-.802249.0799102-1.2029007.0292815-.0863177.0606647-.1650008.0920771-.2345281.018927-.0418924.0337321-.0715546.0423469-.0874588.054237-.0067671.0704514.0030282.0934916.0167646.038449.0229231.0819525.0484734.1296233.0759931.1362028.0786281.2784498.1572543.4196205.2306079.0727021.0377767.1433517.0732141.2113856.1058976.3005909.1444044.5326828.2268379.6634851.2268379h1.2209005l.4286829-2.2891092-.9493653-.3843246c-.2703916-.1094606-.2703916-.1094606-.3289481-.1335783-.0157784-.0094163-.0432093-.0262544-.0784249-.0486717-.0586836-.0373562-.1173782-.0765877-.1722469-.1158815-.0334112-.0239272-.064406-.0471808-.0925157-.069548-.086004-.0684346-.1416773-.1253918-.161087-.1717255-.0307081-.0733044.0225857-.115711.1330045-.115711.1704054 0 .5349371-.2938138.6758443-.5360493.1457951-.2506385-.0301757-.3026116-.6629594-.0345233-.3608862.1528949-.6175507.3344035-.7948959.5446123-.1764824.2091862-.2123989.2979742-.3413976.7275337-.0769319.2561796-.1575732.3500106-.365632.3500106-.338512 0-.8991721-.8795956-1.0442607-1.6751414-.1861378-1.020626.2805876-1.6861381 1.5030991-1.6861381 1.1564239 0 2.2213784.1591512 3.8415592.5126372 2.1532677.4697934 2.3737032.5111155 3.046048.5111155.4446959 0 .6964416.1254143.8017783.3714023.0786823.1837434.0767906.3615836.0249685.8003837-.0788915.6777604-.0225761.9474623.3272106 1.1057778 1.3835976.6262244 3.1749331 1.1703508 4.2056886 1.1703508.0831692.0576769.1414596.1485705.2047771.2863771.0653963.1423312.3125907.8166449.3649484.9449386.3316457.8126426.6935269 1.2304861 1.2346508 1.2304861.2905121 0 .3986077-.1003725.3829071-.3099605-.0124369-.1660216-.0595344-.2898285-.2755678-.7819133-.0405482-.0923613-.0695159-.1598915-.0968809-.2266771-.2253668-.5500174-.2610058-.8952824-.0341245-1.1332018.441446-.4629231 1.3047816-.4666076 2.5880675-.0190304.2547722-.7421718.012728-1.1014065-.7380497-1.1014065-.2452824 0-.5563167-.0364265-.7957434-.0945498-.2877341-.0698505-.447205-.1604198-.4112758-.2769475.0433302-.1405311.4202624-.4506696.8555001-.7281687.1589951-.1013722.3044971-.1838043.4156526-.2350577-.0504363-.0222503-.1042055-.044152-.1608781-.0651384z" fill="#979797" fill-rule="nonzero"/><path d="m5.15855196 21.4769647.16870439.4489347.1021748-.073924.49936941.129304c-.15376233.563025-.5652223.8645932-1.17430214.8645932-.71163433 0-.7100013-.0005288-.85833899.2586383-.04359011.0761582-.08282792.1367361-.12339237.1890594-.10643492.1372881-.2208261.2172846-.39810625.2879736-.06417135.0255878-.47800161.1646473-.64785188.2282496-.18306816.068552-.33607832.1556031-.52706715.2904783-.03873317.0273532-.21484519.1556461-.26399794.1900352-.32958433.2305893-1.46306177.3218571-1.82948748.3218571l1.12550019-.3218571c.24126125 0 .15293882-.2340232.40247207-.4086058.04403891-.0308113.21891912-.1582068.26214298-.1887313.22431418-.1584094.41388901-.266263.64496405-.3527917.18331661-.068645.5899218-.2052766.63750718-.2242509.09618564-.0383532.1349938-.0654927.18151527-.1254998.02440198-.0314755.05153549-.0733661.08444173-.130858.26555928-.4639699.42883817-.5168415 1.30969859-.5168415l.50375793-.3668286-.14672126.0518772c-.57936144.1968569-.99706912.2957807-1.26941542.2957807-.15989454 0-.26701825-.0339899-.47802995-.126101-.00691152-.0030172-.00691152-.0030172-.01372464-.0059888-.25669075-.1119017-.32814524-.1107994-.51753602.063399l-.07217874.0680086c-.14907729.1437589-.57947162.6176226-.56772858.6053699-.23240002.2424874-.99804249.3648157-1.21808626.3653253l.59536706-.509621c.00577484-.0000134.02497744-.0073084.05967623-.0310836.04830211-.033096.10752194-.086783.18526632-.1679019-.02204436.0230012.41832746-.4618477.58190148-.6195862.02694785-.0259864.05389773-.0513873.08095508-.0762742.36834687-.338799.65597613-.3432361 1.08350852-.1568578l.01395936.0060911c.1453095.0634308.20407228.0820759.26665014.0820759zm2.07786093-.0422324.51671218.0034508c-.00521041.7397139-1.36158698 1.3747171-1.9860134 1.5522444l.88943167-.6261354zm3.13379471-1.6433423.4792085.1882159c-.4280947 1.0334179-.8156236 1.6734222-1.19585303 1.937845-.09670607.0672522-.20119285.1268151-.32077903.1852739-.0640895.0313297-.12838059.0604878-.21310815.0973092-.02292514.009963-.10306433.0445245-.09838457.0425018-.03748895.0162041-.06487424.028192-.09070334.0397686-.23496056.1053086-.29791357.1609802-.29791357.2240714l-1.56011768.2775735c0-.3281944 1.23747264-.7773991 1.6419755-.9586961.02836075-.0127112.05766292-.0255383.09711106-.0425892-.00406753.0017581.07530129-.0324712.09743388-.0420897l.13468464-.0602416c.01973763-.0091888.0385728-.0181693.05718419-.0272673.09733879-.0475834.17942604-.0943773.25230134-.145057zm-6.8792989-.611008c.25749372.0779754.56555854.1177004.92404534.1177004h1.04091317c.25822369 0 .45893755.0922992.64894622.2551467.03964163.0339749.13765906.1264877.14608093.1338424l1.52750107.3993675-.14515808.4828837c-.28921191-.0824295-.54146872-.1527826-.75084249-.2098527.08843706.0524587.15123875.129136.19016187.2335403l-.48571119.1716861c.00525177.014087.01516868.0254461.0212005.030168l-.11778174-.0129658c-.15964078 0-.40314602.0453893-.72315263.1380838-.26832196.0777233-.45618048.1524303-.6028192.2308485-.0537358.0287363-.23231937.1409177-.2849765.1649592-.09732444.0444352-.57549649.0444352-1.43451614 0 .35638405-.0838119.6775106-.556477 1.04349937-.473078.12160372.0277102.14991192.0274496.17164779.0175257.01444456-.0065949.17352975-.1065279.25560305-.1504183.18013033-.0963285.40190675-.184524.70422643-.2720952.40236411-.1165505.72405064-.1759872.96475454-.1600371-.23364514-.0594771-.37034999-.0916286-.39502746-.0916286-.11471447 0-1.18192775-.4186225-1.27395351-.4989871-.01268523-.0110778-.48756567-.1799743-1.42464134-.5066895zm9.9175404-6.9167822-.5163379.0194554c.0014839.0373394.0190435.0715705.041168.090911.0031503.0027539-.0062168-.0018666-.0284287-.0084923-.0812831-.0242466-.2227984-.0384299-.4178538-.0384299-.2543491 0-.880212-.0439888-.9558904-.0439888-.3671427.1972193-.5507141.2619573-.5507141.1942141 0-.0440667.170646-.1959047.5119381-.4555141-.0029006 0 .0083004-.002806.038776-.0141994.0148529-.0055528.0860404-.0334792.0783027-.0304712.0401509-.0156087.0739221-.0280642.1104183-.0403824.2167496-.0731572.4547549-.1128028.7671694-.1128028.5806266 0 .9078575.0976121.9214524.4397004zm-.6411192 2.0125786-.5163379.0194554c.0014839.0373394.0190435.0715705.041168.090911.0031504.0027539-.0062168-.0018666-.0284287-.0084923-.0812831-.0242465-.2227984-.0384299-.4178538-.0384299-.169566 0-.5011215-.1017629-.9946664-.3052888-.0029006 0 .0083004-.002806.038776-.0141994.0148529-.0055528.0860404-.0334792.0783027-.0304712.0401509-.0156086.0739221-.0280642.1104183-.0403824.2167496-.0731572.4547549-.1128028.7671694-.1128028.5806266 0 .9078575.0976122.9214524.4397004zm-1.5673578 1.3213059c.5806265 0 .9078575.0976121.9214524.4397004l-.5163379.0194554c.0014839.0373394.0190435.0715705.0411679.090911.0031504.0027539-.0062168-.0018666-.0284287-.0084923-.081283-.0242466-.2227983-.0384299-.4178537-.0384299-.2543491 0-.4351931.030124-.5979363.085053-.0279523.0094345-.0546996.0192995-.0880588.0322678l-.0305159.0119637c-.0202402.0079005-.0444224.0172972-.0541684.0209408-.0849484.0317582-.3621372 0-.43781556 0 .59738696-.43558 1.00021856-.6533699 1.20849496-.6533699zm.3875433-.8805032c.5806265 0 .9078574.0976122.9214523.4397005l-.5163379.0194554c.0014839.0373393.0190435.0715705.041168.0909109l-.0284287-.0084923c-.0812831-.0242465-.2227984-.0384298-.4178537-.0384298-.2543491 0-.4351932.030124-.5979363.085053-.0279523.0094344-.0546996.0192994-.0880589.0322678.0120448-.0046824-.0651923.0256173-.0846843.0329044-.0849483.0317583-.1483086.0476306-.223987.0476306l-.60138761.1795027c-.00120197 0 .13555571-.1106041.29815551-.2405333l.2003483-.1593493c.1653346-.1307846.3116641-.2443827.3268708-.2495153.2167497-.0731572.4582649-.2311053.7706795-.2311053zm.404728 2.4522791-.5163379.0194554c.0014839.0373393.0190435.0715705.041168.0909109.0031503.002754-.0062168-.0018665-.0284288-.0084922-.081283-.0242466-.2227983-.0384299-.4178537-.0384299-.169566 0-.5011215-.1017629-.9946664-.3052889-.0029006 0 .0083004-.0028059.038776-.0141993.0148529-.0055528.0860404-.0334793.0783027-.0304713.0401509-.0156086.0739221-.0280642.1104183-.0403823.2167496-.0731573.4547549-.1128029.7671694-.1128029.5806266 0 .9078575.0976122.9214524.4397005zm-.6459054.8805031-.5163379.0194554c.0014839.0373394.0190435.0715705.0411679.090911.0031504.002754-.0062168-.0018665-.0284287-.0084923-.0541887-.0161644-.5250287-.1307373-1.41252015-.3437187.95410075.1791437.00830041-.002806.03877606-.0141994.0148529-.0055528.08604032-.0334792.07830268-.0304712.04015086-.0156086.07392207-.0280642.11041827-.0403824.21674966-.0731572.45475484-.1128028.76716944-.1128028.5806265 0 .9078574.0976122.9214524.4397004zm1.7118068-5.4019125.000003.5031447h-.6785164c-.5857068 0-.653538.0283758-.7027662.1411574-.0244414.0559951-.022784.0522559-.0335127.0743229-.0168943.0347483-.0348226.0665504-.0560736.0980161.0147492-.5444274.2788666-.8166411.7923525-.8166411z" fill="#fff" stroke="#979797" stroke-width=".2"/><path d="m33.6214311 3.74693271c-.4869918-.22893287-1.1143093-.3433993-1.8819524-.3433993-1.1514648 0-.2753561-1.02607299-1.9341113-1.02607299-1.6587553 0-1.1657621-1.02607298-3.4334778 0-1.5118104.68404866-2.3988628.83628863-2.661157.45671993-1.1464342-.37956871-1.7196513-.37956871-1.7196513 0 0 .56935306 1.0646217 1.28657292-.5928097 1.28657292-1.6574315 0-2.1631334 1.4267055-1.0815667 3.04547742 1.0815667 1.61877193 1.6743764 3.63173121 1.6743764 3.63173121s1.2909961 1.416651 0 1.416651-1.8922783-1.416651-2.349793-1.416651c-.4575146 0-.5295308 0-2.52798 0-1.9984493 0-3.06413-.88178914-4.5280179 1.1835071-1.4638879 2.0652962-1.0630331 3.1675064-1.0630331 3.8934917s-.0121792 2.7928263-1.81258397 2.7928263c-1.80040474 0-2.40724704 1.1999787-3.35219476 1.673055-.94494773.4730764-1.58435617 1.1968556-1.58435617 1.5570124s.40164911.812093 1.58435617.4060465c1.18270705-.4060465 1.97859185-.3055016 2.96431344-1.1743122.98572159-.8688105 3.26349839-2.3646084 3.26349839-1.9681008s-.3584924 1.9681008 0 1.9681008c.3584923 0 2.5692834 1.4620251 1.4638879 2.0805048-1.1053956.6184796-1.1053956-.6184797-1.1053956 0v1.6208344h2.7530307c.4368629 0 .4368629-.4184213.4368629-1.0196278 0-.6012066.3881461-.6012066.3881461-.6012066s.8596932 2.0707081.8596932 1.0510803.7114247-1.9572729-.2682073-1.9572729-.8655181-.812093-1.4164949-.4060465-.4567203.1005449-1.0521777-.7682657c-.5954574-.8688105 0-1.9681008 0-1.9681008s1.1008945.672877 1.4890406.672877h1.2478393l.4381868-2.3398589c-.8652534-.3502741-1.29788-.5254112-1.29788-.5254112s-.7762922-.4632797-.3881461-.4632797 1.4890406-1.2617088 0-.6308544-.8935832 1.6195453-1.4890406 1.6195453-2.2573899-3.2983863.4588384-3.2983863 5.2132308 1.0237527 6.8876072 1.0237527.1167615 1.8113539 1.1403446 2.2746336c1.023583.4632797 3.004293 1.173281 4.2193014 1.173281.3926471.3165873.600488 2.4618017 1.8043763 2.4618017 1.2038882 0-.6502639-1.7799015 0-2.4618017.4335092-.4546002 1.2949675-.4546002 2.5843751 0 .2787097-.7821873.0260352-1.173281-.7580234-1.173281-.4739241 0-1.2351958-.139306-1.1760879-.3310083.087574-.2840252 1.6778927-1.3089879 1.4416817-.9081823 0 0-1.2302055-.7137794-2.0919455 0-.8617401.7137794.5083835.9081823-1.3057913.9081823s-1.8485236-.2773279-1.8485236-.9081823 1.0222904-4.1048026.8665828-4.6974634c-.1557077-.5926607.8616166.2944017 2.2724.423617 1.4107834.1292152 2.5997072-1.1835071 2.5997072-1.1835071s1.0973839 1.607124 1.8819524 1.1835071c.7845686-.423617 1.4295395-.7448818 1.4295395-.9641945 0-.2193126.7599152-.8399804.5102658-1.10110174-.2496495-.26112129-.2894817-1.53751283-.6928731-.76875641-.4033913.76875641-2.2551222-.67718263-2.4429024-.44154887-.1877803.23563377-.210645.81358627-.9043457.81358627s-.9452125.42069543-2.689862.21034772c-1.7446495-.21034772-1.4026318-.24903235-2.4593636-1.02393399-1.0567317-.77490163-1.6283493-1.12237495-1.6283493-1.53963679 0-.41726183.8861476-1.37531105 1.2572484-.81881642.3711009.55649462.135326.81881642 1.0750551.81881642s2.7295236-.10838919 2.7295236.38282511.1227709 1.60450576.7822263 1.38065872 1.9233025-1.22402287.3938616-1.76348383-2.3521758-1.64539831-1.1760879-1.64539831 1.248129.34050539 1.9341113.34050539c.6859822 0 1.4821085.09449529 1.4821085-.49030762s.5681-.87645632.5681-1.25027688c0-.24921371-.0560854-.37382056-.1682561-.37382056z" fill="#fff" stroke="#979797" stroke-width=".2"/><path d="m29.8408304 3.77358491c.1156168 0 .2194085.04929816.2904143.12748439-.0111526-.00129175-.0215536-.00169823-.0320521-.00169823-.2140342 0-.3875432.16894915-.3875432.37735849 0 .09583108.036686.18331887.097129.24987409-.1987936-.01518577-.3554912-.17760458-.3554912-.37566025 0-.20840934.173509-.37735849.3875432-.37735849zm1.0334487-.75471699c.2140343 0 .3875433.16894916.3875433.3773585 0 .0078839-.0002483.01571134-.0007377.0234753-.0407867-.01610221-.0837308-.0234753-.1284434-.0234753-.2062896 0-.3749336.15694377-.386868.35489623-.1507695-.0502612-.2590374-.19026733-.2590374-.35489623 0-.20840934.173509-.3773585.3875432-.3773585z" fill="#000"/><ellipse cx="14.468281" cy="25.220126" fill="#fff" rx="1.420992" ry="1.320755" stroke="#979797" stroke-width=".2"/><ellipse cx="17.310265" cy="18.427673" fill="#fff" rx="1.420992" ry="1.320755" stroke="#979797" stroke-width=".2"/><ellipse cx="30.551326" cy="19.496855" fill="#fff" rx="1.614764" ry="1.63522" stroke="#979797" stroke-width=".2"/></g></g></g><rect height="32" mask="url(#a)" rx="2" width="43.335938"/></g></svg>