<svg height="32" viewBox="0 0 43 32" width="43" xmlns="http://www.w3.org/2000/svg" xmlns:xlink="http://www.w3.org/1999/xlink"><mask id="a" fill="#fff"><path d="m0 0h43.335938v32h-43.335938z" fill="#fff" fill-rule="evenodd"/></mask><mask id="b" fill="#fff"><path d="m0 0h42.666667v32h-42.666667z" fill="#fff" fill-rule="evenodd"/></mask><g fill="none" fill-rule="evenodd"><g fill-rule="evenodd" mask="url(#a)"><g mask="url(#b)" transform="translate(.3346)"><path d="m0 0h42.6666667v32h-42.6666667z" fill="#73be4a"/><path d="m0 0h42.666667v21.333333h-42.666667z" fill="#af0100"/><path d="m0 0h8v32h-8z" fill="#f7fcff"/><g fill="#b20000"><g fill-rule="nonzero"><path d="m2.52911552.07577266 1.88697443 2.90556-1.88702892 2.77248353-1.93677857-2.77240264zm-.00718334 1.22479877-1.11421464 1.67154707 1.11426913 1.59502111 1.0855604-1.59494022zm.14473449 1.45211674v.68817205h-.33333334v-.68817205z"/><path d="m1.51607652 5.581149.90001343 1.32088332-.90003942 1.26038602-.92376807-1.26034925zm.01471277.68952147-.42012617.6200781.42124296.59875098.41624399-.56504482z"/><path d="m3.51607652 5.581149.90001343 1.32088332-.90003942 1.26038602-.92376807-1.26034925zm.01471277.68952147-.42012617.6200781.42124296.59875098.41624399-.56504482z"/><path d="m4.84940985 5.581149.90001343 1.32088332-.90003942 1.26038602-.92376806-1.26034925zm.01471277.68952147-.42012617.6200781.42124296.59875098.416244-.56504482z"/><path d="m6.84940985 5.581149.90001343 1.32088332-.90003942 1.26038602-.92376806-1.26034925zm.01471277.68952147-.42012617.6200781.42124296.59875098.416244-.56504482z"/><path d="m5.86244886.07577266 1.88697442 2.90556-1.88702891 2.77248353-1.93677857-2.77240264zm-.00718334 1.22479877-1.11421465 1.67154707 1.11426914 1.59502111 1.08556039-1.59494022zm.14473448 1.45211674v.68817205h-.33333333v-.68817205z"/><path d="m2.20823893 16.5414646-2.15887869-3.6253898.56794619-.3603772 1.56504494 2.6281689 1.90962907-3.5092945 1.95707158 3.5176598 1.38278522-2.2950852.56611095.3634411-1.97168302 3.2725116-1.92786221-3.4651587z"/></g><path d="m1 .68817204h.35842294v.68817205h-.35842294z"/><path d="m4 0h.35842294v.68817204h-.35842294z"/><path d="m7 .68817204h.35842294v.68817205h-.35842294z"/><path d="m1 4.8172043h.33333333v.68817204h-.33333333zm3 0h.33333333v.68817204h-.33333333zm3 0h.33333333v.68817204h-.33333333z"/><path d="m1 8.25806452h.33333333v.68817204h-.33333333zm3 0h.33333333v.68817204h-.33333333zm3 0h.33333333v.68817204h-.33333333z"/><path d="m5.66565414 7.84029589 1.83968021 2.87444501-1.39688365 2.5158657-.88559312-1.2909692.6991903-1.4536927-.25639374-.590641-1.49385837 2.4219922.00020524.2876863-.08920524-.1446863-.08766667.1446863-.00033333-.2876863-1.4933198-2.4219922-.25639374.590641.6991903 1.4536927-.88559312 1.2909692-1.39688364-2.5158657 1.8396802-2.87444501 1.5813198 2.50500001z"/><path d="m4 14.1075269h.33333333v.688172h-.33333333zm0 3.4408602h.33333333v.688172h-.33333333zm-.33333333-2.4086022h.33333333v.6881721h-.33333333zm.66666666 0h.33333334v.6881721h-.33333334zm0 .6881721v.344086h.33333334v.6881721h-.33333334v-.3440861h-.33333333v.3440861h-.33333333v-.6881721h.33333333v-.344086zm-1.33333333 0h.33333333v.688172h-.33333333zm2 0h.33333333v.688172h-.33333333zm-4.33333333 0h.33333333v.688172h-.33333333zm6.66666666 0h.33333334v.688172h-.33333334z"/><g transform="matrix(1 0 0 -1 0 32)"><g fill-rule="nonzero"><path d="m2.52911552.07577266 1.88697443 2.90556-1.88702892 2.77248353-1.93677857-2.77240264zm-.00718334 1.22479877-1.11421464 1.67154707 1.11426913 1.59502111 1.0855604-1.59494022zm.14473449 1.45211674v.68817205h-.33333334v-.68817205z"/><path d="m1.51607652 5.581149.90001343 1.32088332-.90003942 1.26038602-.92376807-1.26034925zm.01471277.68952147-.42012617.6200781.42124296.59875098.41624399-.56504482z"/><path d="m3.51607652 5.581149.90001343 1.32088332-.90003942 1.26038602-.92376807-1.26034925zm.01471277.68952147-.42012617.6200781.42124296.59875098.41624399-.56504482z"/><path d="m4.84940985 5.581149.90001343 1.32088332-.90003942 1.26038602-.92376806-1.26034925zm.01471277.68952147-.42012617.6200781.42124296.59875098.416244-.56504482z"/><path d="m6.84940985 5.581149.90001343 1.32088332-.90003942 1.26038602-.92376806-1.26034925zm.01471277.68952147-.42012617.6200781.42124296.59875098.416244-.56504482z"/><path d="m5.86244886.07577266 1.88697442 2.90556-1.88702891 2.77248353-1.93677857-2.77240264zm-.00718334 1.22479877-1.11421465 1.67154707 1.11426914 1.59502111 1.08556039-1.59494022zm.14473448 1.45211674v.68817205h-.33333333v-.68817205z"/><path d="m2.20823893 16.5414646-2.15887869-3.6253898.56794619-.3603772 1.56504494 2.6281689 1.90962907-3.5092945 1.95707158 3.5176598 1.38278522-2.2950852.56611095.3634411-1.97168302 3.2725116-1.92786221-3.4651587z"/></g><path d="m1 .68817204h.35842294v.68817205h-.35842294z"/><path d="m4 0h.35842294v.68817204h-.35842294z"/><path d="m7 .68817204h.35842294v.68817205h-.35842294z"/><path d="m1 4.8172043h.33333333v.68817204h-.33333333zm3 0h.33333333v.68817204h-.33333333zm3 0h.33333333v.68817204h-.33333333z"/><path d="m1 8.25806452h.33333333v.68817204h-.33333333zm3 0h.33333333v.68817204h-.33333333zm3 0h.33333333v.68817204h-.33333333z"/><path d="m5.66565414 7.64357508 1.83968021 2.87444502-1.39688365 2.5158657-.88559312-1.2909692.6991903-1.4536927-.25639374-.59064101-1.49385837 2.42199221.00020524.2876863-.08920524-.1446863-.08766667.1446863-.00033333-.2876863-1.4933198-2.42199221-.25639374.59064101.6991903 1.4536927-.88559312 1.2909692-1.39688364-2.5158657 1.8396802-2.87444502 1.5813198 2.50500002z"/></g></g></g></g><rect height="32" mask="url(#a)" rx="2" width="43.335938"/></g></svg>