<svg xmlns="http://www.w3.org/2000/svg" width="512" height="512" viewBox="0 0 512 512"><mask id="a" fill="#fff"><path fill-rule="evenodd" d="M0 0h103.595v63.852q0 47.727-51.797 62.992Q0 110.16 0 63.852z"/></mask><mask id="b" fill="#fff"><path fill-rule="evenodd" d="M0 0h103.595v63.852q0 47.727-51.797 62.992Q0 110.16 0 63.852z"/></mask><mask id="c" fill="#fff"><path fill-rule="evenodd" d="M0 0h103.595v63.852q0 47.727-51.797 62.992Q0 110.16 0 63.852z"/></mask><mask id="d" fill="#fff"><path fill-rule="evenodd" d="M0 0h103.595v63.852q0 47.727-51.797 62.992Q0 110.16 0 63.852z"/></mask><mask id="e" fill="#fff"><path fill-rule="evenodd" d="M0 0h103.595v63.852q0 47.727-51.797 62.992Q0 110.16 0 63.852z"/></mask><mask id="f" fill="#fff"><path fill-rule="evenodd" d="M0 0h103.595v63.852q0 47.727-51.797 62.992Q0 110.16 0 63.852z"/></mask><mask id="g" fill="#fff"><path fill-rule="evenodd" d="M0 0h103.595v63.852q0 47.727-51.797 62.992Q0 110.16 0 63.852z"/></mask><mask id="h" fill="#fff"><path fill-rule="evenodd" d="M0 0h103.595v63.852q0 47.727-51.797 62.992Q0 110.16 0 63.852z"/></mask><mask id="i" fill="#fff"><path fill-rule="evenodd" d="M0 0h103.595v63.852q0 47.727-51.797 62.992Q0 110.16 0 63.852z"/></mask><mask id="j" fill="#fff"><path fill-rule="evenodd" d="M0 0h103.595v63.852q0 47.727-51.797 62.992Q0 110.16 0 63.852z"/></mask><mask id="k" fill="#fff"><path fill-rule="evenodd" d="M0 0h103.595v63.852q0 47.727-51.797 62.992Q0 110.16 0 63.852z"/></mask><g fill="none" fill-rule="evenodd"><path fill="#ce1126" fill-rule="nonzero" d="M0 0h512v512H0z"/><path fill="#003f87" fill-rule="nonzero" d="M0 36.6h512v438.8H0z"/><g transform="translate(51 51)"><path fill="#f7fcff" fill-rule="nonzero" d="M204.5 358.75c-84.707 0-153.375-68.836-153.375-153.75S119.793 51.25 204.5 51.25 357.875 120.086 357.875 205 289.207 358.75 204.5 358.75"/><path fill="#fff" fill-rule="nonzero" d="M204.5 410C91.558 410 0 318.218 0 205S91.558 0 204.5 0 409 91.782 409 205s-91.558 205-204.5 205"/><ellipse cx="204.5" cy="205" stroke="#9c4c17" stroke-width=".605" rx="178.937" ry="179.375"/><path fill="#5b8c39" fill-rule="nonzero" d="m189.615 10.705 3.968-8.582c12.358 6.727 24.234 12.642 24.234 25.098 0 12.507-11.8 14.274-24.234 20.784l-3.968-8.87c6.47-3.389 9.03-7.078 9.03-11.914 0-4.886-2.483-12.952-9.03-16.516m55.065 3.948 6.174-7.153c10.03 9.882 19.82 18.85 16.394 30.823-3.439 12.022-15.267 10.46-29.01 13.282l-1.375-9.624c7.15-1.468 10.626-4.307 11.956-8.956 1.344-4.697 1.174-13.137-4.14-18.372m52.055 19.233 7.99-5.03c6.71 12.39 13.456 23.834 6.689 34.28-6.795 10.49-17.651 5.529-31.617 4.2l1.492-9.607c7.267.692 11.419-1.004 14.046-5.06 2.655-4.098 4.954-12.219 1.4-18.783m44.196 33.192 9.064-2.628c3.043 13.763 6.38 26.629-2.997 34.8-9.416 8.206-18.487.438-31.546-4.699l4.075-8.822c6.795 2.673 11.252 2.19 14.893-.983 3.68-3.206 8.123-10.377 6.51-17.668m33.084 44.294 9.436-.022c-.86 14.071-1.188 27.36-12.45 32.625-11.307 5.285-17.89-4.688-29.032-13.234l6.343-7.354c5.798 4.447 10.215 5.214 14.587 3.17 4.418-2.065 10.661-7.73 11.116-15.185m19.594 52.024 9.03 2.745c-4.926 13.204-9.117 25.816-21.421 27.55-12.355 1.74-15.742-9.727-23.904-21.165l8.21-5.174c4.248 5.952 8.248 7.98 13.025 7.307 4.828-.68 12.45-4.268 15.06-11.263m3.925 55.212 7.925 5.133c-8.366 11.332-15.862 22.298-28.166 20.565-12.355-1.741-12.458-13.7-17.159-26.95l9.316-2.705c2.446 6.895 5.734 9.95 10.51 10.623 4.828.68 13.142-.663 17.574-6.666m-11.6 54.397 6.082 7.232c-11.305 8.385-21.672 16.675-32.933 11.41-11.307-5.285-7.918-16.752-8.549-30.8l9.697.143c.329 7.31 2.582 11.196 6.954 13.24 4.418 2.065 12.76 3.217 18.75-1.225m-26.5 48.58 3.857 8.632c-13.173 4.936-25.418 10.04-34.795 1.869-9.416-8.205-3.005-18.291.252-31.97l9.281 2.818c-1.694 7.118-.596 11.475 3.044 14.647 3.68 3.206 11.382 6.62 18.36 4.004m-39.046 39.13 1.334 9.364c-14.02 1.105-27.193 2.629-33.96-7.818-6.796-10.488 2.14-18.412 9.032-30.661l8.148 5.273c-3.586 6.374-3.73 10.865-1.102 14.921 2.655 4.098 9.12 9.507 16.548 8.922m-48.598 26.84-1.455 9.345c-13.73-3.052-26.772-5.457-30.197-17.43-3.439-12.022 7.418-16.98 17.581-26.675l6.254 7.431c-5.289 5.044-6.735 9.298-5.406 13.946 1.344 4.698 5.95 11.765 13.223 13.382m-53.973 11.74-3.968 8.582c-12.358-6.727-24.234-12.642-24.234-25.098 0-12.507 11.8-14.274 24.234-20.784l3.968 8.87c-6.47 3.389-9.03 7.078-9.03 11.914 0 4.886 2.483 12.952 9.03 16.516m-55.064-3.948-6.174 7.153c-10.03-9.882-19.82-18.85-16.395-30.823 3.439-12.022 15.267-10.46 29.01-13.282l1.376 9.624c-7.152 1.468-10.627 4.307-11.957 8.956-1.343 4.697-1.174 13.137 4.14 18.372m-52.056-19.233-7.99 5.03c-6.71-12.39-13.456-23.834-6.688-34.28 6.794-10.49 17.65-5.529 31.616-4.2l-1.492 9.607c-7.267-.692-11.418 1.004-14.046 5.06-2.654 4.098-4.954 12.219-1.4 18.783M66.5 342.922l-9.064 2.628c-3.043-13.763-6.381-26.629 2.996-34.8 9.416-8.206 18.487-.438 31.547 4.699l-4.075 8.822c-6.796-2.673-11.253-2.19-14.894.983-3.679 3.206-8.122 10.377-6.51 17.668m-33.085-44.294-9.436.022c.86-14.071 1.188-27.36 12.45-32.625 11.307-5.285 17.891 4.688 29.032 13.234l-6.343 7.354c-5.797-4.447-10.214-5.214-14.587-3.17-4.418 2.065-10.66 7.73-11.116 15.185m-19.593-52.024-9.03-2.745c4.926-13.204 9.116-25.816 21.42-27.55 12.355-1.74 15.743 9.727 23.904 21.165l-8.21 5.174c-4.247-5.952-8.248-7.98-13.025-7.307-4.827.68-12.45 4.268-15.06 11.263m-3.925-55.212-7.925-5.133c8.365-11.332 15.861-22.298 28.166-20.565 12.354 1.741 12.457 13.7 17.158 26.95l-9.315 2.705c-2.446-6.895-5.734-9.95-10.511-10.623-4.828-.68-13.141.663-17.573 6.666m11.6-54.397-6.082-7.232c11.304-8.385 21.671-16.675 32.933-11.41 11.307 5.285 7.917 16.752 8.548 30.8l-9.697-.143c-.328-7.31-2.581-11.196-6.954-13.24-4.417-2.065-12.76-3.217-18.749 1.225m26.5-48.58-3.857-8.632c13.172-4.936 25.417-10.04 34.795-1.869 9.416 8.205 3.004 18.291-.252 31.97l-9.282-2.818c1.695-7.118.597-11.475-3.044-14.647-3.679-3.206-11.381-6.62-18.36-4.004m39.046-39.13L85.71 39.92c14.02-1.105 27.194-2.629 33.961 7.818 6.795 10.488-2.141 18.412-9.033 30.661l-8.147-5.273c3.586-6.374 3.729-10.865 1.101-14.921-2.655-4.098-9.12-9.507-16.547-8.922m48.598-26.84 1.454-9.345c13.73 3.052 26.772 5.457 30.197 17.43 3.44 12.022-7.418 16.98-17.58 26.675l-6.254-7.431c5.288-5.044 6.735-9.298 5.405-13.946-1.344-4.698-5.949-11.765-13.222-13.382"/><path fill="#247805" fill-rule="nonzero" d="M109.376 255.915q-28.113-.616-28.113 12.332c0 12.948 0 27.292 14.056 20.12 14.057-7.172 31.243-10.005 40.334-5.003 9.09 5.003 30.272 15.168 60.13 15.168s27.867-10.165 55.365-10.165 76.595-2.195 65.225-11.157-24.754-14.635-34.97-14.635c-10.217 0-18.05 0-39.532-10.554-21.48-10.554-45.462-11.51-69.628-8.107s-27.354 12.001-41.645 12.001z"/><path stroke="#565656" stroke-width=".605" d="M265.246 165.283v70.258c0 17.579-4.888 32.107-14.41 43.686-9.338 11.357-23.261 19.936-41.976 25.452-22.401-6.052-36.277-14.845-45.582-26.16-9.537-11.599-14.409-25.898-14.409-42.978v-70.258z"/><g fill-rule="nonzero" transform="translate(155.26 171.689)"><path fill="#84ceff" d="m3.146 82.227 49.422-36.494 51.965 40.632v57.83H3.146z" mask="url(#a)" opacity=".4"/><path fill="#006ac9" d="M4.709 95.133h91.823v12.812H4.71z" mask="url(#b)"/><path fill="#59c800" d="M9.418 107.817h84.76v6.794H9.418z" mask="url(#c)"/><path fill="#ffd800" d="M9.418 116.273h84.76v12.813H9.418z" mask="url(#d)"/><path fill="#f7d85d" d="M118.935 97.649 52.722 46.96v-68.425h66.213z" mask="url(#e)"/><path fill="#f5f6f6" d="M37.671 69.764q2.092 10.887 3.694 10.887 1.6 0 4.495-10.887.343 10.887 1.954 10.887c1.61 0 1.412-9.124 3.984-10.887.931-.638 2.107 10.832 3.538 10.887q1.201.047 4.14-10.887.89 10.887 2.28 10.887t4.168-10.887v27.483H37.671z" mask="url(#f)"/><ellipse cx="51.798" cy="100.418" fill="#892e2e" mask="url(#g)" rx="25.899" ry="19.219"/><path fill="#a46031" d="m5.514 10.356 5.325-4.168 35.808 36.887-5.325 4.168z" mask="url(#h)"/><path fill="#892e2e" d="m11.273 52.976-5.656-3.799L40.44 7.381l5.656 3.8z" mask="url(#i)"/><path fill="#a46031" d="m59.666 15.84 5.325-3.31 35.808 29.29-5.325 3.309z" mask="url(#j)"/><path fill="#f5f6f6" d="m67.16 45.766-6.626-4.512 34.058-27.53 7.262 5.995z" mask="url(#k)"/></g><g fill-rule="nonzero"><path fill="#69f" d="m167.866 321.204 16.626 5.221v14.387h-16.626zM155.99 291.79l9.354 5.222V311.4h-9.354zm87.881 29.414-16.626 5.221v14.387h16.626zm11.876-29.414-9.354 5.222V311.4h9.354z"/><path fill="#fff" d="M146.93 322.263c-3.044 0-5.578.071-8.474.21-7.02.337-7.462.33-9.4-.468-1.164-.48-2.326-1.254-3.998-2.63-3.964-3.263-8.237-10.759-12.874-22.518l.014-.495c5.724-12.406 17.494-13.942 35-4.746 4.612 2.422 18.057 9.748 17.946 9.688 6.117 3.282 10.404 5.383 14.62 7.084 8.737 3.526 16.976 5.127 27.542 5.127 6.345 0 13.696-1.808 22.27-5.22 4.954-1.973 10.11-4.383 16.397-7.582.828-.422 13.985-7.28 17.24-8.85 5.693-2.748 9.449-4.079 12.037-4.079.705 0 1.251-.002 2.617-.01 2.367-.014 3.49-.016 4.855 0 12.62.155 18.848 2.263 18.848 8.852 0 6.225-4.04 14.671-12.09 25.4l-.393.232c-15.93 2.153-25.168 2.153-28.01-.123-.774-.62-2.9-.338-6.804.916-1.768.568-11.238 3.963-14.165 4.935-12.181 4.049-22.62 6.224-33.253 6.224-16.192 0-33.913-6.297-53.168-18.874 3.49 4.446 1.282 6.927-6.758 6.927"/><path fill="#666" d="M125.799 318.416c1.588 1.308 2.663 2.024 3.698 2.45 1.7.7 2.131.708 8.904.383 2.913-.14 5.465-.211 8.528-.211 9.618 0 9.618-3.077-.35-10.581l.69-.998c21.832 15.69 41.696 23.525 59.586 23.525 10.488 0 20.815-2.152 32.889-6.164 2.908-.966 12.385-4.363 14.176-4.939 4.342-1.395 6.652-1.702 7.885-.715 2.452 1.965 11.51 1.975 26.885-.09 7.803-10.436 11.692-18.605 11.692-24.45 0-5.543-5.721-7.48-17.674-7.626a246 246 0 0 0-4.834 0c-1.368.007-1.916.01-2.624.01-2.353 0-6 1.292-11.535 3.963-3.234 1.56-16.374 8.41-17.216 8.839-6.317 3.215-11.502 5.638-16.495 7.626-8.7 3.462-16.182 5.303-22.698 5.303-10.714 0-19.1-1.63-27.975-5.212-4.263-1.72-8.584-3.838-14.734-7.138.104.056-13.335-7.265-17.937-9.683-16.864-8.859-27.855-7.5-33.277 3.939 4.527 11.431 8.684 18.698 12.416 21.77m21.13 3.847c-3.043 0-5.577.071-8.473.21-7.02.337-7.462.33-9.4-.468-1.164-.48-2.326-1.254-3.998-2.63-3.964-3.263-8.237-10.759-12.874-22.518l.014-.495c5.724-12.406 17.494-13.942 35-4.746 4.612 2.422 18.057 9.748 17.946 9.688 6.117 3.282 10.404 5.383 14.62 7.084 8.737 3.526 16.976 5.127 27.542 5.127 6.345 0 13.696-1.808 22.27-5.22 4.954-1.973 10.11-4.383 16.397-7.582.828-.422 13.985-7.28 17.24-8.85 5.693-2.748 9.449-4.079 12.037-4.079.705 0 1.251-.002 2.617-.01 2.367-.014 3.49-.016 4.855 0 12.62.155 18.848 2.263 18.848 8.852 0 6.225-4.04 14.671-12.09 25.4l-.393.232c-15.93 2.153-25.168 2.153-28.01-.123-.774-.62-2.9-.338-6.804.916-1.768.568-11.238 3.963-14.165 4.935-12.181 4.049-22.62 6.224-33.253 6.224-16.192 0-33.913-6.297-53.168-18.874 3.49 4.446 1.282 6.927-6.758 6.927"/><path fill="#565757" d="m128.537 302.593-1.717-1.694c3.873-4.18 9.004-5.233 15.184-3.185 2.404.796 18.062 9.87 22.244 11.998 15.284 7.778 29.832 12.121 45.285 12.121 22.215 0 43.674-7.03 64.318-21.05 7.801-6.34 12.682-6.34 12.682.963h-2.375c0-4.356-2.293-4.356-8.92 1.024-21.102 14.337-43.011 21.514-65.705 21.514-15.868 0-30.752-4.444-46.335-12.374-4.383-2.23-19.785-11.155-21.92-11.863-5.355-1.774-9.532-.916-12.741 2.546"/><path fill="#984800" d="M217.033 75.431c.12 20.302-4.584 33.604-14.446 39.754a128 128 0 0 1-3.54 2.1c.681 2.32.932 3.998.932 5.716l.012 1.282c2.104 4.289 3.365 9.937 3.809 16.919a19.6 19.6 0 0 1 4.63-4.178c7.058-4.563 11.007-8.745 11.955-12.389l4.497.99c-1.266 4.87-5.9 9.777-13.792 14.88-3.157 2.042-5.564 5.33-7.186 9.88-.12 5.632-.668 11.906-1.6 18.816l-.867-.115q.008.668.024 1.352l-4.624.096-.008-1.2-1.475.019-.001-.135-.765.236-.117-.332-1.42.483c-2.722-7.028-5.031-12.284-6.911-15.743-.901-1.658-1.69-2.875-2.336-3.63a4 4 0 0 0-.57-.568c.033.006.177.047.414.047v-4.255c1.42 0 2.818.913 4.32 2.845-1.954-7.497-2.929-13.495-2.929-18.016 0-7.21.313-9.31 2.653-11.311q-1.718-.481-3.692-.48c-16.094 0-27.712-4.404-34.602-13.295l3.766-2.47c5.925 7.646 16.12 11.51 30.836 11.51q4.75.002 8.35 1.84c.37-.205.793-.444 1.224-.688-.768-2.187-1.873-4.989-3.377-8.684l-.414-1.018c-6.017-14.843-7.219-20.975-1.655-24.268l2.503 3.578c-2.523 1.493-1.427 7.083 3.486 19.203l.411 1.014c1.303 3.2 2.32 5.756 3.104 7.872.904-.54 1.713-1.021 2.36-1.425 8.278-5.162 12.528-17.182 12.416-36.209zm-24.99 45.82a13 13 0 0 0-.648.406c-1.542 1.124-1.731 1.966-1.731 8.628 0 5.941 1.89 14.96 5.679 26.995l.028-31.9q-1.42-2.533-3.329-4.13"/><path fill="#247805" d="M224.13 135.703c11.2 2.592 19.103 9.797 17.653 16.094-1.45 6.296-11.705 9.3-22.904 6.707-11.2-2.592-19.103-9.797-17.653-16.093 1.45-6.297 11.705-9.3 22.904-6.708m-30.346 1.636c.714 5.83-8.983 11.822-21.658 13.382s-23.531-1.901-24.245-7.732 8.982-11.823 21.658-13.383 23.53 1.902 24.245 7.733m39.43-25.708c16.923 3.298 29.646 11.114 28.416 17.457s-15.947 8.812-32.871 5.514-29.647-11.113-28.417-17.456c1.23-6.344 15.947-8.813 32.871-5.515M163.08 93.384c14.046.246 25.342 5.683 25.23 12.144-.113 6.461-11.591 11.5-25.637 11.254s-25.341-5.683-25.229-12.144 11.59-11.5 25.636-11.254m56.794-32.705c10.09 1.602 17.602 7.134 16.777 12.356-.151.959-.573 1.84-1.224 2.632 4.943-1.466 11.81-1.134 18.824 1.287 12.075 4.168 20.008 12.95 17.718 19.616s-13.934 8.69-26.01 4.521a42 42 0 0 1-4.189-1.703c-3.206 5.07-12.36 7.76-22.499 6.15-11.983-1.902-20.805-9.09-19.705-16.052s11.706-11.064 23.689-9.162c1.733.275 3.4.661 4.981 1.14a7.6 7.6 0 0 1 1.436-2.447c-3.49 1.071-7.998 1.332-12.786.572-5.322-.845-9.927-2.783-12.969-5.192l.223.55.139 1.337c-.102 5.874-9.502 10.472-20.994 10.271s-20.725-5.126-20.624-11c.103-5.873 9.503-10.471 20.995-10.27 6.926.121 13.032 1.958 16.768 4.685-.35-.909-.46-1.828-.316-2.737.825-5.222 9.675-8.156 19.766-6.554M160.36 76.466c2.557 4.624-2.614 12.398-11.55 17.363s-18.253 5.242-20.81.618c-2.556-4.625 2.615-12.398 11.55-17.364 8.936-4.965 18.253-5.242 20.81-.617"/><g transform="translate(67.697 87.353)"><path fill="#fff" d="M40.819 90.466q-7.998 76.11-7.998 86.425c0 10.315 4.906 6.877 14.719 0q2.16-36.346 7.174-49.849c5.013-13.502 7.379 1.332 7.379 9.215v44.762q18.317 2.499 18.317-4.128c0-6.628-7.621-86.425-7.621-86.425H45.083z"/><path fill="#979797" d="m39.698 90.36.102-.964h34.017l.093.973.086.898.242 2.544a12560 12560 0 0 1 3.483 37.29l.248 2.703c2.244 24.567 3.567 40.246 3.567 43.087 0 5.419-6.755 6.94-19.603 5.187l-.966-.132v-45.689c0-4.406-.69-9.664-1.735-12.242-.893-2.206-1.47-1.966-3.456 3.383-3.296 8.88-5.677 25.418-7.112 49.554l-.03.502-.426.299c-10.415 7.298-16.513 7.298-16.513-.862 0-6.932 2.665-35.726 8.003-86.531m-5.751 86.531c0 5.506 3.6 5.592 12.499-.565 1.45-24.053 3.842-40.579 7.206-49.64 2.545-6.854 5.758-8.188 7.682-3.44 1.165 2.874 1.885 8.365 1.885 13.011v43.83c10.912 1.38 16.065.126 16.065-3.196 0-2.741-1.33-18.515-3.559-42.901l-.247-2.704a11529 11529 0 0 0-3.718-39.75H41.838c-5.258 50.077-7.891 78.577-7.891 85.355"/><path fill="#ff863b" d="M14.274 64.287q6.28 22.666 9.062 22.666c2.782 0 8.406-4.636 19.659-13.908v18.878h31.448v-8.361l4.034 8.361 5.5-2.578 9.513-11.24h-9.514q-2.763-18.05-2.763-20.905c0-2.854.112-8.501-6.77-10.545q-6.882-2.044-10.258-5.663 14.819-21.275 3.535-21.275c-11.284 0-16.392 2.727-16.392 2.727v15.59c0 2.958-16.188-.544-16.188 8.621s-7.55 17.632-7.55 17.632l-1.92-6.137z"/><ellipse cx="61.824" cy="19.219" fill="#000" rx="19.172" ry="19.219"/><path fill="#740000" d="M5.082 73.058 0 68.826C9.792 58.2 20.687 50.468 32.674 45.67c11.352-4.546 26.186-11.8 44.476-21.754l3.357 5.573C62 39.562 46.94 46.926 35.297 51.588c-11.007 4.406-21.075 11.55-30.215 21.47"/><path fill="#f9fcff" stroke="#6c6c6c" stroke-width=".605" d="M76.932 26.246 81.2 46.341l18.949-10.047-14.924-16.626z"/></g><g transform="matrix(-1 0 0 1 345.74 92.055)"><path fill="#fff" d="M42.59 95.187q-7.934 79.437-7.934 90.202c0 10.765 4.866 7.178 14.6 0q2.144-37.935 7.116-52.027c4.972-14.093 7.319 1.39 7.319 9.618v46.717q18.17 2.61 18.169-4.308c0-6.917-7.56-90.202-7.56-90.202H46.82z"/><path fill="#979797" d="m41.478 95.076.1-1.006h33.743l.092 1.016.085.938.24 2.655a13777 13777 0 0 1 3.7 41.74c2.227 25.64 3.539 42.005 3.539 44.97 0 5.656-6.7 7.244-19.445 5.414l-.958-.137V142.98c0-4.599-.684-10.087-1.72-12.778-.887-2.302-1.459-2.052-3.429 3.532-3.27 9.267-5.63 26.529-7.054 51.718l-.03.525-.423.312c-10.33 7.617-16.38 7.617-16.38-.9 0-7.234 2.644-37.287 7.94-90.313m-5.705 90.313c0 5.747 3.57 5.836 12.397-.59 1.439-25.104 3.812-42.352 7.149-51.809 2.523-7.153 5.711-8.546 7.62-3.59 1.154 3 1.869 8.73 1.869 13.58v45.744c10.824 1.442 15.935.132 15.935-3.335 0-2.86-1.32-19.324-3.53-44.776l-.245-2.822a12645 12645 0 0 0-3.688-41.486H43.6c-5.215 52.265-7.827 82.01-7.827 89.084"/><path fill="#824028" d="M15.706 66.257q6.23 23.656 8.99 23.656 2.757 0 19.5-14.516v19.704h31.193v-8.728l4.002 8.728 5.454-2.691 9.437-11.731h-9.437q-2.74-18.84-2.741-21.819c0-2.98.11-8.873-6.715-11.006q-6.827-2.133-10.175-5.91 14.7-22.206 3.506-22.206c-11.193 0-16.26 2.847-16.26 2.847v16.271c0 3.087-16.056-.568-16.056 8.998s-7.488 18.403-7.488 18.403L27.01 59.85z"/><ellipse cx="62.872" cy="19.219" fill="#000" rx="19.172" ry="19.219"/><path fill="#ba611f" d="m0 70.551 68.32-35.696q1.264-11.992 14.46-15.602 13.195-3.61 23.719-9.198l6.008 9.198q10.7-2.832-29.727 15.602c-40.427 18.433 1.522-9.991-9.97 0z"/></g></g></g></g></svg>