<svg height="32" viewBox="0 0 43 32" width="43" xmlns="http://www.w3.org/2000/svg" xmlns:xlink="http://www.w3.org/1999/xlink"><defs><path id="a" d="m0 0h42.666667v32h-42.666667z"/><mask id="b" fill="#fff"><path d="m0 0h43.335938v32h-43.335938z" fill="#fff" fill-rule="evenodd"/></mask><mask id="c" fill="#fff"><path d="m0 0h42.666667v32h-42.666667z" fill="#fff" fill-rule="evenodd"/></mask><mask id="d" fill="#fff"><use fill="#fff" fill-rule="evenodd" xlink:href="#a"/></mask><mask id="e" fill="#fff"><path d="m0 0h5.40350877v3.32239567c0 1.65555372-.90058479 2.7480885-2.70175438 3.27760433-1.80116959-.57867827-2.70175439-1.67121305-2.70175439-3.27760433 0-1.01758113 0-2.12504636 0-3.32239567z" fill="#fff" fill-rule="evenodd"/></mask></defs><g fill="none" fill-rule="evenodd"><g fill-rule="evenodd" mask="url(#b)"><g mask="url(#c)" transform="translate(.3346)"><use fill="#0168b4" xlink:href="#a"/><path d="m0 0h42.666667v4h-42.666667z" fill="#e93c43" mask="url(#d)"/><path d="m0 28h42.666667v4h-42.666667z" fill="#e93c43" mask="url(#d)"/><g mask="url(#d)"><g transform="translate(10.6667 5.3333)"><path d="m10.6666667 18.6666667c-4.41827803 0-8.00000003-3.581722-8.00000003-8 0-4.41827803 3.581722-8.00000003 8.00000003-8.00000003 4.418278 0 8 3.581722 8 8.00000003 0 4.418278-3.581722 8-8 8z" fill="#f7fcff" fill-rule="nonzero"/><path d="m10.6666667 21.3333333c-5.89103736 0-10.6666667-4.7756293-10.6666667-10.6666666 0-5.89103736 4.77562934-10.6666667 10.6666667-10.6666667 5.8910373 0 10.6666666 4.77562934 10.6666666 10.6666667 0 5.8910373-4.7756293 10.6666666-10.6666666 10.6666666z" fill="#fff" fill-rule="nonzero"/><circle cx="10.666667" cy="10.666667" fill="none" r="9.333333" stroke="#9c4c17" stroke-width=".666667"/><path d="m9.89026446.55698641.20697654-.44652128c.6445969.35004261 1.2640627.65781609 1.2640627 1.30593381 0 .65074255-.6154712.74266566-1.2640627 1.08140961l-.20697654-.46156492c.33750064-.17626856.47103924-.36821382.47103924-.61984469 0-.25425572-.129544-.67396655-.47103924-.85941253zm2.87216484.20545491.3220366-.37217334c.5231414.51415752 1.0337763.9807563.8551308 1.60376703-.1793689.62553389-.7963352.54424922-1.5131719.69109475l-.0717341-.50073514c.3730126-.07641244.5542854-.22411384.6236443-.46599696.0700824-.24440629.0612448-.68356537-.2159057-.95595634zm2.7151892 1.0007583.416778-.26175675c.3499576.64464304.7018599 1.24014885.3488697 1.7837061-.3544198.54575863-.9206623.28764224-1.6491101.21848856l.0778012-.49982843c.3790545.03598476.5955903-.05226375.7326383-.26329916.1384776-.21323679.2584238-.63579058.0730229-.97731032zm2.3052308 1.72703542.4727827-.13673713c.1587131.71613203.3328396 1.38556637-.156301 1.81076985-.4911217.42692553-.9642823.02273056-1.6454499-.24453165l.2125586-.45902102c.3544519.13907237.586924.1139278.7768323-.05115691.1918892-.16680676.4236605-.53992988.3395773-.91932314zm1.7256957 2.30472962.4921578-.00112358c-.044828.73213754-.0619679 1.4236349-.6493621 1.69754128-.589773.27501569-.933193-.2439422-1.5143059-.68860636l.3308479-.38265022c.3023874.23138512.5327848.2712926.7608398.1649488.2304339-.10745311.5560735-.40223723.5798225-.79010992zm1.0219865 2.70693028.4709813.14281851c-.2569254.6870402-.4754907 1.34331118-1.117301 1.43351175-.6444096.0905658-.8210951-.50612234-1.2468089-1.10125776l.4282674-.26919969c.2215241.30968424.4301864.41520961.6793684.38018936.2517813-.03538555.6493785-.22208122.7854928-.58606217zm.2047291 2.87282036.4133702.267106c-.4363466.5896071-.8273378 1.1602105-1.4691481 1.07001-.6444096-.0905659-.649781-.7128405-.8949619-1.402264l.4858786-.1407249c.1275821.358748.2990744.5177006.5482564.5527208.2517813.0353856.6854366-.0344852.9166048-.3468479zm-.6050276 2.8304391.3172137.3762925c-.5896648.4362687-1.1303998.8676247-1.717794.5937183-.589773-.2750156-.4129743-.8716703-.445874-1.6026532l.505792.0074813c.0171196.3803737.1346453.5825203.3627003.6888642.2304339.1074531.6655687.1674239.977962-.0637031zm-1.3822951 2.5277365.201205.4491515c-.6870741.2568348-1.3257598.522434-1.8149005.0972305-.4911216-.4269255-.1567115-.9517344.0131496-1.6634687l.4841363.1466067c-.0883888.3703575-.0311351.5970678.1587732.7621525.1918892.1668067.5936374.3443938.9576364.2083275zm-2.0366021 2.0360575.0696077.4872117c-.7312512.0575022-1.4184044.1367669-1.7713946-.4067904-.3544198-.5457586.1116928-.9580614.4711542-1.5954042l.4249714.2743734c-.1870491.3316472-.194503.5653564-.057455.7763918.1384775.2132368.4757131.4946812.8631163.4642177zm-2.5348529 1.3964703-.0758807.4862742c-.7161111-.1588075-1.3964137-.2839105-1.5750591-.9069212-.179369-.6255339.3869224-.8835429.9170181-1.3879405l.3261832.3866342c-.2758402.2624679-.3512985.4837858-.2819396.7256689.0700824.2444063.3102959.6121511.6896781.6962844zm-2.8151792.6109282-.2069766.4465213c-.6445968-.3500426-1.26406264-.6578161-1.26406264-1.3059338 0-.6507426.61547114-.7426657 1.26406264-1.0814096l.2069766.4615649c-.3375007.1762686-.4710392.3682138-.4710392.6198447 0 .2542557.1295439.6739665.4710392.8594125zm-2.87216486-.2054549-.32203658.3721734c-.52314144-.5141576-1.03377631-.9807563-.85513085-1.6037671.17936895-.6255339.79633521-.5442492 1.51317188-.6910947l.07173409.5007351c-.3730126.0764124-.55428541.2241139-.62364428.465997-.07008237.2444063-.06124475.6835653.21590574.9559563zm-2.71518921-1.0007583-.41677806.2617568c-.34995754-.6446431-.70185981-1.2401489-.34886961-1.7837061.3544198-.5457587.92066223-.2876423 1.64911002-.2184886l-.07780113.4998284c-.37905456-.0359847-.59559032.0522638-.73263832.2632992-.13847759.2132368-.25842382.6357906-.0730229.9773103zm-2.30523082-1.7270354-.47278272.1367371c-.15871308-.716132-.3328396-1.3855663.15630105-1.8107698.49112164-.4269256.96428228-.0227306 1.6454499.2445316l-.21255864.459021c-.35445188-.1390723-.586924-.1139278-.77683224.051157-.19188922.1668067-.42366055.5399298-.33957735.9193231zm-1.72569568-2.3047296-.49215778.0011236c.04482794-.7321376.06196789-1.4236349.64936202-1.6975413.58977304-.2750157.93319301.2439422 1.51430591.6886063l-.33084782.3826503c-.30238748-.2313852-.5327848-.2712926-.76083983-.1649488-.23043394.1074531-.5560735.4022372-.5798225.7901099zm-1.02198651-2.7069303-.47098134-.1428185c.25692548-.6870402.47549076-1.3433112 1.11730103-1.4335117.64440957-.0905659.82109512.5061223 1.24680893 1.1012577l-.42826744.2691997c-.22152412-.3096843-.43018636-.4152096-.67936839-.3801894-.25178132.0353856-.64937852.2220812-.78549279.5860622zm-.20472909-2.87282033-.4133702-.26710601c.43634656-.58960717.82733779-1.16021057 1.46914807-1.07001002.64440957.09056586.64978107.71284049.89496189 1.40226396l-.48587857.1407249c-.12758212-.35874793-.2990744-.51770054-.54825642-.55272079-.25178132-.03538555-.68543658.03448519-.91660477.34684796zm.60502758-2.83043913-.31721365-.37629251c.58966474-.43626875 1.1303998-.86762472 1.71779394-.59371834.58977304.27501569.41297433.87167035.44587399 1.60265327l-.50579195-.00748131c-.01711964-.38037374-.13464528-.58252037-.36270031-.68886417-.23043393-.10745311-.66556875-.16742391-.97796202.06370306zm1.38229516-2.52773653-.20120505-.4491515c.68707409-.25683481 1.32575981-.522434 1.81490046-.09723052.49112164.42692553.1567115.95173447-.01314952 1.66346872l-.4841363-.14660665c.08838876-.37035751.03113502-.59706778-.15877321-.76215249-.19188923-.16680676-.59363747-.3443938-.95763638-.20832756zm2.03660208-2.03605743-.06960777-.48721176c.73125127-.05750218 1.41840445-.13676686 1.77139466.40679039.35441979.54575862-.11169281.95806143-.47115425 1.59540427l-.42497141-.27437341c.18704909-.33164725.19450309-.56535642.05745509-.77639183-.13847759-.21323679-.47571316-.49468123-.86311632-.46421766zm2.53485286-1.39647031.07588068-.48627427c.71611109.15880758 1.39641369.28391053 1.57505914.90692126.17936896.62553389-.38692241.88354289-.91701811 1.38794052l-.32618316-.38663421c.27584021-.26246798.35129845-.48378583.28193958-.72566896-.07008238-.24440628-.31029597-.61215108-.68967813-.69628434z" fill="#5b8c39" fill-rule="nonzero"/><g fill="none" fill-rule="evenodd" transform="translate(3.4667 3.0667)"><path d="m2.23832808 10.2492213c-.97759884-.0214043-1.46639825.1924742-1.46639825.6416354 0 .6737418 0 1.4200936.73319912 1.0469177.73319913-.3731759 1.62960814-.5206187 2.10376892-.2603093.47416078.2603093 1.57900652.7892016 3.13638281.7892016 1.5573763 0 1.45355121-.5288923 2.88783185-.5288923 1.43428067 0 3.99516837-.1142035 3.40210687-.5805606s-1.2911279-.7614896-1.824018-.7614896-.9415048 0-2.06195048-.5491441c-1.12044572-.549144-2.37132826-.59890902-3.63178054-.42182951-1.26045228.1770795-1.42680838.62447071-2.17219909.62447071-.49692714 0-.86590821 0-1.10694321 0z" fill="#247805"/><g transform="translate(4.6316 5.8667)"><path d="m5.73684211-.33333333v3.655729c0 .9146607-.25494619 1.67062619-.75156011 2.27308805-.48710231.59092293-1.21333777 1.03733646-2.18951138 1.32431631-1.16842702-.31487152-1.89219707-.77239491-2.37754384-1.36118814-.4974577-.60348547-.75156011-1.34751243-.75156011-2.23621622v-3.655729z" stroke="#565656" stroke-width=".666667"/><path d="m.16411734 4.27850366 2.57782602-1.89888202 2.7104739 2.11415877v3.00909329h-5.28829992z" fill="#84ceff" mask="url(#e)" opacity=".4"/><path d="m.24561404 4.95h4.78947368v.66666667h-4.78947368z" fill="#006ac9" mask="url(#e)"/><path d="m.49122807 5.61h4.42105263v.35348837h-4.42105263z" fill="#59c800" mask="url(#e)"/><path d="m.49122807 6.05h4.42105263v.66666667h-4.42105263z" fill="#ffd800" mask="url(#e)"/><path d="m6.20359925 5.08092056-3.45364898-2.63742242v-3.56033165h3.45364898z" fill="#f7d85d" mask="url(#e)"/><path d="m1.96491228 3.63c.07277297.37765441.13699256.56648162.19265876.56648162s.13382292-.18882721.23447017-.56648162c.01190987.37765441.04587763.56648162.10190329.56648162.08403848 0 .0736501-.47477745.20780989-.56648162.0485992-.03321971.109939.56359994.18455612.56648162.04180331.00161442.11378464-.18721278.21594398-.56648162.03094301.37765441.07057514.56648162.11889639.56648162s.12080312-.18882721.21744561-.56648162v1.43h-1.47368421z" fill="#f5f6f6" mask="url(#e)"/><ellipse cx="2.701754" cy="5.225" fill="#892e2e" mask="url(#e)" rx="1.350877" ry="1"/><g fill-rule="nonzero"><path d="m.28761403.53883343.27772639-.2168334 1.86774618 1.91932196-.27772639.2168334z" fill="#a46031" mask="url(#e)"/><path d="m.58799189 2.75649217-.29500513-.19767918 1.81636848-2.17476139.29500513.19767918z" fill="#892e2e" mask="url(#e)"/><path d="m3.11217543.82417062.27772639-.17217059 1.86774618 1.52398477-.27772639.17217059z" fill="#a46031" mask="url(#e)"/><path d="m3.50300055 2.38129508-.34558214-.23476811 1.77649823-1.43247537.37877996.31199204z" fill="#f5f6f6" mask="url(#e)"/></g></g><g transform="translate(2.3158 11.7333)"><g fill="#69f" transform="translate(2.3539 .3826)"><path d="m.61944986 1.53043478.8672298.27169279v.74859707h-.8672298z"/><path d="m0 0 .48790123.27169279v.74859707h-.48790123z"/></g><g fill="#69f" transform="matrix(-1 0 0 1 7.5572 .3826)"><path d="m.61944986 1.53043478.8672298.27169279v.74859707h-.8672298z"/><path d="m0 0 .48790123.27169279v.74859707h-.48790123z"/></g><g fill-rule="nonzero"><path d="m1.88129093 1.96816882c-.15875147 0-.2908995.00370631-.4419781.01093843-.36619319.01752964-.38917927.01713662-.49024412-.02438965-.06075927-.02496521-.12136286-.06525869-.20856864-.13685796-.20677437-.16976965-.42964013-.55978262-.67151977-1.17165479l.00072329-.02572416c.29855325-.64552484.912491-.72547084 1.82563776-.24696895.24053309.12604276.9418379.50719707.93604648.50409745.31902141.17074322.54265293.28007004.76252053.36859199.45572784.18348278.88547937.26677479 1.43659126.26677479.33098687 0 .71438269-.09407436 1.1616424-.27165817.2584032-.10259861.52730485-.22798557.85526367-.39447162.04318682-.0219235.72944912-.37882855.89918203-.46051225.29699452-.14292814.4928864-.21219342.62788689-.21219342.03674705 0 .06525436-.00012956.13651575-.00055221.12341567-.00073197.18197446-.00080593.2531924.00006384.65825009.00803909.98312028.11770565.98312028.46053466 0 .32390202-.21067342.76340233-.63064275 1.32162105l-.02046513.01209098c-.83086874.11202249-1.31275642.11202249-1.4609863-.0064277-.04039851-.03228236-.1512502-.01758231-.35487729.04769257-.09224219.02956924-.58619461.20617911-.73886286.25679229-.63537479.21064194-1.17988915.32381501-1.73446928.32381501-.84456842 0-1.76891436-.32762859-2.77320501-.98206987.18204581.23137847.06686674.36046769-.35250349.36046769z" fill="#fff"/><path d="m.77912484 1.76800594c.08286926.06803882.1389164.10530285.192907.12748691.08868787.03644072.11115863.03682492.46440357.01991512.15197169-.00727487.28504966-.01100727.44485552-.01100727.50165204 0 .50165204-.16010891-.01825383-.55055106l.03595473-.05192232c1.13876949.8164342 2.17485068 1.22407556 3.1080076 1.22407556.54702862 0 1.08570755-.11196021 1.71548057-.32074504.15165938-.05027871.64599544-.22702576.73943442-.25697864.22644957-.07259087.34696618-.08857259.41127843-.03718081.12788859.1021955.6003483.10272945 1.4022948-.00472563.40703078-.54297659.60987041-.96805899.60987041-1.27218596 0-.28841472-.29843222-.38915661-.92191014-.39677103-.07073686-.00086389-.12904392-.00079025-.25210068-.00006041-.07138477.00042338-.09996393.00055327-.13687263.00055327-.12275504 0-.31292076.06724056-.60165334.20619266-.16872019.08119632-.85407313.43762845-.89801872.45993713-.32948407.16726034-.59994628.29337497-.86036914.39677549-.45375135.1801613-.84405308.27593017-1.18393379.27593017-.5588257 0-.99622998-.08477522-1.45915395-.27115527-.22233147-.08951394-.44772232-.19970084-.76853234-.37140134.00542768.00290495-.69553226-.37806194-.93557281-.5038466-.87962786-.4609375-1.45291227-.39029868-1.73569264.20493366.23610487.59480399.45291693.97290809.64757696 1.13273141zm1.10216609.20016288c-.15875147 0-.2908995.00370631-.4419781.01093843-.36619319.01752964-.38917927.01713662-.49024412-.02438965-.06075927-.02496521-.12136286-.06525869-.20856864-.13685796-.20677437-.16976965-.42964013-.55978262-.67151977-1.17165479l.00072329-.02572416c.29855325-.64552484.912491-.72547084 1.82563776-.24696895.24053309.12604276.9418379.50719707.93604648.50409745.31902141.17074322.54265293.28007004.76252053.36859199.45572784.18348278.88547937.26677479 1.43659126.26677479.33098687 0 .71438269-.09407436 1.1616424-.27165817.2584032-.10259861.52730485-.22798557.85526367-.39447162.04318682-.0219235.72944912-.37882855.89918203-.46051225.29699452-.14292814.4928864-.21219342.62788689-.21219342.03674705 0 .06525436-.00012956.13651575-.00055221.12341567-.00073197.18197446-.00080593.2531924.00006384.65825009.00803909.98312028.11770565.98312028.46053466 0 .32390202-.21067342.76340233-.63064275 1.32162105l-.02046513.01209098c-.83086874.11202249-1.31275642.11202249-1.4609863-.0064277-.04039851-.03228236-.1512502-.01758231-.35487729.04769257-.09224219.02956924-.58619461.20617911-.73886286.25679229-.63537479.21064194-1.17988915.32381501-1.73446928.32381501-.84456842 0-1.76891436-.32762859-2.77320501-.98206987.18204581.23137847.06686674.36046769-.35250349.36046769z" fill="#666"/><path d="m.92194686.9446983-.08954289-.08813998c.20201715-.21749099.46966047-.27229583.79198194-.16577374.12540756.0414452.94210529.51355005 1.16026659.62430294.79717499.40469798 1.55599024.63071474 2.36201437.63071474 1.15876141 0 2.27805632-.36580748 3.35480434-1.0952698.40694496-.32994737.66151808-.32994737.66151808.05009585h-.12388997c0-.22669353-.11959029-.22669353-.4652378.0532619-1.10068643.74596106-2.24347974 1.11944829-3.42719465 1.11944829-.82766844 0-1.60400931-.23123686-2.41681-.64386746-.22860277-.11605367-1.03195252-.58044251-1.14334039-.61725442-.27933232-.09231486-.49720618-.04770123-.66456962.13248168z" fill="#565757"/></g></g><g transform="translate(3.0877)"><path d="m3.00188178 4.71971311c-.0005151-.00025848-.00091438-.00049678-.00119951-.0007028.00083631.00060427.00171731.00127758.00264134.00201974zm1.7641045-3.8615517c.00622449 1.05638669-.23911265 1.74848987-.75348054 2.06848205-.05075028.03157213-.11612221.06988825-.18471213.10925013.03558054.12072612.04865248.20804813.04865248.29746011l.00064416.0666984c.10972735.22315362.17552801.5170563.19864957.88032796.06938331-.08572673.15018258-.15843808.24155627-.21737472.3680863-.2374181.57406282-.45504663.62350171-.64463367l.23460331.05152638c-.06607356.25337723-.30772961.50870367-.71939601.77423123-.16469403.10622874-.29024633.27731916-.3748258.51408019-.00630173.29302763-.03483232.61950643-.08350004.9790644l-.04519486-.00598327c.00025715.0231843.00067689.04662067.00125964.07030931l-.24116661.0049969-.00042508-.0624354-.07693433.000998-.00006567-.006998-.03988529.01226814-.00611471-.01726814-.07407155.02509285c-.14197451-.3656912-.26241407-.63913775-.36049041-.81913457-.04699393-.08624668-.0881246-.14959224-.12185052-.1888924-.01221091-.01422913-.02244828-.02410719-.02970515-.02954021.00173325.00031804.00921324.00245385.02158258.00245385v-.22138365c.07407582 0 .14698996.04750031.22531802.14800097-.10191325-.39005176-.15274142-.70217804-.15274142-.93739104 0-.37517561.01630837-.48443562.13835059-.58857612-.05964866-.0167062-.12398944-.02495939-.19257801-.02495939-.83944969 0-1.44542551-.22913866-1.80481413-.6917543l.19641896-.12851767c.30904573.39781278.84080634.59888832 1.60839517.59888832.16522933 0 .31029908.03203966.43557281.0957168.01925965-.01065536.04133088-.02309949.06384611-.03580455-.04007313-.11375279-.09773609-.25954778-.17615659-.45182671-.01079007-.02646406-.01079007-.02646406-.02157731-.05298473-.31385186-.77230696-.37653837-1.09136291-.08633702-1.26272385l.13052673.18617546c-.13158813.07770144-.07443857.36857591.18183102.99918804.01072088.02635754.01072088.02635754.02147768.05274001.06792307.16654032.12096884.29954603.16186018.40963744.04715055-.02813449.08934819-.05314863.12314136-.07417162.43175069-.26859539.65344383-.89399816.64761029-1.88403581zm-1.30350336 2.38409245c-.0199492.01218606-.02947484.01803857-.03379045.02117558-.08043283.05846647-.0902705.10230803-.0902705.44893777 0 .30913132.09860004.77839125.29620244 1.40459052l.00148095-1.65978384c-.04933536-.08791672-.10726162-.15949907-.17362244-.21492003z" fill="#984800" fill-rule="nonzero"/><path d="m5.13615735 3.99427271c.58415398.13486258.99638915.50977561.92075302.83739169-.07563614.32761609-.6105017.48387368-1.19465568.34901111s-.99638915-.5097756-.92075302-.83739169c.07563614-.32761608.6105017-.48387368 1.19465568-.34901111zm-1.58283534.08510724c.03725144.30338864-.4685326.61514407-1.12970026.69632525-.66116767.08118118-1.22734823-.09895355-1.26459967-.40234218-.03725144-.30338864.4685326-.61514407 1.12970027-.69632526.66116766-.08118118 1.22734822.09895355 1.26459966.40234219zm2.05661747-1.33763072c.88275715.17159061 1.54636416.57825567 1.48220773.90831184-.06415642.33005618-.83178153.4585179-1.71453868.28692729-.88275715-.1715906-1.54636416-.57825567-1.48220773-.90831184.06415642-.33005618.83178153-.4585179 1.71453868-.28692729zm-3.65811435-.94942982c.73263461.01278818 1.32179529.29568484 1.3159272.63186736-.00586808.33618253-.60454281.59834544-1.33717742.58555725-.73263462-.01278818-1.32179529-.29568484-1.31592721-.63186736.00586809-.33618253.60454282-.59834544 1.33717743-.58555725zm2.96232907-1.70175353c.52634537.08336492.9181457.37121276.87511053.64292614-.00790306.04989799-.02992109.09578187-.06386313.13692688.25785386-.07623352.61606082-.05895748.98183807.06698973.62984105.21687166 1.04362025.67383131.92420171 1.02064794s-.72681345.45215783-1.3566545.23528617c-.07619045-.02623448-.14921923-.05598221-.21852495-.08862323-.16721009.26383154-.6446587.40376081-1.17353458.3199951-.62503513-.09899584-1.08521035-.47293746-1.02783012-.83522197.05738023-.36228452.61058718-.57572216 1.23562232-.47672632.09041624.01432053.17738265.03439454.25983157.05935447.01685576-.04724339.04200678-.08960927.07490239-.12737075-.18203507.05574389-.41719795.06933286-.66694346.02977706-.27759311-.04396643-.5177628-.14480935-.67645814-.27016542l.01163345.02862435.00724487.06956177c-.00533462.30562048-.49559186.54489284-1.09502018.53442978s-1.08103641-.2666994-1.07570179-.57231987c.00533463-.30562048.49559186-.54489284 1.09502018-.53442978.36129127.00630636.67978091.10189702.87464664.24377101-.01827828-.04728222-.02396925-.09508471-.01647557-.14239799.04303518-.27171338.50460931-.42439999 1.03095469-.34103507zm-3.10422138.82142791c.13337129.24060817-.13635084.64510027-.60244122.90345839-.46609039.25835812-.95205009.2727473-1.08542137.03213913-.13337129-.24060817.13635083-.64510027.60244122-.90345839.46609038-.25835812.95205008-.27274729 1.08542137-.03213913z" fill="#247805"/></g><g transform="translate(0 2.2)"><path d="m2.19346187 3.98565129c-.27811728 2.6401352-.41717591 4.13910811-.41717591 4.49691873 0 .35781063.2559123.35781063.7677369 0 .07516384-1.26079986.19990027-2.12538941.3742093-2.59376867.26146354-.70256888.38486768.06930169.38486768.47948829v2.32904946c.63694962.08672359.95542443.0151339.95542443-.21476908 0-.34485446-.39752451-4.49691873-.39752451-4.49691873s-.48170911 0-1.44512734 0z" fill="#fff"/><path d="m2.13501895 3.98011513.00528396-.05016004h1.77433977l.00485029.05066027c.00077705.00811611.00077705.00811611.00446571.04672761.00504741.05288763.00504741.05288763.01261823.1323844.01358846.14277067.02872977.30243425.04503575.47510459.04658873.493346.09317757.99208191.13666126 1.46512158.00645966.0703122.00645966.0703122.01291127.14070578.1170799 1.27825976.18607287 2.09407658.18607287 2.2419107 0 .28194361-.3523405.36114594-1.02250563.26989991l-.05038639-.00686034v-2.37731995c0-.22927379-.03596891-.50285231-.09045996-.6370086-.04661329-.11476134-.07669807-.10229689-.18028793.17605551-.17193211.46199233-.29608838 1.32256065-.37095512 2.57837711l-.00155877.0261468-.02222912.01554012c-.54323593.37976991-.86132298.37976991-.86132298-.04483056 0-.36067066.13899251-1.85893071.41746679-4.50245489zm-.2999992 4.50245489c0 .28649371.18775694.29095036.6519389-.02940084.07562425-1.25154552.20042594-2.11142682.37588751-2.58290303.13271076-.3566021.30033986-.42605261.40067741-.17902281.06074517.14955386.09831006.43527127.09831006.6770463v2.2805338c.56919571.07188167.83795685.00658601.83795685-.16625342 0-.14262638-.06941123-.96338892-.18563227-2.23227187-.00644999-.07037584-.00644999-.07037584-.0129081-.14067123-.0434748-.47294284-.09005577-.97159456-.13663684-1.4648595-.01630345-.1726435-.03144233-.33228138-.0450284-.47502709-.00737543-.07744501-.00756431-.07942829-.0122373-.12839283h-1.56072479c-.27424191 2.60561166-.41160303 4.08852891-.41160303 4.44122252z" fill="#979797" fill-rule="nonzero"/><path d="m.80887763 2.62351752c.21842994.78624612.37598788 1.17936918.4726738 1.17936918s.43848779-.24123273 1.02540563-.72369818v.98229768h1.64031762v-.43507898l.21043577.43507898.28683102-.13413764.49622028-.5848467h-.49622028c-.09610453-.62614103-.14415679-.98872063-.14415679-1.08773879 0-.14852725.00584302-.44235648-.35311-.54870728-.23930201-.07090053-.4176448-.16911928-.53502837-.29465622.51529002-.73800509.57674343-1.10700764.18436022-1.10700764-.58857481 0-.85499888.14191134-.85499888.14191134v.81119362c0 .15390268-.84435936-.02832438-.84435936.4485589 0 .47688327-.39374948.91746173-.39374948.91746173s-.03340112-.10646107-.10020336-.3193832z" fill="#ff863b"/><ellipse cx="3.289092" cy=".278481" fill="#000" rx="1" ry="1"/><path d="m.32945215 3.07987695-.26509106-.22018617c.51074036-.55294296 1.07902213-.9552347 1.70428221-1.20495732.59208074-.23647112 1.36585336-.61387989 2.31983314-1.13186101l.17510643.29000296c-.96531236.52413435-1.75086887.90729073-2.35815425 1.14983443-.57410604.22929221-1.09924383.60104194-1.57597647 1.11716711z" fill="#740000" fill-rule="nonzero"/><path d="m4.07710365.64414914.22261542 1.04558542.98836653-.52279271-.7783881-.86510755z" fill="#f9fcff" stroke="#6c6c6c" stroke-width=".666667"/></g><g transform="matrix(-1 0 0 1 14.6666 2.2)"><path d="m2.32105032 4.47601626c-.27586835 2.75550696-.41380253 4.31998376-.41380253 4.69343042s.25384294.37344666.7615288 0c.07455603-1.31589578.19828382-2.2182672.37118334-2.70711425.25934928-.73327058.38175554.07233011.38175554.50044154v2.43082702c.63179909.09051334.94769863.01579524.94769863-.22415431 0-.35992432-.39431003-4.69343042-.39431003-4.69343042s-.47781389 0-1.43344167 0z" fill="#fff"/><path d="m2.26307998 4.47023817.00524124-.05235199h1.75999201l.00481106.05287408c.00077077.00847077.00077077.00847077.0044296.04876957.0050066.05519877.0050066.05519877.0125162.13816949.01347857.14900963.02849745.31565038.04467158.49586627.046212.51490482.09242411 1.03543509.13555618 1.52914621.00640743.07338478.00640743.07338478.01280687.1468545.11613315 1.33411867.18456824 2.18558603.18456824 2.33988038 0 .29426432-.34949139.37692773-1.0142374.28169431l-.04997895-.00716012v-2.4812069c0-.23929287-.03567805-.52482655-.08972848-.66484536-.04623636-.11977632-.07607787-.10676718-.17883007.18374899-.17054182.48218102-.29369414 1.38035547-.36795549 2.6910501l-.00154616.02728938-.02204937.01621921c-.53884319.39636556-.8543581.39636556-.8543581-.04678961 0-.37643167.13786858-1.94016447.41409104-4.69920851zm-.29757333 4.69920851c0 .29901325.18623869.30366465.64666716-.03068563.07501273-1.30623705.19880524-2.20369446.37284799-2.6957738.13163762-.37218532.29791123-.44467076.39743743-.18684596.06025397.15608924.09751509.45429227.09751509.70663268v2.38019126c.56459306.07502285.83118093.00687382.83118093-.17351855 0-.14885904-.06884996-1.00548823-.1841312-2.32982034-.00639784-.07345121-.00639784-.07345121-.01280373-.14681844-.04312324-.49361006-.08932755-1.01405246-.13553196-1.52887268-.01617161-.18018787-.03118807-.34680181-.04466429-.49578538-.00731579-.0808293-.00750314-.08289925-.01213834-.1340035h-1.54810437c-.27202433 2.71947477-.40827471 4.26719431-.40827471 4.63530034z" fill="#979797" fill-rule="nonzero"/><path d="m.91885455 2.97068342c.21666366.82060444.37294754 1.23090666.46885164 1.23090666.09590409 0 .43494207-.2517744 1.01711394-.7553232v1.02522329h1.62705359v-.45409158l.20873414.45409158.28451163-.13999934.49220772-.61040403h-.49220772c-.0953274-.65350289-.1429911-1.03192692-.1429911-1.13527209 0-.15501777.00579577-.4616871-.35025467-.57268534-.23736695-.07399883-.41426762-.17650965-.53070199-.30753246.51112326-.77025532.57207974-1.15538297.18286944-1.15538297-.58381544 0-.84808514.14811274-.84808514.14811274v.84664213c0 .1606281-.83753166-.02956213-.83753166.46816056 0 .49772268-.39056552.95755405-.39056552.95755405s-.03313103-.11111332-.09939309-.33333998z" fill="#824028"/><ellipse cx="3.379014" cy=".523171" fill="#000" rx="1" ry="1"/><path d="m6.08478451 3.19412415-3.5635588-1.85736853c-.04397736-.41597711-.29539111-.68658542-.75424125-.81182494-.45885014-.12523951-.87123283-.28475776-1.23714809-.47855475l-.31337034.47855475c-.37209764-.09819818.14474184.17241013 1.55051843.81182494 2.1086649.9591222-.07938715-.51986611.52000484 0z" fill="#ba611f" fill-rule="nonzero" transform="matrix(-1 0 0 1 6.1844 0)"/></g></g></g></g></g></g><rect height="32" mask="url(#b)" rx="2" width="43.335938"/></g></svg>