<svg height="32" viewBox="0 0 44 32" width="44" xmlns="http://www.w3.org/2000/svg" xmlns:xlink="http://www.w3.org/1999/xlink"><mask id="a" fill="#fff"><path d="m0 0h43.335938v32h-43.335938z" fill="#fff" fill-rule="evenodd"/></mask><mask id="b" fill="#fff"><path d="m0 0h43.335938v32h-43.335938z" fill="#fff" fill-rule="evenodd"/></mask><g fill="none" fill-rule="evenodd"><g mask="url(#a)"><g fill-rule="evenodd" mask="url(#b)"><path d="m10.8339844 0h21.6679687v32h-21.6679687z" fill="#f7fcff"/><g fill="#e31d1c"><path d="m21.6360108 9.33333333.031958 15.99999997h-.8118818l.4981303-3.9595492c-3.6431018.6453922-5.3140635.8053187-5.0128853.4797795.3011782-.3255393.5385054-.7869174.7119816-1.3841342l-4.8650812-3.1956866c.5116181-.0063181.9755379-.1313372 1.3917593-.3750573.4162214-.24372.2081107-1.0882899-.6243321-2.5337094l2.4563138.3518383.9293586-.9943874 1.8532485 1.9096407h.8330504l-.8330504-4.3741671 1.4932322.8211929zm0 0 2.012114 2.74576017 1.4932322-.8211929-.8330504 4.3741671h.8330504l1.8532485-1.9096407.9293586.9943874 2.4563138-.3518383c-.8324428 1.4454195-1.0405535 2.2899894-.6243321 2.5337094.4162214.2437201.8801412.3687392 1.3917593.3750573l-4.8650812 3.1956866c.1734762.5972168.4108034 1.0585949.7119816 1.3841342.3011782.3255392-1.3697835.1656127-5.0128853-.4797795l.4981303 3.9595492h-.8118817z"/><path d="m32.501953 0h10.833984v32h-10.833984z"/><path d="m0 0h10.833984v32h-10.833984z"/></g></g></g><rect height="32" mask="url(#a)" rx="2" width="43.335938"/></g></svg>