<svg height="32" viewBox="0 0 43 32" width="43" xmlns="http://www.w3.org/2000/svg" xmlns:xlink="http://www.w3.org/1999/xlink"><mask id="a" fill="#fff"><path d="m0 0h43.335938v32h-43.335938z" fill="#fff" fill-rule="evenodd"/></mask><mask id="b" fill="#fff"><path d="m0 0h42.666667v32h-42.666667z" fill="#fff" fill-rule="evenodd"/></mask><g fill="none" fill-rule="evenodd"><g fill-rule="evenodd" mask="url(#a)"><g mask="url(#b)" transform="translate(.3346)"><path d="m0 0h42.6666667v32h-42.6666667z" fill="#5eaa22"/><g fill="#feca00"><g transform="translate(26.6667 5.3333)"><path d="m5.33333333 4-1.33333333.97606774.17863279-1.64273441-1.51196612-.66666666 1.51196612-.66666667-.17863279-1.64273441 1.33333333.97606774 1.33333334-.97606774-.1786328 1.64273441 1.51196613.66666667-1.51196613.66666666.1786328 1.64273441z"/><path d="m3.95038789 12.9048894-1.33333333.9760677.17863279-1.6427344-1.51196612-.6666667 1.51196612-.6666666-.17863279-1.64273444 1.33333333.97606774 1.33333334-.97606774-.1786328 1.64273444 1.51196613.6666666-1.51196613.6666667.1786328 1.6427344z"/><path d="m8 20-1.33333333.9760677.17863279-1.6427344-1.51196613-.6666666 1.51196613-.6666667-.17863279-1.6427344 1.33333333.9760677 1.33333333-.9760677-.17863279 1.6427344 1.51196616.6666667-1.51196616.6666666.17863279 1.6427344z"/><path d="m9.33333333 7.33333333-.66666666.48803388.08931639-.82136721-.75598306-.33333333.75598306-.33333334-.08931639-.8213672.66666666.48803387.66666667-.48803387-.0893164.8213672.7559831.33333334-.7559831.33333333.0893164.82136721z"/></g><circle cx="6.666667" cy="6.666667" r="6.666667" transform="translate(2.6667 5.3333)"/><path d="m6.39145076 1.33333333c2.1309463 0 3.83129304.74541439 4.61169274 2.77557495-.6175872-.61145254-1.57342032-1.03137588-3.0031435-.97813783-2.209139 0-3.64620906 1.72103916-3.64620906 3.19379849s1.43707006 3.47474311 3.64620906 3.47474311c1.11181016-.0166421 1.93290311-.22005447 2.5314257-.53994894-.87793495 1.50627469-2.27277766 2.19020509-4.13997494 2.19020509-2.79352112 0-5.05811743-2.26459632-5.05811743-5.05811744s2.26459631-5.05811743 5.05811743-5.05811743z" transform="translate(16 10.6667)"/></g><g transform="translate(2.6667 6.6667)"><path d="m7.44329821 4.92494043c-.86901378 3.18304731-1.48293292 4.92517359-1.84175742 5.22637887-.15883395.0700509.56056801.0700509 2.15820587 0-.59890461-.26204724-.79287409-.56745285-.58190846-.91621684.31644845-.523146.72984354-3.88904373.58190846-5.03553423-.09862339-.764327-.2041062-.52253627-.31644845.7253722z" fill="#915e2b" fill-rule="nonzero"/><path d="m7.72064254 5.10224368c.93184793.2798359 1.3977719.65784455 1.3977719 1.13402595 0 .71427211 1.16281516 1.71820983 1.16281516.76746457s-.2175291-1.90149052-.69017214-1.90149052c-.47264302 0 .23117514-.63919376.63536784-.10837864.4041927.53081511 1.821494-.04991294 1.5336248-.42243647s-1.3097325-.83673328-1.4788205-.83673328c-.1690879 0 1.1628152-.90740919 0-.90740919-1.16281516 0-.49595071.775089-1.28396903-.04780771s.33549523.40168286.33549523-.98020129c0-1.38188416-.31878546-1.94651374-1.37136628-1.17083701-1.05258083.77567674-.8507674.28370294-1.22540053-.00876227-.37463314-.29246522-.70340516 1.07078272-.29112564 1.34906329.41227951.27828056.8693082.96800067.45702869.96800067s-.7033574-.39800146-.7033574-.68300106c0-.28499961-1.12183739-.78836828-2.18659649-.78836828s-.37584674.78836828 0 .78836828c.37584673 0 2.05896819.57354538 1.21740746.57354538s.06500676-.42435385-.9957629-.42435385c-1.06076967 0-2.29384089-.48305534-2.29384089.42435385s1.05992979 1.30939667 1.39105286.90740919c.33112307-.40198749.7139243-1.07966767.7139243-.40309689s-.84368591.40034316-2.10497716.82008667c-1.26129124.4197435-.8993569 1.52634042.60528986 1.25608539 1.50464675-.27025503 1.34184701-.25552924 1.94593139-.67527275.60408439-.4197435 1.35170562-.30271872.73838254.36974597-.61332308.6724647-1.22664615 1.90149052-.61332308 1.90149052.61332308 0 1.00869705.16722963 1.00869705-.48246496s.35603723-1.91456892.35603723-1.11349878c0 .80107015.46410654 1.40488628.87638605 1.11349878.41227951-.29138749-.09601222-1.20313153.37463313-1.20313153.31376357 0 .47671909-.07196467.48886655-.21589403z" fill="#5eaa22"/></g></g></g><rect height="32" mask="url(#a)" rx="2" width="43.335938"/></g></svg>