<svg height="32" viewBox="0 0 43 32" width="43" xmlns="http://www.w3.org/2000/svg" xmlns:xlink="http://www.w3.org/1999/xlink"><mask id="a" fill="#fff"><path d="m0 0h43.335938v32h-43.335938z" fill="#fff" fill-rule="evenodd"/></mask><mask id="b" fill="#fff"><path d="m0 0h42.666667v32h-42.666667z" fill="#fff" fill-rule="evenodd"/></mask><g fill="none" fill-rule="evenodd"><g fill-rule="evenodd" mask="url(#a)"><g mask="url(#b)" transform="translate(.3346)"><g transform="translate(0 -2.6667)"><path d="m0 2.66666667h42.6666667v8.00000003h-42.6666667z" fill="#3d58db"/><path d="m0 10.6666667h42.6666667v8h-42.6666667z" fill="#f7fcff"/><path d="m0 18.6666667h42.6666667v8h-42.6666667z" fill="#73be4a"/><path d="m0 26.6666667h42.6666667v8h-42.6666667z" fill="#ffd018"/><path d="m6.03926691 9.88814356-3.23271824 2.24227514 1.03297256-3.84048394-2.37315023-2.45330408 3.21337831-.13265206 1.3595176-3.79766821 1.3595176 3.79766821h3.20791119l-2.3676831 2.58595614 1.18577335 3.61380914z" fill="#feca00"/><path d="m16 2.666667h10.666667v32h-10.666667z" fill="#e11c1b"/></g></g></g><rect height="32" mask="url(#a)" rx="2" width="43.335938"/></g></svg>