<svg height="32" viewBox="0 0 43 32" width="43" xmlns="http://www.w3.org/2000/svg" xmlns:xlink="http://www.w3.org/1999/xlink"><defs><path id="a" d="m0 0h42.666667v32h-42.666667z"/><path id="b" d="m0 0h24v18.666667h-24z"/><mask id="c" fill="#fff"><path d="m0 0h43.335938v32h-43.335938z" fill="#fff" fill-rule="evenodd"/></mask><mask id="d" fill="#fff"><path d="m0 0h42.666667v32h-42.666667z" fill="#fff" fill-rule="evenodd"/></mask><mask id="e" fill="#fff"><use fill="#fff" fill-rule="evenodd" xlink:href="#a"/></mask><mask id="f" fill="#fff"><use fill="#fff" fill-rule="evenodd" xlink:href="#b"/></mask></defs><g fill="none" fill-rule="evenodd"><g fill-rule="evenodd" mask="url(#c)"><g mask="url(#d)" transform="translate(.3346)"><use fill="#2e42a5" xlink:href="#a"/><g mask="url(#e)"><use fill="#2b409a" xlink:href="#b"/><g mask="url(#f)"><g fill-rule="nonzero"><path d="m1.32764499 3.28505196 5.28126726-2.31626725 21.51092825 17.13103699 2.7857478 3.4420421-5.6475555.7741648-8.7737935-7.382254-7.06200197-4.97391428z" fill="#f7fcff" transform="matrix(1 0 0 -1 -4 20.6181)"/><path d="m2.05065842 2.76731119 2.69056181-1.34416892 25.16402527 21.54362063h-3.7778619z" fill="#f50100" transform="matrix(1 0 0 -1 -4 21.7233)"/><path d="m1.32764499 3.28505196 5.28126726-2.31626725 21.51092825 17.13103699 2.7857478 3.4420421-5.6475555.7741648-8.7737935-7.382254-7.06200197-4.97391428z" fill="#f7fcff" transform="matrix(-1 0 0 -1 28 20.6181)"/><path d="m1.50784817 3.09890547 2.6905618-1.34416891 10.71510273 9.22394324 3.176798 1.030569 13.0833277 10.4993758h-3.7778619l-13.075977-10.2501652-3.4732688-1.2357627z" fill="#f50100" transform="matrix(-1 0 0 -1 28 21.5967)"/></g><path d="m14.3127673-1-.000682 7.99909357 10.6879147.00099999v4.66663544l-10.6879147-.0006666.000682 8.0006043h-4.66675002l-.00001536-8.0006041-10.64600192.0006667v-4.66663537l10.64600192-.001.00001536-7.99909393z" fill="#f50100" stroke="#f7fcff" stroke-width="2"/></g></g><g fill="#fff" mask="url(#e)"><path d="m7.19053997 3.12824638-.96783931.67851682.32675325-1.20747988-.85962197-.76521594h1.12278307l.37657234-.9854232.44156155.9854232h.95714169l-.75204857.76521594.29114865 1.20747988zm3.75034433 1.67776503-.96783933.67851682.32675323-1.20747988-.85962195-.76521594h1.12278305l.3765724-.9854232.4415615.9854232h.9571417l-.7520486.76521594.2911487 1.20747988zm1.1187486 3.1745272-.9678393.67851681.3267532-1.20747988-.859622-.76521594h1.1227831l.3765723-.98542319.4415616.98542319h.9571417l-.7520486.76521594.2911487 1.20747988zm-1.3290007 3.03326029-.96783926.6785168.32675326-1.2074799-.85962198-.7652159h1.12278308l.3765723-.9854232.4415616.9854232h.9571417l-.7520486.7652159.2911487 1.2074799zm-3.39765825 1.6614752-.96783931.6785168.32675325-1.2074799-.85962197-.7652159h1.12278306l.37657235-.9854232.44156155.9854232h.95714169l-.75204858.7652159.29114866 1.2074799zm-3.16496537-1.6088815-.96783931.6785168.32675325-1.2074798-.85962197-.76521597h1.12278307l.37657234-.9854232.44156155.9854232h.95714169l-.75204857.76521597.29114865 1.2074798zm-1.68848217-3.06387592-.96783931.67851681.32675325-1.20747987-.85962196-.76521594h1.12278306l.37657234-.9854232.44156156.9854232h.95714169l-.75204858.76521594.29114866 1.20747987zm1.21757876-3.13458078-.96783931.67851682.32675325-1.20747988-.85962197-.76521594h1.12278307l.37657234-.9854232.44156155.9854232h.9571417l-.75204858.76521594.29114865 1.20747988z" transform="translate(25.3333 14.6667)"/></g></g></g><rect height="32" mask="url(#c)" rx="2" width="43.335938"/></g></svg>