<svg height="32" viewBox="0 0 43 32" width="43" xmlns="http://www.w3.org/2000/svg" xmlns:xlink="http://www.w3.org/1999/xlink"><mask id="a" fill="#fff"><path d="m0 0h43.335938v32h-43.335938z" fill="#fff" fill-rule="evenodd"/></mask><mask id="b" fill="#fff"><path d="m0 0h42.666667v32h-42.666667z" fill="#fff" fill-rule="evenodd"/></mask><g fill="none" fill-rule="evenodd"><g fill-rule="evenodd" mask="url(#a)"><g mask="url(#b)" transform="translate(.3346)"><path d="m0 0h42.6666667v32h-42.6666667z" fill="#e31d1c"/><g fill="#feca00" transform="translate(2.6667 1.3333)"><path d="m17.3542875 4.73108213-1.3468833.8131115.3072156-1.58670588-1.1216241-1.18749332 1.5187418-.06420868.64255-1.48159181.64255 1.48159181h1.5161579l-1.1190401 1.251702.3368974 1.58670588z"/><path d="m6.69001339 11.4762803-3.8411118 2.0679133.8761333-4.03532621-3.19870585-3.02004486 4.33122686-.16329617 1.83245749-3.76799909 1.83245749 3.76799909h4.32385782l-3.19133681 3.18334103.96078151 4.03532621z"/><path d="m20.0209542 10.0644155-1.3468833.8131115.3072155-1.58670592-1.121624-1.18749331 1.5187418-.06420869.64255-1.48159181.64255 1.48159181h1.5161579l-1.1190402 1.251702.3368974 1.58670592z"/><path d="m18.6876209 15.3977488-1.3468833.8131115.3072155-1.5867059-1.1216241-1.1874933 1.5187419-.0642087.64255-1.4815918.64255 1.4815918h1.5161578l-1.1190401 1.251702.3368974 1.5867059z"/><path d="m14.6876209 19.3977488-1.3468833.8131115.3072155-1.5867059-1.1216241-1.1874933 1.5187419-.0642087.64255-1.4815918.64255 1.4815918h1.5161578l-1.1190401 1.251702.3368974 1.5867059z"/></g></g></g><rect height="32" mask="url(#a)" rx="2" width="43.335938"/></g></svg>