<svg height="32" viewBox="0 0 43 32" width="43" xmlns="http://www.w3.org/2000/svg" xmlns:xlink="http://www.w3.org/1999/xlink"><defs><path id="a" d="m0 0h42.666667v32h-42.666667z"/><path id="b" d="m14.0289785 13.0007478-.9678393.6785168.3267532-1.2074798-.8596219-.765216h1.122783l.3765724-.9854232.4415615.9854232h.9571417l-.7520486.765216.2911487 1.2074798zm4 2.1333331-.9678393.6785168.3267532-1.2074799-.8596219-.7652159h1.122783l.3765724-.9854232.4415615.9854232h.9571417l-.7520486.7652159.2911487 1.2074799zm3.2000002 3.2000003-.9678393.6785168.3267532-1.2074799-.8596219-.7652159h1.122783l.3765724-.9854232.4415615.9854232h.9571417l-.7520486.7652159.2911487 1.2074799zm0 5.3333333-.9678393.6785168.3267532-1.2074799-.8596219-.7652159h1.122783l.3765724-.9854232.4415615.9854232h.9571417l-.7520486.7652159.2911487 1.2074799zm-3.2000002 3.1999997-.9678393.6785168.3267532-1.2074799-.8596219-.7652159h1.122783l.3765724-.9854232.4415615.9854232h.9571417l-.7520486.7652159.2911487 1.2074799zm-4 2.1333336-.9678393.6785168.3267532-1.2074798-.8596219-.765216h1.122783l.3765724-.9854232.4415615.9854232h.9571417l-.7520486.765216.2911487 1.2074798zm-4-2.1333336-.96783933.6785168.32675325-1.2074799-.85962196-.7652159h1.12278306l.37657238-.9854232.4415615.9854232h.9571417l-.7520486.7652159.2911487 1.2074799zm-3.19999981-3.1999997-.96783931.6785168.32675325-1.2074799-.85962196-.7652159h1.12278306l.37657234-.9854232.44156156.9854232h.95714169l-.75204858.7652159.29114866 1.2074799zm0-5.3333333-.96783931.6785168.32675325-1.2074799-.85962196-.7652159h1.12278306l.37657234-.9854232.44156156.9854232h.95714169l-.75204858.7652159.29114866 1.2074799zm3.19999981-3.2000003-.96783933.6785168.32675325-1.2074799-.85962196-.7652159h1.12278306l.37657238-.9854232.4415615.9854232h.9571417l-.7520486.7652159.2911487 1.2074799z"/><filter id="c" height="179.1%" width="186.7%" x="-43.4%" y="-39.6%"><feOffset dx="0" dy="0" in="SourceAlpha" result="shadowOffsetOuter1"/><feGaussianBlur in="shadowOffsetOuter1" result="shadowBlurOuter1" stdDeviation="2.5"/><feColorMatrix in="shadowBlurOuter1" type="matrix" values="0 0 0 0 0   0 0 0 0 0   0 0 0 0 0  0 0 0 0.24 0"/></filter><mask id="d" fill="#fff"><path d="m0 0h43.335938v32h-43.335938z" fill="#fff" fill-rule="evenodd"/></mask><mask id="e" fill="#fff"><path d="m0 0h42.666667v32h-42.666667z" fill="#fff" fill-rule="evenodd"/></mask><mask id="f" fill="#fff"><use fill="#fff" fill-rule="evenodd" xlink:href="#a"/></mask></defs><g fill="none" fill-rule="evenodd"><g fill-rule="evenodd" mask="url(#d)"><g mask="url(#e)" transform="translate(.3346)"><use fill="#4141db" xlink:href="#a"/><path d="m-1.333333 17.333333h45.333333v5.333333h-45.333333z" fill="#f90000" mask="url(#f)" stroke="#f7fcff" stroke-width="2.666667"/><g mask="url(#f)"><use fill="#000" filter="url(#c)" xlink:href="#b"/><use fill="#ffde00" fill-rule="evenodd" xlink:href="#b"/></g></g></g><rect height="32" mask="url(#d)" rx="2" width="43.335938"/></g></svg>