<svg height="32" viewBox="0 0 43 32" width="43" xmlns="http://www.w3.org/2000/svg" xmlns:xlink="http://www.w3.org/1999/xlink"><defs><path id="a" d="m0 0h42.666667v32h-42.666667z"/><mask id="b" fill="#fff"><path d="m0 0h43.335938v32h-43.335938z" fill="#fff" fill-rule="evenodd"/></mask><mask id="c" fill="#fff"><path d="m0 0h42.666667v32h-42.666667z" fill="#fff" fill-rule="evenodd"/></mask><mask id="d" fill="#fff"><use fill="#fff" fill-rule="evenodd" xlink:href="#a"/></mask></defs><g fill="none" fill-rule="evenodd"><g fill-rule="evenodd" mask="url(#b)"><g mask="url(#c)" transform="translate(.3346)"><use fill="#2e42a5" xlink:href="#a"/><path d="m5.67256415 8.19896793-2.65179519 1.39958319 1.28035184-2.49118228-1.63445413-1.8231745 2.03112127-.07495906.97477621-2.54256861.74387927 2.54256861 2.37684832.07495906-1.71132796 1.8231745 1.08566079 2.49118228z" fill="#f7fcff" mask="url(#d)"/><path d="m15.1363567 14.7687235-3.2728336 1.3709818 1.2839646-3.4355027-2.8455595-2.3051685h3.4097294l1.4246991-3.71612997 1.0872281 3.71612997h3.4149931l-2.4267067 2.3051685 1.204972 3.4355027z" fill="#f7fcff" mask="url(#d)"/><path d="m0 18.666667h42.666667v5.333333h-42.666667z" fill="#f9e813" mask="url(#d)"/></g></g><rect height="32" mask="url(#b)" rx="2" width="43.335938"/></g></svg>