<svg height="32" viewBox="0 0 43 32" width="43" xmlns="http://www.w3.org/2000/svg" xmlns:xlink="http://www.w3.org/1999/xlink"><mask id="a" fill="#fff"><path d="m0 0h43.335938v32h-43.335938z" fill="#fff" fill-rule="evenodd"/></mask><mask id="b" fill="#fff"><path d="m0 0h42.666667v32h-42.666667z" fill="#fff" fill-rule="evenodd"/></mask><g fill="none" fill-rule="evenodd"><g fill-rule="evenodd" mask="url(#a)"><g mask="url(#b)" transform="translate(.3346)"><path d="m0 0h42.6666667v32h-42.6666667z" fill="#5eaa22"/><path d="m0 0 42.6666667 32h-42.6666667z" fill="#4141db"/><g fill="#fff" transform="translate(2.6667 8)"><path d="m5.33333333 4-1.33333333.97606774.17863279-1.64273441-1.51196612-.66666666 1.51196612-.66666667-.17863279-1.64273441 1.33333333.97606774 1.33333334-.97606774-.1786328 1.64273441 1.51196613.66666667-1.51196613.66666666.1786328 1.64273441z"/><path d="m2.66666667 12-1.33333334.9760677.1786328-1.6427344-1.51196613-.6666666 1.51196613-.6666667-.1786328-1.64273441 1.33333334.97606774 1.33333333-.97606774-.17863279 1.64273441 1.51196612.6666667-1.51196612.6666666.17863279 1.6427344z"/><path d="m8 20-1.33333333.9760677.17863279-1.6427344-1.51196613-.6666666 1.51196613-.6666667-.17863279-1.6427344 1.33333333.9760677 1.33333333-.9760677-.17863279 1.6427344 1.51196616.6666667-1.51196616.6666666.17863279 1.6427344z"/><path d="m9.33333333 7.33333333-.66666666.48803388.08931639-.82136721-.75598306-.33333333.75598306-.33333334-.08931639-.8213672.66666666.48803387.66666667-.48803387-.0893164.8213672.7559831.33333334-.7559831.33333333.0893164.82136721z"/></g><path d="m2.08144654 13.6318954c-.49841404-.5199679 3.98695845-1.7417074 4.45189702-3.3170877.61608833-1.37158288.20449831-2.48298367-2.12369936-3.45905202-2.32819766-.97606835-4.68116835-2.86337146-1.97549614-2.86337146 2.70567222 0 2.70567222.38577809 3.43254973 1.52377773.72687751 1.13799965 2.2979467 1.38177273 2.33125975 0 0-2.35439517.22221758-2.67105277-1.67842822-4.7179456s4.76597418.84057372 4.21498148 4.34963099-1.21442371 2.37676445-.79330137 2.96581742c.42112237.58905296 2.95506277-1.23948482 2.63865417 1.19626481-.8864897 1.40086233-2.64466358 3.48519743-10.49841706 4.32196583z" fill="#feca00" transform="translate(26.6667 2.6667)"/><g transform="translate(13.3333 8)"><circle cx="8" cy="8" fill="#feca00" r="6.666667"/><path d="m3.9372897 5.54938507c.75619198-.16860412 1.79023035 1.8563323 3.65652789 1.09685906s2.25605046-2.20943319 3.14280011-1.67876081c.8867496.53067238 1.003136 1.80838799.4124268 2.45057526-.5907093.64218728-1.59311397.79409968-1.59311397 1.60577893 0 .81167926-.19656786 3.70618319-.57964661 2.86733559-1.14877915-.9320728-.44790044-2.41665916-1.86291475-2.86733559-1.41501431-.45067642-2.27442727-.43558285-3.31824832-.24540379-1.04382104.19017906.70124441-.5224153 1.07134055-1.19896266.7535406-.72493558-1.27494828-1.7890327-.9291717-2.03008599z" fill="#548650"/></g></g></g><rect height="32" mask="url(#a)" rx="2" width="43.335938"/></g></svg>