<svg height="32" viewBox="0 0 43 32" width="43" xmlns="http://www.w3.org/2000/svg" xmlns:xlink="http://www.w3.org/1999/xlink"><defs><path id="a" d="m0 0h42.666667v32h-42.666667z"/><mask id="b" fill="#fff"><path d="m0 0h43.335938v32h-43.335938z" fill="#fff" fill-rule="evenodd"/></mask><mask id="c" fill="#fff"><path d="m0 0h42.666667v32h-42.666667z" fill="#fff" fill-rule="evenodd"/></mask><mask id="d" fill="#fff"><use fill="#fff" fill-rule="evenodd" xlink:href="#a"/></mask></defs><g fill="none" fill-rule="evenodd"><g fill-rule="evenodd" mask="url(#b)"><g mask="url(#c)" transform="translate(.3346)"><use fill="#f7fcff" xlink:href="#a"/><g mask="url(#d)"><g transform="translate(9.3333 4)"><path d="m11.9300819 19.9161842v.1620499c-.0663106.022828-.1445791.0639556-.2348057.1233826.3665543.1431569.7250953.3166617 1.0761003.5195916l-.5942138.4949278c-.3120791-.3254061-.5793918-.5823058-.8019379-.7706989-.2216578.1883931-.4889704.4452928-.8010496.7706989l-.59421375-.4949278c.35100495-.2029299.70954595-.3764347 1.07562305-.5205144-.0897494-.0585042-.1680179-.0996318-.2343285-.1224598v-.1620499c.1870002.0484774.3721549.1041604.5554642.1670491l.218352-.0718833zm-1.7931249-.0116063c-.37205281.2513755-.75639959.4174736-1.15304039.4982943s-.75149206-.1105556-1.06455377-.574129c.5384409-.1637741.91485641-.2632258 1.12924654-.298355.21439013-.0351293.57717266.0896006 1.08834762.3741897zm3.5657715-.3741897c.2143902.0351292.5908057.1345809 1.1292466.298355-.3130617.4635734-.667913.6549497-1.0645538.574129s-.7809876-.2469188-1.1530403-.4982943c.5111749-.2845891.8739574-.409319 1.0883475-.3741897zm2.1021199.1680608c.0283304.14772-.0186436.2445406-.1409221.2904618s-.2615477.0718635-.4178076.0778267c.0655596-.1413556.1303733-.2253482.1944413-.2519778.0640679-.0266296.1854974-.0653998.3642884-.1163107zm-8.85835885 0c.17879096.0509109.30022043.0896811.3642884.1163107s.12888171.1106222.19444122.2519778c-.15625986-.0059632-.29552904-.0319055-.41780756-.0778267-.12227851-.0459212-.16925253-.1427418-.14092206-.2904618zm1.66068392-1.4300738c.52151354.2115754.8766303.3711729 1.06535029.4787924.18871998.1076195.39215984.4328593.61031964.9757194-.44733499-.0387849-.85055746-.1515797-1.20966737-.3383844s-.51444409-.5588472-.46600256-1.1161274zm5.53699093 0c.0484416.5572802-.1068926.9293227-.4660025 1.1161274s-.7623324.2995995-1.2096674.3383844c.2181598-.5428601.4215997-.8680999.6103197-.9757194.1887199-.1076195.5438367-.267217 1.0653502-.4787924zm-7.2004024.5391128c.50222571.0042431.84860646.0196444 1.03914224.046204s.4551873.2237758.79395457.5916487c-.39037801.1113391-.76430335.1489832-1.12177601.1129324-.35747267-.0360508-.5945796-.2863125-.7113208-.7507851zm8.8638139 0c-.1167412.4644726-.3538481.7147343-.7113208.7507851s-.731398-.0015933-1.121776-.1129324c.3387673-.3678729.6034188-.5650891.7939546-.5916487s.5369165-.0419609 1.0391422-.046204zm1.2283569-.0219986c.1923448.0035738.5368703.0425479 1.0335766.1169225-.1879635.4404918-.4613008.6505806-.8200119.6302666-.3587112-.0203141-.7221441-.1159896-1.0902986-.2870265.3921445-.3103488.6843891-.4637364.8767339-.4601626zm-11.32052769 0c.19234481-.0035738.48458945.1498138.87673393.4601626-.36815454.1710369-.7315874.2667124-1.09029858.2870265-.35871117.020314-.63204848-.1897748-.82001191-.6302666.49670624-.0743746.84123176-.1133487 1.03357656-.1169225zm1.90741294-.4864964c.17879096.0509109.30022043.0896812.3642884.1163107.06406798.0266296.12888171.1106222.19444122.2519779-.15625986-.0059633-.29552904-.0319055-.41780755-.0778268-.12227852-.0459212-.16925254-.1427418-.14092207-.2904618zm7.50570185 0c.0283304.14772-.0186436.2445406-.1409221.2904618-.1222785.0459213-.2615477.0718635-.4178076.0778268.0655595-.1413557.1303733-.2253483.1944413-.2519779.0640679-.0266295.1854974-.0653998.3642884-.1163107zm-10.88734436 0c.17879096.0509109.30022043.0896812.3642884.1163107.06406797.0266296.12888171.1106222.19444122.2519779-.15625986-.0059633-.29552904-.0319055-.41780756-.0778268-.12227851-.0459212-.16925253-.1427418-.14092206-.2904618zm14.26898686 0c.0283304.14772-.0186436.2445406-.1409221.2904618-.1222785.0459213-.2615477.0718635-.4178075.0778268.0655595-.1413557.1303732-.2253483.1944412-.2519779.0640679-.0266295.1854974-.0653998.3642884-.1163107zm-13.92962982-.6587825c.49385897.0913892.832303.1667049 1.01533209.2259472s.40941372.2994186.6791539.720529c-.40378112.0418592-.77856252.0139999-1.12434421-.0835777-.3457817-.0975776-.53582896-.3852104-.57014178-.8628985zm13.59027272 0c-.0343128.4776881-.2243601.7653209-.5701417.8628985-.3457817.0975776-.7205631.1254369-1.1243443.0835777.2697402-.4211104.4961249-.6612867.6791539-.720529.1830291-.0592423.5214732-.134558 1.0153321-.2259472zm-12.32191608-.4501872c.46734751.1839428.78520245.322453.95356482.4155304s.34475988.3720373.52919252.8368795c-.40434962-.035955-.76692945-.134814-1.08773947-.2965771-.32081003-.1617631-.45248265-.480374-.39501787-.9558328zm11.05355948 0c.0574648.4754588-.0742079.7940697-.3950179.9558328s-.6833898.2606221-1.0877394.2965771c.1844326-.4648422.3608301-.7438021.5291925-.8368795.1683623-.0930774.4862173-.2315876.9535648-.4155304zm-13.64883709.1617724c.20186695-.0051098.56703114.1568962 1.09549258.4860181-.3259487.1853004-.67464599.2900106-1.04609186.3141306-.37144588.0241201-.73750599-.1986242-1.09818034-.668233.49731947-.0828339.84691268-.1268058 1.04877962-.1319157zm16.24411469 0c.2018669.0051099.5514602.0490818 1.0487796.1319157-.3606743.4696088-.7267344.6923531-1.0981803.668233-.3714459-.02412-.7201432-.1288302-1.0460919-.3141306.5284615-.3291219.8936257-.4911279 1.0954926-.4860181zm-1.7991581-.1978121c.0283304.14772-.0186436.2445406-.1409221.2904618s-.2615477.0718635-.4178075.0778268c.0655595-.1413557.1303732-.2253483.1944412-.2519779.0640679-.0266295.1854974-.0653998.3642884-.1163107zm-12.64579846 0c.17879096.0509109.30022043.0896812.3642884.1163107.06406798.0266296.12888172.1106222.19444122.2519779-.15625986-.0059633-.29552904-.0319056-.41780755-.0778268s-.16925254-.1427418-.14092207-.2904618zm17.08523046-1.3522417c-.2338047.4547033-.5127336.69763-.8367867.7287801-.2952868.0283849-.5852694-.0034803-.8699479-.0955956-.0383066.1781363-.1428403.3232363-.3117875.4336657-.3212159.2099573-.6987259.3643192-1.13253.4630857.1205788-.4879709.2644507-.7910909.4316157-.9093601.1671649-.1182691.4891729-.3047974.9660237-.5595849.03986.1270806.0619965.2446214.0664094.3526227l-.0021998.102805.0290361-.0247655c.3344475-.2845897.5793598-.437469.7347367-.4586378.1747991-.0238149.4832758-.03482.9254303-.0330153zm-20.59923223.0330153c.15537694.0211688.4002892.1740481.73473678.4586378l.02829235.0247655-.00145611-.102805c.00441294-.1080013.02654941-.2255421.06640939-.3526227.47685088.2547875.7988588.4413158.96602378.5595849.16716497.1182692.31103686.4213892.43161567.9093601-.43380408-.0987665-.81131408-.2531284-1.13253001-.4630857-.16894723-.1104294-.27348094-.2555294-.31360115-.4352998-.28324138.0937908-.57303919.1255962-.86813431.0972297-.32405305-.0311501-.60298193-.2740768-.83678663-.7287801.44215444-.0018047.75063118.0092004.92543024.0330153zm.7813846 1.0614642c.1072453-.0055519.29885367.0759959.57482509.2446434-.17563829.1036576-.36222872.1645301-.55977128.1826175s-.3887784-.0959331-.57370751-.3420615c.2651905-.0512476.4514084-.0796474.5586537-.0851994zm18.11103273 0c.1072453.005552.2934632.0339518.5586537.0851994-.1849291.2461284-.3761649.3601489-.5737075.3420615-.1975425-.0180874-.384133-.0789599-.5597712-.1826175.2759714-.1686475.4675797-.2501953.574825-.2446434zm-16.89832144-1.3590742c.34723327.2699926.58456582.4703253.71199764.6009979s.27678534.4936559.44806056 1.0889499c-.28967175-.0801001-.55523594-.2349321-.79669255-.4644958-.24145661-.2295638-.36257849-.6380478-.36336565-1.225452zm15.68561024 0c-.0007872.5874042-.1219091.9958882-.3633657 1.225452-.2414566.2295637-.5070208.3843957-.7966926.4644958.1712753-.595294.3206288-.9582773.4480606-1.0889499s.3647644-.3310053.7119977-.6009979zm-18.73302691-1.7099867c.56491527.3209878.94639132.555981 1.14442817.7049795.19803685.1489986.36847887.530877.51132606 1.1456353-.51391862-.1244286-.96114683-.3188977-1.34168462-.5834073-.3805378-.2645096-.48522767-.6869121-.31406961-1.2672075zm21.78044351 0c.1711581.5802954.0664682 1.0026979-.3140696 1.2672075s-.827766.4589787-1.3416846.5834073c.1428472-.6147583.3132892-.9966367.5113261-1.1456353.1980368-.1489985.5795129-.3839917 1.1444281-.7049795zm-19.68400848.6454729c.09651893.2522626.15682366.4307199.1809142.5353718s-.02294591.3075099-.14110935.6085741c-.13258204-.15497-.22493083-.3281553-.27704638-.5195559-.05211554-.1914006.02696497-.3995306.23724153-.62439zm17.58757348 0c.2102766.2248594.2893571.4329894.2372415.62439-.0521155.1914006-.1444643.3645859-.2770464.5195559-.1181634-.3010642-.1651999-.5039222-.1411093-.6085741.0240905-.1046519.0843953-.2831092.1809142-.5353718z" fill="#006b49"/><path d="m27.7414057.02272396c.3077055.39542722.3077055.59314083 0 .59314083s-.8527851.21392961-1.6352387.64178883c-.3721797.55547916-.7836609.89605575-1.2344437 1.02172977-.6761741.18851103-.9042034.88855585-1.893985 1.18032227-.9897815.29176643-1.0909193.37142754-1.0909193.66672094s.1687418.79539492-.5071641.79539492c-.6759058 0-1.1535603-.94632536-1.5193462 0s-.7362665 1.22374062-.2296389 1.8026519c.5066275.57891129 1.1778387 1.13325533 1.4634119 1.46758876s2.190289 1.31276647.7927373 1.31276647c-1.3975516 0-.694953-.88563697-1.7708491-.56212772-1.0758962.32350924-.4582049.80074619-1.2804519.56212772-.8222471-.23861848-1.3704565-.45631831-1.6255811-.34746839-.2551246.10884991-.6650409-.60481635-.6650409.34746839 0 .95228475.7673859.56626285-.877913 1.61815435s-1.3185462.7612197-2.0737258.7612197-1.0204985.4761423-1.5240409.4761423c-.5035425 0-.4421087 0-1.0092311 0-.5671225 0 .0405087-.6023839-.926604 0-.96711278.602384-1.31358327.7223013-1.31358327.9537442v.8451375s-.88609525.5069123-.88609525 0c0-.5069122-.27309869-.6366808-.64049423-.8451375-.36739553-.2084567-1.10151593-.0583776-1.88553451 0s-1.67038211-.7907733-2.35098267-.7907733-.80722393-.6391132-.99340319-.6391132.19422736-.5461955-.59824172-1.0363242c-.79246909-.4901287-1.06986009-.5510603-1.06986009-1.34304985 0-.79198956-.36390803-1.00859481-.36390803-1.48984522s.38778404.17707875 1.20989694.17707875.87603514-.50929058 1.81551609-.98843967 1.25831965-.74136185 2.04166755-.47914909c.78334791.26221276 1.55435541 1.23930798 2.19484963.30149603.64049423-.93781196.64049423-2.01025728.64049423-2.5517096s-.378797-.6956665.64371346-.34783325 1.61739886.34783325 3.31661996.34783325 3.7309627.55568186 4.3571044 0c.6261418-.55568186 1.2954751-1.01455419 2.919983-1.01455419 1.624508 0 2.1552799-.79843541 3.2476746-1.18032227 1.0923948-.38188685-.5185656.42542682 1.9318111-.61904589 1.6335844-.69631514 2.7638499-1.24218632 3.3907965-1.63761354z" fill="#f57a01"/></g></g></g></g><rect height="32" mask="url(#b)" rx="2" width="43.335938"/></g></svg>