<svg height="32" viewBox="0 0 43 32" width="43" xmlns="http://www.w3.org/2000/svg" xmlns:xlink="http://www.w3.org/1999/xlink"><defs><path id="a" d="m0 0h42.666667v32h-42.666667z"/><mask id="b" fill="#fff"><path d="m0 0h43.335938v32h-43.335938z" fill="#fff" fill-rule="evenodd"/></mask><mask id="c" fill="#fff"><path d="m0 0h42.666667v32h-42.666667z" fill="#fff" fill-rule="evenodd"/></mask><mask id="d" fill="#fff"><use fill="#fff" fill-rule="evenodd" xlink:href="#a"/></mask></defs><g fill="none" fill-rule="evenodd"><g fill-rule="evenodd" mask="url(#b)"><g mask="url(#c)" transform="translate(.3346)"><use fill="#279e19" xlink:href="#a"/><g mask="url(#d)"><path d="m22.6666667 0h2.6666666v17.3333333h17.3333334v2.6666667h-17.3333334v12h-2.6666666v-12h-22.6666667v-2.6666667h22.6666667z" fill="#f7fcff"/><path d="m20 0h2.6666667v14.6666667h20v2.6666666h-20v14.6666667h-2.6666667v-14.6666667h-20v-2.6666666h20z" fill="#272727"/><path d="m17.3333333 0h2.6666667v12h22.6666667v2.6666667h-22.6666667v17.3333333h-2.6666667v-17.3333333h-17.3333333v-2.6666667h17.3333333z" fill="#feca00"/><circle cx="21.333333" cy="16" fill="#c51918" r="10.666667"/><g transform="translate(10.9333 6.1333)"><path d="m8.70128388 5.08393162c.33772253-1.09593713.89886228-1.36081755 1.68341922-.79464126 1.8454233.90892976 2.4541104 1.95315694 3.1665648 3.13570683.7124543 1.18254989-1.746799.31647832-2.2055833-.34908415s-3.00365319-.88136606-2.64440072-1.43667374c.23950164-.37020512.23950164-.55530768 0-.55530768z" fill="#804bff"/><path d="m8.28419367 13.5005904c-.83528091 1.1426609-.83528091 1.7139914 0 1.7139914 1.25292135 0 6.33252443-.3687485 5.72368603-.8569957-.4058923-.3254982-2.1131105-.3254982-5.12165452 0z" fill="#a95601"/><path d="m10.1574495 13.4466395c-.076825-.086653-1.22030162-.8377428-1.66615207-2.5551795-.30822668-1.18730352-.11909476-3.40825481.31475772-3.84833826 1.06142088-1.07666495 1.68341925-.4440031 1.68341925 1.17044876 0 1.61445185.0637982 5.6319862-.3320249 5.233069z" fill="#804bff"/><path d="m10.0231269 12.6059467c-.08783409.8394603.0841029 1.7491743.5158109 2.7291423.647562 1.4699518 1.9555436 1.441626 1.9555436.2384932 0-1.2031329.9546283-.0740433 1.3211415.7289253.3665131.8029687-.5826697-7.13025813-1.9296774-8.90509139s-2.64666968-1.88878562-2.25474415-.74186686c.2612837.76461251.39192555 2.74807832.39192555 5.95039745z" fill="#279e19"/><path d="m9.2364789 4c-.37987482.24359138-.56981223.70085745-.56981223 1.37179821 0 .67094075.44970846.56707267 1.34912543-.31160425z" fill="#feca00"/><path d="m11.5855433 16.2851191-.3882185 1.2324646 1.0384999.7688958-1.2921096.0116348-.4103492 1.2252739-.4103492-1.2252739-1.29210965-.0116348 1.03849989-.7688958-.38821848-1.2324646 1.05217744.7500702zm3.5717285-1.8442713.4103491 1.225274 1.2921097.0116348-1.0384999.7688957.3882185 1.2324646-1.0521774-.7500702-1.0521775.7500702.3882185-1.2324646-1.0384999-.7688957 1.2921097-.0116348zm-9.24781178 0 .41034919 1.225274 1.29210964.0116348-1.03849989.7688957.38821848 1.2324646-1.05217742-.7500702-1.05217743.7500702.38821848-1.2324646-1.03849988-.7688957 1.29210963-.0116348zm13.15772018-3.5914561-.3882185 1.2324647 1.0384999.7688957-1.2921097.0116348-.4103492 1.225274-.4103492-1.225274-1.2921096-.0116348 1.0384999-.7688957-.3882185-1.2324647 1.0521774.7500703zm-14.96327375 0-.38821848 1.2324647 1.03849989.7688957-1.29210963.0116348-.4103492 1.225274-.41034919-1.225274-1.29210964-.0116348 1.03849989-.7688957-.38821848-1.2324647 1.05217742.7500703zm13.91109625-5.2037355.4103492 1.22527394 1.2921097.01163481-1.0384999.76889574.3882185 1.23246465-1.0521775-.75007024-1.0521774.75007024.3882185-1.23246465-1.0384999-.76889574 1.2921096-.01163481zm-14.96327367 0 .4103492 1.22527394 1.29210963.01163481-1.03849989.76889574.38821848 1.23246465-1.05217742-.75007024-1.05217742.75007024.38821848-1.23246465-1.03849989-.76889574 1.29210964-.01163481zm13.15772017-3.59145609-.3882185 1.23246464 1.0384999.76889575-1.2921097.0116348-.4103491 1.22527394-.4103492-1.22527394-1.2921097-.0116348 1.0384999-.76889575-.3882185-1.23246464 1.0521775.75007023zm-9.24781176 0-.38821848 1.23246464 1.03849989.76889575-1.29210964.0116348-.41034919 1.22527394-.4103492-1.22527394-1.29210963-.0116348 1.03849988-.76889575-.38821848-1.23246464 1.05217743.75007023zm3.57172846-1.84427126.4103492 1.22527394 1.2921096.0116348-1.0384999.76889575.3882185 1.23246464-1.0521774-.75007023-1.05217744.75007023.38821848-1.23246464-1.03849989-.76889575 1.29210965-.0116348z" fill="#279e19" stroke="#feca00" stroke-width=".133333"/></g></g></g></g><rect height="32" mask="url(#b)" rx="2" width="43.335938"/></g></svg>