<svg height="32" viewBox="0 0 43 32" width="43" xmlns="http://www.w3.org/2000/svg" xmlns:xlink="http://www.w3.org/1999/xlink"><defs><path id="a" d="m0 0h42.666667v32h-42.666667z"/><mask id="b" fill="#fff"><path d="m0 0h43.335938v32h-43.335938z" fill="#fff" fill-rule="evenodd"/></mask><mask id="c" fill="#fff"><path d="m0 0h42.666667v32h-42.666667z" fill="#fff" fill-rule="evenodd"/></mask><mask id="d" fill="#fff"><use fill="#fff" fill-rule="evenodd" xlink:href="#a"/></mask></defs><g fill="none" fill-rule="evenodd"><g fill-rule="evenodd" mask="url(#b)"><g mask="url(#c)" transform="translate(.3346)"><use fill="#c51918" xlink:href="#a"/><path d="m0 0h18.666667v13.333333h-18.666667z" fill="#4257bf" mask="url(#d)"/><path d="m24 18.666667h18.666667v13.333333h-18.666667z" fill="#4257bf" mask="url(#d)"/><g fill="#f7fcff" mask="url(#d)"><path d="m17.3333333 0h8v12h17.3333334v8h-17.3333334v12h-8v-12h-17.3333333v-8h17.3333333z"/></g><g mask="url(#d)"><g fill-rule="nonzero" transform="translate(16.6667 10.6667)"><path d="m3.58105595 9.02851696c-.00089473-.00023649-.0017103-.00045211-.0024791-.00065541.00082505.00021818.00165142.00043664.0024791.00065541zm-1.8675646-6.18407252c.04230963.2148427.07800442.38935632.10708434.52354089.0483739-.06821358.1003931-.13865895.15523269-.21188968l.14981729.12764984c-.13328064.17797793-.24939128.33892592-.34825314.48263784.09827177-.03008265.21466534-.0661309.34807891-.10820228-.16816909.24717118-.36062367.37069518-.56578416.44521252-.06417855.10302009-.11215025.19147537-.14584951.26548261l-.07857112.18718198c.10986485-.06668158.25299899-.15621833.42940242-.26861026-.12123859.34755609-.32655636.5235761-.55901447.65704511-.00330479.02890465-.01114673.06202021-.01838303.09504953l-.02422173.12286919c.10967947-.0665916.25234597-.15584448.4279995-.26775862-.12123859.34755609-.32655636.5235761-.55901447.65704511l.09305723-.0563838c-.00394849.07492319-.00473149.14931589-.00240859.22314671.10058311-.08637081.23689217-.20891943.40911951-.36675019-.05904422.36332878-.2306772.57232771-.4364271.74413496l.05800497-.05231136c.01408859.08897546.03277328.17702406.05594204.26408678l.02100072.08096726c.06309161-.1145195.14538337-.26927145.24687529-.46425586.06878235.36161169-.02101806.61670838-.15559818.84852499l.01666717-.02978411c.01621626.04943956.03277443.09817508.04966028.1461855.03263123-.0976764.0698924-.21378684.11199081-.34732575.10772105.28403141.09648402.51537765.03740213.72900229.06307528.15308727.13099022.29554347.2017748.4277102-.00224463-.12474941-.00798922-.28359179-.0164354-.47685262.2403731.27877374.29015202.54459415.28951052.81264328l-.11242795-.06115063c.11977461.18691564.24580943.34570939.37566276.47276501-.00225431-.12059842-.00779226-.27130546-.01569584-.45215074.19558309.22682832.26498327.44508089.28371031.66293608.02539227.01806617.05247517.03335809.07962653.04723128.09124996.04662484.19688329.09085234.31951136.13452302.02279956-.13047527.0519594-.33354732.08780803-.60593425.14971448.25145154.1822112.47392066.16553516.68715248.02109947.00768899.04609005.01508384.07162426.02250441.0924525.0268679.18692256.05272229.31107116.08554841-.06841502-.01809142.23368838.06139749.29656145.07846251.22102101.05998956.34444805.10130077.42053014.1470246.03227753.01939815.05726925.04041547.07525294.06682139l-.15513255.12020927c.00102767.00150897-.00384721-.00259067-.01424262-.00883811-.05543538-.03331556-.17091171-.07196566-.37369214-.12700435-.04751286-.01289595-.23482466-.06227366-.28987087-.07673908l-.00831653-.00235336-.11113079-.0294852c-.07363986-.01990988-.13790906-.0378487-.20143411-.0563099l-.01138066-.00233228c-.20243623.06734542-.42571481.08929276-.7051733.00508099.12502576-.04924281.23434963-.09292162.32797161-.13103643-.10925167-.03888486-.20378484-.07963737-.28832961-.12283614l-.01439545-.00721618c-.20588782.07075677-.43273101.09550583-.71819439.00948455.19068235-.07510241.34484108-.13726258.46247619-.18648053-.1772205-.14240579-.34532738-.33728572-.50218548-.57506762l.05630206.01643183c-.25784218-.0732677-.49964424-.1943883-.70136295-.50229022.1794311.0600453.32792189.10852981.44547238.14545354-.05534005-.10052465-.10798812-.20822871-.15862533-.32111149l.03530712.01009533c-.25784218-.0732677-.49964424-.1943883-.70136295-.50229022.2287762.07655827.40725439.13432279.53543456.17329355-.04815246-.12082705-.09253593-.24685259-.13454612-.37732928-.19299177-.11417578-.36404673-.2731686-.48510689-.55520986.15121277.08211016.27888686.15036157.38302227.20475422l-.01758054-.05757129c-.02665846-.10017617-.04782239-.20154474-.06336081-.30399908l.06143621.06454253c-.18666403-.19237278-.33551046-.41816733-.35625302-.78567756.10295818.11638304.19174333.21558008.26635545.29759112-.00335966-.05078982-.00207513-.09989364.00047622-.14918983-.12550385-.17107706-.17419033-.37540205-.19167335-.68516068.09333201.1055017.17501734.19688081.24505598.27413733.01590757-.10005244.03988233-.19945131.06898606-.29939748l.04264705.04734584c-.18666403-.19237278-.2884114-.47529495-.30915397-.84280518.17086004.19745719.30236986.3448585.39452945.44220395l.05745064-.14354518.00332647-.00707315-.03391287-.04641333c-.10892887-.20926289-.04557746-.55091371-.06372721-.87248517.12077329.25508544.22274576.43917968.30591741.55228273.04196721-.07050856.0914685-.14568554.14625365-.226039l.00974856.0490147c-.06623636-.26192714-.02980118-.55746045.10454514-.88435993z" fill="#5ab92d"/><path d="m7.58105595 9.02851696c-.00089473-.00023649-.0017103-.00045211-.0024791-.00065541.00082505.00021818.00165142.00043664.0024791.00065541zm-1.8675646-6.18407252c.04230963.2148427.07800442.38935632.10708434.52354089.0483739-.06821358.1003931-.13865895.15523269-.21188968l.14981729.12764984c-.13328064.17797793-.24939128.33892592-.34825314.48263784.09827177-.03008265.21466534-.0661309.34807891-.10820228-.16816909.24717118-.36062367.37069518-.56578416.44521252-.06417855.10302009-.11215025.19147537-.14584951.26548261l-.07857112.18718198c.10986485-.06668158.25299899-.15621833.42940242-.26861026-.12123859.34755609-.32655636.5235761-.55901447.65704511-.00330479.02890465-.01114673.06202021-.01838303.09504953l-.02422173.12286919c.10967947-.0665916.25234597-.15584448.4279995-.26775862-.12123859.34755609-.32655636.5235761-.55901447.65704511l.09305723-.0563838c-.00394849.07492319-.00473149.14931589-.00240859.22314671.10058311-.08637081.23689217-.20891943.40911951-.36675019-.05904422.36332878-.2306772.57232771-.4364271.74413496l.05800497-.05231136c.01408859.08897546.03277328.17702406.05594204.26408678l.02100072.08096726c.06309161-.1145195.14538337-.26927145.24687529-.46425586.06878235.36161169-.02101806.61670838-.15559818.84852499l.01666717-.02978411c.01621626.04943956.03277443.09817508.04966028.1461855.03263123-.0976764.0698924-.21378684.11199081-.34732575.10772105.28403141.09648402.51537765.03740213.72900229.06307528.15308727.13099022.29554347.2017748.4277102-.00224463-.12474941-.00798922-.28359179-.0164354-.47685262.2403731.27877374.29015202.54459415.28951052.81264328l-.11242795-.06115063c.11977461.18691564.24580943.34570939.37566276.47276501-.00225431-.12059842-.00779226-.27130546-.01569584-.45215074.19558309.22682832.26498327.44508089.28371031.66293608.02539227.01806617.05247517.03335809.07962653.04723128.09124996.04662484.19688329.09085234.31951136.13452302.02279956-.13047527.0519594-.33354732.08780803-.60593425.14971448.25145154.1822112.47392066.16553516.68715248.02109947.00768899.04609005.01508384.07162426.02250441.0924525.0268679.18692256.05272229.31107116.08554841-.06841502-.01809142.23368838.06139749.29656145.07846251.22102101.05998956.34444805.10130077.42053014.1470246.03227753.01939815.05726925.04041547.07525294.06682139l-.15513255.12020927c.00102767.00150897-.00384721-.00259067-.01424262-.00883811-.05543538-.03331556-.17091171-.07196566-.37369214-.12700435-.04751286-.01289595-.23482466-.06227366-.28987087-.07673908l-.00831653-.00235336-.11113079-.0294852c-.07363986-.01990988-.13790906-.0378487-.20143411-.0563099l-.01138066-.00233228c-.20243623.06734542-.42571481.08929276-.7051733.00508099.12502576-.04924281.23434963-.09292162.32797161-.13103643-.10925167-.03888486-.20378484-.07963737-.28832961-.12283614l-.01439545-.00721618c-.20588782.07075677-.43273101.09550583-.71819439.00948455.19068235-.07510241.34484108-.13726258.46247619-.18648053-.1772205-.14240579-.34532738-.33728572-.50218548-.57506762l.05630206.01643183c-.25784218-.0732677-.49964424-.1943883-.70136295-.50229022.1794311.0600453.32792189.10852981.44547238.14545354-.05534005-.10052465-.10798812-.20822871-.15862533-.32111149l.03530712.01009533c-.25784218-.0732677-.49964424-.1943883-.70136295-.50229022.2287762.07655827.40725439.13432279.53543456.17329355-.04815246-.12082705-.09253593-.24685259-.13454612-.37732928-.19299177-.11417578-.36404673-.2731686-.48510689-.55520986.15121277.08211016.27888686.15036157.38302227.20475422l-.01758054-.05757129c-.02665846-.10017617-.04782239-.20154474-.06336081-.30399908l.06143621.06454253c-.18666403-.19237278-.33551046-.41816733-.35625302-.78567756.10295818.11638304.19174333.21558008.26635544.29759112-.00335965-.05078982-.00207512-.09989364.00047623-.14918983-.12550385-.17107706-.17419033-.37540205-.19167335-.68516068.09333201.1055017.17501734.19688081.24505597.27413733.01590758-.10005244.03988234-.19945131.06898607-.29939748l.04264705.04734584c-.18666403-.19237278-.2884114-.47529495-.30915397-.84280518.17086004.19745719.30236986.3448585.39452945.44220395l.05745064-.14354518.00332647-.00707315-.03391287-.04641333c-.10892887-.20926289-.04557746-.55091371-.06372721-.87248517.12077329.25508544.22274576.43917968.30591741.55228273.04196721-.07050856.0914685-.14568554.14625365-.226039l.00974856.0490147c-.06623636-.26192714-.02980118-.55746045.10454514-.88435993z" fill="#5ab92d" transform="matrix(-1 0 0 1 13.0376 0)"/><g fill="none"><path d="m1.00202961 1.75436833c.53289832-.37468781 1.50984092-.69816265 2.01244481-.69816265.00250474 0 .00790766-.00120451.02205297-.00705583.04173948-.01726588.31701431-.1877832.33425717-.19765229.35526799-.20334037.72691354-.31034343 1.23322218-.31034343v.88888889c-.36350803 0-.60103414.0683878-.83920742.20470811.0414531-.023726-.31382613.19634957-.42696536.24315053-.10538518.04359343-.21124255.0671929-.32335954.0671929-.33669729 0-1.15480045.27088162-1.55381267.55143235-.14340468.10082972-.13017371.07004959-.12575669.13016221.01606029.21856958-.00043052.35219542-.13488634.52283708-.01750507.02221618-.04528632.14448155-.04765676.35885979l-.83327538-.01048322c.00387014-.35000813.05697904-.62616329.1830376-.8337385-.01832244-.35889767.10782004-.63411556.49990543-.90979594z" fill="#003994"/><path d="m1.44759277 2.08712369-.09196866-.14826108c.42774605-.30189517.82660908-.45420885 1.19677103-.45420885.12262407 0 .26246025-.03261797.42504535-.09541681.10896278-.04208711.22052006-.09408725.37036384-.17026214.54282973-.27595403.55832035-.28297305.70173644-.28297305h.49139219v.17777778h-.49139219c-.10376266 0-.13736345.01522499-.63003192.26567895-.15431417.07844747-.27023827.13248311-.3853223.17693456-.17925798.06923878-.33702165.10603849-.48179141.10603849-.33402832 0-.70235642.14065332-1.10480237.42469215z" fill="#ebca5e"/></g><g fill="none" transform="matrix(-1 0 0 1 8.9333 0)"><path d="m.93536287 1.75436833c.53289832-.37468781 1.50984092-.69816265 2.01244481-.69816265.00250474 0 .00790766-.00120451.02205297-.00705583.04173948-.01726588.31701431-.1877832.33425717-.19765229.35526798-.20334037.72691354-.31034343 1.23322218-.31034343v.88888889c-.36350803 0-.60103414.0683878-.83920742.20470811.0414531-.023726-.31382614.19634957-.42696536.24315053-.10538518.04359343-.21124256.0671929-.32335954.0671929-.33669729 0-1.15480046.27088162-1.55381267.55143235-.14340468.10082972-.13017371.07004959-.12575669.13016221.01606028.21856958-.00043053.35219542-.13488635.52283708-.01750507.02221618-.04528631.14448155-.04765676.35885979l-.83327537-.01048322c.00387014-.35000813.05697904-.62616329.1830376-.8337385-.01832245-.35889767.10782004-.63411556.49990543-.90979594z" fill="#003994"/><path d="m1.44759277 2.08712369-.09196866-.14826108c.42774605-.30189517.82660908-.45420885 1.19677103-.45420885.12262407 0 .26246025-.03261797.42504535-.09541681.10896278-.04208711.22052006-.09408725.37036384-.17026214.54282973-.27595403.55832035-.28297305.70173644-.28297305h.49139219v.17777778h-.49139219c-.10376266 0-.13736345.01522499-.63003192.26567895-.15431417.07844747-.27023827.13248311-.3853223.17693456-.17925798.06923878-.33702165.10603849-.48179141.10603849-.33402832 0-.70235642.14065332-1.10480237.42469215z" fill="#ebca5e"/><path d="m7.17056366 2.6923914-.43488099.47281763v1.96368262h-.43896438v.12499061l-.64255052.30893759c-.06470228-.86604156.00367019-1.41316392.20511741-1.64136706.20144722-.22820315.13307475-.37035696-.20511741-.42646144l-.77132313.7722662v-1.57486615z" fill="#003994"/><path d="m4.23723 2.6923914-.43488099.47281763v1.96368262h-.43896439v.12499061l-.64255052.30893759c-.06470228-.86604156.00367019-1.41316392.20511741-1.64136706.20144722-.22820315.13307475-.37035696-.20511741-.42646144l-.77132313.7722662v-1.57486615z" fill="#d62818" transform="matrix(-1 0 0 1 6.1868 0)"/><g fill="#ffc300"><path d="m5.76412259 3.46215334.06549011.08060956-1.28233017 1.18534967-.06891671-.00348374-1.06051461-1.18534967.07234331-.07364207 1.02761273 1.14857484z"/><path d="m5.94601958 3.95993102.08359309.08060956-1.6367959 1.18534967-.08796688-.00348374-1.35366539-1.18534967.09234068-.07364208 1.31166866 1.14857485z"/></g></g><path d="m2.23556785 5.89594666h.56292443l.38405737.11729051c.08234836.58759328.32922329.88138992.74062479.88138992l.10113681 1.12833777-.478267-.25830356c-.20725633.09151978-.3284212.13727967-.3634946.13727967-.0526101 0-.49584016.24858121-.49584016 0 0-.1657208-.15038055-.38267194-.45114164-.65085341z" fill="#d62818"/><path d="m4.90223452 5.89594666h.56292442l.38405738.11729051c.08234836.58759328.32922329.88138992.74062479.88138992l.10113681 1.12833777-.47826701-.25830356c-.20725633.09151978-.32842119.13727967-.36349459.13727967-.0526101 0-.49584017.24858121-.49584017 0 0-.1657208-.15038054-.38267194-.45114163-.65085341z" fill="#003994" transform="matrix(-1 0 0 1 11.5932 0)"/><path d="m5.48504434 6.0025174.66666661.00028369c-.0001865.49866184-.17613962.90279694-.52286509 1.17624507l-.39634295-.57179373c.16992053-.13400934.25243626-.32353427.25254143-.60473503z" fill="#d62818"/><path d="m3.73861982 4.63110701v.93505733h.77511484c-.04855992.46744916-.07283989.8486085-.07283989 1.14347803 0 .29486952.02427997.63363948.07283989 1.01630988.12645256-.06314002.18967884-.29410347.18967884-.69289034s0-.90935781 0-1.53171282l.61241941.06481525-.06471816-.84326726h-.25825114c.26472848.35034907.26472848.52552361 0 .52552361-.39709273 0-.85347591.10262096-.94007063.10262096-.05772981 0-.1624542-.23997822-.31417316-.71993464z" fill="#d62818"/><path d="m4.41272042 5.76117192c-.29030639.170976-.43545958.3955459-.43545958.67370968 0 .27816379.0725766.57583233.21772979.89300564-.06886145-.62645042-.04978851-1.02298335.05721881-1.18959877s.16051098-.29232094.16051098-.37711655z" fill="#003994"/><path d="m3.704011 6.07005128c-.0163798.20129382.03506602.30194073.15433748.30194073.11927145 0 .06782562-.10064691-.15433748-.30194073z" fill="#003994"/><path d="m5.23684906 5.25863734.06847267.23793109-1.1394024.37307888-.25541999-1.06099704.22600119-.0619026.19462396.80845453z" fill="#373737"/><g fill="none" transform="translate(0 8.5333)"><path d="m1.03751511 1.35486284c.2513871.03836132.49548201.07333436.73228473.1049191-.07350193.07875562-.22884761.15313593-.46603704.22314092-.23718943.070005-.52006551-.03934834-.84862826-.32806002.13686662-.03836132.33099347-.03836132.58238057 0zm3.36451562-1.32926015v.56888889c-.36662755 0-1.78985084.19508504-2.02731439.33029895-.07496063.04268327-.08897855.04276659-.0501694.09645939l.02536282-.00659805.23648255.25058067c-.09780962.10502448-.31452332.12283543-.53716825.07988096l-.10129618.08462792c-.03362156-.04503638-.06238279-.09032472-.08631033-.13554931-.09924433-.03370399-.1944624-.07997608-.27284361-.13509694-.10826825-.07613866-.21993571-.07613866-.36125748.00717247l-.16123709-.31119204c.24571657-.1448533.48979183-.1448533.70597065.00717246.03840506-.17070985.15344875-.32665419.3513073-.43931665.33986955-.19352482 1.8267004-.39732872 2.27847341-.39732872z" fill="#d62818"/><path d="m2.14683604.95385804-.05998879.0853423c-.26556775-.21239217-.16023641-.39365707.24633979-.48488379.66678573-.149612 1.50304554-.25605938 2.17433181-.25605938v.10666666c-.66379852 0-1.49331896.10558953-2.15374688.25377498-.33717163.07565387-.3829322.15440332-.20693593.29515923zm.29613778-.31465849-.01958614-.1046007c.65901167-.14039924 1.44484826-.23634168 2.08413117-.23634168v.10666666c-.63212121 0-1.41157003.09516256-2.06454503.23427572z" fill="#ebca5e"/></g><g fill="none" transform="matrix(-1 0 0 1 8.6666 8.5333)"><path d="m1.03751511 1.35486284c.2513871.03836132.49548201.07333436.73228473.1049191-.07350193.07875562-.22884761.15313593-.46603704.22314092-.23718943.070005-.52006551-.03934834-.84862826-.32806002.13686662-.03836132.33099347-.03836132.58238057 0zm3.36451562-1.32926015v.56888889c-.36662755 0-1.78985084.19508504-2.02731439.33029895-.07496063.04268327-.08897855.04276659-.0501694.09645939l.02536282-.00659805.23648255.25058067c-.09780962.10502448-.31452332.12283543-.53716825.07988096l-.10129618.08462792c-.03362156-.04503638-.06238279-.09032472-.08631033-.13554931-.09924433-.03370399-.1944624-.07997608-.27284361-.13509694-.10826825-.07613866-.21993571-.07613866-.36125748.00717247l-.16123709-.31119204c.24571657-.1448533.48979183-.1448533.70597065.00717246.03840506-.17070985.15344875-.32665419.3513073-.43931665.33986955-.19352482 1.8267004-.39732872 2.27847341-.39732872z" fill="#d62818"/><path d="m2.14683604.95385804-.05998879.0853423c-.26556775-.21239217-.16023641-.39365707.24633979-.48488379.66678573-.149612 1.50304554-.25605938 2.17433181-.25605938v.10666666c-.66379852 0-1.49331896.10558953-2.15374688.25377498-.33717163.07565387-.3829322.15440332-.20693593.29515923zm.29613778-.31465849-.01958614-.1046007c.65901167-.14039924 1.44484826-.23634168 2.08413117-.23634168v.10666666c-.63212121 0-1.41157003.09516256-2.06454503.23427572z" fill="#ebca5e"/></g><path d="m3.8208285 10.0140677-.25915766-.45610109c.23597581-.15255549.53895869-.22534029.90685967-.22534029.36957134 0 .66913856.07340418.89677614.22877093l-.26948522.44923985c-.1371375-.09359884-.34559263-.14467745-.62729092-.14467745-.28336866 0-.49857301.05169799-.64770201.14810805z" fill="#d62818"/></g></g></g></g><rect height="32" mask="url(#b)" rx="2" width="43.335938"/></g></svg>