<svg xmlns="http://www.w3.org/2000/svg" width="650" height="650" viewBox="0 0 650 650"><g fill="none"><path fill="#fff" d="M0 0h650v650H0z"/><path fill="#002d62" d="M0 0h260v260H0zm390 390h260v260H390z"/><path fill="#ce1126" d="M0 390h260v260H0zM390 0h260v260H390z"/><path fill="#5ab92d" d="M280.68 280.535a479 479 0 0 0 1.74 8.531c.788-1.111 1.634-2.26 2.526-3.453l2.436 2.08a244 244 0 0 0-5.664 7.866 703 703 0 0 0 5.662-1.764c-2.736 4.028-5.866 6.041-9.203 7.256-1.043 1.678-1.824 3.12-2.372 4.326l-1.278 3.05a396 396 0 0 0 6.984-4.377c-1.972 5.664-5.311 8.532-9.092 10.707-.054.471-.181 1.011-.299 1.55l-.394 2.002a397 397 0 0 0 6.961-4.364c-1.971 5.664-5.31 8.532-9.092 10.707l1.514-.918a43 43 0 0 0-.04 3.636c1.637-1.408 3.854-3.405 6.655-5.977-.96 5.921-3.752 9.327-7.098 12.127l.943-.853q.345 2.175.91 4.304l.341 1.32a382 382 0 0 0 4.016-7.566c1.118 5.893-.342 10.05-2.531 13.828l.271-.486q.396 1.209.808 2.382a361 361 0 0 0 1.821-5.66c1.752 4.629 1.57 8.4.609 11.88a77 77 0 0 0 3.281 6.97c-.036-2.033-.13-4.621-.267-7.77 3.91 4.542 4.72 8.874 4.709 13.242l-1.829-.996c1.948 3.046 3.998 5.634 6.11 7.704a310 310 0 0 0-.255-7.368c3.18 3.696 4.31 7.253 4.614 10.803.413.295.854.544 1.295.77 1.484.76 3.203 1.48 5.197 2.192.37-2.126.845-5.436 1.428-9.874 2.435 4.097 2.964 7.723 2.692 11.198.344.125.75.245 1.165.366 1.504.438 3.04.86 5.06 1.394-1.113-.294 3.8 1 4.823 1.279 3.595.978 5.602 1.65 6.84 2.396.525.316.931.659 1.224 1.089l-2.523 1.959c.016.024-.063-.042-.232-.144-.902-.543-2.78-1.173-6.078-2.07-.773-.21-3.82-1.015-4.714-1.25l-.136-.039-1.807-.48a178 178 0 0 1-3.276-.918l-.185-.038c-3.293 1.098-6.924 1.455-11.47.083a510 510 0 0 0 5.335-2.136 39 39 0 0 1-4.69-2.001l-.234-.118c-3.349 1.153-7.038 1.557-11.681.155a401 401 0 0 0 7.522-3.04c-2.883-2.32-5.617-5.496-8.168-9.37l.916.267c-4.194-1.194-8.127-3.168-11.408-8.185q4.378 1.467 7.246 2.37a72 72 0 0 1-2.58-5.233l.574.165c-4.194-1.194-8.126-3.168-11.407-8.186q5.581 1.873 8.708 2.824a97 97 0 0 1-2.188-6.149c-3.139-1.86-5.921-4.451-7.89-9.047q3.69 2.007 6.23 3.336l-.286-.938a46 46 0 0 1-1.03-4.954l.998 1.052c-3.036-3.135-5.456-6.815-5.794-12.804a477 477 0 0 0 4.332 4.85 21 21 0 0 1 .008-2.431c-2.041-2.788-2.833-6.118-3.117-11.166a501 501 0 0 0 3.985 4.468c.259-1.63.649-3.25 1.122-4.88l.694.772c-3.036-3.135-4.69-7.745-5.028-13.734q4.168 4.827 6.417 7.206l.934-2.34.054-.114-.552-.757c-1.771-3.41-.74-8.978-1.036-14.218q2.946 6.236 4.976 9c.682-1.149 1.487-2.374 2.378-3.683l.159.798c-1.077-4.268-.485-9.084 1.7-14.411m91.254 0a479 479 0 0 1-1.742 8.531 166 166 0 0 0-2.525-3.453l-2.436 2.08a244 244 0 0 1 5.664 7.866 703 703 0 0 1-5.661-1.764c2.735 4.028 5.865 6.041 9.202 7.256 1.044 1.678 1.824 3.12 2.372 4.326l1.278 3.05a396 396 0 0 1-6.984-4.377c1.972 5.664 5.311 8.532 9.092 10.707.054.471.181 1.011.299 1.55l.394 2.002a397 397 0 0 1-6.961-4.364c1.971 5.664 5.31 8.532 9.092 10.707l-1.514-.918q.096 1.83.04 3.636c-1.637-1.408-3.854-3.405-6.655-5.977.96 5.921 3.752 9.327 7.098 12.127l-.943-.853a43 43 0 0 1-.91 4.304l-.341 1.32a382 382 0 0 1-4.016-7.566c-1.118 5.893.342 10.05 2.531 13.828l-.271-.486q-.396 1.209-.808 2.382a361 361 0 0 1-1.821-5.66c-1.752 4.629-1.57 8.4-.609 11.88a77 77 0 0 1-3.281 6.97c.036-2.033.13-4.621.267-7.77-3.91 4.542-4.72 8.874-4.709 13.242l1.829-.996c-1.948 3.046-3.998 5.634-6.11 7.704.037-1.965.127-4.421.255-7.368-3.18 3.696-4.31 7.253-4.614 10.803-.413.295-.854.544-1.295.77-1.484.76-3.202 1.48-5.197 2.192-.37-2.126-.845-5.436-1.428-9.874-2.435 4.097-2.964 7.723-2.692 11.198-.344.125-.75.245-1.165.366-1.504.438-3.04.86-5.06 1.394 1.113-.294-3.8 1-4.823 1.279-3.595.978-5.602 1.65-6.84 2.396-.525.316-.931.659-1.224 1.089l2.523 1.959c-.016.024.063-.042.232-.144.902-.543 2.78-1.173 6.078-2.07.773-.21 3.82-1.015 4.714-1.25l.136-.039 1.807-.48c1.198-.325 2.243-.617 3.276-.918l.186-.038c3.292 1.098 6.924 1.455 11.469.083a510 510 0 0 1-5.335-2.136 39 39 0 0 0 4.69-2.001l.234-.118c3.349 1.153 7.038 1.557 11.681.155a401 401 0 0 1-7.522-3.04c2.883-2.32 5.617-5.496 8.168-9.37l-.916.267c4.194-1.194 8.127-3.168 11.408-8.185a424 424 0 0 1-7.246 2.37 72 72 0 0 0 2.58-5.233l-.574.165c4.194-1.194 8.126-3.168 11.407-8.186q-5.581 1.873-8.708 2.824a97 97 0 0 0 2.188-6.149c3.139-1.86 5.921-4.451 7.89-9.047a450 450 0 0 1-6.23 3.336l.286-.938a46 46 0 0 0 1.03-4.954l-.998 1.052c3.036-3.135 5.456-6.815 5.794-12.804a477 477 0 0 1-4.332 4.85c.054-.828.033-1.628-.008-2.431 2.041-2.788 2.833-6.118 3.117-11.166a501 501 0 0 1-3.985 4.468c-.259-1.63-.649-3.25-1.122-4.88l-.694.772c3.036-3.135 4.69-7.745 5.028-13.734q-4.168 4.827-6.417 7.206l-.934-2.34-.054-.114.552-.757c1.771-3.41.74-8.978 1.036-14.218q-2.946 6.236-4.976 9c-.682-1.149-1.487-2.374-2.378-3.683l-.159.798c1.077-4.268.485-9.084-1.7-14.411"/><path fill="#003994" d="M269.108 262.77c8.667-6.105 24.556-11.377 32.731-11.377.04 0 .129-.02.359-.115.679-.281 5.156-3.06 5.436-3.22 5.778-3.314 11.823-5.058 20.058-5.058v14.485c-5.912 0-9.776 1.115-13.65 3.336.675-.386-5.104 3.2-6.944 3.963-1.714.71-3.435 1.095-5.259 1.095-5.476 0-18.782 4.414-25.272 8.986-2.332 1.643-2.117 1.142-2.045 2.121.26 3.562-.007 5.74-2.194 8.52-.285.362-.737 2.355-.775 5.848l-13.553-.17c.063-5.704.927-10.205 2.977-13.587-.298-5.849 1.754-10.334 8.13-14.826"/><path fill="#ebca5e" d="m276.355 268.193-1.496-2.416c6.957-4.92 13.444-7.402 19.465-7.402 1.994 0 4.268-.531 6.913-1.555 1.772-.685 3.586-1.533 6.023-2.774 8.83-4.497 9.081-4.612 11.414-4.612h7.992v2.898h-7.992c-1.688 0-2.234.248-10.247 4.33-2.51 1.277-4.396 2.158-6.267 2.882-2.916 1.129-5.482 1.728-7.836 1.728-5.433 0-11.424 2.293-17.97 6.921"/><path fill="#003994" d="M382.892 262.77c-8.667-6.105-24.556-11.377-32.731-11.377-.04 0-.129-.02-.359-.115-.679-.281-5.156-3.06-5.436-3.22-5.778-3.314-11.823-5.058-20.058-5.058v14.485c5.912 0 9.776 1.115 13.65 3.336-.675-.386 5.104 3.2 6.944 3.963 1.714.71 3.435 1.095 5.259 1.095 5.476 0 18.782 4.414 25.272 8.986 2.332 1.643 2.117 1.142 2.045 2.121-.26 3.562.007 5.74 2.194 8.52.285.362.737 2.355.775 5.848l13.553-.17c-.063-5.704-.927-10.205-2.977-13.587.298-5.849-1.754-10.334-8.13-14.826"/><path fill="#ebca5e" d="m374.561 268.193 1.496-2.416c-6.957-4.92-13.444-7.402-19.465-7.402-1.994 0-4.269-.531-6.913-1.555-1.772-.685-3.587-1.533-6.024-2.774-8.829-4.497-9.08-4.612-11.413-4.612h-7.992v2.898h7.992c1.688 0 2.234.248 10.247 4.33 2.51 1.277 4.395 2.158 6.267 2.882 2.916 1.129 5.482 1.728 7.836 1.728 5.433 0 11.424 2.293 17.97 6.921"/><path fill="#003994" d="m281.48 278.057 7.073 7.705v32h7.14v2.037l10.45 5.035q1.579-21.17-3.336-26.748-4.914-5.58 3.337-6.95l12.545 12.585v-25.664z"/><path fill="#d62818" d="m366.397 278.057-7.073 7.705v32h-7.14v2.037l-10.45 5.035q-1.578-21.17 3.335-26.748 4.916-5.58-3.336-6.95l-12.545 12.585v-25.664z"/><g fill="#ffc300"><path d="m304.355 290.6-1.065 1.315 20.856 19.316 1.121-.057 17.249-19.316-1.177-1.2-16.713 18.717z"/><path d="m301.397 298.713-1.36 1.313 26.622 19.317 1.43-.057 22.017-19.316-1.502-1.2-21.333 18.717z"/></g><path fill="#d62818" d="M289.17 330.262h9.156l6.247 1.912q2.008 14.363 12.046 14.363l1.644 18.387-7.778-4.209q-5.057 2.238-5.912 2.237c-.856 0-8.065 4.051-8.065 0q0-4.05-7.337-10.606z"/><path fill="#003994" d="M361.635 330.262h-9.155l-6.247 1.912q-2.01 14.363-12.046 14.363l-1.645 18.387 7.779-4.209q5.056 2.238 5.912 2.237c.856 0 8.065 4.051 8.065 0q0-4.05 7.337-10.606z"/><path fill="#d62818" d="m342.021 331.999 10.843.005c-.003 8.126-2.864 14.712-8.504 19.168l-6.446-9.318c2.764-2.184 4.106-5.273 4.107-9.855m-28.404-22.349v15.238h12.607q-1.185 11.427-1.185 18.634 0 7.209 1.185 16.562 3.084-1.543 3.085-11.291v-24.961l9.96 1.056-1.052-13.742h-4.2q6.458 8.565 0 8.564c-6.46 0-13.882 1.672-15.29 1.672q-1.41 0-5.11-11.732"/><path fill="#003994" d="M324.58 328.066q-7.082 4.18-7.082 10.979 0 6.8 3.541 14.552-1.68-15.312.931-19.385t2.61-6.146"/><path fill="#003994" d="M313.054 333.1q-.4 4.92 2.51 4.92t-2.51-4.92"/><path fill="#373737" d="m337.985 319.877 1.113 3.877-18.531 6.08-4.155-17.29 3.676-1.01 3.166 13.176z"/><path fill="#d62818" d="M269.685 395.32q6.133.937 11.91 1.71-1.793 1.924-7.58 3.636-5.786 1.71-13.802-5.346 3.339-.938 9.472 0m54.722-21.662v9.27c-5.963 0-29.111 3.18-32.973 5.383-1.22.696-1.448.697-.816 1.572l.412-.107 3.846 4.083c-1.59 1.712-5.115 2.002-8.736 1.302l-1.648 1.38a17 17 0 0 1-1.404-2.21c-1.614-.549-3.162-1.303-4.437-2.201-1.761-1.241-3.577-1.241-5.876.117l-2.622-5.072c3.996-2.36 7.966-2.36 11.482.117.625-2.782 2.496-5.323 5.714-7.159 5.527-3.154 29.71-6.475 37.058-6.475"/><path fill="#ebca5e" d="m287.727 388.785-.975 1.39c-4.32-3.46-2.607-6.414 4.006-7.9 10.845-2.439 24.446-4.174 35.365-4.174v1.739c-10.797 0-24.289 1.72-35.03 4.135-5.484 1.233-6.228 2.516-3.366 4.81m4.817-5.128-.319-1.704c10.719-2.288 23.5-3.852 33.898-3.852v1.739c-10.282 0-22.959 1.55-33.58 3.817"/><path fill="#d62818" d="M376.893 395.32a638 638 0 0 1-11.91 1.71q1.793 1.924 7.58 3.636 5.786 1.71 13.802-5.346-3.339-.938-9.472 0m-54.722-21.662v9.27c5.963 0 29.111 3.18 32.973 5.383 1.22.696 1.447.697.816 1.572l-.412-.107-3.847 4.083c1.591 1.712 5.116 2.002 8.737 1.302l1.648 1.38a17 17 0 0 0 1.404-2.21c1.614-.549 3.162-1.303 4.437-2.201 1.761-1.241 3.577-1.241 5.876.117l2.622-5.072c-3.996-2.36-7.966-2.36-11.482.117-.625-2.782-2.496-5.323-5.714-7.159-5.528-3.154-29.71-6.475-37.058-6.475"/><path fill="#ebca5e" d="m358.85 388.785.976 1.39c4.32-3.46 2.606-6.414-4.006-7.9-10.845-2.439-24.447-4.174-35.365-4.174v1.739c10.797 0 24.288 1.72 35.03 4.135 5.484 1.233 6.228 2.516 3.366 4.81m-4.816-5.128.319-1.704c-10.719-2.288-23.5-3.852-33.898-3.852v1.739c10.281 0 22.959 1.55 33.58 3.817"/><path fill="#d62818" d="m314.954 397.372-4.215-7.433c3.838-2.486 8.766-3.672 14.75-3.672 6.01 0 10.883 1.196 14.585 3.728l-4.383 7.32c-2.23-1.524-5.62-2.357-10.203-2.357-4.608 0-8.109.843-10.534 2.414"/></g></svg>