<svg height="32" viewBox="0 0 44 32" width="44" xmlns="http://www.w3.org/2000/svg" xmlns:xlink="http://www.w3.org/1999/xlink"><mask id="a" fill="#fff"><path d="m0 0h43.335938v32h-43.335938z" fill="#fff" fill-rule="evenodd"/></mask><mask id="b" fill="#fff"><path d="m0 0h43.335938v32h-43.335938z" fill="#fff" fill-rule="evenodd"/></mask><g fill="none" fill-rule="evenodd"><g fill-rule="evenodd" mask="url(#a)"><g mask="url(#b)"><path d="m21.6679688 0h21.6679687v32h-21.6679687z" fill="#f7fcff"/><path d="m0 0h21.6679688v32h-21.6679688z" fill="#36a400"/><path d="m24.0935624 9.05961333c2.061301 0 3.9447892.74928 5.3848965 1.98629337-1.8239012-2.2673867-4.6446645-3.72197337-7.8104902-3.72197337-5.4994658 0-9.957664 4.38933337-9.957664 9.80379997 0 5.4145334 4.4581982 9.8038667 9.957664 9.8038667 3.1658257 0 5.9867244-1.4546667 7.8104902-3.7221333-1.4401073 1.2370666-3.3235955 1.9864-5.3848965 1.9864-4.5257615 0-8.1946903-3.6122667-8.1946903-8.0681334 0-4.4558933 3.6689288-8.06811997 8.1946903-8.06811997zm3.8187087 3.66506667-2.3054719 2.57252-3.3112719-.8982667 1.8358186 2.8270667-1.8358186 3.0096 3.4735108-1.2312 1.8989266 2.9182667v-3.3870667l3.1029886-1.3096-3.1029886-1.0942667z" fill="#f00"/></g></g><rect height="32" mask="url(#a)" rx="2" width="43.335938"/></g></svg>