<svg height="32" viewBox="0 0 43 32" width="43" xmlns="http://www.w3.org/2000/svg" xmlns:xlink="http://www.w3.org/1999/xlink"><defs><path id="a" d="m0 0h42.666667v32h-42.666667z"/><mask id="b" fill="#fff"><path d="m0 0h43.335938v32h-43.335938z" fill="#fff" fill-rule="evenodd"/></mask><mask id="c" fill="#fff"><path d="m0 0h42.666667v32h-42.666667z" fill="#fff" fill-rule="evenodd"/></mask><mask id="d" fill="#fff"><use fill="#fff" fill-rule="evenodd" xlink:href="#a"/></mask><mask id="e" fill="#fff"><path d="m4.55254524 12.8823676c2.08640906 0 3.77777778-2.6862915 3.77777778-6.00000001 0-3.3137085-1.69136872-6-3.77777778-6-2.08640905 0-3.77777777 2.6862915-3.77777777 6 0 3.31370851 1.69136872 6.00000001 3.77777777 6.00000001z" fill="#fff" fill-rule="evenodd"/></mask></defs><g fill="none" fill-rule="evenodd"><g fill-rule="evenodd" mask="url(#b)"><g mask="url(#c)" transform="translate(.3346)"><use fill="#2e42a5" xlink:href="#a"/><path d="m0 0h42.666667v16h-42.666667z" fill="#feca00" mask="url(#d)"/><path d="m0 24h42.666667v8h-42.666667z" fill="#e31d1c" mask="url(#d)"/><g mask="url(#d)"><g transform="translate(10.6667 5.3333)"><path d="m2.28943195 2.28565117c3.69443819-1.66899729 5.70955539-2.40869338 6.04535161-2.21908827.50369434.28440766.62519955 1.09503723 1.06006925 1.09503723s1.31021699-.2561527 1.67575229-.2561527c.2436902 0 .4859642.08538423.7268221.2561527h1.5608746v-.86798343l7.0775512 1.99203447c-2.7519656.35952997-4.2316669.53929496-4.4391037.53929496-.2074369 0-.2074369.14827659 0 .44482978-.392442-.29655319-.8874696-.44482978-1.4850826-.44482978-.5976131 0-1.5023596.30869871-2.7142395.92609613l.6607164 1.42153225-.6607164.41800842-.7268221-.41800842c.0313818-.77933772-.0572689-1.16900659-.265952-1.16900659-.3130246 0-.5412504.75099818-.5412504 1.16900659 0 .27867228-.28951666.41800842-.86854989.41800842l.38796699-.78254279c.2570586-.86491869.12773625-1.29737803-.38796699-1.29737803s-1.94895493-.22857199-4.29975506-.68571598l-.90168763.44482978.32237117-.98412474z" fill="#7b2900"/><g fill="none" transform="translate(1.5111 6)"><path d="m3.15721561 3.44864206c-.57662702 2.87093524-.57662702 4.95434857 0 6.25024.86494053 1.94383714 2.64044171 2.51823264 4.46295325 2.32551134 1.21500768-.1284808 1.42267114-.2818742.62299035-.4601803-1.58514644-.8155494-2.58738034-1.74108326-3.00670169-2.77660155-.62898203-1.55327744-.59775781-3.45251068-.39833317-4.45757564zm5.39234066 10.29501764c-1.08301079 2.4079624-1.44401438 3.6119436-1.08301079 3.6119436.5415054 0 .95912646.3636909 1.30239992 0 .22884898-.2424606.32282434-1.7809498.28192608-4.6154674z" fill="#e31d1c"/><path d="m8.721193 13.4118508c-.63669863 2.7383656-1.17732602 4.1075484-1.62188215 4.1075484-.6668342 0 0-.5632487 0-.9188426 0-.2370626-.22312775-.1185313-.66938326.3555939l.66938326-2.3898003.94349222-1.1544994zm-6.72405331-11.19193082 1.13773062.8129066c-.16707653 1.50081553-.16707653 5.38198489.79527873 7.06363372.64157018 1.1210993 2.36921001 1.9171371 5.18291952 2.3881135-.55512871.4103612-1.34165546.711469-2.35958024.9033233-1.52688717.2877814-4.43754614-1.421167-5.16218715-4.32380621-.48309401-1.93509282-.3478145-4.21648312.40583852-6.84417091z" fill="#2e42a5"/><path d="m.84561604 1.09325403c-.47944994 3.9797955-.59931242 6.80250502-.35958746 8.46812855.35958746 2.49843532 1.32500159 4.49300012 2.85188876 4.20521862 1.01792478-.1918542 1.80445153-.492962 2.35958023-.9033232-2.23943451-.8279199-3.47748482-1.9285517-3.71415092-3.30189542-.35499914-2.06001566-.51423044-6.20922996 0-7.65522195zm5.5076698 12.53198677c-.62015807.6191968-.71430336.9287952-.28243589.9287952.64780122 0-.00713737.38309.64780122.38309.43662572 0 .83178672-.437295 1.18548301-1.3118852z" fill="#feca00"/></g><g fill="none" transform="matrix(-1 0 0 1 19.6445 6)"><path d="m3.15721561 3.44864206c-.57662702 2.87093524-.57662702 4.95434857 0 6.25024.86494053 1.94383714 2.64044171 2.51823264 4.46295325 2.32551134 1.21500768-.1284808 1.42267114-.2818742.62299035-.4601803-1.58514644-.8155494-2.58738034-1.74108326-3.00670169-2.77660155-.62898203-1.55327744-.59775781-3.45251068-.39833317-4.45757564zm5.39234066 10.29501764c-1.08301079 2.4079624-1.44401438 3.6119436-1.08301079 3.6119436.5415054 0 .95912646.3636909 1.30239992 0 .22884898-.2424606.32282434-1.7809498.28192608-4.6154674z" fill="#e31d1c"/><path d="m8.721193 13.4118508c-.63669863 2.7383656-1.17732602 4.1075484-1.62188215 4.1075484-.6668342 0 0-.5632487 0-.9188426 0-.2370626-.22312775-.1185313-.66938326.3555939l.66938326-2.3898003.94349222-1.1544994zm-6.72405331-11.19193082 1.13773062.8129066c-.16707653 1.50081553-.16707653 5.38198489.79527873 7.06363372.64157018 1.1210993 2.36921001 1.9171371 5.18291952 2.3881135-.55512871.4103612-1.34165546.711469-2.35958024.9033233-1.52688717.2877814-4.43754614-1.421167-5.16218715-4.32380621-.48309401-1.93509282-.3478145-4.21648312.40583852-6.84417091z" fill="#2e42a5"/><path d="m.84561604 1.09325403c-.47944994 3.9797955-.59931242 6.80250502-.35958746 8.46812855.35958746 2.49843532 1.32500159 4.49300012 2.85188876 4.20521862 1.01792478-.1918542 1.80445153-.492962 2.35958023-.9033232-2.23943451-.8279199-3.47748482-1.9285517-3.71415092-3.30189542-.35499914-2.06001566-.51423044-6.20922996 0-7.65522195zm5.5076698 12.53198677c-.62015807.6191968-.71430336.9287952-.28243589.9287952.64780122 0-.00713737.38309.64780122.38309.43662572 0 .83178672-.437295 1.18548301-1.3118852z" fill="#feca00"/></g><g fill="#6fae21" fill-rule="nonzero" transform="translate(1.5111 3)"><path d="m1.42599655 5.59469849.12208531-.73650064 2.13455804.13818809-1.61909698-1.67723065.54552725-.51890307 2.18977121 2.26839494-1.87211584-3.51999831.64718462-.3849159 1.70445983 2.5071666-.81301076-2.60599225.6990684-.27803345 2.62084939 5.22670401-1.0053936-.06508768.0985024.31573567.8559365.22697136-.19499921.72459122-.39690654-.10524895.3707538 1.18839945-.64403463-.9473395 1.12137495 2.10733138-2.75517291-2.85409738z"/><path d="m10.4926632 5.59469849.1220853-.73650064 2.1345581.13818809-1.619097-1.67723065.5455272-.51890307 2.1897713 2.26839494-1.8721159-3.51999831.6471846-.3849159 1.7044599 2.5071666-.8130108-2.60599225.6990684-.27803345 2.6208494 5.22670401-1.0053936-.06508768.0985024.31573567.8559365.22697136-.1949992.72459122-.3969066-.10524895.3707538 1.18839945-.6440346-.9473395 1.121375 2.10733138-2.755173-2.85409738z" transform="matrix(-1 0 0 1 27.5498 0)"/></g><g fill="none"><g transform="translate(1.5111 4.5)"><path d="m2.57787266 18.5816531-.54974767-.5144955 16.25382861-17.11304194.5497477.5144955z" fill="#171401" fill-rule="nonzero"/><g fill="#cececc"><path d="m17.869091 1.08585967.8333728.78591655.4697069-1.29923358z"/><path d="m1.6074239 18.3437979.83337281.7859165.52938421-1.2165038z" transform="matrix(-.98480775 .17364818 -.17364818 -.98480775 7.759053 36.364171)"/></g></g><g transform="translate(.3022 1.95)"><path d="m2.57787266 18.5816531-.54974767-.5144955 16.25382861-17.11304194.5497477.5144955z" fill="#171401" fill-rule="nonzero"/><g fill="#cececc"><path d="m17.869091 1.08585967.8333728.78591655.4697069-1.29923358z"/><path d="m1.6074239 18.3437979.83337281.7859165.52938421-1.2165038z" transform="matrix(-.98480775 .17364818 -.17364818 -.98480775 7.759053 36.364171)"/></g></g><g transform="matrix(-1 0 0 1 20.249 4.5)"><path d="m2.57787266 18.5816531-.54974767-.5144955 16.25382861-17.11304194.5497477.5144955z" fill="#171401" fill-rule="nonzero"/><g fill="#cececc"><path d="m17.869091 1.08585967.8333728.78591655.4697069-1.29923358z"/><path d="m1.6074239 18.3437979.83337281.7859165.52938421-1.2165038z" transform="matrix(-.98480775 .17364818 -.17364818 -.98480775 7.759053 36.364171)"/></g></g><g transform="matrix(-1 0 0 1 21.76 2.55)"><path d="m2.57787266 18.5816531-.54974767-.5144955 16.25382861-17.11304194.5497477.5144955z" fill="#171401" fill-rule="nonzero"/><g fill="#cececc"><path d="m17.869091 1.08585967.8333728.78591655.4697069-1.29923358z"/><path d="m1.6074239 18.3437979.83337281.7859165.52938421-1.2165038z" transform="matrix(-.98480775 .17364818 -.17364818 -.98480775 7.759053 36.364171)"/></g></g></g><path d="m7.555556 16.5h6.044444v3h-6.044444z" fill="#b74e01"/><g fill="none" transform="translate(6.0444 4.5)"><path d="m4.55254524.54903426c1.14431128 0 2.19753663.71264715 2.9533699 1.91308822.71226183 1.13123937 1.15774122 2.69298946 1.15774122 4.42024511 0 1.72725566-.44547939 3.28900571-1.15774122 4.42024511-.75583327 1.2004411-1.80905862 1.9130882-2.9533699 1.9130882-1.14431127 0-2.19753662-.7126471-2.95336989-1.9130882-.71226183-1.1312394-1.15774122-2.69298945-1.15774122-4.42024511 0-1.72725565.44547939-3.28900574 1.15774122-4.42024511.75583327-1.20044107 1.80905862-1.91308822 2.95336989-1.91308822z" stroke="#feca00" stroke-width=".666667"/><path d="m.46147326 6.97981209h2.14970759c.98518352.21828204 1.2314794.41328516.73888764.58500936-.73888764.2575863-.73888764.34277365-.73888764.71017572v1.99895063c0 .2871067.5256729.9018051-.58226203.9018051-.73862329 0-1.42611432-1.51824659-2.06247309-4.5547398z" fill="#6fae21" mask="url(#e)"/><path d="m8.86096711 7.22727712c-1.33128927.26298431-2.45293249.35064575-3.36492965.26298431-.91199716-.08766143-1.5681253-.17532287-1.96838443-.26298431.63567902.33062813 1.06647022.63449112 1.29237362.91158898.33885509.41564679 1.03270933 1.1342569 1.73998862 1.1342569s1.79147964.67087146 1.79147964.67087146.16982406-.90557245.5094722-2.71671734z" fill="#6fae21" mask="url(#e)"/><path d="m1.04724734 3.6807844c1.09745546.21209682 1.77833782.4769367 2.04264705.79451963.39646386.47637441-.52374694.95274881 1.87491889.47637441 2.39866582-.47637441 4.30264399-1.30733061 4.30264399 0 0 1.3073306-.20953276 2.51159294-1.24173228 2.51159294s-1.44395774 0-4.59187738 0c-3.14791964 0-4.86394709.96287008-4.64353834-.58635886.14693917-1.03281929.89925186-2.09819533 2.25693807-3.19612812z" fill="#f7fcff" mask="url(#e)"/></g></g></g></g></g><rect height="32" mask="url(#b)" rx="2" width="43.335938"/></g></svg>