<svg height="32" viewBox="0 0 43 32" width="43" xmlns="http://www.w3.org/2000/svg" xmlns:xlink="http://www.w3.org/1999/xlink"><defs><path id="a" d="m0 0h42.666667v32h-42.666667z"/><mask id="b" fill="#fff"><path d="m0 0h43.335938v32h-43.335938z" fill="#fff" fill-rule="evenodd"/></mask><mask id="c" fill="#fff"><path d="m0 0h42.666667v32h-42.666667z" fill="#fff" fill-rule="evenodd"/></mask><mask id="d" fill="#fff"><use fill="#fff" fill-rule="evenodd" xlink:href="#a"/></mask></defs><g fill="none" fill-rule="evenodd"><g fill-rule="evenodd" mask="url(#b)"><g mask="url(#c)" transform="translate(.3346)"><use fill="#f7fcff" xlink:href="#a"/><path d="m0 0h42.666667v10.666667h-42.666667z" fill="#bf2714" mask="url(#d)"/><path d="m0 21.333333h42.666667v10.666667h-42.666667z" fill="#272727" mask="url(#d)"/><g mask="url(#d)"><g fill="#c09302" fill-rule="nonzero" transform="translate(16 9.3333)"><g transform="translate(0 4.092)"><path d="m.34710275.20168916 1.33193448.0610599-.33433644 7.29307138-1.33193448-.0610599z"/><path d="m1.73877054.65435909 1.3312076.07526026-.33433644 5.91376104-1.3312076-.07526026z"/><path d="m3.13124494 1.0972411 1.32886749.10903648-.33433643 4.07468057-1.3288675-.10903647z"/></g><g transform="matrix(-1 0 0 1 10.6666 4.092)"><path d="m.34710275.20168916 1.33193448.0610599-.33433644 7.29307138-1.33193448-.0610599z"/><path d="m1.73877054.65435909 1.3312076.07526026-.33433644 5.91376104-1.3312076-.07526026z"/><path d="m3.13124494 1.0972411 1.32886749.10903648-.33433643 4.07468057-1.3288675-.10903647z"/></g><g transform="translate(4.6377 8.3467)"><path d="m.66010804 2.75557686-1.29965681-.29777499.55009965-2.40094297 1.29965682.29777499z"/><path d="m1.58764428 2.75557686-1.29965682-.29777499.55009965-2.40094297 1.29965682.29777499z" transform="matrix(-1 0 0 1 3.2426 0)"/><path d="m1.32521742 2.73356942h-1.33333333v-2.3572381h1.33333333z"/></g><g transform="translate(1.0435 5.0115)"><path d="m2.46952345.20617303 1.33293233.03269827-.07787475 3.17453423-1.33293233-.03269826z"/><path d="m4.78836403.20617303 1.33293233.03269827-.07787475 3.17453423-1.33293233-.03269826z"/></g><path d="m.85642835 2.65574943.34627222-1.2875843c1.41472572.38046458 2.5010113.56862163 3.24174384.56862163s1.82701812-.18815705 3.24174384-.56862163l.34627223 1.2875843c-1.51784622.40819695-2.70814727.61437067-3.58801607.61437067s-2.07016985-.20617372-3.58801606-.61437067z" transform="translate(.9275 9.2414)"/><path d="m.37640581 4.29694575c-.08888412-.88080058.42663726-1.4770423 1.30031888-1.40099512.287276.02500514.60993461.10999164 1.03968613.25579299.12555795.04307579.12555795.04307579.24759271.08627647.59078762.21012848.75120448.26414266.78449988.27125529-.13090325-.02964772.25465718-.72667466.34309934-.84415759.01045687.07460347-.03392715.06398595-.14050376.04265619l-1.20271754-.24070638.85615251-.87833475c.29926073-.30701433.69778593-.459261 1.15256449-.459261.04714815 0 .09113533-.00219097.23561637-.01107937.10684896-.00649616.10684896-.00649616.22698306-.01146788.83194316-.02695843 1.42857374.20829743 1.42857374 1.0638355 0 .30607725.03865685.79827485.10246059 1.17167491.02146314.12560922.0629292.24318219-.05936261.29482305.00505133-.04456099.29645145-.15955369.74957552-.34905675l.05440521-.02273245c1.31657423-.54952403 1.47039322-.60050595 1.89479384-.34258344.28282327.17188119.5521083.48104611.85384883.94199447l-1.11557005.73026111c-.1946221-.2973109-.34961202-.47771082-.42341422-.52809919.1677378.11653332-.39719901.30413049-.69608032.42888036l-.0535409.02237133c-1.02505085.42869114-1.16017914.47983089-1.45327979.47983089-.79759188 0-1.08398435-.81701032-1.1623844-1.98708088-.24608333.81009692-.98031218 1.8324295-1.58533852 1.8324295-.26486252 0-.13752558.04191071-1.2371942-.3492141-.11521345-.04078208-.11521345-.04078208-.22915592-.07987058-.33315067-.11302768-.57348703-.17643165-.72511414-.18996674.00626551-.00714811.02859027-.03116435.05364036-.05262346z"/></g></g></g></g><rect height="32" mask="url(#b)" rx="2" width="43.335938"/></g></svg>