<svg height="32" viewBox="0 0 43 32" width="43" xmlns="http://www.w3.org/2000/svg" xmlns:xlink="http://www.w3.org/1999/xlink"><mask id="a" fill="#fff"><path d="m0 0h43.335938v32h-43.335938z" fill="#fff" fill-rule="evenodd"/></mask><mask id="b" fill="#fff"><path d="m0 0h42.666667v32h-42.666667z" fill="#fff" fill-rule="evenodd"/></mask><g fill="none" fill-rule="evenodd"><g fill-rule="evenodd" mask="url(#a)"><g mask="url(#b)" transform="translate(.3346)"><path d="m0 0h42.6666667v32h-42.6666667z" fill="#f7fcff"/><path d="m0 0h42.666667v10.666667h-42.666667z" fill="#272727"/><path d="m0 21.333333h42.666667v10.666667h-42.666667z" fill="#5eaa22"/><g fill="#e31d1c"><path d="m0 0 21.3333333 16-21.3333333 16z"/><path d="m8.16805122 3.38872376c-1.41508776 1.79293677-1.71195302 3.61180445-.89059578 5.45660301.82135724 1.84479853 2.4041501 2.91417153 4.74837856 3.20811903-1.1202157.9303003-5.70743238 2.0922213-7.4780956-1.8847535-1.77066323-3.97697468 2.02971854-7.0146643 3.62031282-6.77996854zm5.04420888 1.41477754.1799589 1.70821801 2.0552226.76110776-2.0792718.42481982.4965508 2.09494705-1.7619882-1.71746302-2.19442214.22949018 1.23135024-1.43396513-1.41573147-1.68101711 2.28537427.7929148z" transform="matrix(.91354546 .40673664 -.40673664 .91354546 22.833695 4.73343)"/></g></g></g><rect height="32" mask="url(#a)" rx="2" width="43.335938"/></g></svg>