<svg height="32" viewBox="0 0 44 32" width="44" xmlns="http://www.w3.org/2000/svg" xmlns:xlink="http://www.w3.org/1999/xlink"><mask id="a" fill="#fff"><path d="m0 0h43.335938v32h-43.335938z" fill="#fff" fill-rule="evenodd"/></mask><mask id="b" fill="#fff"><path d="m0 0h45.333333v32h-45.333333z" fill="#fff" fill-rule="evenodd"/></mask><g fill="none" fill-rule="evenodd"><g fill-rule="evenodd" mask="url(#a)"><g mask="url(#b)" transform="translate(.3556)"><path d="m0 0h42.666667v16h-42.666667z" fill="#43b764"/><path d="m0 16h42.666667v16h-42.666667z" fill="#b4d7f4"/><path d="m0 0 44 16-44 16z" fill="#be0027"/><path d="m12.390912 8c1.0364006.25525275 1.9689254.56893363 2.7965993.94092135-.1434769-.21887731-.2982116-.45766716-.426858-.68215095-.4431583-.77329742.940163.42763114 1.4878496 1.22272456.8938562.52030214 1.6282825 1.12322814 2.2052819 1.81205854l-.0002536-1.56524189c.5176057.17728234.8120883 1.85051859.9667384 3.10991199.1129708.2518242.2100145.5129625.2914441.7825058.200872-.537608.5810886-1.1078585.9230776-.6140133.3159101.4561862.1229844 2.1535652-.578777 5.092137-.0108414.1147001-.0234042.2274724-.0375472.3394768 1.1744097-.7467661 1.2953086-3.3165001 1.2953086-1.3948518 0 1.0418805-.5504844 2.0768526-1.6514533 3.1049163-.1005253.3379422-.2179313.6684698-.3521848.9907283 1.3916463-.4391516 2.2359612-1.7928889 2.0036381-.2277605-.1380285.9298788-1.0534137 1.4832458-2.7461555 1.660101-.0661501.1065901-.1349071.2115771-.2058211.315498l-.0419495.0509044-.2310707.2272654-.2331122.214869.1095518-.0456684c.4611937-.2040015.850757-.4164741 1.3644849-.4164741.5871175 0-1.8581188.6689222-2.3068658 1.1535506-.4010807.4331507-.2596499.5411225-.9280221.5591731-.7664853.4071185-1.5641149.664312-2.3923923.7706032.0236488.0651022.0451898.1354832.0647588.2086883h-3.5093853c.0237283-.088765.0503562-.1733777.0798836-.2538382-.72422952-.1221455-1.4244961-.3638258-2.09986036-.7217799l-.05775485-.0006531c-.98453182 0-.75415572-.0775651-1.20290269-.5621934-.44874697-.4846284-2.8939833-1.1535506-2.30686578-1.1535506s1.01206103.2775152 1.56709563.5027405c.12786596.0518862.2888732.1117476.48302173.1795842-.2408637-.2038526-.4793939-.4247457-.71418945-.6623166l-.04194952-.0509044c-.06470896-.0948278-.127622-.1905433-.18873963-.2871452-1.90091857-.1381762-2.92400836-.7010439-3.07057663-1.6884538-.23699967-1.5966335.64641918-.1557086 2.08808093.2535547.09652685.0274024.1849839.0512001.26537116.0713932-.10111239-.232244-.19233793-.4697808-.27465609-.7116793-1.38557552-1.1514939-2.078796-2.3119735-2.078796-3.4811527 0-1.9500767.12450244.7251006 1.34789681 1.4282006-.77498133-3.1681625-.99795213-4.9898167-.66891241-5.4649626.49355957-.7127189 1.0667409.790898 1.0667409 1.2142315s.23555054-4.1915852 1.11451918-4.49263599v1.72270239c0 .0803739.03588314.1116674.09883434.1040509.48152701-.6360809 1.08931724-1.2030712 1.82219701-1.70107732.11211517-.13596288.20857727-.26300345.28399702-.37249262.54768657-.79509342 1.93100785-1.99602198 1.48784951-1.22272456-.17071644.29789485-.38737418.62098246-.56137091.89153561.93268793-.46495885 2.0129498-.84847987 3.238452-1.15030601l.1782797.70766702c-1.0722951.2640931-2.0208405.58973476-2.84693153.97708606.48411068.07281785 1.02997623.2586533 1.32360333.2586533.4629255 0-.87555337.60599012-1.55281356.60599012s-1.22774109.2849852-1.55757425.2849852c-.32983317 0 1.23667083.4810236.61833541.9393982-.51190063.379474-1.30208851-.062709-1.97922277.4050558-.23774521.3441417-.43610593.7058789-.59532237 1.0879459.16232534.2117813.7938028-.0336812.93866355-.2600655.21385418-.3342053 1.4678168-.0052308.51150164.9532815-.62086352.6222899-1.47787956 1.0041308-1.92274996 1.2792235-.01580618.1306957-.02941573.2599717-.04125893.388326.12533227-.1303537.23007108-.4528432.55553077-.2760378.14633953.0794987.2174455.0746754.24555716.0632502-.03346905.0540946-.09611283.2256563-.09611283.7462866 0 .3831838-.08075974.7558788-.1857401 1.069552l-.03624079.1004019.03455794-.0316386c.2556103-.2295535.51880852-.2899751.51880852.1797845 0 .8311131-.33138557 1.0699956-.33138557 1.9076577s.33138557 2.0316681.33138557 1.7781133c0-.2535547.40252248-1.8822593.63000076-1.1470636.22747829.7351956.23954999 2.0754401.66687385 2.6067303.31072698.3863258 1.41518547 1.2888713 2.1214159 1.7526354.41568108.148373.84183836.2492951 1.27686116.3035158.1910398-.2055786.4270911-.3458668.7071738-.4230998l-.0006919.053365.007264-.4552246c.0058625-.7425911-.0089045-1.5267941-.0544499-2.2761525l-.0123238-.015565c-.0832604-.0916524-.2137396-.1374785-.3914376-.1374785-.533094 0-1.70401725-.4556694-1.70401725-1.1115959.58227267.2630528.95466365.328816 1.11717295.1972896.243764-.1972896-1.57668322-1.3671104-1.34692808-1.9299179.57090725.5054352.91729935.7581528 1.03917628.7581528.1828154 0-.30775184-1.1787234 0-.9684381.3077518.2102853 1.1625403 1.6608218 1.1625403 2.1402032 0 .1997422.0301586.4652993.0904758.7966711l.0395273.2050558c.0010796-.0104089.0007845-.0150288.0004882-.0196472-.0354308-.5522562-.0865063-1.0482781-.1544768-1.4728332-.3842932-2.4003594-.3979187-4.8607865.1369417-6.1696954-.2665954-.1638043-.4610947-.3743557-.4610947-.6148295.5822727.236625.9546637.2957813 1.117173.1774688.243764-.1774688-1.5766832-1.2297627-1.3469281-1.7360273.5709073.4546563.9172994.6819844 1.0391763.6819844.1828154 0-.3077519-1.0603021 0-.8711433.3077518.1891589 1.1625403 1.4939662 1.1625403 1.9251862l-.0003341.0106592c.3312395-.4106301.7175072-.7939129.9205904-.8899028.4001983-.1891589-.2377318.8711433 0 .8711433.1584879 0 .6089337-.2273282 1.3513374-.6819845.2987719.5062646-2.0685246 1.5585586-1.7515357 1.7360273.211326.1183125.6955806.0591563 1.4527638-.1774687 0 .5900284-1.5226603.9999186-2.2158919.9999186-.2278728 0-.3960337.0400868-.5044829.1202605-.0482158.4172336-.07067.8925521-.0681718 1.4028557.3458273-.4462678.779-.8852467.9983898-.9889441.4001983-.1891588-.2377319.8711433 0 .8711433.1584879 0 .6089337-.2273281 1.3513374-.6819844.2987719.5062646-2.0685247 1.5585586-1.7515357 1.7360273.211326.1183125.6955805.0591563 1.4527638-.1774687 0 .5245446-1.2034338.9067172-1.9576452.9850862.0420552.4305881.0980915.8678231.1673865 1.3006513.0739527.461921.1284037.9907236.1658641 1.5746158l.0305535.5675249.0078265.2193312c.0289522-.1830275.0470474-.3423617.0542854-.4780026l.0036191-.1277432c0-.4793814.8547884-1.9299178 1.1625403-2.1402032.3077518-.2102853-.1828154.9684382 0 .9684382.1218769 0 .468269-.2527176 1.0391762-.7581528.2297552.5628074-1.5906921 1.7326283-1.3469281 1.9299178.1625094.1315264.5349003.0657632 1.117173-.1972895 0 .6559264-1.1709232 1.1115958-1.7040173 1.1115958-.1299582 0-.2346609.0245107-.3141079.0735322.0156493.5653179.0162208 1.1274059.0068789 1.6613322.3020489.0777803.5536805.2286429.7548686.4521873.3208049-.0243668.6367918-.0746882.9481031-.1500481.6380121-.3503649 2.0574049-1.4864328 2.4165329-1.9329354.4273239-.5312902.4393956-1.8715347.6668739-2.6067303.2274782-.7351957.6300007.8935089.6300007 1.1470636 0 .2535548.3313856-.9404512.3313856-1.7781133s-.3313856-1.0765446-.3313856-1.9076577c0-.4697596.2631982-.409338.5188085-.1797845l.0331569.0326386-.0348397-.1014019c-.0918578-.2744641-.1651717-.5941166-.1820649-.9264445l-.0036752-.1431075c0-.5206303-.0626438-.692192-.0939393-.741274.0219222.0047804.0776055.009723.1851788-.0391279l.0582048-.0291349c.4808299-.26121.4798985.5673772.7721636.2612099.2922651-.3061672-1.2243265-.6942094-2.1806417-1.6527216-.9563152-.9585123.2976475-1.2874868.5115016-.9532815.2138542.3342053 1.4882338.7099892.7475322-.4025276s-1.7650783-.3720341-2.3834138-.8304086c-.6183354-.4583746.9481686-.9393982.6183355-.9393982-.3298332 0-.8803141-.2849852-1.5575743-.2849852s-2.0157391-.60599012-1.5528135-.60599012c.3460143 0 1.0423022-.25806229 1.5755246-.28534101-.8130598-.37516358-1.7431418-.69219736-2.7915131-.95039835z" fill="#f3e294" fill-rule="nonzero"/></g></g><rect height="32" mask="url(#a)" rx="2" width="43.335938"/></g></svg>