<svg height="32" viewBox="0 0 43 32" width="43" xmlns="http://www.w3.org/2000/svg" xmlns:xlink="http://www.w3.org/1999/xlink"><defs><path id="a" d="m0 0h42.666667v32h-42.666667z"/><path id="b" d="m0 0h2.688v1.19466667c-.224-.09955556-.448-.14933334-.672-.14933334s-.448.04977778-.672.14933334c-.224-.09955556-.448-.14933334-.672-.14933334s-.448.04977778-.672.14933334z"/><path id="c" d="m0 0h2.688v1.19466667c-.224-.09955556-.448-.14933334-.672-.14933334s-.448.04977778-.672.14933334c-.224-.09955556-.448-.14933334-.672-.14933334s-.448.04977778-.672.14933334z"/><path id="d" d="m0 0h9.70666667v8.72110825c-.48068907 1.95126115-2.09846685 2.92689175-4.85333334 2.92689175s-4.37264426-1.0013553-4.85333333-3.00406604z"/><mask id="e" fill="#fff"><path d="m0 0h43.335938v32h-43.335938z" fill="#fff" fill-rule="evenodd"/></mask><mask id="f" fill="#fff"><path d="m0 0h42.666667v32h-42.666667z" fill="#fff" fill-rule="evenodd"/></mask><mask id="g" fill="#fff"><use fill="#fff" fill-rule="evenodd" xlink:href="#a"/></mask><mask id="h" fill="#fff"><use fill="#fff" fill-rule="evenodd" xlink:href="#b"/></mask><mask id="i" fill="#fff"><use fill="#fff" fill-rule="evenodd" xlink:href="#c"/></mask><mask id="j" fill="#fff"><use fill="#fff" fill-rule="evenodd" xlink:href="#d"/></mask></defs><g fill="none" fill-rule="evenodd"><g fill-rule="evenodd" mask="url(#e)"><g mask="url(#f)" transform="translate(.3346)"><use fill="#ffb400" xlink:href="#a"/><path d="m0 0h42.666667v8h-42.666667z" fill="#c51918" mask="url(#g)"/><path d="m0 24h42.666667v8h-42.666667z" fill="#c51918" mask="url(#g)"/><g mask="url(#g)"><g transform="translate(5.3333 10.8586)"><path d="m1.344 2.837333h1.493333v7.765333h-1.493333z" fill="#f1f9ff"/><path d="m3.43466667 1.49333333v.74666667l-.449-.00066667.001.598h-1.792l-.001-.598-.447.00066667v-.74666667z" fill="#c88a02"/><path d="m2.98666667 11.0506667h.448v.7466666h-2.688v-.7466666h.448v-.5973334h1.792z" fill="#c88a02"/><path d="m2.09066667 1.64266667c.32497644 0 .35800733-.12236832.54973303-.30513338.1488756-.14191764.4956003-.31792871.4956003-.51619996 0-.45360987-.46801167-.82133333-1.04533333-.82133333s-1.04533334.36772346-1.04533334.82133333c0 .22088998.23877234.3685871.41931145.51619996.19020802.15551838.32983292.30513338.62602189.30513338z" fill="#ad1619"/><g transform="translate(.7467 11.7973)"><use fill="#005bbf" xlink:href="#b"/><g fill="#fff" fill-rule="nonzero"><path d="m-.02430386.95989969-.05867009-.1430473c.24210461-.10774513.48507203-.16180968.72840547-.16180968.15721119 0 .23930705.02192134.37887025.08403191.12258821.05455609.18613202.07152364.32020017.07152364s.19761196-.01696755.32020017-.07152364c.1395632-.06211057.22165906-.08403191.37887025-.08403191.24333343 0 .48630085.05406455.72840546.16180968l-.05867008.1430473c-.22394234-.09966228-.44702187-.14930143-.66973538-.14930143-.13406815 0-.19761196.01696755-.32020017.07152365-.1395632.06211057-.22165906.08403191-.37887025.08403191-.1572112 0-.23930706-.02192134-.37887025-.08403191-.12258821-.0545561-.18613203-.07152365-.32020017-.07152365-.22271352 0-.44579305.04963915-.66973538.14930143z" mask="url(#h)"/><path d="m-.02430386.51189969-.05867009-.1430473c.24210461-.10774513.48507203-.16180968.72840547-.16180968.15721119 0 .23930705.02192134.37887025.08403191.12258821.05455609.18613202.07152364.32020017.07152364s.19761196-.01696755.32020017-.07152364c.1395632-.06211057.22165906-.08403191.37887025-.08403191.24333343 0 .48630085.05406455.72840546.16180968l-.05867008.1430473c-.22394234-.09966228-.44702187-.14930143-.66973538-.14930143-.13406815 0-.19761196.01696755-.32020017.07152365-.1395632.06211057-.22165906.08403191-.37887025.08403191-.1572112 0-.23930706-.02192134-.37887025-.08403191-.12258821-.0545561-.18613203-.07152365-.32020017-.07152365-.22271352 0-.44579305.04963915-.66973538.14930143z" mask="url(#h)"/></g></g><path d="m15.978667 2.837333h1.493333v7.765333h-1.493333z" fill="#f1f9ff"/><path d="m18.0693333 1.49333333v.74666667l-.448-.00066667v.598h-1.792v-.598l-.448.00066667v-.74666667z" fill="#c88a02"/><path d="m17.6213333 11.0506667h.448v.7466666h-2.688v-.7466666h.448v-.5973334h1.792z" fill="#c88a02"/><path d="m16.7253333 1.64266667c.3249765 0 .3580074-.12236832.5497331-.30513338.1488756-.14191764.4956003-.31792871.4956003-.51619996 0-.45360987-.4680117-.82133333-1.0453334-.82133333-.5773216 0-1.0453333.36772346-1.0453333.82133333 0 .22088998.2387723.3685871.4193114.51619996.1902081.15551838.329833.30513338.6260219.30513338z" fill="#ad1619"/><g transform="translate(15.3813 11.7973)"><use fill="#005bbf" xlink:href="#c"/><g fill="#fff" fill-rule="nonzero"><path d="m-.02430386.95989969-.05867009-.1430473c.24210461-.10774513.48507203-.16180968.72840547-.16180968.15721119 0 .23930705.02192134.37887025.08403191.12258821.05455609.18613202.07152364.32020017.07152364s.19761196-.01696755.32020017-.07152364c.1395632-.06211057.22165906-.08403191.37887025-.08403191.24333343 0 .48630085.05406455.72840546.16180968l-.05867008.1430473c-.22394234-.09966228-.44702187-.14930143-.66973538-.14930143-.13406815 0-.19761196.01696755-.32020017.07152365-.1395632.06211057-.22165906.08403191-.37887025.08403191-.1572112 0-.23930706-.02192134-.37887025-.08403191-.12258821-.0545561-.18613203-.07152365-.32020017-.07152365-.22271352 0-.44579305.04963915-.66973538.14930143z" mask="url(#i)"/><path d="m-.02430386.51189969-.05867009-.1430473c.24210461-.10774513.48507203-.16180968.72840547-.16180968.15721119 0 .23930705.02192134.37887025.08403191.12258821.05455609.18613202.07152364.32020017.07152364s.19761196-.01696755.32020017-.07152364c.1395632-.06211057.22165906-.08403191.37887025-.08403191.24333343 0 .48630085.05406455.72840546.16180968l-.05867008.1430473c-.22394234-.09966228-.44702187-.14930143-.66973538-.14930143-.13406815 0-.19761196.01696755-.32020017.07152365-.1395632.06211057-.22165906.08403191-.37887025.08403191-.1572112 0-.23930706-.02192134-.37887025-.08403191-.12258821-.0545561-.18613203-.07152365-.32020017-.07152365-.22271352 0-.44579305.04963915-.66973538.14930143z" mask="url(#i)"/></g></g><g fill-rule="nonzero"><path d="m1.73707037 9.10914279c0 .31539922-.15055679.61233748-.41979041.93876101l-.91697598-.75632052-.08754821-.02690209-.04880841-.38214734c-.09016614-.70595926.21156717-1.09702015.83327819-1.37971753.01584005-.00720261.29660235-.12958918.3767396-.16801372.13126561-.06293976.23948531-.12532525.34049632-.19878464.09959697-.07243103.20649463-.1407587.33543005-.21555355-.76940039-.12361499-1.18517009-.21479494-1.50410751-.35220598-.76327046-.32884752-.86171162-1.09253531-.12811483-1.5977435 1.00017591-.68879399 3.67768285-.75074994 4.85281035-.14402089l-.54807636 1.06152755c-.57666306-.2977364-1.8876492-.35388066-2.80573568-.20111009.13961114.02438406.29618871.05010441.47167103.07765606.10911873.01713221.49357806.07648528.52447597.08128902.36670586.0570122.61687017.12943896.80225781.255658.37839148.25762347.43445589.72178601.16442984 1.06420197-.11400476.14456772-.2630644.25270323-.48862088.38354025-.07238728.0419892-.15030313.08477327-.25493322.14059824-.02139325.01141429-.2038678.10811744-.25692515.13660806-.21528438.11560296-.3565102.19908668-.4619121.27573931-.16509874.12006664-.33442423.21767782-.52662805.30983648-.10339208.04957485-.40036355.17902714-.39875353.17829505-.00606397.00275734-.0119008.00538022-.01751838.00787749.10368236.14031243.16285954.31208001.16285954.51093136zm11.57079203-4.28264875c1.1751275-.60672905 3.8526344-.5447731 4.8528103.14402089.7335968.50520819.6351556 1.26889598-.1281148 1.5977435-.3189374.13741104-.7347071.22859099-1.5041075.35220598.1289354.07479485.235833.14312252.33543.21555355.101011.07345939.2092307.13584488.3404963.19878464.0228964.01097844.0621703.02881092.1069635.04885264l.1400794.06210808c.0674604.0297231.1229081.05396617.1296967.057053.6217111.28269738.9234444.67375827.8332782 1.37971753l-.0488084.38214734-.0875482.02690209-.916976.75632052c-.2692336-.32642353-.4197904-.62336179-.4197904-.93876101 0-.19885135.0591772-.37061893.1628596-.51093136-.0056176-.00249727-.0114545-.00512015-.0175184-.00787749.00161.00073209-.2953615-.1287202-.3987536-.17829505-.1922038-.09215866-.3615293-.18976984-.526628-.30983648-.1054019-.07665263-.2466277-.16013635-.4619121-.27573931-.0530574-.02849062-.2355319-.12519377-.2569252-.13660806-.10463-.05582497-.1825459-.09860904-.2549332-.14059824-.2255565-.13083702-.3746161-.23897253-.4886209-.38354025-.270026-.34241596-.2139616-.8065785.1644299-1.06420197.1853876-.12621904.4355519-.1986458.8022578-.255658.0308979-.00480374.4153572-.06415681.524476-.08128902.1754823-.02755165.3320599-.053272.471671-.07765606-.9180865-.15277057-2.2290726-.09662631-2.8057357.20111009z" fill="#ad1619"/><path d="m2.56447581 5.67466667.44077698.09118614v.65698439c-.31297242.249722-.86672335.58502728-1.66125279 1.00591584v-1.75408637z" fill="#f1f9ff"/><path d="m17.1991425 5.67466667.440777.09118614v.65698439c-.3129725.249722-.8667234.58502728-1.6612528 1.00591584v-1.75408637z" fill="#f1f9ff" transform="matrix(-1 0 0 1 33.6186 0)"/></g></g><g transform="translate(9.5146 5.3333)"><path d="m5.32671853 2.80995262-.00038167.00371684.26972582-.01818351c.7336352-.02867445 1.45946635.11586353 2.17749347.43361393.84062769 0 1.64499516.27562981 2.41310245.82688943v.21864628l-1.50617154 1.51270366c-.30111656.83479476-.83786312.87883163-1.25597355 1.01789376-.13813098.04594191-2.10392985.09959895-2.10392985.09959895l-.0002468-.0041625-.24746456.02634106c-1.82618749.16995725-2.87464214-.20993317-3.14536394-1.13967127l-1.5061715-1.51270366v-.21864628c.76810725-.55125962 1.57247472-.82688943 2.41310242-.82688943.83398501-.36040626 1.66474476-.50012201 2.49227925-.41914726zm-.00638167.06771684.00638167-.06771684c-.21405113 2.38665245-.21603309 3.74710939-.00594586 4.08137084z" fill="#ad1619"/><path d="m7.57760378 3.9185468.06689917.75034907c.03313883.3716891.13448118.54611332.28467181.57055314.20448342.03327464.35974237.01749791.46815414-.04117149l.22040804-.11927864v.20292924c.06929947.00736264.18819429-.0056396.35085997-.04100827l.04704857.21662695 1.10088642-1.03506264.1023277.10876341-1.36973605 1.28868687c-.1998424.36803623-.30047837.61095707-.30047837.71186469 0 .15394802-.40051726.24531988-1.18219809.33917383-.53215998.06389478-1.14763698.10953379-1.68770408.12523361l-.38843086.00597871-.23855004-.00597871c-.5400671-.01569982-1.1555441-.06133883-1.68770407-.12523361-.78168084-.09385395-1.1821981-.18522581-1.1821981-.33917383l-.00360455-.03212073c-.08181168-.08001898-.14649763-.2406733-.19405785-.48196295-.02947755-.06058006-.06430466-.12685736-.10281596-.19778101l-.30283267-.28537473-1.06690343-1.00331214.10232773-.10876341.99367227.93506264.02607284-.11662695c.16266568.03536867.2815605.04837091.35085997.04100827v-.20292924l.22040804.11927864c.10841177.0586694.26367072.07444613.46815414.04117149.15019063-.02443982.25153298-.19886404.28467182-.57055314l.06689916-.75034907.22439839.71912766c.10154235.32541193.25645137.46886261.47698494.46886261.21539453 0 .30197285-.07896432.31152994-.27800536l.02710508-.56450482.25528634.50421153c.09196853.1816454.21880201.26406264.39914473.26406264.25792863 0 .43022628-.21503589.43022628-.55242952h.30354093c0 .33739363.17229765.55242952.43022628.55242952.18034272 0 .3071762-.08241724.39914473-.26406264l.25528634-.50421153.02710508.56450482c.00955709.19904104.09613541.27800536.31152994.27800536.22053357 0 .3754426-.14345068.47698494-.46886261zm-2.23359234 2.29181002-.06036596.00318998-.0593987-.00318998.0583987.00318998-.21769104.01423408c-1.542596.09893508-2.42683242.20124894-2.65270927.30694157l-.01659969.00582435.03233105.01194954c.04407262.01430626.09917881.02905173.16433005.04391498.19208804.04382194.46551155.0873865.78955358.12629321.6338109.07609968 1.38766256.12613346 1.98630817.12991668.59281408-.00378322 1.34666574-.053817 1.98047664-.12991668.32404202-.03890671.59746553-.08247127.78955357-.12629321.09772687-.02229488.17285235-.04432473.22204027-.06500479l-.09962142.02775696c-.0329418.00092288-.06780991-.00722414-.10460433-.02444104-.22587685-.10569263-1.11011328-.20800649-2.65270927-.30694157l-.21865831-.01423408zm2.09369847-1.081016c-.10760575.13708963-.2419033.22495759-.40154732.25937723.54430341.07303919 1.07568271.1848615 1.59318219.33212583-.01185288.10155224-.02566512.19387888-.04143675.27697994l.06300214-.12355156.07276139-.13623113.01440936-.01867088.172295-.16247147c-.24431922.04320017-.42075168.03878119-.51438921-.03746412-.14657323.04264996-.31849114.04674502-.51478164.01480358-.20964669-.03411483-.35564274-.17356476-.44349516-.40489742z" fill="#c88a02" fill-rule="nonzero"/><path d="m5.30164381 1.79609386c.24742357 0 .448-.20057643.448-.448 0-.24742356-.20057643-.448-.448-.448s-.448.20057644-.448.448c0 .24742357.20057643.448.448.448z" fill="#005bbf"/><g fill="#c88a02"><path d="m3.20998246 4.0595853c.01432026.07367132.01461049.14480066.00333061.20661619l.06108502-.01438713.08560191-.005916c.20618631 0 .37333333.10028822.37333333.224s-.16714702.224-.37333333.224-.37333333-.10028822-.37333333-.224c0 .12371178-.16714703.224-.37333334.224-.2061863 0-.37333333-.10028822-.37333333-.224s.16714703-.224.37333333-.224c.07513207 0 .14508053.01331622.20364707.03622969l-.02462599-.05415999-.02214092-.08290033c-.03934221-.20239809.02721028-.38561005.14864913-.40921537s.25177764.12133485.29111984.32373294zm2.24-.14933334c.01439725.0740674.01461321.14556542.00314767.20761241l.06126796-.01538334.08560191-.005916c.20618631 0 .37333333.10028821.37333333.224 0 .12371178-.16714702.224-.37333333.224s-.37333333-.10028822-.37333333-.224c0 .12371178-.16714703.224-.37333334.224-.2061863 0-.37333333-.10028822-.37333333-.224 0-.12371179.16714703-.224.37333333-.224.07513207 0 .14508053.01331622.20364707.03622968l-.02462599-.05415998-.02214092-.08290034c-.03934221-.20239808.02721028-.38561004.14864913-.40921536s.25177764.12133485.29111984.32373293zm2.07560774-.22927803c.12354225-.00647457.23244082.1551947.24323178.36109844.003942.07521789-.00575363.14593362-.02567176.20571443l.06270738-.0063912.08559219.00605505c.20417971.02869559.35574265.15127018.3385253.27377801s-.19669514.19855768-.40087485.16986209c-.20417972-.02869559-.35574266-.15127018-.33852531-.27377801-.01721735.12250783-.19669514.19855768-.40087485.16986209-.20417972-.02869559-.35574266-.15127017-.33852531-.273778.01721736-.12250783.19669514-.19855768.40087486-.16986209.07449194.01046916.14198034.03343405.19682415.06433256l-.01704988-.05717345-.01038795-.08517497c-.01079096-.20590374.08061201-.37807037.20415425-.38454495zm2.05441495.62062418.05199969.00558739c.11830617.03616982.16534321.22533475.10506017.4225117-.06028305.19717694-.2050582.327699-.32336437.29152918-.0249288-.0076215-.04669321-.02203606-.06495596-.04188724-.0595653.1170336-.25422983.12711206-.43628153.03031345-.18205171-.09679861-.2825513-.26381862-.22447214-.37304964s.25274369-.11930949.4347954-.02251088c.06687613.03555867.12274732.08059329.16379526.12875822l.00268873-.06054443.01937008-.08359118c.06028304-.19717695.2050582-.32769901.32336436-.29152918zm-8.39109206.34286194c.01507076.04929423.02343401.09808772.02565306.14411509.0377924-.04841726.09352753-.09328678.16020101-.1287377.1820517-.09679861.37671623-.08672014.43479539.02251088.05807917.10923102-.04242043.27625103-.22447213.37304964-.18205171.09679861-.37671624.08672015-.4347954-.02251088-.01937123.01179783-.04129688.02639701-.06644209.03408467-.11830617.03616983-.26308133-.09435223-.32336437-.29152918s-.01324601-.38634188.10506016-.4225117c.11830617-.03616983.26308133.09435223.32336437.29152918z" fill-rule="nonzero"/><path d="m5.44555224.10212956-.00055224.196.20382624.00053711v.31111111l-.20382624-.00064822v.622l.20382624.00087044v.31111111h-.72082624v-.31111111l.206-.00087044v-.622l-.206.00064822v-.31111111l.206-.00053711.00044113-.196z" fill-rule="nonzero"/><path d="m5.077333 1.792h1v1.941333h-1z"/></g><g fill-rule="nonzero" transform="translate(0 1.344)"><path d="m2.67277752.77311688-.00260672.14931058c-1.32413492-.02311725-2.08367266.1701185-2.27647766.55525168-.19933145.39816996-.16226572.88219624.1170392 1.45716705l-.13432348.06525064c-.29800386-.61346402-.33870135-1.14491599-.11625043-1.58926771.22897738-.45738849 1.03247188-.66180738 2.41261909-.63771224z" fill="#fff"/><path d="m2.92897386 2.09730862-.07655693.12821654c-.28836134-.17217794-.43268411-.4660116-.43268411-.87094616 0-.58197376.29979136-.92324715.96292945-1.15679218.42322851-.14905329 1.00137478-.08794014 1.73606512.17843063l-.05090039.14039086c-.70528773-.2557105-1.25101608-.3133969-1.63555874-.17796806-.60824873.21421401-.86320211.5044452-.86320211 1.01593875 0 .35534971.11987451.59940798.35990771.74272962z" fill="#fff"/><path d="m.69887032 2.70584427-.28179201.09896991c-.29237398-.83246164-.20887999-1.39781395.29071322-1.64168688.44022171-.21489115 1.0818001-.30234531 1.9279268-.2680565l-.01209337.29842173c-.80111243-.03246463-1.39711552.04877711-1.7848176.23803118-.3283306.16027228-.38838669.56692246-.13993704 1.27432056z" fill="#c88a02"/><path d="m3.99105657.57425792c-.6828574 0-.96327498.16631201-1.12347666.65736071-.10209334.31293555-.00307695.58002405.31797438.82933575l-.18318275.23589374c-.41565285-.32277429-.56220452-.71808525-.4187298-1.15786261.20416267-.62579752.60477296-.86339426 1.40741483-.86339426.52606734 0 .93587447.13821011 1.22121817.41949199l.04449837.04386493v1.43995308h-.29866667v-1.31229961c-.2228529-.1935678-.54296205-.29234372-.96704987-.29234372z" fill="#c88a02"/><path d="m10.4381109.92245022-.0026068.14931058c-1.32413488-.02311726-2.08367263.17011849-2.27647762.55525167-.19933145.39816996-.16226573.88219624.1170392 1.45716705l-.13432349.06525064c-.29800386-.61346401-.33870135-1.14491598-.11625043-1.5892677.22897738-.45738849 1.03247189-.66180738 2.41261914-.63771224z" fill="#fff" transform="matrix(-1 0 0 1 18.3222 0)"/><path d="m5.73590771 2.12835857-.07655693.12821654c-.28836134-.17217794-.43268411-.4660116-.43268411-.87094616 0-.58197376.29979136-.92324715.96292945-1.15679218.4232285-.14905329 1.00137477-.08794014 1.73606512.17843063l-.05090039.14039086c-.70528774-.2557105-1.25101609-.3133969-1.63555874-.17796806-.60824874.21421401-.86320211.5044452-.86320211 1.01593875 0 .35534971.11987451.59940798.35990771.74272962z" fill="#fff" transform="matrix(-1 0 0 1 13.1524 0)"/><g fill="#c88a02"><path d="m8.46420365 2.8551776-.28179201.09896991c-.29237398-.83246164-.20887999-1.39781394.29071322-1.64168688.44022172-.21489115 1.0818001-.3023453 1.92792684-.2680565l-.0120934.29842173c-.80111244-.03246463-1.39711552.04877711-1.78481761.23803118-.3283306.16027229-.38838669.56692246-.13993704 1.27432056z" transform="matrix(-1 0 0 1 18.4152 0)"/><path d="m6.83696801.59733333c-.68285739 0-.96327497.16631202-1.12347665.65736071-.10209335.31293556-.00307695.58002406.31797438.82933575l-.18318276.23589374c-.41565284-.32277429-.56220451-.71808524-.41872979-1.1578626.20416267-.62579752.60477296-.86339426 1.40741482-.86339426.52606734 0 .93587447.13821011 1.22121818.41949199l.04449836.04386493v1.43995307h-.29866666v-1.3122996c-.2228529-.1935678-.54296205-.29234373-.96704988-.29234373z" transform="matrix(-1 0 0 1 13.4786 0)"/></g></g></g><g transform="translate(9.9626 12.352)"><use fill="#e1e5e8" opacity=".3" xlink:href="#d"/><g fill-rule="nonzero"><path d="m0 5.376h4.928v5.824h-4.928z" fill="#ffc034" mask="url(#j)"/><path d="m.597333 5.674667h1v5.525333h-1z" fill="#ad1619" mask="url(#j)"/><path d="m2.688 5.674667h1v5.525333h-1z" fill="#ad1619" mask="url(#j)"/><path d="m1.642667 5.674667h1v5.525333h-1z" fill="#ad1619" mask="url(#j)"/><path d="m3.733333 5.674667h1v5.525333h-1z" fill="#ad1619" mask="url(#j)"/><path d="m0-.149333h4.928v5.674667h-4.928z" fill="#ad1619" mask="url(#j)"/><path d="m4.778667 5.226667h4.928v5.674667h-4.928z" fill="#ad1619" mask="url(#j)"/></g><path d="m4.778667 0h5.226667v5.525333h-5.226667z" fill="#f1f9ff" mask="url(#j)"/><path d="m2.53866667.448-.00033334 1.238h.298l.001-.61854321h.448l-.001.61854321.449.00091358v.77432099l-.449-.00023457v1.394l.449.00001235v.77432098h-2.688v-.77432098l.447-.00001235v-1.394l-.447.00023457v-.77432099l.298-.00091358.00066667-.61854321h.448l-.00066667.61854321h.299l.00033334-1.238z" fill="#c88a02" mask="url(#j)"/><path d="m8.07455447 4.58896301c.00754285-.0058452.02081297-.01839683.03799746-.03737032l.01968805.01783168c-.02637195.00423937-.04372247.01118203-.05459921.01769579zm-.08158485-3.35939492c.2006067.28619749.2006067.60191557.00502551.85192137-.09866601.12612193-.23383163.22214295-.39949834.30005705.12463251.17753639.20151113.27518882.32979617.420406.06200659.07019073.11745508.13627284.16640406.19853871.04273331-.02769515.10112647-.05020943.17396681-.07211401.01178977-.00354542.02408973-.00709212.03695628-.01066026.04643672-.01287775.07970801-.02276602.1071222-.03196947.1097811-.03685557.11778898-.02943403.11787375-.27966081l-.00020557-.16364497c0-.09000963-.00240654-.16573975-.00974419-.34174543-.00036787-.00882448-.00036787-.00882448-.00073554-.01765939-.02685909-.6459379-.00277415-.89287218.19502854-1.07006164l.19927935.2224624c-.0961492.08612939-.11781124.30822258-.09589909.83519095l.0007342.01762713c.00601213.14421101.00880703.22316573.0096845.29793734l.00036789.11298984c.00063977.47559105-.03501054.57357875-.32132952.66970139-.03342432.01122117-.0712423.02246072-.12236299.03663742-.01084738.00300818-.02108734.00596088-.03075955.00886951-.04281603.01287566-.07272389.02013883-.09337343.02935186.03102956.04793691.05311106.09160192.07011975.13276646.08039079.1945623.05622989.3815128-.09242127.48611871.00076083.00984217.00187221.01418119.00601409.03011874.01758669.07080751.01438774.14132481-.01797348.42855849-.01824257.16191858-.01824257.26770731-.00786548.29657402-.01095403-.03047162-.05353042-.06618615-.11335205-.05825168l.20833851.1924598c-.12567984.13876375-.30565504.16263485-.37604446-.03317258-.03123349-.08688448-.03123349-.22363619-.00786549-.43104732.02760253-.24499627.03018252-.30186932.02490261-.3231273-.00303822-.0114098-.00607124-.02325124-.00874616-.03591251-.01060517-.0501978-.01606666-.11684979-.01696281-.22728455l-.11782572.25458095c-.13292037-.06149306-.20091003-.11670324-.21809276-.21419924-.00611173-.03467836-.0030161-.06631425.00597466-.09852216.00416568-.01492287.0096488-.02997572.01629548-.04734001.01563488-.04288034.01200638-.06827301-.05579968-.1608451l-.05245118-.07320214c-.00526956-.00156749-.01047009-.00310343-.01562092-.00461341-.07030758-.02061083-.13054057-.03578221-.17946673-.04546626.01609788.04225321.03519784.0881292.05817447.14042147-.0030234-.00688092.08124001.18087376.1012816.22950272.03985107.0966947.06160528.16816221.06575294.23993986.01769858.30628426-.22990548.37991187-.53851926.28925417-.22985691-.06752226-.34656382-.09457439-.37921439-.09364898.10187011-.00288728.15738283-.11431378.15085007-.1559725l-.44259111.06940537c-.02986774-.1904636.0520138-.35481824.27904857-.36125304.08593385-.0024356.19574706.01979458.40408944.07867992-.0142246-.0323692-.03101981-.07055625-.05085139-.11569075-.04956313-.11280022-.08484675-.20320421-.11257233-.29470748-.07766617-.25632319.05203918-.45791066.30023681-.48358631l.03727132.00022059c-.05271529-.08829083-.10848598-.18363277-.16733039-.28604825l-.09293094.01351279-.0169676-.11018-.0067317.00850761c-.12146897.13459906-.24645712.25644228-.3667594.35124918-.29736645.23434627-.57353498.31211128-.78179831.07868502l.33428888-.29825315c-.01110567-.01244749-.02962281-.01622375-.01899207-.01921721.04419054-.01244341.11060053-.05113603.18920473-.11308182.08418701-.06634546.1754293-.1532727.26677784-.25099613-.12622655-.08280892-.2501647-.19889995-.37052259-.34519541-.09019205-.10962877-.16880693-.18257766-.24306084-.2336784-.03698204-.02545064-.14657415-.08509331-.16206251-.09549813-.18487552-.12419627-.17428076-.24183301-.0624284-.52338025l.41634728.16540538c-.00529193.01332049-.01003499.02544841-.01426273.03641738.02674899.01583213.05466378.03305603.07638399.04800364.109412.07529617.21878772.17678888.335048.31810368.11542265.14029664.22161723.2340521.32057957.28691l-.00668343-.0420749c.01975602-.00298745.06033733-.0104308.11424093-.02263208.09010233-.02039499.17979805-.04608952.26068731-.07655464.08387772-.03159067.14914024-.06553983.18811675-.09344457-.10041307-.14172934-.1812082-.20952052-.23671884-.22951118-.00805475-.0029007-.0007692-.0032584.00933878-.00729576.01062361-.00424331.02360366-.01171659.04051553-.02421164l-.44369659-.6005368c.03194924-.02360516.07387438-.04774362.12622113-.0686521.35534704-.14193368.76913723.00708172 1.12075093.5087148z" fill="#c37c9c" fill-rule="nonzero" mask="url(#j)"/><path d="m7.34243465.7080281.30582006-.32738065.64205027.59976619-.30582006.32738066z" fill="#c88a02" fill-rule="nonzero" mask="url(#j)"/><path d="m5.89866667 9.08789785c.14321962.56490486.59372654.84276882 1.41866666.84276882.82526365 0 1.27581709-.27035814 1.41866667-.8168018v-2.7671982h-2.83733333zm3.28533333-3.18923118v3.26944263l-.00622849.02585791c-.1897609.78780319-.83326398 1.18469949-1.86043818 1.18469949-1.02815893 0-1.67175683-.40742141-1.86074167-1.21269001l-.00592499-.02524655v-3.24206347z" fill="#ffc034" fill-rule="nonzero" mask="url(#j)"/><path d="m7.47147078 6.17192623-.00040042 1.326 1.08347747-1.17766672.21985929.20214765-1.10933676 1.20551907 1.24105138.00079198v.448l-1.26605138-.00079198 1.13433676 1.23368586-.21985929.20214764-1.08347747-1.1788335.00040042 1.57753877h-.31111111l-.00028931-1.73353877-1.22614072 1.3348335-.21985928-.20214764 1.134-1.23368586-1.02979869.00079198v-.448l1.00379869-.00079198-1.108-1.20551907.21985928-.20214765 1.22614072 1.33366672.00028931-1.482z" fill="#ffc034" fill-rule="nonzero" mask="url(#j)"/><path d="m8.0142909 10.9049313c-2.10862044.1657785-3.16293066-.4313132-3.16293066-1.79127517-.02010738 1.19418347-1.13105014 1.79127517-3.33282829 1.79127517v1.6104258h6.49575895z" fill="#f1f9ff" mask="url(#j)"/><ellipse cx="4.853333" cy="5.376" fill="#005bbf" mask="url(#j)" rx="1.12" ry="1.194667" stroke="#ad1619" stroke-width="1.555556"/></g></g></g></g><rect height="32" mask="url(#e)" rx="2" width="43.335938"/></g></svg>