<svg xmlns="http://www.w3.org/2000/svg" width="80" height="80"><mask id="a" fill="#fff"><path fill-rule="evenodd" d="M0 0h4.61v2.06c-.38-.17-.77-.26-1.15-.26s-.77.09-1.15.26c-.39-.17-.77-.26-1.16-.26s-.77.1-1.15.26z"/></mask><mask id="b" fill="#fff"><path fill-rule="evenodd" d="M0 0h4.61v2.06c-.38-.17-.77-.26-1.15-.26s-.77.09-1.15.26c-.39-.17-.77-.26-1.16-.26s-.77.1-1.15.26z"/></mask><mask id="c" fill="#fff"><path fill-rule="evenodd" d="M0 0h4.61v2.06c-.38-.17-.77-.26-1.15-.26s-.77.09-1.15.26c-.39-.17-.77-.26-1.16-.26s-.77.1-1.15.26z"/></mask><mask id="d" fill="#fff"><path fill-rule="evenodd" d="M0 0h4.61v2.06c-.38-.17-.77-.26-1.15-.26s-.77.09-1.15.26c-.39-.17-.77-.26-1.16-.26s-.77.1-1.15.26z"/></mask><mask id="e" fill="#fff"><path fill-rule="evenodd" d="M0 0h16.66v15.03c-.82 3.37-3.6 5.05-8.33 5.05S.83 18.35 0 14.9z"/></mask><mask id="f" fill="#fff"><path fill-rule="evenodd" d="M0 0h16.66v15.03c-.82 3.37-3.6 5.05-8.33 5.05S.83 18.35 0 14.9z"/></mask><mask id="g" fill="#fff"><path fill-rule="evenodd" d="M0 0h16.66v15.03c-.82 3.37-3.6 5.05-8.33 5.05S.83 18.35 0 14.9z"/></mask><mask id="h" fill="#fff"><path fill-rule="evenodd" d="M0 0h16.66v15.03c-.82 3.37-3.6 5.05-8.33 5.05S.83 18.35 0 14.9z"/></mask><mask id="i" fill="#fff"><path fill-rule="evenodd" d="M0 0h16.66v15.03c-.82 3.37-3.6 5.05-8.33 5.05S.83 18.35 0 14.9z"/></mask><mask id="j" fill="#fff"><path fill-rule="evenodd" d="M0 0h16.66v15.03c-.82 3.37-3.6 5.05-8.33 5.05S.83 18.35 0 14.9z"/></mask><mask id="k" fill="#fff"><path fill-rule="evenodd" d="M0 0h16.66v15.03c-.82 3.37-3.6 5.05-8.33 5.05S.83 18.35 0 14.9z"/></mask><mask id="l" fill="#fff"><path fill-rule="evenodd" d="M0 0h16.66v15.03c-.82 3.37-3.6 5.05-8.33 5.05S.83 18.35 0 14.9z"/></mask><mask id="m" fill="#fff"><path fill-rule="evenodd" d="M0 0h16.66v15.03c-.82 3.37-3.6 5.05-8.33 5.05S.83 18.35 0 14.9z"/></mask><mask id="n" fill="#fff"><path fill-rule="evenodd" d="M0 0h16.66v15.03c-.82 3.37-3.6 5.05-8.33 5.05S.83 18.35 0 14.9z"/></mask><mask id="o" fill="#fff"><path fill-rule="evenodd" d="M0 0h16.66v15.03c-.82 3.37-3.6 5.05-8.33 5.05S.83 18.35 0 14.9z"/></mask><mask id="p" fill="#fff"><path fill-rule="evenodd" d="M0 0h16.66v15.03c-.82 3.37-3.6 5.05-8.33 5.05S.83 18.35 0 14.9z"/></mask><mask id="q" fill="#fff"><path fill-rule="evenodd" d="M0 0h16.66v15.03c-.82 3.37-3.6 5.05-8.33 5.05S.83 18.35 0 14.9z"/></mask><mask id="r" fill="#fff"><path fill-rule="evenodd" d="M0 0h16.66v15.03c-.82 3.37-3.6 5.05-8.33 5.05S.83 18.35 0 14.9z"/></mask><mask id="s" fill="#fff"><path fill-rule="evenodd" d="M0 0h16.66v15.03c-.82 3.37-3.6 5.05-8.33 5.05S.83 18.35 0 14.9z"/></mask><g fill="none"><path fill="#aa151b" d="M0 0h79.38v79.38H0z"/><path fill="#f1bf00" d="M0 19.84h79.38v39.7H0z"/><path fill="#f1f9ff" d="M26.28 38.24h2.56v13.38h-2.56z"/><path fill="#c88a02" d="M29.87 35.92v1.29h-.77v1.03h-3.08V37.2h-.77v-1.29zM29.1 52.4h.77v1.28h-4.62V52.4h.77v-1.03h3.08z"/><path fill="#ad1619" d="M27.56 36.18c.56 0 .61-.21.94-.53.26-.24.85-.54.85-.89 0-.78-.8-1.41-1.8-1.41-.98 0-1.79.63-1.79 1.41 0 .38.41.64.72.9.33.26.57.52 1.08.52"/><path fill="#005bbf" d="M25.25 53.68h4.62v2.06a2.8 2.8 0 0 0-2.3 0 2.83 2.83 0 0 0-2.3 0z"/><path fill="#fff" d="m-.04 1.65-.1-.24c.41-.19.83-.28 1.25-.28.27 0 .4.04.65.14.2.1.32.13.55.13s.34-.03.55-.13c.24-.1.38-.14.65-.14.42 0 .83.1 1.25.28l-.1.24A2.8 2.8 0 0 0 3.5 1.4c-.23 0-.34.03-.55.12-.24.1-.38.15-.65.15s-.41-.04-.65-.15c-.21-.1-.32-.12-.55-.12-.38 0-.77.08-1.15.25z" mask="url(#a)" transform="translate(25.25 53.68)"/><path fill="#fff" d="m-.04.88-.1-.24C.27.45.69.36 1.1.36c.27 0 .4.03.65.14.2.1.32.13.55.13S2.64.6 2.85.5c.24-.1.38-.14.65-.14.42 0 .83.09 1.25.28l-.1.24A2.8 2.8 0 0 0 3.5.63c-.23 0-.34.02-.55.12-.24.1-.38.14-.65.14S1.9.86 1.66.75C1.45.65 1.34.63 1.1.63.73.63.34.7-.04.88" mask="url(#b)" transform="translate(25.25 53.68)"/><path fill="#f1f9ff" d="M51.4 38.24h2.56v13.38H51.4z"/><path fill="#c88a02" d="M54.98 35.92v1.29h-.76v1.03h-3.08V37.2h-.77v-1.29zm-.76 16.48h.76v1.28h-4.6V52.4h.76v-1.03h3.08z"/><path fill="#ad1619" d="M52.68 36.18c.56 0 .61-.21.94-.53.26-.24.85-.54.85-.89 0-.78-.8-1.41-1.8-1.41-.98 0-1.79.63-1.79 1.41 0 .38.41.64.72.9.33.26.57.52 1.08.52"/><path fill="#005bbf" d="M50.37 53.68h4.61v2.06a2.8 2.8 0 0 0-2.3 0 2.8 2.8 0 0 0-2.3 0z"/><path fill="#fff" d="m-.04 1.65-.1-.24c.41-.19.83-.28 1.25-.28.27 0 .4.04.65.14.2.1.32.13.55.13s.34-.03.55-.13c.24-.1.38-.14.65-.14.42 0 .83.1 1.25.28l-.1.24A2.8 2.8 0 0 0 3.5 1.4c-.23 0-.34.03-.55.12-.24.1-.38.15-.65.15s-.41-.04-.65-.15c-.21-.1-.32-.12-.55-.12-.38 0-.77.08-1.15.25z" mask="url(#c)" transform="translate(50.37 53.68)"/><path fill="#fff" d="m-.04.88-.1-.24C.27.45.69.36 1.1.36c.27 0 .4.03.65.14.2.1.32.13.55.13S2.64.6 2.85.5c.24-.1.38-.14.65-.14.42 0 .83.09 1.25.28l-.1.24A2.8 2.8 0 0 0 3.5.63c-.23 0-.34.02-.55.12-.24.1-.38.14-.65.14S1.9.86 1.66.75C1.45.65 1.34.63 1.1.63.73.63.34.7-.04.88" mask="url(#d)" transform="translate(50.37 53.68)"/><path fill="#ad1619" d="M26.95 49.05c0 .54-.26 1.06-.72 1.62l-1.57-1.3-.15-.05-.09-.66c-.15-1.22.37-1.9 1.43-2.38l.65-.29c.23-.1.41-.21.58-.34.18-.13.36-.24.58-.37a11.2 11.2 0 0 1-2.58-.61c-1.31-.57-1.48-1.88-.22-2.75 1.72-1.2 6.31-1.3 8.33-.25l-.94 1.83c-1-.52-3.24-.61-4.82-.35l.81.13.9.14c.63.1 1.06.23 1.38.45.65.44.74 1.24.28 1.83-.2.25-.45.44-.84.66l-.44.24-.44.24c-.37.2-.6.34-.79.47-.28.21-.57.38-.9.54a34 34 0 0 1-.72.32c.18.24.28.54.28.88m19.86-7.38c2.02-1.05 6.61-.94 8.33.25 1.26.87 1.1 2.18-.22 2.75-.55.24-1.26.4-2.58.6.22.14.4.25.58.38a3.7 3.7 0 0 0 .76.43l.24.1.23.1c1.06.49 1.58 1.16 1.43 2.38l-.09.66-.15.04-1.57 1.3c-.46-.55-.72-1.07-.72-1.61 0-.34.1-.64.28-.88l-.03-.01-.69-.31a5.7 5.7 0 0 1-.9-.54 7 7 0 0 0-.8-.47l-.43-.24-.44-.24a2.8 2.8 0 0 1-.84-.66 1.23 1.23 0 0 1 .28-1.83c.32-.22.75-.35 1.38-.45a48 48 0 0 0 1.71-.27c-1.58-.26-3.83-.17-4.82.35z"/><path fill="#f1f9ff" d="m28.37 43.13.76.16v1.13c-.54.43-1.49 1-2.85 1.73v-3.02zm23.78 0-.75.16v1.13c.53.43 1.48 1 2.85 1.73v-3.02z"/><path fill="#ad1619" d="m40.29 28.67.46-.03a8.3 8.3 0 0 1 3.74.75c1.44 0 2.82.48 4.14 1.43v.37l-2.58 2.61c-.52 1.44-1.44 1.51-2.16 1.75-.24.08-3.61.18-3.61.18v-.01l-.43.04c-3.13.3-4.93-.36-5.4-1.96l-2.58-2.6v-.38a6.98 6.98 0 0 1 4.14-1.43 8.5 8.5 0 0 1 4.28-.72m-.01.11.01-.11c-.37 4.11-.37 6.46-.01 7.03z"/><path fill="#c88a02" d="m44.15 30.58.12 1.3c.05.63.23.93.49.98.35.05.61.03.8-.08l.38-.2v.35c.12.01.32-.01.6-.07l.08.37 1.9-1.78.17.18-2.35 2.23a3.9 3.9 0 0 0-.52 1.22c0 .27-.69.43-2.03.59-.91.1-1.97.19-2.9.21l-.66.01h-.41c-.93-.03-1.99-.11-2.9-.22-1.34-.16-2.03-.32-2.03-.59v-.05c-.14-.14-.26-.42-.34-.83a9 9 0 0 0-.17-.34l-.52-.5-1.83-1.73.17-.18 1.7 1.6.05-.2c.28.07.48.1.6.08v-.35l.38.2c.19.1.45.13.8.08.26-.05.44-.35.5-.99l.1-1.3.4 1.25c.17.56.43.8.81.8.37 0 .52-.13.54-.47l.04-.98.44.87c.16.32.38.46.69.46.44 0 .74-.37.74-.95h.52c0 .58.3.95.73.95.31 0 .53-.14.69-.46l.44-.87.04.98c.02.34.17.48.54.48.38 0 .64-.25.82-.81zm-3.83 3.95h-.2.1l-.38.03c-2.65.17-4.16.35-4.55.53h-.03l.05.03.29.07c.33.08.8.15 1.35.22 1.09.13 2.38.22 3.41.23 1.02-.01 2.31-.1 3.4-.23.56-.07 1.03-.14 1.36-.22.16-.03.3-.07.38-.1l-.17.04a.4.4 0 0 1-.18-.04c-.4-.18-1.9-.36-4.56-.53l-.37-.03zm3.6-1.86c-.2.23-.42.38-.7.44.94.13 1.85.32 2.74.58l-.07.47.1-.21.13-.24.03-.03.3-.28c-.43.08-.73.07-.9-.06a2 2 0 0 1-.88.02c-.36-.06-.6-.3-.76-.7z"/><path fill="#005bbf" d="M40.25 26.92a.77.77 0 1 0 0-1.54.77.77 0 0 0 0 1.54"/><g fill="#c88a02"><path d="M36.66 30.82q.03.195 0 .36l.1-.03h.15c.36 0 .64.17.64.38s-.28.38-.64.38-.64-.17-.64-.38c0 .21-.28.38-.64.38-.35 0-.64-.17-.64-.38s.29-.39.64-.39c.13 0 .25.03.35.07l-.04-.1-.04-.14c-.07-.35.05-.67.26-.7s.43.2.5.55m3.84-.26c.03.13.03.26 0 .36l.11-.02.15-.01c.35 0 .64.17.64.38s-.29.39-.64.39-.64-.18-.64-.39c0 .21-.29.39-.64.39-.36 0-.64-.18-.64-.39s.28-.38.64-.38c.13 0 .25.02.35.06l-.05-.1-.03-.14c-.07-.35.04-.66.25-.7s.43.2.5.55m3.56-.4c.22 0 .4.28.42.63 0 .13 0 .25-.04.36l.1-.02.15.02c.35.04.61.26.58.47-.03.2-.33.34-.69.29-.35-.05-.6-.26-.58-.47-.03.2-.33.34-.68.3-.35-.06-.61-.27-.59-.48.03-.21.34-.34.7-.3.12.02.24.06.33.12l-.03-.1-.02-.15c-.02-.35.14-.65.35-.66zm3.53 1.08h.09c.2.07.28.4.18.74s-.35.56-.56.5a.25.25 0 0 1-.1-.07c-.1.2-.44.22-.76.05-.3-.17-.48-.46-.38-.64s.43-.21.75-.04c.11.06.2.14.28.22v-.1l.03-.15c.1-.34.36-.56.56-.5zm-14.4.59c.02.08.04.17.04.25a.9.9 0 0 1 .28-.22c.3-.17.64-.15.74.03.1.2-.07.48-.38.65-.31.16-.65.15-.75-.04l-.11.06c-.2.06-.45-.16-.56-.5-.1-.34-.02-.67.18-.73.2-.07.45.16.56.5M40.5 24v.34h.34v.54h-.35v1.07h.35v.53h-1.23v-.53h.35v-1.08h-.35v-.53h.35V24z"/><path d="M39.86 26.91h1.72v3.35h-1.72z"/></g><path fill="#fff" d="M35.73 27.47v.26c-2.27-.04-3.58.3-3.9.96-.35.68-.29 1.52.2 2.5l-.24.12c-.5-1.06-.58-1.97-.2-2.74.4-.79 1.78-1.14 4.14-1.1"/><path fill="#fff" d="m36.17 29.76-.13.22c-.5-.3-.74-.8-.74-1.5 0-1 .51-1.6 1.65-2 .73-.26 1.72-.15 2.98.3l-.08.25c-1.22-.44-2.15-.54-2.81-.3-1.05.36-1.48.86-1.48 1.75 0 .6.2 1.03.61 1.28"/><path fill="#c88a02" d="m32.35 30.8-.49.18c-.5-1.44-.36-2.41.5-2.83a7.1 7.1 0 0 1 3.31-.47l-.02.52a6.66 6.66 0 0 0-3.06.4c-.57.28-.67.99-.24 2.2"/><path fill="#c88a02" d="M38 27.13c-1.17 0-1.66.29-1.93 1.13-.18.54 0 1 .54 1.43l-.31.41c-.71-.56-.96-1.24-.72-2 .35-1.07 1.04-1.48 2.42-1.48.9 0 1.6.23 2.1.72l.07.07v2.49h-.51v-2.27c-.39-.33-.93-.5-1.66-.5"/><path fill="#fff" d="M44.68 27.73V28c2.28-.04 3.58.3 3.91.96.34.68.28 1.52-.2 2.5l.23.12c.51-1.06.58-1.97.2-2.74-.4-.79-1.77-1.14-4.14-1.1z"/><path fill="#fff" d="m43.88 29.8.13.23c.5-.3.74-.8.74-1.5 0-1-.51-1.6-1.65-2-.73-.25-1.72-.15-2.98.31l.09.24c1.2-.44 2.14-.54 2.8-.3 1.05.37 1.48.87 1.48 1.75 0 .61-.2 1.03-.61 1.28z"/><g fill="#c88a02"><path d="m48.23 31.06.48.17c.5-1.43.36-2.4-.5-2.83a7.1 7.1 0 0 0-3.3-.46l.01.52c1.38-.06 2.4.08 3.07.4.56.28.66.98.24 2.2"/><path d="M42.55 27.17c1.17 0 1.65.29 1.93 1.13.17.54 0 1-.55 1.43l.31.4c.72-.55.97-1.23.72-1.99-.35-1.08-1.04-1.48-2.41-1.48-.9 0-1.61.23-2.1.72l-.08.07v2.49h.52v-2.27c.38-.33.93-.5 1.66-.5"/></g><g transform="translate(31.92 35.92)"><path fill="#e1e5e8" d="M0 0h16.66v15.03c-.82 3.37-3.6 5.05-8.33 5.05S.83 18.35 0 14.9z" opacity=".3"/><path fill="#ffc034" d="M0 9.27h8.46V19.3H0z" mask="url(#e)"/><path fill="#ad1619" d="M1.03 9.78h1.71v9.53H1.03z" mask="url(#f)"/><path fill="#ad1619" d="M4.61 9.78h1.72v9.53H4.61z" mask="url(#g)"/><path fill="#ad1619" d="M2.82 9.78h1.72v9.53H2.82z" mask="url(#h)"/><path fill="#ad1619" d="M6.4 9.78h1.72v9.53H6.41z" mask="url(#i)"/><path fill="#ad1619" d="M0-.26h8.46v9.78H0z" mask="url(#j)"/><path fill="#ad1619" d="M8.2 9h8.46v9.8H8.2z" mask="url(#k)"/><path fill="#f1f9ff" d="M8.2 0h8.97v9.52H8.2z" mask="url(#l)"/><path fill="#c88a02" d="M4.36.77v2.14h.5l.01-1.07h.77v1.07h.77v1.33h-.77v2.4h.77v1.34H1.79V6.64h.77v-2.4H1.8V2.91h.52V1.84h.77v1.07h.5V.77z" mask="url(#m)"/><path fill="#c37c9c" d="M13.72 2.12c.34.5.34 1.04 0 1.47-.16.22-.4.38-.68.52.22.3.35.47.57.72l.28.34a1.2 1.2 0 0 1 .37-.14l.18-.06c.19-.06.2-.05.2-.48v-.28l-.02-.59V3.6c-.04-1.11 0-1.54.34-1.84l.34.38c-.16.15-.2.53-.16 1.44v.03l.01.51v.2c0 .82-.06.99-.55 1.15a4 4 0 0 1-.26.08l-.16.05c.05.08.1.16.12.23.14.34.1.66-.16.84l.01.05c.03.12.03.24-.03.74a1.8 1.8 0 0 0-.01.51c-.02-.05-.1-.11-.2-.1l.36.33c-.22.24-.52.28-.65-.06a1.8 1.8 0 0 1 0-.74 3 3 0 0 0 .02-.62c-.02-.08-.03-.2-.03-.39l-.2.44c-.23-.1-.35-.2-.38-.37a.4.4 0 0 1 .01-.17l.03-.08c.03-.08.02-.12-.1-.28l-.08-.12a7 7 0 0 0-.34-.1 5 5 0 0 0 .27.65c.07.16.11.29.12.41.03.53-.4.65-.93.5-.4-.12-.6-.16-.65-.16.18 0 .27-.2.26-.27l-.76.12c-.05-.33.1-.61.48-.62.15 0 .34.03.7.13l-.1-.2-.19-.5c-.13-.45.1-.8.52-.84h.06l-.28-.5-.16.03-.03-.19-.01.02c-.21.23-.43.44-.63.6-.51.4-.99.54-1.35.14l.58-.52c-.02-.02-.05-.03-.03-.03.07-.02.19-.09.32-.2.14-.11.3-.26.46-.43a3 3 0 0 1-.64-.6 2 2 0 0 0-.42-.4l-.27-.16c-.32-.21-.3-.42-.11-.9l.71.28-.02.06a2.4 2.4 0 0 1 .7.64c.2.24.39.4.56.5l-.02-.08a3 3 0 0 0 .97-.33c-.17-.25-.31-.37-.4-.4-.02 0 0 0 .01-.01l.07-.04-.76-1.04a1 1 0 0 1 .22-.12c.6-.24 1.32.01 1.92.88z" mask="url(#n)"/><path fill="#c88a02" d="m12.6 1.22.53-.56 1.1 1.03-.53.56z" mask="url(#o)"/><path fill="#ffc034" d="M10.12 15.66c.25.98 1.02 1.46 2.44 1.46s2.19-.47 2.43-1.41v-4.77h-4.87zm5.64-5.5v5.7c-.33 1.36-1.44 2.04-3.2 2.04-1.77 0-2.87-.7-3.2-2.09v-5.64z" mask="url(#p)"/><path fill="#ffc034" d="M12.82 10.64v2.28l1.86-2.03.38.35-1.9 2.08h2.13v.77H13.1l1.95 2.13-.38.35-1.86-2.03v2.72h-.53v-3l-2.1 2.3-.38-.34 1.94-2.13H10v-.77h1.72l-1.9-2.08.37-.35 2.1 2.3.01-2.55z" mask="url(#q)"/><path fill="#f1f9ff" d="M13.76 18.8c-3.62.28-5.43-.75-5.43-3.1-.04 2.07-1.94 3.1-5.72 3.1v2.77h11.15z" mask="url(#r)"/><ellipse cx="8.33" cy="9.27" fill="#005bbf" stroke="#ad1619" stroke-width="2.67" mask="url(#s)" rx="1.92" ry="2.06"/></g></g></svg>