<svg height="32" viewBox="0 0 43 32" width="43" xmlns="http://www.w3.org/2000/svg" xmlns:xlink="http://www.w3.org/1999/xlink"><defs><path id="a" d="m0 0h42.666667v32h-42.666667z"/><mask id="b" fill="#fff"><path d="m0 0h43.335938v32h-43.335938z" fill="#fff" fill-rule="evenodd"/></mask><mask id="c" fill="#fff"><path d="m0 0h42.666667v32h-42.666667z" fill="#fff" fill-rule="evenodd"/></mask><mask id="d" fill="#fff"><use fill="#fff" fill-rule="evenodd" xlink:href="#a"/></mask></defs><g fill="none" fill-rule="evenodd"><g fill-rule="evenodd" mask="url(#b)"><g mask="url(#c)" transform="translate(.3346)"><use fill="#feca00" xlink:href="#a"/><path d="m0 0h42.666667v10.666667h-42.666667z" fill="#5eaa22" mask="url(#d)"/><path d="m0 21.333333h42.666667v10.666667h-42.666667z" fill="#e31d1c" mask="url(#d)"/><g mask="url(#d)"><g transform="translate(13.3333 8)"><circle cx="8" cy="8" fill="#2b77b8" fill-rule="evenodd" r="8"/><g fill="none"><path d="m8 10.6666667-3.68271421 1.2353713 1.1465635-3.07799268-2.49794121-2.98142397h3.46666458l1.56742734-3.17595468 1.56742734 3.17595468h3.54308356l-2.5743602 2.98142397.9137643 3.07799268z" stroke="#feca00" stroke-width="2"/><path d="m7.59481 8.045984-2.779549 5.813509" stroke="#2b77b8" stroke-width="1.333333"/><path d="m7.157454 7.305937h-5.333333" stroke="#2b77b8" stroke-width="1.333333"/><path d="m8.161949 9.116793 5.21206 2.405525" stroke="#2b77b8" stroke-width="1.333333"/><path d="m9.288903 7.831578 3.772787-4.129589" stroke="#2b77b8" stroke-width="1.333333"/></g></g></g></g></g><rect height="32" mask="url(#b)" rx="2" width="43.335938"/></g></svg>