<svg height="32" viewBox="0 0 43 32" width="43" xmlns="http://www.w3.org/2000/svg" xmlns:xlink="http://www.w3.org/1999/xlink"><defs><path id="a" d="m0 0h42.666667v32h-42.666667z"/><path id="b" d="m0 0h12.8735632v11.1111111c-.7196961 3.2592593-2.8652899 4.8888889-6.43678159 4.8888889-3.57149167 0-5.71708554-1.6296296-6.43678161-4.8888889z"/><path id="c" d="m0 0h24v18.666667h-24z"/><mask id="d" fill="#fff"><path d="m0 0h43.335938v32h-43.335938z" fill="#fff" fill-rule="evenodd"/></mask><mask id="e" fill="#fff"><path d="m0 0h42.666667v32h-42.666667z" fill="#fff" fill-rule="evenodd"/></mask><mask id="f" fill="#fff"><use fill="#fff" fill-rule="evenodd" xlink:href="#a"/></mask><mask id="g" fill="#fff"><use fill="#fff" fill-rule="evenodd" xlink:href="#b"/></mask><mask id="h" fill="#fff"><use fill="#fff" fill-rule="evenodd" xlink:href="#c"/></mask></defs><g fill="none" fill-rule="evenodd"><g fill-rule="evenodd" mask="url(#d)"><g mask="url(#e)" transform="translate(.3346)"><use fill="#67bfe5" xlink:href="#a"/><g mask="url(#f)"><g fill-rule="evenodd" transform="translate(26.6667 13.3333)"><use fill="#f7fcff" xlink:href="#b"/><g fill="#c3352c" mask="url(#g)"><path d="m0 0h12.873563v4h-12.873563z"/><path d="m5.517241 3.555556h1.83908v12.444444h-1.83908z"/><path d="m0 8.444444h12.873563v1.777778h-12.873563z"/></g><g fill="none"><g mask="url(#g)"><path d="m4.31857546 4.08144669c-.44587957.64484676-1.07667756.21773402-1.85075224-.87645807-.41490906-.55268889-.78878295-.85169924-1.10112035-.91456872-.62360177-.12552298-1.79824617-1.17031019-1.59985128-1.74028287.13040914-.37465504.33198937-.37781369 1.13669662-.27672947l.05490955.0069439c.2798958.03555274.38079754.04602983.47402152.04602983.07939903 0-.27258234.1398374.55816345-.2109339.44172948-.18651437.84553461-.27760804 1.36236616-.26180861l.24741197.47416294c.04825881.01450458.12478877.03127656.23010069.04818635.05370409.0084558.05370409.0084558.10932288.01698532.35588559.05495259.46870319.08538221.5942069.2372044.23882393.28890601.07718231.55117774-.28719878.82975175-.40228981.3075557-.46431876.42007587-.4549601.50291261.02470792.06052177.02004272.22283572-.10517278.34458783-.00505485.00491504-.01006216.00962021-.0150336.01412423.10438818.17903342.28720765.43573559.5461581.76482905.44641813.08871147.4140797.5418879.10073129.99506343zm-.79033883-1.67810042c-.05137586.01389409-.10974869.01699072-.18541292.01699072.09617044 0 .1591295-.02269144.20099372-.05118652zm-3.12229265-1.55692316c-.01649882-.01930813-.02092077-.04425406-.00947706-.0771309-.00235931.00677809.00516384.0213957.02082865.0421665zm.01135159-.0349644c.13063838.17322038.82752159.77438911 1.08096012.82540301.50482284.10161431.99889544.49675509 1.50824719 1.17546853.51740001.73121712.75993697.89543867.76372454.88996095.10025882-.14499782.10025882.03516772.27417402.03516772l-.26041792-.12526215c-.36268377-.45392808-.60637557-.79705309-.73535971-1.03920421-.18501652-.34734471-.21311097-.69487608.09521604-.79241117.05433763-.23015484.22645583-.46617418.56929156-.74824801-.27580613-.04483834-.43621726-.0911321-.57813467-.20125036-.10584869-.08213137-.17073972-.18308604-.19691628-.29474286-.23655063.02903959-.45206984.0936033-.68811553.19327044-1.17697604.49696239-.58917579.26343735-.81748565.26343735-.13377745 0-.24354044-.01139719-.55802742-.05134374l-.05399475-.00682835c-.17901556-.02248725-.36078945-.02558139-.41451313-.08845275zm2.70681658 1.22488717c.00473372-.00392147.00419016-.00917648.00369788-.01442725zm.19317832-.28232655c.00836575-.00023201.01687636-.00034901.02553324-.00034901-.00547258 0-.01068804.00014768-.01619992.00104837z" fill="#979797" fill-rule="nonzero" transform="translate(.9195 11.1111)"/></g><g mask="url(#g)"><g stroke-width="1.333333" transform="translate(0 4.8889)"><path d="m2.20673311 3.25802301c-.42407195-.58668251-.63610792-.98459858-.63610792-1.19374824" stroke="#964c36"/><g stroke="#2a8e51"><path d="m1.8116915 2.50155182c-.54221397-.23156915-.81332096-.23156915-.81332096 0"/><path d="m1.79844748 2.13627544c-.38138187-.48517025-.71543586-.72775538-1.00216197-.72775538-.2867261 0-.42666442.12129256-.41981496.36387769"/><path d="m1.47195644 1.40706402c-.17019011-.79356694-.39156093-1.19035041-.66411246-1.19035041-.27255152 0-.40882728.19839173-.40882728.5951752"/><path d="m1.57526916 1.40472907c-.07591487-.68009453.0615976-1.0201418.41253741-1.0201418"/></g></g></g><g mask="url(#g)"><g stroke-width="1.333333" transform="matrix(.93969262 .34202014 -.34202014 .93969262 2.055461 4.158497)"><path d="m2.20673311 3.25802301c-.42407195-.58668251-.63610792-.98459858-.63610792-1.19374824" stroke="#964c36"/><g stroke="#2a8e51"><path d="m1.8116915 2.50155182c-.54221397-.23156915-.81332096-.23156915-.81332096 0"/><path d="m1.79844748 2.13627544c-.38138187-.48517025-.71543586-.72775538-1.00216197-.72775538-.2867261 0-.42666442.12129256-.41981496.36387769"/><path d="m1.47195644 1.40706402c-.17019011-.79356694-.39156093-1.19035041-.66411246-1.19035041-.27255152 0-.40882728.19839173-.40882728.5951752"/><path d="m1.57526916 1.40472907c-.07591487-.68009453.0615976-1.0201418.41253741-1.0201418"/></g></g></g><g mask="url(#g)"><g stroke-width=".933333" transform="matrix(-.97437006 .22495105 .22495105 .97437006 5.086771 4.675895)"><path d="m2.20673311 3.25802301c-.42407195-.58668251-.63610792-.98459858-.63610792-1.19374824" stroke="#964c36"/><g stroke="#2a8e51"><path d="m1.8116915 2.50155182c-.54221397-.23156915-.81332096-.23156915-.81332096 0"/><path d="m1.79844748 2.13627544c-.38138187-.48517025-.71543586-.72775538-1.00216197-.72775538-.2867261 0-.42666442.12129256-.41981496.36387769"/><path d="m1.47195644 1.40706402c-.17019011-.79356694-.39156093-1.19035041-.66411246-1.19035041-.27255152 0-.40882728.19839173-.40882728.5951752"/><path d="m1.57526916 1.40472907c-.07591487-.68009453.0615976-1.0201418.41253741-1.0201418"/></g></g></g><g mask="url(#g)"><g transform="translate(7.8161 4.8889)"><g fill-rule="evenodd" stroke="#2a8e51" stroke-width=".933333"><path d="m1.11457931 2.8468948c.2150806-.98973897.62869147-1.48460846 1.24083259-1.48460846s1.05515841.5228493 1.32905184 1.5685479"/><path d="m.35629273 1.83332433c.32964002-.58461878 1.0383864-.85302622 2.12623912-.80522232 1.08785273.0478039 1.73091492.31621134 1.92918658.80522232"/><path d="m.02657881.718223c.59758569-.74018465 1.31512444-.79657773 2.15261624-.16917926l.42558031.16917926c.28449601-.83882175 1.11398971-.83882175 2.48848112 0"/></g><path d="m2.96255922 3.11336858c-.42407195-.82187265-.63610792-1.3793059-.63610792-1.67229978" stroke="#964c36" stroke-width="1.333333" transform="matrix(.8660254 .5 -.5 .8660254 1.492896 -1.017163)"/></g></g><g mask="url(#g)"><g transform="translate(7.8161 10.6667)"><path d="m4.31562576.41852129c-.5494791-.25840865-.90641219-.25840865-1.07079929 0s-1.23675605 1.57477543-3.21710686 3.94910034" fill="none" stroke="#964c36" stroke-width="1.333333"/><g fill-rule="evenodd"><path d="m1.46967414.79358168 1.84107841 1.28698544c.56489038-.40297036.70611298-.71821053.42366779-.94572049-.42366779-.34126495-1.5780876-.94296168-1.5780876-.94296168s-.2288862.20056557-.6866586.60169673z" fill="#fff203"/><path d="m1.40603122.85937933c-.28434782.29767573-.42652173.56026858-.42652173.78777854 0 .34126495-.39684073 1.25608676-.39684073 1.25608676s1.1098983.6832196 1.34035417.24801713 1.7272061-.17463275 1.4632164-.83936832c-.17599313-.44315704-.8360625-.92732842-1.98020811-1.45251411z" fill="#00a651"/></g></g></g></g><path d="m1.40843222 1.57639322c.65536777-.33629909 1.14526049-.33629909 1.46967814 0 .48662648.50444863.88531915-.04179599.88531915-.34609287s.7726977-1.34892075.7726977-.50141394-.24051361 1.32602262.43865101 1.32602262c.67916463 0 3.73750516-1.17070155 4.47088079-.82460868.73337559.34609287 1.29457409.26001796 1.10814419-.23656806-.1864299-.49658603-.66554824-.80695229-1.58815336-.53589909-.92260513.27105321-.70487032.53589909-1.50225565.53589909-.79738534 0-1.68486784-.26484588-1.68486784-.26484588s.24931888-.44533222 1.1596487-.12856152c.91032982.31677071 2.16597905-.3922998 2.50748396-.3922998s1.28137249-.02124509 1.37452989.24980811c.0931574.27105321.6606603.5197783.2280842.77246715s-1.1458742.41097158-.6550936.73472051c.4907806.32374894 1.6193866.26135533 1.6737663.59811662s.5892775.83964555.3745989.83964555c-.2146787 0-.6026453.47427352-.9639143.32986515-.3612691-.14440836-.4037579-.27120695-.0573335-.38819496s.3430541-.6089534.0573335-.6089534c-.2857207 0-.1462875.17236234-.7968368 0-.6505494-.17236234-1.51157394-.36397639-1.45980719 0s.47533008.92268652-.30613197.99714836c-.78146204.07446185-1.14725323.37341754-1.29935674.13266852s-.69576479-.56154247-.26826309-.66440983c.4275017-.10286735.83603109.3496505.99000593.27576333.15397483-.07388717.50297436-.11501769.21066453-.42809403-.29230982-.31307635-.77422909-.49739413-.32745214-.73172925.44677696-.23433511.09421139-.23914813-.75705874.24629056s-1.32474464.89797537-2.07208684.83964555c-.74734219-.05832981-1.0272689.02036002-1.26747115-.05832981-.24020226-.07868983-1.41008533.86944671-1.74696682.62882084-.33688149-.24062588-1.42443763-.33294379-1.22865556-.62882084s.45862991-.44820776.75139416-.29587705c.29276425.1523307.58366434.30466141.78108336.1523307.19741902-.1523307.76756417-.67504136.62415475-.77955065-.14340942-.1045093-.00469574-.45633536-.8166801-.45633536s-1.09743992.39210377-1.29019248.14504922c-.1285017-.16470304-.0583488-.34259532.21045871-.53367686z" fill="#ffd100" mask="url(#g)"/></g></g><g mask="url(#f)"><use fill="#2b409a" xlink:href="#c"/><g mask="url(#h)"><g fill-rule="nonzero"><path d="m1.32764499 3.28505196 5.28126726-2.31626725 21.51092825 17.13103699 2.7857478 3.4420421-5.6475555.7741648-8.7737935-7.382254-7.06200197-4.97391428z" fill="#f7fcff" transform="matrix(1 0 0 -1 -4 20.6181)"/><path d="m2.05065842 2.76731119 2.69056181-1.34416892 25.16402527 21.54362063h-3.7778619z" fill="#f50100" transform="matrix(1 0 0 -1 -4 21.7233)"/><path d="m1.32764499 3.28505196 5.28126726-2.31626725 21.51092825 17.13103699 2.7857478 3.4420421-5.6475555.7741648-8.7737935-7.382254-7.06200197-4.97391428z" fill="#f7fcff" transform="matrix(-1 0 0 -1 28 20.6181)"/><path d="m1.50784817 3.09890547 2.6905618-1.34416891 10.71510273 9.22394324 3.176798 1.030569 13.0833277 10.4993758h-3.7778619l-13.075977-10.2501652-3.4732688-1.2357627z" fill="#f50100" transform="matrix(-1 0 0 -1 28 21.5967)"/></g><path d="m14.3127673-1-.000682 7.99909357 10.6879147.00099999v4.66663544l-10.6879147-.0006666.000682 8.0006043h-4.66675002l-.00001536-8.0006041-10.64600192.0006667v-4.66663537l10.64600192-.001.00001536-7.99909393z" fill="#f50100" stroke="#f7fcff" stroke-width="2"/></g></g></g></g><rect height="32" mask="url(#d)" rx="2" width="43.335938"/></g></svg>