<svg height="32" viewBox="0 0 43 32" width="43" xmlns="http://www.w3.org/2000/svg" xmlns:xlink="http://www.w3.org/1999/xlink"><defs><path id="a" d="m0 0h42.666667v32h-42.666667z"/><path id="b" d="m0 0h24v18.666667h-24z"/><mask id="c" fill="#fff"><path d="m0 0h43.335938v32h-43.335938z" fill="#fff" fill-rule="evenodd"/></mask><mask id="d" fill="#fff"><path d="m0 0h42.666667v32h-42.666667z" fill="#fff" fill-rule="evenodd"/></mask><mask id="e" fill="#fff"><use fill="#fff" fill-rule="evenodd" xlink:href="#a"/></mask><mask id="f" fill="#fff"><path d="m.05059504.04358788c0 7.84904105-.48103949 13.24173012 5.21637335 13.24173012 5.69741281 0 5.69741281-6.62086507 5.31974801-13.24173012z" fill="#fff" fill-rule="evenodd"/></mask><mask id="g" fill="#fff"><use fill="#fff" fill-rule="evenodd" xlink:href="#b"/></mask></defs><g fill="none" fill-rule="evenodd"><g fill-rule="evenodd" mask="url(#c)"><g mask="url(#d)" transform="translate(.3346)"><use fill="#2e42a5" xlink:href="#a"/><g mask="url(#e)"><g transform="translate(29.3333 13.3333)"><path d="m10.271578.37692122c.2000066 3.62251493.271355 7.21605349-.7094859 9.65752838-.37387492.9306363-.90265241 1.6892968-1.65217126 2.1982526-.68612565.4659091-1.55432407.7192825-2.64295245.7192825-1.05515778 0-1.88683543-.1907395-2.53889884-.5646516-.67762533-.38857-1.1546928-.974716-1.49501289-1.726747-.90258694-1.99451433-.87205833-5.10252353-.85434628-8.9122544.00208164-.44774648.00420718-.9050938.00494568-1.37141048z" stroke="#f7fcff" stroke-width=".666667"/><g fill="none" fill-rule="evenodd" mask="url(#f)"><g transform="translate(-2.6667)"><path d="m6.02918022 4.78264463c-.35082771-.259461-.60145788-.59937504-.75189051-1.0197421-.22564895-.63055059-.67214146-2.30912755-.67214146-2.4548858 0-.14575826-.59413051 0-.59413051 0s.00828164-.70984082.23249919-.70984082c.22421756 0 .23260143-.65817489.77658205-.49242909.54398062.16574581.97176277.7735747 1.52612099.7735747s2.87168192.17677667 3.24415094.17677667c.37246899 0 1.35440489.78621701 1.35440489 1.37471399s-.2677728 1.46530925-.4783921 1.46530925-.4756316.51015389-.87601279.34176822-1.35624526-.51515078-2.21247413-.34176822c-.85622887.17338255-1.03167681.06439385-1.03167681.34176822 0 .18491626-.17234658.36650125-.51703975.54475498z" fill="#e1e5e8" fill-rule="evenodd"/><path d="m4.8 4.3715847h6.8740741l-1.1839563 1.53005464h-4.85702459z" fill="#49801e" fill-rule="evenodd"/><path d="m4.71056015 11.0608241c.79200706.2832922 1.35352225.4077212 1.68454557.373287.54985774-.0571981 1.03666126-.6840016 1.40414888-.6840016.36681809 0 1.07308803.6270117 1.62161232.6840016.33149076.0344408.82051818-.0899882 1.46708208-.373287" fill="none" stroke="#fff" stroke-width="1.422222"/><path d="m3.40584505 9.24831873c.27387328-.23190614.70877831-.35633513 1.3047151-.37328695.79200706.28329216 1.35352225.40772115 1.68454557.37328695.54985774-.05719811 1.03666126-.68400157 1.40414888-.68400157.36681809 0 1.07308803.62701169 1.62161232.68400157.33149076.03444081.82051818-.08998818 1.46708208-.37328695.3613206-.40627924.7688567-.39491723 1.2226084.03408603" fill="none" stroke="#fff" stroke-width="1.422222"/><path d="m3.28101506 7.37300081-.89913547-1.10193986c.35255108-.28766651.94452775-.57117066 1.8086716-.88453206l.41941261-.02021873c.89591578.23023394 1.49488672.33001286 1.71421641.30802751.07238127-.00725541.19332608-.06603823.41426095-.21258431.62741207-.41616236.68830853-.45007736 1.06081344-.45007736.34044522 0 .41066761.03264926 1.12228724.41696603.13213111.07080886.18173724.09656856.2532268.13088758.15023845.07212294.25788216.10888699.31693824.11479949.17097431.01711739.51494342-.06267484.99637192-.25639961.6260642-.56904895 1.4191624-.51010092 2.1013901.1114494.4551157.41463763.8204195.74960384 1.0961868 1.00515949l-.9667082 1.04316413c-.2723882-.25242425-.6349138-.584843-1.0873016-.99699538-.1798714-.16387364-.1411926-.16283452-.2211287-.07622219l-.2459676.17282372c-.7469921.31539432-1.33677113.45999899-1.81452263.41216809-.25647242-.02567718-.50448124-.11038076-.79075693-.24780927-.09586447-.04602036-.16428996-.08155265-.31355296-.16163544-.34343943-.18547765-.47389938-.24613382-.44646248-.24613382.05984411 0-.02316658.04623105-.27467115.21305401-.4046191.26838381-.68607348.40517911-1.05855222.44251595-.41176978.04127532-1.0539981-.0580294-1.99322323-.29092151-.61012999.23071272-1.01544251.43055978-1.19179294.57445414z" fill="#fff" fill-rule="nonzero"/></g></g></g></g><g mask="url(#e)" stroke-width="1.333333"><g transform="translate(29.3333 22.4)"><path d="m1.28435176 2.12495683c.87462033.83774511 1.04786664 1.54043048.51973893 2.10805612-.5281277.56762565-1.03431956.68658968-1.51857557.35689211" stroke="#b85f3c"/><path d="m9.58064805 2.12495683c.87462035.83774511 1.04786665 1.54043048.51973895 2.10805612-.52812772.56762565-1.03431957.68658968-1.51857558.35689211" stroke="#b85f3c" transform="matrix(-1 0 0 1 18.9804 0)"/><path d="m.42760315 3.13754447c1.50685214 1.43996449 3.18648164 2.15994674 5.03888853 2.15994674 1.85240688 0 3.52390814-.55004049 5.01450382-1.65012147" stroke="#cb8b73"/></g></g><g mask="url(#e)"><use fill="#2b409a" xlink:href="#b"/><g mask="url(#g)"><g fill-rule="nonzero"><path d="m1.32764499 3.28505196 5.28126726-2.31626725 21.51092825 17.13103699 2.7857478 3.4420421-5.6475555.7741648-8.7737935-7.382254-7.06200197-4.97391428z" fill="#f7fcff" transform="matrix(1 0 0 -1 -4 20.6181)"/><path d="m2.05065842 2.76731119 2.69056181-1.34416892 25.16402527 21.54362063h-3.7778619z" fill="#f50100" transform="matrix(1 0 0 -1 -4 21.7233)"/><path d="m1.32764499 3.28505196 5.28126726-2.31626725 21.51092825 17.13103699 2.7857478 3.4420421-5.6475555.7741648-8.7737935-7.382254-7.06200197-4.97391428z" fill="#f7fcff" transform="matrix(-1 0 0 -1 28 20.6181)"/><path d="m1.50784817 3.09890547 2.6905618-1.34416891 10.71510273 9.22394324 3.176798 1.030569 13.0833277 10.4993758h-3.7778619l-13.075977-10.2501652-3.4732688-1.2357627z" fill="#f50100" transform="matrix(-1 0 0 -1 28 21.5967)"/></g><path d="m14.3127673-1-.000682 7.99909357 10.6879147.00099999v4.66663544l-10.6879147-.0006666.000682 8.0006043h-4.66675002l-.00001536-8.0006041-10.64600192.0006667v-4.66663537l10.64600192-.001.00001536-7.99909393z" fill="#f50100" stroke="#f7fcff" stroke-width="2"/></g></g></g></g><rect height="32" mask="url(#c)" rx="2" width="43.335938"/></g></svg>