<svg height="32" viewBox="0 0 43 32" width="43" xmlns="http://www.w3.org/2000/svg" xmlns:xlink="http://www.w3.org/1999/xlink"><defs><path id="a" d="m0 0h42.666667v32h-42.666667z"/><mask id="b" fill="#fff"><path d="m0 0h43.335938v32h-43.335938z" fill="#fff" fill-rule="evenodd"/></mask><mask id="c" fill="#fff"><path d="m0 0h42.666667v32h-42.666667z" fill="#fff" fill-rule="evenodd"/></mask><mask id="d" fill="#fff"><use fill="#fff" fill-rule="evenodd" xlink:href="#a"/></mask></defs><g fill="none" fill-rule="evenodd"><g fill-rule="evenodd" mask="url(#b)"><g mask="url(#c)" transform="translate(.3346)"><use fill="#63b3e1" xlink:href="#a"/><g fill="#f7fcff" mask="url(#d)"><g transform="translate(8 2.6667)"><path d="m13.3333333 7.06665039-2.351141 1.23606798.449028-2.61803399-1.90211303-1.85410197 2.62865553-.38196601 1.1755705-2.38196601 1.1755705 2.38196601 2.6286556.38196601-1.902113 1.85410197.4490279 2.61803399z"/><path d="m13.3333333 23.0666504-2.351141 1.236068.449028-2.618034-1.90211303-1.854102 2.62865553-.381966 1.1755705-2.381966 1.1755705 2.381966 2.6286556.381966-1.902113 1.854102.4490279 2.618034z"/><path d="m5.06673177 15.3333333-2.35114101 1.236068.44902798-2.618034-1.90211303-1.8541019 2.62865556-.3819661 1.1755705-2.38196597 1.17557051 2.38196597 2.62865556.3819661-1.90211304 1.8541019.44902798 2.618034z"/><path d="m21.3333333 15.3333333-2.351141 1.236068.449028-2.618034-1.902113-1.8541019 2.6286555-.3819661 1.1755705-2.38196597 1.1755705 2.38196597 2.6286556.3819661-1.902113 1.8541019.4490279 2.618034z"/></g></g></g></g><rect height="32" mask="url(#b)" rx="2" width="43.335938"/></g></svg>