<svg height="32" viewBox="0 0 43 32" width="43" xmlns="http://www.w3.org/2000/svg" xmlns:xlink="http://www.w3.org/1999/xlink"><defs><path id="a" d="m0 0h42.666667v32h-42.666667z"/><mask id="b" fill="#fff"><path d="m0 0h43.335938v32h-43.335938z" fill="#fff" fill-rule="evenodd"/></mask><mask id="c" fill="#fff"><path d="m0 0h42.666667v32h-42.666667z" fill="#fff" fill-rule="evenodd"/></mask><mask id="d" fill="#fff"><use fill="#fff" fill-rule="evenodd" xlink:href="#a"/></mask><mask id="e" fill="#fff"><path d="m0 0h42.666667v32h-42.666667z" fill="#fff" fill-rule="evenodd"/></mask></defs><g fill="none" fill-rule="evenodd"><g fill-rule="evenodd" mask="url(#b)"><g mask="url(#c)" transform="translate(.3346)"><use fill="#2e42a5" xlink:href="#a"/><g mask="url(#d)"><g mask="url(#e)"><g fill-rule="nonzero"><path d="m2.06396147 5.63151765 9.38891953-3.97074386 38.2416502 29.36749201 4.9524406 5.9006435-10.0400987 1.3271397-15.5978551-12.6552926-12.5546702-8.5267101z" fill="#fff" transform="matrix(1 0 0 -1 -6.8148 35.3454)"/><path d="m3.34931867 4.74396204 4.78322099-2.30428957 44.73604494 36.93192103h-6.7161989z" fill="#f50100" transform="matrix(1 0 0 -1 -6.8148 37.2398)"/><path d="m2.06396147 5.63151765 9.38891953-3.97074386 38.2416502 29.36749201 4.9524406 5.9006435-10.0400987 1.3271397-15.5978551-12.6552926-12.5546702-8.5267101z" fill="#fff" transform="matrix(-1 0 0 -1 49.4815 35.3454)"/><path d="m2.38432267 5.31240939 4.78322099-2.30428958 19.04907154 15.81247409 5.6476409 1.7666897 23.2592492 17.99893h-6.716199l-23.2461813-17.5717117-6.1747001-2.1184504z" fill="#f50100" transform="matrix(-1 0 0 -1 49.4815 37.023)"/></g><path d="m27.7036713 1.33333333-.0003236 13.33297657 19.0000324.0003334v8.0000234h-19.0000324l.0003236 13.3333333h-7.4074l-.0002495-13.3333333h-18.92597503v-8.0000235l18.92597503-.0003333.0002495-13.33297657z" fill="#f50100" stroke="#fff" stroke-width="2.666667" transform="translate(-2.6667 -2.6666)"/></g></g></g></g><rect height="32" mask="url(#b)" rx="2" width="43.335938"/></g></svg>