<svg height="32" viewBox="0 0 43 32" width="43" xmlns="http://www.w3.org/2000/svg" xmlns:xlink="http://www.w3.org/1999/xlink"><defs><path id="a" d="m0 0h42.666667v32h-42.666667z"/><mask id="b" fill="#fff"><path d="m0 0h43.335938v32h-43.335938z" fill="#fff" fill-rule="evenodd"/></mask><mask id="c" fill="#fff"><path d="m0 0h42.666667v32h-42.666667z" fill="#fff" fill-rule="evenodd"/></mask><mask id="d" fill="#fff"><use fill="#fff" fill-rule="evenodd" xlink:href="#a"/></mask></defs><g fill="none" fill-rule="evenodd"><g fill-rule="evenodd" mask="url(#b)"><g mask="url(#c)" transform="translate(.3346)"><use fill="#5daa22" xlink:href="#a"/><path d="m0 0h42.666667v16h-42.666667z" fill="#f7fcff" mask="url(#d)"/><g fill="#d21034" fill-rule="nonzero" stroke="#000" stroke-width=".333333"><path d="m28.7458536 3.48192422c-.1628649.19734269-.3040982.4050598-.4132733.59963177-.3072353.54755534-.5710221 1.36604774-.4650764 1.98399779.0365304.2130713.1183434.40144862.2689983.53628767.1344782.1203606.3218531.19562671.5696259.21645259.4951177-.00699647 5.5905604-2.30782286 5.5905604-2.30782286s.0109204-.00493104.0317829-.0143724l.091436-.0414343c.2386123-.10824756.7999284-.3637201 1.4726601-.67553954-.4831871.30109598-.9734464.66334801-1.4252998 1.01494476-1.0188777.79281052-2.1382578 1.76159481-2.4319406 2.60325698-.0955583.2738594-.0978975.53330785.0527972.7608018.1470249.22195411.4269617.40868544.8615642.56150796.2570904.09040257.479396.13767606.6705777.14446642-.228845.04127927-.4545917.09832784-.673361.17094334-1.1473482.38083623-2.1924842 1.2196225-2.6694337 2.2051371-.207923.4296286-.3067982.8871971-.2525203 1.3453144.0493591.4166014.225745.832489.5564746 1.2278417l.3587643.428865-.5350212-.1624481c-.5190874-.1576102-1.1158897-.061595-1.6221456.1687651-.4405162.2004468-.8190266.5037186-1.0077296.8435152.2920437.0138889.6934061.0490227 1.1589216.0900734 1.3166713.1161084 3.1566778.279919 4.4579538.1186398.436919-.0541514.8113455-.1437058 1.076907-.2899137-.50942.111996-1.2412711.1065557-1.8300536-.1441582-.3314563-.1411399-.618146-.3587889-.8206002-.6600198-.1810417-.2693712-.2956102-.6063988-.3102331-1.0268295.0044711-.4238887.157351-.801415.4166615-1.1088328.2653399-.3145656.6435066-.5556658 1.0882722-.6937072.7525225-.2335594 1.6977167-.1723389 2.5879965.3246896-.3229549-.7088726-.8210414-.6693708-1.3728975-.8068815 1.3272394-1.70064533 2.6497221-3.09999498 3.8471157-4.67702045.1399541-.1843264.2771111-.36964682.4117821-.55563117-.0461383.23269446-.084578.46011052-.1138521.67855464-.2599602 1.93983111-.0089224 4.75251578.442986 5.67230108-.698063.041862-1.232817-.3547392-1.5876865-.8810882-.0711661.2359055-.1422797.471823-.2133933.7077404-.1024879.3400005-.2049757.680001-.3074285 1.0203624.9853641 2.2272651-.0116525 5.4563013-.621002 7.2948117l-.1760571.527895c-.1187156.3569012-.1994265.6142274-.1994265.7359217-.351723.2537805-.570673.2449412-.7733413.1752252-.2471988-.0850341-.4698834-.269171-.6905335-.4574558-.0338217.7014948-.2096501 1.8341272-.3733047 2.8451804-.0700949.4330444-.1365431.8426596-.1703982 1.1943812-.0416025.4322101.1246578.7438588.2230843.9124199.2965749.1801453.7923879.433209.9738215.5371126.0974386.0137572.3527403.0749204.5766303.3455096.1278195.1544804.2471409.3813473.3093789.7185064l.1249025.6766281-.4206859-.5444718c-.3253469-.4210796-.7721203-.2983648-.7721203-.2983648l-.8112723-.1660033c-.2379271-.1749404-.4774706-.2626474-.7228048-.2759625-.2607555-.014152-.5265003.0544673-.8016132.1820531-1.4949697-.1324831-1.8173608-.058752-1.9134646-.0244753-.5473608.3731279-.7649948.5280724-.7649948.5280724-.432313-.0058596-.8188555.037128-1.3070123.3703539-.1011732-1.0301575.3897803-1.169896.5958195-1.1899258.1574563-.209332.3361719-.3184638.5167925-.3845091-.3535699.0070321-.6264459.0094599-.8394653.0100151l-.2282258-.0000578c-.0336936-.0001012-.0653264-.0002336-.095065-.0003753l-.1570353-.0007876c-.2054589-.000825-.2844961.0011333-.3586354.0218061-1.2233358.2390693-.5460813-.2759851-.3773289-.4866623.1256014-.1568057.3003538-.2558134.4737509-.3341143-.3413531-1.1493489-.0410399-1.2587012.1977882-1.3794115.1968028-.0994696.4227028-.1465502.614081-.1584283l1.7820583 1.2096537c.1704413.0736628.4775609.0615239.7830673-.0254501.2686375-.076478.5402935-.2148613.7274368-.4276209.243498-.2768281.2331055-.7977033.2359155-1.0631449.0236743-.5141701.001399-.9625424-.0171815-1.3395226-.0154402-.313268-.0123606-.5720863.006974-.7435935-.2247962-.1227933-.3713801-.3176821-.4573496-.4529473-.3588899.0202834-1.5835941.2308581-2.7948556-.1236424-1.0491796-.3070638-2.1076272-.920667-2.7488592-1.2933807-.5771644-.0079345-.6686267.0681698-.8217848.1959052-.3979586.387757-.4741094.6162952-.4657974.8470734.0090126.2502304.0977339.4978784.2294757.6617858l1.3943217.5661276c.5331946.0378317.8832405.2107543 1.1107319.445895.2922599.302087.387058.7162124.3771941 1.1274524-.5437047.0504176-1.0942142-.1568263-1.4603658-.2957588-.9482255 1.3265867-2.0911689 2.3221273-3.6438555 2.8688311.6463139.1511944.8362632.1999996.9248205.2361776.3212915.0731595.5868767.1722296.7651476.3364211.1672447.1540362.2681431.363086.2656904.6674117-1.5424279.1426449-1.8677357-.0576562-2.186961-.2821562-.5368038-.3373597-.6866453-.3970135-.8352649-.3950929-.1810128.0023393-.3546698.0801831-.5186725.1701326-.4527542-.2031793-.7654677-.1372727-1.084673-.0865106-.7063251.0836677-1.2919686.1998873-1.5436435.5052154-.8776216-.1624972-1.1427651.2753984-1.1427651.2753984s-.1419261.2343968-.0162328.5639341c-.1228834-.1122427-.2305677-.2953741-.2971616-.599753-.076363-.3490303-.0370567-.5757584.0507388-.7328768-.4796976-.6072824-.6041435-.5342439-.7301644-.4111416-.2329555.2802836-.2924897.0848235-.2829603-.1267238.0151421-.3361451.2003026-.6161582.4339033-.7949063 1.6419204.1232081 2.2408606.1811813 2.5831524.1391727-.8717731-.4602844-1.1173813-.5379287-1.263118-.6406168-.4594349-.3368954-.6215836-.3264736-.7771142-.2051124.6397453-1.0008898.8759407-.9997522 1.0730617-.9909555 1.3102379.9612111 1.8238356 1.1652706 2.2407776 1.2384557.7602712-.1030244 1.5203122-.7477305 2.0055216-1.1510613-.3512516-.5514876-.5152857-.7929099-.7201076-1.0910639-.3029088-.4409366-.6960994-1.0358796-1.334306-1.2164798-1.0969814-.3104248-3.5657202.6024058-4.1701603.8315431-.1538489.6897-.6373448 1.2884486-.6373448 1.2884486-.3643539-.2576892-.4654437-.4524545-.5632813-.6417526-.1392673-.2694568-.2696829-.5290684-.3371228-.8024607-.4168023.5417831-.7457224.878588-1.0740499 1.2146099-.1961947.2007926-.3921875.4012832-.6096495.6497632-.4721695.5173892-.7249639 1.1216723-.8998568 1.7855201.2650376.128654.6975488.2477666 1.2949524.3627805.2864553.0090009.5309229.1055088.7022499.2759217.1647305.1638515.2665106.398204.2638058.7049188-.0017697.2006637-.0477083.3695707-.1261751.5073675-.4486121-.7104246-.747541-.5715564-.7878587-.550627-.1799307.1541767-.3798624.2131307-.5900445.2131307-.2507191 0-.5181145-.089743-.7781516-.1937388-.2344665-.2395248-.4454669-.3938688-.6674851-.4427343-.1715212-.0377514-.3481681-.0069611-.5055146.1179594-.3167687.2751528-.549528.2261863-.8225869.1574106-.2049731-.0516268-.43996296-.1121266-.80888598.1022765-.30737566.2922439-.66944302.457541-.99136839.5120912-.76319237-.193796-1.11575948-.210174-1.73164103.0120343-.14041112-.7042308.00779562-.9677523.16843507-1.0879976l-1.12534273.3196523.11473519-.5042248c.08199531-.3603434.26660174-.5640616.48726943-.6777381.21564053-.1110867.47386857-.1310439.71673131-.1125234-.75423139-.7304167-.498988-.9448084-.37964025-1.0919513.94454423-.3012912 1.56553386.0251683 1.95272253.2630319.16519565.0639593.35583955.0236408.55878384-.0703003.2820426-.130555.58578907-.3688663.89046881-.6601719.9053865-.8656442 1.8112971-2.1997788 2.1462961-2.7422875-.5999743-.0044259-1.2306611.0684167-1.7072113.229452-.1756081.5090953-.4652959.7941499-.80741577 1.1235249-.43941291-1.4136837-1.10105127-2.156379-2.03759722-3.2205751-1.11429166-.8438792-1.69102327-2.1148824-1.93286933-2.8920979-.36626552.5048212-.73609111.8277063-.99131107.973915.27913657-1.958727.31951665-2.3438509.35872459-2.7291551.03591064-.3529009.07182091-.7057982.10766473-1.0589048-.11187381-.1159772-.19409515-.3269557-.2761323-.6168119-.05162758-.1824122-.11101453-.3934602-.20288416-.6118914-.23258054-.5529887-.64826225-1.1924913-.83400513-1.2457581-.1353166-.0388057-.53901466.1215615-.93777123.3450774.1137544-.249425.31499147-.5511067.95340644-.6691739.72301035-.1337121 1.0066187.1530345 1.20263861.3586293.32178357.2331394.46820938.5383601.59643689.8804293l.02623355.0716546-.00650223-.0641819c-.02015902-.3138767.05152944-.6275703.15957831-.9730315l.04837104-.1500929c-.0058535-.3332855-.1369948-.6584648-.44809238-.8526857-.15540268-.0970192-.32044727-.1393455-.48436389-.1398255.15673057-.0968046.34476055-.1625069.56841173-.1681648.29759611-.0075287.53757879.0943082.72666922.2368967.29436983.2219772.46022289.5460098.52387836.6763302.24149077.3493916.25571376.6381613.2048626.884025.25985931-.1205602.33367332-.3046703.32460394-.6196418.5107173.0094202.62426478.2005207.66152136.4045377.04277952.2342606-.02634774.4947666-.11932894.7538482.01291125.3285093-.00934132.5399193-.07888162.6998589-.06806838.1565543-.17896028.2710625-.36179814.3866267.04797948 1.078354.12069684 2.3720462.14222355 2.7488725.20122596.0878197.3488748.2228752.45107188.3783212.10573387.1608256.16215672.3443861.17703265.5215815.18652771.0187024.36223394.0918613.51002072.1973661.1729916.1234985.30519312.2904024.3752821.4595553.43852352-.011387.6477438.0906928.79256287.2169578.32929507-.2670391.47636487-.4168866.63055427-.5683706-.1670131-.3303341-.2024849-1.0176919-.1215013-1.7556164.0564751-.5146022.1572163-1.0401397.2702681-1.4304953.271262-1.0401342.527581-1.8328698.8598219-2.5923013.3604089-.8238178.8163591-1.5551946 1.0889537-1.82605009-.3049472-.29698204-.5889403-.18830155-.8288377.04352591-.1756442.16973568-.3266977.40678918-.386584.73499758-.6359363-.0792269-.8651883.2171807-1.0431861.4414376-.8393933.1290206-.82353596-.4052161-.78852755-.620688-.15137187-.2086605-.20389681-.4436763-.24287403-.68355663-.53883075-.3470771-.89912289-.36835456-1.25919981-.39054476-.32051713-.01975228-.64111121-.03951176-1.03214834-.05936131-.01343876.63041368.45082445 1.262219-1.3569566-.91605905l-1.26156574-1.52011823c1.14623893.48873723 2.11144241.69241941 3.13426592.91400631.29837386.61031062 1.27518058.52791249 2.04449671.48567403.24186733-.01327946.47553664-.02968133.69853554-.04809709l.1283619-.01153637-.0940587-.09765926c-.62851281-.61793711-1.18552973-.67809284-1.25270172-.68319849-.52310764-.07016597-.9468644-.01645498-1.37073823.03579544-.22220045.02739038-.44445768.05464866-.67631915.0663422.70108097-1.39364345 1.79305079-1.54035163 2.908704-1.62791195.8289969-.65991279 1.3362602-.83362398 1.9268071-.92129395.0167611-.0007805.5732178.02867571 1.180543.06124905l.3665888.0197011c.4864957.02618833.9429773.05090031 1.1191655.0602507.3843729-.43036384 1.2837241-.6454698 1.4483688-.6819198.3990878-.20278321 1.0093126-.24278071 1.5973216-.24278071.0741947.88269647-.7618535 1.65276412-1.1173848 1.90826303-.2286147.37041036-.2422788.42087423-.1464553.60255422l.3260708.60714596c.5721061.1983484.9664061.48126061 1.0964031.88467681-.0006941 1.10295975.09021 1.40155631.1059514 1.80544855-.7423888-.051427-.935076-.15778484-1.0739887-.16988101-.2397298.27976051-.2808499.42096811-.2252759.54553781.5541556.351195.7443874.53496.8745085.7474537.1486914.9043215-.2733203.7648236-.6249476.8632948-.3675756.7075475-.4879962.8344005-.4524174 1.1332793.0804923.6305363.1417395 1.0552054.1830561 1.2739376l1.1280501-.2436616c.4240245-.0916481.8480188-.1832896 1.2718838-.2747264.3266451-.3432101.4640436-.8939574.4302534-1.4846825-.028254-1.474061.0087341-2.2017529.9431818-3.07195726 2.4523067-2.17878186 4.9468684-3.88870151 7.7340186-5.53183126.2148541-.12666461.4292137-.25161573.6432647-.37450186zm5.0034063 9.49075758c-.1867443.0027018-.2972086.1803434.001486.8284322.2283239-.0022671.4699886-.0598446.9425519-.3669761-.3293903-.3390582-.6607531-.465607-.9440379-.4614561zm-22.3627896-5.39338752-.8104703.68570572.1178246-.00945913c.1058551-.01007627.2087337-.02051744.3083265-.03118496l.2886123-.03254302c.2704645-.03203612.5103142-.06481734.711856-.09498269.0808447-.46778171-.4342362-.51520806-.6161491-.51753592z" mask="url(#d)"/><path d="m13.2858837 6.08395865c-.2888074.64826689-.5173969.57099819-.7970459.43497703.3926304-.40211335.6476394-.44125171.7970459-.43497703z" mask="url(#d)"/></g></g></g><rect height="32" mask="url(#b)" rx="2" width="43.335938"/></g></svg>