<svg height="32" viewBox="0 0 43 32" width="43" xmlns="http://www.w3.org/2000/svg" xmlns:xlink="http://www.w3.org/1999/xlink"><defs><path id="a" d="m0 0h26.6666667v16h-26.6666667z"/><mask id="b" fill="#fff"><path d="m0 0h43.335938v32h-43.335938z" fill="#fff" fill-rule="evenodd"/></mask><mask id="c" fill="#fff"><path d="m0 0h42.666667v32h-42.666667z" fill="#fff" fill-rule="evenodd"/></mask><mask id="d" fill="#fff"><use fill="#fff" fill-rule="evenodd" xlink:href="#a"/></mask></defs><g fill="none" fill-rule="evenodd"><g fill-rule="evenodd" mask="url(#b)"><g mask="url(#c)" transform="translate(.3346)"><path d="m0 0h42.6666667v32h-42.6666667z" fill="#c51918"/><g transform="translate(8 8)"><use fill="#feca00" xlink:href="#a"/><g fill="#23875f" mask="url(#d)"><path d="m0 0 13.3333333 8-13.3333333 8z"/><path d="m13.3333333 0 13.3333334 8-13.3333334 8z" transform="matrix(-1 0 0 1 40 0)"/></g><circle cx="13.333333" cy="8" fill="#c51918" mask="url(#d)" r="5.333333"/><path d="m13.2392776 9.75104155-2.76123 1.91524185.8823147-3.28035372-2.02702897-2.0954925 2.74471077-.11330491 1.1612335-3.24378266 1.1612335 3.24378266h2.7400411l-2.0223593 2.20879741 1.0128297 3.08673922z" fill="#feca00" mask="url(#d)"/></g><path d="m2.54465006 4.98697915-1.50901985.93573351.48218743-1.60268892-1.10777696-1.02379891 1.49999999-.0553576.63460939-1.5848213.63461734 1.5848213h1.49744001l-1.10522493 1.07915651.55351422 1.50809426zm8.00000004 0-1.50901989.93573351.48218743-1.60268892-1.10777697-1.02379891 1.5-.0553576.63460943-1.5848213.6346173 1.5848213h1.49744l-1.1052249 1.07915651.5535142 1.50809426zm8 0-1.5090199.93573351.4821874-1.60268892-1.1077769-1.02379891 1.5-.0553576.6346094-1.5848213.6346173 1.5848213h1.49744l-1.1052249 1.07915651.5535142 1.50809426zm-16.00127606 23.63350385-1.50901985.9357335.48218743-1.6026889-1.10777696-1.023799 1.5-.0553576.63460938-1.5848213.63461734 1.5848213h1.49744001l-1.10522493 1.0791566.55351423 1.5080942zm7.99999996 0-1.50901981.9357335.48218743-1.6026889-1.10777696-1.023799 1.5-.0553576.63460934-1.5848213.6346174 1.5848213h1.49744l-1.1052249 1.0791566.5535142 1.5080942zm8 0-1.5090198.9357335.4821874-1.6026889-1.1077769-1.023799 1.5-.0553576.6346093-1.5848213.6346174 1.5848213h1.49744l-1.1052249 1.0791566.5535142 1.5080942z" fill="#feca00" transform="translate(10.6667)"/><g transform="translate(8 13.3333)"><path d="m3.51296214 3.69600871c.47872269.42617479.84844774.71181328 1.10917515.85691546.08990129-.34073862.03455773-.89707974-.1660307-1.66902335-.05628217-.18453129-.39308778-.44221342-1.01041684-.7730464-.17339162.58253885-.15096749 1.11092362.06727239 1.58515429z" fill="#c51918"/><path d="m4.26099696 5.24025433c-1.22954283-.57428996-1.90678696-1.26756628-2.03173237-2.07982896-.12494542-.81226267-.05492829-1.86584527.21005141-3.16074778 1.99662703.45437037 3.06286115 1.16831382 3.19870235 2.14183036.1358412.97351653-.02172236 1.76606539-.47269068 2.37764657-.46182294-1.18674239-.91063643-1.84593194-1.34644048-1.97756864 0 1.17614026.14736993 2.07569641.44210977 2.69866845z" fill="#feca00"/></g></g></g><rect height="32" mask="url(#b)" rx="2" width="43.335938"/></g></svg>