<svg height="32" viewBox="0 0 43 32" width="43" xmlns="http://www.w3.org/2000/svg" xmlns:xlink="http://www.w3.org/1999/xlink"><defs><path id="a" d="m0 0h42.666667v32h-42.666667z"/><mask id="b" fill="#fff"><path d="m0 0h43.335938v32h-43.335938z" fill="#fff" fill-rule="evenodd"/></mask><mask id="c" fill="#fff"><path d="m0 0h42.666667v32h-42.666667z" fill="#fff" fill-rule="evenodd"/></mask><mask id="d" fill="#fff"><use fill="#fff" fill-rule="evenodd" xlink:href="#a"/></mask></defs><g fill="none" fill-rule="evenodd"><g fill-rule="evenodd" mask="url(#b)"><g mask="url(#c)" transform="translate(.3346)"><use fill="#f7fcff" xlink:href="#a"/><g fill="#e31d1c"><g mask="url(#d)"><path d="m18.6666667 0h5.3333333v13.3333333h18.6666667v5.3333334h-18.6666667v13.3333333h-5.3333333v-13.3333333h-18.6666667v-5.3333334h18.6666667z"/></g><g mask="url(#d)"><g transform="translate(8 2.6667)"><path d="m5.3315771 20.2959345 2.9350855-.2959345v2.6666667c-1.95672367-.1225208-2.9350855-.166095-2.9350855-.1307227 0 .0353724.08947295.9678355.26841883 2.7973893h-2.66666667l.21362615-2.6666666h-2.88029281v-2.6666667l2.88029281.2959345-.21362615-2.9626012h2.66666667z"/><path d="m5.3315771 4.29593454 2.9350855-.29593454v2.66666667c-1.95672367-.12252078-2.9350855-.166095-2.9350855-.13072266 0 .03537235.08947295.96783545.26841883 2.79738932h-2.66666667l.21362615-2.66666666h-2.88029281v-2.66666667l2.88029281.29593454-.21362615-2.96260121h2.66666667z"/><path d="m23.9982438 4.29593454 2.9350855-.29593454v2.66666667c-1.9567237-.12252078-2.9350855-.166095-2.9350855-.13072266 0 .03537235.0894729.96783545.2684188 2.79738932h-2.6666667l.2136262-2.66666666h-2.8802928v-2.66666667l2.8802928.29593454-.2136262-2.96260121h2.6666667z"/><path d="m23.9982438 20.2959345 2.9350855-.2959345v2.6666667c-1.9567237-.1225208-2.9350855-.166095-2.9350855-.1307227 0 .0353724.0894729.9678355.2684188 2.7973893h-2.6666667l.2136262-2.6666666h-2.8802928v-2.6666667l2.8802928.2959345-.2136262-2.9626012h2.6666667z"/></g></g></g></g></g><rect height="32" mask="url(#b)" rx="2" width="43.335938"/></g></svg>