<svg height="32" viewBox="0 0 43 32" width="43" xmlns="http://www.w3.org/2000/svg" xmlns:xlink="http://www.w3.org/1999/xlink"><defs><path id="a" d="m0 0h42.666667v32h-42.666667z"/><mask id="b" fill="#fff"><path d="m0 0h43.335938v32h-43.335938z" fill="#fff" fill-rule="evenodd"/></mask><mask id="c" fill="#fff"><path d="m0 0h42.666667v32h-42.666667z" fill="#fff" fill-rule="evenodd"/></mask><mask id="d" fill="#fff"><use fill="#fff" fill-rule="evenodd" xlink:href="#a"/></mask></defs><g fill="none" fill-rule="evenodd"><g fill-rule="evenodd" mask="url(#b)"><g mask="url(#c)" transform="translate(.3346)"><use fill="#f7fcff" xlink:href="#a"/><g mask="url(#d)"><path d="m16 0h10.6666667v10.6666667h16v10.6666666h-16v10.6666667h-10.6666667v-10.6666667h-16v-10.6666666h16z" fill="#e31d1c"/><path d="m25.287595 4.06126729-1.2761951 2.3456755-.011436-.0006755.0000361 6.92706601 9.4739639-.000066.0006666-.0761494 2.3456755-1.3298063v7.9469202l-2.2193421-1.2079645-9.6009639.0003994-.0000361 6.7276006.011436.0003333 1.2761951 2.3456755h-7.9469201l1.325289-2.3390088.0007028-6.7346006-9.64070283-.0003994-2.218 1.2079645v-7.9469202l2.34567549 1.3298063-.00067549.0761494 9.51370283.000066-.0007028-6.93406601-1.325289-2.338z" fill="#feca00"/></g></g></g><rect height="32" mask="url(#b)" rx="2" width="43.335938"/></g></svg>