<svg height="32" viewBox="0 0 43 32" width="43" xmlns="http://www.w3.org/2000/svg" xmlns:xlink="http://www.w3.org/1999/xlink"><mask id="a" fill="#fff"><path d="m0 0h43.335938v32h-43.335938z" fill="#fff" fill-rule="evenodd"/></mask><mask id="b" fill="#fff"><path d="m0 0h42.666667v32h-42.666667z" fill="#fff" fill-rule="evenodd"/></mask><g fill="none" fill-rule="evenodd"><g fill-rule="evenodd" mask="url(#a)"><g transform="translate(.3346)"><path d="m0 0h42.666667v32h-42.666667z" fill="#f7fcff" mask="url(#b)"/><g mask="url(#b)"><g transform="translate(0 5.3333)"><path d="m2.66666667 16h37.33333333c1.4727593 0 2.6666667 1.1939073 2.6666667 2.6666667v5.3333333c0 1.4727593-1.1939074 2.6666667-2.6666667 2.6666667h-37.33333333c-1.47275934 0-2.66666667-1.1939074-2.66666667-2.6666667v-5.3333333c0-1.4727594 1.19390733-2.6666667 2.66666667-2.6666667z" fill="#c51918"/><g fill="none" transform="translate(9.3333)"><path d="m13.8518519 1.33333333-.0008519 6.153h1.26l.0001111-3.69146154h5.037037l-.0001481 3.69146154 2.5186667.00084616v1.23076923h-1.2592593v6.15384618h1.2592593v1.2307692h-22.6666667v-1.2307692h1.25925926v-6.15384618h-1.25925926v-1.23076923l2.518-.00084616.00051852-3.69146154h5.03703704l-.00055556 3.69146154h1.259l.00081481-6.153z" fill="#db000b"/><g fill="#272727"><path d="m4.87134503 5.02564103c.60396052 0 1.09356725.48960673 1.09356725 1.09356725v1.61412505h-2.1871345v-1.61412505c0-.60396052.48960673-1.09356725 1.09356725-1.09356725z"/><path d="m17.4639376 5.02564103c.6039605 0 1.0935673.48960673 1.0935673 1.09356725v1.61412505h-2.1871345v-1.61412505c0-.60396052.4896067-1.09356725 1.0935672-1.09356725z"/><path d="m4.87134503 11.1794872c.79979014 0 1.44814815.648358 1.44814815 1.4481481v2.4903134h-2.8962963v-2.4903134c0-.7997901.64835801-1.4481481 1.44814815-1.4481481z"/><path d="m17.4639376 11.1794872c.7997902 0 1.4481482.648358 1.4481482 1.4481481v2.4903134h-2.8962963v-2.4903134c0-.7997901.648358-1.4481481 1.4481481-1.4481481z"/><path d="m11.0484334 10.9969845c1.0249027 0 1.8557504.8308478 1.8557504 1.8557505v3.5596341h-3.71150092v-3.5596341c0-1.0249027.83084782-1.8557505 1.85575052-1.8557505z"/><path d="m11.1676413 3.79487179c.6039605 0 1.0935673.48960674 1.0935673 1.09356726v2.84489428h-2.1871345v-2.84489428c0-.60396052.4896067-1.09356726 1.0935672-1.09356726z"/></g><path d="m0 6.25641h1.259259v1.230769h-1.259259z" fill="#de1a23"/><path d="m2 2.66666667h1.33333333v1.33333333h-1.33333333zm5.33333333 0h1.33333334v1.33333333h-1.33333334zm-3 0h2v1.33333333h-2z" fill="#de1a23"/><path d="m15.3333333 2.66666667h1.3333334v1.33333333h-1.3333334zm5.3333334 0h1.3333333v1.33333333h-1.3333333zm-3 0h2v1.33333333h-2z" fill="#de1a23"/><path d="m8.4 0h1.33333333v1.33333333h-1.33333333zm2 0h1.3333333v1.33333333h-1.3333333zm2 0h1.3333333v1.33333333h-1.3333333zm2 0h1.3333333v1.33333333h-1.3333333z" fill="#de1a23"/><path d="m22.666667 6.666667h1.333333v1.333333h-1.333333z" fill="#de1a23"/><g fill="#e8aa00" transform="translate(7.2281 13.8667)"><path d="m4.7053899 2.31099666-1.18330881.79303528 1.30919491.62304684 1.12422966-.73515895zm3.84595382.57655082-3.61696961 2.36521745-4.10118143-1.95175533 3.85907552-2.21810716z" fill-rule="nonzero"/><path d="m2.31578947 8.65730565h1.96491228v1.47602765-.49824987h-1.22107211v.49824987h-.74384017z"/><path d="m4.10261678 4.8h1.66772663v5.3333333h-1.66772663z"/></g></g></g></g></g></g><rect height="32" mask="url(#a)" rx="2" width="43.335938"/></g></svg>