<svg height="32" viewBox="0 0 43 32" width="43" xmlns="http://www.w3.org/2000/svg" xmlns:xlink="http://www.w3.org/1999/xlink"><mask id="a" fill="#fff"><path d="m0 0h43.335938v32h-43.335938z" fill="#fff" fill-rule="evenodd"/></mask><mask id="b" fill="#fff"><path d="m0 0h42.666667v32h-42.666667z" fill="#fff" fill-rule="evenodd"/></mask><g fill="none" fill-rule="evenodd"><g fill-rule="evenodd" mask="url(#a)"><g mask="url(#b)" transform="translate(.3346)"><path d="m2.66666667 21.3333333h37.33333333c1.4727593 0 2.6666667 1.1939074 2.6666667 2.6666667v5.3333333c0 1.4727594-1.1939074 2.6666667-2.6666667 2.6666667h-37.33333333c-1.47275934 0-2.66666667-1.1939073-2.66666667-2.6666667v-5.3333333c0-1.4727593 1.19390733-2.6666667 2.66666667-2.6666667z" fill="#5eaa22"/><path d="m2.66666667 0h37.33333333c1.4727593-0 2.6666667 1.19390733 2.6666667 2.66666667v8.00000003h-42.6666667v-8.00000003c0-1.47275934 1.19390733-2.66666667 2.66666667-2.66666667z" fill="#e31d1c"/><path d="m44.6666667 11.3333333v9.3333334h-46.6666667v-9.3333334z" fill="#3d58db" stroke="#fff" stroke-width="4"/></g></g><rect height="32" mask="url(#a)" rx="2" width="43.335938"/></g></svg>