<svg height="32" viewBox="0 0 43 32" width="43" xmlns="http://www.w3.org/2000/svg" xmlns:xlink="http://www.w3.org/1999/xlink"><mask id="a" fill="#fff"><path d="m0 0h43.335938v32h-43.335938z" fill="#fff" fill-rule="evenodd"/></mask><mask id="b" fill="#fff"><path d="m0 0h42.666667v32h-42.666667z" fill="#fff" fill-rule="evenodd"/></mask><g fill="none" fill-rule="evenodd"><g fill-rule="evenodd" mask="url(#a)"><g mask="url(#b)" transform="translate(.3346)"><path d="m0 0h42.6666667v32h-42.6666667z" fill="#f7fcff"/><g fill="#4564f9"><path d="m0 7.33333333h42.6666667v3.94244607h-42.6666667zm0 7.08681067h42.6666667v3.942446h-42.6666667zm0 6.8374093h42.6666667v3.9424467h-42.6666667z"/><path d="m0 0h42.6666667v4h-42.6666667z"/><path d="m0 28h42.666667v4h-42.666667z"/><path d="m0 0h20v18.4h-20z"/></g><path d="m8 0h4v7.33848559h8v3.91306991h-8v8.0817778h-4v-8.0817778h-8v-3.91306991h8z" fill="#f7fcff"/></g></g><rect height="32" mask="url(#a)" rx="2" width="43.335938"/></g></svg>