<svg height="32" viewBox="0 0 43 32" width="43" xmlns="http://www.w3.org/2000/svg" xmlns:xlink="http://www.w3.org/1999/xlink"><mask id="a" fill="#fff"><path d="m0 0h43.335938v32h-43.335938z" fill="#fff" fill-rule="evenodd"/></mask><mask id="b" fill="#fff"><path d="m0 0h42.666667v32h-42.666667z" fill="#fff" fill-rule="evenodd"/></mask><g fill="none" fill-rule="evenodd"><g fill-rule="evenodd" mask="url(#a)"><g mask="url(#b)" transform="translate(.3346)"><path d="m29.3333333 0h13.3333334v32h-13.3333334z" fill="#58a5ff"/><path d="m0 0h16v32h-16z" fill="#58a5ff"/><path d="m13.3333333 0h16v32h-16z" fill="#fff"/><g transform="translate(14.1333 9.7333)"><path d="m1.55792596 11.2245925.69563263.9107472 3.15917915-4.28254171v-.75819482z" fill="#6c301f"/><g fill-rule="nonzero"><path d="m3.73904762 6.44754092.2309632-.31813063c2.99169276 2.2494609 5.11127174 3.97633221 6.29642568 5.41525121l-.74003201.6095213c-1.12646934-1.367669-2.8512583-3.49898239-5.78735687-5.70664188z" fill="#979797"/><path d="m8.5613123 4.5674427-.34416254-.33368103 1.88634304-1.94559642.4132634.40149849 1.9583982-1.82358813.3266725.35082191-2.2920805 2.13430065-.3961137-.38483703z" fill="#979797"/><path d="m6.06195399 12.1439227c-.00178945-.0004435-.00342061-.0008477-.0049582-.0012289.00165011.0004091.00330283.0008187.0049582.0012289zm-3.7351292-11.595136c.08455398.40251922.15589866.72953809.21403403.98105662.09679687-.12720926.20087573-.25934651.31060004-.39671061l.29963457.23934345c-.26529952.33212903-.49658339.63262849-.69369623.90111736.19057519-.05201919.41343257-.11329009.66805691-.18467657-.32345111.47158908-.70369203.69633402-1.11218593.8260376-.12417643.19051302-.21899971.35462922-.28579055.49214165-.05619027.11568743-.10820129.23094633-.15608909.34574901.21692594-.12198279.49807727-.28552736.84421656-.49073431-.22981473.65095298-.6326706.97586205-1.09095868 1.219685l-.00165293-.00930236c-.03820658.1400803-.07023186.2793664-.09618334.41780523.21514225-.12143697.4959562-.28479129.84155548-.48967811-.20004327.56662499-.53119828.88620939-.91589774 1.12031162-.01038058.13931726-.0119305.27834467-.00730917.41632548.20066305-.16281128.47129825-.39081972.81311655-.68442912-.11328652.68097045-.45360225 1.07089861-.86258848 1.39059823l.11165817-.09173592c.02808538.16526033.06519235.32881367.11110299.49055239l.0436695.15299889c.12887278-.2171422.29686013-.50994779.50396205-.87841677.12645111.67864918-.05997778 1.16145662-.33495543 1.60175753l.04184552-.06950595c.0348462.09984222.07048525.19815768.10688171.29489718.06854673-.18968381.14879395-.41454493.23976158-.67374736.19703373.52545936.16796898.95936796.04579417 1.36192176.12776309.28822944.2639719.557182.40598962.80669603l.01150082.01923938c.00186933-.24060991.00064826-.54766174-.00366321-.92115548.44883446.52450188.52878602 1.03583983.51079885 1.55464045l-.16268717-.0854791c.23298368.3354988.47753717.6212727.7292217.8511587.00212785-.2319437.0007991-.5232064-.00323439-.8726196.36108156.4219551.48342226.8353904.50809291 1.2510456.0606235.0370256.1224573.0702.18446968.0999053.18216904.0872631.39300062.1700475.63768911.2517853.05283592-.2570384.12047855-.6409145.20440874-1.1512877.27780615.4705923.32939577.8929201.28535607 1.3003994.05064309.0153106.10541769.030533.16150369.0458136.13867875.037783.27962725.0744971.44618447.1164586l.16313749.0400376.008.002.02208759.006084c.11810234.0291073.48154606.1189426.57585567.1429403.44204203.1124804.68889609.189939.84106028.2756711.06455506.0363716.1145385.0757791.15050588.1252901l-.3102651.2253924c.00205535.0028293-.00769443-.0048575-.02848524-.0165714-.11087076-.0624667-.34182342-.1349356-.74738428-.2381332-.1072085-.0272799-.57030229-.1416267-.60789442-.1508076l.00051962.0001343-.15511948-.0387282c-.17126396-.0431191-.31607896-.080821-.45901033-.1197626l-.04192227-.0116117c-.38854355.1452668-.81475214.2006217-1.34504217.0429912.23383441-.1008919.43886758-.1905333.6150995-.2689242-.21898566-.073959-.41071667-.1512836-.58195896-.2333126l-.0455665-.0233249c-.39619576.1532458-.83021663.2152876-1.37346972.0538039.35402028-.1527483.64202432-.2797089.86401213-.3808817-.34748439-.2704498-.67994663-.6330287-.99036927-1.074377l.08884679.0236284c-.50366107-.1257104-.97315302-.3435086-1.35362105-.9195283.34566551.10345065.63252869.18704005.86058955.25076819-.10893989-.18824935-.21240324-.38702423-.31197704-.59518734l.04659098.01172342c-.50366107-.12571045-.97315302-.34350867-1.35362105-.91952835.35783683.10709328.65265742.192902.88446177.25742617l.15475807.04244207c-.09199865-.22296211-.17876525-.4542206-.26099149-.69346766-.38477898-.2062608-.72286381-.50045106-.95442284-1.03439511.29384492.14754046.54246365.27035818.74585618.36845317l-.03176755-.10203055c-.05350864-.18850576-.09594906-.37926337-.12705645-.57207076-.31321577-.3351458-.55243115-.7376718-.5892988-1.3500557.20380816.21598404.3798477.40040078.52811862.55325022-.0021116-.09161047.00048942-.18399623.00564148-.27674502-.25156335-.32083021-.34855988-.70350123-.38344347-1.28292905.18558831.19667569.34815094.36717586.48768789.51150049.0345059-.18614265.08237966-.37210428.14046586-.55908748l.08522445.08899766c-.37332806-.36069897-.57682281-.89117803-.61830795-1.58025972.33819878.36641712.59931071.64090379.78333581.82346002l.12062437-.26347482.00365294-.00876215-.02571028-.02914456c-.27138868-.38423961-.1282759-1.06221472-.16656987-1.69829013.24054242.47629686.44379517.82058965.60975828 1.03287837.08650824-.13021734.18409957-.26917508.29196341-.41756728l.02211754.08829846c-.13247271-.49111338-.05960235-1.04523834.20909028-1.65817486z" fill="#5ab92d"/><path d="m12.7730651 12.1439227c-.0017894-.0004435-.0034206-.0008477-.0049582-.0012289.0016501.0004091.0033028.0008187.0049582.0012289zm-3.7351292-11.595136c.08455398.40251922.15589866.72953809.21403403.98105662.09679687-.12720926.20087573-.25934651.31060004-.39671061l.29963457.23934345c-.26529952.33212903-.49658339.63262849-.69369623.90111736.19057519-.05201919.41343257-.11329009.66805691-.18467657-.32345111.47158908-.70369203.69633402-1.11218593.8260376-.12417642.19051302-.21899971.35462922-.28579055.49214165-.05619027.11568743-.10820128.23094633-.15608909.34574901.21692594-.12198279.49807728-.28552736.84421656-.49073431-.22981473.65095298-.6326706.97586205-1.09095868 1.219685l-.00165293-.00930236c-.03820658.1400803-.07023186.2793664-.09618334.41780523.21514225-.12143697.4959562-.28479129.84155549-.48967811-.20004328.56662499-.53119829.88620939-.91589775 1.12031162-.01038058.13931726-.0119305.27834467-.00730917.41632548.20066305-.16281128.47129825-.39081972.81311655-.68442912-.11328652.68097045-.45360224 1.07089861-.86258848 1.39059823l.11165817-.09173592c.02808538.16526033.06519235.32881367.11110299.49055239l.0436695.15299889c.12887278-.2171422.29686013-.50994779.50396206-.87841677.1264511.67864918-.05997779 1.16145662-.33495543 1.60175753l.04184551-.06950595c.0348462.09984222.07048525.19815768.10688171.29489718.06854673-.18968381.14879395-.41454493.23976158-.67374736.19703373.52545936.16796898.95936796.04579417 1.36192176.12776309.28822944.2639719.557182.40598962.80669603l.01150082.01923938c.00186933-.24060991.00064826-.54766174-.00366321-.92115548.44883446.52450188.52878602 1.03583983.51079885 1.55464045l-.16268717-.0854791c.23298368.3354988.47753717.6212727.72922173.8511587.0021278-.2319437.0007991-.5232064-.0032344-.8726196.3610815.4219551.4834222.8353904.5080929 1.2510456.0606235.0370256.1224573.0702.1844697.0999053.182169.0872631.3930006.1700475.6376891.2517853.0528359-.2570384.1204785-.6409145.2044087-1.1512877.2778062.4705923.3293958.8929201.2853561 1.3003994.0506431.0153106.1054177.030533.1615037.0458136.1386787.037783.2796272.0744971.4461844.1164586l.1631375.0400376.008.002.0220876.006084c.1181024.0291073.4815461.1189426.5758557.1429403.442042.1124804.6888961.189939.8410603.2756711.064555.0363716.1145385.0757791.1505059.1252901l-.3102651.2253924c.0020553.0028293-.0076945-.0048575-.0284853-.0165714-.1108707-.0624667-.3418234-.1349356-.7473843-.2381332-.1072085-.0272799-.5703022-.1416267-.6078944-.1508076l.0005196.0001343-.1551194-.0387282c-.171264-.0431191-.316079-.080821-.4590104-.1197626l-.0419222-.0116117c-.3885436.1452668-.8147522.2006217-1.3450422.0429912.2338344-.1008919.4388676-.1905333.6150995-.2689242-.2189857-.073959-.4107167-.1512836-.581959-.2333126l-.0455665-.0233249c-.3961957.1532458-.8302166.2152876-1.37346969.0538039.35402028-.1527483.64202432-.2797089.86401209-.3808817-.34748435-.2704498-.67994659-.6330287-.99036923-1.074377l.08884679.0236284c-.50366107-.1257104-.97315302-.3435086-1.35362105-.9195283.34566551.10345065.63252869.18704005.86058955.25076819-.10893988-.18824935-.21240324-.38702423-.31197704-.59518734l.04659098.01172342c-.50366107-.12571045-.97315302-.34350867-1.35362105-.91952835.35783683.10709328.65265742.192902.88446177.25742617l.15475808.04244207c-.09199866-.22296211-.17876526-.4542206-.2609915-.69346766-.38477898-.2062608-.72286381-.50045106-.95442284-1.03439511.29384492.14754046.54246365.27035818.74585618.36845317l-.03176755-.10203055c-.05350864-.18850576-.09594906-.37926337-.12705645-.57207076-.31321577-.3351458-.55243114-.7376718-.5892988-1.3500557.20380816.21598404.3798477.40040078.52811862.55325022-.0021116-.09161047.00048942-.18399623.00564148-.27674502-.25156335-.32083021-.34855988-.70350123-.38344347-1.28292905.18558831.19667569.34815094.36717586.48768789.51150049.0345059-.18614265.08237966-.37210428.14046586-.55908748l.08522445.08899766c-.37332806-.36069897-.57682281-.89117803-.61830795-1.58025972.33819878.36641712.59931072.64090379.78333581.82346002l.12062437-.26347482.00365294-.00876215-.02571028-.02914456c-.27138868-.38423961-.1282759-1.06221472-.16656987-1.69829013.24054242.47629686.44379518.82058965.60975828 1.03287837.08650824-.13021734.18409958-.26917508.29196341-.41756728l.02211754.08829846c-.13247271-.49111338-.05960235-1.04523834.20909028-1.65817486z" fill="#5ab92d" transform="matrix(-1 0 0 1 21.297 0)"/></g><g transform="translate(2.8762 .9587)"><path d="m.88025512 1.7385592 1.60953613 4.26562361h-1.18313362c-.28426834.8974377-.15814649 1.34615655.37836555 1.34615655h4.95201784c.35944685-.22502478.44930857-.67374363.26958514-1.34615655-.17972342-.67241292-.72363027-1.93673018-1.63172052-3.79295179.38803228-.30806173.58204843-.57626838.58204843-.80461997s-.19401615-.35510268-.58204843-.3802533h-3.67403063c-.31263689.05066625-.55284352.28806673-.72061989.71220145z" fill="#efe298"/><g fill="#c5a042" fill-rule="nonzero" stroke="#b47d00" stroke-width=".666667"><path d="m2.249097 3.30893 2.499889-.155256"/><path d="m2.857392 4.669397 2.499888-.155255"/><path d="m3.332558 6.029865 2.499888-.155256"/></g></g><path d="m7.0405594.38349206c-.25666642.05213791-.38499963.15927866-.38499963.32142227 0 .2432154-.1040523.45058854-.1040523.45058854s.11752363 1.10928169.99529351 1.3666999c.87776989.2574182 1.39236248.31922783 1.76187922.83558816.36951674.51636032 1.50312 1.97412885 1.0485083 3.23135134-.3030744.83814832-.57359822 1.4710773-.81157139 1.89878693 1.10546179-1.04125452 1.65819269-1.80871393 1.65819269-2.30237821 0-.74049643-.2450441-1.45801235-.9796278-2.39826238-.73458368-.94025003-1.07636532-1.48989246-1.62363634-1.91353835-.36484734-.28243058-.80864746-.55395-1.33140036-.81455826.18603845-.19896117.23254806-.34521551.13952884-.43876302-.09301923-.09354752-.21572414-.17252649-.36811474-.23693692z" fill="#5ab92d"/></g></g></g><rect height="32" mask="url(#a)" rx="2" width="43.335938"/></g></svg>