<svg height="32" viewBox="0 0 43 32" width="43" xmlns="http://www.w3.org/2000/svg" xmlns:xlink="http://www.w3.org/1999/xlink"><mask id="a" fill="#fff"><path d="m0 0h43.335938v32h-43.335938z" fill="#fff" fill-rule="evenodd"/></mask><mask id="b" fill="#fff"><path d="m0 0h42.666667v32h-42.666667z" fill="#fff" fill-rule="evenodd"/></mask><mask id="c" fill="#fff"><path d="m5.33333333 5.33333333h31.99999997v21.33333337h-31.99999997z" fill="#fff" fill-rule="evenodd"/></mask><mask id="d" fill="#fff"><path d="m5.33333333.04905038c3.55555556 1.91119664 5.33333337 4.45824351 5.33333337 7.64114059 0 3.18289713-1.77777781 5.91627133-5.33333337 8.20012273-3.55555555-2.3733396-5.33333333-5.1067139-5.33333333-8.20012273s1.77777778-5.6404557 5.33333333-7.64114059z" fill="#fff" fill-rule="evenodd"/></mask><g fill="none" fill-rule="evenodd"><g fill-rule="evenodd" mask="url(#a)"><g mask="url(#b)" transform="translate(.3346)"><path d="m0 0h42.6666667v29.3333333c0 1.4727594-1.1939074 2.6666667-2.6666667 2.6666667h-37.33333333c-1.47275934 0-2.66666667-1.1939073-2.66666667-2.6666667z" fill="#c51918"/><path d="m36 6.66666667v18.66666663h-29.33333333v-18.66666663z" stroke="#cbdaff" stroke-opacity=".3" stroke-width="2.666667"/><g mask="url(#c)"><g transform="translate(16.5334 8)"><g fill="none"><path d="m5.3105802-2.12412725c.30975424.1439161.62247238.30060566.93810827.47026754 2.08607438 1.12131516 3.62922947 2.44892812 4.66999923 3.94005332 1.1177662 1.60143912 1.6813123 3.40178083 1.6813123 5.40399736 0 3.76339563-1.9609307 7.08988753-6.22180511 9.82678873-.35862707.230358-.71427733.4441616-1.06750137.6409619-.34719847-.2040112-.69743608-.4238064-1.05071006-.6596174-4.25278546-2.8387418-6.19331679-6.1613211-6.19331679-9.80813323 0-1.95111519.55991491-3.73023953 1.68131233-5.33688116 1.03345913-1.48065122 2.56623833-2.82381286 4.6372694-3.98916677.31133725-.17518718.61979558-.33789157.9253318-.48827029z" fill="#cce0e5" fill-rule="evenodd" stroke="#c1c9f1" stroke-opacity=".748217" stroke-width="3.866667"/><path d="m5.31809176-1.45630023c.21403935.10401005.42955031.2143029.64652098.33092986 1.99039612 1.0698858 3.46843411 2.33137914 4.46206836 3.75497276 1.0467353 1.49967218 1.5733189 3.18585177 1.5733189 5.06058858 0 3.58324093-1.9040901 6.72566183-5.94607249 9.32196133-.24670303.1584655-.49194443.3088421-.73584106.4506832-.24016954-.1467434-.48183459-.3012394-.72499441-.463549-4.03640376-2.6943067-5.92642537-5.8340293-5.92642537-9.30909553 0-1.82560839.52407925-3.49021226 1.57331885-4.99347239.9885925-1.41637018 2.45947471-2.69552981 4.43949613-3.80967326.21426868-.12056741.42709444-.23503552.63861011-.34334555z" stroke="#c51918" stroke-width="2.666667"/></g><path d="m.711111 10.666667h9.955556v2h-9.955556z" fill="#91cbcb" fill-rule="evenodd" mask="url(#d)"/><path d="m1.60230555 12.2639207c4.70582184.0016771 7.27498715-.0786784 7.70749593-.2410665.64876318-.2435821-1.21796999 4.6767479-3.60308229 4.6767479-1.59007487 0-2.95821275-1.4785605-4.10441364-4.4356814z" fill="#fdf9a1" fill-rule="evenodd" mask="url(#d)"/><path d="m8.25814121 11.6734947-1.26803807.9757456c-1.99849881-2.5971652-2.8368241-5.28390552-2.47901833-8.02596874l1.58654987.20702539c-.29969177 2.29670357.40849123 4.56635215 2.16050653 6.84319775z" fill="#a68861" fill-rule="nonzero" mask="url(#d)"/><g fill-rule="evenodd"><path d="m5.32480929 4.84898688-1.20974526 1.41752664c-.02390131.02800651-.06598092.03133443-.09398743.00743312-.01899585-.01621144-.02733835-.0416799-.02161526-.06598833l.41611444-1.76741601h-1.89242879c-.03681898 0-.06666667-.02984768-.06666667-.06666666 0-.02646823.01565821-.05042964.03989924-.06105694l1.6170757-.70892779-1.1477603-1.51318652c-.02225075-.02933499-.01650784-.07115349.01282715-.09340424.01847314-.01401198.04289969-.01741953.06450232-.00899821l1.80487184.70359041.41204635-1.65791453c.00888057-.03573196.04504617-.05749931.08077813-.04861875.02398628.00596138.04270598.02470383.04863822.04869733l.40988989 1.65783595 1.78922671-.69664056c.03431009-.01335873.07295329.0036257.08631202.03793579.00875699.02249113.00467377.04795893-.0106755.06658513l-1.23949674 1.5041182 1.71030178.70839227c.03401658.01408937.05017076.05308695.03608139.08710352-.01031843.02491224-.03462784.0411556-.06159245.0411556h-1.68479072l.25641192 1.80820095c.0051694.03645429-.02019201.07019695-.0566463.07536635-.02259382.00320392-.04525662-.00537114-.0600703-.02272917z" fill="#239e46" mask="url(#d)"/><path d="m4.26666667 9.33333333h6.40000003v1.39999997h-6.40000003z" fill="#239e46" mask="url(#d)"/><path d="m3.296 8.52346667h-.0064c-.01848898.06860034-.06364409.12564977-.13546667.17115-.07182258.04550022-.16462165.06825-.2784.06825-.09102267 0-.17457739-.01644984-.25066666-.04935-.07608927-.03290017-.14115529-.08119968-.1952-.1449-.05404472-.06370032-.09635541-.14279953-.12693334-.2373-.03057793-.09450048-.04586666-.20334939-.04586666-.32655 0-.12180061.01493318-.22994953.0448-.32445.02986681-.09450048.07253305-.17359968.128-.2373.05546694-.06370032.12231072-.11234984.20053333-.14595.07822261-.03360017.1649773-.0504.26026667-.0504.13368955 0 .24533288.0293997.33493333.0882.08960045.05880029.15857754.13649951.20693333.2331l-.1472.0882c-.0341335-.0784004-.08497744-.13999978-.15253333-.1848-.06755589-.04480023-.1482662-.0672-.24213333-.0672-.06542255 0-.12515529.01154988-.1792.03465-.05404472.02310011-.10062203.05564979-.13973334.09765-.0391113.04200021-.06933322.0923997-.09066666.1512-.02133344.05880029-.032.12459963-.032.1974v.2373c0 .07280036.01066656.1389497.032.19845.02133344.05950029.05155536.11024979.09066666.15225.03911131.04200021.08711083.07454988.144.09765.05688918.02310011.12088854.03465.192.03465.05120026 0 .09991088-.00664994.14613334-.01995.04622245-.01330007.08675538-.03324987.1216-.05985.03484462-.02660014.06222212-.0598498.08213333-.09975s.02986667-.08714973.02986667-.14175v-.1449h-.32853334v-.1554h.50346667v.7539h-.1664zm1.11360002-1.2516v.9072c0 .1400007.02631084.24604964.07893333.31815s.14506601.10815.27733333.10815c.13226733 0 .22471085-.03604964.27733334-.10815.05262248-.07210036.07893333-.1781493.07893333-.31815v-.9072h.1792v.8652c0 .10640053-.0095999.1987996-.0288.2772-.0192001.07840039-.05013312.14349974-.0928.1953s-.09848854.09029987-.16746667.1155c-.06897812.02520012-.15324394.0378-.2528.0378-.09955605 0-.18311077-.01259988-.25066666-.0378-.0675559-.02520013-.12195535-.06369974-.1632-.1155s-.07075547-.11689961-.08853334-.1953c-.01777786-.0784004-.02666666-.17079947-.02666666-.2772v-.8652zm2.60906668 1.4658-.14933333-.4326h-.6016l-.14933334.4326h-.18133333l.52053333-1.4658h.22826667l.52053333 1.4658zm-.44586667-1.302h-.01066666l-.25173334.714h.51413334zm2.46826669.0672h-.01066667l-.12586667.2457-.35626666.6384-.35626667-.6384-.12586667-.2457h-.01066666v1.2348h-.17493334v-1.4658h.23893334l.42666666.7896h.01066667l.4288-.7896h.2304v1.4658h-.17493333z" fill="#c51918" mask="url(#d)"/></g></g></g></g></g><rect height="32" mask="url(#a)" rx="2" width="43.335938"/></g></svg>