<svg height="32" viewBox="0 0 43 32" width="43" xmlns="http://www.w3.org/2000/svg" xmlns:xlink="http://www.w3.org/1999/xlink"><defs><path id="a" d="m0 0h42.666667v32h-42.666667z"/><mask id="b" fill="#fff"><path d="m0 0h43.335938v32h-43.335938z" fill="#fff" fill-rule="evenodd"/></mask><mask id="c" fill="#fff"><path d="m0 0h42.666667v32h-42.666667z" fill="#fff" fill-rule="evenodd"/></mask><mask id="d" fill="#fff"><use fill="#fff" fill-rule="evenodd" xlink:href="#a"/></mask></defs><g fill="none" fill-rule="evenodd"><g fill-rule="evenodd" mask="url(#b)"><g mask="url(#c)" transform="translate(.3346)"><use fill="#ea1a1a" xlink:href="#a"/><path d="m24.3175253 15.769408s.019146.0057318.0551903.0173315l.0664593.0218174c1.1130924.3719085 9.3494098 3.4242586 3.1421904 10.4629311 0 0-3.679104-1.542912-3.26384-5.399488.404928-3.7575959 1.1471046-4.6427919.0874402-5.0697896zm-2.604544 2.312864s1.776448 10.18976-7.934752 7.614656c0 0-.264384-3.980512 3.370912-5.333152 1.4138134-.5261511 2.4422859-.7995348 3.1619446-1.0105128l.2897414-.0871534c.9042686-.2814753 1.2006163-.4910911 1.112154-1.1838378zm-6.035488-5.385856c2.0115823 3.18976 1.9835546 4.3465947 3.071817 4.0303786l.089023-.0287946c-.036482.0141887-.1422554.0543359-.3043492.1088231l-.1319278.0433725c-.1848228.0594449-.4201658.1297739-.6939841.2001981l-.2123897.0526673c-2.6307293.6281767-8.13405865 1.0455789-7.72935717-6.613045 0 0 3.84191997-1.07488 5.91116797 2.2064zm18.29408 1.004s-2.239072 3.301408-5.937664 2.13248c-3.6063144-1.1397048-4.3256491-2.0433504-4.9539459-1.0856259l-.0406301.0637299.0154317-.0282704c.021358-.0383385.0574389-.1018801.1076057-.1860504l.0634308-.1049228c.9613182-1.5686761 5.3825732-7.85774142 10.7457718-.7913404zm-11.32-9.162912s2.678944 2.955488.669216 6.27344c-.6352525 1.0484398-1.1746574 1.8080712-1.5869779 2.3844551l-.2849239.3995785c-.6358474.9008227-.818302 1.2744308-.3548811 1.7712946l.0623269.0637278c-.0294861-.026459-.0904728-.0825883-.1802159-.170457l-.1304771-.1301653c-1.351634-1.3725482-6.254399-7.0821017 1.805933-10.5918737z" fill="#fff" mask="url(#d)"/><g fill="#ea1a1a"><path d="m13.2669805 13.7895373.5626857-.3575321c1.23512 1.9438375 2.8381323 2.9003089 4.8385222 2.9003089v.6666666c-2.237994 0-4.048225-1.0801127-5.4012079-3.2094434z" fill-rule="nonzero" mask="url(#d)"/><path d="m29 14.3333333c.5522847 0 1-.4477152 1-1 0-.5522847-.4477153-1-1-1s-1 .4477153-1 1c0 .5522848.4477153 1 1 1z" mask="url(#d)"/><path d="m26.6113745 20.9707688c.5522847 0 1-.4477152 1-1 0-.5522847-.4477153-1-1-1-.5522848 0-1 .4477153-1 1 0 .5522848.4477152 1 1 1z" mask="url(#d)"/><path d="m18.6113745 23.6374355c.5522847 0 1-.4477153 1-1 0-.5522848-.4477153-1-1-1-.5522848 0-1 .4477152-1 1 0 .5522847.4477152 1 1 1z" mask="url(#d)"/><path d="m13.2780411 14.3041021c.5522848 0 1-.4477152 1-1 0-.5522847-.4477152-1-1-1-.5522847 0-1 .4477153-1 1 0 .5522848.4477153 1 1 1z" mask="url(#d)"/><path d="m21.2780411 10.3041021c.5522848 0 1-.4477152 1-.99999995s-.4477152-1-1-1c-.5522847 0-1 .44771525-1 1s.4477153.99999995 1 .99999995z" mask="url(#d)"/><path d="m18.145132 11.0712595.5556666-.3683463c1.2870986 1.9416447 2.9182032 2.8976218 4.9206386 2.8976218v.6666667c-2.2359485 0-4.0704918-1.0752109-5.4763052-3.1959422z" fill-rule="nonzero" mask="url(#d)" transform="matrix(.46947156 .88294759 -.88294759 .46947156 22.102874 -11.815159)"/><path d="m23.3836672 12.3542849.5566957-.3667892c1.451124 2.2024493 3.1660998 3.2849188 5.1635587 3.2849188v.6666666c-2.240925 0-4.1538869-1.2074355-5.7202544-3.5847962z" fill-rule="nonzero" mask="url(#d)" transform="matrix(-.66913061 .74314483 -.74314483 -.66913061 54.181084 3.803627)"/><path d="m22.2257139 16.3142385.5566957-.3667892c1.451124 2.2024493 3.1660998 3.2849188 5.1635587 3.2849188v.6666666c-2.240925 0-4.1538869-1.2074355-5.7202544-3.5847962z" fill-rule="nonzero" mask="url(#d)" transform="matrix(-.92718385 -.37460659 .37460659 -.92718385 41.6308 43.938608)"/><path d="m17.3897095 18.4554768.5566958-.3667892c1.451124 2.2024493 3.1660998 3.2849188 5.1635586 3.2849188v.6666666c-2.240925 0-4.1538868-1.2074355-5.7202544-3.5847962z" fill-rule="nonzero" mask="url(#d)" transform="matrix(.0348995 -.99939083 .99939083 .0348995 -.509185 39.601723)"/></g></g></g><rect height="32" mask="url(#b)" rx="2" width="43.335938"/></g></svg>