<svg height="32" viewBox="0 0 43 32" width="43" xmlns="http://www.w3.org/2000/svg" xmlns:xlink="http://www.w3.org/1999/xlink"><defs><path id="a" d="m0 0h42.666667v32h-42.666667z"/><mask id="b" fill="#fff"><path d="m0 0h43.335938v32h-43.335938z" fill="#fff" fill-rule="evenodd"/></mask><mask id="c" fill="#fff"><path d="m0 0h42.666667v32h-42.666667z" fill="#fff" fill-rule="evenodd"/></mask><mask id="d" fill="#fff"><use fill="#fff" fill-rule="evenodd" xlink:href="#a"/></mask></defs><g fill="none" fill-rule="evenodd"><g fill-rule="evenodd" mask="url(#b)"><g mask="url(#c)" transform="translate(.3346)"><use fill="#f7fcff" xlink:href="#a"/><g fill="#4564f9"><path d="m0 0h42.666667v10.666667h-42.666667z" mask="url(#d)"/><path d="m0 21.333333h42.666667v10.666667h-42.666667z" mask="url(#d)"/><g mask="url(#d)"><g transform="translate(10.6667 10.6667)"><path d="m11.2028174 6.22776052-1.1554047.5962848.2206627-1.26295146-.93474207-.98655826h1.29178167l.5777024-1.24120227.5777023 1.24120227h1.2917817l-.934742.98655826.2206627 1.26295146z"/><path d="m3.09076699 3.33696186-1.15540468.59628479.22066265-1.26295146-.93474202-.98655826h1.29178171l.57770234-1.24120226.57770234 1.24120226h1.2917817l-.93474202.98655826.22066266 1.26295146z"/><path d="m3.09076699 8.93696186-1.15540468.59628479.22066265-1.26295146-.93474202-.98655826h1.29178171l.57770234-1.24120226.57770234 1.24120226h1.2917817l-.93474202.98655826.22066266 1.26295146z"/><path d="m19.090767 3.33696186-1.1554047.59628479.2206627-1.26295146-.9347421-.98655826h1.2917817l.5777024-1.24120226.5777023 1.24120226h1.2917817l-.934742.98655826.2206627 1.26295146z"/><path d="m19.090767 8.93696186-1.1554047.59628479.2206627-1.26295146-.9347421-.98655826h1.2917817l.5777024-1.24120226.5777023 1.24120226h1.2917817l-.934742.98655826.2206627 1.26295146z"/></g></g></g></g></g><rect height="32" mask="url(#b)" rx="2" width="43.335938"/></g></svg>