<svg height="32" viewBox="0 0 43 32" width="43" xmlns="http://www.w3.org/2000/svg" xmlns:xlink="http://www.w3.org/1999/xlink"><defs><path id="a" d="m0 0h42.666667v32h-42.666667z"/><mask id="b" fill="#fff"><path d="m0 0h43.335938v32h-43.335938z" fill="#fff" fill-rule="evenodd"/></mask><mask id="c" fill="#fff"><path d="m0 0h42.666667v32h-42.666667z" fill="#fff" fill-rule="evenodd"/></mask><mask id="d" fill="#fff"><use fill="#fff" fill-rule="evenodd" xlink:href="#a"/></mask><mask id="e" fill="#fff"><path d="m.01374175 0c0 .92296384.03331967 4.10908105.09995901 9.55835163.33629567 4.09928127 2.77539236 6.14892187 7.31729006 6.14892187 4.54189768 0 7.07827168-2.0453214 7.60912178-6.13596424.0308578-5.49198416.015897-8.68242058-.0448825-9.57130926z" fill="#fff" fill-rule="evenodd"/></mask><mask id="f" fill="#fff"><path d="m1.41234433 5.6626612c.57385091-.18154068 1.03354963-.29631794 1.37909615-.3443318s.76892264-.08231667 1.27012836-.10290844l-.3363692-3.89922026-1.81696369-1.2904098-1.65130329 1.71188611z" fill="#fff" fill-rule="evenodd"/></mask><mask id="g" fill="#fff"><path d="m1.31796727 5.6626612c.57385091-.18154068 1.03354963-.29631794 1.37909615-.3443318s.76892264-.08231667 1.27012836-.10290844l-.3363692-3.89922026-1.81696369-1.2904098-1.55692623 1.70541945z" fill="#fff" fill-rule="evenodd" transform="matrix(-1 0 0 1 4.2242 0)"/></mask><mask id="h" fill="#fff"><path d="m1.90823595 5.86837655c.57994156-.30977206 1.1172378-.5444799 1.61188873-.70412352s.93745939-.28307668 1.32842538-.37029919l-1.1279926-3.96785097-2.21109226-.82610287-1.25228852 2.06413386z" fill="#fff" fill-rule="evenodd" transform="matrix(-1 0 0 1 5.1058 0)"/></mask></defs><g fill="none" fill-rule="evenodd"><g fill-rule="evenodd" mask="url(#b)"><g mask="url(#c)" transform="translate(.3346)"><use fill="#f7fcff" xlink:href="#a"/><path d="m0 0h42.666667v10.666667h-42.666667z" fill="#e31d1c" mask="url(#d)"/><path d="m0 21.333333h42.666667v10.666667h-42.666667z" fill="#3d58db" mask="url(#d)"/><g mask="url(#d)"><g transform="translate(12.2667 3.2)"><path d="m1.16875 5.329764h15.2v5.333333h-15.2z" fill="#e31d1c"/><g fill="none"><g transform="translate(1.1688 7.9964)"><path d="m14.2753076.76743181c.0174994.70385655.0271936 1.79042898.0297434 3.25925903l.0000416 1.59493959c-.0016274 1.13498661-.0065292 2.43440939-.0147082 3.89836012-.2410222 1.79646205-.8979773 3.16347475-2.0214845 4.06946625-1.1557196.9319675-2.7767867 1.3678167-4.83790908 1.3678167-2.05168406 0-3.64608152-.4310392-4.7532414-1.3614164-1.07813145-.9059838-1.66254903-2.2757065-1.81443529-4.07371061-.04999465-4.08933717-.08117037-6.89990716-.09351372-8.43171006z" stroke="#e31d1c" stroke-width="1.5"/><path d="m3.375 6.56849621v2.85586791h-2.8125v-2.85586791zm5.625 0v2.85586791h-2.8125v-2.85586791zm-2.8125-2.85586792v2.85586792h-2.8125v-2.85586792zm-2.8125-2.85586791v2.85586791h-2.8125v-2.85586791zm5.625 0v2.85586791h-2.8125v-2.85586791zm0 11.42347162v2.855868h-2.8125v-2.855868zm-5.625 0v2.855868h-2.8125v-2.855868zm2.8125-2.85586788v2.85586788h-2.8125v-2.85586788zm8.4375-2.85586791v2.85586791h-2.8125v-2.85586791zm-2.8125-2.85586792v2.85586792h-2.8125v-2.85586792zm2.8125-2.85586791v2.85586791h-2.8125v-2.85586791zm0 11.42347162v2.855868h-2.8125v-2.855868zm-2.8125-2.85586788v2.85586788h-2.8125v-2.85586788z" fill="#f50100" mask="url(#e)"/></g><g transform="translate(.0438)"><g transform="translate(0 1.7135)"><path d="m1.62698595 5.9699842c.57994156-.30977206 1.1172378-.5444799 1.61188873-.70412352s.93745939-.28307668 1.32842538-.37029919l-1.10391928-4.06945862-2.21109226-.82610287-1.25228852 2.06413386z" fill="#56c6f5" stroke="#fff" stroke-width=".666667"/><path d="m1.26433408 3.7408466.25407546-.12247167c.26237316.56122587.60822097.73457272 1.08227477.5576579.48422523-.18071075.68164866-.52243956.61198413-1.06418885l.27888261-.03697651c.08647633.67248694-.18470982 1.14189484-.79384461 1.36922129-.61930621.23112239-1.11200745-.01583078-1.43337236-.70324216z" fill="#fff" fill-rule="nonzero"/><path d="m1.89753836 2.47698901-.22915633.16775408c-.03221476.02358284-.07744766.01658529-.10103051-.01562948-.01065801-.01455911-.01548607-.03257769-.01353552-.05051525l.03070113-.28233224-.25985745-.11457816c-.03653073-.01610738-.05308712-.058779-.03697974-.09530973.00727956-.01650966.02047007-.02970017.03697974-.03697973l.25985745-.11457816-.03070113-.28233224c-.00431596-.03969022.02436055-.07536429.06405078-.07968025.01793757-.00195055.03595614.00287751.05051525.01353552l.22915633.16775408.22915632-.16775408c.03221477-.02358284.07744767-.01658529.10103051.01562948.01065801.01455911.01548608.03257769.01353553.05051525l-.03070113.28233224.25985745.11457816c.03653073.01610738.05308712.058779.03697973.09530973-.00727955.01650966-.02047007.02970017-.03697973.03697973l-.25985745.11457816.03070113.28233224c.00431596.03969022-.02436055.07536429-.06405078.07968025-.01793757.00195055-.03595614-.00287751-.05051526-.01353552z" fill="#feca00" transform="matrix(.9961947 .08715574 -.08715574 .9961947 .191599 -.157328)"/></g><g transform="translate(5.625)"><path d="m2.35965995 6.60540882c.45326305-.20275402.92722003-.38395284 1.42187096-.54359646s.95041553-.30928449 1.3672938-.4489226l-.94638436-3.91798309-2.06992538-.88270441-1.25228852 2.06413387z" fill="#56c6f5" stroke="#fff" stroke-width=".666667" transform="matrix(.94551858 .32556815 -.32556815 .94551858 1.371701 -.779364)"/><g fill="#feca00"><path d="m3.06487654 5.5797597c.64312495 0 .70472477-.69461535.70472477-1.16779104-.16444473-.26244334-.1313168-.45025169-.65843816-.45025169s-.58729507.15928376-.74109315.45025169c0 .47317569.0516816 1.16779104.69480654 1.16779104z"/><path d="m3.78855655 3.61715027c.64312494 0 .70472476-.69461535.70472476-1.16779104-.16444472-.26244334-.1313168-.45025169-.65843815-.45025169-.52712136 0-.58729508.15928375-.74109316.45025169 0 .47317569.0516816 1.16779104.69480655 1.16779104z"/><path d="m2.38230655 3.61715027c.64312494 0 .70472476-.69461535.70472476-1.16779104-.16444472-.26244334-.1313168-.45025169-.65843815-.45025169-.52712136 0-.58729508.15928375-.74109316.45025169 0 .47317569.0516816 1.16779104.69480655 1.16779104z"/></g></g><g transform="translate(3.0937 .8568)"><path d="m1.86742905-.41203489 2.17660644 1.54582852.37982075 4.40291432c-.64351694.01732512-1.17239786.05423756-1.58653969.11178277-.3945271.05481973-.94354326.20197334-1.64789313.43728944l-1.30701068-4.4399727z" stroke="#fff" stroke-width=".666667"/><g fill="#c51918" fill-rule="nonzero"><path d="m1.17775319 4.79368604-.33400319-.78677398c.71734342-.31399224 1.92912294-.50665835 3.20427985-.58199054l.04900624.85531404c-1.18542412.07003106-2.30675727.2453386-2.9192829.51345048z" mask="url(#f)"/><path d="m.61408516 2.89053519-.33400319-.78677398c.71734342-.31399225 2.25922093-.56819034 3.53437784-.64352253l.04900624.85531404c-1.18542412.07003106-2.63685526.30687058-3.24938089.57498247z" mask="url(#f)"/></g></g><g transform="translate(9.8437 .8568)"><path d="m1.76647708-.4167044 2.18318135 1.55049803.37982075 4.40291432c-.64351694.01732512-1.17239786.05423756-1.58653969.11178277-.39592104.05501342-.94742476.20301434-1.65536477.439787l-1.20010801-4.44675946z" stroke="#fff" stroke-width=".666667"/><path d="m2.37624635 4.56522404c.26130348-.14544464.41079151-.3407816.4484641-.58601087.05650888-.36784391.66279708-.82090357.35965298-.76698243s-.12981012.09604067-.56877592 0c-.43896579-.09604067-1.00710047-.15956588-1.00710047-.42941574 0-.26984987.28238409-.48402871.0515393-.48402871s-.72335375-.25540307-.62444317-.0601882c.09891058.19521488-.22755846-.02551589-.06432394.37976761.16323452.40528349-.03458664.81357842.06432394.92101375s-.06432394.63435677-.06432394.63435677.05995552.19570321.16483761-.09742431.33436425-.49859758.21962317-.24929879-.26114317.84226854-.13057159.73821092c.13057159-.10405763.26038171-.39181338.26038171-.48891213 0-.09709874.32947483-.47824998.32947483-.19041284 0 .28783715-.30995723.51450941-.15497862.51450941.15497862 0 .24185302.06116489.33929375-.22667226.09744074-.28783715.33408371-.47824998.43115074-.28783715.09706703.19041284.07558564.18023904-.05422448.42978201-.08654008.16636197-.08654008.24954296 0 .24954296z" fill="#feca00" mask="url(#g)"/><path d="m1.45549005 2.43192753-.14591676-.24414428c.26184266-.16135789.50227412-.20434889.71341652-.1143904.09601337.04090707.16835331.08750028.35685654.22010282.01234512.00868244.01234512.00868244.02462932.0173047.19629662.13766928.30021898.19374691.36420683.19374691v.28558679c-.1464299 0-.27309452-.0683496-.52404284-.24434791-.01251311-.00878294-.01251311-.00878294-.02495546-.01753378-.16966215-.11934879-.23518576-.16155169-.30551228-.19151473-.11679613-.04976169-.26706414-.02289261-.45868187.09518988zm.32472481 2.1371571c.08284271 0 .15-.06632818.15-.14814815 0-.08181996-.06715729-.14814814-.15-.14814814s-.15.06632818-.15.14814814c0 .08181997.06715729.14814815.15.14814815zm.46994549.23709023c.08284271 0 .15-.06632818.15-.14814814 0-.08181997-.06715729-.14814815-.15-.14814815s-.15.06632818-.15.14814815c0 .08181996.06715729.14814814.15.14814814z" fill="#c51918" fill-rule="nonzero" mask="url(#g)"/></g><g transform="translate(12.6562 1.7135)"><path d="m1.36761898-.40883485 2.62748074.98167291 1.27256437 4.47639976c-.46076178.08259557-1.00907577.22694706-1.64515938.43223665-.56689309.18295906-1.19139143.46875197-1.87429143.85544637l-1.86546484-4.29825936z" stroke="#fff" stroke-width=".666667"/><path d="m3.12810908 1.87987866-.22915633.16775408c-.03221476.02358284-.07744766.01658529-.10103051-.01562948-.01065801-.01455911-.01548607-.03257769-.01353552-.05051525l.03070113-.28233224-.25985745-.11457816c-.03653073-.01610738-.05308712-.058779-.03697974-.09530973.00727956-.01650966.02047007-.02970017.03697974-.03697973l.25985745-.11457816-.03070113-.28233224c-.00431596-.03969023.02436055-.07536429.06405078-.07968025.01793757-.00195055.03595614.00287751.05051525.01353552l.22915633.16775408.22915632-.16775408c.03221477-.02358284.07744767-.01658529.10103051.01562948.01065801.01455911.01548608.03257769.01353552.05051525l-.03070112.28233224.25985745.11457816c.03653072.01610738.05308712.058779.03697973.09530973-.00727955.01650966-.02047007.02970017-.03697973.03697973l-.25985745.11457816.03070112.28233224c.00431596.03969022-.02436054.07536429-.06405077.07968025-.01793757.00195055-.03595614-.00287751-.05051526-.01353552z" fill="#feca00" mask="url(#h)" transform="matrix(.9781476 -.20791169 .20791169 .9781476 -.247337 .683549)"/><g fill-rule="nonzero"><path d="m.36017926 3.73663788.28322904-1.10555207c1.25433597.33133219 2.56191792.75598 3.52118032 1.16661168l-.43701943 1.05263278c-.90619863-.38791666-2.16290826-.79552919-3.36738993-1.11369239z" fill="#e31d1c" mask="url(#h)"/><path d="m.74417983 2.71576671.06677061-.27742197c1.20253988.29842494 2.48069774.7745881 3.40950132 1.21808635l-.11968349.25843863c-.91095459-.43497546-2.17148783-.90500584-3.35658844-1.19910301z" fill="#fff" mask="url(#h)"/><path d="m.38777213 3.85517265.06677061-.27742197c1.20253988.29842494 2.31401756.70334976 3.24282114 1.14684801l-.1196835.25843862c-.91095459-.43497546-2.00480764-.83376749-3.18990825-1.12786466z" fill="#fff" mask="url(#h)"/><path d="m.93055401 3.31979517.25750797-.1162777c.10840004.25374936.24229162.3096522.46614392.20089198.52871332-.25687913 1.84018805.10210188 1.84018805.58614367 0 .18883844-.10946393.30332728-.27657759.2966948-.09431688-.00374328-.19498256-.04101075-.34267416-.11401975-.01791576-.00885637-.02968116-.01478533-.05872576-.02955674-.16330979-.08328722-.17569863-.08936253-.21914616-.10502507l.09306141-.27286875c.06020528.0217036.06967843.0263491.25106678.11885629.02796709.01422266.03888188.01972298.05561766.02799604.1132146.05596584.18888356.08397927.23164929.08567657.00398602.0001582-.01552147.02056117-.01552147-.00775339 0-.21297499-1.06739351-.50514532-1.43876982-.3247095-.37035929.17994169-.6731224.05353106-.84382012-.34604845z" fill="#272727" mask="url(#h)"/></g></g></g></g></g></g></g></g><rect height="32" mask="url(#b)" rx="2" width="43.335938"/></g></svg>