<svg height="32" viewBox="0 0 43 32" width="43" xmlns="http://www.w3.org/2000/svg" xmlns:xlink="http://www.w3.org/1999/xlink"><defs><path id="a" d="m0 0h42.666667v32h-42.666667z"/><path id="b" d="m0 0h16v10.666667h-16z"/><mask id="c" fill="#fff"><path d="m0 0h43.335938v32h-43.335938z" fill="#fff" fill-rule="evenodd"/></mask><mask id="d" fill="#fff"><path d="m0 0h42.666667v32h-42.666667z" fill="#fff" fill-rule="evenodd"/></mask><mask id="e" fill="#fff"><use fill="#fff" fill-rule="evenodd" xlink:href="#a"/></mask><mask id="f" fill="#fff"><use fill="#fff" fill-rule="evenodd" xlink:href="#b"/></mask></defs><g fill="none" fill-rule="evenodd"><g fill-rule="evenodd" mask="url(#c)"><g mask="url(#d)" transform="translate(.3346)"><use fill="#2e42a5" xlink:href="#a"/><path d="m0 16h42.666667v16h-42.666667z" fill="#e31d1c" mask="url(#e)"/><g mask="url(#e)"><g fill-rule="evenodd" transform="translate(13.3333 10.6667)"><use fill="#fff" xlink:href="#b"/><path d="m0 8.77037037c2.56030303-.6731807 5.2269697-.98923008 8-.94814815s5.439697.43614366 8 1.18518519v1.65925929h-16z" fill="#279e19" mask="url(#f)"/><g fill="none"><g mask="url(#f)"><g transform="translate(4.4138 .4741)"><g fill="none" stroke="#026a16" stroke-width=".666667"><path d="m3.68435229.72747095c-.82760088-.3727811-1.53026351-.55917165-2.10798787-.55917165s-1.027057.2844942-1.34799792.85348261"/><path d="m3.96021436 1.28796949c-.76154052-.27237272-1.40811554-.40855908-1.93972505-.40855908-.53160952 0-.94507575.20786585-1.24039867.62359755"/><path d="m3.96021436 1.76204356c-.56335941-.27237271-1.04167162-.40855907-1.43493661-.40855907-.393265 0-.69913196.20786585-.91760091.62359754"/><path d="m3.6128238 2.23611764c-.34804947-.27237272-.64355586-.40855908-.88651917-.40855908-.24296332 0-.4319312.20786585-.56690365.62359755"/><path d="m3.56812478 2.55957915c-.13916434-.17196434-.25731982-.25794651-.35446645-.25794651-.09714662 0-.17270367.13123749-.22667114.39371248"/></g><g fill="none" stroke="#026a16" stroke-width=".666667" transform="matrix(-1 0 0 1 7.1724 0)"><path d="m3.68435229.72747095c-.82760088-.3727811-1.53026351-.55917165-2.10798787-.55917165s-1.027057.2844942-1.34799792.85348261"/><path d="m3.96021436 1.28796949c-.76154052-.27237272-1.40811554-.40855908-1.93972505-.40855908-.53160952 0-.94507575.20786585-1.24039867.62359755"/><path d="m3.96021436 1.76204356c-.56335941-.27237271-1.04167162-.40855907-1.43493661-.40855907-.393265 0-.69913196.20786585-.91760091.62359754"/><path d="m3.6128238 2.23611764c-.34804947-.27237272-.64355586-.40855908-.88651917-.40855908-.24296332 0-.4319312.20786585-.56690365.62359755"/><path d="m3.56812478 2.55957915c-.13916434-.17196434-.25731982-.25794651-.35446645-.25794651-.09714662 0-.17270367.13123749-.22667114.39371248"/></g><path d="m3.43631761 2.72353751c-.10155711 1.18881107-.15233566 2.0251266-.15233566 2.50894659s.05077855 1.2476977.15233566 2.29163314h.39177508c0-1.12385772 0-1.88773544 0-2.29163314s-.07662835-1.24021323-.22988505-2.50894659z" fill="#feca00"/></g></g><g mask="url(#f)"><g transform="translate(1.6552 2.6074)"><path d="m4.65419931 2.61724311c-.64372369.34454947-.96558553 1.02682336-.96558553 2.04682167l.96558553 1.84741161h1.74255307v-3.04230476z" fill="#c51918" fill-rule="evenodd"/><path d="m3.22343362 1.16054071c-1.50294286.44524364-2.25441429 1.48911313-2.25441429 3.13160847l2.92081566.24916367c-.10636636-.95425366.14005671-1.65208997.73926922-2.09350895z" fill="#0a328c" fill-rule="evenodd"/><g fill="none" stroke="#ffd018" stroke-width=".666667"><path d="m2.292728.220465 3.867292 3.544078"/><path d="m.949565 1.022952 5.393949 3.502634"/><path d="m.021046 2.378663 6.07946 2.780366"/></g><path d="m.98455987 4.27286101 4.03420899.45104657-.22712211.56301692h-.63957955l.43559558.31810653.98227722.22987549v-.54798202h.86025521v1.16421452h-1.84253243l-.70669166-.84610799c-.395689.39004978-.78661991.58507467-1.17279273.58507467-.57925922 0-1.15034528-.19001326-1.15034528-.82810569 0-.42539495 0-.57336988 0-.44392479l-.57327324-.19416764z" fill="#feca00" fill-rule="evenodd"/></g></g><g mask="url(#f)"><g transform="matrix(-1 0 0 1 13.7931 2.6074)"><path d="m4.65419931 2.61724311c-.64372369.34454947-.96558553 1.02682336-.96558553 2.04682167l.96558553 1.84741161h1.74255307v-3.04230476z" fill="#c51918" fill-rule="evenodd"/><path d="m3.22343362 1.16054071c-1.50294286.44524364-2.25441429 1.48911313-2.25441429 3.13160847l2.92081566.24916367c-.10636636-.95425366.14005671-1.65208997.73926922-2.09350895z" fill="#0a328c" fill-rule="evenodd"/><g fill="none" stroke="#ffd018" stroke-width=".666667"><path d="m2.292728.220465 3.867292 3.544078"/><path d="m.949565 1.022952 5.393949 3.502634"/><path d="m.021046 2.378663 6.07946 2.780366"/></g><path d="m.98455987 4.27286101 4.03420899.45104657-.22712211.56301692h-.63957955l.43559558.31810653.98227722.22987549v-.54798202h.86025521v1.16421452h-1.84253243l-.70669166-.84610799c-.395689.39004978-.78661991.58507467-1.17279273.58507467-.57925922 0-1.15034528-.19001326-1.15034528-.82810569 0-.42539495 0-.57336988 0-.44392479l-.57327324-.19416764z" fill="#feca00" fill-rule="evenodd"/></g></g></g></g></g></g></g><rect height="32" mask="url(#c)" rx="2" width="43.335938"/></g></svg>