<svg height="32" viewBox="0 0 43 32" width="43" xmlns="http://www.w3.org/2000/svg" xmlns:xlink="http://www.w3.org/1999/xlink"><defs><path id="a" d="m0 0h42.666667v32h-42.666667z"/><mask id="b" fill="#fff"><path d="m0 0h43.335938v32h-43.335938z" fill="#fff" fill-rule="evenodd"/></mask><mask id="c" fill="#fff"><path d="m0 0h42.666667v32h-42.666667z" fill="#fff" fill-rule="evenodd"/></mask><mask id="d" fill="#fff"><use fill="#fff" fill-rule="evenodd" xlink:href="#a"/></mask></defs><g fill="none" fill-rule="evenodd"><g fill-rule="evenodd" mask="url(#b)"><g mask="url(#c)" transform="translate(.3346)"><use fill="#e31d1c" xlink:href="#a"/><g mask="url(#d)"><g transform="translate(8 -.5333)"><g fill="none" fill-rule="evenodd"><g transform="translate(0 4.9431)"><path d="m.34731625 1.02849265c1.3423569 1.51918027 2.3740654 2.2787704 3.09512549 2.2787704 1.14534468 0 5.6434665-3.79019136 6.97300496-3.17276227.886359.41161939 2.2268269 2.7692655 4.0214039 7.07293832l-1.7541808 2.20035262-2.2672231-1.23683395-.42849969-4.86369472c-2.90938335 1.49642656-5.09088511 1.97305388-6.54450527 1.42988193l-1.22570846 1.02995555c-.78692219-1.55822637-1.33532467-2.57563974-1.64520742-3.05224011-.26206882-.40306242-.41332143-.93322535-.45375783-1.59048879l-.00000719.00000044c-.0044411-.07350393.05154537-.13669085.1250493-.14113196.04026571-.00243285.0794681.01349448.10662731.04332103z" fill="#f7fcff"/><g fill="#feca00"><path d="m3.01587302 6.42276423-.74639398.45221999.14254857-.95781731-.60384541-.67832999.83449383-.13974366.37319699-.87145098.37319698.87145098.83449383.13974366-.60384541.67832999.14254857.95781731z"/><path d="m9.83384304.16260163c.26709446 0 .48361726.21652283.48361726.48361728v2.28479796c0 .26709445-.2165228.48361728-.48361726.48361728-.26709445 0-.48361728-.21652283-.48361728-.48361728v-2.28479796c0-.26709445.21652283-.48361728.48361728-.48361728z"/></g></g><g transform="matrix(-.52991926 .8480481 -.8480481 -.52991926 26.635649 7.821134)"><path d="m.34731625 1.02849265c1.3423569 1.51918027 2.3740654 2.2787704 3.09512549 2.2787704 1.14534468 0 5.6434665-3.79019136 6.97300496-3.17276227.886359.41161939 2.2268269 2.7692655 4.0214039 7.07293832l-1.7541808 2.20035262-2.2672231-1.23683395-.42849969-4.86369472c-2.90938335 1.49642656-5.09088511 1.97305388-6.54450527 1.42988193l-1.22570846 1.02995555c-.78692219-1.55822637-1.33532467-2.57563974-1.64520742-3.05224011-.26206882-.40306242-.41332143-.93322535-.45375783-1.59048879l-.00000719.00000044c-.0044411-.07350393.05154537-.13669085.1250493-.14113196.04026571-.00243285.0794681.01349448.10662731.04332103z" fill="#f7fcff"/><g fill="#feca00"><path d="m3.01587302 6.42276423-.74639398.45221999.14254857-.95781731-.60384541-.67832999.83449383-.13974366.37319699-.87145098.37319698.87145098.83449383.13974366-.60384541.67832999.14254857.95781731z"/><path d="m9.88957957.01388169c.27464323-.0100408.50542513.20446183.51546593.47910503.0004055.01108934.0004398.02218913.0001031.03328076l-.0730121 2.40494917c-.0086016.28332756-.210783.52360473-.48847037.58050989-.21421729.04389853-.42346151-.0941721-.46736004-.30838939-.00527074-.02572029-.00797012-.05190107-.00805829-.07815571l-.00859624-2.55979356c-.00099625-.29666564.23345876-.54066744.52992801-.55150619z"/></g></g><g transform="matrix(-.46947156 -.88294759 .88294759 -.46947156 8.539226 30.395407)"><path d="m.34731625 3.69515932c1.3423569 1.51918026 2.3740654 2.2787704 3.09512549 2.2787704 1.14534468 0 5.6434665-3.79019136 6.97300496-3.17276227.886359.41161939 2.2268269 2.7692655 4.0214039 7.07293832l-1.7541808 2.20035263-2.2672231-1.236834-.42849969-4.86369468c-2.90938335 1.49642656-5.09088511 1.97305387-6.54450527 1.42988193l-1.22570846 1.02995555c-.78692219-1.55822637-1.33532467-2.57563974-1.64520742-3.05224011-.26206882-.40306243-.41332143-.93322536-.45375783-1.59048879l-.00000719.00000043c-.0044411-.07350392.05154537-.13669085.1250493-.14113195.04026571-.00243285.0794681.01349447.10662731.04332103z" fill="#f7fcff"/><g fill="#feca00"><path d="m3.01587302 9.08943089-.74639398.45222.14254857-.95781732-.60384541-.67832998.83449383-.13974367.37319699-.87145098.37319698.87145098.83449383.13974367-.60384541.67832998.14254857.95781732z"/><path d="m10.1758352 2.65181764c.3006361.06508024.5026983.34782519.4669022.65333486l-.2597775 2.21712798c-.0379687.32405231-.3015345.57500313-.62705814.59704555-.2557397.01731708-.47709596-.17596264-.49441304-.43170234-.00200493-.02960893-.00116537-.0593419.00250716-.08879052l.31472165-2.52363218c.03389895-.27182274.28173535-.46469807.55355807-.43079911.0146228.0018236.0291571.00429798.0435596.00741576z"/></g></g></g><path d="m10.2167831 13.5532405c-.1659398-.0579848-.25457383-.2427926-.1979696-.4127798.0566043-.1699872.3224532-.4539277.4883931-.3959428l2.314386.8087226c.1194107.0417261.2033674.1519279.2138678.2807236l.2069556 2.5384725c.0145919.1789817-.2461032.3237689-.4208234.3387167s-.3281881-.1180279-.34278-.2970095l-.1916344-2.1830072z" fill="#feca00" fill-rule="nonzero"/><path d="m14.2407535 12.2233904c.1383364-.1103449.3853499.0175478.4930676.1592583.1077176.1417106.0828962.3460419-.0554403.4563869l-1.6032186 1.643224c-.1383365.1103449-.4494559-.1048945-.5571736-.2466051-.1077177-.1417105-.1383365-.5277454 0-.6380904z" fill="#feca00" fill-rule="nonzero"/></g></g></g></g><rect height="32" mask="url(#b)" rx="2" width="43.335938"/></g></svg>