<svg height="32" viewBox="0 0 43 32" width="43" xmlns="http://www.w3.org/2000/svg" xmlns:xlink="http://www.w3.org/1999/xlink"><defs><path id="a" d="m0 0h42.666667v32h-42.666667z"/><mask id="b" fill="#fff"><path d="m0 0h43.335938v32h-43.335938z" fill="#fff" fill-rule="evenodd"/></mask><mask id="c" fill="#fff"><path d="m0 0h42.666667v32h-42.666667z" fill="#fff" fill-rule="evenodd"/></mask><mask id="d" fill="#fff"><use fill="#fff" fill-rule="evenodd" xlink:href="#a"/></mask></defs><g fill="none" fill-rule="evenodd"><g fill-rule="evenodd" mask="url(#b)"><g mask="url(#c)" transform="translate(.3346)"><use fill="#f7fcff" xlink:href="#a"/><path d="m0 0h42.666667v10.666667h-42.666667z" fill="#ff8c1a" mask="url(#d)"/><path d="m0 21.333333h42.666667v10.666667h-42.666667z" fill="#5eaa22" mask="url(#d)"/><g fill="#3d58db" mask="url(#d)"><g transform="translate(16 10.6667)"><path d="m5.33333333 9.33333333c2.209139 0 4-1.790861 4-4s-1.790861-4-4-4-4 1.790861-4 4 1.790861 4 4 4zm0 1.33333337c-2.94551866 0-5.33333333-2.3878147-5.33333333-5.33333337 0-2.94551866 2.38781467-5.33333333 5.33333333-5.33333333 2.94551867 0 5.33333337 2.38781467 5.33333337 5.33333333 0 2.94551867-2.3878147 5.33333337-5.33333337 5.33333337z" fill-rule="nonzero"/><path d="m5.32598896 6.48094453-.76110865 4.16074497.44193891-4.20663465-1.90249573 3.77777645 1.60918322-3.91172778-2.88975391 3.088755 2.64606107-3.29991605-3.64290141 2.14950096 3.46857079-2.42076471-4.10092271 1.03610715 4.01007753-1.34549742-4.22671164-.16122592 4.22671164-.16122591-4.01007753-1.34549742 4.10092271 1.03610714-3.46857079-2.42076471 3.64290141 2.14950097-2.64606107-3.29991605 2.88975391 3.088755-1.60918322-3.91172781 1.90249573 3.77777648-.44193891-4.20663465.76110865 4.16074497.76110866-4.16074497-.44193892 4.20663465 1.90249573-3.77777648-1.60918322 3.91172781 2.88975391-3.088755-2.64606107 3.29991605 3.64290141-2.14950097-3.46857079 2.42076471 4.10092273-1.03610714-4.01007755 1.34549742 4.22671165.16122591-4.22671165.16122592 4.01007755 1.34549742-4.10092273-1.03610715 3.46857079 2.42076471-3.64290141-2.14950096 2.64606107 3.29991605-2.88975391-3.088755 1.60918322 3.91172778-1.90249573-3.77777645.44193892 4.20663465z" fill-rule="evenodd"/></g></g></g></g><rect height="32" mask="url(#b)" rx="2" width="43.335938"/></g></svg>