<svg height="32" viewBox="0 0 43 32" width="43" xmlns="http://www.w3.org/2000/svg" xmlns:xlink="http://www.w3.org/1999/xlink"><defs><path id="a" d="m0 0h42.666667v32h-42.666667z"/><mask id="b" fill="#fff"><path d="m0 0h43.335938v32h-43.335938z" fill="#fff" fill-rule="evenodd"/></mask><mask id="c" fill="#fff"><path d="m0 0h42.666667v32h-42.666667z" fill="#fff" fill-rule="evenodd"/></mask><mask id="d" fill="#fff"><use fill="#fff" fill-rule="evenodd" xlink:href="#a"/></mask><mask id="e" fill="#fff"><path d="m0 0h18.666667v13.333333h-18.666667z" fill="#fff" fill-rule="evenodd"/></mask></defs><g fill="none" fill-rule="evenodd"><g fill-rule="evenodd" mask="url(#b)"><g mask="url(#c)" transform="translate(.3346)"><use fill="#f7fcff" xlink:href="#a"/><g fill="#2e42a5" fill-rule="nonzero" mask="url(#d)"><path d="m41.1443303 1.33333333c2.2930956 0 4.509457 1.04755801 6.6334057 3.05531679l-1.9828596 1.88936643c-1.6373685-1.54779678-3.1823244-2.27801655-4.6505461-2.27801655-.7093691 0-1.0114604.17133926-1.8295581.94468322-1.2255519 1.15850848-2.0726184 1.66468988-3.54575 1.71735662l-.2666678.00462683c-1.6414541 0-2.5147745-.49532741-3.8124177-1.72198345-.8180978-.77334396-1.120189-.94468322-1.8295582-.94468322-.7093691 0-1.0114603.17133926-1.8295581.94468322-1.2255519 1.15850848-2.0726184 1.66468988-3.5457499 1.71735662l-.2666678.00462683c-1.6414542 0-2.5147746-.49532741-3.8124178-1.72198345-.8180977-.77334396-1.120189-.94468322-1.8295581-.94468322-.7093692 0-1.0114604.17133926-1.8295581.94468322-1.225552 1.15850848-2.0726184 1.66468988-3.54575 1.71735662l-.2666678.00462683c-1.6414541 0-2.5147745-.49532741-3.81241775-1.72198345-.81809774-.77334396-1.12018898-.94468322-1.82955813-.94468322-1.39094685 0-2.85076317.6553773-4.39277988 2.04040912l-.25776618.23760743-1.98285963-1.88936643c2.12394874-2.00775878 4.34031012-3.05531679 6.63340569-3.05531679 1.64145414 0 2.51477454.49532741 3.81241778 1.72198345.8180977.77334396 1.120189.94468322 1.8295581.94468322.7093692 0 1.0114604-.17133926 1.8295581-.94468322 1.2976432-1.22665604 2.1709636-1.72198345 3.8124178-1.72198345 1.6414541 0 2.5147745.49532741 3.8124177 1.72198345.8180978.77334396 1.120189.94468322 1.8295582.94468322.7093691 0 1.0114604-.17133926 1.8295581-.94468322 1.2976432-1.22665604 2.1709636-1.72198345 3.8124177-1.72198345 1.6414542 0 2.5147746.49532741 3.8124178 1.72198345.8180977.77334396 1.120189.94468322 1.8295581.94468322.7093692 0 1.0114604-.17133926 1.8295582-.94468322 1.2976432-1.22665604 2.1709636-1.72198345 3.8124177-1.72198345zm0 15.99999997c2.2930956 0 4.509457 1.047558 6.6334057 3.0553168l-1.9828596 1.8893665c-1.6373685-1.5477968-3.1823244-2.2780166-4.6505461-2.2780166-.7093691 0-1.0114604.1713393-1.8295581.9446832-1.2255519 1.1585085-2.0726184 1.6646899-3.54575 1.7173566l-.2666678.0046269c-1.6414541 0-2.5147745-.4953274-3.8124177-1.7219835-.8180978-.7733439-1.120189-.9446832-1.8295582-.9446832-.7093691 0-1.0114603.1713393-1.8295581.9446832-1.2255519 1.1585085-2.0726184 1.6646899-3.5457499 1.7173566l-.2666678.0046269c-1.6414542 0-2.5147746-.4953274-3.8124178-1.7219835-.8180977-.7733439-1.120189-.9446832-1.8295581-.9446832-.7093692 0-1.0114604.1713393-1.8295581.9446832-1.225552 1.1585085-2.0726184 1.6646899-3.54575 1.7173566l-.2666678.0046269c-1.6414541 0-2.5147745-.4953274-3.81241775-1.7219835-.81809774-.7733439-1.12018898-.9446832-1.82955813-.9446832-1.39094685 0-2.85076317.6553773-4.39277988 2.0404091l-.25776618.2376075-1.98285963-1.8893665c2.12394874-2.0077588 4.34031012-3.0553168 6.63340569-3.0553168 1.64145414 0 2.51477454.4953274 3.81241778 1.7219835.8180977.7733439 1.120189.9446832 1.8295581.9446832.7093692 0 1.0114604-.1713393 1.8295581-.9446832 1.2976432-1.2266561 2.1709636-1.7219835 3.8124178-1.7219835 1.6414541 0 2.5147745.4953274 3.8124177 1.7219835.8180978.7733439 1.120189.9446832 1.8295582.9446832.7093691 0 1.0114604-.1713393 1.8295581-.9446832 1.2976432-1.2266561 2.1709636-1.7219835 3.8124177-1.7219835 1.6414542 0 2.5147746.4953274 3.8124178 1.7219835.8180977.7733439 1.120189.9446832 1.8295581.9446832.7093692 0 1.0114604-.1713393 1.8295582-.9446832 1.2976432-1.2266561 2.1709636-1.7219835 3.8124177-1.7219835zm0-5.3333333c2.2930956 0 4.509457 1.047558 6.6334057 3.0553168l-1.9828596 1.8893664c-1.6373685-1.5477968-3.1823244-2.2780165-4.6505461-2.2780165-.7093691 0-1.0114604.1713392-1.8295581.9446832-1.2255519 1.1585085-2.0726184 1.6646899-3.54575 1.7173566l-.2666678.0046268c-1.6414541 0-2.5147745-.4953274-3.8124177-1.7219834-.8180978-.773344-1.120189-.9446832-1.8295582-.9446832-.7093691 0-1.0114603.1713392-1.8295581.9446832-1.2255519 1.1585085-2.0726184 1.6646899-3.5457499 1.7173566l-.2666678.0046268c-1.6414542 0-2.5147746-.4953274-3.8124178-1.7219834-.8180977-.773344-1.120189-.9446832-1.8295581-.9446832-.7093692 0-1.0114604.1713392-1.8295581.9446832-1.225552 1.1585085-2.0726184 1.6646899-3.54575 1.7173566l-.2666678.0046268c-1.6414541 0-2.5147745-.4953274-3.81241775-1.7219834-.81809774-.773344-1.12018898-.9446832-1.82955813-.9446832-1.39094685 0-2.85076317.6553773-4.39277988 2.0404091l-.25776618.2376074-1.98285963-1.8893664c2.12394874-2.0077588 4.34031012-3.0553168 6.63340569-3.0553168 1.64145414 0 2.51477454.4953274 3.81241778 1.7219834.8180977.773344 1.120189.9446833 1.8295581.9446833.7093692 0 1.0114604-.1713393 1.8295581-.9446833 1.2976432-1.226656 2.1709636-1.7219834 3.8124178-1.7219834 1.6414541 0 2.5147745.4953274 3.8124177 1.7219834.8180978.773344 1.120189.9446833 1.8295582.9446833.7093691 0 1.0114604-.1713393 1.8295581-.9446833 1.2976432-1.226656 2.1709636-1.7219834 3.8124177-1.7219834 1.6414542 0 2.5147746.4953274 3.8124178 1.7219834.8180977.773344 1.120189.9446833 1.8295581.9446833.7093692 0 1.0114604-.1713393 1.8295582-.9446833 1.2976432-1.226656 2.1709636-1.7219834 3.8124177-1.7219834zm0-5.33333333c2.2930956 0 4.509457 1.04755801 6.6334057 3.05531678l-1.9828596 1.88936645c-1.6373685-1.5477968-3.1823244-2.27801657-4.6505461-2.27801657-.7093691 0-1.0114604.17133926-1.8295581.94468327-1.2255519 1.1585084-2.0726184 1.6646898-3.54575 1.7173566l-.2666678.0046268c-1.6414541 0-2.5147745-.4953274-3.8124177-1.7219834-.8180978-.77334401-1.120189-.94468327-1.8295582-.94468327-.7093691 0-1.0114603.17133926-1.8295581.94468327-1.2255519 1.1585084-2.0726184 1.6646898-3.5457499 1.7173566l-.2666678.0046268c-1.6414542 0-2.5147746-.4953274-3.8124178-1.7219834-.8180977-.77334401-1.120189-.94468327-1.8295581-.94468327-.7093692 0-1.0114604.17133926-1.8295581.94468327-1.225552 1.1585084-2.0726184 1.6646898-3.54575 1.7173566l-.2666678.0046268c-1.6414541 0-2.5147745-.4953274-3.81241775-1.7219834-.81809774-.77334401-1.12018898-.94468327-1.82955813-.94468327-1.39094685 0-2.85076317.6553773-4.39277988 2.04040917l-.25776618.2376074-1.98285963-1.88936645c2.12394874-2.00775877 4.34031012-3.05531678 6.63340569-3.05531678 1.64145414 0 2.51477454.4953274 3.81241778 1.72198345.8180977.77334395 1.120189.94468321 1.8295581.94468321.7093692 0 1.0114604-.17133926 1.8295581-.94468321 1.2976432-1.22665605 2.1709636-1.72198345 3.8124178-1.72198345 1.6414541 0 2.5147745.4953274 3.8124177 1.72198345.8180978.77334395 1.120189.94468321 1.8295582.94468321.7093691 0 1.0114604-.17133926 1.8295581-.94468321 1.2976432-1.22665605 2.1709636-1.72198345 3.8124177-1.72198345 1.6414542 0 2.5147746.4953274 3.8124178 1.72198345.8180977.77334395 1.120189.94468321 1.8295581.94468321.7093692 0 1.0114604-.17133926 1.8295582-.94468321 1.2976432-1.22665605 2.1709636-1.72198345 3.8124177-1.72198345zm-7.471534 23.05531673c.8180977.773344 1.120189.9446833 1.8295581.9446833.7093692 0 1.0114604-.1713393 1.8295582-.9446833 1.2976432-1.226656 2.1709636-1.7219834 3.8124177-1.7219834 2.2930956 0 4.509457 1.047558 6.6334057 3.0553168l-1.9828596 1.8893664c-1.6373685-1.5477968-3.1823244-2.2780165-4.6505461-2.2780165-.7093691 0-1.0114604.1713392-1.8295581.9446832-1.2255519 1.1585085-2.0726184 1.6646899-3.54575 1.7173566l-.2666678.0046268c-1.6414541 0-2.5147745-.4953274-3.8124177-1.7219834-.8180978-.773344-1.120189-.9446832-1.8295582-.9446832-.7093691 0-1.0114603.1713392-1.8295581.9446832-1.2255519 1.1585085-2.0726184 1.6646899-3.5457499 1.7173566l-.2666678.0046268c-1.6414542 0-2.5147746-.4953274-3.8124178-1.7219834-.8180977-.773344-1.120189-.9446832-1.8295581-.9446832-.7093692 0-1.0114604.1713392-1.8295581.9446832-1.225552 1.1585085-2.0726184 1.6646899-3.54575 1.7173566l-.2666678.0046268c-1.6414541 0-2.5147745-.4953274-3.81241775-1.7219834-.81809774-.773344-1.12018898-.9446832-1.82955813-.9446832-1.39094685 0-2.85076317.6553773-4.39277988 2.0404091l-.25776618.2376074-1.98285963-1.8893664c2.12394874-2.0077588 4.34031012-3.0553168 6.63340569-3.0553168 1.64145414 0 2.51477454.4953274 3.81241778 1.7219834.8180977.773344 1.120189.9446833 1.8295581.9446833.7093692 0 1.0114604-.1713393 1.8295581-.9446833 1.2976432-1.226656 2.1709636-1.7219834 3.8124178-1.7219834 1.6414541 0 2.5147745.4953274 3.8124177 1.7219834.8180978.773344 1.120189.9446833 1.8295582.9446833.7093691 0 1.0114604-.1713393 1.8295581-.9446833 1.2976432-1.226656 2.1709636-1.7219834 3.8124177-1.7219834 1.6414542 0 2.5147746.4953274 3.8124178 1.7219834zm7.471534-7.0553167c2.2930956 0 4.509457 1.047558 6.6334057 3.0553167l-1.9828596 1.8893665c-1.6373685-1.5477968-3.1823244-2.2780166-4.6505461-2.2780166-.7093691 0-1.0114604.1713393-1.8295581.9446833-1.2255519 1.1585084-2.0726184 1.6646898-3.54575 1.7173566l-.2666678.0046268c-1.6414541 0-2.5147745-.4953274-3.8124177-1.7219834-.8180978-.773344-1.120189-.9446833-1.8295582-.9446833-.7093691 0-1.0114603.1713393-1.8295581.9446833-1.2255519 1.1585084-2.0726184 1.6646898-3.5457499 1.7173566l-.2666678.0046268c-1.6414542 0-2.5147746-.4953274-3.8124178-1.7219834-.8180977-.773344-1.120189-.9446833-1.8295581-.9446833-.7093692 0-1.0114604.1713393-1.8295581.9446833-1.225552 1.1585084-2.0726184 1.6646898-3.54575 1.7173566l-.2666678.0046268c-1.6414541 0-2.5147745-.4953274-3.81241775-1.7219834-.81809774-.773344-1.12018898-.9446833-1.82955813-.9446833-1.39094685 0-2.85076317.6553773-4.39277988 2.0404092l-.25776618.2376074-1.98285963-1.8893665c2.12394874-2.0077587 4.34031012-3.0553167 6.63340569-3.0553167 1.64145414 0 2.51477454.4953274 3.81241778 1.7219834.8180977.773344 1.120189.9446832 1.8295581.9446832.7093692 0 1.0114604-.1713392 1.8295581-.9446832 1.2976432-1.226656 2.1709636-1.7219834 3.8124178-1.7219834 1.6414541 0 2.5147745.4953274 3.8124177 1.7219834.8180978.773344 1.120189.9446832 1.8295582.9446832.7093691 0 1.0114604-.1713392 1.8295581-.9446832 1.2976432-1.226656 2.1709636-1.7219834 3.8124177-1.7219834 1.6414542 0 2.5147746.4953274 3.8124178 1.7219834.8180977.773344 1.120189.9446832 1.8295581.9446832.7093692 0 1.0114604-.1713392 1.8295582-.9446832 1.2976432-1.226656 2.1709636-1.7219834 3.8124177-1.7219834z" transform="translate(-2.6667)"/></g><g mask="url(#d)"><path d="m0 0h18.666667v16h-18.666667z" fill="#2e42a5" mask="url(#e)"/><g mask="url(#e)"><g fill-rule="nonzero"><path d="m2.45628768 2.92004619 4.87501593-2.05890422 19.85624149 15.22758843 2.5714595 3.059593-5.2131282.6881464-8.0988863-6.5620035-6.51877103-4.42125712z" fill="#fff" transform="matrix(1 0 0 -1 -5.3333 18.0309)"/><path d="m3.12368469 2.45983217 2.48359552-1.19481682 23.22833099 19.14988505h-3.4872571z" fill="#f50100" transform="matrix(1 0 0 -1 -5.3333 19.0133)"/><path d="m1.12295435 2.92004619 4.87501593-2.05890422 19.85624142 15.22758843 2.5714596 3.059593-5.2131282.6881464-8.0988863-6.5620035-6.51877106-4.42125712z" fill="#fff" transform="matrix(-1 0 0 -1 25.3334 18.0309)"/><path d="m1.28929574 2.75458264 2.48359552-1.19481681 9.89086404 8.19906063 2.9324289.91606134 12.0769179 9.3327785h-3.4872571l-12.0701326-9.1112579-3.20609435-1.09845575z" fill="#f50100" transform="matrix(-1 0 0 -1 25.3334 18.9007)"/></g><path d="m11.3333353-.66666667-.0000154 5.33302771 8.0206647.00033333v4.00005542l-8.0206647-.001.0000154 5.33425021h-3.99995839l-.00034869-5.33424978-7.97904358.001v-4.0000557l7.97904359-.00033334.00034869-5.33302785z" fill="#f50100" stroke="#f7fcff" stroke-width="1.333333"/></g></g><g mask="url(#d)"><g transform="translate(20 2.6667)"><rect fill="#d86d00" height="16.828479" rx=".666667" width="1.333333" x="7.2" y="9.838188"/><path d="m6.99116187-.56833589c.14012452.16229279.27463472.33140357.40307888.50755335.98614294 1.35240763 1.46791421 2.91840251 1.60304713 4.53391586.93765085-1.13475448 2.32236972-2.21914095 4.15720852-3.24831828-.7488803 1.05846563-1.2201069 2.01181422-1.752783 3.06516967-.1557642.3080205-.3160468.62474756-.493345.94615544 1.0925672-.34632047 2.3108189-.58205615 3.6539615-.70677346 1.525445-.14164498 2.9189164-.11287698 4.1789123.08586287-1.3819148-.009501-2.7921827.00164082-4.0936432.37094216-1.3933043.39536287-2.6771264 1.20553937-3.9257669 1.98972409-.3208922.20153021-.6394437.40155768-.95648361.59322365 2.53268931.99305727 3.98257941 2.25971377 4.40633581 3.76007684.0752364.2663843.1190516.5434118.1309608.8310127-.1886976-.2608148-.3540682-.4550784-.509928-.5926649-.4932602-.4354293-1.5616173-.8949547-3.5699634-1.77430323-.26014202-.11390243-.53584155-.2346168-.82784238-.36273971.27227113.89303024.58342099 1.63108504.88215538 2.34056344-1.15759099.3061981-1.98456156-.0959987-2.58681972-.6210386-.50876513-.4435341-.85784857-.9730219-1.047895-1.5880888-1.52793082 1.1548445-3.11415911 1.8229295-3.88328745 2.0977397-.2158047.0771072-.50099231.1710281-.84182492.2676927.19042752-.2088411.38765823-.4240089.5916985-.64551 1.05490563-1.1451799 1.95600148-2.09508385 2.70415898-2.85066848-.81099918-.39563528-2.42137376-.49910095-4.54124965-.60328014-.57842999-.02842637-1.1191038-.05318615-1.61921351-.0712478.55474017-.14519872 1.08813048-.2724396 1.5766019-.38878765 1.42607194-.33967328 3.23574241-.76906432 4.98476127-.86686686-1.24830385-.78127744-2.27724392-1.73991017-3.08810457-2.87436403-.34214149-.47868118-.64209587-.9839646-.8995146-1.51578859.58355507.61106472 1.0085473 1.04395167 1.21995164 1.18675257.27038631.18264246 1.11144309.5122429 2.26297891.96941878l.88977648.35440149c.25179138.10097283.51320958.20670885.78270778.31734703.06858725-1.28720554.13213958-2.91025126.19068455-4.86905462.00648197-.21687435.01265685-.42964385.01868458-.63805719z" fill="#449a01" fill-rule="nonzero" stroke="#fff" stroke-width=".466667"/><g fill="none" transform="translate(3.0667 15.0162)"><path d="m4.87014266 1.79735887-.00092039.00448131.24717789-.02039933c.67075219-.03155118 1.33436924.12748738 1.99085117.47711565.76857389 0 1.50399558.303282 2.20626507.90984598v.24058167l-1.37707109 1.66446356c-.27530657.9185444-.76604628.96699921-1.14831867 1.12001256-.05200225.02081511-.38732465.04306955-.76382772.06204878l-.32715442.01535586c-.43459247.01911181-.83261086.03218643-.83261086.03218643l-.00031137-.00421116-.22616759.02861476c-1.66965714.18700798-2.62824425-.23099442-2.87576132-1.25400723l-1.37707109-1.66446356v-.24058167c.70226949-.60656398 1.43769118-.90984598 2.20626507-.90984598.76250058-.39656351 1.52205236-.55029606 2.27865532-.46119763zm-.00592039.07048131.00592039-.07048131c-.19572219 2.6263355-.19751631 4.12331278-.00538236 4.49093185z" fill="#f50100"/><g fill-rule="nonzero"><path d="m5.18826667 2.81337648-.25525176-.00089683c.04286801.05054512.07568437.11814584.09073305.19556458.01534015.07891825.00974031.15529356-.01209339.21895612l.03008083-.00744194.0782646-.00650951c.18851319 0 .34133333.11034949.34133333.24647249s-.15282014.24647249-.34133333.24647249l-.06879057-.00500744-.06373151-.01441031.00378205.06685508c.03024734.30227978.17800583.48923016.38762402.48923016.16488477 0 .28084681-.09068564.36493232-.29055438l.23340465-.55479585.02478179.62113799c.00873791.21900956.08789523.30589586.28482737.30589586.2016307 0 .34326181-.15784216.43610052-.5159006l.02807186-.10870503c-.06969757.04620111-.1690368.06800184-.27479069.0531391-.1866786-.02623597-.32265382-.15678-.30370916-.29157826s.18563525-.22280539.37231384-.19656942c.04869877.00684416.09394702.0207868.13389461.04005165l-.01584554-.04807768-.01059665-.07781666c-.00986602-.18825485.09233426-.3466408.22827071-.35376493.13593644-.00712412.25413269.13971133.26399871.32796618.00451018.08605936-.01439921.16587672-.04924501.22785501l.04713729-.0063186.07840888.00444617c.1866786.02623596.32265382.15677999.30370916.29157825s-.18563524.22280539-.37231384.19656942c-.06282887-.00883002-.11991438-.02947541-.16728342-.05812176l.00430845.03370022c.03029836.4089783.12295422.60090138.26027137.6277931.18695627.03661287.32890731.01925336.42802664-.04530197l.20151592-.1312451v.22328783c.06335952.00810129.17206335-.00620538.32078626-.04512237l.04261789.23836659.49045651-.55220284c-.04161025.01547439-.08487214.01829448-.12612242.005683-.01903921-.00582087-.03659539-.01460676-.05252265-.02592987l-.0082244.0222383c-.06390588.12018947-.250644.14587758-.41709127.057376-.16644728-.08850159-.2495735-.25767912-.18566762-.37786859.06390587-.12018947.250644-.14587758.41709127-.057376.03588343.01907956.06789439.04190867.0953945.06718814l.01511356-.08410825c.03936852-.12876862.12725342-.22366147.2216995-.2528704l.05711935-.00938882.05668018.00790211c.13017507.03979851.19102253.21820421.13590661.39848027l-.00783312.01687695.31492269-.35491071.09355678.11967495-1.25233015 1.4179726c-.18271305.40495897-.27472307.6722505-.27472307.78328154 0 .16939264-.36618721.26993126-1.08086683.37320098-.48654627.07030493-1.04926809.12052262-1.54304373.1377975l-.35513679.00657851-.21810289-.00657851c-.49377563-.01727488-1.05649746-.06749257-1.54304372-.1377975-.71467962-.10326972-1.08086683-.20380834-1.08086683-.37320098l-.00317341-.03519946c-.07469958-.08781296-.13379016-.26407425-.17727175-.52878387-.0270692-.06797443-.05898108-.1410675-.09427792-.21929821l-.27817409-.314341-.50546829-.57339584c-.11667767-.00127866-.23378348-.10701989-.2810257-.26154223l-.0169743-.07545777-.17068776-.19323576.09355678-.11967495.10076286.11507622c.02626718-.06144259.07076023-.1073062.12924903-.12518802.13017507-.03979851.2803831.07408105.33549902.25435711.00861852.02818989.01440152.05633404.01752732.08390964.02547217-.02535577.05731348-.0480249.09298075-.06698953.16644727-.08850158.3531854-.06281347.41709127.057376.06390588.12018947-.01922034.289367-.18566762.37786859-.08486981.04512608-.17501501.06056422-.25146243.04892441l.25315078.28457629.0232074-.12936659c.14872291.03891699.25742674.05322366.32078626.04512237v-.22328783l.20151592.1312451c.09911933.06455533.24107037.08191484.42802665.04530197.13731714-.02689172.22997301-.2188148.26027137-.6277931l.0120068-.14796293c-.04221741.10151321-.17262676.17547376-.32695899.17547376-.18851319 0-.34133333-.1103495-.34133333-.2464725 0-.13612299.15282014-.24647249.34133333-.24647249.05512328 0 .10719466.00943533.15328569.02619139l-.02943575-.06155313-.02132351-.07558459c-.03597001-.18504967.0431926-.35611775.17681463-.38209124.13362204-.0259735.27110356.10298323.30707357.28803291.01541572.079307.00968463.15604596-.01241724.21989602l.03040468-.00838184.0782646-.00650952c.18851319 0 .34133333.1103495.34133333.24647249 0 .136123-.15282014.2464725-.34133333.2464725l-.04360894-.0019927-.04191314-.00674005.02126034.0718378c.09206044.27008316.22255011.39093106.39897697.39093106.19693214 0 .27608946-.0868863.28482737-.30589586l.02478179-.62113799.23340465.55479585c.08408551.19986874.20004756.29055438.36493233.29055438.23582046 0 .39334974-.23660907.39334974-.60785126l.17313999.0007877c-.04743201-.03355283-.0813635-.07701884-.09536474-.12575522l-.00730844-.04826646-.00882611.05445914c-.03537647.10888551-.17073574.18995861-.33231848.18995861-.18851319 0-.34133333-.11034949-.34133333-.24647249s.15282014-.24647249.34133333-.24647249c.05512328 0 .10719466.00943532.15328569.02619138l-.02943575-.06155312-.02132351-.07558459c-.02848556-.14654555.01523382-.2843226.10102465-.34821351l.00059351-.17231293-.10835203.00025696v-1.44395426c-.20375122-.21298722-.49642244-.32167271-.88415989-.32167271-.62432676 0-.88070855.18299704-1.02717865.72330952-.09334249.34433039-.00281322.63821417.29071943.91253772l-.16748137.25955945c-.36461184-.34075124-.50274169-.75497318-.39749268-1.21538728l.05121009.00133906c-.73244565-.03572159-1.27736276.05367061-1.63183324.26191133-.30018797.17635139-.3550964.62379818-.12794243 1.40216502l-.25763841.10889893c-.26731336-.91597721-.19097599-1.5380477.26579494-1.80638685.40248843-.23644982.98907438-.33267769 1.76267594-.29494891l-.00431729.12590093c.19815462-.58247226.56260584-.80752891 1.24348367-.80752891.41021282 0 .74310686.11061962.99402924.33517751l-.00086191-.14547209h.54613334l-.00102775.08419243c.23567383-.16637928.53172856-.24850742.88518763-.24850742.68492106 0 1.0496463.22773746 1.24699619.81794333l.00805518.02866624-.00026667-.02605702c.68764583-.0335367 1.22752624.0387689 1.6216907.22131711l.14098524.07363179c.45677093.26833915.5331083.89040965.26579494 1.80638686l-.25763841-.10889893c.22715397-.77836684.17224554-1.22581364-.12794244-1.40216502-.31508487-.18510286-.78064608-.27630073-1.39463418-.26919328l-.17798918.00497849.01049215.13418536c.00636712.3520205-.14037071.6710681-.43160292.94324175l-.16748138-.25955945c.29353265-.27432355.38406193-.56820733.29071944-.91253772-.14647011-.54031248-.4028519-.72330952-1.02717866-.72330952-.38773744 0-.68040866.10868549-.88415988.32167271zm-.35778875 2.72919965.0554754-.00367218c-1.56831737.11480106-2.46180805.23377012-2.68047202.35690717l-.01500338.00576501.02938633.01379201c.04029497.01574152.09067777.0319663.15024463.0483207.17562335.04821831.42561056.09615342.72187755.13896339.57968003.08376257 1.26918577.13882483 1.81660786.1429546.54179604-.00419487 1.2308294-.05924154 1.81016682-.1429546.296267-.04280997.54625421-.09074508.72187756-.13896339.05650091-.01551263.10473885-.03090864.14394255-.04588623-.03947972.01106598-.08194127.00375144-.127655-.02199149-.20580139-.1158937-1.00937314-.22809533-2.41071525-.33660489zm1.969714-1.19313963c-.09792573.15014279-.22002937.24662743-.36509795.28486771.49706861.08126546.98215677.20418061 1.45459268.36597708-.01087718.11215559-.02355914.21408445-.03804586.30578659l.0577628-.13696572.06652469-.14989833.01317427-.02054401.15794119-.17885941c-.22359243.04762837-.38504866.04281194-.47071304-.04113444-.1340098.04692876-.2911919.05143465-.47065749.01628873-.19167698-.03753736-.32515908-.19097741-.40548129-.4455182z" fill="#feca00"/><g fill="#fff" transform="translate(0 .1843)"><path d="m2.44368231.85067877-.00238329.16428996c-1.21063764-.02543646-1.90507215.1871854-2.081351.61095654-.1822459.43811581-.14835724.97070136.10700727 1.60335533l-.12281005.07179682c-.27246067-.67500895-.3096698-1.25977811-.1062861-1.7487088.20935074-.50327537.94397429-.7282023 2.20582317-.70168985z"/><path d="m2.67791896 2.30771822-.06999491.14107969c-.26364465-.18945145-.3955969-.51276357-.3955969-.95832263 0-.64035949.27409496-1.01587066.88039264-1.27284577.38695178-.16400686.91554265-.09676261 1.58725954.19633144l-.0465375.15447538c-.6448345-.2813643-1.14378614-.34483802-1.49536799-.19582246-.55611313.23570474-.78921336.55505296-.78921336 1.11786141 0 .39099968.10959955.65954275.32905848.81724294z"/><path d="m9.54341564 1.01499376-.00238329.16428996c-1.21063764-.02543646-1.90507215.1871854-2.081351.61095654-.1822459.43811581-.14835724.97070137.10700727 1.60335533l-.12281005.07179682c-.27246067-.67500895-.3096698-1.25977811-.1062861-1.7487088.20935074-.50327536.94397429-.7282023 2.20582317-.70168985z" transform="matrix(-1 0 0 1 16.7516 0)"/><path d="m5.24425848 2.34188322-.06999491.14107968c-.26364466-.18945145-.3955969-.51276357-.3955969-.95832263 0-.64035948.27409495-1.01587066.88039264-1.27284577.38695177-.16400686.91554265-.09676261 1.58725953.19633144l-.04653749.15447538c-.6448345-.2813643-1.14378614-.34483802-1.49536799-.19582246-.55611313.23570474-.78921336.55505297-.78921336 1.11786141 0 .39099968.10959955.65954276.32905848.81724295z" transform="matrix(-1 0 0 1 12.025 0)"/></g></g></g></g></g></g></g><rect height="32" mask="url(#b)" rx="2" width="43.335938"/></g></svg>