<svg height="32" viewBox="0 0 43 32" width="43" xmlns="http://www.w3.org/2000/svg" xmlns:xlink="http://www.w3.org/1999/xlink"><defs><path id="a" d="m0 0h42.666667v32h-42.666667z"/><mask id="b" fill="#fff"><path d="m0 0h43.335938v32h-43.335938z" fill="#fff" fill-rule="evenodd"/></mask><mask id="c" fill="#fff"><path d="m0 0h42.666667v32h-42.666667z" fill="#fff" fill-rule="evenodd"/></mask><mask id="d" fill="#fff"><use fill="#fff" fill-rule="evenodd" xlink:href="#a"/></mask></defs><g fill="none" fill-rule="evenodd"><g fill-rule="evenodd" mask="url(#b)"><g mask="url(#c)" transform="translate(.3346)"><use fill="#f7fcff" xlink:href="#a"/><path d="m0 0h42.666667v10.666667h-42.666667z" fill="#bf2714" mask="url(#d)"/><path d="m0 21.333333h42.666667v10.666667h-42.666667z" fill="#272727" mask="url(#d)"/><g fill="#009c4e" mask="url(#d)"><path d="m30.6666667 8.1374204-.6520401-1.62368181h-.8481406v-4.54423093l-1.0944323-.35034043v6.51825317zm-12.085855 0-.65204-1.62368181h-.8481407v-4.54423093l-1.0944323-.35034043v6.51825317zm8.2211698-6.45080104-.0067018 6.39715609h-5.7748235c0-1.56342927.5529163-2.38326335 1.658749-2.45950226v-.53658743l.862354-.55501608v1.97657087h.7613056v-2.84683452l1.1344076-.65402107v3.50085559h.6886839v-4.3650417zm-1.5756443.20990491c-.1737392.33918599-.6205108.43663837-1.3403148.29235714-.1954684.25770463-.5898537.25770463-1.1831558 0zm-13.5212964-.56319094.7867171.69449019-4.04626992 3.5719251h4.18197602c.1590342-.82206647.5914608-1.23309971 1.2972798-1.23309971s1.1416216.41103324 1.3074077 1.23309971v2.56776614h-11.88982556c-.37089201.77721238-1.04055622 1.16581857-2.00899261 1.16581857 1.10775739-.78524352 1.2573683-1.75804105.44883274-2.91839258l1.00382185-.76812187c.02650208.51208125.26435456.76812187.71355743.76812187s1.02921351.0965217 1.7400319.28956509v-1.05768696l.87057116-.38857007v1.44625703h8.04012439v-1.05768696c.0483744-.19110794-.0268019-.28666192-.225529-.28666192-.198727 0-.3100322.09555398-.3339155.28666192v.49519611h-6.38014624v-.84119732zm-7.0493311 7.28738372c.20858854 0 .37768296.14927146.37768296.33340714 0 .18413567-.16909442.33340713-.37768296.33340713-.20858855 0-.37768297-.14927146-.37768297-.33340713 0-.18413568.16909442-.33340714.37768297-.33340714z" transform="translate(5.3333 10.6667)"/></g></g></g><rect height="32" mask="url(#b)" rx="2" width="43.335938"/></g></svg>