<svg height="32" viewBox="0 0 43 32" width="43" xmlns="http://www.w3.org/2000/svg" xmlns:xlink="http://www.w3.org/1999/xlink"><defs><path id="a" d="m0 0h42.666667v32h-42.666667z"/><mask id="b" fill="#fff"><path d="m0 0h43.335938v32h-43.335938z" fill="#fff" fill-rule="evenodd"/></mask><mask id="c" fill="#fff"><path d="m0 0h42.666667v32h-42.666667z" fill="#fff" fill-rule="evenodd"/></mask><mask id="d" fill="#fff"><use fill="#fff" fill-rule="evenodd" xlink:href="#a"/></mask></defs><g fill="none" fill-rule="evenodd"><g fill-rule="evenodd" mask="url(#b)"><g mask="url(#c)" transform="translate(.3346)"><use fill="#f7fcff" xlink:href="#a"/><path d="m0 0h42.666667v10.666667h-42.666667z" fill="#5eaa22" mask="url(#d)"/><path d="m0 21.333333h42.666667v10.666667h-42.666667z" fill="#e31d1c" mask="url(#d)"/><g mask="url(#d)"><g transform="translate(-6.6667 5.3333)"><path d="m2.05365729.78300162-.00065729 1.73822371.07451088.00004678v-1.61027541h.47830468v2.4554488h-.74859271l-.00022285-.00922017-.77243734.000152v-1.18282127l.47743734-.00033073.00086734.33797861h.01248527v-1.72920232zm-.72994229.54638105-.23915234.4225867v.42258669h-.60625798v.33764788h.27596424v.84517339h-.75426892v-2.02799466zm6.06295611-.54638105-.00067111 1.73822371.07452471.00004678v-1.61027541h.47830468v2.4554488h-.74859271l-.00023668-.00922017-.77242351.000152v-1.18282127l.47742351-.00033073.00088117.33797861h.01248527v-1.72920232zm-3.14136097.51984417v1.21820279h.54393941v-.37167823h-.29120266v-.84517339h.76950733v2.06202501h-1.50054876v-1.21820279h-.53333218v.83794013h-.47830468v-1.68311352zm2.41141869.02653688-.23915234.4225867v.42258669h-.60625798v.33764788h.27596424v.84517339h-.75426892v-2.02799466zm-.52249395-.94015734v.84517339h-3.10768239v-.84517339zm6.68068242.39377629-.0009173 1.73822371.0747709.00004678v-1.61027541h.4783047v2.4554488h-.7485927l-.0004829-.00922017-.7721773.000152v-1.18282127l.4781773-.00033073.0001274.33797861h.0124853v-1.72920232zm-3.23659333.51984417v1.21820279h.54393943v-.37167823h-.29120268v-.84517339h.76950738v2.06202501h-1.50054881v-1.21820279h-.53333218v.83794013h-.47830468v-1.68311352zm2.50665103.02653688-.2391523.4225867v.42258669h-.606258v.33764788h.2759643v.84517339h-.754269v-2.02799466zm-.6177263-.94015734v.84517339h-3.10768238v-.84517339zm6.6806825.39377629-.0009312 1.73822371.0747848.00004678v-1.61027541h.4783046v2.4554488h-.7485927l-.0004967-.00922017-.7721635.000152v-1.18282127l.4781635-.00033073.0001412.33797861h.0124853v-1.72920232zm-3.141361.51984417v1.21820279h.5439394v-.37167823h-.2912027v-.84517339h.7695074v2.06202501h-1.5005488v-1.21820279h-.5333322v.83794013h-.4783046v-1.68311352zm2.4114187.02653688-.2391524.4225867v.42258669h-.6062579v.33764788h.2759642v.84517339h-.7542689v-2.02799466zm-.522494-.94015734v.84517339h-3.1076824v-.84517339zm6.5854501.39377629-.000945 1.73822371.0747986.00004678v-1.61027541h.4783047v2.4554488h-.7485927l-.0005106-.00922017-.7721496.000152v-1.18282127l.4781496-.00033073.000155.33797861h.0124853v-1.72920232zm-3.141361.51984417v1.21820279h.5439394v-.37167823h-.2912026v-.84517339h.7695073v2.06202501h-1.5005488v-1.21820279h-.5333321v.83794013h-.4783047v-1.68311352zm2.4114187.02653688-.2391523.4225867v.42258669h-.606258v.33764788h.2759642v.84517339h-.7542689v-2.02799466zm-.5224939-.94015734v.84517339h-3.1076824v-.84517339zm6.6806824.39377629-.0001912 1.73822371.0740448.00004678v-1.61027541h.4783047v2.4554488h-.7485927l-.0007568-.00922017-.7719034.000152v-1.18282127l.4779034-.00033073.0004013.33797861h.0124852v-1.72920232zm-3.2365934.51984417v1.21820279h.5439395v-.37167823h-.2912027v-.84517339h.7695073v2.06202501h-1.5005487v-1.21820279h-.5333322v.83794013h-.4783047v-1.68311352zm2.5066511.02653688-.2391523.4225867v.42258669h-.606258v.33764788h.2759642v.84517339h-.7542689v-2.02799466zm-.6177263-.94015734v.84517339h-3.1076824v-.84517339zm6.7759148.39377629-.0004374 1.73822371.074291.00004678v-1.61027541h.4783047v2.4554488h-.7485927l-.000003-.00922017-.7726572.000152v-1.18282127l.4776572-.00033073.0006475.33797861h.0124853v-1.72920232zm-3.2365933.51984417v1.21820279h.5439394v-.37167823h-.2912027v-.84517339h.7695073v2.06202501h-1.5005487v-1.21820279h-.5333322v.83794013h-.4783047v-1.68311352zm2.506651.02653688-.2391523.4225867v.42258669h-.606258v.33764788h.2759643v.84517339h-.754269v-2.02799466zm-.6177263-.94015734v.84517339h-3.1076824v-.84517339zm6.7759148.39377629-.0006836 1.73822371.0745372.00004678v-1.61027541h.4783047v2.4554488h-.7485927l-.0002492-.00922017-.772411.000152v-1.18282127l.477411-.00033073.0008937.33797861h.0124853v-1.72920232zm-3.2365933.51984417v1.21820279h.5439394v-.37167823h-.2912027v-.84517339h.7695074v2.06202501h-1.5005488v-1.21820279h-.5333322v.83794013h-.4783047v-1.68311352zm2.5066511.02653688-.2391524.4225867v.42258669h-.606258v.33764788h.2759643v.84517339h-.7542689v-2.02799466zm-.6177264-.94015734v.84517339h-3.1076824v-.84517339zm6.6806825.39377629-.0006975 1.73822371.0745511.00004678v-1.61027541h.4783046v2.4554488h-.7485927l-.000263-.00922017-.7723971.000152v-1.18282127l.4773971-.00033073.0009075.33797861h.0124853v-1.72920232zm-3.141361.51984417v1.21820279h.5439394v-.37167823h-.2912026v-.84517339h.7695073v2.06202501h-1.5005488v-1.21820279h-.5333322v.83794013h-.4783046v-1.68311352zm2.4114187.02653688-.2391523.4225867v.42258669h-.606258v.33764788h.2759642v.84517339h-.7542689v-2.02799466zm-.522494-.94015734v.84517339h-3.1076823v-.84517339zm6.8711473.39377629-.0004085 1.73822371.0742621.00004678v-1.61027541h.4783046v2.4554488h-.7485927l-.000974-.00922017-.7716861.000152v-1.18282127l.4776861-.00033073.0006185.33797861h.0124853v-1.72920232zm-3.4270582.51984417v1.21820279h.5439394v-.37167823h-.2912026v-.84517339h.7695073v2.06202501h-1.5005487v-1.21820279h-.5333322v.83794013h-.4783047v-1.68311352zm2.6971159.02653688-.2391523.4225867v.42258669h-.606258v.33764788h.2759642v.84517339h-.7542689v-2.02799466zm-.8081911-.94015734v.84517339h-3.1076824v-.84517339zm5.618711 0v.84517339h-3.1076824v-.84517339zm-2.9005616 2.59673398h-.4783047v-1.68311352h1.4899415v1.21820279h.5439394v-.37167823h-.2912026v-.84517339h.7695073v2.06202501h-1.5005487v-1.21820279h-.5333322z" fill="#f7fcff" fill-rule="nonzero" transform="translate(6.6667 16.1333)"/><path d="m3.23219461 1.31635095-.00065728 1.73822372.07451088.00004678v-1.61027541h.47830468v2.4554488h-.74859271l-.00022285-.00922017-.77243734.00015199v-1.18282126l.47743734-.00033073.00086734.3379786h.01248526v-1.72920232zm-.72994228.54638106-.23915234.42258669v.4225867h-.60625799v.33764787h.27596425v.84517339h-.75426892v-2.02799465zm6.06295611-.54638106-.00067111 1.73822372.07452471.00004678v-1.61027541h.47830468v2.4554488h-.74859271l-.00023668-.00922017-.77242351.00015199v-1.18282126l.47742351-.00033073.00088117.3379786h.01248526v-1.72920232zm-3.14136097.51984418v1.21820278h.5439394v-.37167823h-.29120265v-.84517339h.76950733v2.06202501h-1.50054876v-1.21820278h-.53333218v.83794012h-.47830468v-1.68311351zm2.41141869.02653688-.23915234.42258669v.4225867h-.60625799v.33764787h.27596425v.84517339h-.75426892v-2.02799465zm-.52249396-.94015734v.84517339h-3.10768238v-.84517339zm6.6806825.39377628-.0009174 1.73822372.074771.00004678v-1.61027541h.4783046v2.4554488h-.7485927l-.0004829-.00922017-.7721773.00015199v-1.18282126l.4781773-.00033073.0001274.3379786h.0124853v-1.72920232zm-3.2365934.51984418v1.21820278h.5439394v-.37167823h-.2912027v-.84517339h.7695074v2.06202501h-1.5005488v-1.21820278h-.53333216v.83794012h-.47830468v-1.68311351zm2.5066511.02653688-.2391524.42258669v.4225867h-.6062579v.33764787h.2759642v.84517339h-.7542689v-2.02799465zm-.6177264-.94015734v.84517339h-3.10768235v-.84517339zm6.6806825.39377628-.0009312 1.73822372.0747848.00004678v-1.61027541h.4783047v2.4554488h-.7485927l-.0004968-.00922017-.7721634.00015199v-1.18282126l.4781634-.00033073.0001412.3379786h.0124853v-1.72920232zm-3.141361.51984418v1.21820278h.5439394v-.37167823h-.2912026v-.84517339h.7695073v2.06202501h-1.5005488v-1.21820278h-.5333321v.83794012h-.4783047v-1.68311351zm2.4114187.02653688-.2391523.42258669v.4225867h-.606258v.33764787h.2759642v.84517339h-.7542689v-2.02799465zm-.5224939-.94015734v.84517339h-3.1076824v-.84517339zm6.58545.39377628-.000945 1.73822372.0747986.00004678v-1.61027541h.4783047v2.4554488h-.7485927l-.0005106-.00922017-.7721496.00015199v-1.18282126l.4781496-.00033073.0001551.3379786h.0124852v-1.72920232zm-3.141361.51984418v1.21820278h.5439394v-.37167823h-.2912026v-.84517339h.7695073v2.06202501h-1.5005487v-1.21820278h-.5333322v.83794012h-.4783047v-1.68311351zm2.4114187.02653688-.2391523.42258669v.4225867h-.606258v.33764787h.2759643v.84517339h-.754269v-2.02799465zm-.5224939-.94015734v.84517339h-3.1076824v-.84517339zm6.6806824.39377628-.0001912 1.73822372.0740448.00004678v-1.61027541h.4783047v2.4554488h-.7485927l-.0007568-.00922017-.7719034.00015199v-1.18282126l.4779034-.00033073.0004013.3379786h.0124853v-1.72920232zm-3.2365933.51984418v1.21820278h.5439394v-.37167823h-.2912027v-.84517339h.7695074v2.06202501h-1.5005488v-1.21820278h-.5333322v.83794012h-.4783047v-1.68311351zm2.5066511.02653688-.2391524.42258669v.4225867h-.606258v.33764787h.2759643v.84517339h-.754269v-2.02799465zm-.6177264-.94015734v.84517339h-3.1076824v-.84517339zm6.7759149.39377628-.0004375 1.73822372.0742911.00004678v-1.61027541h.4783046v2.4554488h-.7485927l-.000003-.00922017-.7726572.00015199v-1.18282126l.4776572-.00033073.0006475.3379786h.0124853v-1.72920232zm-3.2365934.51984418v1.21820278h.5439394v-.37167823h-.2912027v-.84517339h.7695074v2.06202501h-1.5005488v-1.21820278h-.5333322v.83794012h-.4783046v-1.68311351zm2.5066511.02653688-.2391524.42258669v.4225867h-.606258v.33764787h.2759643v.84517339h-.7542689v-2.02799465zm-.6177264-.94015734v.84517339h-3.1076824v-.84517339zm6.7759149.39377628-.0006837 1.73822372.0745373.00004678v-1.61027541h.4783046v2.4554488h-.7485927l-.0002492-.00922017-.772411.00015199v-1.18282126l.477411-.00033073.0008937.3379786h.0124853v-1.72920232zm-3.2365934.51984418v1.21820278h.5439394v-.37167823h-.2912026v-.84517339h.7695073v2.06202501h-1.5005488v-1.21820278h-.5333322v.83794012h-.4783046v-1.68311351zm2.5066511.02653688-.2391524.42258669v.4225867h-.6062579v.33764787h.2759642v.84517339h-.7542689v-2.02799465zm-.6177264-.94015734v.84517339h-3.1076823v-.84517339zm6.6806825.39377628-.0006975 1.73822372.0745511.00004678v-1.61027541h.4783047v2.4554488h-.7485927l-.0002631-.00922017-.7723971.00015199v-1.18282126l.4773971-.00033073.0009076.3379786h.0124852v-1.72920232zm-3.141361.51984418v1.21820278h.5439394v-.37167823h-.2912026v-.84517339h.7695073v2.06202501h-1.5005488v-1.21820278h-.5333321v.83794012h-.4783047v-1.68311351zm2.4114187.02653688-.2391523.42258669v.4225867h-.606258v.33764787h.2759642v.84517339h-.7542689v-2.02799465zm-.5224939-.94015734v.84517339h-3.1076824v-.84517339zm6.8711472.39377628-.0004085 1.73822372.0742621.00004678v-1.61027541h.4783047v2.4554488h-.7485927l-.0009741-.00922017-.7716861.00015199v-1.18282126l.4776861-.00033073.0006186.3379786h.0124852v-1.72920232zm-3.4270581.51984418v1.21820278h.5439394v-.37167823h-.2912027v-.84517339h.7695073v2.06202501h-1.5005487v-1.21820278h-.5333322v.83794012h-.4783047v-1.68311351zm2.6971158.02653688-.2391523.42258669v.4225867h-.606258v.33764787h.2759642v.84517339h-.7542689v-2.02799465zm-.8081911-.94015734v.84517339h-3.1076824v-.84517339zm5.618711 0v.84517339h-3.1076824v-.84517339zm-2.9005616 2.59673397h-.4783047v-1.68311351h1.4899416v1.21820278h.5439394v-.37167823h-.2912027v-.84517339h.7695073v2.06202501h-1.5005487v-1.21820278h-.5333322z" fill="#f7fcff" fill-rule="nonzero" transform="translate(0 .9333)"/><path d="m28.7143176 6.4140283c1.3129519 1.41466865 1.9280708 2.91114243 1.8453567 4.4894213-.0653965 1.2478404-.7247159 2.5433756-1.977958 3.8866055.4142626.0919268.9652363.2035226 1.7127329.3511037.034489.1787919-.7542574-.0326437-2.1957396.1441183l-.0038662-.0006104-.203181.1940172c-.1381451.1290701-.2816441.2585703-.4304968.3885004-.0340875-.0460647-.0671976-.08925-.0993303-.1295562l-.0986722.1295562c-.2229052-.1945687-.4338045-.3881732-.632698-.5808136l.2281559.0301556c-1.5891778-.2313485-2.4650458.0128345-2.4287416-.1753675.7474758-.147577 1.2984396-.2591707 1.7139555-.3510551-1.2544647-1.3432785-1.913784-2.6388137-1.9791806-3.8866541-.0827141-1.57827887.5324049-3.07475265 1.8453568-4.4894213-.4778791.65006606-.6677419 1.91154028-.5695883 3.7844227.0505306.9641801.4301651 2.398494.9085664 3.2447232l.0006043-6.87650753h2l.0005097 6.93638533c.4790793-.7904517.8481479-2.1373248.8994163-3.1155826.0981536-1.87288238-.0802471-3.19736275-.5352019-3.9734411zm-3.5164884.05263837c-1.2546033.67218243-1.881905 1.94599996-1.881905 3.82145263 0 1.8754526.3256468 3.2192641.9769403 4.0314346-1.5673474-1.0409448-2.3510211-2.3516396-2.3510211-3.9320845 0-1.58044486 1.0853286-2.8873791 3.2559858-3.92080273zm4.4746447 0c2.1686218.94620312 3.2529327 2.20952711 3.2529327 3.78997193 0 1.5804449-.782656 2.93475-2.347968 4.0629153.6512935-.8121705.9769403-2.155982.9769403-4.0314346 0-1.87545267-.6273017-3.1492702-1.881905-3.82145263zm-3.5307782-.8c.3798482.2.7641621.3 1.1529418.3.3887798 0 .7787593-.1 1.1699386-.3v.4c-.4270422.2-.8296748.3-1.2078978.3-.3782231 0-.7498839-.1-1.1149826-.3z" fill="#e31d1c"/></g></g></g></g><rect height="32" mask="url(#b)" rx="2" width="43.335938"/></g></svg>