<svg height="32" viewBox="0 0 43 32" width="43" xmlns="http://www.w3.org/2000/svg" xmlns:xlink="http://www.w3.org/1999/xlink"><defs><path id="a" d="m3.99209935 0c.23157399.23239072.29921995.58049432.20337317 1.04621039.48467696-.20215425.72701545-.10039466.72701545.30527876-.48467697.08842725-.72701545.24385739-.72701545.46629044 0 .33364957.16594733.5457726.53860844.5457726.15523262 0 .30862331-.02661532.46017208-.07984596-.11883937-.06196639-.19760935-.17392447-.19760935-.30175508 0-.19492403.18315624-.35294118.40909091-.35294118s.40909091.15801715.40909091.35294118c0 .15452859-.11510883.28586218-.27538597.33365995.10962078.17456556.3055637.26159966.5852767.26159966.53098063 0 .46080474-.87766728.75515361-.87766728.29434888 0 1.51200229-.65048138.96195213-.34805433-.36670011.20161803-.68735082.96787379-.96195213 2.29876728-.95863104-.33351157-1.82609942-.51879577-2.60240513-.55585262l-.28646472-.00740381-.28574204.00740381c-.77630571.03705685-1.64377409.22234105-2.60240514.55585262-.27460131-1.33089349-.59525202-2.09714925-.96195212-2.29876728-.55005016-.30242705.66760325.34805433.96195212.34805433.29434888 0 .22417299.87766728.75515361.87766728.27971301 0 .47565592-.0870341.58782874-.2611023-.16251882-.0479413-.277938-.17942054-.277938-.33415731 0-.19492403.18315623-.35294118.40909091-.35294118.22593467 0 .4090909.15801715.4090909.35294118 0 .12783061-.07876997.23978869-.19671796.30171647.15065738.05326925.30404808.07988457.4592807.07988457.3726611 0 .53860844-.21212303.53860844-.5457726 0-.22243305-.24233848-.37786319-.72701545-.46629044 0-.40567342.24233848-.50743301.72701545-.30527876-.09584678-.46571607-.02820083-.81381967.20293787-1.0443108z"/><filter id="b" height="100%" width="100%" x="-0%" y="0%"><feOffset dx="0" dy="0" in="SourceAlpha" result="shadowOffsetOuter1"/><feColorMatrix in="shadowOffsetOuter1" type="matrix" values="0 0 0 0 0.03137255   0 0 0 0 0.36862746   0 0 0 0 0  0 0 0 0.28 0"/></filter><mask id="c" fill="#fff"><path d="m0 0h43.335938v32h-43.335938z" fill="#fff" fill-rule="evenodd"/></mask><mask id="d" fill="#fff"><path d="m0 0h42.666667v32h-42.666667z" fill="#fff" fill-rule="evenodd"/></mask></defs><g fill="none" fill-rule="evenodd"><g fill-rule="evenodd" mask="url(#c)"><g mask="url(#d)" transform="translate(.3346)"><g transform="translate(-5.3333)"><g fill="#f7fcff"><path d="m5.33333333 0h42.66666667v32h-42.66666667z"/><path d="m-1.00003255.00808914 27.32906805 16.52523606-27.32906805 16.5252361z" stroke="#e31d1c" stroke-width="3.6"/><path d="m28.0400065.07308957 28.3426182 16.46023563-28.3426182 16.4602356z" stroke="#e31d1c" stroke-width="3.6" transform="matrix(-1 0 0 1 82.6384 0)"/></g><g fill="none" transform="translate(22.4001 2.6667)"><path d="m1.16619636 3.60401116c-.76323344 3.37627333.17281237 5.71277087 2.80813744 7.00949264 2.52994822-1.37895814 3.51080037-3.71545568 2.94255646-7.00949264-1.08653969-.36345842-2.06178397-.54518763-2.92573284-.54518763-.86394888 0-1.80560256.18172921-2.82496106.54518763z" fill="#e31d1c"/><g fill="#ffd100"><path d="m1.57652019 4.66472885c.28185454-.12478091.4925431-.12478091.63206566 0 .20928384.18717137.38074992-.01550805.38074992-.12841481 0-.11290677.33231472-.50050556.33231472-.18604537 0 .31446018-.10343788.49200939.188651.49200939s1.60739185-.43437883 1.9227953-.30596402.55675851.09647744.47658047-.08777657-.28623287-.29941277-.6830184-.19884079c-.39678553.10057199-.30314414.19884079-.6460763.19884079-.34293215 0-.72461247-.0982688-.72461247-.0982688s.10722477-.16523673.49873105-.04770166.93152436-.1455595 1.07839565-.1455595.55108089-.00788281.59114517.09268917c.04006429.10057199.28413073.19285931.09809237.28661736-.18603837.09375804-.49280705.1524875-.28173664.27261178.2110704.12012429.69645089.09697367.71983801.22192608.02338712.1249524.25343106.31154333.16110405.31154333-.09232702 0-.25918012.17597514-.41455139.12239365s-.1736445-.10062903-.02465746-.14403643c.14898704-.04340741.14753756-.22594697.02465746-.22594697-.12288011 0-.06291397.06395357-.34269625 0-.27978229-.06395358-.65008381-.13505034-.62782044 0 .02226336.13505034.20442559.34235497-.13165842.3699834-.33608402.02762843-.49340013.13855339-.55881541.04922552s-.29922812-.20835555-.11537212-.2465236c.183856-.03816806.35955256.12973483.42577265.10231963.06622008-.0274152.21631458-.04267633.09060066-.15884064s-.33297333-.18455386-.1408276-.2715019c.19214572-.08694805.04051756-.08873388-.32558887.09138401s-.56973399.33318611-.89114405.31154333-.44179837.00755441-.54510235-.02164278c-.10330397-.0291972-.60643653.32260079-.75131942.23331861-.1448829-.08928218-.61260904-.12353595-.52840889-.23331861s.19724333-.16630368.32315269-.10978266c.12590936.05652101.251017.11304202.33592115.05652101.08490416-.05652101.33010695-.25046835.26843074-.28924563-.0616762-.03877728-.0020195-.16931935-.35123027-.16931935s-.47197687.14548676-.55487412.05381928c-.05526483-.06111166-.02509412-.12711708.09051215-.19801625z"/><path d="m1.92541738 6.32884958c.24779584-.10970265.43302524-.10970265.55568819 0 .18399443.16455398.33474091-.01363409.33474091-.11289744s.29215852-.44002552.29215852-.16356404-.09093867.43255603.16585481.43255603c.25679347 0 1.41315803-.38188942 1.6904488-.26899199.27729076.11289744.48948099.08481932.41899149-.07716983s-.2516451-.26323236-.6004839-.17481329c-.34883881.08841908-.26651285.17481329-.56800581.17481329s-.63705184-.08639421-.63705184-.08639421.09426796-.14526987.43846545-.04193749.81896093-.1279704.94808461-.1279704c.12912367 0 .48448944-.00693026.51971244.08148881.03522301.08841908.24979698.1695546.08623909.25198312-.16355788.08242852-.43325728.13406124-.24769218.23966996s.61229324.08525558.63285432.195109c.02056107.10985342.22280698.27389709.14163657.27389709s-.22786135.15471069-.36445788.10760387-.15266166-.08846923-.0216779-.12663138.12970944-.19864402.0216779-.19864402-.05531157.05622557-.30128556 0c-.24597399-.05622556-.57152906-.11873114-.55195595 0 .01957311.11873115.17972323.30098553-.1157491.3252754-.29547234.02428987-.4337787.12181089-.49128934.04327721-.05751063-.07853368-.26307003-.1831783-.1014308-.21673421s.316105.11405795.37432319.08995554c.05821818-.02410241.19017559-.03751941.07965267-.13964668-.11052292-.10212726-.29273754-.16225275-.12381029-.23869418.16892724-.07644143.0356215-.07801147-.2862454.08034136-.32186691.15835282-.50088855.29292461-.7834601.27389709-.28257155-.01902751-.38841239.00664156-.47923333-.01902751-.09082095-.02566906-.53315603.2836184-.66053159.20512489-.12737555-.07849351-.53858266-.10860813-.46455708-.20512489.07402559-.09651676.17340887-.14620789.28410361-.09651676.11069474.04969114.22068463.09938227.29532915.04969114.07464452-.04969114.29021752-.22020229.23599414-.2542938-.05422338-.03409152-.00177547-.14885916-.30878835-.14885916s-.41494419.12790645-.48782431.04731587c-.04858674-.05372706-.02206179-.11175652.07957485-.17408839z"/><path d="m2.41891618 8.01798596c.18790303-.08318728.32836207-.08318728.42137711 0 .13952256.12478091.25383328-.0103387.25383328-.08560988 0-.07527117.22154315-.33367036.22154315-.12403024s-.06895859.32800626.12576733.32800626 1.07159457-.28958589 1.28186353-.20397602c.21026897.08560988.37117234.0643183.31772032-.05851771-.05345203-.122836-.19082192-.19960851-.4553456-.13256052-.26452369.06704799-.2020961.13256052-.43071754.13256052-.22862143 0-.48307497-.06551253-.48307497-.06551253s.07148317-.11015782.33248736-.03180111c.26100419.07835672.62101624-.09703966.71893043-.09703966.0979142 0 .36738726-.00525521.39409679.06179278.02670952.06704799.18942048.12857287.0653949.19107823-.12402557.06250537-.32853802.10165834-.18782442.1817412.1407136.08008285.46430059.06464911.47989201.14795071.01559141.08330161.16895404.20769555.10740269.20769555-.06155134 0-.17278674.11731677-.27636759.08159577-.10358084-.03572099-.11576299-.06708602-.0164383-.09602429s.09835837-.15063131.0164383-.15063131-.04194264.04263572-.22846417 0c-.18652152-.04263572-.4333892-.09003356-.41854696 0 .01484225.09003356.13628373.22823665-.08777228.2466556-.22405601.01841896-.32893341.09236893-.3725436.03281702-.04361019-.05955192-.19948542-.1389037-.07691475-.16434907s.23970171.08648989.28384843.06821309c.04414672-.01827681.14420973-.02845089.06040045-.10589377-.08380928-.07744287-.22198222-.1230359-.09388507-.18100126.12809715-.05796537.02701171-.05915592-.21705925.06092267-.24407095.12007859-.37982266.22212407-.59409603.20769555-.21427338-.01442852-.29453225.00503628-.36340156-.01442852-.06886932-.01946479-.40429103.2150672-.50087962.15554575-.0965886-.05952146-.40840603-.08235731-.3522726-.15554575.05613344-.07318844.13149556-.11086911.21543513-.07318844.08393958.03768068.16734467.07536135.22394744.03768068.05660277-.03768068.22007129-.1669789.17895382-.19283042s-.00134633-.11287956-.23415351-.11287956-.31465125.09699117-.36991608.03587951c-.03684322-.0407411-.01672941-.08474471.06034143-.13201083z"/></g><use fill="#000" filter="url(#b)" xlink:href="#a"/><use fill="#feca00" fill-rule="evenodd" xlink:href="#a"/></g></g></g></g><rect height="32" mask="url(#c)" rx="2" width="43.335938"/></g></svg>