<svg height="32" viewBox="0 0 43 32" width="43" xmlns="http://www.w3.org/2000/svg" xmlns:xlink="http://www.w3.org/1999/xlink"><defs><path id="a" d="m0 0h42.666667v32h-42.666667z"/><mask id="b" fill="#fff"><path d="m0 0h43.335938v32h-43.335938z" fill="#fff" fill-rule="evenodd"/></mask><mask id="c" fill="#fff"><path d="m0 0h42.666667v32h-42.666667z" fill="#fff" fill-rule="evenodd"/></mask><mask id="d" fill="#fff"><use fill="#fff" fill-rule="evenodd" xlink:href="#a"/></mask></defs><g fill="none" fill-rule="evenodd"><g fill-rule="evenodd" mask="url(#b)"><g mask="url(#c)" transform="translate(.3346)"><use fill="#c51918" xlink:href="#a"/><g fill="#ffdc17" mask="url(#d)"><path d="m10.6523022 0 .507404 2.68302069c.2833971.01798439.5627685.05064885.8373495.09723493l1.1166935-2.49489186-.1309601 2.72725929c.2700041.08206652.5339123.17796329.7908849.28685733l1.668825-2.17340936-.762904 2.62725682c.2419584.14111223.4757503.29452229.7005027.45936422l2.1329104-1.73589304-1.3552761 2.38582714c.2018347.19166402.3935353.39374257.5742243.60536537l2.4816984-1.20326185-1.8744203 2.0138157c.1513803.23149411.2908907.47133214.4176762.71866596l2.695846-.60373617-2.2934207 1.5318647c.0927701.25861641.1723586.5234323.2379636.79365229l2.7662139.02928214-2.5916513.96711771c.0309646.28327485.0468531.57103619.0468531.86247829l-.0017152-.0388703 2.6906082.6631792-2.7486139.3486516c-.034081.2756379-.0824551.5468922-.1443646.8130111l2.4626429 1.2590574-2.7555581-.289886c-.0969638.2588525-.2071965.5113066-.3298782.7565492l2.1038699 1.7903704-2.6162684-.9126449c-.1540244.2286579-.319741.448909-.4963018.6599122l1.6326896 2.2244025-2.3340789-1.487267c-.2023975.1872475-.4146291.3641719-.6358423.5299276l1.0715069 2.5373522-1.9234915-1.9799442c-.2401953.136128-.4882134.2602269-.7432202.3714693l.4521079 2.7116518-1.4110842-2.3645883c-.264208.0768729-.5341054.1405466-.8089172.1902522l-.191402 2.7412046-.8226943-2.623679c-.1410661.0073638-.2831035.011092-.4260189.011092-.1362799 0-.2717615-.0033901-.4063637-.0100898l-.8231269 2.6226768-.18971469-2.7374513c-.27635028-.0492266-.54775983-.1125723-.81344257-.1892574l-1.40824621 2.3598402.45050221-2.703992c-.25667991-.1112361-.50631636-.2354844-.74806182-.3719044l-1.91704417 1.9727195 1.06657606-2.5266683c-.22379742-.1669141-.43845284-.3452381-.64308811-.5341009l-2.32190219 1.4807564 1.62354933-2.2123775c-.17905247-.2131266-.34702079-.435736-.50302687-.6669572l-2.60040313.9076649 2.09067413-1.7783486c-.12478377-.248381-.23678699-.5041871-.33515558-.7665712l-2.73708492.2878862 2.44528643-1.251055c-.06295421-.2693246-.11204205-.5439207-.1464771-.8230085l-2.7291449-.3466566 2.66973905-.6574694c.0011688-.2825056.01726638-.56151728.04755077-.83629901l-2.57319509-.96013649 2.74699142-.02928214c.06645213-.27370928.14725123-.54187398.24156395-.80366753l-2.27779851-1.52184946 2.67866822.59974991c.12844603-.2502217.26991966-.49276187.42353463-.72674147l-1.86310097-2.00175393 2.46760234 1.19726368c.1827494-.21360737.37672859-.41746566.5810329-.61067753l-1.34798862-2.37451681 2.12341158 1.72877255c.22649233-.16559397.46213071-.31959258.70602475-.46111269l-.75892728-2.61838786 1.66295961 2.16776353c.2583746-.10893357.523733-.20473759.795224-.28656777l-.12943381-2.72190302 1.11545849 2.49186112c.27558815-.04611154.55597782-.07820381.84039767-.09551169zm-.0576137 4.55538471c-3.34022707 0-6.04801613 2.68578303-6.04801613 5.99886429 0 3.3130813 2.70778906 5.9988643 6.04801613 5.9988643 3.3402271 0 6.0480161-2.685783 6.0480161-5.9988643 0-3.31308126-2.707789-5.99886429-6.0480161-5.99886429zm1.5688817 10.40566109-.0844992.0299614c-.4542417.1512157-.9401601.2330994-1.4452034.2330994-.67718159 0-1.31997939-.1472144-1.89813586-.4113858.01913183-1.5771086.5513584-2.9846641 1.59713406-4.230432.8780412 1.129614 1.4832116 2.6964731 1.8307044 4.378757zm.9915854-.4942114-.1557686.0985932c-.0345073.020902-.0693132.0413606-.1044098.0613677l.0392993.1970571c-.3475314-1.8630608-1.0422461-3.3210318-2.0234381-4.4775952l.2296975-.1724367c.0303228-.0228643.0612096-.045703.0926589-.0684928 1.2114944 1.3924043 1.9747481 2.5866242 1.9219608 4.3615067zm-3.40017357-4.427192c.04228133.0330785.08228272.0660092.12002031.0986746l-.01680984-.0145447c-1.11498716 1.2681764-1.72511945 2.698142-1.82933067 4.2845235-.13694943-.0934593-.26836611-.1957905-.39378178-.3048444.40022119-1.599574 1.05164123-2.9314007 1.97888935-3.9203472zm2.15184087-.23044316-.1957535-.08630396c1.6172291.65493782 2.5320459 2.46561412 2.5884547 3.66216352-.1304114.1748048-.2734874.3403099-.4275549.494851-.0839772-1.5753948-.7574243-2.7757242-1.9651463-4.07071056zm-2.70917103-.00188391c-.99739681.96901967-1.7437398 2.07222017-2.19966607 3.61508587-.03562107-.0444298-.06991421-.0911502-.10332943-.1385341.08107981-1.1919122.85960285-2.8976725 2.43750764-3.53668492zm5.63344133-.97209604c.2413202.55681262.3750838 1.17107421.3750838 1.81657791 0 .6607128-.1401412 1.2886938-.3923201 1.85584-.3158552-1.129139-1.0362602-2.2754855-2.6280786-2.97215886.7668748-.3768428 1.7286758-.66578446 2.8726341-.71375412zm-8.40623177.0303722c1.04881155.11823141 1.87654937.37349682 2.49652262.66884678-1.58211916.67010953-2.20450958 1.75148943-2.51758645 2.85448593-.22082537-.5355152-.34223941-1.1221422-.34223941-1.737127 0-.5771924.10695015-1.12940523.30211431-1.6379024zm4.20900617-2.78610365c1.2753106 0 2.4286731.52212221 3.2579875 1.36426665-1.3050641.15254298-2.4112892.47969797-3.3095597.98854121-.80098376-.45956651-1.88367651-.77025212-3.24550368-.94720989.83075566-.86627907 2.00093342-1.40559797 3.29707588-1.40559797z" transform="translate(10.6667 5.3333)"/></g></g></g><rect height="32" mask="url(#b)" rx="2" width="43.335938"/></g></svg>