<svg height="32" viewBox="0 0 44 32" width="44" xmlns="http://www.w3.org/2000/svg" xmlns:xlink="http://www.w3.org/1999/xlink"><mask id="a" fill="#fff"><path d="m0 0h43.335938v32h-43.335938z" fill="#fff" fill-rule="evenodd"/></mask><mask id="b" fill="#fff"><path d="m0 0h43.335938v32h-43.335938z" fill="#fff" fill-rule="evenodd"/></mask><g fill="none" fill-rule="evenodd"><g fill-rule="evenodd" mask="url(#a)"><g mask="url(#b)"><g transform="translate(-.0921 -.952)"><path d="m.09208887.952h43.33593753v32h-43.33593753z" fill="#032ea1" fill-rule="nonzero"/><path d="m.09208887 8.952h43.33593753v16h-43.33593753z" fill="#e00025" fill-rule="nonzero"/><g fill="none" fill-rule="evenodd" stroke="#000" stroke-width=".1" transform="translate(11.2673 10.36)"><path d="m5.91535547 5.672h9.24680563v3.504h-9.24680563z" fill="#fff" fill-rule="nonzero" stroke-linejoin="bevel"/><path d="m14.6908828 7.6h.2843921v1.32h-.2843921zm-8.77552733-.648h9.24680563v.4h-9.24680563zm0-.56h9.24680563v.368h-9.24680563z" fill="#fff" fill-rule="nonzero" stroke-linejoin="bevel"/><path d="m5.91535547 5.848h9.24680563v.344h-9.24680563z" fill="#fff" fill-rule="nonzero" stroke-linejoin="bevel"/><path d="m8.35300195 7.6h.29251758v1.32h-.29251758zm3.98148925 0h.2925176v1.32h-.2925176zm-6.33788085 0h.28439209v1.32h-.28439209zm.56878418 0h.28439209v1.32h-.28439209zm.60941162 0h.28439209v1.32h-.28439209zm.60941162 0h.28439209v1.32h-.28439209zm5.10280663 0h.2925176v1.32h-.2925176zm.6094116 0h.2925176v1.32h-.2925176zm.6094117 0h.2925175v1.32h-.2925175z" fill="#fff" fill-rule="nonzero" stroke-linejoin="bevel"/><path d="m2.29951318 9.352c.16990343-.09106781.29786352-.24282114.35752149-.424h15.69031783c.059658.18117886.1876181.33293219.3575215.424z" fill="#fff" fill-rule="nonzero"/><path d="m10.3031191.336s-.0081254-.328.1868863-.336c.1868862 0 .1787607.336.1787607.336zm-1.01568599 4.36v-.44c0-.224-.22751368-.24-.22751368-.4 0 0-.03250195-.24.03250196-.352.08938037.32.24376465.264.24376465.128 0-.112-.08125489-.224-.26814112-.504-.0650039-.088-.02437646-.368.05687842-.472.03250195.24.07312939.36.17876074.36.06500391 0 .11375684-.04.11375684-.16 0-.16-.10563135-.24-.16250977-.384-.05720421-.14636385-.02225859-.31213788.08938037-.424.04062744.24.03250196.336.1381333.336.21938819-.072 0-.384-.04875293-.464-.04875293-.088.08125489-.272.08125489-.272.0650039.216.08125488.232.16250976.208.09750586-.024.08125489-.16-.03250195-.272-.07312939-.08-.06500391-.184.01625098-.264.08125488.152.17876074.144.18688623.048l-.06500391-.352h1.41383501l-.0731294.344c-.016251.096.1137568.12.1950117-.04.0812549.08.0893803.192.016251.264-.1137569.112-.1300079.248-.032502.272.0812549.024.0975059 0 .1625098-.208 0 0 .1218823.12.0812548.272-.0487529.08-.2681411.4-.0487529.464.1056314 0 .0975059-.096.1381333-.336.1088245.11360129.1405534.27916728.0812549.424-.0487529.144-.1625098.224-.1625098.384 0 .12.0568785.16.1218824.16.1056313 0 .1462587-.112.1787607-.36.0812549.104.1218823.384.0568784.48-.1868862.272-.2762666.384-.2762666.496 0 .136.1625098.192.2437647-.128.0731294.112.0406274.352.0406274.352 0 .16-.2193882.176-.2275137.4v.44zm.58503515-3.68-.03250195-.248h1.29195259l-.0325019.248zm.08125488-.256-.01625097-.2h1.09694093l-.0243765.2zm.18688626-.208-.0243765-.208h.731294l-.0081255.208zm2.6814111 8.8c-.1625098-.056-.4062744-.232-.4062744-.4v-1.944l.2112627-.272h-4.27400685l.20313721.272v1.944c0 .168-.16250977.344-.32501953.4z" fill="#fff" fill-rule="nonzero"/><path d="m9.10054687 7.6h.29251758v1.32h-.29251758zm2.47014843 0h.2925176v1.32h-.2925176z" fill="#fff" fill-rule="nonzero" stroke-linejoin="bevel"/><path d="m8.27174707 4.528v2.208h4.38776363v-2.208c-.1028383.0369799-.1814128.12029174-.2112627.224v.944h-3.95711275v-.944s-.04875293-.16-.22751367-.224z" fill="#fff" fill-rule="nonzero"/><path d="m12.0582246 9.352c-.1462588-.056-.4550273-.232-.4550273-.4v-2.176c.0325019-.12.1950117-.192.300643-.272h-2.90079928c.1381333.08.29251757.136.34939599.272v2.176c0 .168-.24376465.344-.39002344.4z" fill="#fff" fill-rule="nonzero"/><path d="m12.448248 6.528v-1.568h-.3981489v-.152h-3.15268943v.16h-.40627442v1.56zm-1.0075605 2.824c-.1462588-.056-.349396-.232-.349396-.4v-1.856l.1137568-.168h-1.43821139l.12188233.16v1.864c0 .168-.2112627.344-.349396.4z" fill="#fff" fill-rule="nonzero"/><path d="m10.1162329 6.928h.731294v2.424h-.731294z" fill="#fff" fill-rule="nonzero"/><path d="m11.2294248 6.392c0-.16.4712783-.168.715043-.304h-2.92517581c.24376465.136.70691748.144.70691748.304l.09750586.312 1.21882327.048z" fill="#fff" fill-rule="nonzero" stroke-linejoin="bevel"/><path d="m11.798209 4.696c0-.392.016251-.536.1381333-.536v1.232c-.3006431.112-.5119058.48-.5119058.48h-1.88511326s-.21126269-.368-.51190576-.48v-1.24c.14625879 0 .14625879.16.14625879.536zm.1381333-.16c0-.448.3981489-.496.3981489-.496v.4c-.1543843-.008-.2275137.128-.2275137.32 0 .2.1218824.2.1218824.2v1.136h-.2925176z" fill="#fff" fill-rule="nonzero"/><path d="m9.02741748 4.536c0-.448-.39814893-.496-.39814893-.496v.4c.15438428-.008.22751368.128.22751368.32 0 .2-.12188233.2-.12188233.2v1.136h.29251758z" fill="#fff" fill-rule="nonzero"/><path d="m9.79933887 1.46666667h1.39758403m-1.5600938.432h1.7063525m-1.86886226.52h2.02324656m-2.19388182.632h2.39701902m-2.45389744.72h2.47014844"/><path d="m8.49926074 6.13866667h3.94898726zm1.2513252-.02666667h1.46258786v.528h-1.46258786z"/><g fill="#fff" fill-rule="nonzero"><path d="m9.5718252 4.928c.24376464.288.21126269.776.21126269 1.064h1.41383501c0-.288-.032502-.776.2112626-1.064zm.7881724-3.28-.1950118-.104v-.28c.0812549.024.1625098.032.1787608.16.0243764-.184.0812549-.168.1543843-.24.0812548.072.1218823.056.1543842.24 0-.128.0975059-.136.1706353-.16v.28l-.1868862.096z"/><path d="m10.3437466 2.104-.3250195-.224v-.248c.1218823.024.2437646.04.2600156.176.0325019-.2.1056313-.296.2193882-.376.1056313.08.1787607.176.2193881.376.0081255-.136.1381333-.152.2437647-.176v.256l-.3168941.216z"/><path d="m10.3193701 2.816-.36564696-.32v-.376c.13000786.032.27626656.048.29251756.248.0406275-.28.1218823-.432.2437647-.544.1300078.112.2112627.264.2600156.544.016251-.2.1625098-.216.2925176-.248v.376l-.3737725.32zm.682541.424-.3250195.456h-.3818979l-.33314507-.456zm-1.23507419.76c.16250977.088.22751368.272.24376469.608h.9425566c.016251-.336.0812549-.52.2437647-.608z"/><path d="m11.2131738 3.232v-.448c-.1422025.02983391-.258836.12955666-.3087685.264 0-.16-.2031372-.504-.4225254-.68-.2193882.192-.4306509.512-.4225254.672-.0406274-.12-.1462588-.216-.30876856-.256v.456z" stroke-linejoin="bevel"/><path d="m11.2781777 4v-.448c-.1706352.048-.2843921.136-.333145.264 0-.16-.2193882-.504-.4631528-.68-.2437647.2-.4712783.512-.4631528.68-.04062749-.12-.16250981-.216-.33314507-.264v.456z" stroke-linejoin="bevel"/><path d="m11.4731895 4.936v-.528c-.1692045.05203085-.315363.1592514-.4143999.304 0-.28-.3250196-.72-.5769097-.856-.2600156.144-.57690969.592-.57690969.856-.1015653-.14575461-.25062808-.25300281-.42252539-.304v.528z" stroke-linejoin="bevel"/><path d="m11.3594326 6.112v-.544c-.1950117.072-.2437646.248-.3087685.376.0243764-.552-.3087686-1.136-.5687842-1.288-.2600156.152-.60128615.752-.5687842 1.28-.0650039-.112-.12188232-.296-.30876855-.368v.536z" stroke-linejoin="bevel"/><path d="m11.2294248 6.928v-.544c-.2031372.048-.2112627.12-.2762666.24.0243765-.328-.2112627-.704-.4712783-.848-.2600156.144-.48752931.52-.4712783.848-.06500394-.12-.07312943-.192-.27626664-.24v.544z"/><path d="m2.66516016 8.928v-1.632c-.05687842-.208-.24376465-.4-.37377246-.432v-1.44l.30064306.16.349396 1.512v1.84z"/><path d="m2.66516016 8.936v-1.64c-.05687842-.208-.24376465-.4-.37377246-.432v-1.536c.2031372 0 .30064306.256.30064306.256l.349396 1.512v1.832z"/><path d="m2.44577197 9.352c.1381333-.056.34127051-.232.34127051-.4v-2.048l-.09750586-.16h3.55083838l-.1381333.16v2.048c.01213369.17261168.11768403.32543558.2762666.4z"/><path d="m5.65533984 9.352c-.1381333-.056-.3412705-.232-.3412705-.4v-1.944l.29251757-.272h-2.40514453l.29251758.272v1.944c0 .168-.20313721.344-.34127051.4z"/><path d="m5.32219482 9.352c-.1381333-.056-.34939599-.232-.34939599-.4v-1.76l.19501172-.264h-1.5275918l.19501172.264v1.76c0 .168-.20313721.344-.349396.4z"/><path d="m4.04649316 6.928h.72316846v2.432h-.73129394z"/><path d="m3.04705811 7.6h.29251757v1.32h-.29251757zm2.50265039 0h.28439209v1.32h-.29251758zm-2.75454053-2.224h.35752148v1.36h-.35752148zm0-.256h.34939599v.256h-.34939599zm2.89267383.552h.49565478v1.04h-.49565478z" stroke-linejoin="bevel"/><path d="m3.14456396 6.72v-2.32c.09750586 0 .11375684.344.34127051.344.12188233 0 .11375684-.144.04062744-.256-.05687841-.104-.13000781-.24-.03250195-.504.0731294.2.25189014.264.21938818.144-.05687841-.216-.22751367-.256-.09750585-.584.04062744.272.21938818.264.17876074.104-.04875293-.184-.15438428-.264-.02437647-.52.0731294.296.16250977.28.16250977.096 0-.272 0-.56.34127051-.664 0 0 .02437646-.24.15438427-.24.12188233 0 .14625879.24.14625879.24.349396.104.34127051.4.34127051.664 0 .184.08938037.2.16250977-.096.13000781.256.02437646.336-.02437647.52-.04062744.16.1381333.168.17876074-.104.13000782.328-.04062744.368-.09750586.584-.03250195.12.14625879.056.21938819-.144.09750586.264.02437646.4-.03250196.504-.0650039.112-.08125488.256.04062745.256.22751367 0 .24376464-.336.3412705-.336v2.312zm-.56065869-1.752v1.768h.20313721v-1.768c-.07312939-.04-.1381333-.04-.20313721 0z"/><path d="m2.60015625 6.112c.25189014.128.50378027.28.56878418.624h-.56878418zm3.51021094-.528v1.152h.16250976v-1.152c-.04875293-.024-.12188232-.032-.16250976 0z"/><path d="m6.27287695 6.112c-.25189013.12-.50378027.264-.56878418.616h.56878418zm-1.67385058-2.696.14625879-.12v-.16c-.04875293 0-.08125489.024-.12188233.08-.03187011-.10380308-.10518132-.19041789-.20313721-.24-.09937646.04603989-.17558695.12973112-.21126269.232-.04062744-.056-.06500391-.064-.12188232-.08v.16l.14625878.128z"/><path d="m4.68028125 3.808.06500391-.152v-.2c-.04875293 0-.08125489.024-.12188233.08-.03187011-.10380308-.10518132-.19041789-.20313721-.24-.09937646.04603989-.17558695.12973112-.21126269.232-.04062744-.056-.06500391-.064-.12188232-.072v.2l.0650039.152z"/><path d="m4.69653223 4.336.21126269-.264v-.256c-.08125488 0-.12188232.04-.17876074.128-.05687842-.184-.16250977-.216-.30876856-.304-.15438427.08-.26001562.12-.30876855.296-.06500391-.088-.10563135-.112-.18688623-.12v.256l.21938818.264z"/><path d="m4.75341064 4.856s.26001563-.216.26814112-.336v-.28c-.09750586.008-.18688623.032-.26001563.152-.0650039-.232-.16250976-.296-.34127051-.4-.18688623.104-.28439208.168-.3412705.4-.08125489-.12-.16250977-.144-.26814112-.16v.288c.06824364.12689218.1590636.24069608.26814112.336z"/><path d="m4.85904199 5.816s.35752149-.376.36564697-.528v-.432c-.13000781.016-.26001562.104-.35752148.288-.08125488-.36-.21126269-.608-.44690186-.784-.24376464.176-.37377246.424-.45502734.784-.09750586-.184-.21938818-.272-.34939599-.288v.432c.02437646.152.35752148.528.35752148.528z"/><path d="m4.85904199 6.384s.30064307-.296.36564697-.424v-.432c-.13000781.016-.26001562.104-.35752148.28-.04390295-.29398799-.20466678-.55874899-.44690186-.736-.24376464.176-.37377246.376-.45502734.736-.09750586-.176-.21938818-.264-.34939599-.28v.432c.08125488.128.35752148.424.35752148.424z"/><path d="m4.98092432 6.72c-.08125489-.376-.16250977-.656-.57690967-.936-.42252539.28-.49565479.56-.58503516.936z"/><path d="m5.2003125 6.928v-.544c-.19501172.08-.36564697.184-.43065088.304-.06500391-.304-.20313721-.432-.37377246-.616-.17063525.184-.28439209.32-.35752148.616-.06500391-.12-.23563916-.232-.42252539-.304v.544z"/><path d="m18.4204819 8.928v-1.632c-.0568784-.208-.2437646-.4-.3737724-.432v-1.44l.300643.16.349396 1.512v1.84z" transform="matrix(-1 0 0 1 36.7434 0)"/><path d="m18.4204819 8.936v-1.64c-.0568784-.208-.2437646-.4-.3737724-.432v-1.536c.2031372 0 .300643.256.300643.256l.349396 1.512v1.832z" transform="matrix(-1 0 0 1 36.7434 0)"/><path d="m14.6096279 9.352c.1381333-.056.3412705-.232.3412705-.4v-2.048l-.0975058-.16h3.5508384l-.1381333.16v2.048c.0121336.17261168.117684.32543558.2762666.4z" transform="matrix(-1 0 0 1 33.152 0)"/><path d="m17.8354468 9.352c-.1381333-.056-.3412705-.232-.3412705-.4v-1.944l.2925175-.272h-2.4051445l.2925176.272v1.944c0 .168-.2031372.344-.3412705.4z" transform="matrix(-1 0 0 1 33.1682 0)"/><path d="m17.5023018 9.352c-.1381333-.056-.349396-.232-.349396-.4v-1.76l.1950117-.264h-1.5275918l.1950117.264v1.76c0 .168-.2031372.344-.349396.4z" transform="matrix(-1 0 0 1 33.1682 0)"/><path d="m16.2266001 6.928h.7231685v2.432h-.731294z" transform="matrix(-1 0 0 1 33.1682 0)"/><path d="m15.0565298 7.6h.2925176v1.32h-.2925176zm2.5026504 0h.2843921v1.32h-.2925176zm-2.7545406-2.224h.3575215v1.36h-.3575215zm0-.256h.349396v.256h-.349396zm2.8926739.552h.4956548v1.04h-.4956548z" stroke-linejoin="bevel" transform="matrix(-1 0 0 1 32.9976 0)"/><path d="m15.8447021 6.72v-2.32c.0975059 0 .1137569.344.3412706.344.1218823 0 .1137568-.144.0406274-.256-.0568784-.104-.1300078-.24-.032502-.504.0731294.2.2518902.264.2193882.144-.0568784-.216-.2275136-.256-.0975058-.584.0406274.272.2193882.264.1787607.104-.0487529-.184-.1543843-.264-.0243765-.52.0731294.296.1625098.28.1625098.096 0-.272 0-.56.3412705-.664 0 0 .0243765-.24.1543843-.24.1218823 0 .1462588.24.1462588.24.349396.104.3412705.4.3412705.664 0 .184.0893804.2.1625098-.096.1300078.256.0243764.336-.0243765.52-.0406274.16.1381333.168.1787607-.104.1300078.328-.0406274.368-.0975058.584-.032502.12.1462588.056.2193882-.144.0975058.264.0243764.4-.032502.504-.0650039.112-.0812549.256.0406274.256.2275137 0 .2437647-.336.3412706-.336v2.312zm-.5606586-1.752v1.768h.2031372v-1.768c-.0731294-.04-.1381333-.04-.2031372 0z" transform="matrix(-1 0 0 1 33.6882 0)"/><path d="m14.7152593 6.112c.2518901.128.5037803.28.5687842.624h-.5687842zm3.5102109-.528v1.152h.1625098v-1.152c-.0487529-.024-.1218823-.032-.1625098 0z" transform="matrix(-1 0 0 1 33.1032 0)"/><path d="m16.9010156 6.112c-.2518901.12-.5037802.264-.5687842.616h.5687842zm-1.6738506-2.696.1462588-.12v-.16c-.0487529 0-.0812549.024-.1218823.08-.0318701-.10380308-.1051813-.19041789-.2031372-.24-.0993765.04603989-.175587.12973112-.2112627.232-.0406274-.056-.0650039-.064-.1218823-.08v.16l.1462588.128z" transform="matrix(-1 0 0 1 31.6162 0)"/><path d="m16.8360117 3.808.0650039-.152v-.2c-.0487529 0-.0812549.024-.1218823.08-.0318701-.10380308-.1051813-.19041789-.2031372-.24-.0993765.04603989-.175587.12973112-.2112627.232-.0406274-.056-.0650039-.064-.1218823-.072v.2l.0650039.152z" transform="matrix(-1 0 0 1 33.1438 0)"/><path d="m16.8522627 4.336.2112627-.264v-.256c-.0812549 0-.1218823.04-.1787608.128-.0568784-.184-.1625097-.216-.3087685-.304-.1543843.08-.2600156.12-.3087686.296-.0650039-.088-.1056313-.112-.1868862-.12v.256l.2193882.264z" transform="matrix(-1 0 0 1 33.1438 0)"/><path d="m16.9091411 4.856s.2600156-.216.2681411-.336v-.28c-.0975058.008-.1868862.032-.2600156.152-.0650039-.232-.1625098-.296-.3412705-.4-.1868862.104-.2843921.168-.3412705.4-.0812549-.12-.1625098-.144-.2681411-.16v.288c.0682436.12689218.1590636.24069608.2681411.336z" transform="matrix(-1 0 0 1 33.1438 0)"/><path d="m17.006647 5.816s.3575215-.376.3656469-.528v-.432c-.1300078.016-.2600156.104-.3575214.288-.0812549-.36-.2112627-.608-.4469019-.784-.2437646.176-.3737725.424-.4550273.784-.0975059-.184-.2193882-.272-.349396-.288v.432c.0243764.152.3575215.528.3575215.528z" transform="matrix(-1 0 0 1 33.1358 0)"/><path d="m17.006647 6.384s.300643-.296.3656469-.424v-.432c-.1300078.016-.2600156.104-.3575214.28-.043903-.29398799-.2046668-.55874899-.4469019-.736-.2437646.176-.3737725.376-.4550273.736-.0975059-.176-.2193882-.264-.349396-.28v.432c.0812548.128.3575215.424.3575215.424z" transform="matrix(-1 0 0 1 33.1358 0)"/><path d="m17.1691567 6.72c-.0812548-.376-.1625097-.656-.5769096-.936-.4225254.28-.4956548.56-.5850352.936z" transform="matrix(-1 0 0 1 33.1764 0)"/><path d="m17.3722939 6.928v-.544c-.1950117.08-.3656469.184-.4306508.304-.0650039-.304-.2031372-.432-.3737725-.616-.1706352.184-.2843921.32-.3575215.616-.0650039-.12-.2356391-.232-.4225254-.304v.544z" transform="matrix(-1 0 0 1 33.1602 0)"/><path d="m.52815674 11.336h19.93182276v1h-19.93182276zm-.52815674 1h20.9881362v1h-20.9881362zm1.57634473-2.504h17.82732127v.648h-17.82732127z"/><path d="m1.05631348 10.48h18.88363472v.848h-18.88363472zm.8287998-1.144h17.22603512v.496h-17.22603512z"/><path d="m3.75397559 9.336h1.30007812v4h-1.30007812z"/><path d="m4.04649316 9.336h.72316846v4h-.73129394zm5.76909668 0h1.30007816v4h-1.30007816z"/><path d="m10.1162329 9.336h.731294v4h-.731294zm5.8097241 0h1.3000782v4h-1.3000782z"/><path d="m16.2103491 9.336h.731294v4h-.731294z"/></g><path d="m2.66516016 8.95466667h15.68219234m-14.31711031 3.90400003h.74754492m-.74754492-.504h.74754492m-.74754492-.496h.74754492m-.74754492-.504h.74754492m-.74754492-.496h.74754492m-.74754492-.504h.74754492m-.74754492-.49600003h.74754492m5.34657129 3.00000003h.698792m-.698792-.504h.698792m-.698792-.496h.698792m-.698792-.504h.698792m-.698792-.496h.698792m-.698792-.504h.698792m-.698792-.49600003h.698792m5.3790732 3.00000003h.747545m-.747545-.504h.747545m-.747545-.496h.747545m-.747545-.504h.747545m-.747545-.496h.747545m-.747545-.504h.747545m-.747545-.49600003h.747545"/></g></g></g></g><rect height="32" mask="url(#a)" rx="2" width="43.335938"/></g></svg>