<svg height="32" viewBox="0 0 43 32" width="43" xmlns="http://www.w3.org/2000/svg" xmlns:xlink="http://www.w3.org/1999/xlink"><defs><path id="a" d="m0 0h42.666667v32h-42.666667z"/><path id="b" d="m.27728844 3.31453008 3.48646223-1.41492173c.50819955-.20624419 1.07723512-.20373257 1.58359425.00698969l4.84099938 2.01459062c.5477274.22793777 1.1666614.21150453 1.7015218-.04517688l3.9048123-1.87393334c.5600546-.26877221 1.2108434-.27354834 1.7747825-.0130251l4.0899276 1.88942592c.5509926.25454232 1.1856035.25609861 1.7378379.00426178l4.1849865-1.90848979c.5520597-.25175718 1.1864535-.25028512 1.7373389.00403136l4.1318198 1.90745619c.5422528.25033124 1.165874.25585676 1.7124774.01517322l4.5147953-1.98798046c.4887988-.21523066 1.0415969-.2344813 1.5441837-.05377467l4.0477288 1.45537319v13.35152832h-45.11189575z"/><mask id="c" fill="#fff"><path d="m0 0h43.335938v32h-43.335938z" fill="#fff" fill-rule="evenodd"/></mask><mask id="d" fill="#fff"><path d="m0 0h42.666667v32h-42.666667z" fill="#fff" fill-rule="evenodd"/></mask><mask id="e" fill="#fff"><use fill="#fff" fill-rule="evenodd" xlink:href="#a"/></mask><mask id="f" fill="#fff"><use fill="#fff" fill-rule="evenodd" xlink:href="#b"/></mask></defs><g fill="none" fill-rule="evenodd"><g fill-rule="evenodd" mask="url(#c)"><g mask="url(#d)" transform="translate(.3346)"><use fill="#e31d1c" xlink:href="#a"/><g mask="url(#e)"><g transform="translate(-1.3333 2.6667)"><path d="m22.7349686 8.2436712c-.1882245.34579894-.263255.75387715-.2250917 1.22423464.0311304.38367732.0867918.76604206.1669843 1.14709426.0235737.0014352.0456477.0035898.0676729.0059065l-.0682608.2489387c.11908-.4675103.2700973-.91551548.4530518-1.34401538.1829544-.42849989.5386962-.76301785 1.0672251-1.00355388-.2611881.29459484-.4260932.67533583-.4947154 1.14222297-.0551087.37494429-.0867639.75399749-.0949656 1.13715969.0194477.0047874.0377239.0106966.0559469.0167214l-.1333816.2383662c.2286438-.4248152.4835574-.8229783.7647409-1.19448923.2811834-.37151092.7072853-.61003056 1.2783057-.71555891-.3246987.22265701-.576815.55219419-.7563491.98861154-.138919.337689-.2576342.6843467-.3561456 1.0399732.0284548.0147147.055827.0307649.0830056.0471001l-.2112584.2318523c.3183464-.3624936.6562938-.6931087 1.0138423-.9918453s.8263847-.4352909 1.4065085-.409663c-.3664635.143909-.6862479.4082864-.959353.793132-.2021774.2848979-.3881824.5819547-.5580151.8911706.0297297.0269229.0585826.0538837.0870623.0812246.2956421-.1962949.5986333-.3729156.9082447-.5298492.4155857-.2106491.9031236-.2382383 1.4626139-.0827677-.3894436.0577843-.7605039.2434498-1.1131808.5569966-.2470085.2196024-.4823605.4530655-.7060561.7003893.0268049.0366828.0511629.0725903.0749889.1088729.3168736-.111502.6365438-.2035873.95771-.2770216.4542017-.1038526.9339321-.0126762 1.4391914.2735292-.3918548-.0381471-.7968095.0522357-1.2148643.2711486-.2718057.14233-.5367545.2986798-.7948464.4690494.0240027.0570169.0454586.1128912.0657714.1693044.3100309-.0327973.6184012-.048121.9244094-.0474758.4659223.0009822.9128471.1977376 1.3407744.5902662-.3732303-.1253176-.7881378-.1283462-1.2447226-.009086-.2763359.0721792-.5496153.157532-.8198381.2560586.0123807.0709831.0215594.1410025.0290362.2115248.2854804.036958.5659187.0883183.8413239.1525124.4537597.1057668.8449695.3980156 1.1736293.8767463-.3354741-.2060642-.7390662-.3023491-1.2107764-.2888547-.2645853.0075691-.5291579.0267538-.7937178.0575542-.005406.0775493-.0133753.1535275-.0232933.228898.2485094.1004606.4902896.2109554.7251163.3312298.4146938.2123995.7235816.5906094.9266634 1.1346299-.2756577-.2811018-.643968-.4721644-1.104931-.5731879-.2379478-.052148-.478265-.094748-.7209518-.1277999-.0271477.0872987-.0579195.1726306-.091258.2566821.2016766.1420352.3956848.2922776.5820356.4493152.3562858.3002415.5721781.7382426.6476769 1.3140033-.2053584-.3359067-.5212492-.6049241-.9476724-.8070525-.2057815-.0975422-.415458-.1874194-.6290294-.2696315-.0513062.0837152-.1057462.1649865-.1628073.2442742.1507183.1727518.29526.350663.4319489.5328531.2796145.3726932.3914447.8480336.3354905 1.4260211-.1245325-.373493-.3718113-.7066755-.7418363-.9995477-.169118-.1338556-.3431868-.261798-.5222064-.383827-.0724422.0716911-.1464098.1390135-.2226487.2037811.1003811.195373.1928483.3937338.2774212.5941489.1811462.4292675.1746593.9175424-.0194606 1.4648247-.0304773-.3925258-.1898067-.7756335-.4779882-1.1493233-.1252729-.1624435-.2561856-.3207801-.3927379-.4750097-.093085.0562982-.188484.1078949-.2859464.155994.051913.20455.095032.4091656.1307025.6139874.0799393.4590144-.0362193.9333156-.3484757 1.4229036.0586029-.3893212-.0104624-.7984513-.2071959-1.2273901-.0834864-.1820258-.1730902-.361447-.2688112-.5382637-.1065542.0318402-.2131799.0590653-.3212947.0823287.0033674.2053698-.0007123.4100759-.0117962.6133679-.0253654.4652323-.2452414.9012472-.659628 1.3080447.1446792-.3661602.1694183-.7803406.0742173-1.2425412-.0403841-.1960646-.0873096-.3909685-.1407764-.5847116l-.1944571.0045481c-.0429341 0-.0857238-.0006131-.1283608-.0018308-.0462673.202932-.1001779.4024049-.1606611.598755-.1371618.4452765-.4559881.815147-.9564789 1.1096117.2289638-.3202826.3531673-.7161752.3726106-1.1876776.0082976-.2012187.0098871-.402899.0047684-.605041-.1085735-.0208819-.2146693-.0462726-.3191815-.0754153-.0918776.1893899-.1904964.374107-.2949695.5541819-.2338117.4030093-.6276693.6916798-1.1815727.8660115.2951434-.2605682.50522-.6183743.6302299-1.0734184.0552998-.2012947.1036883-.4046941.1451655-.6101983-.0970395-.044781-.1909518-.0936999-.2827778-.1458233-.1363134.170322-.2780159.3331258-.4246673.489727-.3184766.3400841-.7671763.5327573-1.3460993.5780197.3461939-.187497.6313752-.4888756.8555438-.9041358.1045771-.1937234.2021913-.3914567.2928425-.5931999-.0757945-.0608974-.148347-.1247862-.2186852-.1909676-.1831429.1395066-.3712687.271716-.5631382.3957433-.3912903.2529356-.8732736.3313353-1.44595.2351991.3812701-.0981757.7308903-.3216105 1.0488607-.6703044.1566727-.171811.3068908-.3498415.4506543-.5340914-.0570576-.0743881-.1106032-.1513054-.1616577-.2299639-.2228022.1016788-.4477146.1935661-.6746431.2756199-.4381596.1584318-.9254259.1263995-1.4617987-.096097.3935829-.0098923.7845043-.148953 1.1727642-.4171822.205863-.1422204.4060635-.2931395.6006014-.4527573-.0338985-.0787589-.0645583-.1590152-.0928492-.2403663-.2559451.0546262-.5117698.0968738-.7673126.1277038-.462569.0558067-.9301409-.0850157-1.4027157-.4224672.3857206.0788981.7979046.0313396 1.2365518-.1426753.2518417-.0999077.4995084-.2112467.7430003-.3340171-.0105969-.072232-.0194416-.143259-.0265359-.2147957-.2839157-.006799-.5644279-.0284511-.8413712-.0630483-.4623296-.0577566-.8819446-.3075118-1.258845-.7492657.3551759.1698687.7666217.2234393 1.2343372.1607117.2889622-.0387542.576436-.0915217.8624214-.1583027.0046635-.0675235.0119119-.1328704.0206054-.1977645-.2953892-.0737461-.5836091-.1630818-.8644889-.2659848-.4374877-.1602778-.7901653-.4980247-1.0580328-1.0132406.3078606.2454122.6967103.3901649 1.166549.4342581.3132258.0293955.6284335.0425022.945623.0393201.0169141-.0536204.0355413-.1052744.0551164-.1564658-.2904531-.1475358-.5690877-.3086129-.8361293-.4828332-.3902203-.2545833-.6578823-.6630089-.8029859-1.225277.2447644.3083759.5910856.5368908 1.0389636.6855446.3200972.1062425.6466249.1947568.9795832.2655428.0204024-.0337336.0417553-.0666426.0635401-.0992431-.2647592-.2267457-.5133923-.46533-.7455108-.715301-.3170398-.3414239-.477944-.8024708-.4827125-1.3831409.162891.3584297.4436423.6639394.8422537.916529.29957.1898297.6107815.362359.9336347.5175881.0242777-.0260692.0502838-.0513913.0766041-.0763907l.2045344.2648709c-.3017062-.3764562-.5686146-.7666802-.800725-1.1706718-.2321105-.4039916-.2851777-.8894176-.1592017-1.45627774.078087.38588568.2829179.74672044.6144927 1.08250424.2603562.2636613.5373434.5117798.8309616.7443555.0255418-.016406.0500789-.031458.0747756-.0462748l.1228791.2689097c-.2092893-.4346768-.3815755-.8749407-.5168586-1.3207915-.1352832-.44585088-.0777932-.93077288.1724699-1.45476604-.0107198.39356121.1076911.79122473.3552327 1.19299054.2004015.3252563.4217451.6383909.664031.9394039.0170861-.0068586.0338486-.0126443.0506572-.0183313l.0481649.2562675c-.0979147-.4723968-.1585738-.9412627-.1819774-1.40659785-.0234036-.46533512.1496919-.92194479.5192866-1.36982898-.1056125.37927741-.0869224.79377481.0560702 1.24349219.1167332.36713039.2571107.72745284.4211326 1.08096724l.0645704-.0092707-.0089846.2500243c.010861-.4823152.0572284-.95280953.1391023-1.4114828.0818739-.45867328.3532478-.86464204.8141218-1.2179063z" fill="#ffc84a"/><g fill="none" transform="translate(0 12.5789)"><use fill="#f7fcff" xlink:href="#b"/><path d="m.27728844 6.4153738 3.48646223-1.41492172c.50819955-.20624419 1.07723512-.20373257 1.58359425.00698969l4.84099938 2.01459062c.5477274.22793776 1.1666614.21150453 1.7015218-.04517688l3.9048123-1.87393334c.5600546-.26877221 1.2108434-.27354834 1.7747825-.0130251l4.0899276 1.88942592c.5509926.25454232 1.1856035.25609861 1.7378379.00426178l4.1849865-1.90848979c.5520597-.25175718 1.1864535-.25028512 1.7373389.00403135l4.1318198 1.9074562c.5422528.25033123 1.165874.25585676 1.7124774.01517322l4.5147953-1.98798047c.4887988-.21523065 1.0415969-.23448129 1.5441837-.05377466l4.0477288 1.45537318" mask="url(#f)" stroke="#015989" stroke-width="2.666667"/><path d="m.27728844 10.8539703 3.48646223-1.41492173c.50819955-.20624419 1.07723512-.20373257 1.58359425.00698969l4.84099938 2.01459064c.5477274.2279377 1.1666614.2115045 1.7015218-.0451769l3.9048123-1.87393334c.5600546-.26877221 1.2108434-.27354834 1.7747825-.0130251l4.0899276 1.88942594c.5509926.2545423 1.1856035.2560986 1.7378379.0042618l4.1849865-1.90848983c.5520597-.25175718 1.1864535-.25028512 1.7373389.00403136l4.1318198 1.90745617c.5422528.2503313 1.165874.2558568 1.7124774.0151732l4.5147953-1.98798043c.4887988-.21523065 1.0415969-.23448129 1.5441837-.05377466l4.0477288 1.45537319" mask="url(#f)" stroke="#015989" stroke-width="2.666667"/><path d="m.27728844 14.3907987 1.45555347-.5907117c1.80933846-.7342894 3.83527092-.7253473 5.63805696.0248853l2.81744543 1.172485c.5477274.2279378 1.1666614.2115046 1.7015218-.0451768l1.9742438-.9474467c1.7827096-.8555287 3.8542354-.8707316 5.6493098-.0414602l2.1459688.9913743c.5509926.2545424 1.1856035.2560986 1.7378379.0042618l2.1221522-.9677703c1.8616448-.8489705 4.0009347-.8440065 5.8586196.0135944l2.0733734.9571737c.5422528.2503312 1.165874.2558567 1.7124774.0151732l2.5655082-1.1296592c1.7402659-.7662838 3.7083882-.8348218 5.4977438-.1914535l2.0434558.7347307v4.4198297h-44.74844565z" fill="#015989" mask="url(#f)"/></g><path d="m14.3733724 1.8912147h2.4807182c.6248129 0 2.0344016-.95536836 2.8497117-.63691224.5435401.21230408 1.2728176.66117126 2.1878325 1.34660153 1.51061-1.19245882 2.7164345-1.78868823 3.6174735-1.78868823s2.1641848-.06629794 3.7894376-.19889382c-.3812984.98974786-1.1081959 1.56844849-2.1806926 1.73610192-1.0724967.16765342-2.2503188.66202509-3.5334664 1.48311501h2.6147044c.2657442 0 .5719982.20035036.918762.60105108-.7154029.48608443-1.2516512.72912664-1.608745.72912664s-.7328727 0-1.1273368 0c-.7592547.65152792-1.6078588.9079804-2.5458124.76935744-.9379535-.13862296-1.7832156-.63811766-2.5357862-1.49848408-.820627-.11762862-1.2309405-.24721095-1.2309405-.388747-.0970943-.04464435-.1680042-.06635629-.2127297-.06513582-.3872192.01056642-.6453652.08013096-.7740888.06513582.4718881-.18413948.8008275-.35766931.9868185-.52058949.3247872-.30466916.6111408-.45700375.8590607-.45700375.3718798 0 1.6137581.76528916 1.6137581.76528916s.0988438-.10276181.2965316-.30828541l-1.5384099-1.1748296c-2.0919255.219185-3.7341923.06644861-4.9268005-.45820916z" fill="#ffc84a"/></g></g></g></g><rect height="32" mask="url(#c)" rx="2" width="43.335938"/></g></svg>