<svg height="32" viewBox="0 0 43 32" width="43" xmlns="http://www.w3.org/2000/svg" xmlns:xlink="http://www.w3.org/1999/xlink"><defs><path id="a" d="m0 0h42.666667v32h-42.666667z"/><mask id="b" fill="#fff"><path d="m0 0h43.335938v32h-43.335938z" fill="#fff" fill-rule="evenodd"/></mask><mask id="c" fill="#fff"><path d="m0 0h42.666667v32h-42.666667z" fill="#fff" fill-rule="evenodd"/></mask><mask id="d" fill="#fff"><use fill="#fff" fill-rule="evenodd" xlink:href="#a"/></mask></defs><g fill="none" fill-rule="evenodd"><g fill-rule="evenodd" mask="url(#b)"><g mask="url(#c)" transform="translate(.3346)"><use fill="#5196ed" xlink:href="#a"/><path d="m0 16h42.666667v8h-42.666667z" fill="#af0100" mask="url(#d)"/><path d="m0 8h42.666667v8h-42.666667z" fill="#f7fcff" mask="url(#d)"/><path d="m0 0h42.666667v8h-42.666667z" fill="#feca00" mask="url(#d)"/><path d="m0 0 25.3333333 16-25.3333333 16z" fill="#5eaa22" mask="url(#d)"/><path d="m10.164569 9.16022726s-4.8649106 1.00032704-5.0338993 6.10539264c-.16898869 5.1050656 4.60882406 6.7359226 4.60882406 6.7359226-1.81666266.4674844-7.765339-.8419555-7.57023596-6.7359226.19510303-5.89396705 6.291562-7.3357684 7.9953112-6.10539264zm.5020977 9.50643944.3918568.7939886.8762185.127322-.6340377.618034.149676.872678-.7837136-.4120226-.7837137.4120226.149676-.872678-.63403769-.618034.87621849-.127322zm0-2.6666667.3918568.7939887.8762185.127322-.6340377.618034.149676.872678-.7837136-.4120227-.7837137.4120227.149676-.872678-.63403769-.618034.87621849-.127322zm0-2.6666667.3918568.7939887.8762185.127322-.6340377.618034.149676.872678-.7837136-.4120227-.7837137.4120227.149676-.872678-.63403769-.618034.87621849-.127322zm0-2.6666666.3918568.7939886.8762185.127322-.6340377.618034.149676.872678-.7837136-.4120226-.7837137.4120226.149676-.872678-.63403769-.618034.87621849-.127322z" fill="#f7fcff" mask="url(#d)"/></g></g><rect height="32" mask="url(#b)" rx="2" width="43.335938"/></g></svg>