<svg height="32" viewBox="0 0 43 32" width="43" xmlns="http://www.w3.org/2000/svg" xmlns:xlink="http://www.w3.org/1999/xlink"><mask id="a" fill="#fff"><path d="m0 0h43.335938v32h-43.335938z" fill="#fff" fill-rule="evenodd"/></mask><mask id="b" fill="#fff"><path d="m0 0h42.666667v32h-42.666667z" fill="#fff" fill-rule="evenodd"/></mask><g fill="none" fill-rule="evenodd"><g fill-rule="evenodd" mask="url(#a)"><g mask="url(#b)" transform="translate(.3346)"><g transform="translate(-5.3333 -5.3333)"><path d="m5.333333 5.333333h42.666667v32h-42.666667z" fill="#c51918" fill-rule="evenodd"/><path d="m5.33333333 5.33333333v31.99999997l42.66666667-31.99999997z" fill="#5eaa22" fill-rule="evenodd"/><path d="m48.9523094-.88362482 9.3420544 10.42159501-51.1486653 34.14075301-9.3420544-10.421595z" fill="#272727" fill-rule="nonzero" stroke="#ffd018" stroke-width="3.333333"/><g fill="#f7fcff" fill-rule="evenodd"><path d="m20.2425629 28.2049593-2.4942285 1.5057622.5689177-2.9383445-2.0770817-2.1990618 2.812485-.118905 1.1899075-2.7436887 1.1899075 2.7436887h2.8077l-2.0722967 2.3179668.6238841 2.9383445z" transform="matrix(.87461971 -.48480962 .48480962 .87461971 -9.927072 13.036259)"/><path d="m33.5758962 19.4674098-2.4942285 1.5057621.5689178-2.9383444-2.0770818-2.1990618 2.812485-.118905 1.1899075-2.7436888 1.1899075 2.7436888h2.8077l-2.0722967 2.3179668.6238841 2.9383444z" transform="matrix(.87461971 -.48480962 .48480962 .87461971 -4.019315 18.404861)"/></g></g></g></g><rect height="32" mask="url(#a)" rx="2" width="43.335938"/></g></svg>