<svg height="32" viewBox="0 0 43 32" width="43" xmlns="http://www.w3.org/2000/svg" xmlns:xlink="http://www.w3.org/1999/xlink"><defs><path id="a" d="m6.77124023 24c1.34980323 0 6.77124027-4.7756293 6.77124027-10.6666667 0-5.8910373-5.42143704-10.66666663-6.77124027-10.66666663-1.34980322 0-6.77124023 4.77562933-6.77124023 10.66666663 0 5.8910374 5.42143701 10.6666667 6.77124023 10.6666667z"/><mask id="b" fill="#fff"><path d="m0 0h43.335938v32h-43.335938z" fill="#fff" fill-rule="evenodd"/></mask><mask id="c" fill="#fff"><path d="m0 0h42.666667v32h-42.666667z" fill="#fff" fill-rule="evenodd"/></mask><mask id="d" fill="#fff"><use fill="#fff" fill-rule="evenodd" xlink:href="#a"/></mask></defs><g fill="none" fill-rule="evenodd"><g fill-rule="evenodd" mask="url(#b)"><g mask="url(#c)" transform="translate(.3346)"><path d="m0 0h42.666667v10.666667h-42.666667z" fill="#272727"/><path d="m0 21.333333h42.666667v10.666667h-42.666667z" fill="#4e8b1d"/><path d="m-1.333333 9.333333h45.333333v13.333333h-45.333333z" fill="#e31d1c" fill-rule="nonzero" stroke="#f7fcff" stroke-width="2.666667"/></g><g transform="translate(14.8967 2.6667)"><path d="m10.8604745 2.57196336c.2577283-.52026043.9506218-1.08838209 2.0786806-1.704365.0387643-.02116744.0855807-.02237994.1254216-.00324831.0674234.03237673.0954226.11243659.0621762.17864496l-11.68890499 23.59568409-.60859504-.2922474 10.30368113-20.79941666c-.4665862-.07483011-.557406-.39984734-.2724595-.97505168z" fill="#fff" fill-rule="nonzero"/><path d="m2.66958871 2.57196336c.28494655.57520434.19412673.90022157-.27245948.97505168l10.30368117 20.79941666-.6085951.2922474-11.68890498-23.59568409c-.03324644-.06620837-.0052472-.14626823.06217619-.17864496.03984096-.01913163.08665735-.01791913.1254216.00324831 1.1280588.61598291 1.82095233 1.18410457 2.0786806 1.704365z" fill="#fff" fill-rule="nonzero"/><use fill="#e31d1c" xlink:href="#a"/><g fill-rule="nonzero"><ellipse cx="-6.094116" cy="13.333333" fill="#272727" mask="url(#d)" rx="9.479736" ry="9.333333"/><ellipse cx="19.636597" cy="13.333333" fill="#272727" mask="url(#d)" rx="9.479736" ry="9.333333"/><path d="m7.04292658 14.7606031c.61772697.4334992 1.0825617 2.316055 1.0825617 4.5727302 0 2.2566753-.46483473 4.1392311-1.0825617 4.5727302zm-.67881478.12063v8.9042004c-.54899183-.5955642-.94711961-2.3636168-.94711961-4.4521002 0-2.0884833.39812778-3.8565359.94711961-4.4521002zm.67881478-12.12062995c.61772697.43349913 1.0825617 2.31605494 1.0825617 4.57273018 0 2.25667525-.46483473 4.13923107-1.0825617 4.57273017zm-.67881478.12062997v8.90420038c-.54899183-.5955642-.94711961-2.3636168-.94711961-4.45210017 0-2.08848336.39812778-3.85653597.94711961-4.45210021z" fill="#f7fcff" mask="url(#d)"/><ellipse cx="6.77124" cy="13.333333" fill="#f7fcff" mask="url(#d)" rx="1.354248" ry="1.333333" transform="matrix(1 0 0 -1 0 26.6666)"/></g></g></g><rect height="32" mask="url(#b)" rx="2" width="43.335938"/></g></svg>