<svg height="32" viewBox="0 0 43 32" width="43" xmlns="http://www.w3.org/2000/svg" xmlns:xlink="http://www.w3.org/1999/xlink"><defs><path id="a" d="m0 0h42.666667v32h-42.666667z"/><ellipse id="b" cx="7.732057" cy="8.211382" rx="7.732057" ry="8.211382"/><mask id="c" fill="#fff"><path d="m0 0h43.335938v32h-43.335938z" fill="#fff" fill-rule="evenodd"/></mask><mask id="d" fill="#fff"><path d="m0 0h42.666667v32h-42.666667z" fill="#fff" fill-rule="evenodd"/></mask><mask id="e" fill="#fff"><use fill="#fff" fill-rule="evenodd" xlink:href="#a"/></mask><mask id="f" fill="#fff"><use fill="#fff" fill-rule="evenodd" xlink:href="#b"/></mask></defs><g fill="none" fill-rule="evenodd"><g fill-rule="evenodd" mask="url(#c)"><g mask="url(#d)" transform="translate(.3346)"><use fill="#f7fcff" xlink:href="#a"/><g mask="url(#e)"><g transform="translate(2.6667)"><g fill="none" fill-rule="evenodd" transform="translate(10.9346 7.8699)"><use fill="#3d58db" xlink:href="#b"/><path d="m15.7346046 8.84039661c-.289345-2.58128898-1.5054237-3.94199766-3.6482361-4.08212606-3.21421851-.21019259-4.08088284 2.83944774-4.26636314 3.64740701-.1854803.80795928-.65492787 2.96330124-4.03912609 2.96330124-2.25613214 0-3.48595403-1.82685771-3.68946567-5.48057311v-6.46244815h15.643191z" fill="#e31d1c" mask="url(#f)"/></g><g fill="#272727" fill-rule="nonzero"><path d="m11.0805634 6.32931595 1.2199495 1.10336802-5.46616462 6.55626773-1.21994947-1.103368zm-2.00277258-1.80754313 1.21994948 1.10336802-5.45101393 6.50688906-1.21994947-1.1033681zm-2.01198698-1.78554373 1.21994947 1.10336802-5.65367461 6.60253929-1.21994947-1.10336804z"/><path d="m32.0480178 10.420018 1.2202028 1.0992385-2.1165465 2.4837792-1.2202028-1.0992385zm1.6720435-6.41099324 1.2202027 1.09923857-5.8914523 7.17448527-1.2202027-1.0992386zm-5.6995117 2.8334093 1.2202028 1.09923857-2.1165465 2.48377917-1.2202028-1.09923855zm7.7896154-.99126709 1.2202027 1.09923857-2.1165465 2.4837792-1.2202027-1.09923858zm-4.0274682-3.5775839 1.2202027 1.09923857-2.1165465 2.4837792-1.2202027-1.09923858z" transform="matrix(-1 0 0 1 62.9344 0)"/><path d="m31.3157303 25.8668503 1.2304798 1.1035271-2.1343729 2.4934694-1.2304798-1.1035271zm-2.0270276-1.8961202 1.2304798 1.1035272-2.2279188 2.6625909-1.2304799-1.1035272zm-2.0343616-1.6954213 1.2304798 1.1035271-2.1343729 2.4934694-1.2304799-1.1035271zm7.4743171-.8981923 1.2304798 1.1035272-2.134373 2.4934693-1.2304798-1.1035271zm-1.7847052-1.8429964 1.2304798 1.1035271-2.2279188 2.6625909-1.2304799-1.1035271zm-2.1012047-1.6468284 1.2304798 1.1035271-2.134373 2.4934694-1.2304798-1.1035271z"/><path d="m11.3215445 22.2543935 1.2202746 1.1004515-5.47440008 6.3244952-1.22027455-1.1004515zm-5.28685219 1.956551 1.22027455 1.1004515-2.30040967 2.5273997-1.22027456-1.1004515zm1.27039585-5.4582199 1.22027455 1.1004515-5.44612711 6.2405413-1.22027455-1.1004515zm1.92793895 1.6830847 1.22027459 1.1004515-1.99422653 2.3384935-1.22027456-1.1004515z" transform="matrix(-1 0 0 1 14.4008 0)"/></g></g></g></g></g><rect height="32" mask="url(#c)" rx="2" width="43.335938"/></g></svg>