<?xml version="1.0" encoding="UTF-8"?>
<svg width="43px" height="32px" viewBox="0 0 43 32" version="1.1" xmlns="http://www.w3.org/2000/svg" xmlns:xlink="http://www.w3.org/1999/xlink">
    <title>KY</title>
    <defs>
        <rect id="path-1" x="0" y="0" width="43.3359375" height="32"></rect>
        <rect id="path-3" x="0" y="0" width="42.6666667" height="32"></rect>
        <rect id="path-5" x="0" y="0" width="42.6666667" height="32"></rect>
        <rect id="path-7" x="0" y="0" width="24" height="18.6666667"></rect>
        <path d="M0.010039683,0 C0.010039683,1.69047236 0.010039683,3.6680624 0.010039683,4.96260955 C0.010039683,11.2727273 5.27810036,13.3333333 5.46666667,13.3333333 C5.66617293,13.3333333 10.546161,11.2727273 10.546161,4.96260955 C10.546161,3.7913378 10.546161,1.41821747 10.546161,0 L0.010039683,0 Z" id="path-9"></path>
    </defs>
    <g id="Flagpack" stroke="none" stroke-width="1" fill="none" fill-rule="evenodd">
        <g id="Flagpack---L-(32×24)" transform="translate(-432, -1192)">
            <g id="KY" transform="translate(432, 1192)">
                <mask id="mask-2" fill="white">
                    <use xlink:href="#path-1"></use>
                </mask>
                <g id="drop-shadow"></g>
                <g id="country" mask="url(#mask-2)" fill-rule="evenodd" stroke-width="1">
                    <g id="flag" transform="translate(0.3346, 0)">
                        <mask id="mask-4" fill="white">
                            <use xlink:href="#path-3"></use>
                        </mask>
                        <g id="mask"></g>
                        <g id="contents" mask="url(#mask-4)">
                            <mask id="mask-6" fill="white">
                                <use xlink:href="#path-5"></use>
                            </mask>
                            <use id="background" fill="#2E42A5" xlink:href="#path-5"></use>
                            <g id="gb---large" mask="url(#mask-6)">
                                <g id="flag">
                                    <mask id="mask-8" fill="white">
                                        <use xlink:href="#path-7"></use>
                                    </mask>
                                    <use id="mask" fill="#2B409A" xlink:href="#path-7"></use>
                                    <g id="contents" mask="url(#mask-8)">
                                        <g transform="translate(-4, -2.6667)">
                                            <g id="stripe">
                                                <polygon id="white" fill="#F7FCFF" fill-rule="nonzero" transform="translate(16.1166, 11.6424) scale(1, -1) translate(-16.1166, -11.6424)" points="1.32764499 3.28505196 6.60891225 0.968784711 28.1198405 18.0998217 30.9055883 21.5418638 25.2580328 22.3160286 16.4842393 14.9337746 9.42223733 9.95986032"></polygon>
                                                <polygon id="red" fill="#F50100" fill-rule="nonzero" transform="translate(15.978, 12.195) scale(1, -1) translate(-15.978, -12.195)" points="2.05065842 2.76731119 4.74122023 1.42314227 29.9052455 22.9667629 26.1273836 22.9667629"></polygon>
                                            </g>
                                            <g id="stripe" transform="translate(16, 11.3333) scale(-1, 1) translate(-16, -11.3333)">
                                                <polygon id="white" fill="#F7FCFF" fill-rule="nonzero" transform="translate(16.1166, 11.6424) scale(1, -1) translate(-16.1166, -11.6424)" points="1.32764499 3.28505196 6.60891225 0.968784711 28.1198405 18.0998217 30.9055883 21.5418638 25.2580328 22.3160286 16.4842393 14.9337746 9.42223733 9.95986032"></polygon>
                                                <polygon id="red" fill="#F50100" fill-rule="nonzero" transform="translate(16.3407, 12.1317) scale(1, -1) translate(-16.3407, -12.1317)" points="1.50784817 3.09890547 4.19840997 1.75473656 14.9135127 10.9786798 18.0903107 12.0092488 31.1736384 22.5086246 27.3957765 22.5086246 14.3197995 12.2584594 10.8465307 11.0226967"></polygon>
                                            </g>
                                            <g id="cross" transform="translate(4, 2.6667)">
                                                <path d="M14.3127673,-1 L14.3120853,6.99909357 L25,7.00009356 L25,11.666729 L14.3120853,11.6660624 L14.3127673,19.6666667 L9.64601728,19.6666667 L9.64600192,11.6660626 L-1,11.6667293 L-1,7.00009393 L9.64600192,6.99909393 L9.64601728,-1 L14.3127673,-1 Z" id="red" stroke="#F7FCFF" stroke-width="2" fill="#F50100"></path>
                                            </g>
                                        </g>
                                    </g>
                                </g>
                            </g>
                            <g id="weapon" mask="url(#mask-6)">
                                <g transform="translate(27.0524, 8.383)">
                                    <g id="Group-2" stroke-width="1" fill="none" fill-rule="evenodd" transform="translate(0.9476, 6.2837)">
                                        <mask id="mask-10" fill="white">
                                            <use xlink:href="#path-9"></use>
                                        </mask>
                                        <g id="Path-2">
                                            <path stroke="#0B50A0" stroke-width="0.133333333" d="M10.4794944,0.0666666667 L10.4794944,4.96260955 C10.4794944,7.10661766 9.9127805,8.75687479 9.1584067,10.0000408 C7.72007484,12.3703316 5.5963465,13.2666667 5.46666667,13.2666667 C5.34380795,13.2666667 3.04664535,12.3687182 1.49373872,9.98648603 C0.684539886,8.74513677 0.0767063497,7.09912167 0.0767063497,4.96260955 L0.0767063497,0.0666666667 L10.4794944,0.0666666667 Z" stroke-linejoin="square" fill="#FFFFFF" fill-rule="evenodd"></path>
                                            <path stroke="#F7FCFF" stroke-width="0.4" d="M10.746161,-0.2 L10.746161,4.96260955 C10.746161,7.16603422 10.1614737,8.86107432 9.38638302,10.1383806 C7.85922974,12.6550441 5.60262621,13.5333333 5.46666667,13.5333333 C5.33822665,13.5333333 2.91056993,12.6482927 1.27034487,10.1321099 C0.437690321,8.85477842 -0.189960317,7.16156611 -0.189960317,4.96260955 L-0.189960317,-0.2 L10.746161,-0.2 Z"></path>
                                        </g>
                                        <rect id="Rectangle" fill="#F50100" fill-rule="nonzero" mask="url(#mask-10)" x="-0.666666667" y="-0.666666667" width="12" height="4.53333333"></rect>
                                        <path d="M4.68266082,4.8 C5.06666132,4.8 5.83466301,4.382055 6.02666226,4.28560656 C6.73066397,3.86766156 7.24265975,4.25345664 7.65866258,4.44635485 C8.10666306,4.63925239 8.93866205,4.86429918 9.4506645,4.44635485 C9.96266496,4.02840984 10.2506658,4.0605591 10.6026667,4.0605591 C10.6666667,3.57831491 10.6666667,3.09606804 10.6666667,2.54952468 L10.6666667,2.1637296 C10.2186669,2.06728049 9.99466928,2.19587885 9.51466448,2.61382386 C9.03466434,3.03176886 8.49066624,2.93531976 7.78666453,2.67812304 C7.11466715,2.38877639 6.44266309,1.87438161 5.77066571,2.67812304 C5.57866512,2.9031705 5.1306653,3.2246664 4.68266549,3.2246664 C4.20266536,3.2246664 3.78666453,2.9031705 3.59466528,2.67812304 C2.89066357,1.87438161 2.25066384,2.38877639 1.57866645,2.67812304 C0.874664744,2.93531976 0.298666987,3.03176886 -0.181331143,2.61382386 C-0.629330956,2.19587885 -0.853328526,2.06728049 -1.33333333,2.1637296 L-1.33333333,2.54952468 C-1.33333333,3.09606804 -1.30133368,3.57831022 -1.23733371,4.0605591 C-0.88533352,4.0605591 -0.629332959,4.02840984 -0.117335844,4.44635485 C0.39466461,4.86429918 1.25866325,4.63925239 1.67466608,4.44635485 C2.12266656,4.25345664 2.63466902,3.86766156 3.33866405,4.28560656 C3.53066397,4.382055 4.26666266,4.8 4.68266549,4.8 L4.68266082,4.8 Z" id="Path" fill="#F50100" fill-rule="nonzero" mask="url(#mask-10)"></path>
                                        <path d="M1.44492621,1.39848833 C1.63775381,1.40742521 1.84832583,1.52974228 2.07664227,1.76543956 C2.41911694,2.11898548 3.67936682,1.89396232 3.67936682,1.68069398 C3.67936682,1.46742565 2.91464165,1.34001899 3.20844952,0.975353391 C3.5022574,0.61068779 4.00000045,0.610031097 4.40000045,0.800000396 C4.51470664,0.800000396 4.50201029,2.04742035 4.76382259,1.97894589 C5.59297564,1.762089 6.93038467,1.33239082 7.32265271,1.51674172 C7.83878281,1.75930303 8.23373921,1.6989769 8.10253487,1.35094155 C7.97133054,1.00290619 7.63413987,0.785384092 6.98483513,0.975353391 C6.33553039,1.16532269 6.48876631,1.35094155 5.9275879,1.35094155 C5.36640949,1.35094155 4.40357432,1.65453618 4.83118369,0.975353391 C5.2143636,0.366739031 5.67140807,0.354835222 5.8458379,0.61068779 C5.93507399,0.741578717 5.20710523,1.03062513 5.20710523,1.16532269 C5.20710523,1.35094155 7.08231072,0.800273841 7.32265271,0.800273841 C7.56299471,0.800273841 8.22444827,0.785384092 8.29000997,0.975353391 C8.35557167,1.16532269 8.754965,1.3396432 8.45052953,1.51674172 C8.14609405,1.69384025 7.64409399,1.80477367 7.98949221,2.0316751 C8.33489042,2.25857653 9.21013821,2.36176104 9.24840919,2.59778225 C9.28668016,2.83380346 9.6631269,3.18625298 9.51204183,3.18625298 C9.36095677,3.18625298 9.08791628,3.51865048 8.83366482,3.417441 C8.57941336,3.31623151 8.54951083,3.22736394 8.79331506,3.14537218 C9.03711929,3.06338041 9.03474735,2.71858345 8.83366482,2.71858345 C8.6325823,2.71858345 8.64974647,2.6924712 8.19190729,2.57167 C7.7340681,2.4508688 7.12810211,2.31657491 7.16453416,2.57167 C7.20096621,2.82676508 7.51096399,3.37428248 6.96099196,3.42646952 C6.41101993,3.47865656 6.15358591,3.68818149 6.04653954,3.51945106 C5.93949317,3.35072064 5.55687894,3.12589058 5.85774317,3.05379537 C6.1586074,2.98170015 6.44611943,3.29885006 6.55448279,3.24706578 C6.66284615,3.19528151 6.89655739,3.01051295 6.69083757,2.79109147 C6.48511776,2.57167 6.08557081,2.5642356 6.40000045,2.4000004 C6.71443009,2.2357652 6.52668898,2.11064612 5.9275879,2.4508688 C5.32848682,2.79109147 4.99526815,3.08022033 4.46930876,3.03933953 C3.94334937,2.99845872 3.70734432,3.18553938 3.53829641,3.13038913 C3.36924851,3.07523888 2.54591618,3.73974619 2.30882802,3.57110207 C2.07173987,3.40245795 1.30634703,3.33775638 1.4441332,3.13038913 C1.58191937,2.92302188 1.76690463,2.81625997 1.97294425,2.92302188 C2.17898388,3.02978379 2.38371156,3.1365457 2.52264977,3.02978379 C2.66158798,2.92302188 3.101841,2.42474651 3.00091329,2.35150053 C2.89998559,2.27825455 2.54439707,2.1528401 1.97294425,2.1528401 C1.40149144,2.1528401 1.38828779,1.77315009 1.25263371,1.6000004 C1.16219765,1.48456727 1.22629515,1.41739658 1.44492621,1.39848833 Z" id="lion" fill="#FFD100" mask="url(#mask-10)"></path>
                                        <g id="Group" mask="url(#mask-10)" fill="#0B50A0" fill-rule="nonzero">
                                            <g transform="translate(-1.3333, 5.3333)" id="Path">
                                                <path d="M6.01599415,2.66666667 C6.39999466,2.66666667 7.16799634,2.24872166 7.35999559,2.15227323 C8.0639973,1.73432822 8.57599308,2.1201233 8.99199591,2.31302151 C9.43999639,2.50591905 10.2719954,2.73096585 10.7839978,2.31302151 C11.2959983,1.89507651 11.5839992,1.92722576 11.936,1.92722576 C12,1.44498158 12,0.96273471 12,0.416191345 L12,0.0303962655 C11.5520002,-0.0660528397 11.3280026,0.0625455201 10.8479978,0.480490525 C10.3679977,0.89843553 9.82399957,0.801986424 9.11999786,0.544789705 C8.44800048,0.25544306 7.77599642,-0.258951721 7.10399904,0.544789705 C6.91199845,0.76983717 6.46399864,1.09133307 6.01599882,1.09133307 C5.53599869,1.09133307 5.11999786,0.76983717 4.92799861,0.544789705 C4.2239969,-0.258951721 3.58399717,0.25544306 2.91199979,0.544789705 C2.20799808,0.801986424 1.63200032,0.89843553 1.15200219,0.480490525 C0.704002377,0.0625455201 0.480004808,-0.0660528397 0,0.0303962655 L0,0.416191345 C0,0.96273471 0.0319996528,1.44497688 0.0959996261,1.92722576 C0.447999813,1.92722576 0.704000374,1.89507651 1.21599749,2.31302151 C1.72799794,2.73096585 2.59199658,2.50591905 3.00799941,2.31302151 C3.45599989,2.1201233 3.96800235,1.73432822 4.67199738,2.15227323 C4.8639973,2.24872166 5.59999599,2.66666667 6.01599882,2.66666667 L6.01599415,2.66666667 Z"></path>
                                                <path d="M6.01599415,5.73333333 C6.39999466,5.73333333 7.16799634,5.31538833 7.35999559,5.21893989 C8.0639973,4.80099489 8.57599308,5.18678997 8.99199591,5.37968818 C9.43999639,5.57258572 10.2719954,5.79763251 10.7839978,5.37968818 C11.2959983,4.96174317 11.5839992,4.99389243 11.936,4.99389243 C12,4.51164824 12,4.02940138 12,3.48285801 L12,3.09706293 C11.5520002,3.00061383 11.3280026,3.12921219 10.8479978,3.54715719 C10.3679977,3.9651022 9.82399957,3.86865309 9.11999786,3.61145637 C8.44800048,3.32210973 7.77599642,2.80771495 7.10399904,3.61145637 C6.91199845,3.83650384 6.46399864,4.15799974 6.01599882,4.15799974 C5.53599869,4.15799974 5.11999786,3.83650384 4.92799861,3.61145637 C4.2239969,2.80771495 3.58399717,3.32210973 2.91199979,3.61145637 C2.20799808,3.86865309 1.63200032,3.9651022 1.15200219,3.54715719 C0.704002377,3.12921219 0.480004808,3.00061383 0,3.09706293 L0,3.48285801 C0,4.02940138 0.0319996528,4.51164355 0.0959996261,4.99389243 C0.447999813,4.99389243 0.704000374,4.96174317 1.21599749,5.37968818 C1.72799794,5.79763251 2.59199658,5.57258572 3.00799941,5.37968818 C3.45599989,5.18678997 3.96800235,4.80099489 4.67199738,5.21893989 C4.8639973,5.31538833 5.59999599,5.73333333 6.01599882,5.73333333 L6.01599415,5.73333333 Z"></path>
                                            </g>
                                        </g>
                                        <path d="M4.68266082,14.1333333 C5.06666132,14.1333333 5.83466301,13.7153883 6.02666226,13.6189399 C6.73066397,13.2009949 7.24265975,13.58679 7.65866258,13.7796882 C8.10666306,13.9725857 8.93866205,14.1976325 9.4506645,13.7796882 C9.96266496,13.3617432 10.2506658,13.3938924 10.6026667,13.3938924 C10.6666667,12.9116482 10.6666667,12.4294014 10.6666667,11.882858 L10.6666667,11.4970629 C10.2186669,11.4006138 9.99466928,11.5292122 9.51466448,11.9471572 C9.03466434,12.3651022 8.49066624,12.2686531 7.78666453,12.0114564 C7.11466715,11.7221097 6.44266309,11.2077149 5.77066571,12.0114564 C5.57866512,12.2365038 5.1306653,12.5579997 4.68266549,12.5579997 C4.20266536,12.5579997 3.78666453,12.2365038 3.59466528,12.0114564 C2.89066357,11.2077149 2.25066384,11.7221097 1.57866645,12.0114564 C0.874664744,12.2686531 0.298666987,12.3651022 -0.181331143,11.9471572 C-0.629330956,11.5292122 -0.853328526,11.4006138 -1.33333333,11.4970629 L-1.33333333,11.882858 C-1.33333333,12.4294014 -1.30133368,12.9116435 -1.23733371,13.3938924 C-0.88533352,13.3938924 -0.629332959,13.3617432 -0.117335844,13.7796882 C0.39466461,14.1976325 1.25866325,13.9725857 1.67466608,13.7796882 C2.12266656,13.58679 2.63466902,13.2009949 3.33866405,13.6189399 C3.53066397,13.7153883 4.26666266,14.1333333 4.68266549,14.1333333 L4.68266082,14.1333333 Z" id="Path" fill="#0B50A0" fill-rule="nonzero" mask="url(#mask-10)"></path>
                                        <path d="M5.38948024,8.35920605 L5.69827883,9.07453073 L6.35680852,9.07453073 L5.82283619,9.63849714 L6.07535322,10.393314 L5.3771379,10.0245245 L4.75734773,10.3918451 L4.93869912,9.6270191 L4.34076924,9.07453073 L5.12613076,9.07453073 L5.38948024,8.35920605 Z" id="Star-21" stroke="#FFD100" stroke-width="0.266666667" fill="#059334" mask="url(#mask-10)"></path>
                                        <path d="M2.72281357,5.69253939 L3.03161216,6.40786407 L3.69014185,6.40786407 L3.15616953,6.97183048 L3.40868655,7.72664729 L2.71047123,7.35785785 L2.09068106,7.72517846 L2.27203245,6.96035243 L1.67410257,6.40786407 L2.45946409,6.40786407 L2.72281357,5.69253939 Z" id="Star-21" stroke="#FFD100" stroke-width="0.266666667" fill="#059334" mask="url(#mask-10)"></path>
                                        <path d="M8.05614691,5.69253939 L8.36494549,6.40786407 L9.02347519,6.40786407 L8.48950286,6.97183048 L8.74201989,7.72664729 L8.04380457,7.35785785 L7.4240144,7.72517846 L7.60536579,6.96035243 L7.0074359,6.40786407 L7.79279742,6.40786407 L8.05614691,5.69253939 Z" id="Star-21" stroke="#FFD100" stroke-width="0.266666667" fill="#059334" mask="url(#mask-10)"></path>
                                    </g>
                                    <g id="line" stroke-width="1" fill="none" fill-rule="evenodd" transform="translate(0, 16.5503)">
                                        <path d="M0.063535836,2.5791597 C0.186021459,2.84130534 1.06385532,3.18537167 2.08459228,2.74300073 C2.77869239,2.43170261 3.22781699,1.98933235 3.65652412,1.20289474 C3.77900932,1.00628551 3.84025192,0.760522093 3.55444744,0.613065682 C3.32988557,0.481992862 2.96242188,0.334535426 2.79910346,0.203462264 C2.71744681,0.137925853 2.63578419,0.0887733746 2.57454159,0.039620896 C2.61537013,0.072389443 2.65619867,0.105157648 2.69702721,0.154309785 C3.10532242,0.547526879 2.67661273,1.12097303 2.2274894,1.46503799 C1.90085639,1.71079936 1.308827,2.31701064 0.451412726,1.74356756 C0.267679393,1.61249474 -0.161030298,2.15317098 0.0635315761,2.57915731 L0.063535836,2.5791597 Z" id="Path" fill="#FFD100" fill-rule="nonzero"></path>
                                        <path d="M12.4755912,2.5791597 C12.332686,2.84130534 11.4548543,3.18537167 10.4545348,2.74300073 C9.76043466,2.43170261 9.31131006,1.98933235 8.86218546,1.20289474 C8.76010879,1.00628551 8.69886619,0.760522093 8.98467066,0.613065682 C9.20923253,0.481992862 9.57670048,0.334535426 9.74001464,0.203462264 C9.82167684,0.137925853 9.88291944,0.0887733746 9.96457652,0.039620896 C9.92374798,0.072389443 9.88291944,0.105157648 9.84209089,0.154309785 C9.43379569,0.547526879 9.86250538,1.12097303 10.2912155,1.46503799 C10.6178477,1.71079936 11.2302911,2.31701064 12.0877096,1.74356756 C12.2714455,1.61249474 12.6797352,2.15317098 12.4755904,2.57915731 L12.4755912,2.5791597 Z" id="Path" fill="#FFD100" fill-rule="nonzero"></path>
                                        <path d="M6.26962742,3.98821953 C7.90280314,3.98821953 10.4138149,3.39839047 11.7611716,1.33399389 C11.9857339,0.98992893 11.7611716,0.809703289 11.4957829,0.695012691 C11.2099767,0.596708075 10.8629224,0.367330298 10.679195,0.219874229 C11.0058276,0.482020554 10.944588,0.662246879 10.7200257,0.957159699 C9.6788713,2.34980927 8.24984468,3.05432551 6.26963168,3.05432551 C4.28940165,3.05432551 2.86037503,2.34980927 1.81923765,0.957159699 C1.59467577,0.662245169 1.53342764,0.482021238 1.8396517,0.219874229 C1.67633243,0.367331323 1.30886576,0.596708417 1.02305958,0.695012691 C0.757669169,0.80970158 0.533108573,0.989926537 0.757669169,1.33399389 C2.10503871,3.39839389 4.63646363,3.98821953 6.26966065,3.98821953 L6.26962742,3.98821953 Z" id="Path" fill="#FFD100" fill-rule="nonzero"></path>
                                        <path d="M2.49288621,1.21929645 C2.45205682,1.05545543 2.18666555,1.12099184 2.10500676,1.31760107 C2.00293349,1.20291252 1.9008598,1.08822363 1.81920101,0.957149785 C1.57422423,0.662235939 1.53339483,0.465624999 1.88044489,0.187095084 C2.04376289,0.0560222635 2.3703959,-0.0914348305 2.5949582,0.072406537 C3.06449601,0.383704657 2.81952007,0.891613375 2.4928845,1.21929543 L2.49288621,1.21929645 Z" id="Path" fill="#F50100" fill-rule="nonzero"></path>
                                        <path d="M10.0259214,1.21929645 C10.0667507,1.05545543 10.3525565,1.12099184 10.4342153,1.31760107 C10.5362881,1.20291252 10.6383627,1.08822363 10.7200198,0.957149785 C10.9649995,0.662235939 11.0058259,0.465624999 10.6383627,0.187095084 C10.4954596,0.0560222635 10.1688249,-0.0914348305 9.92384936,0.072406537 C9.47472476,0.383704657 9.69928749,0.891613375 10.0259231,1.21929543 L10.0259214,1.21929645 Z" id="Path" fill="#F50100" fill-rule="nonzero"></path>
                                    </g>
                                    <path d="M9.5044058,0.00502453346 C9.53051994,0.0767725629 8.4402357,0.874162542 8.06884374,1.78131851 L8.05204885,1.82942145 C8.05374712,1.83317896 8.05543709,1.83694559 8.05711873,1.84072128 L8.15118029,1.76242428 C9.202395,0.920345266 10.2644204,0.588099749 10.2644204,0.707053387 C10.2644204,0.838134924 9.01202391,1.45316739 8.26250313,2.62635855 L8.27644479,2.78681685 L8.27730897,2.83 L8.38485264,2.73621769 C8.81017997,2.37725688 9.19775377,2.23830158 9.19775377,2.29646411 C9.19775377,2.3712072 8.5761848,2.73348279 8.24075876,3.42923088 C8.09930763,4.30269941 7.57389587,4.95033206 6.9476423,4.95033206 C6.334892,4.95033206 5.81868169,4.3303268 5.66262181,3.48573193 C5.33556121,2.75267484 4.68097563,2.37316663 4.68097563,2.29646411 C4.68097563,2.23273511 5.14628528,2.40565995 5.61672595,2.84534671 C5.61834365,2.78019028 5.62272962,2.71508774 5.62914403,2.65098093 C4.88383697,1.4615743 3.61430897,0.839028408 3.61430897,0.707053387 C3.61430897,0.588099749 4.67633441,0.920345266 5.72754912,1.76242428 L5.83365874,1.8509081 L5.80988566,1.78131851 C5.4384937,0.874162542 4.34820946,0.0767725629 4.37432361,0.00502453346 C4.39805375,-0.0601734961 5.36237425,0.515479834 6.13796413,1.36229117 C6.26678966,1.21360565 6.41439783,1.0997097 6.57452826,1.02975148 L6.01430897,0.283665392 L8.01430897,0.283665392 L7.41831626,1.07851084 C7.53791376,1.14620948 7.64931787,1.23895824 7.74968483,1.35249147 C8.52328607,0.511343435 9.48076108,-0.0599387832 9.5044058,0.00502453346 Z" id="pineapple" fill="#FFD100" fill-rule="nonzero"></path>
                                    <path d="M4.17968377,4.10284083 C4.01926088,3.88380072 3.58382869,3.78644967 3.40048756,3.98115176 C3.33173476,4.02982729 3.24006467,4.02982729 3.17131235,4.0541653 C3.0567245,4.0541653 2.91043445,4.11545088 2.95626949,4.358829 C3.07964226,4.358829 3.07964226,4.41923198 3.14839459,4.41923198 C3.19422963,4.39489396 3.31342559,4.84133623 3.54259889,4.81699873 C3.79469187,4.81699873 4.01925897,4.93032522 4.06509449,4.97900074 C4.13384682,5.05201428 4.2255169,5.24671637 4.11092953,5.34406741 C3.95050664,5.49009398 3.8359188,5.83082315 4.11092953,6.09853878 C4.40885755,6.34191639 5.16513505,6.70698408 6.01308358,6.00118722 C6.83811627,5.31972889 8.12149461,5.70913409 8.21316756,5.9525117 C8.32775541,6.19588982 8.37359045,6.34191639 8.39650821,6.46360799 C8.4194255,6.56095904 9.0381993,6.7069856 9.12986938,6.77999914 C9.24445675,6.85301217 9.40487964,6.82867466 9.3590446,6.60963456 C9.26737451,5.92817623 8.87777832,5.83082721 8.83194184,5.51443403 C9.06111706,5.53877154 9.22153995,5.53877154 9.31320812,5.44142049 C9.38196092,5.34406945 9.47363101,5.17370486 9.5653011,5.12502934 C9.6340539,5.07635382 9.6340539,5.02767829 9.54238334,5.05201631 C9.42779597,5.07635382 9.35904316,5.12502934 9.15278523,5.10069183 C8.66483555,5.04436682 8.78552045,3.19819387 7.17184447,2.8390617 C6.17466109,2.61713324 4.93121994,4.13902171 4.59022927,4.28969146 C4.58281421,4.29296787 4.5758259,4.29559587 4.56927614,4.29754342 C4.40885947,4.29754292 4.27135386,4.22452938 4.17968377,4.10284083 Z" id="turtle" fill="#059334" fill-rule="nonzero"></path>
                                </g>
                            </g>
                        </g>
                    </g>
                </g>
                <rect id="overlay" mask="url(#mask-2)" x="0" y="0" width="43.3359375" height="32" rx="2"></rect>
            </g>
        </g>
    </g>
</svg>