<svg height="32" viewBox="0 0 43 32" width="43" xmlns="http://www.w3.org/2000/svg" xmlns:xlink="http://www.w3.org/1999/xlink"><defs><path id="a" d="m0 0h42.666667v32h-42.666667z"/><mask id="b" fill="#fff"><path d="m0 0h43.335938v32h-43.335938z" fill="#fff" fill-rule="evenodd"/></mask><mask id="c" fill="#fff"><path d="m0 0h42.666667v32h-42.666667z" fill="#fff" fill-rule="evenodd"/></mask><mask id="d" fill="#fff"><use fill="#fff" fill-rule="evenodd" xlink:href="#a"/></mask></defs><g fill="none" fill-rule="evenodd"><g fill-rule="evenodd" mask="url(#b)"><g mask="url(#c)" transform="translate(.3346)"><use fill="#4ec7ee" xlink:href="#a"/><g mask="url(#d)"><g transform="matrix(1 0 0 -1 5.8981 32)"><path d="m-.44482903 1.01735844c-.0846173-.62666574.31678536-1.07302265.99015466-1.36029833.90522159-.38618949 1.81860755-.02455902 2.65879012.90638952l-1.08880934.98265219c-.37322075-.41354026-.64291765-.57286729-.85110874-.57015889.40763917.29122638.92991881.65074717 1.56609919 1.07797585l.30534611.44230058c.24524474 1.05199264-.51733207 1.62202706-1.68032374 1.62202706-.6850081 0-1.23266309-.13554174-1.58012826-.42687982-.57084782-.47863708-.47311858-1.24270155.12760697-1.64021583.04764948-.03153078.09601631-.0599063.14503292-.08518809-.33699494-.28459047-.54267163-.57839705-.59265989-.94860424z" fill="#ffe402" fill-rule="nonzero"/><path d="m.18843578 2.00607686c.11091785.24583062.13864732.43270231.08318839.56061506" stroke="#ffe402" stroke-width="1.466667"/><g fill="#ffe402" fill-rule="nonzero" transform="matrix(-1 0 0 1 5.0829 0)"><path d="m-.44482903 1.01735844c-.0846173-.62666574.31678536-1.07302265.99015466-1.36029833.90522159-.38618949 1.81860755-.02455902 2.65879012.90638952l-1.08880934.98265219c-.37322075-.41354026-.64291765-.57286729-.85110874-.57015889.40763917.29122638.92991881.65074717 1.56609919 1.07797585l.30534611.44230058c.24524474 1.05199264-.51733207 1.62202706-1.68032374 1.62202706-.6850081 0-1.23266309-.13554174-1.58012826-.42687982-.57084782-.47863708-.47311858-1.24270155.12760697-1.64021583.04764948-.03153078.09601631-.0599063.14503292-.08518809-.33699494-.28459047-.54267163-.57839705-.59265989-.94860424z"/><path d="m-.4800071 2.30767577 1.33688575-.60319783c.1876545.4159044.24372232.79375117.08756193 1.15392592l-1.34563282-.58342388c-.04524254.10434925-.04463365.10845264-.07881486.03269579z"/></g></g><g fill="#ffe402"><g fill-rule="nonzero" transform="translate(3.2315 -2.6667)"><path d="m2.22183764 3.68402511c-.0846173-.62666575.31678536-1.07302265.99015466-1.36029833.90522159-.38618949 1.81860755-.02455902 2.65879012.90638951l-1.08880934.9826522c-.37322076-.41354026-.64291766-.57286729-.85110875-.57015889.40763918.29122638.92991882.65074717 1.5660992 1.07797585l.30534611.44230057c.24524473 1.05199264-.51733207 1.62202707-1.68032375 1.62202707-.6850081 0-1.23266308-.13554174-1.58012825-.42687983-.57084782-.47863707-.47311858-1.24270155.12760697-1.64021582.04764947-.03153079.0960163-.0599063.14503292-.08518809-.33699494-.28459048-.54267163-.57839706-.59265989-.94860424z"/><path d="m2.22183764 3.68402511c-.0846173-.62666575.31678536-1.07302265.99015466-1.36029833.90522159-.38618949 1.81860755-.02455902 2.65879012.90638951l-1.08880934.9826522c-.37322076-.41354026-.64291766-.57286729-.85110875-.57015889.40763918.29122638.92991882.65074717 1.5660992 1.07797585l.30534611.44230057c.24524473 1.05199264-.51733207 1.62202707-1.68032375 1.62202707-.6850081 0-1.23266308-.13554174-1.58012825-.42687983-.57084782-.47863707-.47311858-1.24270155.12760697-1.64021582.04764947-.03153079.0960163-.0599063.14503292-.08518809-.33699494-.28459048-.54267163-.57839706-.59265989-.94860424z" transform="matrix(-1 0 0 1 10.4163 0)"/></g><g fill-rule="nonzero" transform="matrix(1 0 0 -1 2.6667 31.021)"><path d="m4.21520849 3.59417903c-.02661293.00592327-.05221701.01239526-.07613876.01934068.01781433-.01867843.08781249-.10212702.08781249-.35189652 0-.13598466-.00655204-.2316527-.01533342-.29891589-.24745139.21829211-.31662603.59883457-.13554714.89176142.00154814.00250439.00304161.00494125.00448155.00731209zm-.07613876.01934068c-.00871094.00252912-.01719881.00512103-.02543107.00777207.00274409-.00088368.00632929-.00257359.01052873-.00528974zm.70520733-.02766576c.01471296-.00797431.02322533-.02286243.02322533-.04790073 0 .0055455-.0049404.0184995-.01468897.03855321zm-.71922018.68457796c-.84135415-.02421582-1.36484133-.19777476-1.36484133-1.00880872 0-.89432883.86885728-1.17412788 1.79323883-1.17412788.83736716 0 1.78071468.51970872 1.78071468 1.45045791 0 .56622721-.71994546 1.70884023-2.5327915 4.18576352-.09647789.08986312-.12639552.11204236-.16700731.06322597.09784079.0646192.30898066.15821207.60088119.15821207.08869256 0 .20395513-.04486112.31820294-.10232714v-.97142309h1.91929879v.73333333c0 .82852188-1.22475033 1.80708357-2.23750173 1.80708357-.88446904 0-1.59453407-.42074368-1.95419232-1.02603813-.35543688-.59818998-.08364531-1.17241067.42680032-1.62915001.75958398-1.04760486 1.34934854-1.91476091 1.71921948-2.48452307-.13589176.0011337-.21050811.00095562-.30202204-.00167833zm-.07218719-.35380298.02761369-.05484846c.06616244.10893595.01933709.07848603-.02761369.05484846z"/><path d="m4.21520849 3.59417903c-.02661293.00592327-.05221701.01239526-.07613876.01934068.01781433-.01867843.08781249-.10212702.08781249-.35189652 0-.13598466-.00655204-.2316527-.01533342-.29891589-.24745139.21829211-.31662603.59883457-.13554714.89176142.00154814.00250439.00304161.00494125.00448155.00731209zm-.07613876.01934068c-.00871094.00252912-.01719881.00512103-.02543107.00777207.00274409-.00088368.00632929-.00257359.01052873-.00528974zm.70520733-.02766576c.01471296-.00797431.02322533-.02286243.02322533-.04790073 0 .0055455-.0049404.0184995-.01468897.03855321zm-.71922018.68457796c-.84135415-.02421582-1.36484133-.19777476-1.36484133-1.00880872 0-.89432883.86885728-1.17412788 1.79323883-1.17412788.83736716 0 1.78071468.51970872 1.78071468 1.45045791 0 .56622721-.71994546 1.70884023-2.5327915 4.18576352-.09647789.08986312-.12639552.11204236-.16700731.06322597.09784079.0646192.30898066.15821207.60088119.15821207.08869256 0 .20395513-.04486112.31820294-.10232714v-.97142309h1.91929879v.73333333c0 .82852188-1.22475033 1.80708357-2.23750173 1.80708357-.88446904 0-1.59453407-.42074368-1.95419232-1.02603813-.35543688-.59818998-.08364531-1.17241067.42680032-1.62915001.75958398-1.04760486 1.34934854-1.91476091 1.71921948-2.48452307-.13589176.0011337-.21050811.00095562-.30202204-.00167833zm-.07218719-.35380298.02761369-.05484846c.06616244.10893595.01933709.07848603-.02761369.05484846z" transform="matrix(-1 0 0 1 11.5458 0)"/></g><g fill-rule="nonzero" transform="translate(2.6667 13.5358)"><path d="m4.21520849 3.59417903c-.02661293.00592327-.05221701.01239526-.07613876.01934068.01781433-.01867843.08781249-.10212702.08781249-.35189652 0-.13598466-.00655204-.2316527-.01533342-.29891589-.24745139.21829211-.31662603.59883457-.13554714.89176142.00154814.00250439.00304161.00494125.00448155.00731209zm-.07613876.01934068c-.00871094.00252912-.01719881.00512103-.02543107.00777207.00274409-.00088368.00632929-.00257359.01052873-.00528974zm.70520733-.02766576c.01471296-.00797431.02322533-.02286243.02322533-.04790073 0 .0055455-.0049404.0184995-.01468897.03855321zm-.71922018.68457796c-.84135415-.02421582-1.36484133-.19777476-1.36484133-1.00880872 0-.89432883.86885728-1.17412788 1.79323883-1.17412788.83736716 0 1.78071468.51970872 1.78071468 1.45045791 0 .56622721-.71994546 1.70884023-2.5327915 4.18576352-.09647789.08986312-.12639552.11204236-.16700731.06322597.09784079.0646192.30898066.15821207.60088119.15821207.08869256 0 .20395513-.04486112.31820294-.10232714v-.97142309h1.91929879v.73333333c0 .82852188-1.22475033 1.80708357-2.23750173 1.80708357-.88446904 0-1.59453407-.42074368-1.95419232-1.02603813-.35543688-.59818998-.08364531-1.17241067.42680032-1.62915001.75958398-1.04760486 1.34934854-1.91476091 1.71921948-2.48452307-.13589176.0011337-.21050811.00095562-.30202204-.00167833zm-.07218719-.35380298.02761369-.05484846c.06616244.10893595.01933709.07848603-.02761369.05484846z"/><path d="m4.21520849 3.59417903c-.02661293.00592327-.05221701.01239526-.07613876.01934068.01781433-.01867843.08781249-.10212702.08781249-.35189652 0-.13598466-.00655204-.2316527-.01533342-.29891589-.24745139.21829211-.31662603.59883457-.13554714.89176142.00154814.00250439.00304161.00494125.00448155.00731209zm-.07613876.01934068c-.00871094.00252912-.01719881.00512103-.02543107.00777207.00274409-.00088368.00632929-.00257359.01052873-.00528974zm.70520733-.02766576c.01471296-.00797431.02322533-.02286243.02322533-.04790073 0 .0055455-.0049404.0184995-.01468897.03855321zm-.71922018.68457796c-.84135415-.02421582-1.36484133-.19777476-1.36484133-1.00880872 0-.89432883.86885728-1.17412788 1.79323883-1.17412788.83736716 0 1.78071468.51970872 1.78071468 1.45045791 0 .56622721-.71994546 1.70884023-2.5327915 4.18576352-.09647789.08986312-.12639552.11204236-.16700731.06322597.09784079.0646192.30898066.15821207.60088119.15821207.08869256 0 .20395513-.04486112.31820294-.10232714v-.97142309h1.91929879v.73333333c0 .82852188-1.22475033 1.80708357-2.23750173 1.80708357-.88446904 0-1.59453407-.42074368-1.95419232-1.02603813-.35543688-.59818998-.08364531-1.17241067.42680032-1.62915001.75958398-1.04760486 1.34934854-1.91476091 1.71921948-2.48452307-.13589176.0011337-.21050811.00095562-.30202204-.00167833zm-.07218719-.35380298.02761369-.05484846c.06616244.10893595.01933709.07848603-.02761369.05484846z" transform="matrix(-1 0 0 1 11.5458 0)"/></g><g fill-rule="nonzero" transform="matrix(1 0 0 -1 2.6667 18.4642)"><path d="m4.21520849 3.59417903c-.02661293.00592327-.05221701.01239526-.07613876.01934068.01781433-.01867843.08781249-.10212702.08781249-.35189652 0-.13598466-.00655204-.2316527-.01533342-.29891589-.24745139.21829211-.31662603.59883457-.13554714.89176142.00154814.00250439.00304161.00494125.00448155.00731209zm-.07613876.01934068c-.00871094.00252912-.01719881.00512103-.02543107.00777207.00274409-.00088368.00632929-.00257359.01052873-.00528974zm.70520733-.02766576c.01471296-.00797431.02322533-.02286243.02322533-.04790073 0 .0055455-.0049404.0184995-.01468897.03855321zm-.71922018.68457796c-.84135415-.02421582-1.36484133-.19777476-1.36484133-1.00880872 0-.89432883.86885728-1.17412788 1.79323883-1.17412788.83736716 0 1.78071468.51970872 1.78071468 1.45045791 0 .56622721-.71994546 1.70884023-2.5327915 4.18576352-.09647789.08986312-.12639552.11204236-.16700731.06322597.09784079.0646192.30898066.15821207.60088119.15821207.08869256 0 .20395513-.04486112.31820294-.10232714v-.97142309h1.91929879v.73333333c0 .82852188-1.22475033 1.80708357-2.23750173 1.80708357-.88446904 0-1.59453407-.42074368-1.95419232-1.02603813-.35543688-.59818998-.08364531-1.17241067.42680032-1.62915001.75958398-1.04760486 1.34934854-1.91476091 1.71921948-2.48452307-.13589176.0011337-.21050811.00095562-.30202204-.00167833zm-.07218719-.35380298.02761369-.05484846c.06616244.10893595.01933709.07848603-.02761369.05484846z"/><path d="m4.21520849 3.59417903c-.02661293.00592327-.05221701.01239526-.07613876.01934068.01781433-.01867843.08781249-.10212702.08781249-.35189652 0-.13598466-.00655204-.2316527-.01533342-.29891589-.24745139.21829211-.31662603.59883457-.13554714.89176142.00154814.00250439.00304161.00494125.00448155.00731209zm-.07613876.01934068c-.00871094.00252912-.01719881.00512103-.02543107.00777207.00274409-.00088368.00632929-.00257359.01052873-.00528974zm.70520733-.02766576c.01471296-.00797431.02322533-.02286243.02322533-.04790073 0 .0055455-.0049404.0184995-.01468897.03855321zm-.71922018.68457796c-.84135415-.02421582-1.36484133-.19777476-1.36484133-1.00880872 0-.89432883.86885728-1.17412788 1.79323883-1.17412788.83736716 0 1.78071468.51970872 1.78071468 1.45045791 0 .56622721-.71994546 1.70884023-2.5327915 4.18576352-.09647789.08986312-.12639552.11204236-.16700731.06322597.09784079.0646192.30898066.15821207.60088119.15821207.08869256 0 .20395513-.04486112.31820294-.10232714v-.97142309h1.91929879v.73333333c0 .82852188-1.22475033 1.80708357-2.23750173 1.80708357-.88446904 0-1.59453407-.42074368-1.95419232-1.02603813-.35543688-.59818998-.08364531-1.17241067.42680032-1.62915001.75958398-1.04760486 1.34934854-1.91476091 1.71921948-2.48452307-.13589176.0011337-.21050811.00095562-.30202204-.00167833zm-.07218719-.35380298.02761369-.05484846c.06616244.10893595.01933709.07848603-.02761369.05484846z" transform="matrix(-1 0 0 1 11.5458 0)"/></g><g fill-rule="nonzero" transform="translate(2.6667 .9789)"><path d="m4.21520849 3.59417903c-.02661293.00592327-.05221701.01239526-.07613876.01934068.01781433-.01867843.08781249-.10212702.08781249-.35189652 0-.13598466-.00655204-.2316527-.01533342-.29891589-.24745139.21829211-.31662603.59883457-.13554714.89176142.00154814.00250439.00304161.00494125.00448155.00731209zm-.07613876.01934068c-.00871094.00252912-.01719881.00512103-.02543107.00777207.00274409-.00088368.00632929-.00257359.01052873-.00528974zm.70520733-.02766576c.01471296-.00797431.02322533-.02286243.02322533-.04790073 0 .0055455-.0049404.0184995-.01468897.03855321zm-.71922018.68457796c-.84135415-.02421582-1.36484133-.19777476-1.36484133-1.00880872 0-.89432883.86885728-1.17412788 1.79323883-1.17412788.83736716 0 1.78071468.51970872 1.78071468 1.45045791 0 .56622721-.71994546 1.70884023-2.5327915 4.18576352-.09647789.08986312-.12639552.11204236-.16700731.06322597.09784079.0646192.30898066.15821207.60088119.15821207.08869256 0 .20395513-.04486112.31820294-.10232714v-.97142309h1.91929879v.73333333c0 .82852188-1.22475033 1.80708357-2.23750173 1.80708357-.88446904 0-1.59453407-.42074368-1.95419232-1.02603813-.35543688-.59818998-.08364531-1.17241067.42680032-1.62915001.75958398-1.04760486 1.34934854-1.91476091 1.71921948-2.48452307-.13589176.0011337-.21050811.00095562-.30202204-.00167833zm-.07218719-.35380298.02761369-.05484846c.06616244.10893595.01933709.07848603-.02761369.05484846z"/><path d="m4.21520849 3.59417903c-.02661293.00592327-.05221701.01239526-.07613876.01934068.01781433-.01867843.08781249-.10212702.08781249-.35189652 0-.13598466-.00655204-.2316527-.01533342-.29891589-.24745139.21829211-.31662603.59883457-.13554714.89176142.00154814.00250439.00304161.00494125.00448155.00731209zm-.07613876.01934068c-.00871094.00252912-.01719881.00512103-.02543107.00777207.00274409-.00088368.00632929-.00257359.01052873-.00528974zm.70520733-.02766576c.01471296-.00797431.02322533-.02286243.02322533-.04790073 0 .0055455-.0049404.0184995-.01468897.03855321zm-.71922018.68457796c-.84135415-.02421582-1.36484133-.19777476-1.36484133-1.00880872 0-.89432883.86885728-1.17412788 1.79323883-1.17412788.83736716 0 1.78071468.51970872 1.78071468 1.45045791 0 .56622721-.71994546 1.70884023-2.5327915 4.18576352-.09647789.08986312-.12639552.11204236-.16700731.06322597.09784079.0646192.30898066.15821207.60088119.15821207.08869256 0 .20395513-.04486112.31820294-.10232714v-.97142309h1.91929879v.73333333c0 .82852188-1.22475033 1.80708357-2.23750173 1.80708357-.88446904 0-1.59453407-.42074368-1.95419232-1.02603813-.35543688-.59818998-.08364531-1.17241067.42680032-1.62915001.75958398-1.04760486 1.34934854-1.91476091 1.71921948-2.48452307-.13589176.0011337-.21050811.00095562-.30202204-.00167833zm-.07218719-.35380298.02761369-.05484846c.06616244.10893595.01933709.07848603-.02761369.05484846z" transform="matrix(-1 0 0 1 11.5458 0)"/></g><g transform="translate(10.403 3.713)"><path d="m14.0689448 12.9562622.1091907.0115096c.3442505.0545239.5009244.235522.4700214.5429942l-.8318873 1.930581-.2205638-2.0972729c.0440359-.3053921.2381791-.4308263.5824297-.3763023zm1.572342.0166261c.3442506-.0545239.5491877.0692006.6148114.3711736l-.1945895 2.093159-.8578616-1.9264671c-.0524908-.304053.0933891-.4833415.4376397-.5378655zm-2.8811334-.4709409c.3132672.1527907.4101764.371687.2907276.656689l-1.359985 1.6030035.402257-2.0701187c.1313997-.2791731.3537332-.3423644.6670004-.1895738zm4.9984907.1895397.4258936 2.0585903-1.3836216-1.5914752c-.1390937-.2754205-.0520069-.4895261.2612603-.6423167.3132672-.1527907.5454231-.0943901.6964677.1752016zm-6.2232593-1.0780319c.2549073.2377049.2835829.47537.0860269.7129953l-1.76923302 1.1353387.98992442-1.8620557c.2072805-.2285571.4383744-.2239832.6932817.0137217zm7.4742961-.0137749 1.0091576 1.8441205-1.7884662-1.1174034c-.2135411-.222719-.192858-.4529309.0620492-.6906358.2549073-.2377048.4939938-.2497319.7172594-.0360813zm-3.9988383-8.61944178c2.4963272 0 4.5200002 2.14903314 4.5200002 4.79999987 0 2.65096671-2.023673 4.79999991-4.5200002 4.79999991-2.4963271 0-4.5200001-2.1490332-4.5200001-4.79999991 0-2.65096673 2.023673-4.79999987 4.5200001-4.79999987zm-4.3977372 7.40130348c.1742709.301846.132207.5375102-.1261917.7069926l-2.02386687.5684562 1.49108184-1.4912669c.26504693-.1579672.48470593-.0860278.65897673.2158181zm9.2845319-.2158856 1.5042309 1.4684921-2.0370159-.5456813c-.2693271-.1505538-.3168552-.3767537-.1425844-.6785997.1742709-.301846.399394-.3832497.6753694-.2442111zm.3482503-1.65886685.0973344.01016817 1.8678486.96453138-2.1075497.07372818c-.3015765-.06523169-.4131623-.26765184-.3347575-.60726044.0784048-.33960861.269891-.48327498.5744586-.43099912zm-10.737365.01024406c.29965083-.07357256.48867865.05944546.5670835.39905406.0784048.3396086-.0307227.5526771-.32738239.6392055l-2.10163399-.0481041zm10.7979807-1.7167229 2.0682343.37627985-1.9939039.68669453c-.3074709.02579105-.4733629-.13515977-.4976759-.48285244-.024313-.34769268.1168021-.54106665.4233455-.58012194zm-10.761285.0000777c.30806805.01725163.44994555.19972378.42563251.54741646-.02431304.34769267-.19096735.51954531-.49996292.51555792l-1.9957383-.66046049zm12.3331449-1.87667487-1.7060097 1.23965031c-.2864953.1145599-.492196.00914399-.6171022-.31624773-.1249062-.32539171-.0464941-.55157425.2352361-.67854761zm-13.91445168.0246241 2.09730018.22030358c.2895631.10656819.3718915.32254815.2469854.64793986-.1249062.32539172-.33452338.44101021-.62885151.34685548zm12.78825878-2.04275693-1.2394386 1.70616349c-.2370722.19748485-.4652806.16079339-.684625-.11007439-.2193444-.27086777-.2146644-.5102108.0140401-.71802908zm-11.66921254.02049799 1.92657354.85762256c.2424594.19083228.2540169.42168231.0346725.69255009s-.4544302.31605223-.7052575.13555337zm10.03494554-1.58791915-.6864471 1.99398904c-.1689744.25816893-.3979386.28980238-.6868928.09490033s-.3544558-.42515523-.1965048-.69075955zm-8.4059463.01474926 1.5916469 1.38342412c.1760711.25338209.1196296.47752417-.1693245.67242621-.2889542.19490205-.5269786.16937972-.7140731-.076567zm6.4002053-1.01275946-.0734666 2.10755891c-.0861098.29629151-.2958207.3934854-.6291327.29158167-.3333121-.10190373-.4632711-.30294513-.3898771-.6031242zm-4.397821.0077116 1.1176253 1.78832755c.094296.29378873-.0252121.49163496-.3585242.59353869-.3333121.10190374-.5534739.00790502-.6604855-.28199615zm2.1983342-.34786095.5459341 2.03694818c.0042801.30852102-.1678506.46278153-.5163923.46278153-.3485418 0-.531601-.15426051-.5491777-.46278153z"/><path d="m6.74334003 10.8633997 1.39436245-.4541928c1.10416911 3.2107982 2.95959852 5.0771804 5.60162212 5.6897425l6.2441049 1.4477168h-6.4097371c-3.1968862 0-5.4803848-2.2969783-6.83035237-6.6832665zm1.40177863-.4314253-1.39436246.4541928c1.25978245 3.6633041 3.4906617 5.9073524 6.657304 6.6415491l.1656322-1.4477168c-2.4455975 0-4.24840755-1.8134522-5.42857374-5.6480251zm-.05843994 1.7714231c-.59459515-1.3198901-.88755717-2.2559405-.88755717-2.74141741h-.73333334l-.69985692.21903896.95227032 3.04262305zm-1.33724037.6024113c-.67509862-1.4985928-1.01698347-2.5909578-1.01698347-3.34382871v-4.79826147l2.38546058 7.62184558zm.80107997-.4026698c-.55094041-.8988074-.81582014-1.5622114-.81582014-1.930787h-.73333333l-.68105336.2719267.92393067 2.3140287zm-1.25044561.7664835c-.68096715-1.1109338-1.0320412-1.9902156-1.0320412-2.6972705v-3.81432609l2.33831736 5.85642819zm.80603476-.301662c-.67880926-1.0394577-1.02943878-1.7453347-1.02943878-1.9116959h-.73333334l-.65677034.3262368 1.14876825 2.3126661zm-1.22800772.8019403c-.85288174-1.3060143-1.26809773-2.1419147-1.26809773-2.7136362v-3.12475223l2.53887193 5.11118143zm.83926882-.3520268c-.40731457-.2079237-.54093272-.3504695-.54093272-.350556h-.73333333l-.53502859.5015199.94084771 1.0037098.53502858-.5015199zm-.6668367 1.3063077c-.84714904-.4324479-1.34076269-.959042-1.34076269-1.6568637v-1.8546265l5.0815432 5.421063zm4.80458343 2.3599121c-1.69489462-.6677263-3.1001032-1.6688071-4.22564874-3.0083315l-.98694378 1.069027 4.51829572 3.2188665zm-.5375975 1.3645879c-1.91985758-.7563535-3.52684613-1.9011838-4.81094261-3.4294015l-3.70968765-4.4149413 14.09204816 10.0392772zm1.9811055.7424512-4.12902702 1.2685525 17.10337672-12.58630259-1.3289344 2.69668849c-1.9580611 3.9733195-5.8573887 6.8428181-11.6454153 8.6210616zm-.4307311-1.4019921.6500158 1.2916372 11.2029847-8.2442291-1.0924465-.91480454c-1.7604104 3.57224434-5.3297393 6.19889844-10.760554 7.86739644zm11.451796-5.2504848-1.0848072-.9777661 5.0262325-6.73333829-1.2160431 4.0079819c-.3408084 1.12327743-1.2530629 2.34536929-2.7253822 3.70312249zm-.9942924-1.07819 1.0848072.9777661 2.5207836-3.37694063-1.2894058-.65158421c-.2502759.8248896-1.0185439 1.85409144-2.316185 3.05075874zm.9838035 1.6505802-.8840985-1.1610682 5.7678943-5.38091317-1.2907731 3.11960525c-.4620467 1.11669792-1.6619181 2.23606712-3.5930227 3.42237612zm-.7677076-1.2496944.8840986 1.1610682 3.2992566-3.07790201-1.1778646-.81659414c-.3154623.76242527-1.3150954 1.69499075-3.0054906 2.73342795zm2.0913599 1.5273598-4.2397263 1.0290603 7.7111383-4.95538016-.5986115 1.92421016c-.3060159.9836747-1.2948158 1.6191035-2.8728005 2.0021097zm-.3459429-1.4252841.5694262 1.3295711 2.3455404-1.5073059-.3964547-.616929-.7002316-.2178383c-.1148377.3691406-.6897313.7385824-1.8182803 1.0125021zm-9.1554046 7.8373489c-.0572903-.105211-.1301997-.2048006-.2190908-.2996977-.1079721-.0028541-.2020016-.0107178-.280885-.0238375l-.054869.3299044c.1920013-.0011545.376903-.0032647.5548448-.0063692zm3.545559-.5252572-.2136112-.2879968c-.107266.0233472-.2132902.0460159-.3179705.0679738l-.0876142.3413283c.0856533.021986.1698752.0431474.2526791.0634795.1519215-.0543757.2735282-.1158139.3665168-.1847848zm-6.4100879-.9572665c3.2859135.0697332 5.3110961-.0536635 5.5363475-.2207356l.2806934-.2081941.3385025.0868888c1.2906801.3312995 2.1771089.4421231 2.5876763.3571089.0163204-.0463128.0163204-.0463128.6876615.133408.171527 1.167879.171527 1.167879-.0806769 1.2025104-.0785218.0425923-.0785218.0425923-.1127553.0564107-.0529942.0203991-.0529942.0203991-.0947347.0342591-.1010596.0331722-.2803175.0846749-.5094404.14651-.5467743.1475622-1.2533237.3213562-1.957367.4774024-2.0719395.4592307-3.6802339.6852-4.5519814.5402127l-.3978459-.0661689-.1571857-.3714193c-.0407483-.0962854-.6641391-.4133097-1.7836376-.7292605l-5.53053931-1.5608581zm7.2875929.2578445-.746884-1.2548187 10.0656764-7.34333046-1.9846552 3.19694736c-1.1403616 1.8369317-3.5838341 3.6195467-7.3341372 5.4012018zm-.6293586-1.3247712.7468839 1.2548187 7.025777-5.1255972-1.0552441-.9792141c-.9585082 1.5439962-3.198887 3.1784459-6.7174168 4.8499926z" fill-rule="nonzero"/></g></g></g></g></g><rect height="32" mask="url(#b)" rx="2" width="43.335938"/></g></svg>