<svg height="32" viewBox="0 0 43 32" width="43" xmlns="http://www.w3.org/2000/svg" xmlns:xlink="http://www.w3.org/1999/xlink"><mask id="a" fill="#fff"><path d="m0 0h43.335938v32h-43.335938z" fill="#fff" fill-rule="evenodd"/></mask><mask id="b" fill="#fff"><path d="m0 0h42.666667v32h-42.666667z" fill="#fff" fill-rule="evenodd"/></mask><g fill="none" fill-rule="evenodd"><g fill-rule="evenodd" mask="url(#a)"><g mask="url(#b)" transform="translate(.3346)"><path d="m0 24h42.6666667v8h-42.6666667zm0-24h42.6666667v8h-42.6666667z" fill="#f50101"/><path d="m0 8h42.6666667v16h-42.6666667z" fill="#f7fcff"/><path d="m15.3531165 8.68428559c.099399 1.15646266-4.1683402-.4798054-4.1683402-.01676607s4.5718317 1.27604973 4.5642015 2.31260778c-.0076493 1.036558-5.4209969-.2957485-4.2070596.1703728 1.2139372.4661213 3.820321 1.582051 3.5240791 2.2772674-.6326531 1.4847013-4.8347448-1.0300277-5.18424301-.5342502-.564032.799632 3.10084431 2.6649003 3.06988961 2.8431483-.0597624.3417894-2.5031053-.5372343-3.06988961.1725435-.45884631-.1294188-.67090959-.747309-.81341913-.8292753 0 0-.30058816-3.8770535-.90176449-11.63116047.53979173 7.30081407.46483002 11.05620787-.22488514 11.26618137-1.03457274.3149603-3.90851274 1.2725706-3.9921394.7942986-.03112534-.178248 3.46041654-1.816104 2.89638454-2.615736-.415424-.589296-4.628992 1.500432-4.89783467.290376-1.19755241-.8632862 3.87831917-1.610288 3.87831917-2.493104 0-.88291196-4.64346094 1.0449205-4.08796168-.1840569.55549925-1.22897735 4.27295321-1.66899005 4.34229318-1.83921288.12679736-.31127512-4.13265067.48457959-4.13265067 0 0-.91692219 2.54956627-1.0973489 4.13265067-1.92251419.09354666-.941616-3.84042069.92701476-4.13265067.17218608s5.02820604-2.71034856 4.89783467-2.8626827c-.20589876-.2405851-4.49378638.84498005-3.78665627.27491419 1.37241877-1.10640047 4.05125562-2.61091563 4.66765034-3.01222617 0 0 .07424-.151416.15357866-.100032.05302045-.034256.10866489-.070144.16693334-.107664 0 .631136-.00438756.700368-.01316267.207696-.01316267-.739008 6.27947523 2.49466745 6.35096323 3.31441145.0831147.957648-3.8881908-.72195744-3.7947934.21965856.8072821.5001694 3.103392 1.46811314 4.0520872 1.89373859.4302921.19304754-3.1703667-.40861572-3.0943256-.1132069.193796.75287039 3.7012424.84635027 3.804911 2.05248716z" fill="#52ab0b" transform="translate(13.3333 8)"/></g></g><rect height="32" mask="url(#a)" rx="2" width="43.335938"/></g></svg>