<svg height="32" viewBox="0 0 43 32" width="43" xmlns="http://www.w3.org/2000/svg" xmlns:xlink="http://www.w3.org/1999/xlink"><defs><path id="a" d="m0 0h42.666667v32h-42.666667z"/><mask id="b" fill="#fff"><path d="m0 0h43.335938v32h-43.335938z" fill="#fff" fill-rule="evenodd"/></mask><mask id="c" fill="#fff"><path d="m0 0h42.666667v32h-42.666667z" fill="#fff" fill-rule="evenodd"/></mask><mask id="d" fill="#fff"><use fill="#fff" fill-rule="evenodd" xlink:href="#a"/></mask></defs><g fill="none" fill-rule="evenodd"><g fill-rule="evenodd" mask="url(#b)"><g mask="url(#c)" transform="translate(.3346)"><use fill="#e31d1c" xlink:href="#a"/><path d="m0 0h42.666667v16h-42.666667z" fill="#2e42a5" mask="url(#d)"/><g mask="url(#d)"><g transform="translate(5.3333)"><path d="m1.06460381 14.7375645c1.07258972.6676395 2.85162765 1.0014593 5.3371138 1.0014593s4.38787309-.3338198 5.70716069-1.0014593c-1.9491886-1.1330917-3.79519741-1.6996375-5.53802632-1.6996375-1.74282892 0-3.57824498.5665458-5.50624817 1.6996375z" fill="#000"/><g fill="#ffd83d" stroke="#000" stroke-width=".666667"><path d="m8.0870891 4.64350924c1.31594024-.40542849 2.766043-.78415444 3.8106545.12394329.5407267.47006252.8678534 1.07667841.9771539 1.82220921.1112993.75916452-.0076731 1.67046966-.37271 2.73327767h-11.53073224c-.66379219-1.08915297-.9366287-2.01330327-.85988448-2.76683519.07786746-.76456065.498372-1.37913644 1.28940353-1.82713295 1.38491232-.78433773 2.59128427-.47542275 3.66500892-.12182273.74646879.24687708 1.14434763.3745019 1.52211218.3745019.4244495 0 .94390439-.16712355 1.49899369-.3381412z"/><path d="m6.63358581 8.0234396c3.22348429 0 5.56795139.45197292 7.04234209 1.32837133l-1.7911612 4.78947937c-1.6983715-.5584235-3.44034735-.8376209-5.22592314-.8376209-1.78357392 0-3.55786227.2785517-5.32294332.8351082l-1.74244818-4.78827864c1.4745229-.8755375 3.81825835-1.32705936 7.04013375-1.32705936z"/><ellipse cx="6.498599" cy="4.226415" rx="1.229692" ry="1.460377"/><path d="m7.19195292-.33333333-.08174264 1.18020506.73012585-.1040126v1.61334573l-.7515331-.10645527.09679821 1.88735733h-1.37370484l.09511183-1.88583991-.75014548.10358539v-1.60941003l.73099658.0991574-.08305969-1.1779331z"/></g></g></g></g></g><rect height="32" mask="url(#b)" rx="2" width="43.335938"/></g></svg>