<svg height="32" viewBox="0 0 43 32" width="43" xmlns="http://www.w3.org/2000/svg" xmlns:xlink="http://www.w3.org/1999/xlink"><mask id="a" fill="#fff"><path d="m0 0h43.335938v32h-43.335938z" fill="#fff" fill-rule="evenodd"/></mask><mask id="b" fill="#fff"><path d="m0 0h42.666667v32h-42.666667z" fill="#fff" fill-rule="evenodd"/></mask><g fill="none" fill-rule="evenodd"><g fill-rule="evenodd" mask="url(#a)"><g mask="url(#b)" transform="translate(.3346)"><path d="m0 0h42.6666667v29.3333333c0 1.4727594-1.1939074 2.6666667-2.6666667 2.6666667h-37.33333333c-1.47275934 0-2.66666667-1.1939073-2.66666667-2.6666667z" fill="#feca00"/><path d="m2.666667 2.666667h8v26.666667h-8z" fill="#1f8a6e"/><path d="m10.666667 2.666667h8v26.666667h-8z" fill="#f56800"/><path d="m18.666667 2.666667h21.333333v26.666667h-21.333333z" fill="#b01d00"/><path d="m16 2.666667h2.666667v26.666667h-2.666667z" fill="#e8aa00"/><g fill="#feca00" transform="translate(18.6667 2.6667)"><path d="m4.13394783 5.56463467c-.07269267.44409476-.17960766 1.0014593-.32074498 1.67209362-.14113731.67063432-.22022323 2.54273132-.23725776 5.61629101.48766535.183899.73149803.3993452.73149803.6463385 0 .2469932-.0941781.4440961-.2825343.5913086l1.18449897 1.2968581c-.15245714-.137386-.09131055-.6715682.18343976-1.6025468.41212547-1.3964677 1.54365218-1.3623628 2.00723528-1.8156786s-.23476491.1354537-.6206905.1354537c-.38592558 0 0-.1632787-.25056339-.347233-.05011268-.0367908-.07015775-.0662699-.07464401-.0884093l-.00096011-.0074758-.0110658.0071419c-.02780837.0147658-.06804677.0328308-.12501411.0542031l-.09853507.0345401c-.56078249.1851137-.13425749-.1851136-.24659191-.3803717-.11233442-.1952582-.36046728.1952581-.76261014.3803717-.40214286.1851137.01700266-.1851136.18343976-.3803717.16643711-.1952582-.1664371 0-.5470132 0s0-.6711818.13488773-1.0515536c.13488773-.38037181-.13488773-.1186428-.13488773-.66760709 0-.5489643.7657163 0 .5470132-.17091127s-.5470132-.97028995-.5470132-1.25057971c0-.28028975.29357918-.58789999.5470132-.58789999.16895602 0 .36201281.1321366.57917038.3964098.28020158 0 .60169551-.02347735.9644818-.07043206.54417943-.07043206.4635831-.32597774.4635831-.73784589s.2935652 0 .75558528 0c.30801338 0 .60183825.06875741.88147461.20627222 0-.31193642.11116069-.46790463.33348208-.46790463s.3967903.15596821.52340671.46790463l.50165839-.46790463c.5249413.31193642.8819341.46790463 1.0709784.46790463s.3849527-.15596821.5877251-.46790463v.67350056c.4210361-.53923843 1.2348966-.87854899 2.4415813-1.01793169 1.8100271-.20907405 3.5450536 1.79799817 4.1878484 2.02890713.4285299.1539393.5076552.1539393.237376 0-.1582506-.22807493-.0987728-.34211239.1784334-.34211239.2772063 0 .4821198.11403746.6147405.34211239.0310456.46465193-.2333457.74048669-.7931739.82750426s-1.1356829-.23641241-1.7275642-.97028995c.2851408.41743244.2851408.5438974 0 .3793949-.2851409-.1645025-.5227057-.24337224-.7126947-.23660921.0535269-.48365282.0064233-.53124805-.1413109-.14278569-.1477342.38846235-.4694307.59717857-.9650896.62614866.1801022-.3071701.3116524-.58232856.3946505-.82547536.067037-.19638781-.1697912-.31560111-.3824931-.41590811l-.0084723-.00491671.0135204.05596147c.0211057.11072752.0261262.23946687.0043338.37413901l-.0215393.10192777c-.0896733.342209-.3825283.49804839-.878565.46751817 0 0-.1935469-.17670815.1124064-.65968466.2039689-.32198434-.0549437-.58648298-.7767379-.79349592 0 0 .034761.23583631 0 .53157367-.023174.19715825-.1785909.2206356-.4662506.07043206 0 0-.3792537-.3580538-.679445 0-.2001276.23870254-.1396107.52242749.1815506.85117485.0502523-.15773948.2162171-.28420444.4978944-.3793949s.5059864-.04759523.6729273.14278569c-.0855171.09075333-.2230182.25187432-.4125033.48336297-.1894852.23148864-.1448689.40317283.1338487.51505256.3556074-.43676251.5334111-.53724172.5334111-.30143763 0 .35370615.2028983.30143763.9357127.51505257.488543.14240995 1.286062.07120498 2.392557-.21361494 1.1139888.0772917 1.6709832.47028779 1.6709832 1.17898829 0 .9301694-.5732832 1.4465474-.716604 1.561108l-.0321741.0245312s.5560813 1.0767429.5560813 2.0183715-.4158094 1.6413905-.5560813 2.8229203c-.1033582.8706009.1092524 1.0541725.3301902 1.209002l.0943005.0665149c.0465083.0342969.0913808.0715921.1315906.1183631.254662.2962162-.254662.6456902-.5560813.978049-.3014193.3323589-.0278654.477981.1402719.8211443.1681374.3431634.2624077.7358874 0 .7358874-.1749384 0-.3892033-.0725083-.6427948-.2175249-.1034013.1450166-.2432954.2175249-.4196822.2175249s-.3189572-.0725083-.4277112-.2175249c-.004786.1450166-.1090059.2175249-.31266.2175249-.203654 0-.3369989-.0725083-.4000347-.2175249-.4025221.1450166-.7018318.2175249-.8979291.2175249s-.3141713-.0725083-.354222-.2175249c.0015744.1450166-.1088799.2175249-.3313628.2175249s-.3563001-.0725083-.4014516-.2175249c-.1352656.1450166-.2878172.2175249-.4576548.2175249s-.3073387-.0725083-.4125033-.2175249c.0035894.1450166-.0832186.2175249-.260424.2175249-.2658082 0-.2886673-.1675818-.2886673-.551826 0-.2561628.4730831-.4319044 1.4192494-.5272247.2899268-.8124964.222294-1.3965785-.2028983-1.7522462-.6377885-.5335016-.7041934-1.8152428-.9276838-1.8152428-.2234905 0-1.125198.1977823-1.6677716.3935306-.3617157.1304989-.9629122.3992376-1.80358949.8062162-.29195522.2185688-.46642413.4979423-.52340671.8381203s.19095293.5143573.7438065.5225377c-.14666312.4967746-.50575933.7866165-1.07728858.8695256.25847822.2077721-.01006492 1.1352088-.36545299 1.2166093-.23692539.054267-.4089326-.0015936-.51602162-.1675818-.16274209.1117212-.31674878.1675818-.46202008.1675818-.14527131 0-.32138134-.0725083-.52833011-.2175249-.05768889.1450166-.18633075.2175249-.38592559.2175249-.19959483 0-.28311596-.0725083-.25056339-.2175249-.04852764.0629574-.1966865.1354657-.44447659.2175249-.37168514.1230887-.16219158-.486682-.11233442-.7358874.04985716-.2492053.70435704-.4324999 1.10676666-.3431633.40240961.0893366.74433625-.2326002.83277039-.8103398.0589561-.3851597-.11153462-.8578606-.51147215-1.4181026l-.81955825-.4602921c-.38053478.4325637-.70352609.6488455-.96897393.6488455-.26544783 0-.70015034-.270007-1.30410753-.810021-.11566352.1074503-.20984162.1611755-.2825343.1611755-.10903901 0-.31042315-.212266-.21170597-.6809722.06581145-.3124709-.01327447-.5891031-.23725776-.8298967l.00627973.0084214.05394737.0689325c.1941797.2797885.10118754.5127844-.08060664.549674l-.0516329.0050865c-.2319916 0-.17973507.1484766-.27705001.3935306-.06487664.1633693.00629446.4321081.21351329.8062162.33958959 0 .50938438.0847113.50938438.2541338 0 .2541339-.2697584.2712925-.37383522.3613622-.10407683.0900696-.04711502.168761 0 .2226243.03141001.0359089.18106459.1395346.44896373.3108772h-.79802618l-.38633068.7407637-.40488625-.7407637h-.80844089c0-.0515472.11027474-.1306423.33082422-.2372853.22054949-.1066429.27356992-.1847182.15906129-.2342256-.20000083-.057008-.30000125-.1981256-.30000125-.4233528 0-.3378407.30000125-.2541338.30000125-.2541338s.31855538-.2321356.31855538-.8062162c0-.5740805 0-.3935306-.31855538-.3935306s0-.6321144.31855538-.6321144c.31855537 0 0-1.4732269-.31855538-1.4732269s-.48988551-.4394267-.48988551-.9416286c0-.3348013.2694803-.5502475.80844089-.6463385v-4.33623311c0-1.97138287.56609404-2.95543337 1.69828212-2.95215152zm12.02765917 12.30953603c-.3732729.3661129-.4414052.5894041-.204397.6698735.3555124.120704.9648395.0653285.660176.3629416-.3046636.2976131-.5624852.6996835-.5624852 1.065894s.0087068.6753379.1067062.5207742c.0489997-.0772818.2368326-.1578813.4499381-.2439574l.2605895-.1060582c.1290923-.0544816.2509299-.1112457.3409838-.1707586.3001797-.1983762.2431776-.4156825.2431776-.864932 0-.2994996-.431563-.7107586-1.294689-1.2337771zm-4.2054256-8.73865287c-.0055651.85348286-.0518506 1.31479947-.1388564 1.38394977-.1305088.1037255-.2014872.2799515-.1007436.4050466s.147347.4472978 0 .4472978c-.1473471 0-.3747357.1799828-.1873679.4552505.1873679.2752678.1815484.412365.5278069.412365.3462584 0 2.2643939.0501063 2.8251141-.1492457.5607203-.199352 1.0986396.0040983 1.8720567-.0976269.7734171-.1017251 1.8455829-.6629942 1.7040076-1.0680407-.1415753-.4050466-.3228852-.9195253-1.7040076-.5768816s-1.8920909.5307271-2.4143168.2653636c-.5222259-.2653636-1.2160307-.4226594-1.3090468-.4226594s-.0614384.6707482-.3294202.4999395-.5932997-.3478153-.4850194-.6438184c.1082803-.29600307.1976235-.35855061.1976235-.55853687 0-.13332417-.1526101-.2507919-.4578301-.3524032z"/><path d="m.22827097 26.4911288c0-.1561323 0-.3165935 0-.4813837 0-.2471851-.44476382-.8693497.29596093-1.0118768.74072474-.1425271 1.28637187-.4664325 1.45228105-.7722218.16590919-.3057894 0 .6606883 0 1.1327411s-.52877233 1.3919309-.90346001 1.1327412c-.24979178-.1727932-.53138578-.1727932-.84478197 0zm20.88591103 0c0-.1561323 0-.3165935 0-.4813837 0-.2471851.4447638-.8693497-.295961-1.0118768-.7407247-.1425271-1.2863718-.4664325-1.452281-.7722218-.1659092-.3057894 0 .6606883 0 1.1327411s.5287723 1.3919309.90346 1.1327412c.2497918-.1727932.5313858-.1727932.844782 0zm-20.88591103-26.32803046v.48138361c0 .2471852-.44476382.86934978.29596093 1.01187687.74072474.14252709 1.28637187.46643245 1.45228105.77222181.16590919.30578936 0-.66068836 0-1.13274114s-.52877233-1.39193092-.90346001-1.13274115c-.24979178.17279318-.53138578.17279318-.84478197 0zm20.88591103 0v.48138361c0 .2471852.4447638.86934978-.295961 1.01187687-.7407247.14252709-1.2863718.46643245-1.452281.77222181s0-.66068836 0-1.13274114.5287723-1.39193092.90346-1.13274115c.2497918.17279318.5313858.17279318.844782 0z"/></g></g></g><rect height="32" mask="url(#a)" rx="2" width="43.335938"/></g></svg>