<svg height="32" viewBox="0 0 43 32" width="43" xmlns="http://www.w3.org/2000/svg" xmlns:xlink="http://www.w3.org/1999/xlink"><mask id="a" fill="#fff"><path d="m0 0h43.335938v32h-43.335938z" fill="#fff" fill-rule="evenodd"/></mask><mask id="b" fill="#fff"><path d="m0 0h42.666667v32h-42.666667z" fill="#fff" fill-rule="evenodd"/></mask><g fill="none" fill-rule="evenodd"><g fill-rule="evenodd" mask="url(#a)"><g mask="url(#b)" transform="translate(.3346)"><g transform="translate(-2.6667)"><path d="m2.66666667 0h42.66666663v32h-42.66666663z" fill="#f7fcff"/><g fill="none"><g fill="#e31d1c"><path d="m2.702878 7.333333h42.666667v4h-42.666667z"/><path d="m2.666667 0h42.666667v4h-42.666667z"/><path d="m2.588172 14.666667h42.666667v4h-42.666667z"/><path d="m2.815552 21.866659h42.666667v4h-42.666667z"/><path d="m2.801963 28.666667h42.666667v4h-42.666667z"/></g><path d="m2.66666667 0h21.33333333v18.6666667h-21.33333333z" fill="#3d58db"/><path d="m13.5099605 12.284114-3.8951575 2.7017557 1.2446463-4.6274648-2.8594493-2.95602808 3.8718545-.15983473 1.638106-4.57587542 1.6381061 4.57587542h3.865267l-2.8528618 3.11586281 1.4287586 4.3543404z" fill="#f7fcff"/></g></g></g></g><rect height="32" mask="url(#a)" rx="2" width="43.335938"/></g></svg>