<svg height="32" viewBox="0 0 43 32" width="43" xmlns="http://www.w3.org/2000/svg" xmlns:xlink="http://www.w3.org/1999/xlink"><mask id="a" fill="#fff"><path d="m0 0h43.335938v32h-43.335938z" fill="#fff" fill-rule="evenodd"/></mask><mask id="b" fill="#fff"><path d="m0 0h42.666667v32h-42.666667z" fill="#fff" fill-rule="evenodd"/></mask><g fill="none" fill-rule="evenodd"><g fill-rule="evenodd" mask="url(#a)"><g mask="url(#b)" transform="translate(.3346)"><path d="m0 21.3333333h42.6666667v10.6666667h-42.6666667z" fill="#55ba07"/><path d="m0 10.6666667h42.6666667v10.6666666h-42.6666667z" fill="#f7fcff"/><path d="m0 0h42.6666667v10.6666667h-42.6666667z" fill="#3d58db"/><path d="m6.49998983 1.77778456c.35402868 0 .6564945.22076689.77724051.53214373l.02624916.00573954c1.07758767.24844562 1.85459142.98932643 1.85459142 2.18699401 0 .87801096-.4175903 1.94534702-1.06506376 2.67793702l3.24458074 3.18310924.8004314-.2635542 1.195314 1.8128855c-2.0141543.9468626-4.26596504 1.4202939-6.75543227 1.4202939s-4.6821009-.4734313-6.57790103-1.4202939l1.01754573-1.5493313.82176358.2693875 3.01073343-3.39676141c-.67606676-.73341436-1.11536699-1.83312728-1.11536699-2.73367235 0-1.25024811.84672609-2.00272092 1.99821534-2.2168657.12659434-.29873598.42240707-.50801158.76709874-.50801158zm.54906195 10.29319104-1.01456311.3321928.1678563.2594784h1.38500204zm-2.06895272.0043069-.8197058.2188143.13260498.2506968 1.15879354.1068901zm3.95107343-.0764619-.89328356.2933465.17378153.2933465 1.18114437-.1313333zm-5.69923911-.1748501-.81738071.1779264.12405466.2082987 1.08379072.2136684zm7.38312742-.1519731-.7546034.4528427.1434804.219989.9946124-.219989zm-3.86504525-.0625343h-1.37105151l.4446167.5191806 1.05641469-.2793351zm-3.06439012-.178374.33691265.6061582.74065283-.2255824-.20603274-.271672zm4.89333383.0821673-1.09294106.1145531.32453719.3975238.87858301-.3045613zm3.32442484-.2059495-.3906896.3865048v.2159058l.6712752-.2159058zm-1.6816381.0064884-.90378398.1221601.33083743.406753.79300475-.406753zm-8.20433325-.2733501.29708617.6936391.73802772-.2013069-.1463305-.2788876zm9.53353315-.1468831-.797805.186037.479118.4572055.4661425-.4572055zm-10.21538376.1682499-.3381127.4699586h.65807472zm3.26619582-6.55386246c0 .97366438.47797627 1.88757188 1.06453794 2.35906935l.00005029-3.87987771c-.69668825.18717727-1.06458823.66878668-1.06458823 1.52080836zm2.73266801-1.5032483-.0007768 3.83625986c.57030496-.47798432 1.02868952-1.37489127 1.02868952-2.33051155 0-.82720307-.36193018-1.30658711-1.02791272-1.50574831z" fill="#1d1d1d" transform="translate(14.6667 8)"/></g></g><rect height="32" mask="url(#a)" rx="2" width="43.335938"/></g></svg>