<svg height="32" viewBox="0 0 43 32" width="43" xmlns="http://www.w3.org/2000/svg" xmlns:xlink="http://www.w3.org/1999/xlink"><mask id="a" fill="#fff"><path d="m0 0h43.335938v32h-43.335938z" fill="#fff" fill-rule="evenodd"/></mask><mask id="b" fill="#fff"><path d="m0 0h42.666667v32h-42.666667z" fill="#fff" fill-rule="evenodd"/></mask><g fill="none" fill-rule="evenodd"><g fill-rule="evenodd" mask="url(#a)"><g mask="url(#b)" transform="translate(.3346)"><path d="m2.66666667 24h37.33333333c1.4727593 0 2.6666667 1.1939073 2.6666667 2.6666667v2.6666666c0 1.4727594-1.1939074 2.6666667-2.6666667 2.6666667h-37.33333333c-1.47275934 0-2.66666667-1.1939073-2.66666667-2.6666667v-2.6666666c0-1.4727594 1.19390733-2.6666667 2.66666667-2.6666667z" fill="#55ba07"/><path d="m0 8h42.6666667v16h-42.6666667z" fill="#1d1d1d"/><path d="m2.66666667 0h37.33333333c1.4727593-0 2.6666667 1.19390733 2.6666667 2.66666667v5.33333333h-42.6666667v-5.33333333c0-1.47275934 1.19390733-2.66666667 2.66666667-2.66666667z" fill="#e11c1b"/><path d="m7.30319555 2.58686312c1.72145478 0 3.96355625.29129784 4.64037755 2.95464059-.809215-.98114653-2.35298884-1.68423809-4.23784375-1.45842162-1.88485492.22581647-2.95943031 2.29136837-2.95943031 4.33205155-.02560978 1.92856956.59430678 3.17886316 2.98375102 3.67273046s3.06571684-.8684846 4.06632214-1.5864511c-.1072769.8769664-.6906388 3.4511706-4.41835091 3.4511706-2.98167601-.0600274-5.32467656-2.4867486-5.32467656-5.71429339 0-3.70468457 2.65812951-5.67407708 5.24985082-5.65142709zm6.67950655 2.7847535 1.1471197 1.29625991 1.6234212-.34260301-1.1627661 1.56936047 1.313449 1.53573507-1.9438006-.40021335-1.3397123 1.42566109.2751902-2.07193305-1.9767687-.77351438 1.7652127-.55545361z" fill="#fff" transform="translate(13.3333 8)"/></g></g><rect height="32" mask="url(#a)" rx="2" width="43.335938"/></g></svg>