<svg height="32" viewBox="0 0 43 32" width="43" xmlns="http://www.w3.org/2000/svg" xmlns:xlink="http://www.w3.org/1999/xlink"><mask id="a" fill="#fff"><path d="m0 0h43.335938v32h-43.335938z" fill="#fff" fill-rule="evenodd"/></mask><mask id="b" fill="#fff"><path d="m0 0h42.666667v32h-42.666667z" fill="#fff" fill-rule="evenodd"/></mask><g fill="none" fill-rule="evenodd"><g fill-rule="evenodd" mask="url(#a)"><g mask="url(#b)" transform="translate(.3346)"><path d="m0 0h42.6666667v29.3333333c0 1.4727594-1.1939074 2.6666667-2.6666667 2.6666667h-37.33333333c-1.47275934 0-2.66666667-1.1939073-2.66666667-2.6666667z" fill="#c51918"/><path d="m0 0h42.6666667v32h-42.6666667z" fill="#e31d1c"/><g fill="#579d20" fill-rule="nonzero" transform="translate(8 3.3333)"><path d="m13.5543981.26745509 8.4214731 22.56741711-8.4738458-5.0735432-8.44183412 5.0735432 8.12877912-22.56741711zm-.0294586 3.84408977-.9028227 3.51780697-2.70647954 7.56792247-1.54054088 3.7261919 3.33245752-2.4170701 1.7925245-1.0773074 1.8218912 1.0908204 3.4117302 2.4035571-1.5803392-3.6513866-2.6915351-7.5419677z"/><path d="m26.1552039 7.6485819-8.2610103 6.9822531-4.3495392 3.0985715-4.66126327-3.0985715-8.36970521-6.9822531zm-5.3809406 2.376929h-14.96428311l3.17014313 1.9399486 4.54425958 3.2196565 4.528587-3.4359503z"/></g></g></g><rect height="32" mask="url(#a)" rx="2" width="43.335938"/></g></svg>