<svg height="32" viewBox="0 0 43 32" width="43" xmlns="http://www.w3.org/2000/svg" xmlns:xlink="http://www.w3.org/1999/xlink"><defs><path id="a" d="m0 0h14.08v10.1851852c-2.3885233.7194219-4.73518999 1.6694184-7.04 2.8499894-1.70136176-1.2621388-4.04802843-2.2121353-7.04-2.8499894z"/><mask id="b" fill="#fff"><path d="m0 0h43.335938v32h-43.335938z" fill="#fff" fill-rule="evenodd"/></mask><mask id="c" fill="#fff"><path d="m0 0h42.666667v32h-42.666667z" fill="#fff" fill-rule="evenodd"/></mask><mask id="d" fill="#fff"><use fill="#fff" fill-rule="evenodd" xlink:href="#a"/></mask></defs><g fill="none" fill-rule="evenodd"><g fill-rule="evenodd" mask="url(#b)"><g mask="url(#c)" transform="translate(.3346)"><path d="m29.3333333 0h13.3333334v32h-13.3333334z" fill="#d9071e"/><path d="m0 0h16v32h-16z" fill="#3d58db"/><path d="m13.3333333 0h16v32h-16z" fill="#fbcd17"/><g transform="translate(5.3333 2.6667)"><path d="m3.36871678 10.0130682-1.40410023-.76713919 4.6540759-8.5183875 1.40410023.7671392zm12.13171362-.20482565 1.4041002-.76713921-4.6540759-8.5183875-1.4041002.7671392z" fill="#fd1900" fill-rule="nonzero" transform="translate(6.72 14.4444)"/><path d="m15.7519011 18.6268551.7004136.1627086c.712955 1.8592426 2.1175796 3.5214663 4.2138736 4.9866712-2.2344868.5963248-3.6391113 1.4931979-4.2138736 2.6906193 0-.9579371-1.4173514-1.8548102-4.2520543-2.6906193.9614099-.6259781 2.1452902-2.342438 3.5516407-5.1493798zm.410389-17.49234873c2.2061523 0 2.4633344 1.04242439 2.4633344 1.87339444 0 .83097006-1.2707376 2.62078856-1.2707376 3.30544083s.5158815 2.01133068 1.2707376 2.01133068c.445394 0 1.961531-.52517636 4.548411-1.57552908l.0013362-2.20471887c.2396135-1.76751693.949563-2.76802737 2.1298486-3.00153135 1.4214737.51162551 2.1322105 1.51213596 2.1322105 3.00153135v19.91721993c-.9454445-1.217593-1.6561814-2.0921186-2.1322105-2.6235769-.7140437-.7971874-2.1298486-2.94002-2.1298486-4.5842749l-.001-7.40228613h-13.33699997l.0000591 7.40228613c0 1.5727656-1.29536774 3.6016967-2.0329067 4.4728143l-.09694183.1114606c-.47602914.5314583-1.18676599 1.4059839-2.13221057 2.6235769v-19.91721993c0-1.48939539.71073686-2.48990584 2.13221057-3.00153135 1.18028553.23350398 1.89023504 1.23401442 2.12984853 3.00153135l-.0000591 2.588082.04845012.04091609c1.44782575 1.18962486 2.61830725 1.57337481 3.51144445 1.15124986.9356675-.44222613 1.5650935-1.29754257 1.8882781-2.56594931-.0874975-1.27990143-.3232689-1.91985214-.707314-1.91985214-.5760677 0-.6220925-2.7043645 1.5840597-2.7043645zm-4.1942758 16.64327143c.9720212 0 1.76.7461921 1.76 1.6666666 0 .9204746-.7879788 1.6666667-1.76 1.6666667-.9720211 0-1.76-.7461921-1.76-1.6666667 0-.9204745.7879789-1.6666666 1.76-1.6666666zm8.565319 0c.9720212 0 1.76.7461921 1.76 1.6666666 0 .9204746-.7879788 1.6666667-1.76 1.6666667-.9720211 0-1.76-.7461921-1.76-1.6666667 0-.9204745.7879789-1.6666666 1.76-1.6666666z" fill="#a77b3b"/><path d="m28.1866552 11.2101948 1.2239017.5290012-4.9860962 11.5358759-1.2239017-.5290012z" fill="#fdff00" fill-rule="nonzero"/><g transform="translate(9.3867 7.7778)"><use fill="#e1e5e8" opacity=".3" xlink:href="#a"/><path d="m0 6.666667h14.08v6.666667h-14.08z" fill="#3d58db" mask="url(#d)"/><path d="m0 0h14.08v6.666667h-14.08z" fill="#fd1900" mask="url(#d)"/><g fill="#fdff00"><path d="m6.74555237 3.11004234-.88.61004234.11789764-1.02670901-.99789764-.41666666.99789764-.41666667-.11789764-1.02670901.88.61004234.88-.61004234-.11789765 1.02670901.99789765.41666667-.99789765.41666666.11789765 1.02670901z" mask="url(#d)" transform="matrix(.8660254 .5 -.5 .8660254 2.042089 -3.06778)"/><path d="m4.41335611 1.1178019c-1.91103389 1.16266366-2.54804519 2.16129976-1.91103389 2.99590831.63701129.83460854 1.35644309 1.30533146 2.15829538 1.41216874-1.95484518 2.93271421-1.21196337 5.23679725 2.22864543 6.91224905 3.68356237-1.6174149 4.55674007-3.92149787 2.61953319-6.91224905 1.13389148-.25085209 1.81434828-.82748862 2.04137048-1.72990959.2270221-.90242097-.5140308-1.87115341-2.22315889-2.90619732 1.06634569 1.54559988 1.47779789 2.51433232 1.23435669 2.90619732-.3651618.58779748-2.32130751 1.18621712-3.67210147 1.18621712-1.35079395 0-3.43666659-.37928005-3.77329825-1.40639583-.2244211-.68474386.20804267-1.50407344 1.29739133-2.45798875z" mask="url(#d)"/><path d="m1.76 5.55555556 1.76 1.11111111-1.76 1.11111111-1.76-1.11111111z" mask="url(#d)"/><path d="m12.32 5.55555556 1.76 1.11111111-1.76 1.11111111-1.76-1.11111111z" mask="url(#d)"/><circle cx="2.506667" cy="10.222222" mask="url(#d)" r="1.333333"/><path d="m13.1100495 10.038191c0-.58910372-.5253192-1.06666665-1.1733333-1.06666665s-1.1733333.47756293-1.1733333 1.06666665c0 .3201838.540444-.28455698 1.1733333-.31241942.5315589-.02340145 1.1733333.58133932 1.1733333.31241942z" mask="url(#d)" transform="matrix(.62932039 -.77714596 .77714596 .62932039 -2.998218 12.817104)"/></g></g><path d="m7.41014861 16.2046882c.19320747 1.3482294-.09489634 2.1630773-.8643114 2.4445435-.76941506.2814663-1.72513723-.0758138-2.8671665-1.0718402h1.20897009v-.4631993l.66653398.4631993v-.4631993h.85341326zm-1.74590815-2.3186601c.19320746 1.3482294-.09489634 2.1630773-.86431141 2.4445435-.76941506.2814663-1.72513723-.0758138-2.8671665-1.0718402h1.2089701v-.4631993l.66653397.4631993v-.4631993h.85341327zm-.95056706-2.5534259c.21390607 1.298513-.12028078 2.1288616-1.00256057 2.4910459-.8822798.3621842-1.79191891-.0105966-2.72891734-1.1183426h1.2089701v-.4631994l.66653397.4631994v-.4631994h.85341327z" fill="#048f02"/><path d="m2.74578938.33131514-.00090241.794.76378394.00011642v1.33333334l-.76378394-.00044976.00090241 2.3266245h-1.33333333l-.00056908-2.3266245-.62699999.00044976v-1.33333334l.62699999-.00011642.00056908-.794z" fill="#fdff00" fill-rule="nonzero" transform="translate(10.56)"/><path d="m14.8774769 1.84606678-3.0881917.79553592 3.0881917.97583681z" fill="#db4400"/></g></g></g><rect height="32" mask="url(#b)" rx="2" width="43.335938"/></g></svg>