<svg xmlns="http://www.w3.org/2000/svg" width="512" height="512" viewBox="0 0 512 512"><mask id="a" fill="#fff"><path fill-rule="evenodd" d="M3.991 5.148Q31.28 0 46.06 0q13.266 0 42.067 5.148c0 32.613 9.18 52.579 0 74.853-9.18 22.275-31.614 11.568-41.768 32.883-12.977-20.218-30.502-9.09-42.367-37.879-11.865-28.79 7.214-42.05 0-69.857"/></mask><mask id="b" fill="#fff"><path fill-rule="evenodd" d="M3.991 5.148Q31.28 0 46.06 0q13.266 0 42.067 5.148c0 32.613 9.18 52.579 0 74.853-9.18 22.275-31.614 11.568-41.768 32.883-12.977-20.218-30.502-9.09-42.367-37.879-11.865-28.79 7.214-42.05 0-69.857"/></mask><g fill="none" fill-rule="evenodd"><path fill="#d3ae3b" fill-rule="nonzero" d="M0 0h512v512H0z"/><path fill="#c40308" fill-rule="nonzero" d="M25.6 25.6h460.8v460.8H25.6z"/><g transform="translate(113 89)"><ellipse cx="249.437" cy="252.947" fill="#1e5e91" rx="17.989" ry="18.146"/><g fill="#f6c540" fill-rule="nonzero"><path d="M245.773 41.42q66.597 93.69 20.13 147.677-46.465 53.988-80.595 37.708l19.052 17.08-5.394 4.666h15.874l-5.837 3.902 4.298 1.882 4.548 1.992q-12.263 9.015 0 9.015c4.059 0 8.623-.25 13.18-.242 1.277.002-5.65-13.949-4.385-13.895 2.381.103 8.894 10.171 12.166 12.36 1.725 1.153 12.7-4.14 14.17-3.397 3.585 1.808 1.511 5.944.962 9.205-.21 1.244 15.36-10.017 15.992-9.205 1.286 1.652 4.707 3.875-12.512 17.143 0 10.172 1.523 12.463-3.046 12.463-5.534 0-18.937 9.777-27.732 0q-8.794-9.777-22.284-24.432v7.203l-15.983-16.218-3.07 9.015-21.506-24.696-5.81 3.239q19.797 54.616 30.386 54.997c10.59.38-32.488 20.668-42.377 34.309q-2.082 2.872-3.499-4.452-1.42 7.325-3.501 4.452c-9.889-13.641-52.966-33.93-42.377-34.31q10.59-.38 30.386-54.996l-5.81-3.24-21.507 24.697-3.07-9.015-15.982 16.218v-7.203q-13.49 14.655-22.284 24.432c-8.795 9.777-22.198 0-27.732 0s-7.385-7.74 0-17.23c7.386-9.49 24.264-7.202 36.527-7.202q12.263 0 0-9.015l4.548-1.992 4.298-1.882-5.837-3.902h15.874l-5.394-4.666 19.052-17.08q-34.13 16.28-80.595-37.708C-27.368 135.11-5.171 103.88 39.227 41.42q9.956 55.956 46.807 93.61c0 4.54-10.037 12.747-13.277 18.635-3.24 5.887 7.883 9.242 13.277 9.242s5.41 17.425 10.589 9.668q5.178-7.755-5.179-24.798l16.396-17.289 5.545-11.176h-5.545v-11.506l-3.885 3.19q-4.263-10.288-12.51-10.288c-8.248 0-9.1-1.568-10.805-4.705h10.804c5.41 0-.864-7.167-5.41-10.9s-14.335 3.733-14.335-3.209c0-6.941 8.94-3.925 14.335-7.808 5.394-3.883 13.658 0 21.806 0h13.36q4.823 0-7.815 7.808l7.814 6.942 11.621 11.872-5.811 3.448L139 115.781q-4.071 6.615 0 6.616 2.294 0 3.515 2.57c.784-1.713 1.956-2.57 3.485-2.57q4.071 0 0-6.616l11.991-11.625-5.811-3.448 11.62-11.872 7.815-6.942q-12.638-7.808-7.814-7.808h13.359c8.148 0 16.412-3.883 21.806 0s14.335.867 14.335 7.808c0 6.942-9.79-.524-14.335 3.209s-10.82 10.9-5.41 10.9h10.804q-2.557 4.705-10.804 4.705c-8.247 0-9.67 3.43-12.511 10.288l-3.885-3.19v11.506h-5.545l5.545 11.176 16.396 17.29q-10.357 17.041-5.179 24.797c5.179 7.757 5.195-9.668 10.59-9.668 5.393 0 16.516-3.355 13.276-9.242s-13.277-14.095-13.277-18.636q36.851-37.653 46.807-93.61"/><path d="m62.403 301.762-20.99-36.788q-27.444-63.26-27.444-70.94c0-7.68-11.048-30.424-11.048-23.822v23.823l46.304 104.284v8.217h6.236zm168.111-49.526 3.194-10.597 38.998 11.746-3.194 10.596z"/><path d="m251.286 232.943 10.546 3.45-10.303 33.044-10.546-3.45zm7.554-11.29 2.267.516-.94 3.674 4.06 1.003-.512 2.225-4.106-1.016-1.033 4.127-2.266-.516 1.05-4.168-4.119-.998.512-2.225 4.165 1.01zM146.372 18.621q4.317 1.3 7.828 2.95l.092-.865c18.513 1.69 28.12 9.437 27.09 23.058-.852 11.273-6.56 17.18-16.076 17.03l-.004 8.423q-15.498 5.947-23.248 5.947c-7.75 0-12.915-1.982-23.248-5.947v-8.565c-7.838-.968-12.518-6.764-13.283-16.888-1.03-13.62 8.577-21.368 27.09-23.058l.083.915q3.551-1.68 7.933-3l1.126 3.975h3.472zm18.875 11.202.202.307c4.826 6.479 4.876 14.744-.14 24.46l-.024.035.316-.593c5.851.085 8.592-3.295 9.156-10.753.483-6.394-2.492-10.859-9.51-13.456m-43.427-.045-1.017.379c-6.405 2.638-9.119 6.994-8.656 13.122.484 6.397 2.57 9.793 6.844 10.577l2.04-.615-.365-.774c-4.034-8.974-3.569-16.63 1.154-22.689m24.518-4.047-.02 23.776q5.935.704 14.804 3.173l-1.823-1.007c6.632-12.618 2.79-20.716-12.961-25.942m-18.742 25.74c4.823-1.19 8.843-1.904 12.082-2.149V26.067c-14.844 5.207-18.43 13.168-12.082 25.404"/></g><ellipse cx="142.054" cy="18.18" fill="#3d58db" rx="17.989" ry="17.984"/><g fill-rule="nonzero"><path fill="#f6c540" d="m140.81 1.303 2.324-.047-.023 3.792 4.182-.009.042 2.283-4.23.007-.004 4.254-2.324.047.011-4.298-4.238.028-.042-2.282 4.286-.027z"/><path fill="#1e5e91" d="M98.88 141.802q27.288-5.148 42.067-5.148 13.266 0 42.067 5.148c0 32.613 9.18 52.579 0 74.853-9.18 22.275-31.614 11.568-41.768 32.883-12.976-20.218-30.501-9.09-42.367-37.879-11.865-28.79 7.214-42.05 0-69.857"/><path fill="#5eaa22" d="M3.991 73.196h84.135v40.83H3.991z" mask="url(#a)" transform="translate(94.888 136.654)"/><path fill="#f6c540" d="M45.76 13.594q4.336 7.625 0 18.476c-4.336 10.85 7.235 5.45 18.032 5.45s9.353-1.894 19.448 13.544c2.69 4.114 2.566 6.82.935 8.434.143 4.17-4.404 7.627-12.794 9.84l-1.104-4.393c4.434-1.17 7.153-2.288 8.42-3.524-6.322.38-14.905-2.75-14.905-6.77 0-1.925-2.126-3.095-5.416-3.772l-.02.96c.057 0 .5-.435.587-.71.019.166.079.546.208 1.114.09.396.506 2.046.547 2.213.579 2.378.872 4.246.872 6.296 0 5.726-4.877 9.09-13.7 10.387l-.629-4.49c6.911-1.016 9.901-3.079 9.901-5.897 0-1.61-.241-3.148-.74-5.198-.03-.121-.46-1.823-.563-2.28-.206-.903-.31-1.581-.31-2.229l.12-.696c-5.659-.53-13.016-.237-19.282.12-1.2 10.728-6.745 17.586-16.458 20.17l-1.113-4.39c7.605-2.024 11.935-7.065 13.112-15.497-2.935.167-5.346.312-6.86.312-4.394 0-3.979-3.326-1.85-7.731l.903.043c-8.983 0-11.31-9.157-8.013-25.721l4.339.906C16.62 32.664 18.189 38.84 23.1 38.84l-.017 2.77c1.65-3.05 3.87-6.441 5.783-9.54 5.197-8.418 3.215-4.02 0-10.85q-3.215-6.831 16.893-7.626m31.345 6.568-.678 4.483c-9.732-1.544-13.858-.415-13.858 2.25 0 2.93 4.347 4.773 14.18 4.692l.337-.003.323.1c7.55 2.349 7.55 7.133.092 9.821l-1.47-4.28q.952-.344 1.616-.658-.52-.217-1.21-.442c-11.83.043-18.296-2.762-18.296-9.23 0-6.796 6.815-8.66 18.964-6.733" mask="url(#b)" transform="translate(94.888 136.654)"/></g></g></g></svg>