<svg height="32" viewBox="0 0 43 32" width="43" xmlns="http://www.w3.org/2000/svg" xmlns:xlink="http://www.w3.org/1999/xlink"><defs><path id="a" d="m5.33333333 5.33333333h31.99999997v21.33333337h-31.99999997z"/><path id="b" d="m.24615385.37837838c1.01128121-.19084075 1.79076839-.28626112 2.33846153-.28626112.4916231 0 1.27111028.09542037 2.33846154.28626112 0 1.81340372.51030483 2.92360225 0 4.16216216s-1.75738112.64319589-2.32181958 1.8284187c-.72134946-1.12421051-1.69553742-.50539237-2.35510349-2.10622397-.65956608-1.6008316.40098207-2.33814499 0-3.88435689z"/><mask id="c" fill="#fff"><path d="m0 0h43.335938v32h-43.335938z" fill="#fff" fill-rule="evenodd"/></mask><mask id="d" fill="#fff"><path d="m0 0h42.666667v32h-42.666667z" fill="#fff" fill-rule="evenodd"/></mask><mask id="e" fill="#fff"><use fill="#fff" fill-rule="evenodd" xlink:href="#a"/></mask><mask id="f" fill="#fff"><use fill="#fff" fill-rule="evenodd" xlink:href="#b"/></mask></defs><g fill="none" fill-rule="evenodd"><g fill-rule="evenodd" mask="url(#c)"><g mask="url(#d)" transform="translate(.3346)"><path d="m0 0h42.6666667v29.3333333c0 1.4727594-1.1939074 2.6666667-2.6666667 2.6666667h-37.33333333c-1.47275934 0-2.66666667-1.1939073-2.66666667-2.6666667z" fill="#e8aa00"/><use fill="#c51918" xlink:href="#a"/><g mask="url(#e)"><g transform="translate(13.0667 5.8667)"><ellipse cx="13.907692" cy="14.126126" fill="#1e5e91" fill-rule="evenodd" rx="1" ry="1.009009"/><g fill="#f6c540"><path d="m13.7040374 2.36429492c2.467998 3.47304771 2.8410026 6.21021533 1.1190136 8.21150288-1.721989 2.0012875-3.2153817 2.7001931-4.4801781 2.0967168l1.0590941.9497159-.2998554.2594815h.8824281l-.3244676.216961.2388722.104626.2528547.1107503c-.4544436.3341788-.4544436.5012683 0 .5012683.2255977 0 .479296-.0139283.7326673-.0134381.0709555.0001372-.3140552-.7756193-.2437754-.7725979.1323704.0056907.4944035.5655493.6763026.6872164.0958759.0641287.7059384-.2301373.787682-.1888829.1992597.1005627.0839918.330552.0534367.5118883-.0116497.0691382.8538744-.5570114.8889812-.5118883.0714796.0918734.2616846.2154744-.6954894.9532272 0 .5656577.0846635.6930231-.16937.6930231-.307587 0-1.0526511.5436569-1.5415431 0-.325928-.3624379-.7388359-.8152872-1.2387239-1.3585478v.4005128l-.8884844-.9017811-.1706097.5012683-1.19555598-1.3732057-.32292126.1801186c.73363861 2.0246166 1.29666754 3.0439677 1.68908694 3.0580532.588629.0211283-1.80596227 1.1492459-2.35567579 1.9077509-.07716306.106471-.14199232.0239624-.19448778-.2475259-.052637.2714883-.11746626.3539969-.19462932.2475259-.54971352-.758505-2.94430478-1.8866226-2.35567577-1.9077509.39241934-.0140855.95544832-1.0334366 1.68908692-3.0580532l-.32292125-.1801186-1.19555603 1.3732057-.17060964-.5012683-.88848446.9017811v-.4005128c-.49988794.5432606-.9127959.9961099-1.23872387 1.3585478-.48889196.5436569-1.23395609 0-1.5415431 0-.307587 0-.41054553-.4303565 0-.958035.41054554-.5276786 1.34876967-.4005128 2.03043505-.4005128.45444359 0 .45444359-.1670895 0-.5012683l.25285469-.1107503.23887217-.104626-.32446756-.216961h.88242807l-.29985545-.2594815 1.0590941-.9497159c-1.2647964.6034763-2.75818909-.0954293-4.48017807-2.0967168-1.72198898-2.00128755-1.34898443-4.73845517 1.11901364-8.21150288.36896696 2.07426808 1.23627556 3.80929536 2.60192578 5.20508181 0 .25248285-.55796051.70885352-.73805975 1.03620968-.18009923.32735616.4382043.51394522.73805975.51394522.29985546 0 .30075747.96886327.58862901.53758246.19191436-.28752056.09595718-.74714851-.28787154-1.37888384l.91142141-.96133637.3082313-.62143529h-.3082313v-.63979048l-.21596809.17734543c-.15798143-.38136531-.3897992-.57204796-.69545332-.57204796s-.50585842-.08719814-.60061292-.26159442h.60061292c.30075747 0-.0480645-.39853202-.30075747-.60611729s-.79683268.20758527-.79683268-.17840185c0-.38598711.49697723-.21828146.79683268-.43418598.29985546-.21590453.75923865 0 1.21217888 0h.7426158c.17877072 0 .03397588.14472866-.4343845.43418598l.4343845.38598712.64597137.66012644-.32305012.19173907.66658885.64639306c-.15085121.24526402-.15085121.36789604 0 .36789604.08500347 0 .15013548.04761792.19539606.14285377.04358556-.09523585.10871758-.14285377.19372104-.14285377.15085122 0 .15085122-.12263202 0-.36789604l.66658885-.64639306-.32305011-.19173907.64597137-.66012644.4343845-.38598712c-.46836039-.28945732-.61315522-.43418598-.4343845-.43418598h.7426158c.45294018 0 .91232338-.21590453 1.21217888 0 .2998554.21590452.7968327.04819887.7968327.43418598 0 .38598712-.5441397-.02918342-.7968327.17840185s-.6015149.60611729-.3007575.60611729h.6006129c-.0947545.17439628-.2949588.26159442-.6006129.26159442s-.5374719.19068265-.6954533.57204796l-.21596808-.17734543v.63979048h-.3082313l.3082313.62143529.91142138.96133637c-.3838287.63173533-.4797859 1.09136328-.2878715 1.37888384.2878715.43128081.2887735-.53758246.588629-.53758246.2998554 0 .918159-.18658906.7380597-.51394522-.1800992-.32735616-.7380597-.78372683-.7380597-1.03620968 1.3656502-1.39578645 2.2329588-3.13081373 2.6019258-5.20508181z" fill-rule="evenodd"/><path d="m3.51079384 16.8404624-1.16682042-2.0456129c-1.01704303-2.344974-1.52556455-3.6598128-1.52556455-3.9445163 0-.4270552-.61414313-1.69171427-.61414313-1.32461055v1.32461055l2.57396332 5.7986542v.4568989h.34663135z" fill-rule="evenodd"/><path d="m12.8558262 14.0865759.1775181-.5892245 2.1678337.6531122-.1775181.5892245z" fill-rule="nonzero"/><path d="m14.0105136 13.0137971.5862027.1918947-.5727336 1.8373602-.5862027-.1918947z" fill-rule="nonzero"/><path d="m14.4304158 12.3860196.1259979.0287205-.0522485.2042795.2257044.0557986-.0284611.1236992-.2282433-.0564978-.0574201.2294931-.125998-.0287205.0584181-.2317726-.229-.0554697.0284611-.1236992.2315389.0561689z" fill-rule="nonzero"/><path d="m8.17848269 1.09657384c.15994334.04814544.3050774.10291788.43517413.16405534l.00508417-.04812951c1.02910124.09400013 1.56313231.52477224 1.50589321 1.28215212-.0473734.62683756-.36463046.95527856-.89361585.94697783l-.00024912.46828029c-.57435897.22048147-1.0051282.33072221-1.29230769.33072221s-.71794872-.11024074-1.29230769-.33072221l.00002615-.4762057c-.43571932-.05386338-.69590847-.37613747-.73845088-.93905242-.05723913-.75737988.47679194-1.18815199 1.50589318-1.28215212l.00460996.05087126c.13158283-.06224274.27865874-.11793306.4409893-.16679709l.06260167.221h.193zm1.04925944.62289174.01120329.01706373c.26826171.36025777.27102912.8198084-.00782748 1.36012406l-.00129471.00192047.0175647-.03296792c.32525473.00468804.47763976-.1832279.50898012-.59791902.02687026-.3555433-.13854677-.60381019-.52862592-.74822132zm-2.41408725-.00248861-.0565077.02103248c-.35602271.14668882-.50690545.38891076-.48115194.72967745.02687913.35566075.14279476.54451309.38044128.58811431l.11338671-.03422737-.02028117-.04299777c-.2242816-.49900685-.19838021-.92474391.06411282-1.2615991zm1.36293939-.22507485-.00111442 1.32205894c.21996358.02608349.49426779.08490335.8229126.17645958l-.10129299-.05602543c.36865604-.70160403.1550911-1.1518763-.72050519-1.44249309zm-1.0418342 1.43129674c.26807456-.06620882.49156995-.10591003.67161321-.11950646l-.00002257-1.29310382c-.82510743.28953652-1.02442809.73221477-.67159064 1.41261028z" fill-rule="nonzero"/></g><ellipse cx="7.938462" cy="1.072072" fill="#3d58db" fill-rule="evenodd" rx="1" ry="1"/><path d="m7.94201976.12612613.12599798.02872049-.05224851.20427951.2257044.05579854-.02846108.12369918-.22824332-.05649772-.05742017.22949305-.12599798-.02872049.05841815-.23177256-.229-.05546977.02846108-.12369918.23153892.05616895z" fill="#f6c540" fill-rule="nonzero" transform="matrix(.97029573 -.2419219 .2419219 .97029573 .132653 1.932573)"/><g fill="none" fill-rule="evenodd" transform="translate(5.2923 7.5676)"><use fill="#1e5e91" xlink:href="#b"/><path d="m.246154 4.162162h4.676923v2.27027h-4.676923z" fill="#5eaa22" mask="url(#f)"/><path d="m2.56802844.8480263c.16069833.28266147.16069833.62509768 0 1.02730861-.2410475.6033164.40214955.30307378 1.00235181.30307378.60020225 0 .51989452-.10533218 1.08109077.75307026.14954955.2287501.14262212.37920091.05199475.46899108.00792566.23191372-.24482011.42410652-.71123829.54717344l-.06137699-.24428486c.24650542-.06504176.39765914-.12725812.46812563-.19597304-.35149752.02110215-.82859587-.15288589-.82859587-.37641 0-.10705557-.11819629-.1721336-.30105866-.20977263l-.00109607.05336105c.00317125 0 .02779176-.02418079.03258231-.03948146.00106854.009239.00441667.03037837.01160706.06199118.00500087.02198649.02811916.11373899.03038398.12304306.03218601.13222316.04850358.2361022.04850358.35007732 0 .31836716-.2711256.50547109-.76160228.5775527l-.03494328-.24969765c.38418598-.05646088.55039171-.17115954.55039171-.32785505 0-.08948785-.01343871-.17503985-.04118477-.28902326-.00164024-.00673824-.02549043-.10139553-.03127676-.12683535-.01141572-.0501896-.01722682-.087885-.01722682-.12387867l.00671634-.03872963c-.31460682-.02942439-.72359283-.01314556-1.07187768.00671744-.06674722.59648642-.37496243.97784693-.91491118 1.12153175l-.06186808-.24415473c.42279199-.11250843.66343943-.39282525.72890351-.86164511-.16317611.00927616-.2972009.01730242-.38132291.01730242-.24425567 0-.22119372-.18490973-.10287278-.42987947l.05021912.00243959c-.49936874 0-.62870719-.50918111-.44545439-1.4302306l.24119158.05039491c-.15601712.78415987-.06878318 1.12758344.20426281 1.12758344l-.00098533.15401978c.09173409-.16953374.21513663-.35813964.32149637-.53047169.28887055-.46804977.17873262-.22350552 0-.6033164-.11915507-.25320726.19386853-.39453799.93907081-.42399221zm1.74240018.36519107-.03767626.24927995c-.54099632-.08586806-.77034586-.02308095-.77034586.12510208 0 .16288023.24164845.26538955.78819015.26086678l.01878352-.00015544.01797363.00559346c.41965709.13059887.41965709.39659574.00508821.54608264l-.08170303-.23795158c.03521775-.01269896.06523163-.02501565.08980753-.03665338-.01922774-.007976-.04169568-.01620865-.06728516-.02455617-.65752916.00240448-1.01700869-.15356357-1.01700869-.51322631 0-.37786763.3788244-.48157522 1.05417596-.37438203z" fill="#f6c540" fill-rule="nonzero" mask="url(#f)"/></g></g></g></g></g><rect height="32" mask="url(#c)" rx="2" width="43.335938"/></g></svg>