<svg height="32" viewBox="0 0 43 32" width="43" xmlns="http://www.w3.org/2000/svg" xmlns:xlink="http://www.w3.org/1999/xlink"><defs><path id="a" d="m0 0h42.666667v32h-42.666667z"/><mask id="b" fill="#fff"><path d="m0 0h43.335938v32h-43.335938z" fill="#fff" fill-rule="evenodd"/></mask><mask id="c" fill="#fff"><path d="m0 0h42.666667v32h-42.666667z" fill="#fff" fill-rule="evenodd"/></mask><mask id="d" fill="#fff"><use fill="#fff" fill-rule="evenodd" xlink:href="#a"/></mask></defs><g fill="none" fill-rule="evenodd"><g fill-rule="evenodd" mask="url(#b)"><g mask="url(#c)" transform="translate(.3346)"><use fill="#3d58db" xlink:href="#a"/><path d="m10.6666667 14.6666667-1.08933323 3.9254875.01014611-4.0738184-2.10802163 3.4860213 1.10887292-3.9200128-2.97036776 2.7880127 2.1253597-3.4754778-3.61241529 1.88323 2.98421827-2.7731824-3.9865465.8387768 3.62175103-1.8652129-4.06501381-.2678847 3.99067508-.818909-3.84199762-1.35467844 4.06362901.28812966-3.33403806-2.34100186 3.83520217 1.37379902-2.57880814-3.15370386 3.32233594 2.35757998-1.63231982-3.73251007 2.56306724 3.16651003-.56476981-4.03449309 1.6137076 3.74059451.5446666-4.03725621.5446666 4.03725621 1.6137075-3.74059451-.5647698 4.03449309 2.5630673-3.16651003-1.6323199 3.73251007 3.322336-2.35757998-2.5788082 3.15370386 3.8352022-1.37379902-3.334038 2.34100186 4.063629-.28812966-3.8419977 1.35467844 3.9906751.818909-4.0650138.2678847 3.621751 1.8652129-3.9865465-.8387768 2.9842183 2.7731824-3.6124153-1.88323 2.1253597 3.4754778-2.9703677-2.7880127 1.1088729 3.9200128-2.1080216-3.4860213.0101461 4.0738184z" fill="#f7fcff" mask="url(#d)"/><g fill-rule="nonzero"><path d="m-1.04266014 32.9936885 45.38701124-31.37390465v10.22769035z" fill="#fff" mask="url(#d)"/><path d="m-1.04266014 32.9936885 45.38701124-39.37390465v10.22769036z" fill="#e2ae57" mask="url(#d)"/></g></g></g><rect height="32" mask="url(#b)" rx="2" width="43.335938"/></g></svg>