<svg height="32" viewBox="0 0 43 32" width="43" xmlns="http://www.w3.org/2000/svg" xmlns:xlink="http://www.w3.org/1999/xlink"><defs><path id="a" d="m0 0h42.666667v32h-42.666667z"/><mask id="b" fill="#fff"><path d="m0 0h43.335938v32h-43.335938z" fill="#fff" fill-rule="evenodd"/></mask><mask id="c" fill="#fff"><path d="m0 0h42.666667v32h-42.666667z" fill="#fff" fill-rule="evenodd"/></mask><mask id="d" fill="#fff"><use fill="#fff" fill-rule="evenodd" xlink:href="#a"/></mask></defs><g fill="none" fill-rule="evenodd"><g fill-rule="evenodd" mask="url(#b)"><g mask="url(#c)" transform="translate(.3346)"><use fill="#f50100" xlink:href="#a"/><g fill="#ffd018"><path d="m24 18.699169 18.6666667 7.9349954v5.4452271h-4.3403108zm-5.3333333-.0325023-14.32635593 13.3802225h-4.34031077v-5.4452271zm2.6666666-2.6666667 4 16h-8zm-21.3333333-4 16 4-16 4zm42.6666667 0v8l-16-4zm-17.3333334-12-4 16-4-16zm17.3333334-.02344458v5.4452271l-18.6666667 7.93499538 14.3263559-13.38022248zm-38.32635593-.0325023 14.32635593 13.38022248-18.6666667-7.93499538v-5.4452271z" mask="url(#d)"/><circle cx="21.333333" cy="16" mask="url(#d)" r="6.666667" stroke="#f50100" stroke-width="2.666667"/></g></g></g><rect height="32" mask="url(#b)" rx="2" width="43.335938"/></g></svg>