<svg height="32" viewBox="0 0 43 32" width="43" xmlns="http://www.w3.org/2000/svg" xmlns:xlink="http://www.w3.org/1999/xlink"><mask id="a" fill="#fff"><path d="m0 0h43.335938v32h-43.335938z" fill="#fff" fill-rule="evenodd"/></mask><mask id="b" fill="#fff"><path d="m0 0h42.666667v32h-42.666667z" fill="#fff" fill-rule="evenodd"/></mask><g fill="none" fill-rule="evenodd"><g fill-rule="evenodd" mask="url(#a)"><g mask="url(#b)" transform="translate(.3346)"><path d="m13.333333 0h16v32h-16z" fill="#4c67e8"/><path d="m29.333333 0h13.333333v32h-13.333333z" fill="#c51918"/><path d="m0 0h16v32h-16z" fill="#c51918"/><path d="m2.66666667 15.2056909h2.35897436v11.4284719h-2.35897436zm8.30769233 0h2.3589743v11.4284719h-2.3589743zm-5.33333336.099378 2.29963323 1.4237961 2.59184223-1.4237961zm0 9.9378017 2.29963323 1.4237961 2.59184223-1.4237961zm0-8.0496194h4.82051286v.8944022h-4.82051286zm0 6.6583271h4.82051286v.8944022h-4.82051286zm2.46153846-.4968901c1.35947016 0 2.4615385-1.0678332 2.4615385-2.3850723 0-1.3172392-1.10206834-2.3850724-2.4615385-2.3850724-1.35947015 0-2.46153846 1.0678332-2.46153846 2.3850724 0 1.3172391 1.10206831 2.3850723 2.46153846 2.3850723zm2.6220131-11.0664242c-.2640503 1.6598589-1.21407959 2.4897884-2.8500879 2.4897884s-2.48163664-.8299295-2.53688498-2.4897884c.63324423 1.0167693 1.53107304 1.5251539 2.69348642 1.5251539s2.06024216-.5083846 2.69348646-1.5251539zm-2.67329515-2.64774201c1.1045695 0 2.00000005.86761451 2.00000005 1.93787131s-.89543055 1.9378713-2.00000005 1.9378713-2-.8676145-2-1.9378713.8954305-1.93787131 2-1.93787131zm-1.20656406-1.77801653c-.11823392.87763663.27302484 1.31645495 1.17377627 1.31645495s1.33927082-.43881832 1.31555817-1.31645495l-.46017365-1.22502949c.01358537.81668633-.07101446 1.22502949-.25379948 1.22502949-.27417754 0 .09566779-1.35032067-.22242962-1.67629315-.3180974-.32597249-.44021344-.40985895-.37915542-.76682514.04070535-.23797746.04070535.01763091 0 .76682514-.19357099.42768038-.29035648.78432523-.29035648 1.06993456 0 .42841399-.24280768.78430318-.24280768.60635859 0-.1779446 0-.4273303 0-.82617989 0-.3988496 0-.5572885 0-.5572885s-.21353737.46115613-.64061211 1.38346839z" fill="#f8d000"/><g fill="#c51918"><path d="m8.47811711 18.6298475.10997788-.4900632c.5499654.6016852.79909824.9393264.68139281 1.4906198-.13139491.6154103-.82218071 1.3007511-1.62475714 1.8654743-.48609589.3420355-.78387865 1.2651992-.54265165 1.5587586l-.2300287.4184806c-.53761405-.6542453-.10792638-1.8885434.63395809-2.4105614.68123618-.4793436 1.15699256-.9819908 1.23997026-1.3776195.05403379-.2576273.15476413-.5927189-.26786155-1.0550892z" fill-rule="nonzero"/><circle cx="8.666667" cy="22" r="1"/><path d="m7.16782084 20.8674901c.36818983 0 .66666667-.2984769.66666667-.6666667s-.29847684-.6666667-.66666667-.6666667-.66666667.2984769-.66666667.6666667.29847684.6666667.66666667.6666667z"/></g></g></g><rect height="32" mask="url(#a)" rx="2" width="43.335938"/></g></svg>