<svg height="32" viewBox="0 0 43 32" width="43" xmlns="http://www.w3.org/2000/svg" xmlns:xlink="http://www.w3.org/1999/xlink"><defs><path id="a" d="m0 0h42.666667v32h-42.666667z"/><mask id="b" fill="#fff"><path d="m0 0h43.335938v32h-43.335938z" fill="#fff" fill-rule="evenodd"/></mask><mask id="c" fill="#fff"><path d="m0 0h42.666667v32h-42.666667z" fill="#fff" fill-rule="evenodd"/></mask><mask id="d" fill="#fff"><use fill="#fff" fill-rule="evenodd" xlink:href="#a"/></mask><mask id="e" fill="#fff"><circle cx="10.666667" cy="10.666667" fill="#fff" fill-rule="evenodd" r="10.666667"/></mask></defs><g fill="none" fill-rule="evenodd"><g fill-rule="evenodd" mask="url(#b)"><g mask="url(#c)" transform="translate(.3346)"><use fill="#1c9975" xlink:href="#a"/><g fill="#feca00" mask="url(#d)"><g transform="translate(8 2.6667)"><path d="m13.3621219 6.47164228-2.1782928 1.31503222.4968548-2.56615403-1.81398468-1.92051393 2.45623678-.10384368 1.0391859-2.39615472 1.0391858 2.39615472h2.4520579l-1.8098057 2.02435761.5448587 2.56615403z"/><path d="m7.1768241 7.44596458-1.3468833.8131115.30721556-1.58670588-1.12162408-1.18749332 1.51874182-.06420868.64255-1.48159182.64255 1.48159182h1.51615788l-1.11904014 1.251702.33689739 1.58670588z"/><path d="m19.4413211 7.44596458-1.3468833.8131115.3072156-1.58670588-1.1216241-1.18749332 1.5187418-.06420868.64255-1.48159182.64255 1.48159182h1.5161579l-1.1190401 1.251702.3368973 1.58670588z"/><path d="m3.68865961 10.147503-1.08083232.6524969.24653102-1.27328257-.90006874-.95292677 1.21874347-.05152549.51562657-1.18893174.51562656 1.18893174h1.21666994l-.8979952 1.00445226.27034976 1.27328257z"/><path d="m23.4143831 10.147503-1.0808324.6524969.2465311-1.27328257-.9000688-.95292677 1.2187435-.05152549.5156266-1.18893174.5156265 1.18893174h1.21667l-.8979952 1.00445226.2703497 1.27328257z"/></g></g><g mask="url(#d)"><g fill="#f7fcff" transform="translate(10.6667 8)"><g><path d="m6.24113475 20.0851064h8.85106385v1.4297873h-8.85106385z" mask="url(#e)"/><path d="m2.60992908 17.9466553h17.02127662v1.3106383h-17.02127662z" mask="url(#e)"/><path d="m6.16036413 17.3607816h-5.20628123v-1.3333333l5.19690701.0000659c1.84094008-.0258886 3.18616018-.5516951 4.08371839-1.5633105l.4472453-.5040789.4992319.4526493c1.1987496 1.0868961 2.3961281 1.6146742 3.6074351 1.6146742h5.7390076v1.3333333h-5.7390076c-1.3915917 0-2.735069-.5234688-4.0197193-1.5484622-1.13768869 1.0084443-2.68250182 1.5214346-4.60853717 1.5484622z" fill-rule="nonzero" mask="url(#e)"/></g><path d="m10.7129327 2.14372473c1.582794 1.38882909 2.374191 3.16864303 2.374191 5.33944181 0 .43504036-.0317845.85491895-.0953533 1.25963577.5004782-1.45830139.4721912-3.02535888-.084416-4.71608348l.8622762-.28387186c.7068885 2.14721236.6417418 4.15353057-.196666 5.99563632 1.4310897-1.1128004 3.1396045-1.77968624 5.1144838-1.99799359l.0997428.90230527c-.4398055.04861703-.8642798.1210614-1.2735551.21737047 1.2043564.00573572 2.3900312.32376029 3.5582638.9541063-.8653797 1.91968776-2.3360421 3.19687166-4.4119873 3.83155176-.7508072.2295448-1.4846575.3456566-2.2015512.3483354.4643857.135857.9371283.2033976 1.418311.2033976 1.5071998 0 2.9088141-.6162112 4.2213112-1.8681529l.62658.6568873c-1.474222 1.406205-3.0956751 2.119067-4.8478912 2.119067-1.3967801 0-3.1558065-.8064063-4.5788717-1.8904484-.1601873-.0820833-.3189941-.1710772-.4768226-.2666165l.0437624-.0806522c-.0188058-.0158801-.0375318-.0318036-.0561761-.0477692-.1562105.1193062-.3160183.2317498-.4780987.3366809l.183897-.1695541c-1.48043054 1.4057476-3.10470504 2.1183595-4.85663266 2.1183595-1.75221606 0-3.37366922-.712862-4.84789124-2.119067l.62658007-.6568873c1.31249706 1.2519417 2.71411136 1.8681529 4.22131117 1.8681529l-.12901489-.0154646-.31430663-.048004c-2.1074593-.3599645-3.70522911-1.7604924-4.79330943-4.20158349 1.88624782-.69579073 3.79068377-.79833631 5.71330784-.30763673.28855215.0736454.56891731.16021054.84109545.25969543-1.15416678-.6525496-2.46259126-1.09365068-3.80250999-1.24176814l.09974274-.90230527c1.56328364.17280869 3.08632619.7087974 4.41003558 1.50652473-.64071789-1.70582751-.63799972-3.54643497.00650976-5.50416746l.86227616.28387186c-.60504793 1.8378659-.58581632 3.5296029.05664336 5.09521161-.11608084-.5254362-.17360715-1.07202958-.17360715-1.6387639 0-2.0591827.75944662-3.83899664 2.27833986-5.33944181z"/></g></g></g></g><rect height="32" mask="url(#b)" rx="2" width="43.335938"/></g></svg>