<svg height="32" viewBox="0 0 43 32" width="43" xmlns="http://www.w3.org/2000/svg" xmlns:xlink="http://www.w3.org/1999/xlink"><mask id="a" fill="#fff"><path d="m0 0h43.335938v32h-43.335938z" fill="#fff" fill-rule="evenodd"/></mask><mask id="b" fill="#fff"><path d="m0 0h42.666667v32h-42.666667z" fill="#fff" fill-rule="evenodd"/></mask><g fill="none" fill-rule="evenodd"><g fill-rule="evenodd" mask="url(#a)"><g mask="url(#b)" transform="translate(.3346)"><path d="m0 0h45.3333333v32h-45.3333333z" fill="#2993ec"/><g transform="translate(8 2.6667)"><path d="m13.3333333 25.5555556c-7.20712011 0-13.04964536-5.720806-13.04964536-12.7777778 0-7.05697183 5.84252525-12.7777778 13.04964536-12.7777778 7.2071202 0 13.0496454 5.72080597 13.0496454 12.7777778 0 7.0569718-5.8425252 12.7777778-13.0496454 12.7777778zm0-2.7777778c5.6403549 0 10.212766-4.4771525 10.212766-10 0-5.52284752-4.5724111-10.00000002-10.212766-10.00000002-5.64035486 0-10.21276592 4.4771525-10.21276592 10.00000002 0 5.5228475 4.57241106 10 10.21276592 10z" fill="#f1f9ff" fill-rule="nonzero"/><path d="m13.3333333 24.4444444c-6.58041401 0-11.91489358-5.2233445-11.91489358-11.6666666s5.33447957-11.66666669 11.91489358-11.66666669c6.5804141 0 11.9148937 5.22334459 11.9148937 11.66666669s-5.3344796 11.6666666-11.9148937 11.6666666zm0-.5555555c6.267061 0 11.3475178-4.9746139 11.3475178-11.1111111 0-6.13649724-5.0804568-11.11111113-11.3475178-11.11111113-6.26706096 0-11.3475177 4.97461389-11.3475177 11.11111113 0 6.1364972 5.08045674 11.1111111 11.3475177 11.1111111z" fill="#e31d1c" fill-rule="nonzero"/><path d="m13.3333333.27777778c-.1438353.29689846-.2157529.71879595-.2157529 1.26569247s-.2117703 1.09434661-.6353109 1.64235025c-.0786667-.60333697-.1180001-1.15078705-.1180001-1.64235025 0-.49156319.3230213-.91346068.9690639-1.26569247zm2.9816656.45149577c-.2069364.25693306-.3719171.6518394-.4949421 1.184719-.1230249.53287959-.452517 1.01866062-.9884763 1.45734307.0590708-.60556965.143895-1.1478367.2544727-1.62680116.1105776-.47896447.5202262-.81738477 1.2289457-1.01526091zm5.2732402 2.84938748c-.3010269.13498186-.6273095.41194631-.9788478.83089335s-.8656579.70219482-1.5423588.84974334c.3275554-.51274893.6493184-.95740302.9652891-1.33396227.3159707-.37655926.8346099-.4921174 1.5559175-.34667442zm-2.4573825-1.71795343c-.2629473.1992386-.5185638.54250208-.7668496 1.02979045-.2482859.48728837-.6855117.87892827-1.3116776 1.17491969.2038167-.57329112.4173076-1.07892968.6404726-1.5169157.223165-.43798601.7025166-.66725083 1.4380546-.68779444zm4.4470805 3.94468205c-.3236759.06380596-.7038994.26027421-1.1406704.58940476-.436771.32913054-1.0014306.48946695-1.6939788.48100924.4345035-.42592329.8480452-.78679999 1.240625-1.08263011.3925798-.29583011.9239212-.29175808 1.5940242.01221611zm1.417502 2.64293772c-.3294974-.01639363-.7459566.0822543-1.2493775.29594379s-1.0900966.23265971-1.7600271.05691064c.5246371-.30815563 1.0131988-.55826797 1.4656851-.75033701s.9670594-.05957485 1.5437195.39748258zm.7584257 2.86556123c-.3173647-.0900943-.7453409-.0876576-1.2839289.0073099-.5385879.0949676-1.1144945-.0185217-1.7277198-.3404679.5805106-.1822399 1.1128135-.3160394 1.5969088-.4013985.4840952-.0853591.9556752.1594931 1.4147399.7345565zm-25.64185066-.9543417c.26741117.193206.67041072.3372928 1.20899866.4322604.53858793.0949676 1.04094749.3985843 1.50707868.9108502-.60783125-.0272968-1.15379451-.0836247-1.63788975-.1689838-.48409525-.085359-.84349111-.4767346-1.07818759-1.1741268zm.96879299-2.80324756c.21709554.24840858.57735376.47945762 1.08077467.69314711.5034209.2136895.92460611.62253086 1.26355564 1.22652409-.58611214-.16332944-1.10541137-.34102868-1.55789768-.53309772-.4524863-.19206904-.71463051-.6542602-.78643263-1.38657348zm1.62205578-2.52483854c.1505514.29354995.4442126.60489019.88098358.93402073s.74653752.8277215.92929961 1.49577286c-.52918914-.30027121-.99007362-.59832188-1.38265345-.894152-.39257982-.29583011-.53512307-.80771064-.42762974-1.53564159zm2.14884679-2.07570204c.08065841.31989297.29675677.68931298.64829508 1.10826002.3515383.41894705.54120698.97444145.56900604 1.66648323-.44807973-.41161694-.83010497-.80570504-1.1460757-1.18226429-.31597073-.37655926-.33971254-.90738558-.07122542-1.59247896zm2.5784787-1.53499697c.00663088.32983833.13408923.73840168.38237505 1.22569005.24828583.48728837.30813426 1.07121166.1795453 1.75176988-.34400182-.50186323-.62758523-.97178786-.85075025-1.40977387-.22316502-.43798602-.12688839-.96054804.2888299-1.56768606zm2.8966423-.90948019c-.0733612.32164488-.0485293.74890712.0744956 1.28178672.123025.53287959.0398318 1.11393652-.2495794 1.74317076-.21237181-.57017732-.37384653-1.09474821-.48442419-1.57371268-.11057766-.47896446.10925834-.96271273.65950799-1.4512448z" fill="#fdda33"/><path d="m15.5021898 5c.4230266 0 .7659574.34293083.7659574.76595745 0 .05506134-.0059371.10996218-.0177084.16375054l-.515812 2.35697399c-.0453339.20715106-.1720389.37924263-.3421036.48568249.1567187.12138442.2656908.30351932.2907792.51408206l1.8485523 15.51526587c.0358735.2990075-.1067947.5912895-.3645989.7469476-1.2309563.7451196-2.4615174 1.1180067-3.6920785 1.1180067-1.1280143 0-2.2560287-.3133288-3.384043-.9399863l-.30803553-.1780204c-.25780411-.1556581-.40047234-.4479401-.36459882-.7469476l1.84855225-15.51526587c.0250884-.21056274.1340605-.39269764.2910728-.51457823-.1703028-.10586828-.2970533-.27798988-.3423972-.48518632l-.515812-2.35697399c-.0904369-.41324651.171252-.82156262.5844985-.91199955.0537884-.01177131.1086892-.01770844.1637505-.01770844z" fill="#a7a7a7"/><path d="m.69236908 13.3504133c.06876693-.220047.30669227-.3438452.53142113-.2765109s.35116099.3003029.28239406.5203499c-.11897933.3807214-.11897933.9430545.01227641 1.6787681.0503476.282208.11020345.5000914.18381912.6925773.02932462.0766763.05965599.1468602.10017715.2339554-.01804393-.0387832.0808584.1712885.10491445.2257358.12718088.2878554.18342679.5401284.18342679.909723 0 .2301186-.19051713.4166666-.42553192.4166666s-.42553191-.186548-.42553191-.4166666c0-.2525701-.03126366-.3927932-.11346522-.5788445-.01936909-.0438391-.11175369-.2400668-.09829626-.2111418-.04801989-.1032127-.08563024-.1902396-.12270528-.2871812-.09236504-.2415106-.1659071-.5092137-.22517492-.8414213-.15227565-.8535341-.15227565-1.5394604.0122764-2.0660098z" fill="#73be4a" fill-rule="nonzero"/><path d="m13.6170213 18.9055556-5.48599571 3.7379608 1.93538461-6.2638876-5.32591641-3.9537008 6.68212921-.1333346 2.1943983-6.18148229 2.1943983 6.18148229 6.6821292.1333346-5.3259165 3.9537008 1.9353847 6.2638876z" fill="#f7fcff"/><path d="m24.8058443 13.9059688c.0687669-.220047.3066922-.3438451.5314211-.2765108.2247288.0673342.351161.3003028.282394.5203498-.1189793.3807215-.1189793.9430546.0122765 1.6787682.0503476.2822079.1102034.5000914.1838191.6925773.0293246.0766762.059656.1468602.1001771.2339554-.0180439-.0387832.0808584.1712884.1049145.2257358.1271809.2878554.1834268.5401283.1834268.9097229 0 .2301187-.1905172.4166667-.425532.4166667-.2350147 0-.4255319-.186548-.4255319-.4166667 0-.2525701-.0312636-.3927932-.1134652-.5788444-.0193691-.0438391-.1117537-.2400669-.0982962-.2111418-.0480199-.1032128-.0856303-.1902396-.1227053-.2871812-.0923651-.2415106-.1659071-.5092137-.2251749-.8414213-.1522757-.8535342-.1522757-1.5394604.0122764-2.0660099z" fill="#73be4a" fill-rule="nonzero" transform="matrix(-1 0 0 1 50.8852 0)"/><path d="m13.4144854 1.53014924c1.0350076.46109622 1.3290131 1.05464726.8820165 1.78065314" stroke="#73be4a" stroke-linecap="round" stroke-linejoin="round" stroke-width="1.333333"/><path d="m14.5492372 1.53014924c1.0350076.46109622 1.3290131 1.05464726.8820165 1.78065314" stroke="#73be4a" stroke-linecap="round" stroke-linejoin="round" stroke-width="1.333333"/><g fill="#73be4a" fill-rule="nonzero"><path d="m4.3464496 5.80898891c.11255964-.19482804.34897702-.25349334.528053-.13103262s.23299813.37967407.12043849.57450211c-.21595993.37380227-.32838072.88666061-.32838072 1.54425957 0 .23011865-.17146542.41666667-.38297873.41666667s-.38297872-.18654802-.38297872-.41666667c0-.80365993.145655-1.46813114.44584668-1.98772906z"/><path d="m3.74468085 9.61671573c0 .23011864-.17146541.41666667-.38297872.41666667s-.38297873-.18654803-.38297873-.41666667v-1.18689194c0-.83981964.13173219-1.50119531.40950103-1.98417029.11219334-.19507796.34850001-.25426893.5278057-.13220672.1793057.1220622.23371101.3791551.12151767.57423305-.19047648.33119401-.29286695.84525642-.29286695 1.54214396z"/><path d="m23.6028369 9.06116017c0 .23011865-.1714654.41666667-.3829787.41666667-.2115134 0-.3829788-.18654802-.3829788-.41666667v-1.18689193c0-.83981965.1317322-1.50119532.4095011-1.9841703.1121933-.19507796.3485-.25426892.5278057-.13220672s.233711.3791551.1215176.57423306c-.1904764.331194-.2928669.84525642-.2928669 1.54214396z" transform="matrix(-1 0 0 1 46.915 0)"/><path d="m24.7375887 11.0056046c0 .2301187-.1714655.4166667-.3829788.4166667s-.3829787-.186548-.3829787-.4166667v-1.18689192c0-.83981964.1317322-1.50119531.409501-1.98417029.1121934-.19507796.3485-.25426893.5278057-.13220672.1793057.1220622.233711.3791551.1215177.57423305-.1904765.33119401-.2928669.84525642-.2928669 1.54214396z" transform="matrix(-1 0 0 1 49.1846 0)"/></g></g></g></g><rect height="32" mask="url(#a)" rx="2" width="43.335938"/></g></svg>