<svg height="32" viewBox="0 0 43 32" width="43" xmlns="http://www.w3.org/2000/svg" xmlns:xlink="http://www.w3.org/1999/xlink"><defs><path id="a" d="m0 0h42.666667v32h-42.666667z"/><mask id="b" fill="#fff"><path d="m0 0h43.335938v32h-43.335938z" fill="#fff" fill-rule="evenodd"/></mask><mask id="c" fill="#fff"><path d="m0 0h42.666667v32h-42.666667z" fill="#fff" fill-rule="evenodd"/></mask><mask id="d" fill="#fff"><use fill="#fff" fill-rule="evenodd" xlink:href="#a"/></mask></defs><g fill="none" fill-rule="evenodd"><g fill-rule="evenodd" mask="url(#b)"><g mask="url(#c)" transform="translate(.3346)"><use fill="#1c7b4d" xlink:href="#a"/><path d="m0 0h42.666667v8h-42.666667z" fill="#e31d1c" mask="url(#d)"/><path d="m0 24h42.666667v8h-42.666667z" fill="#e31d1c" mask="url(#d)"/><g fill="#feca00" mask="url(#d)"><g transform="matrix(0 -1 1 0 11.9999 22.6667)"><path d="m3.49527751 9.65599541c-.02555005 4.60914229 1.89154014 7.56276279 5.75127056 8.86086139-4.95311177-.3916192-8.31202819-3.1311355-8.31202819-8.86086139 0-5.72972584 4.35089972-7.83368311 8.69113347-8.86086134-4.06136718 1.29809859-6.1048258 4.25171904-6.13037584 8.86086134z"/><path d="m10.3269461 11.6341878-2.35114097 1.2360679.44902798-2.618034-1.90211303-1.85410192 2.62865556-.38196601 1.35720616-2.44098301.8122992 2.5 2.8102912.32294902-2.0837487 1.91311892.8122993 2.5z" transform="matrix(.95105652 .30901699 -.30901699 .95105652 3.355405 -2.739797)"/></g></g></g></g><rect height="32" mask="url(#b)" rx="2" width="43.335938"/></g></svg>