<svg height="32" viewBox="0 0 43 32" width="43" xmlns="http://www.w3.org/2000/svg" xmlns:xlink="http://www.w3.org/1999/xlink"><defs><path id="a" d="m0 0h42.666667v32h-42.666667z"/><path id="b" d="m0 0h24v18.666667h-24z"/><mask id="c" fill="#fff"><path d="m0 0h43.335938v32h-43.335938z" fill="#fff" fill-rule="evenodd"/></mask><mask id="d" fill="#fff"><path d="m0 0h42.666667v32h-42.666667z" fill="#fff" fill-rule="evenodd"/></mask><mask id="e" fill="#fff"><use fill="#fff" fill-rule="evenodd" xlink:href="#a"/></mask><mask id="f" fill="#fff"><path d="m1.39557385.04358788c0 9.42970883-.60026873 15.90839682 6.50929056 15.90839682s7.10955929-7.95419843 6.63828739-15.90839682z" fill="#fff" fill-rule="evenodd"/></mask><mask id="g" fill="#fff"><use fill="#fff" fill-rule="evenodd" xlink:href="#b"/></mask></defs><g fill="none" fill-rule="evenodd"><g fill-rule="evenodd" mask="url(#c)"><g mask="url(#d)" transform="translate(.3346)"><use fill="#2e42a5" xlink:href="#a"/><g mask="url(#e)"><g transform="translate(26.6667 13.3333)"><path d="m14.2287445.37692122c.2527927 4.38283813.3466375 8.73687537-.8858328 11.69044228-.4723622 1.1319977-1.1421161 2.053459-2.0887486 2.6723235-.8694972.568437-1.96929114.8789643-3.34929869.8789643-1.24336335 0-2.24099413-.2028615-3.03897391-.5983166-.82173244-.4072262-1.42603746-1.0193535-1.87184865-1.8096583-1.11812279-1.9821346-1.26603929-5.03892733-1.27702845-8.81902351l-.00001407-.95636283c.00102866-.43934026.003193-.88746293.00539715-1.34390312.00270087-.55930169.0054611-1.13107459.00627282-1.71446572z" stroke="#f7fcff" stroke-width=".666667"/><g fill="none" fill-rule="evenodd" mask="url(#f)"><g transform="translate(1.0667)"><path d="m.176667 0h13.426667v10.637838h-13.426667z" fill="#2ebed7"/><path d="m0 10.551351h14.133334v5.448649h-14.133334z" fill="#a95601"/><g fill="none" transform="translate(3.2683 .4324)"><path d="m4.65924904 4.18599218c-1.65957582.37643499-2.40913862.37643499-2.24868838 0s.45528839-1.24334787.88451445-2.60073865" stroke="#ffc6b5" stroke-width="1.333333"/><path d="m5.40804551 4.5886159c-.30277653-.18553487-.45416479-.44724963-.45416479-.78514427 0-.50684196-1.10756226-.69647252-.32669874-1.48837469.78086353-.79190216 1.11784524-.44315394 1.11784524 0s.62769002 1.48837469.62769002 1.48837469-.32155724.26171476-.96467173.78514427z" fill="#ffc6b5"/><path d="m4.15166682 0-.00000014 1.21 2.47333356.00081081v1.21081081l-2.47333356-.00062162.00000014 10.551973h-1.23666672l-.00033342-10.551973-2.473.00062162v-1.21081081l2.473-.00081081.00033342-1.21z" fill="#272727"/><path d="m6.81439928 13.32921c-.29991185-1.3880456-.44986778-2.557134-.44986778-3.50726509 0-1.42519662-.75389928-2.44457714-.53846232-3.19825383.21543697-.75367668.73417621-1.58708999.47480659-2.10295793s.25307374-.76705104-.47480659-.51586794c-.72788033.25118311-.92354289-.2511831-1.62631492 0-.70277204.25118311-.79175687 1.43704249-.79175687 1.77534995 0 .33830747.31248767 2.619208.31248767 3.33046888 0 .71126087-.25745758 5.08492936.4792692 5.08492936.73672677 0 1.53997137-1.1382212 1.82054644-1.1382212.18705005 0 .45174957.0906059.79409858.2718178z" fill="#0c7c38"/><g stroke-width="1.333333"><path d="m2.37140213 7.75605305c-.4490872 0-.03603626 1.0431996-1.17878886 1.50060251-1.14275261.4574029-1.36703602 1.10153724-1.00706374 1.10153724.23998151 0 1.30875355 1.0659997 3.2063161 3.1979991l.69795853-1.0789919v-3.40740327c-.84622322-.87582912-1.41903056-1.31374368-1.71842203-1.31374368z" stroke="#ff9a06"/><path d="m5.7225168 13.1112717c.35555556.7629773.35555556 1.1444659 0 1.1444659" stroke="#979797"/><path d="m5.55091871 4.62123187c-.15620047.85587373-.38299905 1.37339754-.68039573 1.55257142-.44609503.26876083-2.27874028.78908688-2.27874028 1.23337018 0 .29618887-.06062417.49722876-.18187251.60311968" stroke="#ffc6b5"/></g><path d="m4.66211113 1.97094442c.29895782.35529078.53213104.82577083.69951967 1.41144015.25108293.87850399.97844288 1.17770739.97844288.76654154s.53768176-2.17798169 0-2.17798169c-.3584545 0-.91777535 0-1.67796255 0z" fill="#ff9a06"/></g></g></g></g></g><g mask="url(#e)"><use fill="#2b409a" xlink:href="#b"/><g mask="url(#g)"><g fill-rule="nonzero"><path d="m1.32764499 3.28505196 5.28126726-2.31626725 21.51092825 17.13103699 2.7857478 3.4420421-5.6475555.7741648-8.7737935-7.382254-7.06200197-4.97391428z" fill="#f7fcff" transform="matrix(1 0 0 -1 -4 20.6181)"/><path d="m2.05065842 2.76731119 2.69056181-1.34416892 25.16402527 21.54362063h-3.7778619z" fill="#f50100" transform="matrix(1 0 0 -1 -4 21.7233)"/><path d="m1.32764499 3.28505196 5.28126726-2.31626725 21.51092825 17.13103699 2.7857478 3.4420421-5.6475555.7741648-8.7737935-7.382254-7.06200197-4.97391428z" fill="#f7fcff" transform="matrix(-1 0 0 -1 28 20.6181)"/><path d="m1.50784817 3.09890547 2.6905618-1.34416891 10.71510273 9.22394324 3.176798 1.030569 13.0833277 10.4993758h-3.7778619l-13.075977-10.2501652-3.4732688-1.2357627z" fill="#f50100" transform="matrix(-1 0 0 -1 28 21.5967)"/></g><path d="m14.3127673-1-.000682 7.99909357 10.6879147.00099999v4.66663544l-10.6879147-.0006666.000682 8.0006043h-4.66675002l-.00001536-8.0006041-10.64600192.0006667v-4.66663537l10.64600192-.001.00001536-7.99909393z" fill="#f50100" stroke="#f7fcff" stroke-width="2"/></g></g></g></g><rect height="32" mask="url(#c)" rx="2" width="43.335938"/></g></svg>