<svg height="32" viewBox="0 0 43 32" width="43" xmlns="http://www.w3.org/2000/svg" xmlns:xlink="http://www.w3.org/1999/xlink"><defs><path id="a" d="m0 0h42.666667v32h-42.666667z"/><path id="b" d="m0 0h21.333333v32h-21.333333z"/><mask id="c" fill="#fff"><path d="m0 0h43.335938v32h-43.335938z" fill="#fff" fill-rule="evenodd"/></mask><mask id="d" fill="#fff"><use fill="#fff" fill-rule="evenodd" xlink:href="#a"/></mask><mask id="e" fill="#fff"><use fill="#fff" fill-rule="evenodd" xlink:href="#b"/></mask></defs><g fill="none" fill-rule="evenodd"><g fill-rule="evenodd" mask="url(#c)"><g transform="translate(.3346)"><use fill="#f7fcff" xlink:href="#a"/><path d="m12.6667094 6 .0002477 3.86932931.5550781.09420882.5535075 1.31667027 4.2244573.045918v4.0072127l-4.2293338.0000363c.0691699.5493633-.5332658.99517-1.1037012.6080992l-.0002614 4.7251921h-4.0000313l.00003951-4.6739704c-.54393348.2916461-1.08523255-.1367548-1.01965187-.6593209l-4.31372661-.0000364v-4.0000572l4.55462912-.0003522c-.30786343-.416591-.30424905-.8537513-.09927965-1.1229936l.87802804-.35952423-.00003765-3.85041177z" fill="#a0a0a0" mask="url(#d)" stroke="#feca00" stroke-width="1.333333"/><g mask="url(#d)"><g fill-rule="evenodd" transform="translate(21.3333)"><use fill="#e31d1c" xlink:href="#b"/><path d="m-21.333333 0h16v32h-16z" fill="#fff" mask="url(#e)"/></g></g></g></g><rect height="32" mask="url(#c)" rx="2" width="43.335938"/></g></svg>