<svg height="32" viewBox="0 0 43 32" width="43" xmlns="http://www.w3.org/2000/svg" xmlns:xlink="http://www.w3.org/1999/xlink"><mask id="a" fill="#fff"><path d="m0 0h43.335938v32h-43.335938z" fill="#fff" fill-rule="evenodd"/></mask><mask id="b" fill="#fff"><path d="m0 0h42.666667v32h-42.666667z" fill="#fff" fill-rule="evenodd"/></mask><mask id="c" fill="#fff"><path d="m8 8h26.6666667v16h-26.6666667z" fill="#fff" fill-rule="evenodd"/></mask><g fill="none" fill-rule="evenodd"><g fill-rule="evenodd" mask="url(#a)"><g mask="url(#b)" transform="translate(.3346)"><path d="m0 0h42.6666667v29.3333333c0 1.4727594-1.1939074 2.6666667-2.6666667 2.6666667h-37.33333333c-1.47275934 0-2.66666667-1.1939073-2.66666667-2.6666667z" fill="#c51918"/><path d="m0 0h42.6666667v32h-42.6666667z" fill="#c51918"/><path d="m33.3333333 9.33333333v13.33333337h-23.99999997v-13.33333337z" stroke="#b6eb9a" stroke-opacity=".238111" stroke-width="2.666667"/><path d="m21.3773215 16.61665c-.015106 2.7250604 1.049993 4.8140496 3.1952969 6.2669674-3.6719071.4311405-6.1149153-2.8976221-6.1149153-6.2271277s3.330124-6.0798238 6.1149153-7.32174947c-2.115092 2.12954597-3.180191 4.55684927-3.1952969 7.28190977z" fill="#f9fafa" mask="url(#c)"/></g></g><rect height="32" mask="url(#a)" rx="2" width="43.335938"/></g></svg>