<svg height="32" viewBox="0 0 43 32" width="43" xmlns="http://www.w3.org/2000/svg" xmlns:xlink="http://www.w3.org/1999/xlink"><defs><path id="a" d="m0 0h42.666667v32h-42.666667z"/><mask id="b" fill="#fff"><path d="m0 0h43.335938v32h-43.335938z" fill="#fff" fill-rule="evenodd"/></mask><mask id="c" fill="#fff"><path d="m0 0h42.666667v32h-42.666667z" fill="#fff" fill-rule="evenodd"/></mask><mask id="d" fill="#fff"><use fill="#fff" fill-rule="evenodd" xlink:href="#a"/></mask></defs><g fill="none" fill-rule="evenodd"><g fill-rule="evenodd" mask="url(#b)"><g mask="url(#c)" transform="translate(.3346)"><use fill="#e11c1b" xlink:href="#a"/><path d="m0 0h42.666667v13.333333h-42.666667z" fill="#272727" mask="url(#d)"/><path d="m0 21.333333h42.666667v10.666667h-42.666667z" fill="#5eaa22" mask="url(#d)"/><g fill="#e11c1b" mask="url(#d)"><path d="m18.8545573.80000814.5956265 3.65922087c.3313947.01369705.659414.03851708.9835683.07403731l1.3160147-3.50060347-.1444388 3.67826321c.3269319.06359366.6490236.13822878.9657223.22342801l1.9808717-3.21120478-.8699811 3.56093197c.3162489.11454569.6259049.23997645.9283396.37574968l2.5606786-2.8105563-1.546586 3.31934871c.2971306.16561738.5856261.34179868.8647742.52792892l3.033553-2.32170795-2.1494141 2.96948759c.2675958.21511265.524277.44021925.7692471.67463188l3.3890252-1.76813854-2.6597893 2.53333489c.2266729.26127253.4399811.53169331.6390488.81050581l3.6221495-1.17774409-3.0716115 2.03327444c.0732303.1270473.143653.2555141.211198.3853397l-2.6203623-.0006016c-1.8055907-2.50222104-5.1051784-4.17736083-8.8764211-4.17736083-3.7712428 0-7.0708304 1.67513979-8.8764212 4.17736083l-2.48907571.0006016c.06984059-.1342378.14275781-.2670229.21867413-.3982883l-3.05280078-2.02032584 3.60085606 1.17075632c.20121604-.28134331.41693943-.55412683.64626884-.81757204l-2.6457159-2.51928089 3.37171261 1.75956025c.24740012-.23623284.50670705-.46298769.77710325-.67955839l-2.1399576-2.95598279 3.0223434 2.31167041c.2810583-.18681823.5715565-.36356396.8707704-.52961176l-1.5413726-3.30762833 2.5534001 2.80204064c.304086-.13594296.6154444-.26143962.9334386-.37594006l-.8678016-3.55222593 1.9766385 3.20529124c.3179672-.08498093.641349-.1593186.9695876-.22253105l-.144071-3.67324663 1.3148312 3.49787493c.3247793-.03501359.653421-.05928793.9854337-.07239857zm-.0252093 7.13474485c3.019766 0 5.7053676 1.13651152 7.4159214 2.90044331h-14.8318428c1.7105537-1.76393179 4.3961553-2.90044331 7.4159214-2.90044331z" transform="translate(2.6667)"/></g></g></g><rect height="32" mask="url(#b)" rx="2" width="43.335938"/></g></svg>