<svg xmlns="http://www.w3.org/2000/svg" width="512" height="512" viewBox="0 0 512 512"><g fill="none"><path fill="#ce1126" d="M341.3 0H512v512H341.3z"/><path fill="#fff" d="M170.7 0h170.6v512H170.7z"/><path fill="#006847" d="M0 0h170.7v512H0z"/><g transform="translate(187.125 193.078)"><path fill="#a8ac71" d="M35.088 28.422c-7.312 0-8.297-1.533-6.784-8.027.808-3.471-1.96-7.262 1.466-12.983l12.2 7.345c-1.306 2.181-2.347 4.075-3.12 5.638 2.558.757 4.318 4.39 6.258 6.182 5.184 4.79 4.548 10.13-2.575 15.923-1.378 1.122 1.8 4.074.565 7.746 3.398.19 5.828.702 8.067 2.03 6.29 3.73 5.697 10.534.908 15.789-3.395 3.723-7.927 6.744-12.197 8.291-7.104 2.575-14.705 1.589-14.705-7.531 0-.356-.24-1.069 3.133-1.145-5.413-.077-7.643-14.986-7.722-16.68q0-11.338-4.775-11.338v-6.094h8.254c4.681 0 3.378 5.655 4.86 8.932.36-.645.94 18.743 2.874 17.112.72-.608 6.208 6.337 7.056 3.297.636-2.28-3.066-11.256-3.06-15.072.013-8.876 2.793-13.915 3.06-14.269-1.19-.413-2.966-5.146-3.763-5.146"/><path fill="#fcca3d" d="M47.208 14.282q-9.772 7.6-7.945 15.703c1.828 8.103 21.087 0 18.76-7.851q-2.33-7.852-10.815-7.852"/><path fill="#8f4620" d="M116.681 78.342q13.162-39.115-7.76-59.364T63.82.085q-6.963 5.187 0 9.143 6.962 3.957 4.046 7.75-11.66-11.872-19.401-4.936c-7.74 6.936 7.226 5.88 5.641 11.103s-8.296 28.41 1.512 40.117-9.273 9.167-5.393 9.167 17.64 2.725 17.64 0 4.784 10.594 8.878 10.594q4.093 0 7.253-4.681 5.739 4.68 9.235 4.68t15.689-3.063L85.877 60.49q1.39-8.587-1.88-10.446c-3.27-1.86 26.207 16.472 28.516 22.386q2.308 5.913 4.168 5.913"/><path fill="#9fab2f" d="M0 68.692q2.136-6.828 4.424-7.303 1.981-.41 6.149 3.273c7.403 41.235 25.302 57.34 55.003 57.34 30.05 0 48.262-12.238 58.89-50.268q5.65-5.786 7.644-5.143 2.17.7 4.89 8.355C124.807 118.575 101.77 138 65.576 138 29.032 138 8.5 116.039 0 68.692"/><path fill="#2fc2dc" d="M32.269 96.229q42.75 9.093 59.624 9.094c16.874 0-14.805 13.81-27.166 13.81q-8.11 0-19.552-9.862c-1.366-1.178-.042-3.814-4.207-3.85-5.807-.05-13.021-1.416-12.33-2.249.656-.792 9.104-1.03 8.29-1.896a599 599 0 0 1-4.659-5.047"/><rect width="28.459" height="15.288" x="51.229" y="102.558" fill="#f9aa51" rx="2.378"/><path fill="#259485" d="M15.781 74.532q0-5.352 3.614-8.195 4.143-3.26 8.035 0c15.16 21.67 37.832 28.798 69.541 21.358q9.48 3.106 9.957 5.147.605 2.59-6.715 8.746c-37.067 8.698-65.72-.311-84.432-27.056"/><path fill="#fcca3d" d="M78.616 77.591q-17.27 9.116-11.513 9.116c5.756 0 28.286 4.558 23.902 0q-4.385-4.558-12.39-9.116M58.197 66.718q-3.28-9.504-10.11-9.504c-6.828 0-4.9 7.796-8.184 7.796s3.06 5.486 5.887 5.486q2.827 0 12.407-3.778"/></g></g></svg>