<svg height="32" viewBox="0 0 43 32" width="43" xmlns="http://www.w3.org/2000/svg" xmlns:xlink="http://www.w3.org/1999/xlink"><mask id="a" fill="#fff"><path d="m0 0h43.335938v32h-43.335938z" fill="#fff" fill-rule="evenodd"/></mask><mask id="b" fill="#fff"><path d="m0 0h42.666667v32h-42.666667z" fill="#fff" fill-rule="evenodd"/></mask><g fill="none" fill-rule="evenodd"><g fill-rule="evenodd" mask="url(#a)"><g mask="url(#b)" transform="translate(.3346)"><path d="m29.3333333 0h13.3333334v32h-13.3333334z" fill="#d9071e"/><path d="m0 0h16v32h-16z" fill="#006923"/><path d="m13.3333333 0h16v32h-16z" fill="#fff"/><g transform="translate(14.6667 8.8)"><path d="m3.37647154 3.07249433c-.68516577 0-.77743216-.1432469-.63571107-.75012518.07573812-.32432587-.18355197-.67854043.13742908-1.21312878l1.14310872.68635285c-.12237864.20381949-.21992423.38074377-.29227186.52677593.23965664.07079336.40458289.41023918.58636405.57775073.48568659.44756074.4261314.94652606-.24129665 1.48788863-.12917404.10477533.16858782.38068333.0528844.72374483.31846344.01775174.54609181.06565214.75590818.18975948.589325.34858844.53388782.9843469.0850976 1.47530601-.31808309.34797056-.7427953.63023321-1.14290188.77481619-.66567851.24055035-1.37789687.14841897-1.37789687-.70378574 0-.03326183-.02242123-.09985152.29357523-.10699124-.50723966-.00718638-.71612075-1.40027286-.72352312-1.55860484 0-.70628889-.14916584-1.05943333-.44749751-1.05943333v-.56946739h.77343264c.43865787 0 .31656848.52841281.45549159.83465603.03358184-.06030996.08804457 1.75134351.26919881 1.59896458.06751083-.05678712.5817367.5921372.66116353.30812737.05957911-.21303951-.28728793-1.05185673-.28675252-1.40841464.00124538-.82936678.26174735-1.30023148.28675252-1.33333334-.11152758-.03859948-.27787228-.48085815-.35255487-.48085815zm.58664096 2.82693674c.00702141-.00735842.01393931-.01476301.02074655-.02220987-.00226908.00248229-.00449876.00565166-.00665388.00945573zm-.58415922.39566939c-.00081388.00032463.00657597-.00154206.01495954-.00288274zm-.63819281.44575758c.01816061-.00041033.03743897-.00062429.0579036-.00062429-.00682155 0-.0135766-.0000396-.0202659-.00011871z" fill="#a8ac71" fill-rule="nonzero"/><path d="m4.5121538 1.75117975c-.61047913.473474-.85863541.96260198-.74446883 1.46738395.17124986.75717295 1.97592601 0 1.7577614-.73369197-.14544307-.48912799-.48320726-.73369198-1.01329257-.73369198z" fill="#fcca3d"/><path d="m11.0219611 7.73717646c.8222196-2.43675097.5798267-4.28580892-.7271786-5.54717386-1.30700539-1.26136494-2.71565937-1.84984459-4.22596198-1.76543894-.43493426.32314856-.43493426.6079488 0 .85440071.43493426.2464519.56128839.48783003.37906239.72413439-.72839007-.73959172-1.33435393-.89333901-1.81789158-.46124187-.72530648.64814571.67707018.54950201.52861692 1.03752871-.14845325.4880267-.77739726 2.65476612.14162529 3.74869637s-.86891407.85652461-.50526968.85652461 1.65291905.25463289 1.65291905 0c0-.25463288.4482231.98997679.83180076.98997679.25571843 0 .48226987-.1458023.6796543-.43740691.35847095.29160461.64691721.43740691.86533879.43740691s.70845681-.0954185 1.47010574-.28625551l-2.15929006-1.81936258c.08677609-.53498865.02805794-.86037911-.17615447-.97617139-.3063186-.17368842 2.45570483 1.53924281 2.67199723 2.09181269.144195.36837992.2744036.55256988.3906259.55256988z" fill="#8f4620"/><path d="m.08862129 6.83543513c.13346528-.42538258.27164384-.65283869.41453569-.68236832.1237976-.02558368.31585778.07634237.57618053.30577814.69364842 3.85314395 2.37089532 5.35812145 5.1539049 5.35812145 2.81575468 0 4.52231119-1.1435771 5.51821009-4.69725699.3529213-.36044429.5916526-.52063343.7161937-.48056742.1355905.0436207.2883294.30386947.4582169.78074632-1.1425035 4.07681109-3.30109112 5.89195479-6.69262069 5.89195479-3.42427467 0-5.34815716-2.0521345-6.14462112-6.47640797z" fill="#9fab2f" fill-rule="nonzero"/><path d="m3.11231011 9.4085735c2.67054334.56653261 4.53285343.8497989 5.58693026.8497989 1.58111523 0-1.38728905 1.2903917-2.54551076 1.2903917-.5066452 0-1.11733257-.3071413-1.83206212-.9214238-.12807353-.1100743-.00401017-.3564425-.39424287-.3598094-.54411812-.0046947-1.22010457-.1323117-1.15542393-.2101343.06149993-.07399563.85318164-.09630054.77688723-.17715757-.08392779-.0889469-.22945373-.24616874-.43657781-.47166553z" fill="#2fc2dc"/><rect fill="#f9aa51" height="1.428571" rx=".222222" width="2.666667" x="4.888889" y="10"/><path d="m1.56736538 7.3811803c0-.3333925.11288121-.58865089.33864363-.76577517.2587949-.20304026.5097461-.20304026.75285359 0 1.42058621 2.02483179 3.54499478 2.69095653 6.51621895 1.99571601.59225123.19354077.90325255.35388498.93300405.48103263.0377558.16135584-.17198458.43376685-.62922121.81723305-3.47335035.81273368-6.1581811-.02911579-7.91149901-2.52820652z" fill="#259485" fill-rule="nonzero"/><g fill="#fcca3d"><path d="m7.45511841 7.66700626c-1.07881904.56789075-1.43842539.85183612-1.07881904.85183612.53940952 0 2.65046324.42591806 2.23968383 0-.27385293-.28394537-.66080786-.56789074-1.16086479-.85183612z"/><path d="m5.54185552 6.65096308c-.20498589-.59205096-.52076109-.88807644-.94732558-.88807644-.63984674 0-.45923595.7285002-.76693505.7285002-.30769911 0 .28670115.51264829.55163378.51264829.17662176 0 .56416404-.11769069 1.16262685-.35307205z"/></g></g></g></g><rect height="32" mask="url(#a)" rx="2" width="43.335938"/></g></svg>