<svg height="32" viewBox="0 0 43 32" width="43" xmlns="http://www.w3.org/2000/svg" xmlns:xlink="http://www.w3.org/1999/xlink"><mask id="a" fill="#fff"><path d="m0 0h43.335938v32h-43.335938z" fill="#fff" fill-rule="evenodd"/></mask><mask id="b" fill="#fff"><path d="m0 0h42.666667v32h-42.666667z" fill="#fff" fill-rule="evenodd"/></mask><g fill="none" fill-rule="evenodd"><g fill-rule="evenodd" mask="url(#a)"><g mask="url(#b)" transform="translate(.3346)"><path d="m0 0h42.6666667v32h-42.6666667z" fill="#f7fcff"/><g fill="#e31d1c"><path d="m.036211 6.666667h42.666667v3.866667h-42.666667z"/><path d="m.036211 13.600016h42.666667v3.866667h-42.666667z"/><path d="m.148886 20.266683h42.666667v3.333333h-42.666667z"/><path d="m.148886 26.93335h42.666667v3.6h-42.666667z"/><path d="m0 0h42.666667v3.333333h-42.666667z"/></g><path d="m0 0h21.3333333v16h-21.3333333z" fill="#3d58db"/><path d="m4.79139588 8.26962827c0 1.83496343.86429755 3.57018003 2.62262452 3.57018003 2.6381111 0 3.1513526-.5624273 4.3823518-1.3383953.2910385.6537-.6906388 3.4511706-4.41835091 3.4511706-2.98167601-.0600274-5.39131415-2.455412-5.39131415-5.68295682 0-3.70468458 2.7247671-5.70541365 5.31648841-5.68276366 2.28803704 0 4.71474395 1.2983394 4.64037755 2.95464059-1.0780601-1.0531255-2.24865288-1.0531255-4.19730271-1.0531255s-2.95487451 1.9460557-2.95487451 3.78125006z" fill="#feca00"/><path d="m14.6666667 9.73331706-1.236068 1.80422604.0604975-2.18619205-2.0604975.73310705 1.3339549-1.73310705-2.0978869-.61803399 2.0978869-.61803399-1.3339549-1.73310702 2.0604975.73310702-.0604975-2.18619208 1.236068 1.80422607 1.2360679-1.80422607-.0604974 2.18619208 2.0604974-.73310702-1.3339549 1.73310702 2.097887.61803399-2.097887.61803399 1.3339549 1.73310705-2.0604974-.73310705.0604974 2.18619205z" fill="#feca00"/></g></g><rect height="32" mask="url(#a)" rx="2" width="43.335938"/></g></svg>