<svg height="32" viewBox="0 0 43 32" width="43" xmlns="http://www.w3.org/2000/svg" xmlns:xlink="http://www.w3.org/1999/xlink"><defs><path id="a" d="m0 0h42.666667v32h-42.666667z"/><path id="b" d="m0 0v32l24-16z"/><mask id="c" fill="#fff"><path d="m0 0h43.335938v32h-43.335938z" fill="#fff" fill-rule="evenodd"/></mask><mask id="d" fill="#fff"><path d="m0 0h42.666667v32h-42.666667z" fill="#fff" fill-rule="evenodd"/></mask><mask id="e" fill="#fff"><use fill="#fff" fill-rule="evenodd" xlink:href="#a"/></mask><mask id="f" fill="#fff"><use fill="#fff" fill-rule="evenodd" xlink:href="#b"/></mask></defs><g fill="none" fill-rule="evenodd"><g fill-rule="evenodd" mask="url(#c)"><g mask="url(#d)" transform="translate(.3346)"><use fill="#f7fcff" xlink:href="#a"/><path d="m0 0h42.666667v10.666667h-42.666667z" fill="#feca00" mask="url(#e)"/><path d="m0 21.333333h42.666667v10.666667h-42.666667z" fill="#093" mask="url(#e)"/><path d="m-1.333333 9.333333h45.333333v13.333333h-45.333333z" fill="#272727" mask="url(#e)" stroke="#fff" stroke-width="2.666667"/><use fill="#f50100" xlink:href="#b"/><path d="m10.7583727 19.1376283-5.03857901 4.0672717 2.31116399-5.4354741-3.97122373-3.8243018h4.68747507l1.92344518-4.61179077 2.0429131 4.61179077h4.6795l-4.1810002 3.8243018 2.0924723 5.4354741z" fill="#feca00" mask="url(#f)"/><g mask="url(#f)"><g transform="translate(5.3333 10.6667)"><path d="m2.87466323 5.31228603-.85453474 2.85392987c1.92323305-.0190279 3.00034791.06861873 3.2313446.26293989.69599328-.43399378 1.76041467-.52164041 3.19326418-.26293989l-1.14315832-3.05431432c-.9662679-.4378388-1.64963651-.5367247-2.05010586-.29665772-.98158994-.22172922-1.77385989-.05604849-2.37680986.49704217z" fill="#f7fcff" fill-rule="evenodd"/><path d="m10.0850691 9.62170349c.2214783.29412767.1625845.71210891-.1315432.93358731-.29412766.2214784-.71210894.1625845-.93358732-.1315431l-5.57345209-7.40165454c-.22147838-.29412767-.1625845-.71210895.13154316-.93358733.29412766-.22147837.71210894-.16258449.93358732.13154317z" fill="#000" fill-rule="nonzero"/><path d="m3.965377 2.45299-.533334-.64" fill="none" stroke="#000" stroke-linecap="round" stroke-linejoin="round" stroke-width="1.333333"/><g fill="#000" fill-rule="evenodd"><path d="m2.1395873 1.81672345-1.61134582 2.58044894.80567291 1.39559267 1.84290561-2.73898187.33147899-.84693857-.33147899-.39012117z"/><path d="m.05198287 9.47806436.7768296 1.09568144 5.99415138-7.09213072.24864053.2778763 1.38172559-1.29991095 2.20823323-2.40224726-2.20823323 1.80479104-.71413765-.19801829-.66758794 1.04880187h-.66971522l-4.89610372 5.45016133z"/></g></g></g></g></g><rect height="32" mask="url(#c)" rx="2" width="43.335938"/></g></svg>