<svg height="32" viewBox="0 0 43 32" width="43" xmlns="http://www.w3.org/2000/svg" xmlns:xlink="http://www.w3.org/1999/xlink"><defs><path id="a" d="m0 0h42.666667v32h-42.666667z"/><mask id="b" fill="#fff"><path d="m0 0h43.335938v32h-43.335938z" fill="#fff" fill-rule="evenodd"/></mask><mask id="c" fill="#fff"><path d="m0 0h42.666667v32h-42.666667z" fill="#fff" fill-rule="evenodd"/></mask><mask id="d" fill="#fff"><use fill="#fff" fill-rule="evenodd" xlink:href="#a"/></mask></defs><g fill="none" fill-rule="evenodd"><g fill-rule="evenodd" mask="url(#b)"><g mask="url(#c)" transform="translate(.3346)"><use fill="#093" xlink:href="#a"/><path d="m0 0v32l42.6666667-32z" fill="#3195f9" mask="url(#d)"/><g mask="url(#d)"><g transform="translate(-5.3333 -5.3333)"><path d="m49.0248497.51105918 4.254735 9.15529462-48.58878604 33.0734031-5.1210459-9.2781935z" fill="#e31d1c" fill-rule="nonzero" stroke="#f7fcff" stroke-width="2.666667"/><path d="m15.3649984 6.93334961.4179548 2.72700152 2.5706301-1.00154122-1.0015412 2.57062999 2.7270015.4179549-2.1526752 1.7254603 2.1526752 1.7254603-2.7270015.4179549 1.0015412 2.57063-2.5706301-1.0015412-.4179548 2.7270015-1.7254603-2.1526751-1.7254603 2.1526751-.4179549-2.7270015-2.57063005 1.0015412 1.00154122-2.57063-2.72700152-.4179549 2.15267515-1.7254603-2.15267515-1.7254603 2.72700152-.4179549-1.00154122-2.57062999 2.57063005 1.00154122.4179549-2.72700152 1.7254603 2.15267515zm-1.7254603 3.10617219c-1.8409492 0-3.3333334 1.4923842-3.3333334 3.3333333 0 1.8409492 1.4923842 3.3333334 3.3333334 3.3333334 1.8409491 0 3.3333333-1.4923842 3.3333333-3.3333334 0-1.8409491-1.4923842-3.3333333-3.3333333-3.3333333zm0 .6666667c1.4727593 0 2.6666666 1.1939073 2.6666666 2.6666666 0 1.4727594-1.1939073 2.6666667-2.6666666 2.6666667-1.4727594 0-2.6666667-1.1939073-2.6666667-2.6666667 0-1.4727593 1.1939073-2.6666666 2.6666667-2.6666666z" fill="#feca00" fill-rule="evenodd"/></g></g></g></g><rect height="32" mask="url(#b)" rx="2" width="43.335938"/></g></svg>