<svg height="32" viewBox="0 0 43 32" width="43" xmlns="http://www.w3.org/2000/svg" xmlns:xlink="http://www.w3.org/1999/xlink"><mask id="a" fill="#fff"><path d="m0 0h43.335938v32h-43.335938z" fill="#fff" fill-rule="evenodd"/></mask><mask id="b" fill="#fff"><path d="m0 0h42.666667v32h-42.666667z" fill="#fff" fill-rule="evenodd"/></mask><g fill="none" fill-rule="evenodd"><g fill-rule="evenodd" mask="url(#a)"><g mask="url(#b)" transform="translate(.3346)"><path d="m29.3333333 0h13.3333334v32h-13.3333334z" fill="#409100"/><path d="m0 0h13.3333333v32h-13.3333333z" fill="#409100"/><path d="m13.3333333 0h16v32h-16z" fill="#fff"/><path d="m7.9889466 1.59997559c.29591359 1.11802694.44387038 1.75221493.44387038 1.90256398v1.1803679c0 .63341159-1.00927974.83523189 0 .83523189s.96634606.32252885.35195659.32252885.17642626.40583282 1.27956763.40583282c1.1031413 0-.925079.47721665-1.63152422.47721665-.5434194 0 .16720597.13060835.94519103.19088913l.23422962.01577347c.15591803.00884118.3097837.01406551.45210357.01406551.5616551 0 .1002955.17454911-.42822212.35456369l-.18776776.06348618c-.28116514.0947437-.54963498.18544393-.66357775.24701175-.17013677.09193167.06988861.11767945.72007615.07724334-.24131354.07142707-.48065662.14421516-.66383235.2002176-.69536613.21259476 0 0 .07785052.25463759.05037387.1647655.45277308-.03475507.88304414-.27209902l.23550917-.1312492c.0663721-.03711883.132003-.07372388.1956981-.108612l.0107802-.00103694.2060162-.01910137c.3047694.35166697.457154.63487306.457154.84961826 0 .1942468-.6428553.24684339-1.30815935.30831774.03299785-.04261261-.10493085-.02000335-.30690092.03004316-.33171163.03376514-.64447592.07609025-.85919245.14584342-.20566425.06681242-.17108588.09472324-.00402447.10072033l-.0452089.01388965c-.47965711.1466459 0 0 .07785053.25463759.05190034.16975839.33793339-.0045168.63511897-.20599299l.13821453-.09450119.06854999-.00423874.36274938-.02436941c.31849633-.0214108.61373309-.04014524.78384869-.04014524.5954046 0-.59540452.28704245-1.05075266.28704245-.45534813 0 1.50790666.24237619 1.87003046.45666468.2046786.12111959-.2539318.10532138-.7849624.06868786l-.3719451-.0272638c-.28699405-.02157503-.5554509-.04142406-.71312296-.04142406-.51806535 0-.61438947.42337048-.25990084.42337048h1.3106535c.4957387 0 1.0117924.7583676.8192778.7583676s-1.1107765.4258367-2.1299313.4258367l1.9608262.0004748c.5529648.0051536 1.5683808.0536534 1.5683808.4513944 0 .4507731-.6380796.3360932-1.2067611.6443726-.5686816.3082795 1.7007273.5883343 1.7007273.5883343s-.8982196.2793697-1.3353314.2793697c-.4371117 0 .2032856.4129575 1.3353314.4129575s.3712587.7950871.3712587.9744373c0 .1793501-.8652249.3025249-1.5033045.8594832-.6380795.5569582.908309 0 1.5033045 0s.8484549.0247993.6547132.3133489c-.1937416.2885496-1.9241915.7450773-2.3613033.7450773h2.3613033c.6547133 0-.1833797.5172245-1.0259719.5172245s-1.1320458.4729692-1.3353314.4729692h1.7065901c.1634493 0 .3572506-.4908741.4713335-.4729692.7719767.1211588.4256151 1.0928165 0 1.0928165-.4885126 0-1.974638.3275983-1.7408118.658211.2338261.3306126.7392451-.3306127 1.9241915-.3306127s.1139818.3306127-.1833797.3306127c-.2973614 0-1.555387.2401839-1.974638.4477588-.2545452.1260276.5278961.0990217 1.4002555.0583521l.310083-.0146944c.4660986-.0222118.9261707-.0436577 1.2396886-.0436577.9753891 0-2.3119475.8298884-3.5187086.8298884s.8025077.3186925 1.2067611.3186925 1.7994388.2753963 2.8432715.2753963c1.0438326 0-1.0438327.6876688-1.9780466.6876688-.0424643 0-.0845941-.0001011-.1262913-.0002427l-.360933-.0007328c-.6878706.0028869-1.1398909.0515084-.782254.4990181.4371117.5469563 2.857451-.2625171 3.6367806.1908593.5121309.297933-1.0624706.3527476-2.4295142.3553125l-.3504032-.0003907c-.5711298-.0022082-1.0653103-.011156-1.293975-.011156-.8003262 0 .8003263.2969074 2.1779236.2969074l.3822582-.0001213c1.0559308.0006584 1.3142426.0230025 1.3142426.404036 0 .4233705-3.7956188.2127813-4.2398203.2127813s-.5013287.5561362-1.0117924.5561362c-.5104636 0-.3855745-.7667253-.999964-.3415736-.40959298.2834344-.20479649 1.8548644.6143895 4.7142899h-3.31692285v-4.0393634c-.71961191-.2249755-1.77080704-.2249755-3.15358537 0s-2.29217801 0-2.72819902-.6749265c0 0 .08707695-.0715209.26123085-.2145626.26123085-.2145625 1.44372311 0 2.11943297 0s1.5641129-.2127813 2.36293939-.2127813-2.36293939-1.0445879-3.03864925-.4039147c-.67570986.6406733-2.57058792-.2969074-2.57058792-.8315325s1.49839616 0 2.10620782 0c.60781165 0-.60781166-1.1857114-1.24057386-1.1857114s.6327622-.2753963 1.24057386-.2753963c.60781165 0 1.14008996.2753963 1.48762516.2753963s-1.74517478-.899491-2.09543682-.899491h1.74790162c1.14008997 0 .63957929.3054022 1.5641129.3054022s.41829658-.5057154.41829658-.5057154-3.12249944-.324173-3.7303111-.7719318c-.60781165-.4477589 2.09543682 0 3.01751628 0 .53540097 0-.20681786-.2219151-1.0143876-.4080374l-.26994739-.0603616c-.4932436-.1069363-.9605896-.189812-1.12536963-.189812h2.11316125c.97307128 0 2.14642864.658211 3.33137505.658211s-3.95691114-1.2780583-4.73160513-1.7510275c-.49980258-.3051415.22812349-.0196866 1.07869171.2213148l.25774465.0703318c.3888206.1015921.78009824.1813226 1.07313191.1813226 1.0093382 0-1.34283019-.9901937-1.98240948-.9901937s-1.25189022-.2878645-.67570986-.553944c.57618036-.2660794 2.65811934.553944 3.27970152.553944.62158217 0 .89712891.5172245 1.70045468.5172245s-1.70045468-1.0711685-2.74033344-1.0711685c-1.03987875 0-1.2165777-.5044822-.59104161-.5044822.62553608 0-1.40023008-.8594832-1.40023008-.8594832s-.2936802-.6095714.42715879-.6095714h.97307129c.33349199 0-.333492-1.0571931-.97307129-1.0571931s-.08180507-.3193775.97307129-.3193775c1.05487635 0 1.3898681.5987472 2.52804928 1.0117047s.27963699-.6923272 0-.6923272-3.15358537-.9008611-3.15358537-.9008611.29204409-.3318458 0-.783715 1.41345523 0 1.63487428 0 1.13709045.2647093 1.99099902.4518692-2.90067137-1.3787629-3.33382921-1.3787629c-.43315783 0 .92453361-.2573106 1.7233601-.2573106s.75656054.2573106 1.61046911.2573106-1.61046911-.91524751-2.4092956-.91524751-.32653856-.78809939 0-.78809939c.32653857 0 1.93700767.27895869 2.74033344.27895869s-1.70045468-.48420432-1.94150695-.8844196c-.16825287-.27934759.26696527-.16872968.9481401-.07643624.34377394.18072729.63029963.29645846.67228461.15913179.01223366-.04001448.03971616-.06849118.07465459-.08889311.0808525.00422212.16317774.00619756.24642765.00619756.47560456 0 .25664412-.07239866-.20054829-.15907837l-.04268343-.01286367c-.69536613-.21259476-2.20015471-.66708602-1.63724703-.38662247.11009104.05485185.23378873.12251626.36214221.19397864-.37921622-.0500097-.69779769-.08481711-.80370032-.08481711-.3805299 0-.76215055-.29403013 0-.29403013l1.41485642-.00013521c-.46016345-.00175781-1.03432651-.02636704-1.03432651-.37089628 0-.37103149 1.13818118 0 1.61046911 0 .47228792 0 .58981454 0 .33103784-.22072811-.21564725-.1839401-.89476187-.20565287-1.41346975-.20778101l-.28698493-.00006787c-.32219267 0 .18532895-.10522179.75957017-.18413812l.23144629-.02985181c.26995209-.03246287.53227912-.05537784.70943822-.05537784.60740263 0-.80332577 0-1.70045468-.40583282-.89712891-.40583281.89712891 0 1.70045468 0s-.33103784-.54024267-1.18494641-.54024267c-.74252919 0-.29731271-.21973898.17248047-.49201297l.14051209-.08309105.06862808-.04241405c.51864413-.32691327.80332577.83523189.80332577.32691327 0-.16943954-.03678198-.28678365-.07356397-.35975582l-.02218015-.03873159.03806997.0309339.05767415.04064024c.22069189.14724342.22069189-.04589939 0-.57942842-.2206919-.14733476-.2206919-.22100214 0-.22100214.33103784 0-.10648293-.37993734-.33103784-.37993734-.14970328 0 .04690157-.12116526.58981454-.36349577zm-.15131701 18.75825711-.43994908.0000848c-.06581708.0004919-.13450039.0012351-.20436278.0023458l-.21143727.0045518c-.5642672.0156998-1.09601767.0623786-.7314279.19963.52409781.1972988 1.41836354.8064591 1.41836354.2995106 0-.4473075.47830489-.4999319.16881349-.506123zm.97458937-.334968c-.61435606 0 0 0 0 .5069485s.89426573-.1022118 1.41836354-.2995106c.3645898-.1372514-.1671607-.1839302-.7314279-.19963l-.21143727-.0045517c-.06986239-.0011108-.1385457-.001854-.20436278-.0023459l-.18716536-.0008382zm-1.37987203-1.0023243-.27080667.0002432c-.65655502.0028322-1.72211706.026949-1.24359298.2070915.5240978.1972989 1.41836354.8064591 1.41836354.2995106 0-.4771279.54420467-.5051943.09603611-.5068453zm1.55464258.0002432-.27080667-.0002432c-.44816856.001651.09603612.0297174.09603612.5068453 0 .5069485.89426573-.1022117 1.41836354-.2995106.4785241-.1801425-.58703797-.2042593-1.24359299-.2070915zm-1.44985814-1.0021426-.42361893.0001331c-.53335833.0033682-1.24538248.0209238-.88505852.1081915.42788471.1036303 1.15798248.423589 1.15798248.1573166 0-.2307694.37673742-.2615387.15069497-.2656412zm3.55041503-1.1101771c-.1073638.0244491-1.8817534.4412609-2.32545303.4412609-.50157349 0 0 0 0 .2662724 0 .1394761.50700465-.0295 1.05136224-.2369507l.29780389-.1153478c.3944835-.1545575.7635583-.3035019.926562-.3429802.0164571-.0039858.0290238-.0070303.0379464-.0092002zm-.5978189-1.8704425c-1.03776543 0-1.23293869.3402036-1.51652959.3402036h-.2835909c-.36721386.2901937-.36721386.4352906 0 .4352906.55082079 0 2.83788599-.7754942 1.80012049-.7754942zm-.0114631-.8552257c.2251631-.1121855.1194947-.1067781-.1328694-.0462965l-.1675489.0423978c-.1214708.0320042-.2605206.0708198-.40536471.1124454l-.22013882.0640459c-.25846145.0760121-.51662268.1545033-.7113252.2140298-.69536613.2125948 0 0 .07785052.2546376.05037387.1647655.45277308-.0347551.88304414-.272099l.23550917-.1312492c.156251-.0873839.3083943-.1719204.4408432-.2379118zm-4.80799903-.668285c.56290768.2804635 1.48154599.8958976 1.55939651.64126.07785052-.2546375.77321665-.0420428.07785052-.2546375-.69536613-.2125948-2.20015471-.6670861-1.63724703-.3866225zm4.80799903-.668285c.3602609-.1794967-.1264066-.0579558-.70578301.1085467l-.22013882.064046c-.25846145.076012-.51662268.1545032-.7113252.2140298-.69536613.2125947 0 0 .07785052.2546376.07785053.2546375.99648884-.3607965 1.55939651-.6412601zm-4.80799903-.668285c.56290768.2804636 1.48154599.8958977 1.55939651.6412601s.77321665-.0420428.07785052-.2546376-2.20015471-.667086-1.63724703-.3866225zm4.80799903-.668285c.2251631-.1121854.1194947-.106778-.1328694-.0462964l-.1675489.0423978c-.39478012.1040138-.97523834.2799718-1.33682873.3905211-.69536613.2125948 0 0 .07785052.2546376.07785053.2546376.99648884-.3607965 1.55939651-.6412601zm-4.80799903-1.0024274c.56290768.2804635 1.48154599.8958976 1.55939651.64126.07785052-.2546375.77321665-.0420428.07785052-.2546375-.13907322-.042519-.31052335-.0947138-.49133342-.1487697l-.21999178-.0652602c-.66461514-.1954596-1.33121536-.3745264-.92592183-.1725926zm3.85255798-.0133423c.2392987-.1416022-.08677685-.0693475-.4803649.0400579l-.20011515.0569805c-.16760947.0487001-.33253413.098737-.45875969.137328-.47965711.1466459 0 0 .07785053.2546376.04671031.1527826.28306811.0268979.54652085-.146683l.17786539-.120252c.11887451-.0814993.23596575-.1622813.33700297-.222069z" fill="#409100" transform="translate(13.3333 .8)"/></g></g><rect height="32" mask="url(#a)" rx="2" width="43.335938"/></g></svg>