<svg height="32" viewBox="0 0 43 32" width="43" xmlns="http://www.w3.org/2000/svg" xmlns:xlink="http://www.w3.org/1999/xlink"><defs><path id="a" d="m0 0h42.666667v32h-42.666667z"/><path id="b" d="m3.65128271.00570069-3.64918641 6.30770022h7.35564284z"/><mask id="c" fill="#fff"><path d="m0 0h43.335938v32h-43.335938z" fill="#fff" fill-rule="evenodd"/></mask><mask id="d" fill="#fff"><path d="m0 0h42.666667v32h-42.666667z" fill="#fff" fill-rule="evenodd"/></mask><mask id="e" fill="#fff"><use fill="#fff" fill-rule="evenodd" xlink:href="#a"/></mask><mask id="f" fill="#fff"><use fill="#fff" fill-rule="evenodd" xlink:href="#b"/></mask></defs><g fill="none" fill-rule="evenodd"><g fill-rule="evenodd" mask="url(#c)"><g mask="url(#d)" transform="translate(.3346)"><use fill="#f7fcff" xlink:href="#a"/><path d="m0 0h42.666667v10.666667h-42.666667z" fill="#0080ec" mask="url(#e)"/><path d="m0 21.333333h42.666667v10.666667h-42.666667z" fill="#0080ec" mask="url(#e)"/><g mask="url(#e)"><g transform="translate(16 10.6667)"><path d="m5.02803152 8.93273431.00034866 1.72535999c-1.80713385-.10187-3.37376429-1.10344529-4.25912209-2.56395674l1.67965034-.5861799c.60180041.79697395 1.52627065 1.33666203 2.57912309 1.42477665zm3.14040275-1.36094474 1.84934733.31324057c-.84514531 1.54824856-2.43548655 2.63133516-4.28895895 2.76719496l-.00029483-1.72814126c.98734895-.10743833 1.85521904-.61277103 2.43990645-1.35229427zm2.49823243-2.23845624c0 .08856917-.002159.17663409-.0064271.264145l-1.71671449-.14495291c.00128299-.03957311.00192944-.0793071.00192944-.11919209 0-1.62153103-1.06847411-2.99350657-2.53978044-3.45028473l.46417442-1.65838992c2.19650757.65970994 3.79681817 2.69730601 3.79681817 5.10867465zm-7.26443109-4.97298673.44501833 1.67974937c-1.24621344.56323951-2.11565129 1.81306625-2.12594934 3.26711599l-1.71652313.25402347c-.00317702-.07557138-.00478147-.15154937-.00478147-.2279021 0-2.26446286 1.41126139-4.19930796 3.40223561-4.97298673zm1.93109772-.3603466c.2513371 0 .49861357.01738562.7406924.05101986l-.26406638 1.70135886c-.15595861-.02055823-.31505346-.0311666-.47662602-.0311666-.23490326 0-.46456937.02242289-.68697471.06524503l-.12423997-1.72515776c.264514-.0403655.53541966-.06129939.81121468-.06129939z" fill="#d0ab00" fill-rule="nonzero"/><g fill="none" fill-rule="evenodd" transform="translate(1.6485 1.2606)"><use fill="#7cdfff" xlink:href="#b"/><g mask="url(#f)" stroke-width="1.333333"><circle cx="3.684848" cy="5.042424" r="3.187879" stroke="#e31d1c"/><circle cx="3.684848" cy="5.042424" r="3.187879" stroke="#ffd018"/><circle cx="3.684848" cy="5.042424" r="3.187879" stroke="#4edd00"/><circle cx="3.684848" cy="5.042424" r="2.521212" stroke="#3d58db"/></g><path d="m-.290909 4.363636h8.339394v2.424242h-8.339394z" fill="#3d58db" mask="url(#f)"/><path d="m.26741448 5.39395596 1.66211421-1.65286717.51009814.82643358.35635776-1.00784451.39575558.7554632.41570135-.57405227.53784448.57405227.49311462-.7554632.42152709.7554632.48363544-.57405227 1.13009548 1.20091215.20340731.45195502-6.60965146.33527949z" fill="#97c923" mask="url(#f)"/></g></g></g></g></g><rect height="32" mask="url(#c)" rx="2" width="43.335938"/></g></svg>