<svg height="32" viewBox="0 0 44 32" width="44" xmlns="http://www.w3.org/2000/svg" xmlns:xlink="http://www.w3.org/1999/xlink"><mask id="a" fill="#fff"><path d="m0 0h43.335938v32h-43.335938z" fill="#fff" fill-rule="evenodd"/></mask><mask id="b" fill="#fff"><path d="m0 0v32h29.3333333l-13.3333333-16h13.3333333z" fill="#fff" fill-rule="evenodd"/></mask><g fill="none" fill-rule="evenodd"><g fill-rule="evenodd" mask="url(#a)"><path d="m0 0h43.335938v32h-43.335938z" fill="#fff"/><g transform="translate(.2301)"><path d="m.66666667 1.12302813 26.05222623 14.21030517h-12.142254l13.3333334 16h-27.24330563z" stroke="#4857a1" stroke-width="1.333333"/><path d="m7.77283884 26.680303-1.63355605 2.1201044-.07540852-2.6753806-2.56774069.7550203 1.51154249-2.2087524-2.52113565-.8984559 2.52113565-.8984558-1.51154249-2.2087524 2.56774069.7550203.07540852-2.6753806 1.63355605 2.1201043 1.63355605-2.1201043.07540853 2.6753806 2.56774068-.7550203-1.5115425 2.2087524 2.5211357.8984558-2.5211357.8984559 1.5115425 2.2087524-2.56774068-.7550203-.07540853 2.6753806z" fill="#f7fcff" mask="url(#b)"/><path d="m7.73339844 10.8517384-.85311449 1.1072114-.03938164-1.3972009-1.3409866.3943046.78939367-1.15350719-1.31664742-.46921298 1.31664742-.46921298-.78939367-1.15350721 1.3409866.39430467.03938164-1.3972009.85311449 1.10721133.85311449-1.10721133.03938163 1.3972009 1.34098661-.39430467-.78939367 1.15350721 1.3166474.46921298-1.3166474.46921298.78939367 1.15350719-1.34098661-.3943046-.03938163 1.3972009z" fill="#f7fcff" mask="url(#b)"/><path d="m7.39450136 10.5414369c-.0079051 1.9789485.54947251 3.4959797 1.67213282 4.5510937-1.92154799.3130957-3.20000013-2.1042633-3.20000013-4.5221619 0-2.41789866 1.74268926-3.88181618 3.20000013-4.78370692-1.10685012 1.1909016-1.66422772 2.77582664-1.67213282 4.75477512z" fill="#f9fafa" mask="url(#b)" transform="matrix(0 -1 1 0 -2.9867 17.9199)"/></g></g><rect height="32" mask="url(#a)" rx="2" width="43.335938"/></g></svg>