<svg height="32" viewBox="0 0 43 32" width="43" xmlns="http://www.w3.org/2000/svg" xmlns:xlink="http://www.w3.org/1999/xlink"><defs><path id="a" d="m0 0h42.666667v32h-42.666667z"/><mask id="b" fill="#fff"><path d="m0 0h43.335938v32h-43.335938z" fill="#fff" fill-rule="evenodd"/></mask><mask id="c" fill="#fff"><rect fill="#fff" fill-rule="evenodd" height="32" rx="2.666667" width="42.666667"/></mask><mask id="d" fill="#fff"><use fill="#fff" fill-rule="evenodd" xlink:href="#a"/></mask></defs><g fill="none" fill-rule="evenodd"><g fill-rule="evenodd" mask="url(#b)"><g mask="url(#c)" transform="translate(.3346)"><use fill="#2e42a5" xlink:href="#a"/><path d="m0 10.666667h42.666667v5.333333h-42.666667z" fill="#feca00" mask="url(#d)"/><g fill="#f7fcff" mask="url(#d)"><path d="m6.43950551 10.1061723-2.0601133 2.67371-.09509934-3.37398108-3.23823399.95217268 1.90623933-2.78550605-3.17945937-1.13306234 3.17945937-1.13306234-1.90623933-2.78550601 3.23823399.95217264.09509934-3.37398107 2.0601133 2.67371003 2.06011329-2.67371003.09509935 3.37398107 3.23823395-.95217264-1.90623929 2.78550601 3.17945939 1.13306234-3.17945939 1.13306234 1.90623929 2.78550605-3.23823395-.95217268-.09509935 3.37398108z" transform="translate(5.3333 16)"/></g></g></g><rect height="32" mask="url(#b)" rx="2" width="43.335938"/></g></svg>