<svg height="32" viewBox="0 0 43 32" width="43" xmlns="http://www.w3.org/2000/svg" xmlns:xlink="http://www.w3.org/1999/xlink"><defs><path id="a" d="m0 0h42.666667v32h-42.666667z"/><mask id="b" fill="#fff"><path d="m0 0h43.335938v32h-43.335938z" fill="#fff" fill-rule="evenodd"/></mask><mask id="c" fill="#fff"><path d="m0 0h42.666667v32h-42.666667z" fill="#fff" fill-rule="evenodd"/></mask><mask id="d" fill="#fff"><use fill="#fff" fill-rule="evenodd" xlink:href="#a"/></mask><mask id="e" fill="#fff"><path d="m0 0h42.666667v21.333333h-42.666667z" fill="#fff" fill-rule="evenodd"/></mask></defs><g fill="none" fill-rule="evenodd"><g fill-rule="evenodd" mask="url(#b)"><g mask="url(#c)" transform="translate(.3346)"><use fill="#2e42a5" xlink:href="#a"/><path d="m0 21.333333h42.666667v10.666667h-42.666667z" fill="#feca00" mask="url(#d)"/><g mask="url(#d)"><g mask="url(#e)"><g fill-rule="nonzero"><path d="m2.31709759 3.03720977 8.45695901-1.95641061 18.0281023 9.96123324 1.9076627 1.1154985 17.124758 8.9542065 4.0569288 2.8280385-9.2795667.8558114-14.9621316-8.4400088-10.8125051-5.3135461z" fill="#fff" transform="matrix(1 0 0 -1 -5.3333 23.2097)"/><path d="m3.0600886 3.07479021 4.55325845-1.49352102 42.58527355 23.93735621h-6.3933048z" fill="#f50100" transform="matrix(1 0 0 -1 -5.3333 24.4331)"/><path d="m2.17231325 3.56428196-.33578583-2.01335376 8.93752918-.47450074 14.4081545 8.43912735 1.3584755-.46411947 26.8998589 13.60636906-11.1064387 2.1377829-14.8479583-8.2025044-11.6152944-5.6123472z" fill="#fff" transform="matrix(-1 0 0 -1 48 23.2053)"/><path d="m2.14148664 3.44322831 4.55325844-1.49352102 18.13325082 10.24882581 5.3761196 1.1450767 22.1410161 11.6659731h-6.3933047l-22.1285765-11.3890724-5.8778395-1.3730697z" fill="#f50100" transform="matrix(-1 0 0 -1 48 24.2925)"/></g><g transform="translate(-1.641 -1.7778)"><path d="m25.1444244 1.77777778-.0003988 8h19.1636667v5.33333332l-19.1636667-.0003333.0003988 10.667h-4.2513945l-.0000043-10.667-19.25199996.0003333v-5.33333332h19.25199996l.0000043-8z" stroke="#fff" stroke-width="3.333333"/><path d="m25.2307692 0-.0007436 9.777 21.7443334.00077778v5.33333332l-21.7443334-.0001111.0007436 12.4445556h-4.5128205l-.0009231-12.4445556-19.07599996.0001111v-5.33333332l19.07599996-.00077778.0009231-9.777z" fill="#f50100"/></g></g></g><g mask="url(#d)"><g transform="translate(5.3333)"><circle cx="16.066732" cy="10.466675" fill="#2e42a5" r="3.666667"/><g fill="#feca00" transform="translate(0 1.6)"><path d="m16.1333332 9.98839028-1.7304951 1.20418452.6104951-2.01791213-1.6799999-1.27368516 2.1078019-.04295376.692198-1.99136522.6921981 1.99136522 2.1078018.04295376-1.6799999 1.27368516.6104951 2.01791213z"/><path d="m4.13333321 9.83476034-1.44207931 1.00348716.50874596-1.68159353-1.39999999-1.06140435 1.7565016-.03579481.57683174-1.65947109.57683173 1.65947109 1.7565016.03579481-1.39999999 1.06140435.50874596 1.68159353z"/><path d="m28.1333332 9.83476034-1.4420793 1.00348716.508746-1.68159353-1.4-1.06140435 1.7565016-.03579481.5768317-1.65947109.5768317 1.65947109 1.7565016.03579481-1.3999999 1.06140435.5087459 1.68159353z"/><path d="m16.1333332 3.43477661-1.4420793 1.00348713.508746-1.6815935-1.4-1.06140434 1.7565016-.03579481.5768317-1.65947109.5768317 1.65947109 1.7565016.03579481-1.3999999 1.06140434.5087459 1.6815935z"/><path d="m16.1333332 17.5681181-1.4420793 1.0034871.508746-1.6815935-1.4-1.0614043 1.7565016-.0357948.5768317-1.6594711.5768317 1.6594711 1.7565016.0357948-1.3999999 1.0614043.5087459 1.6815935z"/></g></g></g></g></g><rect height="32" mask="url(#b)" rx="2" width="43.335938"/></g></svg>