<svg height="32" viewBox="0 0 43 32" width="43" xmlns="http://www.w3.org/2000/svg" xmlns:xlink="http://www.w3.org/1999/xlink"><defs><path id="a" d="m0 0h42.666667v32h-42.666667z"/><path id="b" d="m0 0h24v18.666667h-24z"/><mask id="c" fill="#fff"><path d="m0 0h43.335938v32h-43.335938z" fill="#fff" fill-rule="evenodd"/></mask><mask id="d" fill="#fff"><path d="m0 0h42.666667v32h-42.666667z" fill="#fff" fill-rule="evenodd"/></mask><mask id="e" fill="#fff"><use fill="#fff" fill-rule="evenodd" xlink:href="#a"/></mask><mask id="f" fill="#fff"><use fill="#fff" fill-rule="evenodd" xlink:href="#b"/></mask></defs><g fill="none" fill-rule="evenodd"><g fill-rule="evenodd" mask="url(#c)"><g mask="url(#d)" transform="translate(.3346)"><use fill="#2e42a5" xlink:href="#a"/><g mask="url(#e)"><use fill="#2b409a" xlink:href="#b"/><g mask="url(#f)"><g fill-rule="nonzero"><path d="m1.32764499 3.28505196 5.28126726-2.31626725 21.51092825 17.13103699 2.7857478 3.4420421-5.6475555.7741648-8.7737935-7.382254-7.06200197-4.97391428z" fill="#f7fcff" transform="matrix(1 0 0 -1 -4 20.6181)"/><path d="m2.05065842 2.76731119 2.69056181-1.34416892 25.16402527 21.54362063h-3.7778619z" fill="#f50100" transform="matrix(1 0 0 -1 -4 21.7233)"/><path d="m1.32764499 3.28505196 5.28126726-2.31626725 21.51092825 17.13103699 2.7857478 3.4420421-5.6475555.7741648-8.7737935-7.382254-7.06200197-4.97391428z" fill="#f7fcff" transform="matrix(-1 0 0 -1 28 20.6181)"/><path d="m1.50784817 3.09890547 2.6905618-1.34416891 10.71510273 9.22394324 3.176798 1.030569 13.0833277 10.4993758h-3.7778619l-13.075977-10.2501652-3.4732688-1.2357627z" fill="#f50100" transform="matrix(-1 0 0 -1 28 21.5967)"/></g><path d="m14.3127673-1-.000682 7.99909357 10.6879147.00099999v4.66663544l-10.6879147-.0006666.000682 8.0006043h-4.66675002l-.00001536-8.0006041-10.64600192.0006667v-4.66663537l10.64600192-.001.00001536-7.99909393z" fill="#f50100" stroke="#f7fcff" stroke-width="2"/></g></g><g fill="#f50100" mask="url(#e)" stroke="#f7fcff" stroke-width=".533333"><path d="m7.80422607 22-2.35114101 1.236068.44902797-2.618034-1.90211303-1.854102 2.62865556-.381966 1.17557051-2.381966 1.1755705 2.381966 2.62865553.381966-1.902113 1.854102.449028 2.618034zm-4.87089267-8.8402409-1.81289974.9530978.34623304-2.0186935-1.4666667-1.4296467 2.02688353-.2945235.90644987-1.836668.90644987 1.836668 2.02688352.2945235-1.46666669 1.4296467.34623304 2.0186935zm9.3300745-.0051398-1.8108857.952039.3458484-2.0164509-1.46503727-1.4280584 2.02463177-.2941962.9054428-1.8346276.9054429 1.8346276 2.0246318.2941962-1.4650373 1.4280584.3458483 2.0164509zm-3.99674117-7.46153502-1.81289974.95309779.34623304-2.01869352-1.4666667-1.4296467 2.02688353-.29452341.90644987-1.83666805.90644987 1.83666805 2.0268835.29452341-1.46666667 1.4296467.34623307 2.01869352z" transform="translate(25.3333 5.3333)"/></g></g></g><rect height="32" mask="url(#c)" rx="2" width="43.335938"/></g></svg>