<svg height="32" viewBox="0 0 43 32" width="43" xmlns="http://www.w3.org/2000/svg" xmlns:xlink="http://www.w3.org/1999/xlink"><defs><path id="a" d="m0 0h42.666667v32h-42.666667z"/><mask id="b" fill="#fff"><path d="m0 0h43.335938v32h-43.335938z" fill="#fff" fill-rule="evenodd"/></mask><mask id="c" fill="#fff"><path d="m0 0h42.666667v32h-42.666667z" fill="#fff" fill-rule="evenodd"/></mask><mask id="d" fill="#fff"><use fill="#fff" fill-rule="evenodd" xlink:href="#a"/></mask></defs><g fill="none" fill-rule="evenodd"><g fill-rule="evenodd" mask="url(#b)"><g mask="url(#c)" transform="translate(.3346)"><use fill="#f50101" xlink:href="#a"/><path d="m0 0h42.666667v10.666667h-42.666667z" fill="#f7fcff" mask="url(#d)"/><path d="m0 21.333333h42.666667v10.666667h-42.666667z" fill="#5eaa22" mask="url(#d)"/><path d="m0 0h16v32h-16z" fill="#f50101" mask="url(#d)"/><g fill="#f7fcff" mask="url(#d)"><path d="m14.2652813 2.5957211c.0639231.00375037.1127027.05861056.1089524.12253365l-.0319214.39525315c-.1659606 1.74866432-.6577982 3.41177341-1.475513 4.98932726l2.7983683-.00020469c.0640331 0 .1159421.05190901.1159421.11594202v1.76811595c0 .06403306-.051909.11594206-.1159421.11594206h-2.8115942c-.064033 0-.115942-.051909-.115942-.11594206v-.92826347l-.3541478.00013507c-.0570751.13153442-.1492798.24461995-.2649354.32770341-.3763324.57579464-.7975921 1.13945735-1.2649748 1.69101095-.0223252.0263457-.0447207.0525962-.0671866.0787515 1.710383 1.842815 3.510608 3.3921574 5.3988851 4.6488684.0546903.0333272.0706336.1049854.0362696.1590164-.0262752.0413127-.0756694.0616676-.1234224.0508611-2.4259655-.5786396-4.5373993-1.6325457-6.33427357-3.1618411-.35240823.3903263-.83836332.5898393-1.4570123.6002896-1.71631887 1.2520857-3.71401035 2.1238958-5.99273431 2.6152197-.04010434.0078849-.08139766-.0059287-.10868514-.0363577-.04275039-.0476721-.03876055-.120974.00891156-.1637244 1.1143823-.9993732 2.09582293-1.8856696 2.94706049-2.6558351-1.23021138-.238982-2.21110163-.7020545-2.21110163-1.5773279 0-1.048015 1.5449519-1.4024327 4.63485572-1.0632529-.27075468-.3404365-.52495824-.68719334-.76306597-1.03849043l.04599224.00287065c-.32867625 0-.61089006-.19679031-.73280869-.47776218l-.35414783-.00013507v.92826347c0 .06403306-.05190902.11594206-.11594203.11594206h-2.8115942c-.06403302 0-.11594203-.051909-.11594203-.11594206v-1.76811595c0-.06403301.05190901-.11594202.11594203-.11594202h2.8115942c.06403301 0 .11594203.05190901.11594203.11594202v.04335706l.26046176.00020881c-.95271923-1.72601868-1.53969028-3.55520703-1.76091317-5.48756505-.00534387-.06381094.04240808-.11956794.10625046-.1245053.04563423-.0035292.08907387.02011893.11087915.06036154.85919259 1.52912598 2.02805683 3.24003384 3.50463148 5.13378627l.13588911-1.0862737c.48568371-.11857517.72852556-.37315174.72852556-.76372971v-1.2217589l-1.20166638-.99385273 1.58979291-1.11193411 1.50835825 1.11193411-1.09824856.99385273v1.2217589c.40472306.37118349.67055916.62576006.79750826.76372971l-.0004335 1.23249896c1.5789333-2.00057217 2.8112027-3.77933919 3.6968079-5.33630106.0209771-.03858422.0624991-.06099039.1063284-.05841892zm-7.39721511 5.50690937c-.36018571 0-.65217391.28884854-.65217391.64516129 0 .35631274.2919882.64516129.65217391.64516129s.65217391-.28884855.65217391-.64516129c0-.35631275-.2919882-.64516129-.65217391-.64516129zm4.78260871 0c-.3601857 0-.6521739.28884854-.6521739.64516129 0 .35631274.2919882.64516129.6521739.64516129s.6521739-.28884855.6521739-.64516129c0-.35631275-.2919882-.64516129-.6521739-.64516129z"/></g></g></g><rect height="32" mask="url(#b)" rx="2" width="43.335938"/></g></svg>