<svg height="32" viewBox="0 0 43 32" width="43" xmlns="http://www.w3.org/2000/svg" xmlns:xlink="http://www.w3.org/1999/xlink"><defs><path id="a" d="m0 0h42.666667v32h-42.666667z"/><mask id="b" fill="#fff"><path d="m0 0h43.335938v32h-43.335938z" fill="#fff" fill-rule="evenodd"/></mask><mask id="c" fill="#fff"><path d="m0 0h42.666667v32h-42.666667z" fill="#fff" fill-rule="evenodd"/></mask><mask id="d" fill="#fff"><use fill="#fff" fill-rule="evenodd" xlink:href="#a"/></mask></defs><g fill="none" fill-rule="evenodd"><g fill-rule="evenodd" mask="url(#b)"><g mask="url(#c)" transform="translate(.3346)"><use fill="#f7fcff" xlink:href="#a"/><path d="m21.333333 0h21.333333v16h-21.333333z" fill="#e31d1c" mask="url(#d)"/><path d="m30.6944895 25.5329201-3.0699161 1.8996141 1.1918294-3.1889765-2.609431-2.414246h3.1650527l1.322465-3.4494664 1.0092103 3.4494664h3.1699387l-2.2845058 2.414246 1.1185051 3.1889765z" fill="#e31d1c" mask="url(#d)"/><g fill="#2e42a5"><path d="m12.0278228 11.1530748-3.06991602 1.8996141 1.19182932-3.18897651-2.60943095-2.41424596h3.16505275l1.3224649-3.44946643 1.0092104 3.44946643h3.1699386l-2.2845058 2.41424596 1.1185051 3.18897651z" mask="url(#d)"/><path d="m0 16h21.333333v16h-21.333333z" mask="url(#d)"/></g></g></g><rect height="32" mask="url(#b)" rx="2" width="43.335938"/></g></svg>