<svg height="32" viewBox="0 0 43 32" width="43" xmlns="http://www.w3.org/2000/svg" xmlns:xlink="http://www.w3.org/1999/xlink"><mask id="a" fill="#fff"><path d="m0 0h43.335938v32h-43.335938z" fill="#fff" fill-rule="evenodd"/></mask><mask id="b" fill="#fff"><path d="m0 0h42.666667v32h-42.666667z" fill="#fff" fill-rule="evenodd"/></mask><mask id="c" fill="#fff"><path d="m6.58076848.20561301 1.21505355 1.71564809c-.5455295 1.14337216-.60958172 2.41364148-.19215666 3.81080797.6261376 2.09574973-.03315051 3.71171257-2.817561 3.89114603-.39003647.07411365-.6532429.15978661-.78961929.25701887l.0006137.16684993c0-.0413528-.01803524-.08106183-.05410573-.11912713-.03845369.0380653-.05648893.07777433-.05648893.11912713l.0006137-.16684993c-.13637639-.09723226-.39958282-.18290522-.78961929-.25701887-2.78441049-.17943346-3.4436986-1.7953963-2.81756101-3.89114603.41742507-1.39716649.35337285-2.66743581-.19215666-3.81080797l1.21505356-1.71564809c.48411381.35752991.90425295.53629486 1.26041742.53629486.35616446 0 .83411344-.17876495 1.43384694-.53629486l-.11102911.063.00043445-.063.05456555.032.05602911-.032-.00002911.064.08483508.04855571c.50904024.28249277.92185568.42373915 1.23844631.42373915.35616447 0 .7763036-.17876495 1.26041742-.53629486z" fill="#fff" fill-rule="evenodd"/></mask><g fill="none" fill-rule="evenodd"><g fill-rule="evenodd" mask="url(#a)"><g mask="url(#b)" transform="translate(.3346)"><path d="m10.6666667 0h22.6666666v32h-22.6666666z" fill="#f7fcff"/><path d="m32 0h10.6666667v32h-10.6666667z" fill="#f50101"/><path d="m0 0h10.6666667v32h-10.6666667z" fill="#f50101"/><g fill="#a2bb6a" fill-rule="nonzero" transform="translate(18.8985 8)"><path d="m2.08991056 3.66018254.04465623.48259555c-1.33125766.1346391-2.05047504-.51583904-2.05047504-1.86588271 0-1.33961849.70367317-2.05168619 2.02673454-2.06011127l.00282476.48483949c-1.07195579.00682608-1.56579119.50655273-1.56579119 1.57527178 0 1.05829387.4782912 1.49087236 1.5420507 1.38328716z"/><path d="m4.64063519 3.66018254.04465624.48259555c-1.33125767.1346391-2.05047505-.51583904-2.05047505-1.86588271 0-1.33961849.70367318-2.05168619 2.02673455-2.06011127l.00282476.48483949c-1.07195579.00682608-1.56579119.50655273-1.56579119 1.57527178 0 1.05829387.4782912 1.49087236 1.54205069 1.38328716z" transform="matrix(-1 0 0 1 7.3202 0)"/></g><g transform="translate(13.3333 9.4545)"><path d="m3.87477739 13.375886c1.73020454.0914215 2.7229013.0914215 2.9780903 0 .38278349-.1371323-.70958477-.4458935-.70958477-.7304109 0-.2845175 1.6028484-.3283592 1.77140799 0 .16855958.3283591 0 .2909255 0 .7304109 0 .4394855.10644793 1.073562-.65513492 1.073562s-.60354547-.3507339-1.6641428-.3507339c-.70706489 0-1.28061016 0-1.7206358 0zm8.28874191 0c-1.7302045.0914215-2.72290128.0914215-2.97809028 0-.38278349-.1371323.70958477-.4458935.70958477-.7304109 0-.2845175-1.6028484-.3283592-1.77140799 0-.16855958.3283591 0 .2909255 0 .7304109 0 .4394855-.10644793 1.073562.65513492 1.073562s.60354547-.3507339 1.66414278-.3507339h1.7206358z" fill="#e31d1c"/><g transform="translate(8.3478)"><path d="m.19493826 13.4450395s2.02527405-.2011807 2.48329641-.9315542c.45802236-.7303736 1.22099966-1.977268 1.4892699-2.2791513.26827023-.30188325.2856472.4311817.2856472.4311817s.44257617.6277646.44257617-.1749398c0-.80270441-.31482333-.2418879-.72822337-1.44964514-.41340005-1.20775728-.64595098-2.39241354-.52967551-2.57172681.11627546-.17931327.39162521.17931327.39162521 0 0-.11954218 0-.29631359 0-.53031422l.4236975.53031422c.29505078-.11199136.44257617-.16798704.44257617-.16798704s.36437985.78027625.58877863 1.0218277c.22439877.24155146.35569136-.32352644.29004507-.85384066-.0656463-.53031422-.8788237-.53031422-.8788237-.53031422s-1.04004328-.56059226-1.04004328-.79552741c0-.15662343.14988522-.21160984.44965567-.16495923l-.13783576-.72745789c.24778258.29455671.43109879.36819589.54994862.22091753.17827475-.22091753-.26430142-.60858855-.26430142-.60858855h.70559041v-.340684l.32576439.18234107-.32576439-.7439426c-.6370122.09591784-1.01344151.09591784-1.12928791 0-.17376961-.14387675-.72092934-.70469329-.72092934-.70469329s0-.08874081 0-.26622245h-.31531645l.31531645-.53401487v-.85036429l1.14462684.22820669v-.62877392c1.07429663.52369791 1.51476325.99648386 1.32139987 1.41835786-.19336338.42187399-.29004507.86770875-.29004507 1.33750427v.56160153c.03217955-.11460798.12886124-.17191197.29004507-.17191197.24177574 0 .51691095.12492494.51691095.51259597 0 .38767102.49234722-.15834293.49234722-.15834293v1.61281014s.11573914.17437907.36877772 0 .14212638-.03835218-.61795476.98347552c-.76008113 1.0218277-.48634037 1.02457515-.24317018.77422064.24317018-.25035452 1.22990266-.96211268.86112494-.6062336s-.39323418 1.10144773 0 .85384066c.39323419-.24760706.31729043-.42378038.31729043 0 0 .42378039-.692075 1.86624853-.93524519 2.0922124-.24317018.22596388-.47003606.36490643-.76008113.59199169-.29004507.2270853-.61580946.4954384-.61580946.658267 0 .1085524.20526982.0502391.61580946-.1749398-.19336338.6902645-.29004507 1.0353968-.29004507 1.0353968h.56367857c-.29908987.9166395-.74266719 1.3749593-1.33073195 1.3749593-.88209713 0-1.5469994 0-1.72424471 0-.11816354 0-.44419261.1258968-.97808721.3776905l-.58588247.166417c.62268137.0595095 1.03901333.1827523 1.24899587.3697285.31497381.2804644 0 .4760381 0 .4760381s-.86445016-.0857878-1.50975755-.2809129c-.64530738-.1951252-.97353886.1746033-.97353886-.1951252s0-.3697285 0-.3697285z" fill="#00a854"/><path d="m4.63768116 3.63636364c.12806603 0 .23188406-.10853703.23188406-.24242425 0-.13388721-.10381803-.24242424-.23188406-.24242424s-.23188406.10853703-.23188406.24242424c0 .13388722.10381803.24242425.23188406.24242425zm1.39130435-.96969697c.12806603 0 .23188406.10853703.23188406.24242424s-.10381803.24242424-.23188406.24242424-.23188406-.10853703-.23188406-.24242424.10381803-.24242424.23188406-.24242424zm-.23188406-.48484849c.12806603 0 .23188406.10853703.23188406.24242424 0 .13388722-.10381803.24242425-.23188406.24242425s-.23188406-.10853703-.23188406-.24242425c0-.13388721.10381803-.24242424.23188406-.24242424zm-.46376812 4.84848485c.12806603 0 .23188406-.10853703.23188406-.24242424s-.10381803-.24242424-.23188406-.24242424-.23188405.10853703-.23188405.24242424.10381802.24242424.23188405.24242424zm-.92753623 2.90909091c.12806603 0 .23188406-.10853703.23188406-.24242424 0-.13388722-.10381803-.24242425-.23188406-.24242425s-.23188406.10853703-.23188406.24242425c0 .13388721.10381803.24242424.23188406.24242424zm1.62318841.72727276c.12806603 0 .23188406-.1085371.23188406-.2424243s-.10381803-.2424242-.23188406-.2424242-.23188406.108537-.23188406.2424242.10381803.2424243.23188406.2424243zm.46376811-.4848485c.12806603 0 .23188406-.108537.23188406-.24242426 0-.13388721-.10381803-.24242424-.23188406-.24242424s-.23188405.10853703-.23188405.24242424c0 .13388726.10381802.24242426.23188405.24242426zm-.23188405-3.39393941c.12806602 0 .23188405-.10853703.23188405-.24242424 0-.13388722-.10381803-.24242425-.23188405-.24242425-.12806603 0-.23188406.10853703-.23188406.24242425 0 .13388721.10381803.24242424.23188406.24242424z" fill="#c51918"/></g><path d="m7.58072402 13.0182441c-2.45656059-.4854888-3.75201923-1.1981106-3.8863759-2.1378653-.20153501-1.40963204-.19871398-2.91033749-.19871398-2.91033749-.22778948.61140289-.34168422.91710433-.34168422.91710433-.01150983-.83232271.21635487-1.5453377.68359413-2.13904498.70085888-.89056092-.87610181.59008951-.87610181.59008951.53231121-.83932231.90927722-1.29893621 1.13089803-1.3788417.33243122-.11985825-1.33570545.78875219-1.33570545.78875219.31858931-.70428516.60170877-1.15603435.84935836-1.35524756.37147439-.29881982-.84935836.56649537-.84935836.56649537.18415741-.69854393.38636947-1.13114253.60663618-1.29779583.33040007-.24997994-1.07966797 1.29779583-1.07966797 1.29779583.49590101-1.59614376.88354936-2.46869449 1.16294504-2.61765217.41909352-.22343654-.68991325.43896902-.68991325.43896902.45287076-.6826572.88212003-1.19366701 1.28774779-1.53302943.60844165-.50904363-1.09975377.21706612-.89043269.21706612.41179644-.46504056.73599022-.76319187.97258134-.89445395.35488669-.19689313-1.36989644.67738783-1.36989644.67738783.82539834-.91081255 1.36180947-1.43326552 1.60923338-1.5673589.37113586-.20114007-1.82193971 1.08497666-1.82193971 1.08497666.08538344-.39716807.14650595-.73767088.18336752-1.02150842.05529236-.4257563-1.01602533 1.16684833-.87057257 2.59795107.14545276 1.43110273-.58282662-1.09406041-.58282662-1.09406041-.19536634.36547328-.05574373 1.02685642.41886784 1.98414944l-.77161053-1.08143753c.0703379.65426558.18791879 1.15800052.35274269 1.51120484.16482389.35320432-.06909664.05957521-.70176161-.88088732-.12104138.58725822-.12104138.88088732 0 .88088732.72241161.96515774 1.09700795 1.58843634 1.12378902 1.86983582.04017159.42209921-1.21699615-1.50707587-1.3852429-1.50707587-.16824676 0-.26145388.61958219 0 .61958219s.75671545.88749368.75671545.88749368c-.42909881-.31010569-.68964996-.47432092-.78165343-.4926457-.13800522-.02748718.10832789.2759335.28639186.4926457-.33566601.27369205-.49074792.51419502-.46524573.72150888.03825329.3109708 1.37226612.37679846 1.9536258 1.85308398-.80132548-.42375081-1.29745217-.63562621-1.48838007-.63562621-.28639186 0 .46118342.66370324.70176161.88277485.24057819.21907162-.3706845-.21907161-.53622306 0-.16553855.21907162.91525783 1.15469734 1.11904968 1.15469734.13586123 0-.12724766 0-.78932666 0 .17595759.2483677.38546674.3725515.62852745.3725515.36459105 0 1.66734677.5854887 1.66734677.7751856s-1.09896388-.2427837-1.30275572-.2427837 1.43478034 1.546478 2.30535292 1.6054634c.87057257.0589854 1.42067514.2926853 1.79598614.2926853h.63913456c-1.18205288.6022799-1.77307932.9034198-1.77307932.9034198h.59016132c.76924087 0 1.35759672.2137629 1.66012492-.2281554s.3025282-.9679497.3025282-.9679497z" fill="#00a854"/></g><g transform="translate(17.5072 11.6364)"><path d="m6.72043854-.7506663 1.85689277 2.62192109c-.64274388 1.08685131-.74073136 2.31160631-.33489844 3.66997263.40340387 1.35023607.30715764 2.51309944-.3010231 3.35301739-.53691714.74150054-1.49921149 1.28189109-3.07066364 1.39146959-.2322662.0440299-.40184437.0764602-.48724203.1373462-.83680729-.0038385-1.0554118-.0750776-1.37227381-.1374744-1.57053663-.1098496-2.53231837-.65011478-3.06903717-1.39134139-.60818074-.83991795-.70442696-2.00278132-.30102309-3.35301739.40583291-1.35836632.30784544-2.58312132-.33489845-3.66997263l1.85689278-2.62192109c.5787259.46512512 1.02506147.82590751 1.40008748.82590751.2371062 0 .53887885-.13129017.91495336-.33999337 1.22064391.19595141 1.57078261.33999337 1.84214586.33999337.37502601 0 .82136157-.36078239 1.40008748-.82590751z" stroke="#e8aa00" stroke-width="1.333333"/><path d="m.231884 0h3.710145v5.090909h-3.710145z" fill="#67baff" mask="url(#c)"/><path d="m3.942029 0h3.710145v5.090909h-3.710145z" fill="#fff" mask="url(#c)"/><path d="m-.231884 5.575758h9.275362v5.818182h-9.275362z" fill="#c51918" mask="url(#c)"/><g fill="#c9a951" fill-rule="nonzero"><path d="m5.7391277 4.73026177h-.46376812v-3.48627054h.46376812z" mask="url(#c)"/><path d="m5.55122548 3.14439179-.2260927.4049234-.80049797-.44696539.2260927-.40492339z" mask="url(#c)"/><path d="m5.55122548 2.17469482-.2260927.4049234-.80049797-.44696539.2260927-.40492339z" mask="url(#c)"/><path d="m6.47876171 3.14439179-.22609269.4049234-.80049798-.44696539.2260927-.40492339z" mask="url(#c)" transform="matrix(-1 0 0 1 11.931 0)"/><path d="m6.47876171 2.17469482-.22609269.4049234-.80049798-.44696539.2260927-.40492339z" mask="url(#c)" transform="matrix(-1 0 0 1 11.931 0)"/></g><path d="m6.1315876 6.63690945c.21510004-.24592839.32265007-.30741049.32265007-.18444629 0 .18444629 0 .49458113-.16132504.49458113-.16132503 0-.91276292-.14755704-1.1990198-.49458113-.28625688-.3470241-.89190474-.95116854-1.67147946-.80891296-.77957471.14225559-1.704179 1.15284454-1.93209814 1.15284454s-.72742925.77898185-.36371462 1.38732327c.36371462.60834142.98239884.4195877.98239884.59608181 0 .17649412.15469822.19681634.73405607.19681634s.79119881.20432673 1.29277301.20432673-.16556186-.00751039.64225832-.20432673c.80782017-.19681634 1.41966031-.79289815.94893884-.79289815-.47072146 0-.62281241 0-.94893884 0s-1.05200507.23503096-1.05200507 0 .1611867-.73822695.60659588-.48662896c.44540919.251598 1.68299491.44344423 2.12156001 0 .43856509-.44344422.59195967-.71083612.51526238-1.24462589-.05113153-.35585985-.27666067-.48257924-.67658742-.38015817z" fill="#fbcd17" mask="url(#c)"/><path d="m2.9943143 1.12349637c-.27953399.24451138-.09920029 1.13806974-.5572682 1.13806974s-1.10268615-.66910725-1.26501414-.22759259c-.16232798.44151467 0 .2931683 0 .66921405 0 .37604576-.38881077 1.42098516-.19440538 1.59763374.19440538.17664859.39360674.64209649.35908299.42421293-.03452376-.21788355-.18148727-.5378605-.12024308-.88545315-.05920949-.35910479.32762244-.70449093.32762244-.70449093s-.04198576.37282133-.07244725.51181921c-.08501378.18704688-.11026452.34268608-.07575221.46691759.0873158.35013921.14897042.53730736.18496388.56150442.023377-.82906205.04836006-1.31191201.07494918-1.44854989.03988367-.20495681.32418198.23117808.41875178.18175785.02164604.56690539.01607839.8841351-.01670296.95168914-.06647278.13410063-.08735148.22256824-.0626361.26540284.06165463.15520077.11878553.21019919.17139272.16499527.00185588-.00322752.01611407-.08037083.04277457-.23142994-.030979-.09122872-.022226-.24069272.02625898-.44839199.05107251-.45735629.08717303-.63641832.10830157-.53718609-.00949357.21592664-.00206111.37954135.02229738.49084413.03890219.27631671.06225243.42964254.07005071.45997749.18658778.2657573.28236212.34251816.28732305.23028257-.17886087-.21327746-.24913465-.40106126-.21082135-.56335138-.10239485-.45976294-.08212288-.74090227.06081591-.84341799.37920717-.17540542.58021374-.41323442.6030197-.713487.05494489-.34217303.08735149-.59169013.0972198-.74855131-.08319359-.04611808-.03881297-.10967036.13314187-.19065684.27679446-.10624696.32895552-.23323958.15648318-.38097789" fill="#d18219" mask="url(#c)"/></g></g></g><rect height="32" mask="url(#a)" rx="2" width="43.335938"/></g></svg>