<svg height="32" viewBox="0 0 43 32" width="43" xmlns="http://www.w3.org/2000/svg" xmlns:xlink="http://www.w3.org/1999/xlink"><defs><path id="a" d="m0 0h42.666667v32h-42.666667z"/><mask id="b" fill="#fff"><path d="m0 0h43.335938v32h-43.335938z" fill="#fff" fill-rule="evenodd"/></mask><mask id="c" fill="#fff"><path d="m0 0h42.666667v32h-42.666667z" fill="#fff" fill-rule="evenodd"/></mask><mask id="d" fill="#fff"><use fill="#fff" fill-rule="evenodd" xlink:href="#a"/></mask></defs><g fill="none" fill-rule="evenodd"><g fill-rule="evenodd" mask="url(#b)"><g mask="url(#c)" transform="translate(.3346)"><use fill="#f7fcff" xlink:href="#a"/><path d="m0 0h42.666667v8h-42.666667z" fill="#bf2714" mask="url(#d)"/><path d="m0 24h42.666667v8h-42.666667z" fill="#bf2714" mask="url(#d)"/><g mask="url(#d)"><g transform="translate(13.3333 8)"><g fill="#5277b9" transform="translate(.2623 9.7049)"><path d="m.85072421.34146447.49826165.28914044c.07432077.04312823.16505311.0471186.24287314.01068146l1.22994554-.57588897c.08621491-.04036782.18753386-.03085371.2647266.02485851l1.32864941.95892442 1.83660977-.98883101c.07077877-.0381073.15512331-.04165511.22885224-.00962628l1.38324071.60089819c.06991769.03037317.14959017.02882654.2182764-.00423728l1.24092563-.59735027c.06623169-.03188226.14280231-.03451011.21106394-.00724356l1.53525756.61324598c.069176.02763181.1468382.02454733.2136049-.00848366l1.1892312-.58833903c.0752011-.03720364.1636619-.03618711.2379882.00273479l1.0907865.57120405c.0789289.04133213.1734423.03977178.2509639-.00414326l.5672677-.32135036c.1260425-.07140153.2861024-.02710632.3575039.09893612.0338302.05971914.0429045.13031958.0252759.19665273l-.1185107.44593285h-14.286266l-.128047-.40107927c-.04405716-.13799943.0320981-.28558545.17009752-.32964261.07056095-.02252702.14735712-.01417036.21142139.02300602z"/><path d="m.84374396 1.92349727.45962821.27645473c.07599207.0457073.16993373.04992232.24971384.01120427l1.16964014-.56763756c.08827123-.04283887.19307084-.0328298.27163745.02594321l1.27460519.9534889 1.76488406-.98488913c.07247885-.04044664.15982463-.04420157.2355072-.01012429l1.31966786.59420151c.07180233.03233015.15433089.0306907.22479259-.00446554l1.18356128-.59052737c.06795533-.03390571.14727048-.03669351.21743863-.00764261l1.46688869.60731863c.0711005.02943692.1515412.02616587.2200169-.00894679l1.1329541-.58095119c.0770708-.03952004.1686825-.03844533.244805.00287185l1.0368327.56276388c.0807969.04385432.178656.04220778.2579319-.00433986l.5201177-.30539244c.1249198-.07334794.2856475-.03154069.3589955.0933791.0350629.05971606.0450882.13087489.0278889.19795396l-.1125069.43879029h-13.78328553l-.12342896-.40072261c-.0421837-.13695297.03464198-.28217194.17159495-.32435565.07049781-.02171445.14690574-.01239623.2101186.02562471z"/><path d="m1.10603905 2.9726776.45962821.27645472c.07599207.04570731.16993372.04992233.24971383.01120428l1.16964014-.56763756c.08827123-.04283887.19307085-.0328298.27163745.02594321l1.27460519.9534889 1.76488406-.98488914c.07247885-.04044663.15982463-.04420157.23550721-.01012428l1.31966785.59420151c.07180233.03233014.15433089.0306907.22479259-.00446554l1.18356128-.59052737c.06795533-.03390571.14727048-.03669351.21743864-.00764262l1.4668887.60731864c.0711005.02943692.1515412.02616587.2200169-.00894679l1.1329541-.58095119c.0770708-.03952004.1686824-.03844533.244805.00287185l1.0368327.56276388c.0807969.04385432.178656.04220778.2579319-.00433986l.5201177-.30539244c.1249198-.07334794.2856475-.03154069.3589955.0933791.0350629.05971606.0450881.13087489.0278889.19795396l-.1125069.43879029h-13.78328554l-.12342896-.40072261c-.04218371-.13695297.03464197-.28217195.17159494-.32435565.07049781-.02171445.14690574-.01239623.21011861.02562471z"/><path d="m2.67980954 4.02185792.45962821.27645473c.07599207.04570731.16993372.04992232.24971383.01120427l1.16964014-.56763755c.08827123-.04283887.19307085-.0328298.27163745.02594321l1.27460519.9534889 1.76488407-.98488914c.07247884-.04044664.15982463-.04420157.2355072-.01012428l1.31966785.59420151c.07180233.03233014.15433089.0306907.2247926-.00446554l1.18356132-.59052738c.0679553-.0339057.1472704-.0366935.2174386-.00764261l1.4668887.60731864c.0711005.02943692.1515412.02616587.2200169-.00894679l1.132954-.58095119c.0770709-.03952004.1686825-.03844533.2448051.00287185l1.0368327.56276387c.0807969.04385433.178656.04220779.2579319-.00433985l.5201177-.30539244c.1249197-.07334794.2856475-.0315407.3589954.0933791.0350629.05971606.0450882.13087489.027889.19795396l-.1125069.43879029h-13.78328555l-.12342896-.40072261c-.04218371-.13695298.03464197-.28217195.17159495-.32435565.0704978-.02171445.14690573-.01239623.2101186.0256247z"/><path d="m.58144888 5.33333333.45962821.27645473c.07599207.04570731.16993373.04992232.24971383.01120427l1.16964015-.56763755c.08827122-.04283887.19307084-.0328298.27163745.02594321l1.27460519.9534889 1.76488406-.98488914c.07247884-.04044664.15982463-.04420157.2355072-.01012428l1.31966785.59420151c.07180234.03233014.15433089.0306907.2247926-.00446554l1.18356128-.59052738c.06795533-.0339057.14727048-.0366935.21743863-.00764261l1.46688867.60731864c.0711006.02943692.1515412.02616587.2200169-.00894679l1.1329541-.58095119c.0770708-.03952004.1686825-.03844533.244805.00287185l1.0368327.56276387c.080797.04385433.1786561.04220779.2579319-.00433985l.5201177-.30539244c.1249198-.07334794.2856475-.0315407.3589955.0933791.0350629.05971606.0450882.13087489.0278889.19795396l-.1125068.43879029h-13.78328561l-.12342896-.40072261c-.0421837-.13695298.03464197-.28217195.17159495-.32435565.07049781-.02171445.14690574-.01239623.2101186.0256247z"/></g><g fill="#f00" transform="translate(4.1967 .7869)"><path d="m1.6999623 10.0637181v1.3333334c-1.12576369 0-1.92223913-.6913136-2.3095219-1.91883555l-.030892-.20058668v-5.47006279h1.33333334v5.36289187c.22212809.64052048.53463207.89325975 1.00708056.89325975z" fill-rule="nonzero"/><path d="m7.73274918 10.0637181v1.3333334c-1.12576369 0-1.92223913-.6913136-2.30952189-1.91883555l-.030892-.20058668v-5.47006279h1.33333333v5.36289187c.22212809.64052048.53463208.89325975 1.00708056.89325975z" fill-rule="nonzero" transform="matrix(-1 0 0 1 13.125 0)"/><path d="m4.76955055.42462891c-1.47455874-.38557809-2.21183811-.08950281-2.21183811.88822585v4.61619674l2.57862061.76578601v-3.7730803c-.8595402-.52520247-1.2893103-.99316789-1.2893103-1.40389627s.30750926-.77513906.9225278-1.09323203z"/></g><g fill="none" stroke="#000" stroke-width="1.333333"><g transform="translate(4.9836 7.8689)"><path d="m.261273 1.318704.840921-1.074578"/><path d="m1.028118 1.283275-.805749-1.080992"/></g><g transform="translate(6.1902 7.8689)"><path d="m.261273 1.318704.840921-1.074578"/><path d="m1.028118 1.283275-.805749-1.080992"/></g><g transform="translate(7.3443 7.8689)"><path d="m.261273 1.318704.840921-1.074578"/><path d="m1.028118 1.283275-.805749-1.080992"/></g><g transform="translate(8.5508 7.8689)"><path d="m.261273 1.318704.840921-1.074578"/><path d="m1.028118 1.283275-.805749-1.080992"/></g><g transform="translate(9.7574 7.8689)"><path d="m.261273 1.318704.840921-1.074578"/><path d="m1.028118 1.283275-.805749-1.080992"/></g></g><path d="m.3174864 7.89089512.32738845 1.65425459h2.78195169v-1.49921652zm.40212515-2.48439608 2.75853367 1.06107556v1.16657255l-2.75853367-.28217546zm4.30327234.48683188 1.16286277.93370631-.12620995.49301486-1.03665282-.49301486zm-1.21650005-4.36216517 2.41661523 3.86312192v.98193349l-1.1620126-.98193349v-1.27400172h-1.25460263l-1.14972395-1.21905053zm-2.01619041 1.48932377 1.74599446 1.49187425-.1638488 1.55107622-2.09711008-1.00396034zm4.41147438-2.17486097.19646399.61412386-.19646399 3.11768715-1.59582549-3.11768715zm9.63908699 7.04526657-.3273885 1.65425459h-2.7819517v-1.49921652zm-.4021252-2.48439608v1.94547265l-2.7585337.28217546v-1.16657255zm-4.3032723.48683188v.93370631l-1.0366529.49301486-.12620991-.49301486zm1.2165-4.36216517 1.149724 1.37006967-1.149724 1.21905053h-1.2546026v1.27400172l-1.16201262.98193349v-.98193349zm2.0161904 1.48932377.5149644 2.03899013-2.09711 1.00396034-.1638488-1.55107622zm-4.41147436-2.17486097 1.59582546.61412386-1.59582546 3.11768715-.19646399-3.11768715z" fill="#fa8f21"/></g></g></g></g><rect height="32" mask="url(#b)" rx="2" width="43.335938"/></g></svg>