<svg height="32" viewBox="0 0 43 32" width="43" xmlns="http://www.w3.org/2000/svg" xmlns:xlink="http://www.w3.org/1999/xlink"><mask id="a" fill="#fff"><path d="m0 0h43.335938v32h-43.335938z" fill="#fff" fill-rule="evenodd"/></mask><mask id="b" fill="#fff"><path d="m0 0h42.666667v32h-42.666667z" fill="#fff" fill-rule="evenodd"/></mask><g fill="none" fill-rule="evenodd"><g fill-rule="evenodd" mask="url(#a)"><g mask="url(#b)" transform="translate(.3346)"><rect fill="#e11c1b" height="32" rx="2.666667" width="42.666667"/><path d="m0 0 42.6666667 32h-42.6666667z" fill="#1d1d1d"/><g transform="translate(2.6667 2.6667)"><g fill="#eeeef6"><path d="m6.77784685 21.6912775h1.77576l.8445134-1.991055.99264665 1.977639 1.81936.0995041-1.5548465 1.6923315.7983513 2.03876-1.97636004-1.1348826-1.82504 1.14504.68844241-1.9795182z"/><path d="m1.44451352 16.3579441h1.77576l.84451339-1.9910549.99264661 1.9776389 1.81936.0995041-1.55484648 1.6923316.79835129 2.03876-1.97636-1.1348827-1.82504 1.14504.68844241-1.9795182z"/><path d="m6.77784685 13.6912775h1.77576l.8445134-1.991055.99264665 1.977639 1.81936.0995041-1.5548465 1.6923315.7983513 2.03876-1.97636004-1.1348826-1.82504 1.14504.68844241-1.9795182z"/><path d="m10.2816361 19.4189507 1.2206316-.0405768.4406248-1.2589469.4946868 1.2522172 1.1231989.1079722-1.0114369.7151285.8157368 1.2663525-1.4152676-.5293616-1.2266184.5463906.6477663-1.2485698z"/><path d="m12.9483027 16.7522841 1.2206317-.0405769.4406248-1.2589469.4946868 1.2522172 1.1231989.1079723-1.0114369.7151284.8157367 1.2663526-1.4152675-.5293617-1.2266184.5463907.6477662-1.2485699z"/></g><path d="m25.4451976 0c-2.7455891.5477302-3.7330998 2.72988368-2.9625321 6.54646045h-.5875358c.0320334-.19915401-.1402471-.35711676-.5168414-.47388828-.5648915-.17515727-.4517807-.10940244-.7432841 0-.1943356.07293496-.8826844.07293496-2.0650462 0v.21914499l1.2550444.54202389c-.0206192.30088504.1439659.5346926.4937553.70142267s.6516761.29026602.90566.37060784c.0517689.33202412-.0862323.49803617-.4140033.49803617-.4916567 0-2.4691082-.64099406-3.1724058.93383309-.4688651 1.04988478-1.014868 1.95998418-1.6380086 2.73029828h1.0545598l-.282998.351675h1.187443l-.3209962.1821862c.9793367-.0108835 1.5071873-.0716123 1.5835518-.1821862.0763646-.1105739.0763646.0393017 0 .449627.9487025-.4332261 1.4490487-.7003268 1.5010384-.801302l.6641949.4556356.1892176-.7710321.7126867.3153965.1939675-.7346402c1.344075 2.2478327 2.5258108 3.3072413 3.5452076 3.1782258v-.5595963l1.3954388.5595963.1771776-.248848c1.1238181.4582432 1.8586704.7086028 2.2045569.7510789l-.3701508-.7510789h.3701508l-.3701508-1.3934356h.3701508c-.4935344-.7444656-.7403016-1.1166985-.7403016-1.1166985.1382956-.2015725.2074435-.3023588.2074435-.3023588-.0915344-.2649089-.1373016-.3973633-.1373016-.3973633 1.8093318.5763751 2.6732011 1.3230704 2.5916081 2.2400858-.0815929.9170154-.52531 1.5605436-1.3311511 1.9305845-.7727033.2367174-1.5080342.3296056-2.205993.2786645.5540665.6544495 1.4172363.870798 2.5895094.6490455 1.1722732-.2217525 1.9526718-.9009545 2.3411957-2.0376062.5374975 1.1164717.5849952 1.9682236.1424932 2.5552555s-1.6488704 1.0866175-3.6191053 1.4987567c.712834.4179589 1.4071844.5733897 2.0830511.4662925 1.0138002-.1606459 2.5903931-1.0430077 2.8960354-2.4826985.3056423-1.4396907-1.0544494-4.0962993-1.6705942-4.3986582l-.243343-.9217013c.369304.1479861.553956.2219792.553956.2219792-.7576807-1.85285023-1.136521-2.77927536-1.136521-2.77927536.3673893.08049299.551084.12073948.551084.12073948-1.0719757-1.33346266-1.6079635-2.00019399-1.6079635-2.00019399.2951486-.09092306.4427229-.13638459.4427229-.13638459-1.4809715-1.06454807-2.2214573-1.5968221-2.2214573-1.5968221l.6647472-.17561076c-1.0946567-.55475916-2.2663408-.49622224-3.5150521.17561076.0117823-.23210701.0176735-.34816051.0176735-.34816051-.3281393.05547592-.4922089.08321388-.4922089.08321388.0194409-.25531015.0291614-.38296522.0291614-.38296522.326151-.49414379.4892265-.74121568.4892265-.74121568-.4896315-.18864835-.7344473-.28297252-.7344473-.28297252.3958143-.59458997.5640078-.88780361.5045804-.87964095-.4411028.12659695-.6491355.16336675-.6240979.11030941.2225397-.57304959.3045377-.85190299.245994-.8365602-.5115762.17398578-.7295134.21744443-.6538116.13037597l.2949277-.5251317z" fill="#fbcd17"/></g></g></g><rect height="32" mask="url(#a)" rx="2" width="43.335938"/></g></svg>