<svg height="32" viewBox="0 0 43 32" width="43" xmlns="http://www.w3.org/2000/svg" xmlns:xlink="http://www.w3.org/1999/xlink"><defs><path id="a" d="m0 0h42.666667v32h-42.666667z"/><path id="b" d="m0 0v32l24-16z"/><mask id="c" fill="#fff"><path d="m0 0h43.335938v32h-43.335938z" fill="#fff" fill-rule="evenodd"/></mask><mask id="d" fill="#fff"><path d="m0 0h42.666667v32h-42.666667z" fill="#fff" fill-rule="evenodd"/></mask><mask id="e" fill="#fff"><use fill="#fff" fill-rule="evenodd" xlink:href="#a"/></mask><mask id="f" fill="#fff"><use fill="#fff" fill-rule="evenodd" xlink:href="#b"/></mask></defs><g fill="none" fill-rule="evenodd"><g fill-rule="evenodd" mask="url(#c)"><g mask="url(#d)" transform="translate(.3346)"><use fill="#bf2714" xlink:href="#a"/><path d="m0-2.666667h42.666667v18.666667h-42.666667z" fill="#3d58db" mask="url(#e)"/><use fill="#f7fcff" xlink:href="#b"/><g fill="#feca00"><path d="m17.7961838 15.3075124 1.8229602.034636.5437225-1.465448.5700716 1.4877646 1.645435-.0569526-1.3572914 1.0893102.6027261 1.338433-1.4035039-.6824816-1.4922739.8884922.5048425-1.5581659z" mask="url(#f)"/><path d="m1.79618376 23.3075124 1.70584271.1148331.66083999-1.5456451.45295411 1.5679616 1.76255257-.1371496-1.474409 1.1695073.71984364 1.2582359-1.51730242-.5340396-1.3784754.7400502.38772503-1.4779688z" mask="url(#f)"/><path d="m1.79618376 7.30751237 1.84407045.00736309.52261225-1.43817511.59118185 1.46049166 1.62432483-.02967964-1.33618126 1.06203729.5816159 1.36570591-1.37907468-.64150958-1.51670314.84752017.52595276-1.58543876z" mask="url(#f)"/><path d="m10.8286672 19.3771139c1.8409492 0 3.3333333-1.4923842 3.3333333-3.3333334 0-1.8409491-1.4923841-3.3333333-3.3333333-3.3333333-1.84094917 0-3.33333334 1.4923842-3.33333334 3.3333333 0 1.8409492 1.49238417 3.3333334 3.33333334 3.3333334z" mask="url(#f)"/><path d="m10.4190398 13.1565915-.3280575-2.1236213c-.055996-.275159.1216707-.5436131.3968296-.5996091.024657-.0050178.0496525-.0081983.0747805-.0095152.280414-.0146958.5196479.2007113.5343437.4811253.0013169.0251279.0007666.050319-.0016463.0753654l-.0869654 2.1453718c-.0157998.1640014-.1615575.2841426-.3255589.2683428-.1305486-.012577-.2375716-.1089408-.2637257-.2374597zm-.47086052-.1424384-.34112511-.9099311c-.03341749-.0891392.01175386-.188491.10089304-.2219085.00691052-.0025907.01398028-.0047349.02116564-.0064194.10756017-.0252153.21632424.0369619.24916923.1424428l.28559572.9171832c.0244567.0785421-.0193882.1620392-.0979303.186496-.096223.0239951-.18610225-.0233959-.21776822-.107863zm1.24473802 5.3433967c.1305487.012577.2375716.1089408.2637258.2374597l.2883417 2.2320235c.055996.2751589-.1216707.543613-.3968296.599609-.0246571.0050178-.0496526.0081983-.0747805.0095152-.280414.0146959-.5196479-.2007112-.5343438-.4811253-.0013169-.0251279-.0007666-.0503189.0016464-.0753654l.1266812-2.2537739c.0157998-.1640014.1615574-.2841426.3255588-.2683428zm-1.82957171-.5465216c.08341858.1012051.09095566.2450212.01857287.3543915l-1.34015944 1.8851103c-.1549716.2341619-.47042663.2983584-.70458853.1433868-.02098328-.0138871-.04090671-.0293126-.05960604-.0461496-.20867421-.1878911-.22552224-.5093708-.03763114-.718045.01683695-.0186993.03503882-.036123.05445557-.0521273l1.64900481-1.6070246c.12713865-.1047944.31515752-.0866808.4199519.0404579zm1.21841981.7960919c.0895092.0176036.1418417.0960603.1257288.1767286l-.1881594.9420117c-.0216393.1083362-.1233083.1815418-.2329149.1677077l-.0217207-.0041718c-.092144-.0239169-.147453-.1180027-.1235361-.2101467l.2441427-.9406037c.0226633-.0873144.1070964-.1438407.1964596-.1315258zm1.3457382.1303278.3411251.9099311c.0334175.0891392-.0117539.188491-.100893.2219085-.0069106.0025907-.0139803.0047349-.0211657.0064193-.1075602.0252154-.2163242-.0369619-.2491692-.1424427l-.2855957-.9171832c-.0244567-.0785422.0193882-.1620392.0979303-.186496.096223-.0239951.1861022.0233959.2177682.107863zm1.2999571-1.3057244 1.8289078 1.3803301c.2341619.1549716.2983583.4704267.1433867.7045886-.013887.0209832-.0293126.0409067-.0461495.059606-.1878911.2086742-.5093708.2255222-.718045.0376311-.0186994-.0168369-.036123-.0350388-.0521273-.0544555l-1.5508222-1.6891756c-.1047944-.1271386-.0866808-.3151575.0404579-.4199519.1012051-.0834185.2450213-.0909556.3543916-.0185728zm-3.69102746.9371081c.08500704.0510728.11505077.1481375.07771473.230256l-.40220659.8846303c-.03940119.0866607-.14159449.1249721-.22825514.0855709-.00671837-.0030546-.01323362-.0065375-.01950554-.0104272-.09388645-.0582266-.12682832-.1791004-.07546702-.2769115l.44659982-.8504931c.03824416-.0728312.12828854-.1008696.20111974-.0626254zm3.29482876-.2738504.533054.7991516c.061304.0919066.0411773.2155616-.0461085.283283-.0058309.004524-.0119465.0086688-.0183087.012409-.0820674.0482438-.1877055.0208244-.2359493-.061243l-.4924724-.8377422c-.0457152-.0777659-.0259821-.1774394.0459152-.2319207.0757402-.0508449.1682221-.0323724.2138697.0360623zm-4.07653901-.5396298c.05084493.0757401.0323724.168222-.03606222.2138696l-.79915165.5330541c-.0919066.0613039-.21556156.0411773-.28328298-.0461085-.00452401-.005831-.00866886-.0119465-.01240897-.0183088-.04824384-.0820673-.02082446-.1877054.06124291-.2359493l.83774221-.4924723c.07776596-.0457152.1774394-.0259821.2319207.0459152zm4.90640551-.3558574.8846304.4022065c.0866606.0394012.124972.1415945.0855708.2282552-.0030546.0067184-.0065375.0132336-.0104272.0195055-.0582266.0938865-.1791003.1268283-.2769115.075467l-.8504931-.4465998c-.0728312-.0382441-.1008695-.1282885-.0626254-.2011197.0510728-.0850071.1481375-.1150508.230256-.0777147zm-5.4770715-.5517995c.02399515.0962229-.02339586.1861022-.10786298.2177681l-.90993112.3411252c-.08913918.0334174-.18849098-.0117539-.22190847-.1008931-.00259069-.0069105-.00473489-.0139803-.00641935-.0211656-.02521533-.1075602.0369619-.2163243.14244274-.2491693l.91718322-.2855957c.07854215-.0244567.16203923.0193882.18649596.0979304zm-2.23867764-.9171696 2.24236999.0747926c.16400142.0157998.28414258.1615575.26834279.3255589-.01257698.1305487-.10894084.2375716-.23745969.2637257l-2.22061957.3402302c-.27515893.055996-.54361305-.1216706-.59960905-.3968296-.00501781-.024657-.00819827-.0496525-.00951517-.0747805-.01469588-.280414.20071124-.5196478.48112526-.5343437.02512794-.0013169.05031898-.0007666.07536544.0016464zm7.90051024.3756228.9420117.1881594c.1083362.0216393.1815418.1233083.1677077.232915-.0009242.007322-.0023176.0145772-.0041718.0217207-.0239168.0921439-.1180027.1474529-.2101466.123536l-.9406037-.2441426c-.0873144-.0226633-.1438407-.1070965-.1315258-.1964597.0176036-.0895091.0960602-.1418417.1767285-.1257288zm2.6186088-.6793494c.0050178.0246571.0081982.0496526.0095151.0747805.0146959.280414-.2007112.5196479-.4811252.5343437-.025128.0013169-.050319.0007666-.0753655-.0016463l-2.2295893-.0879927c-.1640014-.0157998-.2841426-.1615575-.2683428-.3255589.012577-.1305487.1089409-.2375716.2374597-.2637257l2.2078389-.3270302c.275159-.055996.5436131.1216707.5996091.3968296zm-9.33010612-.3476762.94060371.2441427c.08731439.0226633.14384073.1070965.13152579.1964596-.01760359.0895092-.09606023.1418417-.17672854.1257289l-.94201167-.1881594c-.10833624-.0216394-.1815418-.1233083-.1677077-.232915.00092416-.007322.00231762-.0145772.00417177-.0217207.02391684-.0921439.1180027-.1474529.21014664-.1235361zm7.79693612-.4332158c.0025907.0069105.0047349.0139802.0064194.0211656.0252153.1075602-.0369619.2163242-.1424428.2491692l-.9171832.2855957c-.0785421.0244568-.1620392-.0193881-.1864959-.0979303-.0239952-.0962229.0233958-.1861022.1078629-.2177682l.9099312-.3411251c.0891391-.0334175.188491.0117539.2219084.1008931zm-7.39963657-.8192336.85049313.4465999c.0728312.0382441.10086953.1282885.06262537.2011197-.05107277.085007-.14813751.1150508-.23025601.0777147l-.88463034-.4022066c-.08666065-.0394011-.12497202-.1415945-.08557083-.2282551.00305457-.0067184.00653748-.0132336.0104272-.0195055.05822659-.0938865.17910035-.1268284.27691148-.0754671zm-.25943924-1.6409718c.01869933.0168369.03612296.0350388.05212726.0544556l1.71869181 1.6411962c.10479438.1271387.08668076.3151576-.04045789.4199519-.10120511.0834186-.24502128.0909557-.35439159.0185729l-1.99677742-1.3323509c-.23416191-.1549716-.29835833-.4704266-.14338673-.7045885.01388703-.0209833.0293126-.0409067.04614954-.0596061.18789111-.2086742.50937081-.2255222.71804502-.0376311zm6.96720411 1.3097335.012409.0183087c.0482438.0820674.0208245.1877055-.0612429.2359494l-.8377422.4924723c-.077766.0457152-.1774394.0259821-.2319207-.0459152-.050845-.0757401-.0323724-.168222.0360622-.2138696l.7991516-.5330541c.0919066-.061304.2155616-.0411773.283283.0461085zm.3307537-1.7981964c.0209833.013887.0409067.0293126.0596061.0461495.2086742.1878911.2255222.5093708.0376311.718045-.016837.0186994-.0350388.036123-.0544556.0521273l-1.6807028 1.4674709c-.1271387.1047944-.3151575.0866808-.4199519-.0404579-.0834186-.1012051-.0909557-.2450213-.0185729-.3543916l1.3718575-1.7455565c.1549716-.2341619.4704266-.2983583.7045885-.1433867zm-5.75847699.9257811.49247231.8377422c.04571524.077766.02598211.1774394-.04591514.2319208-.07574017.0508449-.16822208.0323723-.21386967-.0360623l-.53305404-.7991516c-.06130398-.0919066-.04117732-.2155616.04610848-.283283.00583097-.004524.01194647-.0086689.01830874-.012409.08206737-.0482438.18770548-.0208244.23594932.0612429zm4.08026319-.4407069.0195056.0104272c.0938864.0582266.1268283.1791004.075467.2769115l-.4465998.8504931c-.0382442.0728312-.1282886.1008696-.2011198.0626254-.085007-.0510728-.1150507-.1481375-.0777147-.230256l.4022066-.8846304c.0394012-.0866606.1415945-.124972.2282551-.0855708zm-1.3027336-.3242793c.0073221.0009242.0145772.0023176.0217207.0041718.0921439.0239168.1474529.1180027.1235361.2101466l-.2441427.9406037c-.0226633.0873144-.1070965.1438408-.1964596.1315258-.0895092-.0176036-.1418417-.0960602-.1257289-.1767285l.1881595-.9420117c.0216393-.1083362.1233082-.1815418.2329149-.1677077z" mask="url(#f)" transform="matrix(.99756405 .06975647 -.06975647 .99756405 1.137849 -.723738)"/></g></g></g><rect height="32" mask="url(#c)" rx="2" width="43.335938"/></g></svg>