<svg height="32" viewBox="0 0 43 32" width="43" xmlns="http://www.w3.org/2000/svg" xmlns:xlink="http://www.w3.org/1999/xlink"><mask id="a" fill="#fff"><path d="m0 0h43.335938v32h-43.335938z" fill="#fff" fill-rule="evenodd"/></mask><mask id="b" fill="#fff"><path d="m0 0h42.666667v32h-42.666667z" fill="#fff" fill-rule="evenodd"/></mask><g fill="none" fill-rule="evenodd"><g fill-rule="evenodd" mask="url(#a)"><g mask="url(#b)" transform="translate(.3346)"><path d="m10.6666667 0h32v32h-32z" fill="#2f8d00"/><path d="m0 0h10.6666667v32h-10.6666667z" fill="#f7fcff"/><path d="m15.5304842 4.11337939c-4.5598605 2.31995459-6.47218639 5.34028749-5.73697763 9.06099871.73520873 3.7207112 2.87218083 6.6186242 6.41091633 8.693739-2.0291874.7445491-9.32287681-.4164458-10.54566156-8.0191301-1.22278474-7.60268442 7.87485686-11.22514616 9.87172286-9.73560761zm3.9915127 4.83366489.0910316 2.95467912 2.988924 1.1111204-3.1481326.9556516.5234333 3.5949168-2.4517425-2.8062787-3.2997208.6276261 1.9872719-2.6240458-1.9386359-2.7788418 3.32919 1.1425548z" fill="#f1f9ff" transform="matrix(.70710678 -.70710678 .70710678 .70710678 2.984621 16.403504)"/></g></g><rect height="32" mask="url(#a)" rx="2" width="43.335938"/></g></svg>