<svg height="32" viewBox="0 0 43 32" width="43" xmlns="http://www.w3.org/2000/svg" xmlns:xlink="http://www.w3.org/1999/xlink"><defs><path id="a" d="m0 0h42.666667v32h-42.666667z"/><path id="b" d="m0 0h24v18.666667h-24z"/><path id="c" d="m.19272305.20103803h6.91288078v4.22352909c-.37570954 2.30070183-1.56706304 4.01777479-3.57406049 5.1512189-1.94403779-1.1490642-3.05697789-2.86613716-3.33882029-5.1512189z"/><mask id="d" fill="#fff"><path d="m0 0h43.335938v32h-43.335938z" fill="#fff" fill-rule="evenodd"/></mask><mask id="e" fill="#fff"><path d="m0 0h42.666667v32h-42.666667z" fill="#fff" fill-rule="evenodd"/></mask><mask id="f" fill="#fff"><use fill="#fff" fill-rule="evenodd" xlink:href="#a"/></mask><mask id="g" fill="#fff"><use fill="#fff" fill-rule="evenodd" xlink:href="#b"/></mask><mask id="h" fill="#fff"><use fill="#fff" fill-rule="evenodd" xlink:href="#c"/></mask></defs><g fill="none" fill-rule="evenodd"><g fill-rule="evenodd" mask="url(#d)"><g mask="url(#e)" transform="translate(.3346)"><use fill="#2e42a5" xlink:href="#a"/><g mask="url(#f)"><use fill="#2b409a" xlink:href="#b"/><g mask="url(#g)"><g fill-rule="nonzero"><path d="m1.32764499 3.28505196 5.28126726-2.31626725 21.51092825 17.13103699 2.7857478 3.4420421-5.6475555.7741648-8.7737935-7.382254-7.06200197-4.97391428z" fill="#f7fcff" transform="matrix(1 0 0 -1 -4 20.6181)"/><path d="m2.05065842 2.76731119 2.69056181-1.34416892 25.16402527 21.54362063h-3.7778619z" fill="#f50100" transform="matrix(1 0 0 -1 -4 21.7233)"/><path d="m1.32764499 3.28505196 5.28126726-2.31626725 21.51092825 17.13103699 2.7857478 3.4420421-5.6475555.7741648-8.7737935-7.382254-7.06200197-4.97391428z" fill="#f7fcff" transform="matrix(-1 0 0 -1 28 20.6181)"/><path d="m1.50784817 3.09890547 2.6905618-1.34416891 10.71510273 9.22394324 3.176798 1.030569 13.0833277 10.4993758h-3.7778619l-13.075977-10.2501652-3.4732688-1.2357627z" fill="#f50100" transform="matrix(-1 0 0 -1 28 21.5967)"/></g><path d="m14.3127673-1-.000682 7.99909357 10.6879147.00099999v4.66663544l-10.6879147-.0006666.000682 8.0006043h-4.66675002l-.00001536-8.0006041-10.64600192.0006667v-4.66663537l10.64600192-.001.00001536-7.99909393z" fill="#f50100" stroke="#f7fcff" stroke-width="2"/></g></g><g mask="url(#f)"><g transform="translate(25.3333 12)"><path d="m2.15476357 2.34252361c.08778204.97305389.03545623 1.73526648-.15697742 2.28663775-.28865048.82705691-.43532541 1.3071503-.43532541.778491s-.20270602-.94761888-.36573842-.94761888c-.16303239 0-.03434163.52426054-.19818738.52426054s-.72831378.09012972-.72831378-.21706541-.07428638.82409448.29199427.92526599-.17785352.41509944-.4207754.31787784c.66616747.21652678 1.12986991.41704447 1.39110734.60155306.78310977.97766212 1.54091519 1.40685556 2.27341624 1.2875803-.99741363-.34430033-1.40824803-.84537012-1.23250321-1.50320938.26361724-.98675888 1.23250321-1.1294942 1.23250321-1.1294942.30311012.10138098.45011641.28484224.44101889.5503838-.01364628.39831233.33248126-.12469142.33248126-.12469142.03717331-.33550281.03527548-.54418962-.00569349-.62606045-.06145345-.12280623 1.0413649-.36051889 1.1109519-.8787648-.75123833.03435223-1.15264385.00715173-1.20421655-.08160151-.07735905-.13312986.34874834-.3418466.21544858-.60137352-.08886652-.17301795-.79636445.32018195-2.1224938 1.4795997.45794872-.78914378.68692308-1.39560431.68692308-1.81938158 0-.6356659-.17450973-1.07006603-.68692308-1.07006603-.3416089 0-.48117451.08255906-.41869683.2476772z" fill="#5eaa22" fill-rule="evenodd"/><path d="m12.5089514 2.69719947c.3353101-.35131.6415216-.40669584.9186346-.16615752.2784083.24166257.2082489.480243-.210478.71574132.1957473.18983498.4055325.28475247.6293556.28475247s.3631779-.09491749.4180642-.28475247c.0171106.42246063.3906512.71367659 1.1206218.87364787.2604542-.37395365.2604542-.66329167 0-.86801408.307689-.06384234.4503574-.22036516.4280052-.46956846-.2529231.08617981-.4695766.0302527-.6499606-.16778133-.2705759-.29705105-.7979008-.43404105-1.1812619-.36554605-.6985692-.2519367-1.1903653-.10254688-1.4753882.44816947l-.0002216.00002706c-.0001448-.00118599.0006992-.00226481.0018852-.00240961.0008884-.00010846.0017519.00034133.0021722.0011315z" fill="#5eaa22" fill-rule="evenodd"/><path d="m5.87161296 5.8866685c.75485324 1.41987229.89637693 2.2769126.42457106 2.57112091-.7077088.44131247 3.36502838.12738454 3.74875098 0s-.07744944-.79889692-.5030146-.98532255c-.42556515-.18642563-2.17518109-.80667898-2.64060062-1.27447378-.46541953-.46779481-.18119731-.63378073.19366875-1.0955609.37486606-.46178018 1.76262961-.64643838 1.76262961-1.07805562s.88023033-2.21167927 1.49548786-2.34597615c.6152575-.13429688.2828666-.34579651.1414333-.34579651s-.9920214.87670008-1.31447128.71852421-.36185239-.14704431 0-.52937747c.36185238-.38233316.63423577-.82238884.15589294-.50576779-.47834282.31662105-1.26702559.81772077-1.64613916.81772077-.37911358 0-1.72873984-.1709233-1.56118881.21742449s.23858399 1.06243553.96635554 1.51784199c.72777154.45540646.41146701.78866217-.19366875 1.2274924-.40342384.29255348-.74665945.65595548-1.02970682 1.090206z" fill="#96877d" fill-rule="evenodd"/><path d="m13.3848397 3.07020442-2.1575584 4.32712441c-.0419329.81487803.4512612.95082071 1.4795823.40782802 1.5424816-.81448902 1.4817512-1.39216309 1.9264753-1.39216309.4447242 0 .5859768-.24695903.5859768-.24695903-.1974946-.15530321-.2962418-.23295481-.2962418-.23295481-.0228342-.2832563.0282866-.45669318.1533625-.52031064-.2453921-.13519458-.3856204-.14635606-.420685-.03348445-.052597.16930743-.3121474-.35414517-.1652917-.35414517-.2163524.35034488-.3473627.59386271-.393031.73055347-.3131114-.12729477-.4621661-.48583871-.4471643-1.07563181.0150019-.58979311-.073473-1.12641208-.2654247-1.6098569z" fill="#ffd018" fill-rule="nonzero"/><path d="m3.11515451 2.38498512s-1.09866121.25575655-.98018257.5219265.29307875-.00718165-.24481971.31356885c-.62995813.4870955-1.01359034.70425068-1.15089664.65146554-.20595943-.07917771.14586158.18402981.14586158-.65146554s-.54874318-.15539298 0-.71313797.74114671-.12235738 1.00503506-.44328742c.26388836-.32093004.02665996-.15027605.7425023-.15027605.71584235 0 .48249998.47120609.48249998.47120609z" fill="#ffd018" fill-rule="nonzero"/><path d="m6.46753071 6.68544766c-2.05073786 1.61156253-3.281042 2.47749013-3.69091243 2.59778279-.61480564.18043899 1.26449516-.04964316 1.7235886-.36877779.30606229-.21275642.9618369-.95575809 1.96732383-2.229005z" fill="#ffd018" fill-rule="nonzero"/><path d="m12.5660629 10.9261229c.1968318 1.269716.038318 1.8420936-.4755413 1.7171329-.5138593-.1249608-.8774288-.2197586-1.0907084-.2843934.1885175.5914089.4174316.8871134.6867423.8871134.4588525.8942353.6000147 1.4825322.4234866 1.7648908.7903998-.6412616 1.1217063-1.2168111.9939192-1.7266485-.1916805-.7647561.3064539.1258585.3064539.1258585.2908797.1404611.5414531.132262.7517203-.0245972.3154009-.2352888-.0039764-.130706-.3193772-.5786615s-.2375408-1.7060013-1.1968718-2.3580055c-.639554-.4346694-1.033768-.64506185-1.182642-.63117732-.4710226-.77011241-.565432-1.12970367-.2832281-1.07877379 2.0223608.69326873 3.0598096 1.12874611 3.1123462 1.30643211.0788051.2665291.883303.2176938.481054-.54436914-.4022489-.76206297-2.5706521-1.22132957-2.8287566-1.43624048-.2581045-.21491092-.0179842-1.03002833-.4814155-1.20759466s-1.72955318-1.43758704-1.72873982-2.04479565c.00081335-.60720861-.59510439-.89303833-1.11312084-.89303833-.51801646 0-1.49340927-.14964766-1.90550889-.14964766s-.7961837.68934875-.39809185.68934875.05801929 1.2906325-.60856992 1.57269185-1.18189449.68746357-1.94310394.68746357c-.76120946 0 1.07751399.65631315 1.37059273.39714531.29307875-.25916784.19692217-.64536114 1.18108113-1.08460888.98415897-.43924774 1.92349306-.69931329 1.80456255-.34965665-.1189305.34965665.18447156.93451237.64815318.7228332.46368163-.21167917.61236558-.7463531.61236558-.37317655s.71087189 2.2898695 1.25401189 3.03792825c.3620934.49870583 1.0051556 1.11755467 1.9291866 1.85654657z" fill="#5eaa22" fill-rule="evenodd"/><g fill="#ffd018" fill-rule="nonzero"><path d="m6.09483359 3.92733449c-.24045169.38308734-.24045169.57463101 0 .57463101.36067754 0 .94073136 0 .58733233-.2873155-.23559935-.19154367-.43137679-.28731551-.58733233-.28731551z"/><path d="m7.29995387 3.91352632c.00114472.25470099.08504073.38205149.25168803.38205149.24997096 0 .47237823.38205148.47237823 0 0-.38205149.34739275-.2553521-.18833676-.38205149-.357153-.08446626-.5357295-.08446626-.5357295 0z"/><path d="m8.83945322 4.00103619c-.16062246.12095098-.20077807.28930085-.12046684.50504962.12046684.32362316.39303097.96404691 0 .96404691-.39303098 0-.71640596.23089009-.40938844.23089009.30701751 0 .85320889.23089009.85320889 0s.22222652.38071729.22222652 0 0-.56263806 0-.7859198.22222653-.28746775 0-.60076728c-.14815101-.20886636-.33001106-.31329954-.54558013-.31329954z"/><path d="m9.39623957 6.22896395c.33480082 1.05372778.59323669 1.64851812.77530763 1.78437102.2731063.20377935.3956518 1.92028377.515486 2.10691693.1198342.1866332 1.7528693 1.1285965 1.7528693 1.634095s.5028339-.3884376.251417-.8889987c-.251417-.5005611-1.0429953-1.56630552-1.6123416-1.798728-.5693464-.23242249-.4971386-.79519464-.616792-1.19072408-.1196535-.39552944.7083414.31958348 0-.5775843-.70834146-.89716778-.68954393-.41572784-.49009133-.41572784.19945263 0 .39890523-.10601912.19945263-.24543293-.1329684-.09294254-.3914043-.2290049-.77530763-.4081871z"/><path d="m4.07211128 9.48853591c-1.08748511 1.92055309-1.72825785 2.93044289-1.92231821 3.02966939-.29109054.1488397-.50807545.1790924-.65682896 0-.1487535-.1790925-.16402649.480632 0 .6612505.1640265.1806185.65682896.1806185.93029682-.140132.02885903.5402996.18529421 1.014109.46930556 1.4214283.42601702.610979.60350905.4423.60350905.7878272s.10067521.8029984.23072156.8029984.23072157 1.0875713 0 1.0875713c-.23072156 0 .53464504.089232.86830114-.182773.33365609-.2720051.47626425-.4791957.40496017-.4791957s-.92794713-.450918-.92794713-.7699628c0-.3190449-.57603574-.5688766-.57603574-1.0425065s-.29927879-1.0367611-.29927879-1.2610081c0-.2242471.25589988.0865399.53000035-.1258131.18273365-.1415686.29783838-.3947968.34531418-.7596845-.287807.1930667-.47981891.2413334-.57603574.1448-.14432524-.1448-.59855757-.4306298-.29927879-.9210468.19951919-.3269446.4912907-1.0780855.87531453-2.25342259z"/></g><path d="m6.89897009.40293915c-.38941607.17319749-.51922142.38846748-.38941607.64580998.19470804.38601376.26470171.55693706.38941607.47147541s.99979345-.2470488.80377501-.6821671c-.19601844-.43511829-.60668701-.43511829-.60668701-.43511829s-.065696 0-.197088 0z" fill="#5eaa22" fill-rule="evenodd"/><path d="m8.92521693.194217c-.51431117-.22759129-.68574823-.22759129-.51431117 0 .25715559.34138693.58615749.52135866.82284365.52135866.23668617 0 .72849453-.07056366.48259035-.20829486-.16393612-.0918208-.42764373-.1961754-.79112283-.3130638z" fill="#ffd018" fill-rule="nonzero"/><path d="m1.27654319 9.04078749c-.45190851.40097307-.59916305.7724348-.44176363 1.11438521.16264078.3533372.32528156.5913491.48792234.7140357.09904851.5409578.25093493.8850487.45565927 1.0322726.27497408-.0140641.4192692-.2316382.43288535-.6527224.46698599-.13699.76910201-.0596974.90634805.2318776-.09055347.0327962-.1358302.1730778-.1358302.4208448 0 .2477669.10564571.5058575.31693714.7742717.09675906-.8545566.36254525-1.5573111.79735854-2.1082635.4348133-.5509523.71442651-.88079957.83883963-.98954174v-.92993406c-.89963034.73306705-1.44502973 1.4043569-1.63619817 2.0138697-.45306859.0151114-.77163244-.0163533-.95569156-.0943939-.27608867-.1170609.34486232-.3090803 0-.7251672-.34486231-.41608692-.18680042.5858432-.56464878.3128507-.45482549-.1264818-.61146722-.49204192-.46992518-1.09668028l.00051618.000077c.00176287-.01181725-.00638781-.02282612-.01820506-.02458899-.00574331-.00085678-.01158994.00063131-.01622482.00412954z" fill="#5eaa22" fill-rule="evenodd"/><g fill="none" fill-rule="evenodd" transform="translate(4.0563 8.0586)"><use fill="#5eaa22" xlink:href="#c"/><g mask="url(#h)"><g transform="translate(.4507 -.2239)"><path d="m3.0285133.19669182-3.02025643 6.26760659 4.09596297-3.71955672 2.81899638 4.6723823v-7.22043217l-2.81899638 2.31087583z" fill="#58a5ff" fill-rule="evenodd"/><g fill="#ffd018"><path d="m3.15865003 4.49140904c.12445853 0 .22535211.10089358.22535211.22535211v4.02445198c0 .12445853-.10089358.22535211-.22535211.22535211-.12445854 0-.22535212-.10089358-.22535212-.22535211v-4.02445198c0-.12445853.10089358-.22535211.22535212-.22535211z" fill-rule="nonzero"/><path d="m1.92822539 5.48765522c0-.12227506.09912351-.22139857.22139857-.22139857h2.03630743c.12227505 0 .22139856.09912351.22139856.22139857 0 .12227505-.09912351.22139856-.22139856.22139856h-2.03630743c-.12227506 0-.22139857-.09912351-.22139857-.22139856z" fill-rule="nonzero"/><g fill-rule="evenodd" transform="translate(1.3521 6.9394)"><path d="m1.89547751 1.87742791-.17444616.14171038c-.25707802-.31226162-.49149179-.46245333-.69865813-.46245333-.30507072 0-.55313716-.25448171-.75542848-.73716135l.20804378-.08603336c.17112878.40832388.35733339.59934394.5473847.59934394.2879557 0 .57746274.18549064.87310429.54459372z" fill-rule="nonzero"/><path d="m.06180154.05294046v1.08803684c0 .0011948.00096858.00216338.00216338.00216338.00028253 0 .00056232-.00005534.00082357-.0001629l.81833871-.33689847c.00110484-.00045485.00163176-.00171922.00117691-.00282406-.00012062-.00029301-.00030414-.00055594-.00053758-.00077021l-.81833871-.75113836c-.00088022-.00080794-.00224874-.00074934-.00305668.00013088-.00036634.00039911-.0005696.00092114-.0005696.0014629z"/></g><g fill-rule="evenodd" transform="matrix(-1 0 0 1 4.9578 6.9394)"><path d="m1.89547751 1.87742791-.17444616.14171038c-.25707802-.31226162-.49149179-.46245333-.69865813-.46245333-.30507072 0-.55313716-.25448171-.75542848-.73716135l.20804378-.08603336c.17112878.40832388.35733339.59934394.5473847.59934394.2879557 0 .57746274.18549064.87310429.54459372z" fill-rule="nonzero"/><path d="m.06180154.05294046v1.08803684c0 .0011948.00096858.00216338.00216338.00216338.00028253 0 .00056232-.00005534.00082357-.0001629l.81833871-.33689847c.00110484-.00045485.00163176-.00171922.00117691-.00282406-.00012062-.00029301-.00030414-.00055594-.00053758-.00077021l-.81833871-.75113836c-.00088022-.00080794-.00224874-.00074934-.00305668.00013088-.00036634.00039911-.0005696.00092114-.0005696.0014629z"/></g></g><path d="m2.704225 2.91006h1v1.343105h-1z" fill="#fff" fill-rule="evenodd"/></g></g></g></g></g></g></g><rect height="32" mask="url(#d)" rx="2" width="43.335938"/></g></svg>