<svg height="32" viewBox="0 0 43 32" width="43" xmlns="http://www.w3.org/2000/svg" xmlns:xlink="http://www.w3.org/1999/xlink"><mask id="a" fill="#fff"><path d="m0 0h43.335938v32h-43.335938z" fill="#fff" fill-rule="evenodd"/></mask><mask id="b" fill="#fff"><path d="m0 0h42.666667v32h-42.666667z" fill="#fff" fill-rule="evenodd"/></mask><mask id="c" fill="#fff"><path d="m10.5396825 21.0763052c-5.6806431 0-10.28571425-4.6605539-10.28571425-10.4096385 0-5.74908466 4.60507115-10.40963859 10.28571425-10.40963859 5.6806432 0 10.2857143 4.66055393 10.2857143 10.40963859 0 5.7490846-4.6050711 10.4096385-10.2857143 10.4096385z" fill="#fff" fill-rule="evenodd"/></mask><g fill="none" fill-rule="evenodd"><g fill-rule="evenodd" mask="url(#a)"><g mask="url(#b)" transform="translate(.3346)"><path d="m10.6666667 0h32v32h-32z" fill="#ef0000"/><path d="m0 0h16v32h-16z" fill="#2f8d00"/><g transform="translate(5.3333 5.3333)"><g fill="#ffe017"><path d="m9.9047619 0h1.3333333v3.59839357h-1.3333333z" mask="url(#c)"/><path d="m9.9047619 17.9919679h1.3333333v3.3413654h-1.3333333z" mask="url(#c)"/><path d="m.41927184 11.2050363-.37277735-.956391c4.1135808-1.64223945 7.21832725-2.70131839 9.32498184-3.17861691 3.09082807-.70027981 6.48692327-1.21839313 10.18852067-1.55473373l.0908417 1.02399363c-3.6591276.33248164-7.0116835.84395253-10.05743238 1.53401888-2.04393863.46308915-5.10556427 1.50745889-9.17413448 3.13172913z" fill-rule="nonzero" mask="url(#c)"/><path d="m20.1877969 4.88518842-.3025128.98146968c-3.108949-.9814833-5.6415109-1.40337398-7.5882188-1.27269795l-.0672327-1.02585838c2.0901218-.14030292 4.7396209.30106793 7.9579643 1.31708665z" fill-rule="nonzero" mask="url(#c)"/><path d="m21.2635312 10.3730314-.5746773.8477944c-1.5848911-1.1003613-3.5374841-1.65307102-5.8710814-1.65307102v-1.02811245c2.5298443 0 4.6828647.60944361 6.4457587 1.83338907z" fill-rule="nonzero" mask="url(#c)"/><path d="m20.4026734 10.6807398.262648.9931561c-3.4168445.9255167-6.6247702 1.4506106-9.6240347 1.5742643-3.019944.1245063-6.53976063-.4024721-10.56246048-1.5769276l.28157788-.9878295c3.92493442 1.1459122 7.33911564 1.6570752 10.2395331 1.5374967 2.9210969-.1204311 6.0554282-.6334786 9.4027362-1.54016z" fill-rule="nonzero" mask="url(#c)"/><path d="m20.0156364 15.5145132-1.6057788 1.6462402c-3.0516007-3.0487556-5.7381702-5.2287147-8.0431929-6.5385406-2.34440936-1.33220738-5.40173073-2.6849735-9.16722318-4.05284061l.77219535-2.17724572c3.87654102 1.40820703 7.0463227 2.81073321 9.51408603 4.21303629 2.5071499 1.42468454 5.3449492 3.72735574 8.5299135 6.90935044z" fill-rule="nonzero" mask="url(#c)"/><path d="m1.944405 16.4470692-.60781195-.8237865c.08487902-.0641442.23632858-.1711129.44499684-.3066762.34453051-.2238276.72711489-.4472895 1.13874658-.6561022 1.13373961-.5751241 2.27098867-.934205 3.35568036-.9671886.05304673-.001613.10587143-.0024245.1584691-.0024245v1.0281124c-.04237167 0-.08502658.0006553-.12795968.0019608-.91409011.0277959-1.91791544.3447489-2.93097577.8586547-.37760115.1915497-.72942976.3970476-1.04518316.6021799-.10990658.0714018-.20715005.137428-.29047857.1962829-.04858316.0343142-.08082379.0579086-.09548375.0689873z" fill-rule="nonzero" mask="url(#c)"/><path d="m2.41620157 16.8034401.25582711-.9949779c3.38682597.891925 5.99787247 1.3363919 7.82012332 1.3363919 1.8154415 0 4.5175663-.5242677 8.088812-1.5764524l.2839524.987133c-3.6557148 1.0770716-6.440782 1.6174319-8.3727644 1.6174319-1.92517287 0-4.61281765-.4575059-8.07595043-1.3695265z" fill-rule="nonzero" mask="url(#c)"/><path d="m1.09658886 7.59255048 1.60943542-1.64257868 2.35642786 2.36485169-1.60943541 1.64257868z" fill-rule="nonzero" mask="url(#c)"/><path d="m14.4479109 15.7970013 1.1971178-1.9706111 3.7381743 2.3259367-1.1971177 1.9706111z" fill-rule="nonzero" mask="url(#c)"/></g><path d="m10.5396825.25702811c5.6806432 0 10.2857143 4.66055393 10.2857143 10.40963859 0 5.7490846-4.6050711 10.4096385-10.2857143 10.4096385-5.6806431 0-10.28571425-4.6605539-10.28571425-10.4096385 0-5.74908466 4.60507115-10.40963859 10.28571425-10.40963859zm.1269842 1.54216868c-4.90919781 0-8.88888892 4.0276392-8.88888892 8.99598391 0 4.9683448 3.97969111 8.995984 8.88888892 8.995984 4.9091977 0 8.8888889-4.0276392 8.8888889-8.995984 0-4.96834471-3.9796912-8.99598391-8.8888889-8.99598391z" fill="#f9e813" fill-rule="nonzero"/><g transform="translate(4.0635 3.3414)"><path d="m.8120994.90565221v8.34761349c.54951256 3.3041038 2.40079589 4.9561557 5.55385 4.9561557s5.0043374-1.6520519 5.55385-4.9561557v-8.34761349z" fill="#fff" fill-rule="nonzero"/><path d="m.05019464.13456787h12.63150956v9.1831375l-.0105685.06354581c-.6101821 3.66889692-2.77333379 5.59925452-6.3051863 5.59925452s-5.69500424-1.9303576-6.30518632-5.59925452l-.01056844-.06354581z" fill="#c51918" fill-rule="nonzero"/><path d="m2.93946654 2.93955833h6.85296572v5.92119724c-.33902524 2.03848773-1.4811862 3.05773153-3.42648286 3.05773153s-3.08745761-1.0192438-3.42648286-3.05773153z" fill="#f7fcff" fill-rule="nonzero"/><g transform="translate(.7619 .7711)"><path d="m.50793651 0h.96385542v.64257028h-.96385542z" fill="#f9e813"/><path d="m0 .25702811h1.77777778v.32128514h-1.77777778z" fill="#060101"/><g fill="#f9e813"><path d="m0 .51405623h.96385542v.32128514h-.96385542z"/><path d="m1.01587302.51405623h.96385542v.32128514h-.96385542z"/><path d="m0 1.28514056h.64257028v.96385542h-.64257028z"/><path d="m1.26984127 1.28514056h.64257028v.96385542h-.64257028z"/><path d="m.76190476 1.28514056h.32128514v.96385542h-.32128514z"/></g><path d="m0 1.02811245h1.77777778v.32128514h-1.77777778z" fill="#060101"/><path d="m0 1.79919679h1.77777778v.32128514h-1.77777778z" fill="#060101"/><path d="m.25396825.77108434h.32128514v.32128514h-.32128514z" fill="#f9e813"/><path d="m1.26984127.77108434h.32128514v.32128514h-.32128514z" fill="#f9e813"/><path d="m.76190476.51405623h.32128514v.64257028h-.32128514z" fill="#f9e813"/><g transform="translate(4.8254)"><path d="m.50793651 0h.96385542v.64257028h-.96385542z" fill="#f9e813"/><path d="m0 .25702811h1.77777778v.32128514h-1.77777778z" fill="#060101"/><g fill="#f9e813"><path d="m0 .51405623h.96385542v.32128514h-.96385542z"/><path d="m1.01587302.51405623h.96385542v.32128514h-.96385542z"/><path d="m0 1.28514056h.64257028v.96385542h-.64257028z"/><path d="m1.26984127 1.28514056h.64257028v.96385542h-.64257028z"/><path d="m.76190476 1.28514056h.32128514v.96385542h-.32128514z"/></g><path d="m0 1.02811245h1.77777778v.32128514h-1.77777778z" fill="#060101"/><path d="m0 1.79919679h1.77777778v.32128514h-1.77777778z" fill="#060101"/><path d="m.25396825.77108434h.32128514v.32128514h-.32128514z" fill="#f9e813"/><path d="m1.26984127.77108434h.32128514v.32128514h-.32128514z" fill="#f9e813"/><path d="m.76190476.51405623h.32128514v.64257028h-.32128514z" fill="#f9e813"/></g><g transform="translate(9.3968)"><path d="m.50793651 0h.96385542v.64257028h-.96385542z" fill="#f9e813"/><path d="m0 .25702811h1.77777778v.32128514h-1.77777778z" fill="#060101"/><g fill="#f9e813"><path d="m0 .51405623h.96385542v.32128514h-.96385542z"/><path d="m1.01587302.51405623h.96385542v.32128514h-.96385542z"/><path d="m0 1.28514056h.64257028v.96385542h-.64257028z"/><path d="m1.26984127 1.28514056h.64257028v.96385542h-.64257028z"/><path d="m.76190476 1.28514056h.32128514v.96385542h-.32128514z"/></g><path d="m0 1.02811245h1.77777778v.32128514h-1.77777778z" fill="#060101"/><path d="m0 1.79919679h1.77777778v.32128514h-1.77777778z" fill="#060101"/><path d="m.25396825.77108434h.32128514v.32128514h-.32128514z" fill="#f9e813"/><path d="m1.26984127.77108434h.32128514v.32128514h-.32128514z" fill="#f9e813"/><path d="m.76190476.51405623h.32128514v.64257028h-.32128514z" fill="#f9e813"/></g><g transform="translate(9.3968 4.6265)"><path d="m.50793651 0h.96385542v.64257028h-.96385542z" fill="#f9e813"/><path d="m0 .25702811h1.77777778v.32128514h-1.77777778z" fill="#060101"/><g fill="#f9e813"><path d="m0 .51405623h.96385542v.32128514h-.96385542z"/><path d="m1.01587302.51405623h.96385542v.32128514h-.96385542z"/><path d="m0 1.28514056h.64257028v.96385542h-.64257028z"/><path d="m1.26984127 1.28514056h.64257028v.96385542h-.64257028z"/><path d="m.76190476 1.28514056h.32128514v.96385542h-.32128514z"/></g><path d="m0 1.02811245h1.77777778v.32128514h-1.77777778z" fill="#060101"/><path d="m0 1.79919679h1.77777778v.32128514h-1.77777778z" fill="#060101"/><path d="m.25396825.77108434h.32128514v.32128514h-.32128514z" fill="#f9e813"/><path d="m1.26984127.77108434h.32128514v.32128514h-.32128514z" fill="#f9e813"/><path d="m.76190476.51405623h.32128514v.64257028h-.32128514z" fill="#f9e813"/></g><g transform="translate(0 4.6265)"><path d="m.50793651 0h.96385542v.64257028h-.96385542z" fill="#f9e813"/><path d="m0 .25702811h1.77777778v.32128514h-1.77777778z" fill="#060101"/><g fill="#f9e813"><path d="m0 .51405623h.96385542v.32128514h-.96385542z"/><path d="m1.01587302.51405623h.96385542v.32128514h-.96385542z"/><path d="m0 1.28514056h.64257028v.96385542h-.64257028z"/><path d="m1.26984127 1.28514056h.64257028v.96385542h-.64257028z"/><path d="m.76190476 1.28514056h.32128514v.96385542h-.32128514z"/></g><path d="m0 1.02811245h1.77777778v.32128514h-1.77777778z" fill="#060101"/><path d="m0 1.79919679h1.77777778v.32128514h-1.77777778z" fill="#060101"/><path d="m.25396825.77108434h.32128514v.32128514h-.32128514z" fill="#f9e813"/><path d="m1.26984127.77108434h.32128514v.32128514h-.32128514z" fill="#f9e813"/><path d="m.76190476.51405623h.32128514v.64257028h-.32128514z" fill="#f9e813"/></g><g transform="matrix(.64278761 -.76604444 .76604444 .64278761 .799756 10.815287)"><path d="m.50793651 0h.96385542v.64257028h-.96385542z" fill="#f9e813"/><path d="m0 .25702811h1.77777778v.32128514h-1.77777778z" fill="#060101"/><g fill="#f9e813"><path d="m0 .51405623h.96385542v.32128514h-.96385542z"/><path d="m1.01587302.51405623h.96385542v.32128514h-.96385542z"/><path d="m0 1.28514056h.64257028v.96385542h-.64257028z"/><path d="m1.26984127 1.28514056h.64257028v.96385542h-.64257028z"/><path d="m.76190476 1.28514056h.32128514v.96385542h-.32128514z"/></g><path d="m0 1.02811245h1.77777778v.32128514h-1.77777778z" fill="#060101"/><path d="m0 1.79919679h1.77777778v.32128514h-1.77777778z" fill="#060101"/><path d="m.25396825.77108434h.32128514v.32128514h-.32128514z" fill="#f9e813"/><path d="m1.26984127.77108434h.32128514v.32128514h-.32128514z" fill="#f9e813"/><path d="m.76190476.51405623h.32128514v.64257028h-.32128514z" fill="#f9e813"/></g><g transform="matrix(.64278761 .76604444 -.76604444 .64278761 9.486061 9.45349)"><path d="m.50793651 0h.96385542v.64257028h-.96385542z" fill="#f9e813"/><path d="m0 .25702811h1.77777778v.32128514h-1.77777778z" fill="#060101"/><g fill="#f9e813"><path d="m0 .51405623h.96385542v.32128514h-.96385542z"/><path d="m1.01587302.51405623h.96385542v.32128514h-.96385542z"/><path d="m0 1.28514056h.64257028v.96385542h-.64257028z"/><path d="m1.26984127 1.28514056h.64257028v.96385542h-.64257028z"/><path d="m.76190476 1.28514056h.32128514v.96385542h-.32128514z"/></g><path d="m0 1.02811245h1.77777778v.32128514h-1.77777778z" fill="#060101"/><path d="m0 1.79919679h1.77777778v.32128514h-1.77777778z" fill="#060101"/><path d="m.25396825.77108434h.32128514v.32128514h-.32128514z" fill="#f9e813"/><path d="m1.26984127.77108434h.32128514v.32128514h-.32128514z" fill="#f9e813"/><path d="m.76190476.51405623h.32128514v.64257028h-.32128514z" fill="#f9e813"/></g></g><g fill-rule="nonzero"><path d="m7.34774468 3.59839357v1.28196408c-.08709144.44134116-.38049862.66201173-.88022155.66201173-.49972292 0-.7931301-.22067057-.88022154-.66201173v-1.28196408zm-1.25250658 1.28514057c-.1402628 0-.25396826.1150754-.25396826.25702811s.11370546.25702811.25396826.25702811c.14026279 0 .25396825-.1150754.25396825-.25702811s-.11370546-.25702811-.25396825-.25702811zm.76190476 0c-.1402628 0-.25396826.1150754-.25396826.25702811s.11370546.25702811.25396826.25702811c.14026279 0 .25396825-.1150754.25396825-.25702811s-.11370546-.25702811-.25396825-.25702811zm-.38095238-.51405623c-.1402628 0-.25396826.11507541-.25396826.25702811 0 .14195271.11370546.25702812.25396826.25702812.14026279 0 .25396825-.11507541.25396825-.25702812 0-.1419527-.11370546-.25702811-.25396825-.25702811zm-.38095238-.51405622c-.1402628 0-.25396826.1150754-.25396826.25702811s.11370546.25702811.25396826.25702811c.14026279 0 .25396825-.1150754.25396825-.25702811s-.11370546-.25702811-.25396825-.25702811zm.76190476 0c-.1402628 0-.25396826.1150754-.25396826.25702811s.11370546.25702811.25396826.25702811c.14026279 0 .25396825-.1150754.25396825-.25702811s-.11370546-.25702811-.25396825-.25702811z" fill="#013399"/><path d="m7.34774468 6.42570281v1.28196408c-.08709144.44134115-.38049862.66201173-.88022155.66201173-.49972292 0-.7931301-.22067058-.88022154-.66201173v-1.28196408zm-1.25250658 1.28514056c-.1402628 0-.25396826.11507541-.25396826.25702812 0 .1419527.11370546.25702811.25396826.25702811.14026279 0 .25396825-.11507541.25396825-.25702811 0-.14195271-.11370546-.25702812-.25396825-.25702812zm.76190476 0c-.1402628 0-.25396826.11507541-.25396826.25702812 0 .1419527.11370546.25702811.25396826.25702811.14026279 0 .25396825-.11507541.25396825-.25702811 0-.14195271-.11370546-.25702812-.25396825-.25702812zm-.38095238-.51405622c-.1402628 0-.25396826.1150754-.25396826.25702811s.11370546.25702811.25396826.25702811c.14026279 0 .25396825-.1150754.25396825-.25702811s-.11370546-.25702811-.25396825-.25702811zm-.38095238-.51405623c-.1402628 0-.25396826.11507541-.25396826.25702812 0 .1419527.11370546.25702811.25396826.25702811.14026279 0 .25396825-.11507541.25396825-.25702811 0-.14195271-.11370546-.25702812-.25396825-.25702812zm.76190476 0c-.1402628 0-.25396826.11507541-.25396826.25702812 0 .1419527.11370546.25702811.25396826.25702811.14026279 0 .25396825-.11507541.25396825-.25702811 0-.14195271-.11370546-.25702812-.25396825-.25702812z" fill="#013399"/><path d="m9.63345897 6.42570281v1.28196408c-.08709144.44134115-.38049863.66201173-.88022155.66201173s-.79313011-.22067058-.88022155-.66201173v-1.28196408zm-1.25250659 1.28514056c-.14026279 0-.25396825.11507541-.25396825.25702812 0 .1419527.11370546.25702811.25396825.25702811s.25396825-.11507541.25396825-.25702811c0-.14195271-.11370546-.25702812-.25396825-.25702812zm.76190476 0c-.14026279 0-.25396825.11507541-.25396825.25702812 0 .1419527.11370546.25702811.25396825.25702811.1402628 0 .25396826-.11507541.25396826-.25702811 0-.14195271-.11370546-.25702812-.25396826-.25702812zm-.38095238-.51405622c-.14026279 0-.25396825.1150754-.25396825.25702811s.11370546.25702811.25396825.25702811c.1402628 0 .25396826-.1150754.25396826-.25702811s-.11370546-.25702811-.25396826-.25702811zm-.38095238-.51405623c-.14026279 0-.25396825.11507541-.25396825.25702812 0 .1419527.11370546.25702811.25396825.25702811s.25396825-.11507541.25396825-.25702811c0-.14195271-.11370546-.25702812-.25396825-.25702812zm.76190476 0c-.14026279 0-.25396825.11507541-.25396825.25702812 0 .1419527.11370546.25702811.25396825.25702811.1402628 0 .25396826-.11507541.25396826-.25702811 0-.14195271-.11370546-.25702812-.25396826-.25702812z" fill="#013399"/><path d="m5.06203039 6.42570281v1.28196408c-.08709144.44134115-.38049862.66201173-.88022154.66201173-.49972293 0-.79313011-.22067058-.88022155-.66201173v-1.28196408zm-1.25250658 1.28514056c-.14026279 0-.25396825.11507541-.25396825.25702812 0 .1419527.11370546.25702811.25396825.25702811s.25396825-.11507541.25396825-.25702811c0-.14195271-.11370546-.25702812-.25396825-.25702812zm.76190476 0c-.14026279 0-.25396825.11507541-.25396825.25702812 0 .1419527.11370546.25702811.25396825.25702811.1402628 0 .25396826-.11507541.25396826-.25702811 0-.14195271-.11370546-.25702812-.25396826-.25702812zm-.38095238-.51405622c-.14026279 0-.25396825.1150754-.25396825.25702811s.11370546.25702811.25396825.25702811.25396825-.1150754.25396825-.25702811-.11370546-.25702811-.25396825-.25702811zm-.38095238-.51405623c-.14026279 0-.25396825.11507541-.25396825.25702812 0 .1419527.11370546.25702811.25396825.25702811s.25396825-.11507541.25396825-.25702811c0-.14195271-.11370546-.25702812-.25396825-.25702812zm.76190476 0c-.14026279 0-.25396825.11507541-.25396825.25702812 0 .1419527.11370546.25702811.25396825.25702811.1402628 0 .25396826-.11507541.25396826-.25702811 0-.14195271-.11370546-.25702812-.25396826-.25702812z" fill="#013399"/><path d="m7.34774468 9.25301205v1.28196405c-.08709144.4413412-.38049862.6620118-.88022155.6620118-.49972292 0-.7931301-.2206706-.88022154-.6620118v-1.28196405zm-1.25250658 1.28514055c-.1402628 0-.25396826.1150754-.25396826.2570281s.11370546.2570281.25396826.2570281c.14026279 0 .25396825-.1150754.25396825-.2570281s-.11370546-.2570281-.25396825-.2570281zm.76190476 0c-.1402628 0-.25396826.1150754-.25396826.2570281s.11370546.2570281.25396826.2570281c.14026279 0 .25396825-.1150754.25396825-.2570281s-.11370546-.2570281-.25396825-.2570281zm-.38095238-.5140562c-.1402628 0-.25396826.1150754-.25396826.2570281s.11370546.2570281.25396826.2570281c.14026279 0 .25396825-.1150754.25396825-.2570281s-.11370546-.2570281-.25396825-.2570281zm-.38095238-.51405624c-.1402628 0-.25396826.11507541-.25396826.25702811 0 .14195271.11370546.25702813.25396826.25702813.14026279 0 .25396825-.11507542.25396825-.25702813 0-.1419527-.11370546-.25702811-.25396825-.25702811zm.76190476 0c-.1402628 0-.25396826.11507541-.25396826.25702811 0 .14195271.11370546.25702813.25396826.25702813.14026279 0 .25396825-.11507542.25396825-.25702813 0-.1419527-.11370546-.25702811-.25396825-.25702811z" fill="#013399"/></g></g></g></g></g><rect height="32" mask="url(#a)" rx="2" width="43.335938"/></g></svg>