<svg height="32" viewBox="0 0 43 32" width="43" xmlns="http://www.w3.org/2000/svg" xmlns:xlink="http://www.w3.org/1999/xlink"><defs><path id="a" d="m0 0h42.666667v32h-42.666667z"/><mask id="b" fill="#fff"><path d="m0 0h43.335938v32h-43.335938z" fill="#fff" fill-rule="evenodd"/></mask><mask id="c" fill="#fff"><path d="m0 0h42.666667v32h-42.666667z" fill="#fff" fill-rule="evenodd"/></mask><mask id="d" fill="#fff"><use fill="#fff" fill-rule="evenodd" xlink:href="#a"/></mask></defs><g fill="none" fill-rule="evenodd"><g fill-rule="evenodd" mask="url(#b)"><g mask="url(#c)" transform="translate(.3346)"><use fill="#f7fcff" xlink:href="#a"/><g mask="url(#d)"><g transform="translate(16 10.6667)"><circle cx="5.333333" cy="5.333333" fill="none" r="5.1" stroke="#272727" stroke-width=".466667"/><path d="m5.33333333 8.86666667c1.95140612 0 3.53333334-1.58192722 3.53333334-3.53333334 0-1.00830816-.4223551-1.91797001-1.09980222-2.56172245-.63363464-.6021191-1.49043317-.97161088-2.43353112-.97161088-.75933288 0-1.46272109.23952762-2.03872867.64714689-.90427168.63991964-1.49460466 1.69411321-1.49460466 2.88618644 0 1.95140612 1.58192722 3.53333334 3.53333333 3.53333334zm0 .46666666c-2.209139 0-4-1.790861-4-4 0-1.34410753.66295465-2.5333737 1.67971233-3.2586469.65435791-.46676633 1.4552562-.7413531 2.32028767-.7413531 1.02827748 0 1.96593172.38800422 2.67454221 1.02559213.81375978.73219831 1.32545779 1.79354635 1.32545779 2.97440787 0 2.209139-1.790861 4-4 4z" fill="#272727" fill-rule="nonzero"/></g></g><path d="m0 0h42.666667v10.666667h-42.666667z" fill="#f05234" mask="url(#d)"/><path d="m0 21.333333h42.666667v10.666667h-42.666667z" fill="#3d58db" mask="url(#d)"/><path d="m20.2748236 13.4528994.2246721.6276678c-1.0075077.3606348-1.5772611.948346-1.5772611 2.204597 0 1.2441932.5753123 2.0159321 1.7785983 2.3835635l-.1947933.6375736c-1.4827605-.4530173-2.3293391-1.3372177-2.3293391-2.8755096 0-1.526234.8129791-2.5178784 2.0981231-2.9778923z" fill="#73be4a" fill-rule="nonzero" mask="url(#d)" transform="matrix(.96592583 -.25881905 .25881905 .96592583 -3.576991 5.589253)"/><path d="m21.3333333 16.42-1.1755705.798034.3957042-1.3646401-1.1222467-.8714279 1.4201291-.0453599.4819839-1.3366061.4819839 1.3366061 1.4201292.0453599-1.1222467.8714279.3957041 1.3646401z" fill="#fbcd17" mask="url(#d)"/><path d="m23.5909335 13.6601333c-1.1463259.4103243-1.7194888 1.3111077-1.7194888 2.7023502s.6715116 2.292026 2.0145349 2.7023503" mask="url(#d)" stroke="#73be4a" stroke-width=".666667" transform="matrix(-.96592583 -.25881905 -.25881905 .96592583 49.212754 6.478982)"/><path d="m19.418843 12.058299.622381.95763" fill="#f7fcff" fill-rule="nonzero" mask="url(#d)"/></g></g><rect height="32" mask="url(#b)" rx="2" width="43.335938"/></g></svg>