<svg height="32" viewBox="0 0 43 32" width="43" xmlns="http://www.w3.org/2000/svg" xmlns:xlink="http://www.w3.org/1999/xlink"><defs><path id="a" d="m0 0h42.666667v32h-42.666667z"/><mask id="b" fill="#fff"><path d="m0 0h43.335938v32h-43.335938z" fill="#fff" fill-rule="evenodd"/></mask><mask id="c" fill="#fff"><path d="m0 0h42.666667v32h-42.666667z" fill="#fff" fill-rule="evenodd"/></mask><mask id="d" fill="#fff"><use fill="#fff" fill-rule="evenodd" xlink:href="#a"/></mask></defs><g fill="none" fill-rule="evenodd"><g fill-rule="evenodd" mask="url(#b)"><g mask="url(#c)" transform="translate(.3346)"><use fill="#4857a1" xlink:href="#a"/><path d="m0 0h42.666667v10.666667h-42.666667z" fill="#c51918" mask="url(#d)"/><path d="m0 21.333333h42.666667v10.666667h-42.666667z" fill="#f7fcff" mask="url(#d)"/><g mask="url(#d)"><g transform="translate(8.7729 2.6667)"><path d="m6.35059744 1.7996451c.12845027.03944765.26793804.0799291.41515454.12155461 1.75922823.15208679 4.47994052 1.0631433 4.98640292 2.03079355.2250071.42989983-.0657995.7869005-.3713136 1.30513112-.5907632 1.00208652-.9274328 1.80087396-1.52621103 2.16278494l.00860262 1.60177701-7.86071355-.06759294-.01011472-1.61742615c-.52439117-.3926492-.85395136-1.14831345-1.40294197-2.07954286-.30551413-.51823062-.59632067-.87523129-.37131365-1.30513112.38087325-.72769883 2.10674354-1.43541999 3.68782547-1.80956606.31046465-.11051354.63526788-.21378111.9572838-.31267364l.14437288.10404767c.12479885-.01702915.24571382-.03091168.3617414-.04143636l.17990165.40328023.64124147.00057785c.25764895.76492916.38647343 1.35979759.38647343 1.78460527 0 .42480769-.12882448.81285858-.38647343 1.16415268l-.00101355.43694898c.0670073.00488321.13751898.01097619.21153502.01827895.00097544-.03630546.00468448-.0749783.01165821-.11452826.03706405-.21020069.15231107-.36557885.25741142-.34704682.10510035.01853202.16025466.20395653.12319061.41415723-.0055664.0315686-.01289621.06190068-.02169023.09059285.37144517.0480131.81193627.11990817 1.32006141.2151518l-.00456757.01171581c.60057548-1.16609901 1.67657276-2.28253624 1.10299122-2.85880087-.07940269-.07977411-.22395037-.15390727-.41040464-.2224865-.60303997-.14872479-1.25805512-.26394116-1.894686-.32168893l-.01942217-.10510828c-.12756364-.02072498-.25000878-.04002199-.3641088-.05790308zm3.83761196 1.54415106c.4257173.8051606-.51513762 1.60228666-1.21902334 2.78772153.06111736.01340206.124147.02656671.18795389.03999969-.00145975-.05798617.00649271-.12523178.02501234-.19434798.03945944-.14726462.11621854-.26318842.19442722-.30734281l.04681235-.01755687.04543945.00160836c.10308523.0276216.14186886.21714753.08662565.42331801-.01664695.06212726-.03993245.11867653-.06716468.16661224.11713828.02361324.23692838.04978529.35914386.07679462l.00118421.22927135c.77888475-.60019213 1.32996815-1.93032918 1.37964485-2.36604839.0299521-.26271353-.3867536-.56561367-1.0400558-.84002975zm-8.19633769-.03937204-.06825887.02658133c-.7268072.28858879-1.21054265.59873375-1.18157406.85282046.0469183.41152545.54110702 1.62089944 1.25205357 2.25959607.2433373-.0675396.48357138-.13313773.71333246-.19396966-.03091779-.04447588-.05645775-.09870198-.07592066-.15860265-.06595763-.20299672-.03714618-.39429269.06435218-.42727151.10149836-.03297881.23724826.10484793.3032059.30784465.02211151.06805223.03357243.13478948.03521474.19468789l.15161176-.04038297c-.71478822-1.20120738-1.67071976-2.00356762-1.19401702-2.82130361zm3.23638454-.79731791-.01912935.00100122c-.48938356.06297211-1.00407033.15931239-1.50303634.27721198-.3431177.0955935-.61638481.20428206-.73766658.32613116-.56587035.56851737.47378261 1.66278087 1.0785163 2.81179811.31001446-.06831506.58972863-.1223865.84007933-.16309476-.01116453-.0380374-.01856492-.08003143-.02241836-.12407645-.01860281-.21263117.05250243-.39254307.15881802-.40184448.10631558-.0093014.20758195.15552993.22618477.3681611.00320849.03667332.00374843.07237333.0018994.10639256.07767366-.01051844.15148578-.01832997.22165831-.02448514l-.00138595-.48635708c-.22307075-.24931867-.35189523-.63359821-.38647343-1.15283863-.0307784-.46218103.01687289-.97484756.14295388-1.53799959z" fill="#f6c540" fill-rule="nonzero"/><g transform="translate(0 1.1594)"><path d="m2.22222222 7.34299517c.16008254 0 .28985507-.12977254.28985507-.28985507 0-.16008254-.12977253-.28985508-.28985507-.28985508-.16008253 0-.28985507.12977254-.28985507.28985508 0 .16008253.12977254.28985507.28985507.28985507zm7.7294686 0c.16008258 0 .28985508-.12977254.28985508-.28985507 0-.16008254-.1297725-.28985508-.28985508-.28985508-.16008253 0-.28985507.12977254-.28985507.28985508 0 .16008253.12977254.28985507.28985507.28985507zm-4.05797101-.19323672c.37352591 0 .6763285-.17303004.6763285-.38647343 0-.21344338-.30280259-.38647343-.6763285-.38647343-.37352592 0-.67632851.17303005-.67632851.38647343 0 .21344339.30280259.38647343.67632851.38647343zm0-5.45267293c.48024761 0 .86956521-.37990553.86956521-.84854276 0-.46863722-.3893176-.84854276-.86956521-.84854276s-.86956522.37990554-.86956522.84854276c0 .46863723.38931761.84854276.86956522.84854276z" fill="#2e42a5"/><path d="m8.01932367 7.14975845c.26680423 0 .48309179-.12977253.48309179-.28985507 0-.16008253-.21628756-.28985507-.48309179-.28985507s-.48309179.12977254-.48309179.28985507c0 .16008254.21628756.28985507.48309179.28985507zm-4.05797101 0c.26680422 0 .48309178-.12977253.48309178-.28985507 0-.16008253-.21628756-.28985507-.48309178-.28985507-.26680423 0-.48309179.12977254-.48309179.28985507 0 .16008254.21628756.28985507.48309179.28985507z" fill="#c5363c"/><path d="m4.5638713 4.81200252c.10149836-.03297882.13030981-.22427479.06435218-.4272715-.06595763-.20299672-.20170753-.34082347-.30320589-.30784465s-.13030981.22427478-.06435218.4272715.20170753.34082346.30320589.30784465zm2.77912387.01891535c.10672169 0 .19323671-.17303004.19323671-.38647343 0-.21344338-.08651502-.38647343-.19323671-.38647343s-.19323672.17303005-.19323672.38647343c0 .21344339.08651503.38647343.19323672.38647343zm-4.98799527.60159287c.10149836-.03297882.13030981-.22427479.06435218-.42727151s-.20170753-.34082346-.30320589-.30784464c-.10149836.03297881-.13030981.22427478-.06435218.4272715s.20170753.34082346.30320589.30784465zm7.27747316-.03693361c.09050513.05655388.25556599-.04433795.36867374-.2253482.1131078-.18101025.1314308-.37359403.0409257-.43014791-.09050513-.05655388-.25556599.04433794-.36867375.2253482-.11310776.18101025-.13143081.37359403-.04092569.43014791z" fill="#f7fcff"/><path d="m.77294686 4.31111111c.03308372 0 .05990338-.02681966.05990338-.05990338s-.02681966-.05990338-.05990338-.05990338-.05990338.02681966-.05990338.05990338.02681966.05990338.05990338.05990338zm0 .26666667c-.18035966 0-.32657005-.14621039-.32657005-.32657005s.14621039-.32657005.32657005-.32657005.32657005.14621039.32657005.32657005-.14621039.32657005-.32657005.32657005zm-.19323672-.84637681c.03308373 0 .05990339-.02681966.05990339-.05990339 0-.03308372-.02681966-.05990338-.05990339-.05990338-.03308372 0-.05990338.02681966-.05990338.05990338 0 .03308373.02681966.05990339.05990338.05990339zm0 .26666666c-.18035965 0-.32657004-.14621039-.32657004-.32657005 0-.18035965.14621039-.32657004.32657004-.32657004.18035966 0 .32657005.14621039.32657005.32657004 0 .18035966-.14621039.32657005-.32657005.32657005zm-.19323671-.65314009c.03308372 0 .05990338-.02681966.05990338-.05990339 0-.03308372-.02681966-.05990338-.05990338-.05990338s-.05990338.02681966-.05990338.05990338c0 .03308373.02681966.05990339.05990338.05990339zm0 .26666666c-.18035966 0-.32657005-.14621039-.32657005-.32657005 0-.18035965.14621039-.32657004.32657005-.32657004s.32657005.14621039.32657005.32657004c0 .18035966-.14621039.32657005-.32657005.32657005zm-.19323671-.65314009c.03308372 0 .05990338-.02681966.05990338-.05990339 0-.03308372-.02681966-.05990338-.05990338-.05990338-.03308373 0-.05990339.02681966-.05990339.05990338 0 .03308373.02681966.05990339.05990339.05990339zm0 .26666666c-.18035966 0-.32657005-.14621039-.32657005-.32657005 0-.18035965.14621039-.32657004.32657005-.32657004.18035965 0 .32657004.14621039.32657004.32657004 0 .18035966-.14621039.32657005-.32657004.32657005zm.38647342-.65314009c.03308373 0 .05990339-.02681966.05990339-.05990339 0-.03308372-.02681966-.05990338-.05990339-.05990338-.03308372 0-.05990338.02681966-.05990338.05990338 0 .03308373.02681966.05990339.05990338.05990339zm0 .26666666c-.18035965 0-.32657004-.14621039-.32657004-.32657005 0-.18035965.14621039-.32657004.32657004-.32657004.18035966 0 .32657005.14621039.32657005.32657004 0 .18035966-.14621039.32657005-.32657005.32657005zm.38647344-.58259478c.03308372 0 .05990338-.02681966.05990338-.05990338 0-.03308373-.02681966-.05990338-.05990338-.05990338-.03308373 0-.05990339.02681965-.05990339.05990338 0 .03308372.02681966.05990338.05990339.05990338zm0 .26666667c-.18035966 0-.32657005-.14621039-.32657005-.32657005s.14621039-.32657005.32657005-.32657005c.18035965 0 .32657004.14621039.32657004.32657005s-.14621039.32657005-.32657004.32657005zm.38647342-.5304487c.03308373 0 .05990339-.02681966.05990339-.05990338s-.02681966-.05990338-.05990339-.05990338c-.03308372 0-.05990338.02681966-.05990338.05990338s.02681966.05990338.05990338.05990338zm0 .26666667c-.18035965 0-.32657004-.14621039-.32657004-.32657005s.14621039-.32657005.32657004-.32657005c.18035966 0 .32657005.14621039.32657005.32657005s-.14621039.32657005-.32657005.32657005zm.45633809-.45678898c.03308372 0 .05990338-.02681966.05990338-.05990338 0-.03308373-.02681966-.05990339-.05990338-.05990339-.03308373 0-.05990338.02681966-.05990338.05990339 0 .03308372.02681965.05990338.05990338.05990338zm0 .26666666c-.18035966 0-.32657005-.14621039-.32657005-.32657004 0-.18035966.14621039-.32657005.32657005-.32657005s.32657005.14621039.32657005.32657005c0 .18035965-.14621039.32657004-.32657005.32657004zm.50984549-.46301778c.03308372 0 .05990338-.02681966.05990338-.05990338s-.02681966-.05990338-.05990338-.05990338-.05990338.02681966-.05990338.05990338.02681966.05990338.05990338.05990338zm0 .26666667c-.18035966 0-.32657005-.14621039-.32657005-.32657005s.14621039-.32657005.32657005-.32657005.32657005.14621039.32657005.32657005-.14621039.32657005-.32657005.32657005zm.57971014-.41863662c.03308373 0 .05990339-.02681966.05990339-.05990338 0-.03308373-.02681966-.05990338-.05990339-.05990338-.03308372 0-.05990338.02681965-.05990338.05990338 0 .03308372.02681966.05990338.05990338.05990338zm0 .26666667c-.18035965 0-.32657004-.1462104-.32657004-.32657005 0-.18035966.14621039-.32657005.32657004-.32657005.18035966 0 .32657005.14621039.32657005.32657005 0 .18035965-.14621039.32657005-.32657005.32657005zm.57971015-.50117015c.03308372 0 .05990338-.02681966.05990338-.05990338s-.02681966-.05990338-.05990338-.05990338-.05990338.02681966-.05990338.05990338.02681966.05990338.05990338.05990338zm0 .26666667c-.18035966 0-.32657005-.14621039-.32657005-.32657005s.14621039-.32657005.32657005-.32657005.32657005.14621039.32657005.32657005-.14621039.32657005-.32657005.32657005zm.48195395-.34165163c.03308373 0 .05990339-.02681965.05990339-.05990338 0-.03308372-.02681966-.05990338-.05990339-.05990338-.03308372 0-.05990338.02681966-.05990338.05990338 0 .03308373.02681966.05990338.05990338.05990338zm0 .26666667c-.18035965 0-.32657004-.14621039-.32657004-.32657005 0-.18035965.14621039-.32657004.32657004-.32657004.18035966 0 .32657005.14621039.32657005.32657004 0 .18035966-.14621039.32657005-.32657005.32657005zm.48422962-.38491842c.03308373 0 .05990339-.02681966.05990339-.05990338 0-.03308373-.02681966-.05990339-.05990339-.05990339-.03308372 0-.05990338.02681966-.05990338.05990339 0 .03308372.02681966.05990338.05990338.05990338zm0 .26666666c-.18035965 0-.32657004-.14621039-.32657004-.32657004 0-.18035966.14621039-.32657005.32657004-.32657005.18035966 0 .32657005.14621039.32657005.32657005 0 .18035965-.14621039.32657004-.32657005.32657004zm-2.12560386.69951691c.03308372 0 .05990338-.02681966.05990338-.05990338s-.02681966-.05990338-.05990338-.05990338-.05990338.02681966-.05990338.05990338.02681966.05990338.05990338.05990338zm0 .26666667c-.18035966 0-.32657005-.14621039-.32657005-.32657005s.14621039-.32657005.32657005-.32657005.32657005.14621039.32657005.32657005-.14621039.32657005-.32657005.32657005zm0 .11980676c.03308372 0 .05990338-.02681966.05990338-.05990338s-.02681966-.05990338-.05990338-.05990338-.05990338.02681966-.05990338.05990338.02681966.05990338.05990338.05990338zm0 .26666667c-.18035966 0-.32657005-.14621039-.32657005-.32657005s.14621039-.32657005.32657005-.32657005.32657005.14621039.32657005.32657005-.14621039.32657005-.32657005.32657005zm.19323671.31304348c.03308373 0 .05990339-.02681966.05990339-.05990339 0-.03308372-.02681966-.05990338-.05990339-.05990338-.03308372 0-.05990338.02681966-.05990338.05990338 0 .03308373.02681966.05990339.05990338.05990339zm0 .26666666c-.18035965 0-.32657004-.14621039-.32657004-.32657005 0-.18035965.14621039-.32657004.32657004-.32657004.18035966 0 .32657005.14621039.32657005.32657004 0 .18035966-.14621039.32657005-.32657005.32657005zm.19323672.11980677c.03308372 0 .05990338-.02681966.05990338-.05990339 0-.03308372-.02681966-.05990338-.05990338-.05990338s-.05990338.02681966-.05990338.05990338c0 .03308373.02681966.05990339.05990338.05990339zm0 .26666666c-.18035966 0-.32657005-.14621039-.32657005-.32657005 0-.18035965.14621039-.32657004.32657005-.32657004s.32657005.14621039.32657005.32657004c0 .18035966-.14621039.32657005-.32657005.32657005zm.19323671.11980677c.03308373 0 .05990339-.02681966.05990339-.05990339 0-.03308372-.02681966-.05990338-.05990339-.05990338-.03308372 0-.05990338.02681966-.05990338.05990338 0 .03308373.02681966.05990339.05990338.05990339zm0 .26666666c-.18035965 0-.32657004-.14621039-.32657004-.32657005 0-.18035965.14621039-.32657004.32657004-.32657004.18035966 0 .32657005.14621039.32657005.32657004 0 .18035966-.14621039.32657005-.32657005.32657005zm8.50241548.31304348c.0330837 0 .0599034-.02681966.0599034-.05990338s-.0268197-.05990338-.0599034-.05990338-.0599034.02681966-.0599034.05990338.0268197.05990338.0599034.05990338zm0 .26666667c-.1803597 0-.3265701-.14621039-.3265701-.32657005s.1462104-.32657005.3265701-.32657005c.1803596 0 .32657.14621039.32657.32657005s-.1462104.32657005-.32657.32657005zm.1932367-.84637681c.0330837 0 .0599034-.02681966.0599034-.05990339 0-.03308372-.0268197-.05990338-.0599034-.05990338s-.0599034.02681966-.0599034.05990338c0 .03308373.0268197.05990339.0599034.05990339zm0 .26666666c-.1803597 0-.32657-.14621039-.32657-.32657005 0-.18035965.1462103-.32657004.32657-.32657004s.32657.14621039.32657.32657004c0 .18035966-.1462103.32657005-.32657.32657005zm.1932367-.65314009c.0330837 0 .0599034-.02681966.0599034-.05990339 0-.03308372-.0268197-.05990338-.0599034-.05990338s-.0599034.02681966-.0599034.05990338c0 .03308373.0268197.05990339.0599034.05990339zm0 .26666666c-.1803596 0-.32657-.14621039-.32657-.32657005 0-.18035965.1462104-.32657004.32657-.32657004.1803597 0 .3265701.14621039.3265701.32657004 0 .18035966-.1462104.32657005-.3265701.32657005zm.1932367-.65314009c.0330838 0 .0599034-.02681966.0599034-.05990339 0-.03308372-.0268196-.05990338-.0599034-.05990338-.0330837 0-.0599034.02681966-.0599034.05990338 0 .03308373.0268197.05990339.0599034.05990339zm0 .26666666c-.1803596 0-.32657-.14621039-.32657-.32657005 0-.18035965.1462104-.32657004.32657-.32657004.1803597 0 .3265701.14621039.3265701.32657004 0 .18035966-.1462104.32657005-.3265701.32657005zm-.3864734-.65314009c.0330837 0 .0599034-.02681966.0599034-.05990339 0-.03308372-.0268197-.05990338-.0599034-.05990338s-.0599034.02681966-.0599034.05990338c0 .03308373.0268197.05990339.0599034.05990339zm0 .26666666c-.1803597 0-.32657-.14621039-.32657-.32657005 0-.18035965.1462103-.32657004.32657-.32657004s.32657.14621039.32657.32657004c0 .18035966-.1462103.32657005-.32657.32657005zm-.3864734-.58259478c.0330837 0 .0599034-.02681966.0599034-.05990338 0-.03308373-.0268197-.05990338-.0599034-.05990338-.0330838 0-.0599034.02681965-.0599034.05990338 0 .03308372.0268196.05990338.0599034.05990338zm0 .26666667c-.1803597 0-.3265701-.14621039-.3265701-.32657005s.1462104-.32657005.3265701-.32657005c.1803596 0 .32657.14621039.32657.32657005s-.1462104.32657005-.32657.32657005zm-.3864735-.5304487c.0330838 0 .0599034-.02681966.0599034-.05990338s-.0268196-.05990338-.0599034-.05990338c-.0330837 0-.0599033.02681966-.0599033.05990338s.0268196.05990338.0599033.05990338zm0 .26666667c-.1803596 0-.32657-.14621039-.32657-.32657005s.1462104-.32657005.32657-.32657005c.1803597 0 .3265701.14621039.3265701.32657005s-.1462104.32657005-.3265701.32657005zm-.456338-.45678898c.0330837 0 .0599033-.02681966.0599033-.05990338 0-.03308373-.0268196-.05990339-.0599033-.05990339-.0330838 0-.0599034.02681966-.0599034.05990339 0 .03308372.0268196.05990338.0599034.05990338zm0 .26666666c-.1803597 0-.3265701-.14621039-.3265701-.32657004 0-.18035966.1462104-.32657005.3265701-.32657005.1803596 0 .32657.14621039.32657.32657005 0 .18035965-.1462104.32657004-.32657.32657004zm-.50984554-.46301778c.03308373 0 .05990339-.02681966.05990339-.05990338s-.02681966-.05990338-.05990339-.05990338c-.03308372 0-.05990338.02681966-.05990338.05990338s.02681966.05990338.05990338.05990338zm0 .26666667c-.18035965 0-.32657004-.14621039-.32657004-.32657005s.14621039-.32657005.32657004-.32657005c.18035964 0 .32657004.14621039.32657004.32657005s-.1462104.32657005-.32657004.32657005zm-.57971014-.41863662c.03308372 0 .05990338-.02681966.05990338-.05990338 0-.03308373-.02681966-.05990338-.05990338-.05990338-.03308373 0-.05990338.02681965-.05990338.05990338 0 .03308372.02681965.05990338.05990338.05990338zm0 .26666667c-.18035966 0-.32657005-.1462104-.32657005-.32657005 0-.18035966.14621039-.32657005.32657005-.32657005s.32657005.14621039.32657005.32657005c0 .18035965-.14621039.32657005-.32657005.32657005zm-.57971015-.50117015c.03308373 0 .05990339-.02681966.05990339-.05990338s-.02681966-.05990338-.05990339-.05990338c-.03308372 0-.05990338.02681966-.05990338.05990338s.02681966.05990338.05990338.05990338zm0 .26666667c-.18035965 0-.32657004-.14621039-.32657004-.32657005s.14621039-.32657005.32657004-.32657005c.18035966 0 .32657005.14621039.32657005.32657005s-.14621039.32657005-.32657005.32657005zm-.48195395-.34165163c.03308372 0 .05990338-.02681965.05990338-.05990338 0-.03308372-.02681966-.05990338-.05990338-.05990338s-.05990338.02681966-.05990338.05990338c0 .03308373.02681966.05990338.05990338.05990338zm0 .26666667c-.18035966 0-.32657005-.14621039-.32657005-.32657005 0-.18035965.14621039-.32657004.32657005-.32657004s.32657005.14621039.32657005.32657004c0 .18035966-.14621039.32657005-.32657005.32657005zm-.48422962-.38491842c.03308372 0 .05990338-.02681966.05990338-.05990338 0-.03308373-.02681966-.05990339-.05990338-.05990339-.03308373 0-.05990338.02681966-.05990338.05990339 0 .03308372.02681965.05990338.05990338.05990338zm0 .26666666c-.18035966 0-.32657005-.14621039-.32657005-.32657004 0-.18035966.14621039-.32657005.32657005-.32657005s.32657005.14621039.32657005.32657005c0 .18035965-.14621039.32657004-.32657005.32657004zm2.12560386.69951691c.03308373 0 .05990339-.02681966.05990339-.05990338s-.02681966-.05990338-.05990339-.05990338c-.03308372 0-.05990338.02681966-.05990338.05990338s.02681966.05990338.05990338.05990338zm0 .26666667c-.18035965 0-.32657004-.14621039-.32657004-.32657005s.14621039-.32657005.32657004-.32657005c.18035964 0 .32657004.14621039.32657004.32657005s-.1462104.32657005-.32657004.32657005zm0 .11980676c.03308373 0 .05990339-.02681966.05990339-.05990338s-.02681966-.05990338-.05990339-.05990338c-.03308372 0-.05990338.02681966-.05990338.05990338s.02681966.05990338.05990338.05990338zm0 .26666667c-.18035965 0-.32657004-.14621039-.32657004-.32657005s.14621039-.32657005.32657004-.32657005c.18035964 0 .32657004.14621039.32657004.32657005s-.1462104.32657005-.32657004.32657005zm-.19323671.31304348c.03308372 0 .05990338-.02681966.05990338-.05990339 0-.03308372-.02681966-.05990338-.05990338-.05990338-.03308373 0-.05990338.02681966-.05990338.05990338 0 .03308373.02681965.05990339.05990338.05990339zm0 .26666666c-.18035966 0-.32657005-.14621039-.32657005-.32657005 0-.18035965.14621039-.32657004.32657005-.32657004s.32657005.14621039.32657005.32657004c0 .18035966-.14621039.32657005-.32657005.32657005zm-.19323672.11980677c.03308373 0 .05990339-.02681966.05990339-.05990339 0-.03308372-.02681966-.05990338-.05990339-.05990338-.03308372 0-.05990338.02681966-.05990338.05990338 0 .03308373.02681966.05990339.05990338.05990339zm0 .26666666c-.18035965 0-.32657004-.14621039-.32657004-.32657005 0-.18035965.14621039-.32657004.32657004-.32657004.18035966 0 .32657005.14621039.32657005.32657004 0 .18035966-.14621039.32657005-.32657005.32657005zm-.19323671.11980677c.03308372 0 .05990338-.02681966.05990338-.05990339 0-.03308372-.02681966-.05990338-.05990338-.05990338-.03308373 0-.05990338.02681966-.05990338.05990338 0 .03308373.02681965.05990339.05990338.05990339zm0 .26666666c-.18035966 0-.32657005-.14621039-.32657005-.32657005 0-.18035965.14621039-.32657004.32657005-.32657004s.32657005.14621039.32657005.32657004c0 .18035966-.14621039.32657005-.32657005.32657005z" fill="#fff" fill-rule="nonzero"/></g><path d="m5.9067841.19323672.27907455.06474845-.11546735.46125155.49965701.12507723-.06303881.27887163-.5056182-.12694886-.12710153.5169554-.27907455-.06474845.12917608-.52120695-.507-.1263619.06303882-.27887162.51296118.12723352z" fill="#f6c540" fill-rule="nonzero" transform="matrix(.97029573 -.2419219 .2419219 .97029573 -.035307 1.451646)"/></g><g transform="translate(8 11.5556)"><path d="m-.28700332.08996116h13.86666662v11.77794084c-.2795594 3.911221-2.5906705 5.8668315-6.93333329 5.8668315s-6.6537739-1.9556105-6.93333333-5.8668315z" fill="#c51918"/><g transform="translate(0 .3865)"><g fill="#e8aa00" transform="translate(2.8986)"><path d="m.99958033.11106429c-.12715285 0-.32288814.09132407-.58234289.19473409-.25945475.10341003-.53192515.32667842-.26596258.55030438.26596258.22362597.64670599.71443025.64670599.53092395 0-.18350631.45483247-.36143449.45483247-.2724704s-.14081213.2724704.22856047.2724704c.36937259 0 .55967278.10913118.16555616.10913118-.39411663 0-.43694099.18028816-.69307674.18028816s-.80257835-.18164693-.80257835-.28941934c0-.10777242.31645184.52985122.64670599.52985122.33025414 0 .51783678.31023007.68339294.15511504.16555616-.15511504.14596117-.15511504.41342555-.15511504.17830958 0 .23492526-.20882246.16984703-.62646737-.62527546-.78623085-.98029747-1.17934627-1.06506604-1.17934627z"/><path d="m6.21697164.11106429c-.12715285 0-.32288815.09132407-.5823429.19473409-.25945475.10341003-.53192514.32667842-.26596257.55030438.26596257.22362597.64670598.71443025.64670598.53092395 0-.18350631.45483247-.36143449.45483247-.2724704s-.14081213.2724704.22856047.2724704.55967279.10913118.16555616.10913118-.43694099.18028816-.69307674.18028816c-.25613574 0-.80257834-.18164693-.80257834-.28941934 0-.10777242.31645184.52985122.64670598.52985122s.51783678.31023007.68339294.15511504c.16555616-.15511504.14596118-.15511504.41342555-.15511504.17830959 0 .23492527-.20882246.16984704-.62646737-.62527546-.78623085-.98029748-1.17934627-1.06506604-1.17934627z" transform="matrix(-1 0 0 1 12.5678 0)"/></g><path d="m4.03430946.07823747.09109038.00050225c.35319022 0 1.02787847.16552966 1.22954947.35885996.20167101.1933303.4131395.23456769.72387017.23456769.31073068 0 .11907171.20925154-.16391132.35056427.26530244.05072257.43588843.35712623.51175796.91921096.14002687-.56208473.34314354-.86848839.60844598-.91921096-.28298303-.14131273-.474642-.35056427-.16391133-.35056427.31073068 0 .52219917-.04123739.72387017-.23456769.20167101-.1933303.87635926-.35885996 1.22954948-.35885996l.09109038-.00050225.14968883-.0006515c.16973762.00243752.21750978.02607955.11241102.16668341-.1445108.1933303-.74966683.7501731-.885759 1.14724228-.13609217.39706919-.04455356.3361388-.17821424.67340137-.13366067.33726257-.54594199.68925713-.13366067 1.13429211s.80797127 1.11498319.96952261 1.11498319h.2281113c1.35815305-1.53519003 1.94862445-2.50941558 1.77141415-2.92267667-.2658155-.61989162-.9531572-1.14724228-.4765786-1.14724228s2.3763988 1.20465606 2.3763988 3.92096212c0 2.71630607-.1754884 4.26116456-.5828457 5.34346582-.4073574 1.08230128.3289853 2.11884858.3289853 2.60177368s-.7480025.0597753-.7480025-.2426433c0-.3024185-.4528161.9779529-.4528161.6102981s-.3809382-.7722079-.3809382-1.0000918c0-.227884-.5407816.0807335-.5407816-.2869213s-.3779863.0441304-.3779863-.9556662c0-.42182072-.0772286-.32124092-.17144945-.1575942l-.05808969.1020814c-.08874747.1534501-.18150038.2835724-.23434644.0555128-.01269215-.0547736-.29497361-.5088266-.40737851-.7526068l-.02842056-.06848694.03341429.12252572c.15415302.50219882.4522168 1.00253932.64706553 1.25109202.14613653.1864146.34520023.4819603.59719113.8866373-.2350069.1310492-.4340706.1310492-.59719113 0-.24468075-.1965738-.08087046.2899199-.24468075.2899199-.06142887 0-.11799442.0135731-.16470571.0203502l-.03809336.0024749.00958763.0248273c.07764216.2083373.1367981.5088827-.09982563.2948307-.37859798-.3424831-.51311683-.2459631-.51311683-.4391831 0-.1932199-.13373219.0967-.29292355.0967-.15919137 0-.10784393-.3702728-.23964522-.773415-.01757351-.0537523-.03363281-.1045475-.0485856-.15112l-.04194651-.125784c-.07231095-.2027391-.1234823-.2394601-.2213428.1003914-.13344613.4634339-.50825383.6074445-.3851058.9499276.12314804.3424831.3851058.8821319.3851058 1.2822557 0 .4001239.79116535 1.1156983.55152013 1.3066422-.23964522.1909438.05034624.8340025.29292355 1.1638991.24257732.3298966.20245766.7326665-.16505555.7326665-.36751322 0-.42787149.24365-.67938813.24365-.16767776 0-.29604636-.0413354-.3851058-.1240062-.10350537.1564738-.24121854.2347107-.41313949.2347107s-.27549785-.0782369-.31073068-.2347107c-.13036404.0521579-.23900074.0956229-.32591011.1303948l-.14484893.0579533c-.07725277.0309084-.11587915.0463626-.11587915.0463626l.00007978-1.0331793c-.00744548.5165897-.0120989.8394582-.01396027.9686056l-.00069801.0484303c-.00015511.0107623-.00023267.0161434-.00023267.0161434s-.06364398-.0782369-.19093193-.2347107c-.03523283.1564738-.13880972.2347107-.31073067.2347107s-.30963412-.0782369-.4131395-.2347107c-.08905944.0826708-.21742803.1240062-.38510579.1240062-.25151664 0-.31187491-.24365-.67938813-.24365s-.40763287-.4027699-.16505555-.7326665c.24257731-.3298966.53256877-.9729553.29292355-1.1638991-.23964522-.1909439.55152013-.9065183.55152013-1.3066422 0-.4001238.26195776-.9397726.38510579-1.2822557.12314804-.3424831-.25165966-.4864937-.38510579-.9499276-.0978605-.3398515-.14903185-.3031305-.2213428-.1003914l-.04194651.125784c-.01495279.0465725-.03101209.0973677-.0485856.15112-.13180129.4031422-.08045386.773415-.23964522.773415-.15919137 0-.29292355-.2899199-.29292355-.0967 0 .19322-.13451885.0967-.51311683.4391831-.23662373.214052-.1774678-.0864934-.09982563-.2948307l.00951787-.0238273-.0380236-.0034749c-.03114086-.004518-.06666139-.0120566-.1050828-.0165802l-.05962291-.00377c-.1638103 0 0-.4864937-.24468075-.2899199-.1631205.1310492-.36218421.1310492-.59719111 0 .25199086-.404677.45105457-.7002227.59719111-.8866373.21920481-.2796218.56904119-.87791248.69764442-1.43901556l-.01823436.06539782-.0273508.06848694c-.09835429.21330767-.32677032.5876055-.39084028.714541l-.01653823.0380658c-.05284606.2280596-.14559897.0979373-.23434644-.0555128l-.05808969-.1020814c-.09422085-.16364672-.17144943-.26422652-.17144943.1575942 0 .9997966-.3779863.5880114-.3779863.9556662s-.54078165.0590373-.54078165.2869213c0 .2278839-.38093816.632437-.38093816 1.0000918s-.45281608-.9127166-.45281608-.6102981c0 .3024186-.74800256.7255684-.74800256.2426433s.7363427-1.5194724.32898534-2.60177368c-.40735735-1.08230126-.58284572-2.62715975-.58284572-5.34346582 0-2.71630606 1.89982024-3.92096212 2.37639883-3.92096212.47657858 0-.21076316.52735066-.47657859 1.14724228-.17721029.41326109.41326109 1.38748664 1.77141412 2.92267667h.2281113c.16155134 0 .55724129-.66994821.96952261-1.11498319s0-.79702954-.13366068-1.13429211c-.13366067-.33726257-.04212206-.27633218-.17821423-.67340137-.13609217-.39706918-.7412482-.95391198-.885759-1.14724228-.10509876-.14060386-.0573266-.16424589.11241102-.16668341z" fill="#f7fcff"/><g fill="#e8aa00"><path d="m3.39767231 13.0385331-.00079849.036.11020831.0904688c.25751161.2178364.38626742.3814036.38626742.4907016 0 .1873681-.16956097.5219847-.16956097.6268965s.15175385-.4169298.40412866-.2084649c.22082796.1824068.23567393.4450819.23593499.628967l-.00022307.0735203c0 .1807173-.00114423-.2126842-.23571192-.2126842-.15637846 0-.29108801.0708947-.40412866.2126842v.3627218s.02975005.2995029.16956097.1497514c.13981093-.1497514.16956098.1847936 0 .1847936-.16956097 0-.34861085.3525329-.50451255.3525329l-.00070014-.030191c-.15033558-.012724-.24567986-.3223419-.4117567-.3223419-.16956098 0-.13981093-.334545 0-.1847936.13981092.1497515.16956097-.1497514.16956097-.1497514v-.3627218c-.11304065-.1417895-.2477502-.2126842-.40412866-.2126842-.23456769 0-.23571193.3934015-.23571193.2126842l-.00022306-.0735203c.00026106-.1838851.01510703-.4465602.23593499-.628967.25237481-.2084649.40412866.3133767.40412866.2084649s-.22764257-.4347189-.22764257-.6220869c0-.1249121.15979125-.3322388.47937375-.62198z"/><path d="m9.7744839 13.0385331-.00079848.036.1102083.0904688c.25751158.2178364.38626738.3814036.38626738.4907016 0 .1873681-.1695609.5219847-.1695609.6268965s.1517538-.4169298.4041286-.2084649c.220828.1824068.235674.4450819.235935.628967l-.000223.0735203c0 .1807173-.0011443-.2126842-.235712-.2126842-.1563784 0-.291088.0708947-.4041286.2126842v.3627218s.02975.2995029.1695609.1497514c.139811-.1497514.169561.1847936 0 .1847936-.1695609 0-.34861081.3525329-.50451251.3525329l-.00070014-.030191c-.15033557-.012724-.24567986-.3223419-.4117567-.3223419-.16956097 0-.13981092-.334545 0-.1847936.13981093.1497515.16956097-.1497514.16956097-.1497514v-.3627218c-.11304064-.1417895-.2477502-.2126842-.40412866-.2126842-.23456769 0-.23571192.3934015-.23571192.2126842l-.00022307-.0735203c.00026106-.1838851.01510703-.4465602.23593499-.628967.25237481-.2084649.40412866.3133767.40412866.2084649s-.22764257-.4347189-.22764257-.6220869c0-.1249121.15979125-.3322388.47937375-.62198z"/><path d="m2.95456822 11.7243104c-.05759304.5417941-.22882269.8126912-.51368894.8126912-.42729937 0-.63848181.2038164-.93569623.1019082-.29721443-.1019082-.97510075-.1793584-.56246186 0 .4126389.1793585.18383945.2404319.56246186.2098952s.86246535-.120645.71428722 0-.25974081.2216951-.48701402.2216951c-.2272732 0-.49259214-.2771189-.49259214 0 0 .2771188-.26531895.7724285 0 .637266.26531894-.1351624.34124294-.034613.49259214-.2517311.15134921-.2171182.68739776-.6755264.58720589-.3855349-.10019187.2899914-.06789174.341911-.25187421.4895885s-.33533168-.1083445-.33533168.3871082-.03263326.7626311.15134921.5389336.23547294-.6773142.33566481-.5389336.34262616.2394307.22140901 0c-.12121714-.2394307-.00908234-.9851128.2523033-1.0983918s.35607089-.107987.61988803-.2098952.83736374-.3305402.34949155-.3305402-.47542866 0-.5917113 0 .24221975-.4075613.24221975-.6816051c0-.1826958-.1195008-.1501805-.35850239.0975459zm7.25915128 0c.0575931.5417941.2288227.8126912.513689.8126912.4272993 0 .6384818.2038164.9356962.1019082s.9751008-.1793584.5624619 0c-.4126389.1793585-.1838395.2404319-.5624619.2098952s-.8624653-.120645-.7142872 0 .2597408.2216951.487014.2216951.4925922-.2771189.4925922 0c0 .2771188.2653189.7724285 0 .637266-.265319-.1351624-.341243-.034613-.4925922-.2517311-.1513492-.2171182-.6873978-.6755264-.5872059-.3855349.1001919.2899914.0678918.341911.2518742.4895885.1839825.1476775.3353317-.1083445.3353317.3871082s.0326333.7626311-.1513492.5389336-.2354729-.6773142-.3356648-.5389336-.3426262.2394307-.221409 0c.1212171-.2394307.0090823-.9851128-.2523033-1.0983918-.2613857-.113279-.3560709-.107987-.61988805-.2098952-.26381714-.1019082-.83736375-.3305402-.34949156-.3305402h.59171131c.1162826 0-.24221975-.4075613-.24221975-.6816051 0-.1826958.11950079-.1501805.35850235.0975459z"/></g></g><g transform="translate(4.058 4.8309)"><path d="m.00468276.06843902h5.16735248v4.71243684c-.36981593 1.56490697-1.23104135 2.34736046-2.58367624 2.34736046-1.3526349 0-2.21386031-.78245349-2.58367624-2.34736046z" fill="#c51918"/><g fill="#f7fcff"><path d="m3.28502415 0-.00002415 2.705 1.9323913.00031401v.96618357l-1.9323913-.00049758.00002415 3.47875845h-1.352657l-.00036715-3.47875845-1.932.00049758v-.96618357l1.932-.00031401.00036715-2.705z"/><path d="m4.39336258 1.35865078c-.12970613 0-.19158113-.10940638-.12297884-.20572716.03606452-.05063625.11078709-.06530127.16689753-.03275524.00503598.00292105.00975088.00612312.01413569.00956884.02065833-.00517138.04590781-.01219356.07501552-.02110103.02611875-.0079928.05448213-.00767756.08037485.00089329.03136872.0103835.04917089-.02174725.03404555-.22163088-.01443894-.05572987-.09084996-.09020801-.2688722-.09020801-.32529406 0-.4589372.03480463-.4589372.06539413v.47800783l.15786314.14246185c.07608271.06866001.02219783.18605795-.08539937.18605795h-.07246377v.3660014c.09925911.07739105.18798152.11355557.26570048.11355557.29099028 0 .45448829-.10842846.45899081-.23653126-.00124052-.0375584-.00293338-.06525905-.00416814-.08410048-.00749492.0022984-.0158558.00502904-.02507122.00822112-.02662872.0092238-.0560156.00964479-.08295533.00118841-.04267695-.01339629-.03497606-.02034587-.03281517.06906724.00145438.06017933-.05142564.1100283-.11811084.11134079-.0666852.0013125-.12192324-.0464085-.12337763-.10658783-.00510239-.21112618.11331016-.33251449.30987333-.29121899.11598717-.03476382.19712867-.03073297.26041988.04079135.04649291.05254084.05271799.09566986.05764241.25133988-.00894703.26746064-.29093659.45447021-.7004281.45447021-.15785333 0-.31424461-.0705668-.46983667-.20451217-.02389125-.02056739-.03740971-.04906528-.03740971-.0788624v-.52315306c0-.03525861.01855244-.06660682.04732831-.08652822l-.01195473-.01078841c-.02264932-.02043963-.03537358-.04816172-.03537358-.07706772v-.52315306c0-.22337041.2304045-.28337458.7004831-.28337458.27703449 0 .45827243.0817781.50690954.27524029.02740909.33049686-.07051899.52767926-.31258823.47131628-.07489104.02148578-.13033631.03238407-.17293941.03238407zm-.0213819 2.69932023c.27703449 0 .45827243.0817781.50690954.27524029.02740909.33049686-.07051899.52767926-.31258823.47131628-.07489104.02148578-.13033631.03238407-.17293941.03238407-.12970613 0-.19158113-.10940638-.12297884-.20572716.03606452-.05063625.11078709-.06530127.16689753-.03275524.00503598.00292105.00975088.00612312.01413569.00956884.02065833-.00517138.04590781-.01219356.07501552-.02110103.02611875-.0079928.05448213-.00767756.08037485.00089329.03136872.0103835.04917089-.02174725.03404555-.22163088-.01443894-.05572987-.09084996-.09020801-.2688722-.09020801-.32529406 0-.4589372.03480463-.4589372.06539413v.47800783l.15786314.14246185c.07608271.06866001.02219783.18605795-.08539937.18605795h-.07246377v.3660014c.09925911.07739105.18798152.11355557.26570048.11355557.29099028 0 .45448829-.10842846.45899081-.23653126-.00124052-.0375584-.00293338-.06525905-.00416814-.08410048-.00749492.00229839-.0158558.00502904-.02507122.00822112-.02662872.0092238-.0560156.00964479-.08295533.00118841-.04267695-.01339629-.03497606-.02034587-.03281517.06906724.00145438.06017933-.05142564.1100283-.11811084.11134079s-.12192324-.0464085-.12337763-.10658783c-.00510239-.21112618.11331016-.33251449.30987333-.29121899.11598717-.03476382.19712867-.03073297.26041988.04079135.04649291.05254084.05271799.09566986.05764241.25133988-.00894703.26746064-.29093659.45447021-.7004281.45447021-.15785333 0-.31424461-.0705668-.46983667-.20451217-.02389125-.02056739-.03740971-.04906528-.03740971-.0788624v-.52315306c0-.03525861.01855244-.06660682.04732831-.08652822l-.01195473-.01078841c-.02264932-.02043963-.03537358-.04816172-.03537358-.07706773v-.52315305c0-.22337041.2304045-.28337458.7004831-.28337458zm-3.47412656 0c.47007859 0 .70048309.06000417.70048309.28337458v.52315305c0 .02890601-.01272426.0566281-.03537358.07706773l-.01195473.01078841c.02877588.0199214.04732831.05126961.04732831.08652822v.52315306c0 .02979712-.01351845.05829501-.03740971.0788624-.15559205.13394537-.31198334.20451217-.46983667.20451217-.40949151 0-.69148107-.18700957-.7004281-.45447021.00492442-.15567002.0111495-.19879904.05764241-.25133988.06329121-.07152432.14443272-.07555517.26041989-.04079135.19656317-.0412955.31497572.08009281.30987332.29121899-.00145438.06017933-.05669243.10790032-.12337763.10658783s-.11956522-.05116146-.11811084-.11134079c.0021609-.08941311.00986178-.08246353-.03281516-.06906724-.02693973.00845638-.05632661.00803539-.08295534-.00118841-.00921542-.00319208-.01757629-.00592273-.02507121-.00822112-.00123476.01884143-.00292762.04654208-.00416815.08410048.00450252.1281028.16800053.23653126.45899081.23653126.07771896 0 .16644137-.03616452.26570049-.11355557v-.3660014h-.07246377c-.10759721 0-.16148209-.11739794-.08539937-.18605795l.15786314-.14246185v-.47800783c0-.0305895-.13364315-.06539413-.4589372-.06539413-.17802225 0-.25443327.03447814-.2688722.09020801-.01512535.19988363.00267683.23201438.03404555.22163088.02589271-.00857085.05425609-.00888609.08037485-.00089329.0291077.00890747.05435719.01592965.07501552.02110103.00438481-.00344572.0090997-.00664779.01413569-.00956884.05611043-.03254603.130833-.01788101.16689752.03275524.06860229.09632078.00672729.20572716-.12297883.20572716-.0426031 0-.09804837-.01089829-.17293941-.03238407-.24206925.05636298-.33999733-.14081942-.31258824-.47131628.04863712-.19346219.22987505-.27524029.50690955-.27524029zm0-3.47826087c.47007859 0 .70048309.06000417.70048309.28337458v.52315306c0 .028906-.01272426.05662809-.03537358.07706772l-.01195473.01078841c.02877588.0199214.04732831.05126961.04732831.08652822v.52315306c0 .02979712-.01351845.05829501-.03740971.0788624-.15559205.13394537-.31198334.20451217-.46983667.20451217-.40949151 0-.69148107-.18700957-.7004281-.45447021.00492442-.15567002.0111495-.19879904.05764241-.25133988.06329121-.07152432.14443272-.07555517.26041989-.04079135.19656317-.0412955.31497572.08009281.30987332.29121899-.00145438.06017933-.05669243.10790033-.12337763.10658783-.0666852-.00131249-.11956522-.05116146-.11811084-.11134079.0021609-.08941311.00986178-.08246353-.03281516-.06906724-.02693973.00845638-.05632661.00803539-.08295534-.00118841-.00921542-.00319208-.01757629-.00592272-.02507121-.00822112-.00123476.01884143-.00292762.04654208-.00416815.08410048.00450252.1281028.16800053.23653126.45899081.23653126.07771896 0 .16644137-.03616452.26570049-.11355557v-.3660014h-.07246377c-.10759721 0-.16148209-.11739794-.08539937-.18605795l.15786314-.14246185v-.47800783c0-.0305895-.13364315-.06539413-.4589372-.06539413-.17802225 0-.25443327.03447814-.2688722.09020801-.01512535.19988363.00267683.23201438.03404555.22163088.02589271-.00857085.05425609-.00888609.08037485-.00089329.0291077.00890747.05435719.01592965.07501552.02110103.00438481-.00344572.0090997-.00664779.01413569-.00956884.05611043-.03254603.130833-.01788101.16689752.03275524.06860229.09632078.00672729.20572716-.12297883.20572716-.0426031 0-.09804837-.01089829-.17293941-.03238407-.24206925.05636298-.33999733-.14081942-.31258824-.47131628.04863712-.19346219.22987505-.27524029.50690955-.27524029z" fill-rule="nonzero"/></g></g></g></g></g></g><rect height="32" mask="url(#b)" rx="2" width="43.335938"/></g></svg>