<svg xmlns="http://www.w3.org/2000/svg" xmlns:xlink="http://www.w3.org/1999/xlink" width="43" height="32" viewBox="0 0 43 32"><defs><mask id="b" fill="#fff"><path fill-rule="evenodd" d="M0 0h43.336v32H0z"/></mask><mask id="c" fill="#fff"><path fill-rule="evenodd" d="M0 0h42.667v32H0z"/></mask><mask id="d" fill="#fff"><use xlink:href="#a" fill-rule="evenodd"/></mask><path id="a" d="M0 0h42.667v32H0z"/></defs><g fill="none" fill-rule="evenodd"><g mask="url(#b)"><g mask="url(#c)" transform="translate(.335)"><use xlink:href="#a" fill="#4857a1"/><path fill="#c51918" d="M0 0h42.667v10.667H0z" mask="url(#d)"/><path fill="#f7fcff" d="M0 21.333h42.667V32H0z" mask="url(#d)"/><g mask="url(#d)"><path fill="#f6c540" fill-rule="nonzero" d="M15.123 4.466q.194.06.416.122c1.759.152 4.48 1.063 4.986 2.03.225.43-.066.788-.371 1.306-.591 1.002-.928 1.8-1.526 2.163l.008 1.601-7.86-.067-.01-1.618c-.525-.392-.855-1.148-1.404-2.08-.305-.517-.596-.874-.371-1.304.38-.728 2.107-1.436 3.688-1.81.31-.11.635-.214.957-.313l.145.105q.186-.026.361-.042l.18.403h.641q.387 1.148.387 1.786 0 .636-.387 1.164v.437q.1.007.21.018a1 1 0 0 1 .013-.115c.037-.21.152-.365.257-.347s.16.204.123.414a1 1 0 0 1-.021.091q.557.072 1.32.215l-.005.012c.6-1.166 1.677-2.283 1.103-2.859-.08-.08-.224-.154-.41-.222a13 13 0 0 0-1.895-.322l-.02-.105-.364-.058zm3.838 1.544c.426.806-.515 1.603-1.219 2.788l.188.04a.7.7 0 0 1 .025-.194c.04-.147.116-.263.194-.307l.047-.018.046.002c.103.027.142.217.086.423a.7.7 0 0 1-.067.167l.36.076v.23c.78-.6 1.33-1.93 1.38-2.366.03-.263-.387-.566-1.04-.84m-8.196-.039-.068.027c-.727.288-1.211.598-1.182.853.047.411.541 1.62 1.252 2.26.243-.068.484-.134.713-.195a.6.6 0 0 1-.076-.158c-.066-.203-.037-.395.065-.428.101-.033.237.105.303.308a.7.7 0 0 1 .035.195l.152-.04c-.715-1.202-1.67-2.004-1.194-2.822M14 5.174h-.019c-.49.064-1.004.16-1.503.278-.343.096-.616.204-.738.326-.566.569.474 1.663 1.079 2.812q.465-.102.84-.163a.6.6 0 0 1-.022-.124c-.02-.213.052-.393.158-.402s.208.155.227.368a1 1 0 0 1 .001.106q.117-.015.222-.024l-.001-.486q-.335-.375-.387-1.153-.046-.693.143-1.538"/><path fill="#2e42a5" d="M10.995 11.17a.29.29 0 1 0 0-.58.29.29 0 0 0 0 .58m7.73 0a.29.29 0 1 0 0-.58.29.29 0 0 0 0 .58m-4.058-.194c.373 0 .676-.173.676-.387 0-.213-.303-.386-.676-.386s-.677.173-.677.386.303.387.677.387m0-5.453c.48 0 .87-.38.87-.848 0-.469-.39-.849-.87-.849s-.87.38-.87.849.39.848.87.848"/><path fill="#c5363c" d="M16.792 10.976c.267 0 .483-.13.483-.29s-.216-.29-.483-.29-.483.13-.483.29.216.29.483.29m-4.058 0c.267 0 .483-.13.483-.29s-.216-.29-.483-.29-.483.13-.483.29.216.29.483.29"/><path fill="#f7fcff" d="M13.337 8.638c.101-.033.13-.224.064-.427s-.202-.341-.303-.308-.13.224-.064.427.201.341.303.308m2.779.019c.107 0 .193-.173.193-.386s-.086-.387-.193-.387-.193.173-.193.387c0 .213.086.386.193.386m-4.988.602c.101-.033.13-.225.064-.428s-.201-.34-.303-.308-.13.225-.064.428.201.34.303.308m7.277-.037c.09.056.256-.045.369-.226.113-.18.131-.373.041-.43s-.256.045-.369.226c-.113.18-.131.373-.04.43"/><path fill="#fff" fill-rule="nonzero" d="M9.546 8.137a.06.06 0 1 0 0-.12.06.06 0 0 0 0 .12m0 .267a.327.327 0 1 1 0-.653.327.327 0 0 1 0 .653m-.193-.846a.06.06 0 1 0 0-.12.06.06 0 0 0 0 .12m0 .266a.327.327 0 1 1 0-.653.327.327 0 0 1 0 .653m-.194-.653a.06.06 0 1 0 0-.12.06.06 0 0 0 0 .12m0 .267a.327.327 0 1 1 0-.653.327.327 0 0 1 0 .653m-.193-.653a.06.06 0 1 0 0-.12.06.06 0 0 0 0 .12m0 .266a.327.327 0 1 1 0-.653.327.327 0 0 1 0 .653m.387-.653a.06.06 0 1 0 0-.12.06.06 0 0 0 0 .12m0 .267a.327.327 0 1 1 0-.653.327.327 0 0 1 0 .653m.386-.583a.06.06 0 1 0 0-.12.06.06 0 0 0 0 .12m0 .267a.327.327 0 1 1 0-.653.327.327 0 0 1 0 .653m.387-.53a.06.06 0 1 0 0-.12.06.06 0 0 0 0 .12m0 .266a.327.327 0 1 1 0-.653.327.327 0 0 1 0 .653m.456-.457a.06.06 0 1 0 0-.12.06.06 0 0 0 0 .12m0 .267a.327.327 0 1 1 0-.653.327.327 0 0 1 0 .653m.51-.463a.06.06 0 1 0 0-.12.06.06 0 0 0 0 .12m0 .267a.327.327 0 1 1 0-.654.327.327 0 0 1 0 .654m.58-.42a.06.06 0 1 0 0-.119.06.06 0 0 0 0 .12m0 .268a.327.327 0 1 1 0-.654.327.327 0 0 1 0 .654m.58-.502a.06.06 0 1 0 0-.12.06.06 0 0 0 0 .12m0 .267a.327.327 0 1 1 0-.653.327.327 0 0 1 0 .653m.481-.342a.06.06 0 1 0 0-.12.06.06 0 0 0 0 .12m0 .267a.327.327 0 1 1 0-.653.327.327 0 0 1 0 .653m.484-.385a.06.06 0 1 0 0-.12.06.06 0 0 0 0 .12m0 .267a.327.327 0 1 1 0-.653.327.327 0 0 1 0 .653m-2.125.7a.06.06 0 1 0 0-.12.06.06 0 0 0 0 .12m0 .266a.327.327 0 1 1 0-.653.327.327 0 0 1 0 .653m0 .12a.06.06 0 1 0 0-.12.06.06 0 0 0 0 .12m0 .267a.327.327 0 1 1 0-.654.327.327 0 0 1 0 .654m.193.313a.06.06 0 1 0 0-.12.06.06 0 0 0 0 .12m0 .266a.327.327 0 1 1 0-.653.327.327 0 0 1 0 .653m.193.12a.06.06 0 1 0 0-.12.06.06 0 0 0 0 .12m0 .267a.327.327 0 1 1 0-.653.327.327 0 0 1 0 .653m.193.12a.06.06 0 1 0 0-.12.06.06 0 0 0 0 .12m0 .266a.327.327 0 1 1 0-.653.327.327 0 0 1 0 .653m8.503.313a.06.06 0 1 0 0-.12.06.06 0 0 0 0 .12m0 .267a.327.327 0 1 1 0-.653.327.327 0 0 1 0 .653m.193-.846a.06.06 0 1 0 0-.12.06.06 0 0 0 0 .12m0 .266a.327.327 0 1 1 0-.653.327.327 0 0 1 0 .653m.193-.653a.06.06 0 1 0 0-.12.06.06 0 0 0 0 .12m0 .267a.327.327 0 1 1 0-.653.327.327 0 0 1 0 .653m.194-.653a.06.06 0 1 0 0-.12.06.06 0 0 0 0 .12m0 .266a.327.327 0 1 1 0-.653.327.327 0 0 1 0 .653m-.387-.653a.06.06 0 1 0 0-.12.06.06 0 0 0 0 .12m0 .267a.327.327 0 1 1 0-.653.327.327 0 0 1 0 .653m-.386-.583a.06.06 0 1 0 0-.12.06.06 0 0 0 0 .12m0 .267a.327.327 0 1 1 0-.653.327.327 0 0 1 0 .653m-.387-.53a.06.06 0 1 0 0-.12.06.06 0 0 0 0 .12m0 .266a.327.327 0 1 1 0-.653.327.327 0 0 1 0 .653m-.456-.457a.06.06 0 1 0 0-.12.06.06 0 0 0 0 .12m0 .267a.327.327 0 1 1 0-.653.327.327 0 0 1 0 .653m-.51-.463a.06.06 0 1 0 0-.12.06.06 0 0 0 0 .12m0 .267a.327.327 0 1 1 0-.654.327.327 0 0 1 0 .654m-.58-.42a.06.06 0 1 0 0-.119.06.06 0 0 0 0 .12m0 .268a.327.327 0 1 1 0-.654.327.327 0 0 1 0 .654m-.58-.502a.06.06 0 1 0 0-.12.06.06 0 0 0 0 .12m0 .267a.327.327 0 1 1 0-.653.327.327 0 0 1 0 .653m-.481-.342a.06.06 0 1 0 0-.12.06.06 0 0 0 0 .12m0 .267a.327.327 0 1 1 0-.653.327.327 0 0 1 0 .653m-.485-.385a.06.06 0 1 0 0-.12.06.06 0 0 0 0 .12m0 .267a.327.327 0 1 1 0-.653.327.327 0 0 1 0 .653m2.126.7a.06.06 0 1 0 0-.12.06.06 0 0 0 0 .12m0 .266a.327.327 0 1 1 0-.653.327.327 0 0 1 0 .653m0 .12a.06.06 0 1 0 0-.12.06.06 0 0 0 0 .12m0 .267a.327.327 0 1 1 0-.654.327.327 0 0 1 0 .654m-.193.313a.06.06 0 1 0 0-.12.06.06 0 0 0 0 .12m0 .266a.327.327 0 1 1 0-.653.327.327 0 0 1 0 .653m-.194.12a.06.06 0 1 0 0-.12.06.06 0 0 0 0 .12m0 .267a.327.327 0 1 1 0-.653.327.327 0 0 1 0 .653m-.193.12a.06.06 0 1 0 0-.12.06.06 0 0 0 0 .12m0 .266a.327.327 0 1 1 0-.653.327.327 0 0 1 0 .653"/><path fill="#f6c540" fill-rule="nonzero" d="m14.516 2.877.286-.005v.476h.515l.006.286h-.521l.001.531-.286.005v-.537h-.523l-.007-.286h.529z"/><path fill="#c51918" d="M7.713 11.646H21.58v11.778q-.42 5.866-6.934 5.866c-6.514 0-6.653-1.955-6.933-5.866z"/><path fill="#e8aa00" d="M11.898 12.053c-.127 0-.323.091-.582.195-.26.103-.532.327-.266.55s.647.715.647.531.454-.361.454-.272-.14.272.229.272c.37 0 .56.11.166.11-.395 0-.437.18-.694.18s-.802-.182-.802-.29.316.53.647.53c.33 0 .517.31.683.155s.146-.155.413-.155q.268 0 .17-.626-.937-1.18-1.065-1.18m5.352 0c.127 0 .322.091.582.195.26.103.532.327.266.55s-.647.715-.647.531-.455-.361-.455-.272.141.272-.228.272-.56.11-.166.11.437.18.693.18.803-.182.803-.29-.317.53-.647.53-.518.31-.683.155-.146-.155-.414-.155q-.267 0-.17-.626.938-1.18 1.065-1.18"/><path fill="#f7fcff" d="M12.034 12.02h.091c.354 0 1.028.166 1.23.36s.413.234.724.234c.31 0 .119.21-.164.35q.398.077.512.92.21-.842.608-.92c-.283-.14-.475-.35-.164-.35s.522-.041.724-.234c.202-.194.876-.36 1.23-.36h.24c.17.002.218.026.113.166-.145.194-.75.75-.886 1.148s-.045.336-.178.673c-.134.337-.546.69-.134 1.134s.808 1.115.97 1.115h.228q2.037-2.303 1.771-2.922c-.266-.62-.953-1.148-.476-1.148s2.376 1.205 2.376 3.921c0 2.717-.175 4.261-.583 5.344-.407 1.082.33 2.119.33 2.602s-.749.06-.749-.243c0-.302-.453.978-.453.61s-.38-.772-.38-1-.541.08-.541-.287-.378.044-.378-.955c0-.422-.078-.322-.172-.158l-.058.102c-.089.153-.181.284-.234.056-.013-.055-.295-.51-.408-.753l-.028-.069.033.123c.155.502.453 1.003.647 1.251q.22.28.598.887-.352.195-.598 0c-.244-.197-.08.29-.244.29-.062 0-.118.013-.165.02l-.038.002.01.025c.077.209.136.51-.1.295-.379-.342-.513-.246-.513-.44 0-.192-.134.098-.293.098-.16 0-.108-.37-.24-.774l-.049-.15-.041-.127c-.073-.202-.124-.24-.222.1-.133.464-.508.608-.385.95.123.343.385.883.385 1.283s.791 1.116.552 1.307c-.24.19.05.834.293 1.163.242.33.202.733-.165.733-.368 0-.428.244-.68.244q-.252 0-.385-.124-.155.234-.413.234c-.258 0-.276-.078-.31-.234l-.327.13-.145.058-.115.046v-1.033l-.014.969-.001.048v.016l-.191-.234q-.053.234-.31.234c-.258 0-.31-.078-.414-.234q-.134.123-.385.124c-.252 0-.312-.244-.68-.244s-.407-.403-.165-.733c.243-.33.533-.973.293-1.163s.552-.907.552-1.307.262-.94.385-1.282-.252-.487-.385-.95c-.098-.34-.15-.303-.221-.1l-.042.125-.049.151c-.132.403-.08.774-.24.774s-.293-.29-.293-.097-.134.097-.513.44c-.236.213-.177-.087-.1-.296l.01-.024-.038-.003q-.047-.009-.105-.017l-.06-.003c-.164 0 0-.487-.244-.29q-.246.195-.598 0 .378-.607.598-.887c.219-.28.569-.878.697-1.439l-.018.065-.027.069c-.099.213-.327.588-.391.714l-.017.039c-.053.228-.145.097-.234-.056l-.058-.102c-.094-.164-.172-.264-.172.158 0 1-.378.588-.378.955s-.54.06-.54.287c0 .228-.381.633-.381 1s-.453-.912-.453-.61-.748.725-.748.243.736-1.52.329-2.602c-.408-1.083-.583-2.627-.583-5.344 0-2.716 1.9-3.92 2.376-3.92.477 0-.21.527-.476 1.147q-.266.62 1.771 2.922H12c.162 0 .558-.67.97-1.115s0-.797-.134-1.134c-.133-.337-.042-.276-.178-.673s-.741-.954-.886-1.148c-.105-.14-.057-.164.113-.166z"/><g fill="#e8aa00"><path d="m11.398 24.98-.001.037.11.09q.386.328.386.49c0 .188-.17.523-.17.628s.153-.417.405-.209c.22.183.236.445.236.63v.073c0 .18-.002-.213-.236-.213a.5.5 0 0 0-.404.213v.362s.03.3.17.15.169.185 0 .185c-.17 0-.35.353-.505.353v-.03c-.151-.013-.247-.323-.413-.323-.17 0-.14-.335 0-.185s.17-.15.17-.15v-.362a.5.5 0 0 0-.404-.213c-.235 0-.236.393-.236.213v-.074c0-.184.015-.446.236-.629.252-.208.404.314.404.209s-.228-.435-.228-.622q0-.188.48-.622m6.376-.001v.037l.11.09q.386.328.386.49c0 .188-.17.523-.17.628s.152-.417.405-.209c.22.183.235.445.236.63v.073c0 .18-.002-.213-.236-.213a.5.5 0 0 0-.404.213v.362s.03.3.17.15c.139-.15.169.185 0 .185-.17 0-.35.353-.505.353l-.001-.03c-.15-.013-.246-.323-.412-.323-.17 0-.14-.335 0-.185s.17-.15.17-.15v-.362a.5.5 0 0 0-.404-.213c-.235 0-.236.393-.236.213v-.074c0-.184.015-.446.236-.629.252-.208.404.314.404.209s-.228-.435-.228-.622q0-.188.48-.622"/><path d="M10.955 23.666q-.088.813-.514.813c-.427 0-.639.204-.936.102s-.975-.18-.562 0 .184.24.562.21.863-.12.714 0-.26.222-.487.222-.492-.278-.492 0c0 .277-.265.772 0 .637s.341-.035.492-.252c.152-.217.688-.675.588-.385s-.068.342-.252.49-.336-.11-.336.386-.032.763.152.54.235-.678.335-.54.343.24.222 0-.01-.985.252-1.098.356-.108.62-.21.837-.33.35-.33h-.592c-.116 0 .242-.408.242-.682q0-.274-.358.097m7.259 0q.086.813.513.813c.428 0 .639.204.936.102s.975-.18.563 0-.184.24-.563.21-.862-.12-.714 0 .26.222.487.222.492-.278.492 0c0 .277.266.772 0 .637-.265-.135-.34-.035-.492-.252s-.688-.675-.587-.385.068.342.251.49c.184.147.336-.11.336.386s.032.763-.152.54-.235-.678-.335-.54-.343.24-.222 0 .01-.985-.252-1.098c-.261-.113-.356-.108-.62-.21s-.837-.33-.35-.33h.592c.117 0-.242-.408-.242-.682q0-.274.359.097"/></g><path fill="#c51918" d="M12.063 16.455h5.167v4.712q-.555 2.348-2.584 2.348t-2.583-2.348z"/><g fill="#f7fcff"><path d="M15.343 16.386v2.705h1.932v.967h-1.932v3.478H13.99v-3.479l-1.932.001v-.966h1.932v-2.706z"/><path fill-rule="nonzero" d="M16.451 17.745c-.13 0-.191-.11-.123-.206a.13.13 0 0 1 .181-.023l.075-.02a.13.13 0 0 1 .08 0c.032.01.05-.022.035-.222-.015-.055-.091-.09-.269-.09-.325 0-.459.035-.459.066v.478l.158.142c.076.069.022.186-.085.186h-.073v.366q.15.116.266.114c.29 0 .454-.109.459-.237l-.004-.084-.026.008a.13.13 0 0 1-.082.001c-.043-.013-.035-.02-.033.07.001.06-.052.11-.118.11-.067.002-.122-.046-.124-.106-.005-.21.114-.332.31-.291.116-.035.197-.03.26.04.047.053.053.097.058.252-.009.268-.29.455-.7.455q-.237-.001-.47-.205a.1.1 0 0 1-.038-.079v-.523c0-.035.02-.066.048-.086l-.012-.011a.1.1 0 0 1-.036-.077v-.523c0-.224.23-.284.701-.284.277 0 .458.082.507.275.027.33-.07.528-.313.472a.7.7 0 0 1-.173.032m-.021 2.7c.277 0 .458.081.507.275.027.33-.07.527-.313.471a.7.7 0 0 1-.173.032c-.13 0-.191-.109-.123-.205a.13.13 0 0 1 .181-.024l.075-.02a.13.13 0 0 1 .08 0c.032.01.05-.021.035-.221-.015-.056-.091-.09-.269-.09-.325 0-.459.034-.459.065v.478l.158.142c.076.069.022.186-.085.186h-.073v.366q.15.116.266.114c.29 0 .454-.108.459-.237l-.004-.084-.026.009a.13.13 0 0 1-.082 0c-.043-.013-.035-.02-.033.07.001.06-.052.11-.118.111s-.122-.046-.124-.106c-.005-.212.114-.333.31-.292.116-.034.197-.03.26.041.047.053.053.096.058.251-.009.268-.29.455-.7.455q-.237-.001-.47-.205a.1.1 0 0 1-.038-.078v-.524c0-.035.02-.066.048-.086l-.012-.01a.1.1 0 0 1-.036-.078v-.523c0-.224.23-.284.701-.284m-3.474 0c.47 0 .7.06.7.283v.523a.1.1 0 0 1-.035.077l-.012.01c.029.02.047.052.047.087v.524q0 .047-.037.078-.233.203-.47.205c-.41 0-.691-.187-.7-.455.005-.155.01-.198.057-.25.064-.072.145-.076.26-.042.197-.041.316.08.31.292 0 .06-.056.107-.123.106s-.12-.051-.118-.111c.002-.09.01-.083-.033-.07a.13.13 0 0 1-.083 0l-.025-.009-.004.084c.005.129.168.237.46.237q.116.002.265-.114v-.366h-.073c-.107 0-.161-.117-.085-.186l.158-.142v-.478c0-.03-.134-.066-.46-.066-.177 0-.254.035-.268.09-.015.2.003.233.034.222a.13.13 0 0 1 .08 0l.075.02.015-.01a.13.13 0 0 1 .166.034c.07.096.007.205-.123.205a.7.7 0 0 1-.172-.032c-.243.056-.34-.14-.313-.471.049-.194.23-.276.507-.276m0-3.479c.47 0 .7.06.7.284v.523a.1.1 0 0 1-.035.077l-.012.01c.029.02.047.052.047.087v.523q0 .047-.037.08c-.156.133-.312.204-.47.204-.41 0-.691-.187-.7-.455.005-.155.01-.199.057-.251.064-.072.145-.076.26-.041.197-.041.316.08.31.291 0 .06-.056.108-.123.107-.066-.001-.12-.051-.118-.111.002-.09.01-.083-.033-.07a.13.13 0 0 1-.083 0l-.025-.009-.004.084c.005.128.168.237.46.237q.116.002.265-.114v-.366h-.073c-.107 0-.161-.117-.085-.186l.158-.142v-.478c0-.031-.134-.066-.46-.066-.177 0-.254.035-.268.09-.015.2.003.232.034.222a.13.13 0 0 1 .08 0l.075.02.015-.01a.13.13 0 0 1 .166.033c.07.097.007.206-.123.206a.7.7 0 0 1-.172-.032c-.243.056-.34-.141-.313-.472.049-.193.23-.275.507-.275"/></g></g></g></g><rect width="43.336" height="32" mask="url(#b)" rx="2"/></g></svg>