<svg height="32" viewBox="0 0 43 32" width="43" xmlns="http://www.w3.org/2000/svg" xmlns:xlink="http://www.w3.org/1999/xlink"><defs><path id="a" d="m0 0h42.666667v32h-42.666667z"/><mask id="b" fill="#fff"><path d="m0 0h43.335938v32h-43.335938z" fill="#fff" fill-rule="evenodd"/></mask><mask id="c" fill="#fff"><path d="m0 0h42.666667v32h-42.666667z" fill="#fff" fill-rule="evenodd"/></mask><mask id="d" fill="#fff"><use fill="#fff" fill-rule="evenodd" xlink:href="#a"/></mask></defs><g fill="none" fill-rule="evenodd"><g fill-rule="evenodd" mask="url(#b)"><g mask="url(#c)" transform="translate(.3346)"><use fill="#feca00" xlink:href="#a"/><path d="m0 0h42.666667v18.666667h-42.666667z" fill="#3ca5d9" mask="url(#d)"/><path d="m0 24h42.666667v8h-42.666667z" fill="#5a962a" mask="url(#d)"/><g fill="#ffdc17" mask="url(#d)"><path d="m10.6523022 0 .489854 2.68956831c.0851931.00785167.1698016.01769161.2537776.0294724l1.1028398-2.50555729-.1517068 2.72924689c.0812531.0271874.1616235.056265.2410575.08717982l1.6575769-2.1874854-.7850523 2.62307414c.0718916.04455723.1426257.09076881.2121475.1385807l2.1261114-1.75116203-1.3761804 2.37545241c.0593775.05946048.1173277.12031509.1737959.18250963l2.4781362-1.22039366-1.8934065 1.99775533c.0440206.07143876.0863613.14399882.1269678.21762664l2.6959595-.62284667-2.3086138 1.51323128c.025822.07888924.0498032.15859624.0718935.2390716l2.7698994.00934534-2.6021035.94634645c.0111243.13861514.0167926.27874757.0167926.42018772l-.0038972-.17220361 2.6973018.64145968-2.7543108.32769065c-.0126084.08169428-.0271249.16276877-.0435033.2431777l2.4749949 1.24009597-2.7582066-.30941004c-.0313405.07629216-.0644462.15169064-.0992671.22614584l2.121145 1.7717731-2.6144332-.9318601c-.0479171.0665299-.0973667.1319081-.1482978.1960841l1.6525883 2.2108014-2.3285728-1.5042527c-.0616356.0535473-.124538.1057056-.1886572.1564253l1.0931216 2.5298504-1.9151033-1.994827c-.0722959.0380734-.1455884.0745432-.2198288.1093614l.4736318 2.710763-1.3978769-2.3776264c-.0792763.0205296-.1592761.0392942-.2399537.0562488l-.1711002 2.7454575-.8066717-2.6333586-.1324604.0027406c-.037825 0-.0755577-.0003908-.113194-.0011683l-.8067155 2.6317863-.1712362-2.7414828c-.08137013-.0167899-.1620562-.0354198-.2420116-.0558437l-1.39568306 2.3732466.47255238-2.7022956c-.07605764-.0353216-.15112869-.0723735-.22516114-.1111044l-1.90869146 1.9881026 1.08812156-2.5186393c-.06624397-.0520351-.13120039-.105601-.19481441-.1606436l-2.31741561 1.4972599 1.6428265-2.1989156c-.05274156-.0660658-.10390906-.1334149-.15344662-.2019919l-2.59952253.9258821 2.10752073-1.7598421c-.03656986-.0776801-.07127059-.15639261-.10404511-.23608103l-2.73980436.30741423 2.45759615-1.23118211c-.01726078-.08398381-.03248989-.16869641-.04563445-.25408556l-2.73478088-.32569665 2.67683311-.63658389c.0027656-.08716041.00768419-.17378464.01470501-.25982254l-2.58344447-.93938381 2.75067692-.00934534c.02311247-.08419911.04829484-.16755711.07548982-.25001742l-2.29298761-1.50228546 2.67893505.61886515c.04219877-.07635733.08626358-.15156403.13213389-.22556028l-1.88154816-1.98584017 2.46432687 1.21444056c.05851817-.06425604.11862075-.12707604.18024699-.1884l-1.36882213-2.36360894 2.11624853 1.74473984c.07170879-.04909111.1447007-.09648237.21891601-.14211478l-.78195797-2.61311787 1.6523584 2.18205797c.08078656-.03117846.16253568-.06045865.24519115-.08778504l-.15062191-2.72321424 1.10167976 2.50305462c.0849397-.01162187.17052155-.0212589.25669615-.02886215zm-.0576137 4.55538471c-1.86746774 0-3.38134946 1.4918757-3.38134946 3.33219763 0 1.84032194 1.51388172 3.33219766 3.38134946 3.33219766 1.8674677 0 3.3813495-1.49187572 3.3813495-3.33219766 0-1.84032193-1.5138818-3.33219763-3.3813495-3.33219763zm.0391791 1.52410313c1.0524574 0 1.9056427.85318531 1.9056427 1.90564272s-.8531853 1.90564272-1.9056427 1.90564272c-1.05245743 0-1.90564274-.85318531-1.90564274-1.90564272s.85318531-1.90564272 1.90564274-1.90564272z" transform="translate(21.3333 2.6667)"/></g></g></g><rect height="32" mask="url(#b)" rx="2" width="43.335938"/></g></svg>