<svg height="32" viewBox="0 0 43 32" width="43" xmlns="http://www.w3.org/2000/svg" xmlns:xlink="http://www.w3.org/1999/xlink"><mask id="a" fill="#fff"><path d="m0 0h43.335938v32h-43.335938z" fill="#fff" fill-rule="evenodd"/></mask><mask id="b" fill="#fff"><path d="m0 0h42.666667v32h-42.666667z" fill="#fff" fill-rule="evenodd"/></mask><g fill="none" fill-rule="evenodd"><g fill-rule="evenodd" mask="url(#a)"><g mask="url(#b)" transform="translate(.3346)"><path d="m0 0h42.666667v32h-42.666667z" fill="#67bd23"/><g fill="#fff" stroke="#fff" stroke-width=".666667" transform="translate(5.3333 5.3333)"><path d="m27.5243575.62852574c.3941517-.49206534.603547.49206534.8649805.98262633s-.1159473.81657488-.2614335 1.04451954c-.1454862.22794467.2614335.58870185.2614335 1.42755541s.3354189 1.6803514.8298512 2.35659826c.4944323.67624687.5831182 1.47003536.6939582 2.2578127.1108401.78777733.118984-1.23786419 0-2.2578127-.118984-1.0199485-.5076144-4.60724738-.3501193-5.5350008.1133964-.66798246.238528-.2712408.4350296.19290256l.0682257.15584275c.0591938.12966914.1244059.25598859.1969144.35758228.3625422.50796846.4034689.51928689.2132601.81657488-.1902087.29728798-.3417684-.05379838-.3417684.22794466 0 .28174305.5319772 4.04340312.5319772 5.66888785 0 1.62548474-.8643593 2.25938864-1.6124263 2.53754994s-1.1540205 0-1.1540205-.2781613c0-.2781612-.3758624.2781613-.6471652.2781613s-.1792351-.3194234 0-.6364112c.1792352-.31698778 0-.156309 0-.33890829s0-.36819766.2713028-.36819766c.2713029 0 .5109962 0 .2498388.36819766-.2611574.36819769-.0648062.13682409.2611574.33890829.3259637.2020842.1073203.0433396.3539843.1846051s.8402726-.3567456 1.4129694-.89171105c.5726967-.53496547-.0658415-.49128697-.2392793-.69401589-.1734378-.20272891-.6783606-1.15154321-.8382712-1.27289402-.1599106-.1213508.1599106.91134885 0 1.14595564-.1599106.23460678-.5233501.53440201-.6894032.53440201-.110702 0-.110702-1.00141875 0-3.00425626-.6202719-.86120388-.8810382-1.13021966-.782299-.80704733.1481089.48475851-.1481088 3.60656888-.5695219 4.09785585-.4214132.49128695-1.2979193-.13805154-1.513457-.49128697-.2155377-.35323544-.4751768-.00995736-.5730418.35323543s-.3120914 1.15648609-.8339922 1.48156869-.867258-.7838374-1.1258618-1.13141359c-.2586038-.34757622-.1466595-1.12682891.0911014-1.61459611s.1577021 0 .1577021.58153828c0 .58153827.2162969.68290273.4853912 1.03305783.2690943.35015509.4958816 0 .4958816-.21210356s.4781445-1.19403279.8241919-1.56782765c.3460474-.37379487.6330169-.14900217.6330169 0s.335902.6348352.7248085.74687338c.259271.07469211.435466-.22393307.5285852-.89587555v-3.04236643c0-1.0886471-.3347186-1.0916558-.5285852-1.30154828s-.8791978-.80217611-1.0980483-1.12210096-.1686757-.97309879-.1686757-1.56925074c0-.59615195.8235017.26548175 1.0181965.59615195s0 .48948646 0 .81585852.2485275.24922046.2485275 0-.1490751-1.27368201.1938666-1.41201047c.3429416-.13832845.3347186.13832846.6405396.84465605.3058211.7063276 0 .81657488 0 1.4673132s.6406777 1.19567078.7978967 1.46079435c.157219.26512358-.157219-1.71932744-.4285218-2.11153267s-.1228489-1.30713587.2713028-1.79920121zm-10.4306839-.46828378c.3096656-.25899139.9455135.49214217 1.0651176.84316457.1196042.35102239.3111562-.00643925.3111562-.3510224s.3790352-.11197593.5581796.25276122c.1791444.36473714.4648409.52291674.5786844.88338893s0 .30799654-.2363481.73654073c-.2363482.4285442.6228359 1.8670879 1.0616934 2.5782898.4388575.71120189.7548477 1.62523995 1.1203877 1.98638115.36554.36114121-.2301846-3.96281075-.36554-4.50537973-.1353553-.54256898-.0039478-1.66019585.2758671-2.04395803.279815-.38376218.3704547.38376218.6787104.7780195.3082556.39425731.140834.62029984 0 .77810312s-.1775733-.15780328-.3082557.14990057c-.1306824.30770384.1845828 1.04207029.1845828 1.17959413l.0057773.0695501c.0595597.60395185.5460516 4.80048316-.1259857 6.07562061-.7140398 1.35483357-1.9293374 1.20706547-2.2071784 1.20706547s-.313412-.4369069-.0837108-.4944419c.2297012-.0575351.6549426-.40027845 1.45225-.93051252.7973074-.53023406.6930919-1.495577.6930919-1.86165217s-.089109-.20668299-.1996089 0c-.1104999.20668298-.1307629 1.01744227-.2966135.84032126-.1658505-.177121-1.467558-2.79312637-1.5654087-2.87813274-.0978506-.08500638-.144379.24527663 0 .58346235.1443791.33818572.0978507 2.03463367.0978507 2.4717914s-.1756397.72441489-.295405.92695836c-.1197653.20254348-.532156.32359289-.4648409.13514049.0336576-.0942262.0553306-.56362196.0685891-1.07269329l.0084221-.38400056c.0069559-.38095555.0096807-.73704977.0096807-.92674611 0-.04804333-.0010785-.11417709-.0031559-.19462684-.1481064.1150151-.4942323.31895023-.588218.65779242-.1773316.63932488-.8912908.62995871-1.6204774.74762125s-1.1562408.22361736-1.3622951.54679212c-.2060543.32317475.6033787.62619551.909741.86118608.3063623.2349906.0333151.5968008-1.0683807.5076967s-2.0826192-1.43528225-2.0826192-1.43528225-1.5875247 1.73888845-2.301645 1.94674215c-.4760802.1385692-.942049-.2214152-1.39790648-1.07995309-.39089226.09697891-.66713533.21473901-.82872919.35328029-.2423908.207812-1.13307729.461953-1.47770971.5188191-.22975495.0379107-.09435933-.1659151.40618687-.6114773.76038012-.56431186 1.31051632-.91798243 1.65040863-1.06101168.50983845-.21454389.62807295-.7880965.77619838-1.10876246.1481255-.32066596.2303458.04620366.2303458.32066596s.4084025-.2744623.9783855-.81728215c.569983-.54281986.0719075-1.15103567-.2203553-1.49265008s-.4889711-.68214167 0-1.22859928c.4889712-.54645762.753035.01162408.9380206.50364082s-.0332749.40859927-.1849856.40859927c-.1517108 0 .0940639.25844781.3385495 1.5932528.2444855 1.33480498-1.363826 1.82113512-1.6955674 2.035679s-.1569075.37999899.1355165.6466422c.2924239.2666432 1.3815913-.56372649 2.1498537-1.4079782.7682624-.84425172-.0136564-2.55123661-.1650852-2.67199333s-.5722389-.89693644-.215924-1.44590284c.3563149-.54896641.6061583.05569527.8228477.5489664.2166894.49327114.3131704.73904953.3131704 1.01769316 0 .27864362-.1773316 1.80361536.3750068 1.0052328s1.4560367-.83777066 1.7508777-.88731938c.294841-.04954873.3829831.04954872.3829831-.5019683s.2253505-1.12143187.9420893-1.24770794c.7167388-.12627608.8432316.2934037.9099424 1.24770794s-1.008921.98169193-1.6266812 1.19920456c-.4804801.16917648-.2055778.1901781.1221169.24850589l.1416245.02782372c.0469199.01039688.0928689.02209633.1357986.03563919.386367.12188568.9948215-.12188568 2.0428988-.12188568.1941222 0 .315413.00545655.3830654.01841061-.0297128-.84200459-.1358272-2.71594716-.261729-2.81153698-.1462724-.11105604-1.0078736-1.72630263-1.1418995-1.9628821-.03527-.06225776-.1123113-.18629143-.2053632-.3289329l-.1176987-.17733874c-.244173-.36148991-.5212149-.7307013-.4750109-.51087794.0731563.34805365-.282514.34868085-.4973504.34868085-.2148363 0 .2148364.97487636.3723481 1.28979793.1575117.31492156.6112341.1330658.9230751.01398161s.071263.61758198-.0912843.85972262-.4009499.14425578-.5221252 0c-.1211752-.14425578-.1654477-.34261792-.3096656-.16553873s-.4323717.7537678-.874613.83517824c-.4422414.08141043-.7193976-.66842692-.989786-.76213046-.2703884-.09370353-.4704806.56481364-1.0873546.76213046-.6168739.19731681-.8921367-.64476061-.9509518-.83517824s.0588151-.80569988 0-1.02308707c-.0588151-.21738718-.2818694.12551427-.3362533.32890318-.0543838.20338891-.2579405 1.10905515-.7352292 1.1747856-.4772888.06573046-.6561915-.46776504-.9368121-1.05570141-.2806206-.58793638.0233636-1.32719715.1832937-1.70614863s.4130352.17365051.2650709.64375709c-.1479644.47010658.1479643.94330735.3362935 1.27283772.1883293.32953037.370213-.21044618.370213-.65843355 0-.44798736.5171702-1.32355721.9775395-1.59676511s.560355.62188875.4091679 1.18477897c-.151187.56289023.0914052 1.16366328.4176679 1.37511298.3262628.2114497.6326654-.43916476.7365587-.64820527.1038933-.20904052.0299312-.82148932-.1038933-1.19258208-.1338245-.37109277-.1928411-1.19962269.3685613-1.36503598.5614024-.1654133.4308409 1.26782013.3453173 1.73612874s.027353.83547093.2207581 1.1650013.5939924.09918108.8078619-.21044618-.2138695-.98562238-.4983574-1.26840552-.2285733-.77634696.2844879-1.25686505c.3923409-.36745501.5405343-.04733783.6387031.24249419l.0424635.12900424c.0134417.04054197.0264063.07775317.0396006.10901966.0815648.19328373.1474686.10067253.2094422-.01991958l.0459265-.09166059.0227543-.04220904c.0834288-.14479935-.2084311-.23315078.1012345-.49214217zm-9.61830688.19774002c.3258655-.073752.51861648.4207748.57825293 1.48358037.11620234.37871973-.01983883.49348102-.40812351.34428387-.19004023-.01668259-.0876795.75455113.30708218 2.31370115.02869075.53379313.1727922.65921136.43230434.37625469.19949187-.07883147.30631453.13806712.320468.65069577.13400211.2042248.32819242-.04066071.58257094-.73465651.17838161-.25422278.40757176-.09160486.68757045.48785375.13313855.1798732.33769205.01327138.61366055-.49980546.3721402-.23828717 0 .49338142 0 .90758278 0 .34516779-.0471282.42069595-.3237171.55585295l-.1949473.09088381c-.30053322.13774343-.49745828.09177915-.59077518-.13789282-.07220665-.08645069-.35976184.01919743-.86266558.31694434-.19004023.07066447-.34359331.02788731-.46065925-.12833146-.09813615-.12746653-.11602079.27307147-.11752992.87202645l.00023365.2893294c.00062081.2006786.00186158.41534169.00186158.63438818 0 1.04047082-1.57938257 2.34499966-3.04239488 2.59822646-1.46301232.2532268-2.15288571-.89189614-2.21571269-1.60070708-.06282698-.70881095.1013292-1.39028236.40639631-1.39028236.20337807 0 .30506711.22606156.30506711.67818469.11399535.92859786.63992845 1.41356329 1.5777993 1.45489628s1.71981371-.75221058 2.34582859-2.38063071c.05387912-.27419209.07302228-.58229714.05742948-.92431517-.17012943-.36034398-.20388184.61491534-.69145666 1.70872066-.48757481 1.09380532-1.52555143 1.02650227-2.13467811 1.01417707s-1.10109147-1.02650227-1.1549226-1.55103282c-.03588743-.34968704.00506166-.66152701.12284726-.9355199.32337065-.33813372.47934662-.21194361.46792789.37857033-.01712809.88577092.42143736 1.03143235 1.20817801 1.09380532s1.36765636-1.14430128 1.49064755-1.60212637c.08199413-.30521673-.12625369-.2206335-.62474346.25374969-.20316217.1918996-.64575776.01277338-.86590409-.46312866-.22014633-.47590205.22014633-1.03808049.58221111-1.4256893.24137652-.25840587.4988736-.28193579.77249123-.07058977.35407647.0612027.60296152.21271549.74665516.45453837.17617463.13191697.16876206-.1672741-.02223773-.89757322-.12181574-.30770667-.25704129-.95317356-.40567664-1.93640069-.04497352-.15842577-.08216334-.34057666-.11156946-.54645265-.03537467.05539035-.05887683.16624593-.07122612.33027615.23331935 1.01479535.18315317 1.68012063-.15049852 1.99597583-.50047755.47378279-.50047755.47378279-1.07195974 0-.5714822-.4737828-.60114722 0-.60114722.56788389v2.29070497c0 .52173716-.48419431.26527069-.66346748.37910252l-.01150377.01096323.00645397-.06758088c.01553072-.18639601.033592-.45171536.05418385-.79595804l.0105068-.17869828c.01275915-.2100404-.12089292-.73560491-.40095619-1.57669353-.24574118-.20911335-.51349188-.57694891-.80325211-1.10350668-.06673034-.39081286-.17122775-.48292074-.31349224-.27632363 0 .41136589-.13066575 1.28721127-.79956404 1.02936219-.44593219-.17189939-.54368449-1.0568078-.2932569-2.65472523.17919213.01824431.27694444.23054548.2932569.63690353.01631247.40635805.13261076.76077598.34889487 1.06325377.11284388.29525697.18915264-.02958048.22892627-.97451234.00110349-.38678713.23945741-.75265877.71506175-1.09761492.26421398-.14202613.39301049.08871652.38638955.69222795.1262297.39973481.12131197.74979534-.01475319 1.05018158-.01722404.39370916.11747375.49074209.40409338.29109878.20169884-.01015896.12649358-.5840899-.2256158-1.72179285-.17070517-.40337012-.20889553-.78323522-.11457109-1.13959529.01736798-.21518053.15947835-.35098181.4263311-.40740383.1831794.01812676.27560871.4330751.27728794 1.24484502 0 .76438639.21028688 1.44869633.39567326 1.59062286.18538638.14192652-.03108964-.42973858-.18538638-.59011556-.15429674-.16037697 0-.6380987 0-1.09903419 0-.46093548.27875955-.23918354.58372241 0 .30496285.23918355.19330272.67332932.19330272 1.09903419 0 .42570488.21287769.71433861.56529892.98726434.35242124.27292572.27275403-.27292573.27275403-.53907531 0-.16634349-.10654454-.40084906-.23231067-.645986l-.15455706-.29558541-.07371955-.14471632c-.18783325-.37949363-.02972227-.46093549.18783325-.82531316.21755553-.36437768.60954246.02606966.76004098.36437767.00780363.0175419.01545644.03450392.02293802.05089902l-.01215769-.15367608-.01229163-.24315017c-.06117175-.18171575.16981757-.47405949.69296796-.87703122zm-5.60534721 7.86459693c.04965707.52124384.05181607.92262201.00647701 1.20413452s.05275164.37129971.2942721.26936161c.22129779-.24545819.41963819.2081091.41963819.2081091s-.13241885.66018246-.41963819.72875536c-.28721935.0685729-.72024336-.0685729-.82293993-.72875536-.06846439-.44012162.10559922-1.0006567.52219082-1.68160523zm12.87979109-.6140139c-.1594991.03601516-.3401609.05402274-.5419854.05402274-.3027367 0-.5104024-.10156443-.3759333.23277447s.4158551 1.07159046.7067885 1.16299426c.2909334.09140381.3354073-.09412167.3936182-.360514.0582108-.26639234.0505165-.37995718.4381726-.56376831s.4469143-.47148642.1196445-.47148642c-.21818 0-.4649483-.01800758-.7403051-.05402274zm-5.90563842-.55407549c.20613491-.18807608.45658257.08673023.70735251.40104057.25076994.31431035.01768482.55498752-.10663261.78136456-.12431744.22637704-.46210153.18581817-.33576987 0 .12633165-.18581817-.03456396-.65868443-.26495003-.78136456s-.2061349-.21296448 0-.40104057zm16.93112212-.67701508c.2061349-.18807608.43339.08732387.5372594.49371296s-.0620264.6692836-.1863438.89566064c-.1243175.22637704-.4772473.02204635-.3509156-.16377181.1263316-.18581817.230386-.70188109 0-.82456122-.2303861-.12268013-.2061349-.21296449 0-.40104057zm-22.12889786-.98626607.10245934.01569769c.09374871 0 .20153093.0649625.32334667.19488752.18272361.19488753-.45022407.59014364-.86727146.71291935-.41704739.1227757-.96788099.44079391-1.41342721.64486931-.44554623.2040754.22345679-.53371843.86518442-1.09716674.42781841-.3756322.79187427-.52746868 1.09216758-.45550944zm21.86268706-.01087448s.5617231-.42128931.6723562-.22572396c.110633.19556535-.1106331.50309723-.4042281.82298627-.2935951.31988903-1.0888691.69970129-1.2866697.5972623-.1978005-.10243899-.1458313-.23833184 0-.42329511s1.0185416-.7712295 1.0185416-.7712295zm-19.38185129.35516392c-.28021778.08808662-.35027223.19733075-.21016334.3277324.21016334.19560247.5323574.21956148.5323574 0 0-.14637432-.10739802-.25561845-.32219406-.3277324zm10.83136809-.62314315c-.2843671.12903575-.448002.20396513-.298668.30720209s.5033929.1277918.5033929 0c0-.12779181.0796421-.43623784-.2047249-.30720209zm-2.1864913-.45403953c.2232397-.0077957.1586997.16863282.2217926.2306939s-.0058508-.16754522.0982987-.1711822.1291167.10341126.1351726.27683062c.006056.17341936.1443421.02989483.1391544-.11866079s.1271416-.17218942.2449514-.17630343c.1178097-.00411401-.091949.74466846-.5975672.76232504-.3370787.01177105-.491271-.22999695-.4625767-.725304-.0016437-.04706896.0719477-.073202.2207742-.07839914zm10.2212852-1.65198697c.1410148-.32085611.6212841.05408493.7452373.45151956s-.1239532.24821756-.3592295.35094309c-.2352763.10272554 0 .74923736 0 1.14452292 0 .39528557-.9534593-.48984463-1.3064773-.90497328-.2353454-.27675242-.1736448-.47358334.1851015-.59049273.191129 0 .3892467.08443456.5943532.25330369.3076598.25330369 0-.38396713.1410148-.70482325zm-15.04974563-.089421c.20508753 0-.05317531.28228138 0 .46571619.03545021.12228987.10381273.18343481.20508753.18343481l.2636609-.09533426c.2082163.04209203.248326.12952357.1203293.26229464-.1919951.1991566-.4122698.4206833-.58907773.30991995-.17680791-.11076335-.49823657-.36415176-.42866553-.57221459.06957103-.20806282.22357802-.55381674.42866553-.55381674zm10.27300543-.04743914c.2232397-.0077957.1586998.16863283.2217926.2306939.0630929.06206108-.0058508-.16754522.0982988-.1711822.1041495-.00363698.1291167.10341126.1351726.27683062s.144342.02989483.1391543-.11866079c-.0051876-.14855562.1271417-.17218942.2449514-.17630343.1178098-.00411401-.091949.74466846-.5975671.76232504-.3370788.01177105-.491271-.22999695-.4625767-.725304-.0016437-.04706896.0719477-.073202.2207741-.07839914zm8.4890268-1.22338018c.2061349-.18807608.43339.08732387.5372594.49371296.1038695.40638909-.0620264.66928361-.1863438.89566064-.1243174.22637704-.4772473.02204636-.3509156-.16377181.1263316-.18581817.2303861-.70188109 0-.82456122s-.2061349-.21296448 0-.40104057zm-18.99975005-.99855405c-.08914922-.29545255.64467005-.41821631.89648745-.31895161.2518173.0992647.1134809.80126767 0 .80126767-.113481 0-.2542747-.11469379-.2542747-.19012493s-.0797227-.21487839-.1782984 0c-.0985758.21487839.3620755.31389221.4325731.37987355s0 .53474989-.3339974.77070217c-.33399734.23595228-.76242104.90065782-.96762953.96990059s-.65453976 0-.921504 0 .19477473-.25405742.33097604-.33751671c.13620131-.08345928.99566744-.80929582 1.27608665-1.13966246.28041924-.33036664-.19126999-.64003571-.28041921-.93548827zm10.24989695-.09349607c.2061349-.18807609.4565826.08673022.7073525.40104056.2507699.31431035.1243174.85972561 0 1.08610265s-.4621015.18581817-.3357699 0c.1263317-.18581816-.1411965-.96342252-.3715826-1.08610265s-.2061349-.21296448 0-.40104056zm-17.74129139-.23507259c.05703601-.07648557.23174244-.17118353.48828634 0 .25654389.17118352.16891218.93030342 0 1.27961147-.16891219.34930805-.07645966-.42703892-.22885527-.80645252s-.31646708-.39667339-.25943107-.47315895zm11.70404749-.22165214c.1732226-.26371629.3144191.06468512.3695281.31982969s-.1954193.58492582-.4549309.86649638c-.2224386.24134618-.2316925-.07152629-.2297969-.27701498l.0009416-.09073272c0-.17653563.1410354-.55486208.3142581-.81857837zm-1.8498564-.03729744c.1216587 0 0 .3236347-.2216694.46153487-.2216695.13790016.0949752.18063332.2821362.28232319s-.0604668.36452808-.3449346.44982715c-.2844677.08529906-.2844677-.18682169-.2844677-.55151702 0-.36469534.4472769-.64216819.5689355-.64216819zm-6.73831598.17387363c.22337576 0 .15271788.17406864.21360641.23829382s0-.16764735.104213-.16764735.12542905.10785437.12542905.28137944c0 .17352506.14321078.03491408.14321078-.11373209 0-.14864618.13307351-.16764735.25095507-.16764735s-.11788156.74100585-.6238079.74100585c-.33728422 0-.48294495-.24700195-.43698218-.74100585 0-.04709765.07445859-.07064647.22337577-.07064647z"/><path d="m22.9947176 15.1948674c.2266428 0 .4989108.0404924.4989108.3265801s-.4150258.4019861-.2075129.4019861 1.0877867.2495595 1.5457189.1247798c.4579322-.1247798 1.8582501 1.4347546 1.8582501 2.6256524s-.431463-.5444673-.6629996-.5444673c-.2315365 0 .1303812 1.7219838-.6475203 1.7219838-.7779014 0-.3757017-.2827787-1.108449 0s-2.0776816.3567641-2.2584521.2827787-.590901-.8605902-.5130002-1.226823c.0779007-.3662327.1613903-.5484256-.3355927-.5484256s-4.6597167-.3703453-7.2454868-.2295139-5.39468386.3181964-6.04416258.2295139c-.64947871-.0886825-2.51223413-.4737537-2.74952441-.8580894s-.44693235-2.0567143-.08022197-1.9793755c1.63680677.3948843 7.11598056.4173814 8.20025796.2860877.3373307-.0408469 1.3657295-.0562779 2.630513-.0581539l.5551971-.0000086c2.7405887.0036351 6.2167524.0581625 6.3872123.0581625-.113859-.0965193-.1707885-.1918819-.1707885-.2860877 0-.1413088.121008-.3265801.3476509-.3265801zm-.0160912 2.637278c-.3117753.3842623-.4582508.4829597-.4765557.494787.0229875-.0107222.0853425-.0366731.1831458-.0366731.2934099 0 .6847997.3148471.7724156.3148471s.2253457-.2290569.4131894-.2290569.2741917.2290569.4562966.2290569c.182105 0 .8071397-.3148471.5372854-.543904-.2698543-.229057-.6848454-.229057-.9990081-.229057-.3141628 0-.3255735-.6916721-.886769 0z"/></g></g></g><rect height="32" mask="url(#a)" rx="2" width="43.335938"/></g></svg>