<svg height="32" viewBox="0 0 43 32" width="43" xmlns="http://www.w3.org/2000/svg" xmlns:xlink="http://www.w3.org/1999/xlink"><defs><path id="a" d="m0 0h42.666667v32h-42.666667z"/><mask id="b" fill="#fff"><path d="m0 0h43.335938v32h-43.335938z" fill="#fff" fill-rule="evenodd"/></mask><mask id="c" fill="#fff"><path d="m0 0h42.666667v32h-42.666667z" fill="#fff" fill-rule="evenodd"/></mask><mask id="d" fill="#fff"><use fill="#fff" fill-rule="evenodd" xlink:href="#a"/></mask></defs><g fill="none" fill-rule="evenodd"><g fill-rule="evenodd" mask="url(#b)"><g mask="url(#c)" transform="translate(.3346)"><use fill="#3d58db" xlink:href="#a"/><path d="m0 32h42.6666667v-32z" fill="#579d20" mask="url(#d)"/><path d="m-1.04266014 32.9936885-2.40499819-3.328118 48.34791213-32.27130399 2.4049982 3.32811801z" fill="#feca00" fill-rule="nonzero" mask="url(#d)"/><g fill="#f7fcff" mask="url(#d)"><g transform="translate(2.6667 2.6667)"><path d="m4.0224669 4.80103475-1.81809261 1.26106377.58094756-2.15990226-1.3346684-1.37974723 1.80721576-.074604.76459769-2.13582254.76459768 2.13582254h1.80414102l-1.33159366 1.45435123.66688329 2.03241949zm7.5442389 0-1.81809263 1.26106377.58094753-2.15990226-1.33466837-1.37974723 1.80721577-.074604.7645977-2.13582254.7645977 2.13582254h1.804141l-1.3315937 1.45435123.6668833 2.03241949z"/><path d="m4.0224669 8.31202249.76459768 2.13582251h1.80414102l-1.33159366 1.4543513.66688329 2.0324195-1.90402833-1.1335811-1.81809261 1.2610638.58094756-2.1599022-1.3346684-1.3797473 1.80721576-.074604zm7.5442389 0 .7645977 2.13582251h1.804141l-1.3315937 1.4543513.6668833 2.0324195-1.9040283-1.1335811-1.81809263 1.2610638.58094753-2.1599022-1.33466837-1.3797473 1.80721577-.074604zm-3.55129816-4.12270761.76459769 2.13582254h1.80414097l-1.33159362 1.45435123.66688329 2.0324195-1.90402833-1.13358101-1.81809261 1.26106377.58094756-2.15990226-1.3346684-1.37974722 1.80721576-.07460401z"/></g></g></g></g><rect height="32" mask="url(#b)" rx="2" width="43.335938"/></g></svg>