<svg height="32" viewBox="0 0 43 32" width="43" xmlns="http://www.w3.org/2000/svg" xmlns:xlink="http://www.w3.org/1999/xlink"><defs><path id="a" d="m0 0h42.666667v32h-42.666667z"/><mask id="b" fill="#fff"><path d="m0 0h43.335938v32h-43.335938z" fill="#fff" fill-rule="evenodd"/></mask><mask id="c" fill="#fff"><path d="m0 0h42.666667v32h-42.666667z" fill="#fff" fill-rule="evenodd"/></mask><mask id="d" fill="#fff"><use fill="#fff" fill-rule="evenodd" xlink:href="#a"/></mask></defs><g fill="none" fill-rule="evenodd"><g fill-rule="evenodd" mask="url(#b)"><g mask="url(#c)" transform="translate(.3346)"><use fill="#f7fcff" xlink:href="#a"/><path d="m0 0h42.666667v16h-42.666667z" fill="#e31d1c" mask="url(#d)"/><path d="m11.8245417 2.9269044c-2.51172449.97757881-3.76758674 2.83484576-3.76758674 5.57180085 0 2.73695505 1.25586225 4.61053715 3.76758674 5.62074615-1.90453362 1.0600081-6.68993105 0-6.68993105-5.62074615 0-5.62074619 4.85881544-6.03535874 6.68993105-5.57180085zm2.046129 7.04728794.5156266 1.18893176h1.2166699l-.8979952 1.0044522.2703498 1.2732826-1.1046511-.6524969-1.0808323.6524969.246531-1.2732826-.9000687-.9529267 1.2187434-.0515255zm3.9283988-.07286164.5156265 1.1889317h1.21667l-.8979952 1.0044523.2703497 1.2732825-1.104651-.6524969-1.0808323.6524969.246531-1.2732825-.9000688-.9529268 1.2187435-.0515255zm-5.3060163-3.08526378.5156266 1.18893174h1.2166699l-.8979952 1.00445226.2703498 1.27328258-1.1046511-.65249695-1.0808323.65249695.246531-1.27328258-.9000687-.95292677 1.2187434-.05152549zm7.1445507-.05847323.5156266 1.18893174h1.2166699l-.8979952 1.00445226.2703498 1.27328251-1.1046511-.65249688-1.0808323.65249688.246531-1.27328251-.9000687-.95292677 1.2187435-.05152549zm-3.507229-2.5310767.5156265 1.18893174h1.21667l-.8979952 1.00445226.2703497 1.27328254-1.104651-.65249691-1.0808323.65249691.246531-1.27328254-.9000688-.95292677 1.2187435-.05152549z" fill="#f1f9ff" mask="url(#d)"/></g></g><rect height="32" mask="url(#b)" rx="2" width="43.335938"/></g></svg>