<svg height="32" viewBox="0 0 43 32" width="43" xmlns="http://www.w3.org/2000/svg" xmlns:xlink="http://www.w3.org/1999/xlink"><defs><path id="a" d="m0 0h42.666667v32h-42.666667z"/><path id="b" d="m0 0h24v18.666667h-24z"/><path id="c" d="m0 0h16v8h-16z"/><filter id="d" height="125%" width="106.2%" x="-3.1%" y="-6.2%"><feOffset dx="0" dy="1" in="SourceAlpha" result="shadowOffsetOuter1"/><feColorMatrix in="shadowOffsetOuter1" type="matrix" values="0 0 0 0 0   0 0 0 0 0   0 0 0 0 0  0 0 0 0.5 0"/></filter><mask id="e" fill="#fff"><path d="m0 0h43.335938v32h-43.335938z" fill="#fff" fill-rule="evenodd"/></mask><mask id="f" fill="#fff"><path d="m0 0h42.666667v32h-42.666667z" fill="#fff" fill-rule="evenodd"/></mask><mask id="g" fill="#fff"><use fill="#fff" fill-rule="evenodd" xlink:href="#a"/></mask><mask id="h" fill="#fff"><use fill="#fff" fill-rule="evenodd" xlink:href="#b"/></mask><mask id="i" fill="#fff"><path d="m.05059504.04358788c0 7.84904105-.48103949 13.24173012 5.21637335 13.24173012 5.69741281 0 5.69741281-6.62086507 5.31974801-13.24173012z" fill="#fff" fill-rule="evenodd"/></mask></defs><g fill="none" fill-rule="evenodd"><g fill-rule="evenodd" mask="url(#e)"><g mask="url(#f)" transform="translate(.3346)"><use fill="#2e42a5" xlink:href="#a"/><g mask="url(#g)"><use fill="#2b409a" xlink:href="#b"/><g mask="url(#h)"><g fill-rule="nonzero"><path d="m1.32764499 3.28505196 5.28126726-2.31626725 21.51092825 17.13103699 2.7857478 3.4420421-5.6475555.7741648-8.7737935-7.382254-7.06200197-4.97391428z" fill="#f7fcff" transform="matrix(1 0 0 -1 -4 20.6181)"/><path d="m2.05065842 2.76731119 2.69056181-1.34416892 25.16402527 21.54362063h-3.7778619z" fill="#f50100" transform="matrix(1 0 0 -1 -4 21.7233)"/><path d="m1.32764499 3.28505196 5.28126726-2.31626725 21.51092825 17.13103699 2.7857478 3.4420421-5.6475555.7741648-8.7737935-7.382254-7.06200197-4.97391428z" fill="#f7fcff" transform="matrix(-1 0 0 -1 28 20.6181)"/><path d="m1.50784817 3.09890547 2.6905618-1.34416891 10.71510273 9.22394324 3.176798 1.030569 13.0833277 10.4993758h-3.7778619l-13.075977-10.2501652-3.4732688-1.2357627z" fill="#f50100" transform="matrix(-1 0 0 -1 28 21.5967)"/></g><path d="m14.3127673-1-.000682 7.99909357 10.6879147.00099999v4.66663544l-10.6879147-.0006666.000682 8.0006043h-4.66675002l-.00001536-8.0006041-10.64600192.0006667v-4.66663537l10.64600192-.001.00001536-7.99909393z" fill="#f50100" stroke="#f7fcff" stroke-width="2"/></g></g><g mask="url(#g)"><g transform="translate(29.3333 13.3333)"><path d="m10.9012866-.28974545c.2319968 3.94314781.3457968 7.91832387-.7205821 10.57271705-.4273554 1.0637579-1.04171684 1.9209807-1.89627119 2.5012602-.78335124.5319294-1.77145615.8344195-3.01746492.8344195-1.1960646 0-2.13329394-.230236-2.87052988-.6529884-.79837494-.4578114-1.36884194-1.1420896-1.77075206-2.0302207-.93072145-2.0566853-.93192812-5.25560885-.91363553-9.1902099.00306012-.65821131.00621851-1.33720834.00490504-2.03497775z" stroke="#f7fcff" stroke-width=".666667"/><g fill-rule="evenodd"><path d="m2.666667 10.666667h8v2.666667h-8z" fill="#2e42a5" mask="url(#i)"/><g fill="none" mask="url(#i)"><g transform="translate(-2.6667 -2.6667)"><g fill="none"><use fill="#000" filter="url(#d)" xlink:href="#c"/><use fill="#fdff00" fill-rule="evenodd" xlink:href="#c"/></g><g fill-rule="evenodd"><g fill="none" transform="translate(5.3333 8)"><path d="m1.10171343.05876227h.26666666v5.27359096h-.26666666z" fill="#fdff00" fill-rule="nonzero"/><g transform="translate(0 3.5556)"><path d="m.13374633.19455613h2.37705079c.0152888.45728024-.09735296.64361898-.33792529.55901623-.36085848-.12690413.03622159.12690413-.5128177 0s-1.03285115.39825918-1.1559474.13567753c-.12309625-.26258166-.60069257.07457695-.48552648-.31005841.07677738-.25642357.11516608-.38463535.11516608-.38463535z" fill="#f7fcff"/><path d="m.177778.129667h2.311111v1h-2.311111z" fill="#212123"/></g><g transform="translate(.3556 2.5983)"><path d="m.10699706.1556449h1.90164064c.01223104.36582419-.07788237.51489519-.27034023.44721299-.28868679-.10152331.02897727.1015233-.41025417 0-.43923143-.10152331-.82628091.31860735-.92475791.10854202-.09847701-.21006533-.48055406.05966156-.38842119-.24804672.06142191-.20513886.09213286-.30770829.09213286-.30770829z" fill="#f7fcff"/><path d="m.142222.103733h1.848889v1h-1.848889z" fill="#212123"/></g><g transform="translate(0 1.5043)"><path d="m.11591349.1556449h2.06011068c.01325029.36582419-.08437257.51489519-.29286858.44721299-.31274402-.10152331.03139204.1015233-.44444201 0-.47583405-.10152331-.89513766.31860735-1.00182108.10854202s-.52060022.05966156-.42078962-.24804672c.0665404-.20513886.09981061-.30770829.09981061-.30770829z" fill="#f7fcff"/><path d="m.154074.103733h2.002963v1h-2.002963z" fill="#212123"/></g><g transform="translate(.1778 .547)"><path d="m.10699706.19455613h1.90164064c.01223104.45728024-.07788237.64361898-.27034023.55901623-.28868679-.12690413.02897727.12690413-.41025417 0-.43923143-.12690413-.82628091.39825918-.92475791.13567753-.09847701-.26258166-.48055406.07457695-.38842119-.31005841.06142191-.25642357.09213286-.38463535.09213286-.38463535z" fill="#f7fcff"/><path d="m.142222.129667h1.848889v1h-1.848889z" fill="#212123"/></g></g><g fill="none" transform="translate(8 8.6667)"><path d="m.98993105.05876227h.26666667v5.27359096h-.26666667z" fill="#fdff00" fill-rule="nonzero"/><g transform="translate(0 3.1453)"><path d="m.13374633.1556449h2.37705079c.0152888.36582419-.09735296.51489519-.33792529.44721299-.36085848-.10152331.03622159.1015233-.5128177 0-.54903929-.10152331-1.03285115.31860735-1.1559474.10854202s-.60069257.05966156-.48552648-.24804672c.07677738-.20513886.11516608-.30770829.11516608-.30770829z" fill="#f7fcff"/><path d="m.177778.103733h2.311111v1h-2.311111z" fill="#212123"/></g><g transform="translate(.381 2.188)"><path d="m.1050864.119116h1.86768277c.01201262.27436814-.07649162.38617139-.26551273.33540973-.28353167-.07614247.02845982.07614248-.40292819 0-.43138802-.07614247-.8115259.23895552-.90824439.08140652-.09671848-.15754899-.47197273.04474618-.38148509-.18603504.06032509-.15385414.09048763-.23078121.09048763-.23078121z" fill="#f7fcff"/><path d="m.139683.079388h1.815873v1h-1.815873z" fill="#212123"/></g><g transform="translate(0 1.094)"><path d="m.11463971.119116h2.03747211c.01310468.27436814-.0834454.38617139-.28965025.33540973-.30930727-.07614247.03104708.07614248-.43955803 0-.47060511-.07614247-.88530098.23895552-.99081206.08140652-.10551107-.15754899-.51487934.04474618-.41616555-.18603504.06580919-.15385414.09871378-.23078121.09871378-.23078121z" fill="#f7fcff"/><path d="m.152381.079388h1.980952v1h-1.980952z" fill="#212123"/></g><g transform="translate(.1905 .1368)"><path d="m.1050864.1556449h1.86768277c.01201262.36582419-.07649162.51489519-.26551273.44721299-.28353167-.10152331.02845982.1015233-.40292819 0-.43138802-.10152331-.8115259.31860735-.90824439.10854202-.09671848-.21006533-.47197273.05966156-.38148509-.24804672.06032509-.20513886.09048763-.30770829.09048763-.30770829z" fill="#f7fcff"/><path d="m.139683.103733h1.815873v1h-1.815873z" fill="#212123"/></g></g><g fill="none" transform="translate(10.6667 8)"><path d="m1.98718498.07812711h.26666666v7.0114789h-.26666666z" fill="#fdff00" fill-rule="nonzero"/><g transform="translate(.7273 4.1818)"><path d="m.1702226.1556449h3.02533737c.01945847.36582419-.12390377.51489519-.43008673.44721299-.45927444-.10152331.04610021.1015233-.65267707 0-.69877729-.10152331-1.31453783.31860735-1.47120578.10854202-.15666796-.21006533-.76451782.05966156-.6179428-.24804672.09771667-.20513886.14657501-.30770829.14657501-.30770829z" fill="#f7fcff"/><path d="m.226263.103733h2.941414v1h-2.941414z" fill="#212123"/></g><g transform="translate(1.2121 2.9091)"><path d="m.13374633.09821023h2.37705079c.0152888.27436815-.09735296.38617139-.33792529.33540974-.36085848-.07614247.03622159.07614248-.5128177 0-.54903929-.07614247-1.03285115.23895551-1.1559474.08140652s-.60069257.04474617-.48552648-.18603504c.07677738-.15385415.11516608-.23078122.11516608-.23078122z" fill="#f7fcff"/><path d="m.177778.065455h2.311111v1h-2.311111z" fill="#212123"/></g><g transform="translate(.9697 1.0909)"><path d="m.13374633.1556449h2.37705079c.0152888.36582419-.09735296.51489519-.33792529.44721299-.36085848-.10152331.03622159.1015233-.5128177 0-.54903929-.10152331-1.03285115.31860735-1.1559474.10854202s-.60069257.05966156-.48552648-.24804672c.07677738-.20513886.11516608-.30770829.11516608-.30770829z" fill="#f7fcff"/><path d="m.177778.103733h2.311111v1h-2.311111z" fill="#212123"/></g></g><path d="m5.58006729 12.9157178c.82282827.4470834 1.86147929.6321221 3.11595305.5551161 1.88171066-.115509 1.74658596.2476697 2.23467146-.269072.4880854-.5167417.5309512-.4015531 1.1397428-.672783s.6960819-.5271601 1.0099764-.5271601c.209263 0 1.4279828-.0447243 3.6561594-.134173-.2039372.1830628-.3059058.4035072-.3059058.6613331 0 .3867389.2039047.42639 0 .7770824-.2039048.3506924-.434211.8196173-.7301798.9557129-.2959687.1360956-4.290573.2221265-5.30922.2221265-1.01864698 0-3.11069224.1134264-3.35142261 0-.16048691-.0756175-.64707854-.5983452-1.4597749-1.5681829z" fill="#272727"/><path d="m2.8235436 10.2485183 1.19094101-1.09703776c.03466692 0 .12577776.18283963.27333252.54851888.22133215.54851888.23179833 1.29875858.46205426 1.11138258.23025594-.187376.58456365-.0143448.73373424-.5628637.14917059-.54851888.13980612-1.2588243.32951938-.90367159.18971327.35515271.07700905-.16402697.37975705.65125417.302748.81528112.42261329-.35027551.58908062.81528112.16646733 1.1655567.30737515 1.5677373.30737515 1.8388703s1.51627392 1.0789622.93468488 1.6353103c-.58158905.5563482-.41699461.2941478-.93468488.6439935-.51769026.3498456-1.04816028.1463908-.30737515.4212019.74078514.2748112.63469113.7729393.63469113 1.1402299 0 .3672907-.0456105.5318621-.63469113.4495764-.58908062-.0822857-1.30551812.2109162-1.44862935.2109162-.14311122 0-1.87014093-.3519474-1.87014093-1.0763349 0-.482925-.21321627-2.4251341-.6396488-5.8266273z" fill="#ce6201"/></g></g></g></g></g></g></g></g><rect height="32" mask="url(#e)" rx="2" width="43.335938"/></g></svg>