<svg height="32" viewBox="0 0 43 32" width="43" xmlns="http://www.w3.org/2000/svg" xmlns:xlink="http://www.w3.org/1999/xlink"><defs><path id="a" d="m0 0h42.666667v32h-42.666667z"/><mask id="b" fill="#fff"><path d="m0 0h43.335938v32h-43.335938z" fill="#fff" fill-rule="evenodd"/></mask><mask id="c" fill="#fff"><rect fill="#fff" fill-rule="evenodd" height="32" rx="2.666667" width="42.666667"/></mask><mask id="d" fill="#fff"><use fill="#fff" fill-rule="evenodd" xlink:href="#a"/></mask></defs><g fill="none" fill-rule="evenodd"><g fill-rule="evenodd" mask="url(#b)"><g mask="url(#c)" transform="translate(.3346)"><use fill="#2e42a5" xlink:href="#a"/><path d="m0 0h42.666667v10.666667h-42.666667z" fill="#f7fcff" mask="url(#d)"/><path d="m0 21.333333h42.666667v10.666667h-42.666667z" fill="#c51918" mask="url(#d)"/><g mask="url(#d)"><g transform="translate(2.6667 5.3333)"><path d="m15.6536365 1.38166722c-1.8708781-.88349694-3.969784-1.32524541-6.29671769-1.32524541-2.32693367 0-4.42583957.44174847-6.2967177 1.32524541.20820088 3.55085873.47683534 6.26682312.80590336 8.14789316.21075233 1.20473542 1.22373068 2.96185772 2.14080319 3.79352242.69685801.631959 1.81352839 1.3222901 3.35001115 2.0709934.66694319-.45958 1.91395879-.6662439 3.50787569-2.0709934 1.0626112-.9364997 1.7259723-2.2010072 1.9900833-3.79352242z" fill="#2e42a5" fill-rule="evenodd"/><path d="m15.2826306 1.20757156 1.1686959.58363101-.802273 8.03016102c-.2809986 1.69955721-.9840983 3.03981501-2.1084673 4.03074301-.6099378.5375499-1.2053084.9391917-1.8436208 1.272919-.3603017.1883756-1.86742504.9647234-1.85429895.958397-.15100076.0727779-.26551184.1365154-.3585219.2006072l-.14577473.100451-.15737478-.0766862c-1.56101316-.7606565-3.01742495-1.7843124-3.7411702-2.4406546-.98797817-.8959669-2.02969083-2.7293775-2.25177807-3.99890736-.33206505-1.89820208-.62985498-4.51274768-.83884295-8.07703007l1.04986748-.54924818c.2074138 3.53743507.45779158 6.35731901.78386258 8.22125701.19291747 1.102785 1.15351809 2.7934388 2.02982832 3.5881374.64764017.5873249 1.6910217 1.2385797 3.12560762 1.9468498.08557787-.0501445.18041205-.0997797.28889723-.1520663.00306-.0014748.97894115-.4348507 1.31809835-.6121714.5948609-.3110096 1.1477915-.684021 1.7170721-1.185739.9980967-.8796418 1.6210376-2.0642822 1.8729636-3.56919809z" fill="#c51918" fill-rule="nonzero"/><g fill-rule="evenodd"><path d="m10.8668946 12.0021476c.117589-.0100238.2283752.0146428.3570708.0849171.3512296.1917892.7559679.3114251 1.1237986.3290502l-.0927594.1150875-.1678936.1959317c-.6709102.7531101-1.5974216 1.3085169-2.77953406 1.6662203-.99247225-.3837033-1.89012636-.9669609-2.69296232-1.7497726-.02636572-.0257081-.0525457-.0517504-.07853997-.0781268.31968126.0084759.55225397-.0758302.70064687-.2663116.08840983-.1134854.3557612-.225649.66189174-.2728446.14287674-.022027.27954525-.0274994.38304147-.0161674.0454589.0049773.08133436.0129153.1041939.0219076.25797378.3890106.91938783.5940744 1.5423299.3343412l-.07658047.015424c.21475974-.0730373.59707424-.2488975.63028244-.2632676.1671412-.0723266.2810214-.1075243.3850141-.116389zm.3272953-.9410067c.1454624-.0108122.2827036.0158323.4384019.0899662.4302563.2048615.9312635.3257191 1.3705825.3258991-.0960273.1552076-.1921344.3019507-.2880808.4412896-.3367213.0848384-.8700841-.0180495-1.2990619-.2522931-.197423-.1078029-.3859554-.1497798-.582546-.1330216-.1554384.0132503-.3061726.0598385-.5097915.1479501-.0399846.0173024-.41889547.191597-.54867652.2457087l.07658048-.015424c-.52859597.20389-.99128369.053577-1.1233853-.1646204-.23573825-.3893779-1.47122772-.1989049-1.8188251.2472812-.09379514.1203981-.37915263.1411915-.8505505.0212182-.11084373-.1424457-.21623041-.2917678-.31762941-.448265.61520638.1153502 1.03078296.0600405 1.26044886-.1970205.10688005-.1196289.4240014-.2356388.7848063-.2841416.16821509-.022613.32959839-.0282477.45333456-.0164342.05678148.0054211.10253833.0142834.13334155.0249376.01092701.0037794.00950683.0028799-.00393207-.0164754l.00551101.0077815.05563123.0688387c.29109665.3207005.91345734.4894493 1.52987055.3195989l.14199016-.0452919-.0678141.0120047c.2253132-.0692655.6633724-.2449687.7022343-.2596322.1962147-.0740366.3314388-.11048.4575598-.1198546zm-1.88661296-5.13566359 1.54556146 2.20343719.9302137-1.00943136 2.3403945 2.24611838c-.2761744.59827469-.5510605 1.13714928-.8246583 1.61662388-.4019109.0760861-1.0065028-.0300879-1.4948696-.262618-.2183052-.1039434-.4243324-.1439423-.6391814-.1279725-.171403.0127404-.3396472.0580828-.5686323.1444844-.0450779.0170091-.4800169.1914607-.62982331.2459248l.06781411-.0120046c-.60821312.2084737-1.16445354.0509045-1.32270236-.1770151-.25650551-.369435-1.63122953-.1846316-2.0176066.2478333-.14270521.1597274-.61529916.1597274-1.3922391-.0631268l.11112367.0315193c-.26219882-.4900992-.4922833-1.03798208-.69025345-1.64364868l2.29872258-2.24611838.99219271 1.00943136z" fill="#fff"/><path d="m6.86240819 2.5149274h-.93749502l.72711995-.68117813-.72711995-.71980525h.93749502l.39583832-.69870053.39743334.69870053h.93589999l-.69076557.67657558.61335833.7244078h-.85849275l-.39743334.73732765z" fill="#feca00"/><path d="m11.2807387 2.5149274h-.937495l.7271199-.68117813-.7271199-.71980525h.937495l.3958383-.69870053.3974333.69870053h.9359l-.6907655.67657558.6133583.7244078h-.8584928l-.3974333.73732765z" fill="#feca00"/><path d="m8.79987491 4.75665316h-.93749502l.72711995-.68117813-.72711995-.71980525h.93749502l.39583832-.69870053.39743334.69870053h.93590003l-.69076561.67657559.61335831.72440779h-.85849273l-.39743334.73732765z" fill="#feca00"/></g></g></g></g></g><rect height="32" mask="url(#b)" rx="2" width="43.335938"/></g></svg>