<svg height="32" viewBox="0 0 43 32" width="43" xmlns="http://www.w3.org/2000/svg" xmlns:xlink="http://www.w3.org/1999/xlink"><defs><path id="a" d="m0 0h42.666667v32h-42.666667z"/><mask id="b" fill="#fff"><path d="m0 0h43.335938v32h-43.335938z" fill="#fff" fill-rule="evenodd"/></mask><mask id="c" fill="#fff"><path d="m0 0h42.666667v32h-42.666667z" fill="#fff" fill-rule="evenodd"/></mask><mask id="d" fill="#fff"><use fill="#fff" fill-rule="evenodd" xlink:href="#a"/></mask><mask id="e" fill="#fff"><path d="m13.1646162 9.38764327c.2395975-1.72752901.1197987-4.84325313-.3593963-9.34717237h-12.34544833c-.3256402 4.82918216-.39515707 7.94490629-.2085506 9.34717237.2799097 2.10339913 1.55071926 6.72127513 6.38623252 8.80999933 4.61493401-2.0635414 6.16776641-6.2187058 6.52716271-8.80999933z" fill="#fff" fill-rule="evenodd"/></mask></defs><g fill="none" fill-rule="evenodd"><g fill-rule="evenodd" mask="url(#b)"><g mask="url(#c)" transform="translate(.3346)"><use fill="#3d58db" xlink:href="#a"/><path d="m0 0h42.666667v10.666667h-42.666667z" fill="#f7fcff" mask="url(#d)"/><path d="m0 21.333333h42.666667v10.666667h-42.666667z" fill="#e31d1c" mask="url(#d)"/><g mask="url(#d)"><g transform="translate(8 8)"><path d="m13.4034857-.62619576c.541905 4.90489879.6756362 8.27289802.4214762 10.10542487-.3806649 2.74464279-2.0292781 7.14221819-6.91537803 9.32700989-5.66075431-2.2100363-7.02218788-7.0987091-7.31920385-9.33065436-.19713901-1.48141347-.12035688-4.84818939.24694824-10.10178041z" stroke="#fff" stroke-width="1.333333"/><g fill-rule="evenodd"><path d="m5.67613759.78635326c.18354315.27966183.31640002.63330827.39857061 1.0609393.0821706.42763104.13033934 1.01607552.14450623 1.76533343l-2.61184036-.32157911v1.9803838l2.67019552-.34005858-.04340063 1.87965253c-.53255288.05520845-1.01722038.05520845-1.4540025 0s-1.08540756-.19845458-1.94587634-.42973839v2.26717801c.87422219-.2796856 1.52284764-.45161719 1.94587634-.51579477.42302871-.06417758.90769621-.06417758 1.4540025 0v2.78442212h1.08404054v-2.78442212c.79000861-.06867317 1.42064528-.06583482 1.89191.00851505.47126473.07434987.930412.24344311 1.3774418.50727972v-2.26717801c-.4528847.22563442-.8929054.36652532-1.32006193.42267271-.42715654.05614739-1.07691983.05850261-1.94928987.00706568l.04340063-1.87965253c.59131393-.06121936 1.05284526-.06931167 1.38459399-.02427696s.70523258.16647989 1.12045156.36433554v-1.9803838c-.40470036.22021533-.76626394.35029634-1.08469074.39024305-.3184268.0399467-.81133012.01705872-1.47870997-.06866394.01183022-.77321592.05197987-1.34807255.12044895-1.72456988.06846908-.37649732.19964628-.74373161.39353158-1.10170285z" fill="#f7fcff" mask="url(#e)"/><path d="m1.1964445 13.6603879c.39065988-.8384609.90382767-1.3374068 1.53950336-1.4968375.6356757-.1594308 1.28679357.0900421 1.95335361.7484187.40702316-1.3301599 1.10658069-1.9952398 2.09867257-1.9952398s1.66222801.6650799 2.01040837 1.9952398c.42327809-.4989458.93926339-.7484187 1.54795589-.7484187.6086926 0 1.1950075.4989458 1.7589448 1.4968375-1.8181398 3.3008208-3.63627953 4.9512312-5.4544193 4.9512312s-3.63627953-1.6504104-5.4544193-4.9512312z" fill="#2e42a5" mask="url(#e)"/></g></g></g></g></g><rect height="32" mask="url(#b)" rx="2" width="43.335938"/></g></svg>