<svg height="32" viewBox="0 0 43 32" width="43" xmlns="http://www.w3.org/2000/svg" xmlns:xlink="http://www.w3.org/1999/xlink"><defs><path id="a" d="m0 0h42.666667v32h-42.666667z"/><mask id="b" fill="#fff"><path d="m0 0h43.335938v32h-43.335938z" fill="#fff" fill-rule="evenodd"/></mask><mask id="c" fill="#fff"><path d="m0 0h42.666667v32h-42.666667z" fill="#fff" fill-rule="evenodd"/></mask><mask id="d" fill="#fff"><use fill="#fff" fill-rule="evenodd" xlink:href="#a"/></mask></defs><g fill="none" fill-rule="evenodd"><g fill-rule="evenodd" mask="url(#b)"><g mask="url(#c)" transform="translate(.3346)"><use fill="#f7fcff" xlink:href="#a"/><path d="m0 16h42.666667v16h-42.666667z" fill="#56c6f5" mask="url(#d)"/><g mask="url(#d)"><g transform="translate(9.3333 2.6667)"><g fill-rule="evenodd"><path d="m7.65490702 19.4401639c-1.25408303 1.1687393-2.1713101 1.5073365-2.75168121 1.0157917-.87055667-.7373174-2.13432429-.8088254-2.56964546-.7730714-.29021412.023836.11135032-.1780433 1.20469333-.6056379l-1.47334065-.6557808c2.20712759-.2881637 3.60986041-.2881637 4.20819847 0 .59833805.2881637 1.05892989.6277299 1.38177552 1.0186984zm-2.04515713-5.8401639c.08457936.5857262.36658872 1.074558.84602807 1.4664955.47943934.3919376.55951781 1.4285614.2402354 3.1098717-.29827258-.2208222-.6603604-.5726454-1.08626347-1.0554698-.42590308-.4828244-.42590308-1.6564569 0-3.5208974zm-.70652408 3.1103603c.51188166.4678399.81214235.7425347.90078207.8240841l.01223807.0114076-.02253576-.0199219c-.00943119-.0085488-.0206113-.0186938-.03354035-.0304352-.9975114.3712022-1.65281394.3712022-1.96590762 0-.46964051-.5568032-1.19259717-1.1846784-1.84241424-1.1846784s1.76474305-.6849944 2.95137783.3995438zm-3.564053-3.6631104c.41036935.3497834.88458297.5230933 1.42264086.5199297.53805788-.0031636 1.22096125.6549392 2.0487101 1.9743082-.32068797.0175754-.76113233-.0178917-1.32133308-.1064012-.56020076-.0885095-1.27687338-.8844551-2.15001788-2.3878367zm4.44043705-2.6395066c.0185498 1.7256252-.14899941 2.7834892-.50264761 3.1735921s-.64593351.6688836-.87685595.8363422c.00321826-.1875611.00900053-.3659857.01734681-.5352737-.27388803-.0530717-.64069095-.1721141-1.09876295-.3553863-.48886675-.195593-1.10319605-1.0729461-1.84298788-2.6320595.35348788.4050263.76571938.6609727 1.23669449.767839.44327069.1005801.98932796.7654032 1.63817181 1.9944694l.07067737.1365855.01565226-.2288998c.0771516-1.0411314.26641042-1.6827809.56777645-1.9249486.3764625-.3025127.63477424-.7132662.7749352-1.2322603zm1.01695764-4.07211515c-.27716478.33163736-.45321379.68570352-.52814701 1.06219849.26787617-.20665501.57264473-.4277555.91524378-.66219849-.34474206.41249593-.53305003.859691-.56492393 1.3415852-.03187389.4818942-.67473095 1.17804145-1.92857116 2.08844175.00328242-.19824564.03361767-.45162619.09100576-.76014167-.13193382.10361662-.27407294.21106828-.42548032.32179649-.02194756.28736158-.09778609.64303638-.22814644 1.06682438.08402418.4747012.11215263 1.1164841.08365009 1.9258092-.22184186-.1793146-.49913635-.4730103-.83188348-.8810871s-.44470239-1.4732599-.33586577-3.19554934c.06510199.30333978.17138765.57273818.31885697.80819519.13636777-.4913755.35978227-1.09258993.6705161-1.80329447-.07376831.53250185.00351475 1.0115328.23184918 1.43709285.03588153.06687448.06177153.14623122.07767002.23807022.02948424-.21516686.07735757-.46745015.14287859-.75570025.11670931-.51344547.88715852-1.25745962 2.31134762-2.23204245z" fill="#006923"/><path d="m16.2846126 18.9285258c-.4989935-.83854-.4989935-1.4603673 0-1.865482.7484902-.607672 1.0447155-.2034914 1.0447155-.902131s.0757252-.4906213.4435034-.8374622c.3677783-.3468408.1072252-1.1892609.5997518-.7680508.4925267.42121.5845234-.3865045.5845234 1.2914377s0-1.5218746 0-2.4643159-.5845234-.7193336-.5845234-1.3513643c0-.6320306-.5845233-1.5759808 0-1.5759808.5845234 0 .9281029.7023041.9281029.7023041s.5743015.9788715.5743015 0c0-.9788714-1.0224986-.6878614-1.5024044-1.76804749-.4799057-1.08018605-.4040762.1211464-1.0432552-1.27074372s-1.4001858-1.83357865-.7000929-1.83357865h1.1435963c.5997518 0 1.5278547-.49816603 1.5278547 0v1.05173175c0 .7818469.5743015.7818469.5743015.7818469s.3122882-1.5636938.7044737-.7818469c.3921856.7818469.1251656 2.05259062.4122121 2.05259062.2870464 0 .0494404-1.31320963.6763114-.30739279.626871 1.00581678 0 1.68742698 0 2.07544028 0 .3880134-.6763114 1.3386341-.6763114 1.3386341s.1320497.4649574.6763114 0 1.0605698-.9299147 1.0605698-.4649574c0 .4649574 1.0605699.6093966 0 1.3513643-1.0605698.7419678-.3842584 1.4847978-1.0605698 1.4847978s-1.4731527.9795181-1.7929972.9795181c-.3198444 0-1.5159176.7499436-.917881.7499436s1.2101427-1.4998872 1.6223547-.7499436c.4122121.7499436.4067882-.1217931.7476559.3140753.3408676.4358683.6817352 2.8008097.3408676 1.8514704-.3408676-.9493394-.8751161-.9493394-1.7929972-.9493394-.917881 0-2.701908.068549-2.1021562.5089442s1.2733977-.4403952 1.5278547 0c.2544571.4403952.1804471.8807903.5743015.4403952.3938544-.4403952.781242 0 1.1166858 0s-.3354438.4929925 0 .9161426 1.0830996.9868473.3354438.9868473c-.7476559 0-1.1322851-.5977561-1.4521296 0-.3198444.5977561-.3333577 1.6359205-.917881.8179602-.5845234-.8179602-1.6277786-.4027859-1.6277786-.8179602s.2282186-.4822144-.4082485-.4822144c-.4243113 0-.636467-.168211-.636467-.5046329z" fill="#093"/><path d="m7.5483871 18.8c.17815637 0 .32258064-.1492384.32258064-.3333333s-.14442427-.3333334-.32258064-.3333334-.32258065.1492385-.32258065.3333334.14442428.3333333.32258065.3333333zm-2.58064516-3.3333333c.17815637 0 .32258064-.1492385.32258064-.3333334s-.14442427-.3333333-.32258064-.3333333c-.17815638 0-.32258065.1492384-.32258065.3333333s.14442427.3333334.32258065.3333334zm-.51612904-3.0666667c.17815637 0 .32258065-.1492384.32258065-.3333333s-.14442428-.3333334-.32258065-.3333334-.32258064.1492385-.32258064.3333334.14442427.3333333.32258064.3333333zm0-1.7333333c.17815637 0 .32258065-.1492385.32258065-.3333334s-.14442428-.3333333-.32258065-.3333333-.32258064.1492384-.32258064.3333333.14442427.3333334.32258064.3333334zm14.5806452-.4c.1781563 0 .3225806-.1492385.3225806-.33333337 0-.18409491-.1444243-.33333333-.3225806-.33333333-.1781564 0-.3225807.14923842-.3225807.33333333 0 .18409487.1444243.33333337.3225807.33333337zm.9032258 3.4666666c.1781563 0 .3225806-.1492384.3225806-.3333333s-.1444243-.3333333-.3225806-.3333333c-.1781564 0-.3225807.1492384-.3225807.3333333s.1444243.3333333.3225807.3333333zm-1.0322581 2.6666667c.1781564 0 .3225807-.1492384.3225807-.3333333s-.1444243-.3333334-.3225807-.3333334-.3225806.1492385-.3225806.3333334.1444242.3333333.3225806.3333333zm-2.7096774 2.9333333c.1781564 0 .3225806-.1492384.3225806-.3333333s-.1444242-.3333333-.3225806-.3333333-.3225807.1492384-.3225807.3333333.1444243.3333333.3225807.3333333zm-8.51612905.4c.17815638 0 .32258065-.1492384.32258065-.3333333s-.14442427-.3333333-.32258065-.3333333c-.17815637 0-.32258064.1492384-.32258064.3333333s.14442427.3333333.32258064.3333333z" fill="#c51918"/><path d="m14.7170509 23.7597892c0-.273123-4.1340463-3.1221613-5.24363799-3.7505723s-6.52800089-4.0871064-5.05242241-9.3422387h-.22330207c-.66572828 4.3168503 1.29475761 7.8169562 5.88145767 10.5003178 2.0884309 1.4009818 3.1846198 2.2651462 3.2885667 2.5924932.8995587.1820821 1.3493381.1820821 1.3493381 0z" fill="#feca00"/><path d="m19.8783412 23.7597892c0-.273123-4.1340463-3.1221613-5.243638-3.7505723s-6.52800086-4.0871064-5.05242238-9.3422387h-.22330207c-.66572828 4.3168503 1.29475765 7.8169562 5.88145765 10.5003178 2.0884309 1.4009818 3.1846198 2.2651462 3.2885667 2.5924932.8995587.1820821 1.3493381.1820821 1.3493381 0z" fill="#feca00" transform="matrix(-1 0 0 1 29.1108 0)"/><path d="m12.0645161 19.8475703c2.8861332 0 5.2258065-3.7358243 5.2258065-7.3809036 0-3.64507938-2.3396733-5.53333337-5.2258065-5.53333337-2.88613318 0-5.22580642 1.88825399-5.22580642 5.53333337 0 3.6450793 2.33967324 7.3809036 5.22580642 7.3809036z" fill="#56c6f5"/><g fill="none" transform="translate(8.5161 9.2)"><path d="m.38130699.85183102c0-1.11505983.85348268-.70984779 1.25589104-.70984779s-.40240836.70984779-.40240836.70984779l.00035658 1.17238566c.00109752.08307225.00472856.20768524.01089312.37383896l.16901439.00194436c.07363797 0 .13333334.05969537.13333334.13333333 0 .07363797-.05969537.13333334-.13333334.13333334l-.15839813-.00092156c.01461733.3503544.03656338.82087378.06583816 1.41155814l.06806995-.00425289c.07887931-.00690105.14841802.05144886.15531906.13032816l.00987141.11283066c.00690104.0788793-.05144887.14841801-.13032817.15531906l-.08291854.00571165c.023218.45990176.0501894.98134571.08091418 1.56433184-.81625267.04651834-1.22437901.00970506-1.22437901-.11043982 0-.07200112.02181968-.5240145.06545902-1.35604015l-.09592344.00639641c-.0788793.00690104-.14841802-.05144886-.15531906-.13032817l-.0098714-.11283065c-.00690105-.0788793.05144886-.14841801.13032816-.15531906l.15208574-.01155229c.02599402-.48996582.05782912-1.08166018.0955053-1.77508307l-.01510523.26982437-.10383617.00046737c-.07363796 0-.13333333-.05969537-.13333333-.13333334 0-.07363796.05969537-.13333333.13333333-.13333333l.11883617-.0008007z" fill="#fff"/><g fill="#000"><path d="m.64516129 2.8h.43010753v.5734767h-.43010753z"/><path d="m.51612903 4.8h.71684588v1.33333333h-.71684588z"/></g></g><g fill="none" transform="translate(11.2258 9.2)"><path d="m.38130699.85183102c0-1.11505983.85348268-.70984779 1.25589104-.70984779s-.40240836.70984779-.40240836.70984779l.00035658 1.17238566c.00109752.08307225.00472856.20768524.01089312.37383896l.16901439.00194436c.07363797 0 .13333334.05969537.13333334.13333333 0 .07363797-.05969537.13333334-.13333334.13333334l-.15839813-.00092156c.01461733.3503544.03656338.82087378.06583816 1.41155814l.06806995-.00425289c.07887931-.00690105.14841802.05144886.15531906.13032816l.00987141.11283066c.00690104.0788793-.05144887.14841801-.13032817.15531906l-.08291854.00571165c.023218.45990176.0501894.98134571.08091418 1.56433184-.81625267.04651834-1.22437901.00970506-1.22437901-.11043982 0-.07200112.02181968-.5240145.06545902-1.35604015l-.09592344.00639641c-.0788793.00690104-.14841802-.05144886-.15531906-.13032817l-.0098714-.11283065c-.00690105-.0788793.05144886-.14841801.13032816-.15531906l.15208574-.01155229c.02599402-.48996582.05782912-1.08166018.0955053-1.77508307l-.01510523.26982437-.10383617.00046737c-.07363796 0-.13333333-.05969537-.13333333-.13333334 0-.07363796.05969537-.13333333.13333333-.13333333l.11883617-.0008007z" fill="#fff"/><g fill="#000"><path d="m.64516129 2.8h.43010753v.5734767h-.43010753z"/><path d="m.51612903 4.8h.71684588v1.33333333h-.71684588z"/></g></g><g fill="none" transform="translate(13.8065 9.2)"><path d="m.38130699.85183102c0-1.11505983.85348268-.70984779 1.25589104-.70984779s-.40240836.70984779-.40240836.70984779l.00035658 1.17238566c.00109752.08307225.00472856.20768524.01089312.37383896l.16901439.00194436c.07363797 0 .13333334.05969537.13333334.13333333 0 .07363797-.05969537.13333334-.13333334.13333334l-.15839813-.00092156c.01461733.3503544.03656338.82087378.06583816 1.41155814l.06806995-.00425289c.07887931-.00690105.14841802.05144886.15531906.13032816l.00987141.11283066c.00690104.0788793-.05144887.14841801-.13032817.15531906l-.08291854.00571165c.023218.45990176.0501894.98134571.08091418 1.56433184-.81625267.04651834-1.22437901.00970506-1.22437901-.11043982 0-.07200112.02181968-.5240145.06545902-1.35604015l-.09592344.00639641c-.0788793.00690104-.14841802-.05144886-.15531906-.13032817l-.0098714-.11283065c-.00690105-.0788793.05144886-.14841801.13032816-.15531906l.15208574-.01155229c.02599402-.48996582.05782912-1.08166018.0955053-1.77508307l-.01510523.26982437-.10383617.00046737c-.07363796 0-.13333333-.05969537-.13333333-.13333334 0-.07363796.05969537-.13333333.13333333-.13333333l.11883617-.0008007z" fill="#fff"/><g fill="#000"><path d="m.64516129 2.8h.43010753v.5734767h-.43010753z"/><path d="m.51612903 4.8h.71684588v1.33333333h-.71684588z"/></g></g></g><path d="m11.9998128 8.42240034c-.0034465.27250835-.1281891.40876253-.3742278.40876253s-.5014914-.13625418-.7663579-.40876253c-.3809612.27250835-.7617946.40876253-1.14250045.40876253-.57105873 0-.30683038-.27907045-1.00990755 0s-1.3670945 2.07388623-1.3670945 3.98612713c0 1.2748274 1.17316748 3.507424 3.5195025 6.6977898l-.1862044.673093c-2.46236572-1.928267-4.00350629-4.192487-4.62342174-6.7926599s.18697028-4.76813774 2.42065718-6.50389461l.04533754-.00495162.00053335-1.02h6.83870967l-.000243 1.005.216103.01995162c2.2336869 1.73575687 3.0405726 3.90372171 2.4206572 6.50389461-.6199155 2.6001729-2.161056 4.8643929-4.6234217 6.7926599l-.1862044-.673093c2.346335-3.1903658 3.5195024-5.4229624 3.5195024-6.6977898 0-1.9122409-.6640173-3.70705668-1.3670945-3.98612713-.7030771-.27907045-.4388488 0-1.0099075 0-.3807058 0-.7615393-.13625418-1.1425004-.40876253-.2648666.27250835-.5203193.40876253-.766358.40876253s-.3707813-.13625418-.3742277-.40876253l-.0005484-1.35673367h-.041z" fill="#e8aa00" fill-rule="nonzero" stroke="#ffd018" stroke-width="1.333333"/><path d="m8.13800107 15.7131885c.27953651-.7505903.66372535-1.000787 1.15256654-.7505903.73326179.3752951.66921873 1.6818223 1.33635139 1.2162063.6671326-.465616.2889239-1.2162063 1.2775235-1.2162063s.8429903 1.2162063 1.435858 1.2162063.6441856-1.2162063 1.3069375-1.2162063c.4418345 0 .8867982.2501968 1.334891.7505903l-3.9220639 5.3366925z" fill="#8fc753" fill-rule="evenodd"/><path d="m12.0830491 20.3531074-.0370491-.0028458.2632958-.0116924c1.7732426-.0848717 2.8458918-.1273076 3.2179475-.1273076.5890883 0 1.9524643.4400432 1.6396208.8017551-.2085623.2411413.1072558.3617119.9474545.3617119-.5379838-.5794022-.4825009-.8691033.1664488-.8691033.9734246 0 2.0916395.227708 2.4743715.227708.3827319 0 .5502836.4075414.2751418.6413953-.2751418.2338538-.9359235.8894114-.2751418.8894114.6607816 0 .4234416-.0667266.6607816-.478069.1579932-.2738238.8185264-.4109376 1.9815995-.4113415-.0274676-.0476394-.0426813-.1037178-.0426813-.1634679 0-.1840949.1444243-.3333333.3225807-.3333333.1781563 0 .3225806.1492384.3225806.3333333 0 .184095-.1444243.3333334-.3225806.3333334-.118771 0-.2225498-.0663282-.278539-.1650936l-.4180406.5636464.4355064.538954c.0586397-.0833324.1537339-.1375068.2610732-.1375068.1781563 0 .3225806.1492384.3225806.3333333s-.1444243.3333333-.3225806.3333333c-.1781564 0-.3225807-.1492384-.3225807-.3333333 0-.0390836.0065095-.0765962.0184693-.1114433-.3977919-.2015153-.7146994-.302345-.9501719-.302345h-.7698757c.193622 0 1.2598424.7034266.936949 1.0082551-.3228934.3048286-.7616764.7582377-1.1742889.5315331-.275075-.1511363-.4953356-.3283141-.6607816-.5315331l-.3232717-1.0082551c-1.2703584-.3278997-1.9055377-.3783591-1.9055377-.1513782 0 .3404713-.0054146.5071936-.6811365.5071936s-1.3105335-.2048517-1.7288614-.2048517-1.1984312.2048517-1.3427202.2048517c-.1442891 0-.9158694-.0348233-.3870436-.3558154.3525506-.2139948.5694353-.432514.6506543-.6555576-1.4329183.2127701-2.4180057.3240553-2.9552623.3338556l-.0746914.0007098c-.5320038-.0104971-1.4742029-.1217828-2.82514086-.3345654.08121899.2230436.29810376.4415628.65065431.6555576.52882585.3209921-.24275452.3558154-.38704355.3558154-.14428904 0-.92439236-.2048517-1.34272027-.2048517-.4183279 0-1.05313949.2048517-1.72886138.2048517s-.68113649-.1667223-.68113649-.5071936c0-.2269809-.63517924-.1765215-1.90553774.1513782l-.32327161 1.0082551c-.16544607.203219-.38570661.3803968-.66078161.5315331-.41261249.2267046-.85139554-.2267045-1.17428894-.5315331-.3228934-.3048285.74332698-1.0082551.93694902-1.0082551h-.76987575c-.27233427 0-.65359556.1348692-1.14378388.4046075l.5860802-.7255997-.42183737-.5684192c1.16627787 0 1.82853011.1371141 1.98675672.4113424.23733992.4113424 0 .478069.66078161.478069s0-.6555576-.27514184-.8894114c-.27514184-.2338539-.10759008-.6413953.27514184-.6413953.38273193 0 1.50094688-.227708 2.47437144-.227708.64894971 0 .70443264.2897011.16644878.8691033.84019869 0 1.15601687-.1205706.94745454-.3617119-.31284349-.3617119 1.05053246-.8017551 1.63962077-.8017551.39272554 0 1.52303976.047282 3.39094276.1418458zm-11.76046845 1.1914876c.17815637 0 .32258064-.1492384.32258064-.3333334 0-.1840949-.14442427-.3333333-.32258064-.3333333-.17815638 0-.32258065.1492384-.32258065.3333333 0 .184095.14442427.3333334.32258065.3333334zm0 1.4666666c.17815637 0 .32258064-.1492384.32258064-.3333333s-.14442427-.3333333-.32258064-.3333333c-.17815638 0-.32258065.1492384-.32258065.3333333s.14442427.3333333.32258065.3333333z" fill="#fff" fill-rule="evenodd"/><path d="m12.1258633.03930601-.0000568.285.3275983.00081644v.26666666l-.3275983-.0004831.0005809.48596815c.367457.06234742.6478061.39203912.6478061.78939251 0 .4418278-.3466182.8-.7741935.8s-.7741935-.3581722-.7741935-.8c0-.39188522.2726861-.7179582.6326858-.78666716l-.0006858-.4886935-.2996189.0004831v-.26666666l.3006189-.00081644.0003901-.285z" fill="#ffd018" fill-rule="nonzero"/><path d="m12.3820866 3.27428751c.5431041 0 .8734853.2720467 1.1962077.52668242.3227224.25463571.4814508 0 1.0904206 0s.2401031.50017022.6133736.50017022c.2488469 0 .6356478.13305557 1.1604028.3991667l-.6120333 1.35726572-3.6921138-.13928506-3.69096671.13928506-.61203327-1.35726572c.52475495-.26611113.91155589-.3991667 1.16040283-.3991667.37327041 0 .00440381-.50017022.61337357-.50017022.60896978 0 .76769828.25463571 1.09042058 0 .3227224-.25463572.6531036-.52668242 1.1962077-.52668242.0987462 0 .1799848.06544573.2437158.19633719.0626371-.13089146.1438757-.19633719.2426219-.19633719z" fill="#e31d1c" fill-rule="evenodd"/><path d="m11.2182861 2.18119548.2591206-.0898929-.0039927.28241462c-.0204136 1.4439033.0912747 2.58212621.3325532 3.41182704l.02841.09769531-.0598545.08112229c-.2033961.27566769-.7729183.36587583-1.6917263.37016443-.31774163.00148309-.64805298-.00854675-1.02277894-.02751848-.01732272-.00087702-.49197384-.02717685-.53088235-.02717685-.25478497 0-.47260832-.38579906-.78382196-1.15063121-.22428498-.55119808-.43995502-1.20155641-.51384322-1.5459027-.16860415-.78575755 1.17698232-1.32231913 2.20822085-1.16339403.50087921.07719095 1.09385062-.00115904 1.77859532-.23870752zm-1.83569523.63433186c-.80336604-.12380746-1.85587695.29588828-1.77320255.68118152.06812307.31747866.27672776.94653124.49276148 1.47745121.11660469.28656525.22864266.52876529.32458723.69869806.04866667.08619624.09185344.15129679.12641876.19156094.00571801.00666074.01084064.01221797.01519527.0166403.13107512.00538048.51388605.02659354.51060953.02642766.36841963.01865245.69236467.02848898 1.00208731.02704333.6522358-.00304436 1.1350146-.06501547 1.3187374-.16113878-.2144482-.80358823-.3191123-1.84609533-.3157595-3.12952037-.6339081.19072581-1.20098016.24878166-1.70143493.17165613z" fill="#ffd018" fill-rule="nonzero"/><path d="m16.2505442 2.18119548.2591206-.0898929-.0039927.28241462c-.0204137 1.4439033.0912746 2.58212621.3325532 3.41182704l.02841.09769531-.0598545.08112229c-.2033961.27566769-.7729184.36587583-1.6917264.37016443-.3177416.00148309-.6480529-.00854675-1.0227789-.02751848-.0173227-.00087702-.4919738-.02717685-.5308823-.02717685-.254785 0-.4726083-.38579906-.783822-1.15063121-.224285-.55119808-.439955-1.20155641-.5138432-1.5459027-.1686042-.78575755 1.1769823-1.32231913 2.2082208-1.16339403.5008793.07719095 1.0938506-.00115904 1.7785954-.23870752zm-1.8356953.63433186c-.803366-.12380746-1.8558769.29588828-1.7732025.68118152.0681231.31747866.2767277.94653124.4927615 1.47745121.1166047.28656525.2286426.52876529.3245872.69869806.0486667.08619624.0918534.15129679.1264188.19156094.005718.00666074.0108406.01221797.0151952.0166403.1310751.00538048.5138861.02659354.5106096.02642766.3684196.01865245.6923646.02848898 1.0020872.02704333.6522358-.00304436 1.1350147-.06501547 1.3187374-.16113878-.2144481-.80358823-.3191123-1.84609533-.3157594-3.12952037-.6339082.19072581-1.2009802.24878166-1.701435.17165613z" fill="#ffd018" fill-rule="nonzero" transform="matrix(-1 0 0 1 29.116 0)"/><path d="m7.7607325 6.02584836c-.03061066.03078471-.06638903.02469896-.09208525.00529901-.0089236-.00741838-.0089236-.00741838-.01634637-.01643819-.00417538-.00560384-.00417538-.00560384-.01054292-.02023158-.0061815-.029547-.00839908-.0401468.0102734-.05513609-.00184986-.00995287-.00460427-.02232627-.00835619-.0370939-.01814998-.07143862-.05607494-.18564845-.11719749-.34842912-.11765186-.31332869-.18587484-.39385826-.34815129-.49297952-.12346061-.07541189-.18162211-.15421817-.23485776-.3602511-.03395544-.13141451-.06802585-.23271876-.10690464-.32580637-.01563998-.03744687-.07274713-.16164178-.08479974-.19197017-.03528615-.08879171-.05039083-.17043915-.05039083-.29201653 0-.14522623.03617187-.25596196.12653117-.44661671.04750853-.10024125.05359133-.1134351.06950805-.15328403.02949813-.07385118.04387246-.13430801.04387246-.19269495v-.51352525c0-.36935826.06107231-.46337842.30484456-.43044895.0166803.00225322.0327557.0048233.04949317.00783675.11203894.02017173.09688693.01837671.10796384.01337813.02096344-.00946001.05331203-.04849173.12995393-.16315155.09669424-.14465905.19604128-.13113278.4192105-.02241323.02294241.01117667.03626869.0175596.05044667.02406953.12456327.05719415.18645073.05838293.23983332-.0068248.21051319-.25714542.39658089-.23520415.63283699-.00549635.07295751.07093534.10601385.09502999.12910198.09842211.02596249.00381441.0326885.00033647.20789165-.1071886.0678685-.04165202.14292205-.11984489.15526919-.12349024.04254506-.01256092.14152373.0843423.18389569.11976878.08794767-.00368883.19688767-.00562582.32764088-.00562582v.13333334c-.10206755 0-.19035583.00120471-.26499557.0034566-.02197475.04577097-.05525026.06024854-.10215305.06757727-.05637472.00880876-.14048268.00433233-.19705374-.00886264-.04237185-.00988306-.06855692-.0195531-.08060768-.04459036-.18116581.11100693-.18052269.10754863-.24805064.0976274-.05947688-.00873837-.10640775-.04294611-.19936003-.13332204-.1881958-.18297957-.29071018-.19506816-.44590396-.00549634-.10099622.12336858-.21970834.12108828-.39074029.04255768-.01529781-.0070241-.02931176-.01373641-.05307501-.02531296-.16718512-.08144623-.2142735-.08785739-.25801824-.02241323-.09287743.13894891-.13163954.18571918-.18448294.2095654-.02908247.01312381-.05789546.01593529-.09292172.01178582-.01805915-.00213942-.09434013-.01699153-.08882994-.01599946-.01502026-.00270428-.0293089-.0049887-.04407049-.00698274-.14722216-.0198872-.15908681-.0016217-.15908681.2982405v.51352525c0 .07826916-.01822341.15491476-.05363245.24356444-.01745237.04369355-.02379722.05745584-.07289871.16105814-.08221803.17347699-.11338052.26887712-.11338052.38797311 0 .10446515.01192084.16890256.04071864.24136743.01041176.02619945.066849.14893745.0839096.18978572.04137194.09905698.07751475.20652326.11309992.34424517.04448449.17216409.08138668.22216494.17585188.27986592.18661772.11398934.27439648.21760231.40278645.55952856.09319031.24818305.13586655.38182649.13543799.45582128.00690732.00877149.01471382.01892418.02370628.03067557.07614707.0995094.14450026.0995094.24441623-.00540995l.09196983.09352022c-.15218596.15980682-.31117127.15980682-.43759926-.00540995-.01297809-.01695983-.02336251-.02989552-.03112482-.0389662.00635372.00439715.00971911.00256398.02649467.00335396.07334589-.04228135.07334589-.04228135.06384361-.08763195-.00594839-.01366314-.00594839-.01366314-.00919799-.01793267-.00489664-.00595736-.00489664-.00595736-.0099505-.0101204-.018907-.01427427-.04812304-.01924379-.07402987.00681034-.01226616.0123359-.01538288.02046029-.01588486.02581053-.00054292-.0031073-.00142427-.00924602-.00282212-.01676687.01044611-.00838558.02743021-.01814495.05391586-.03336408.02843143.00133886.03985905.00920271.07626294.05543145-.00017455.0301397-.00750068.05038303-.02147766.06443948zm1.5999748-4.0310784c-.00335432-.00330445-.0057937-.005681-.00637555-.00618529.0001293.00011206.00225448.00217383.00637555.00618529zm5.6993042.00685343c.2362561-.2297078.4223238-.25164907.632837.00549635.0533826.06520773.1152701.06401895.2398333.0068248.014178-.00650993.0275043-.01289286.0504467-.02406953.2231692-.10871955.3225163-.12224582.4192105.02241323.0766419.11465982.1089905.15369154.1299539.16315155.0110769.00499858-.0040751.0067936.1079639-.01337813l.0494931-.00783675c.2437723-.03292947.3048446.06109069.3048446.43044895v.51352525c0 .05838694.0143743.11884377.0438725.19269495.0159167.03984893.0219995.05304278.069508.15328403.0903593.19065475.1265312.30139048.1265312.44661671 0 .12157738-.0151047.20322482-.0503908.29201653-.0120527.03032839-.0691598.1545233-.0847998.19197017-.0388788.09308761-.0729492.19439186-.1069046.32580637-.0532357.20603293-.1113972.28483921-.2348578.3602511-.1622764.09912126-.2304994.17965083-.3481513.49297952-.0611225.16278067-.0990475.2769905-.1171975.34842912-.0037519.01476763-.0065063.02714103-.0083562.0370939-.0104461-.00838558-.0274302-.01814495-.0539158-.03336408-.0284314.00133886-.0398591.00920271-.076263.05543145l.0034121-.04222224c.011788-.07950202.0543673-.20677983.1320259-.41359904.12839-.34192625.2161688-.44553922.4027865-.55952856.0944652-.05770098.1313674-.10770183.1758519-.27986592.0355851-.13772191.0717279-.24518819.1130999-.34424517.0170606-.04084827.0734978-.16358627.0839096-.18978572.0287978-.07246487.0407186-.13690228.0407186-.24136743 0-.11909599-.0311625-.21449612-.1133805-.38797311-.0491015-.1036023-.0554463-.11736459-.0728987-.16105814-.0354091-.08864968-.0536325-.16529528-.0536325-.24356444v-.51352525c0-.2998622-.0118646-.3181277-.1590868-.2982405-.0147616.00199404-.0290502.00427846-.0440705.00698274.0055102-.00099207-.0707707.01386004-.0888299.01599946-.0350263.00414947-.0638392.00133799-.0929217-.01178582-.0528434-.02384622-.0916055-.07061649-.184483-.2095654-.0437447-.06544416-.0908331-.059033-.2580182.02241323-.0237633.01157655-.0377772.01828886-.053075.02531296-.171032.0785306-.2897441.0808109-.3907403-.04255768-.1551938-.18957182-.2577082-.17748323-.445904.00549634-.0929522.09037593-.1398831.12458367-.19936.13332204-.0675279.00992123-.0668848.01337953-.2480506-.0976274-.0120508.02503726-.0382359.0347073-.0806077.04459036-.0565711.01319497-.140679.0176714-.1970538.00886264-.0469027-.00732873-.0801782-.0218063-.102153-.06757727-.0746397-.00225189-.162928-.0034566-.2649956-.0034566v-.13333334c.1307532 0 .2396932.00193699.3276409.00562582.042372-.03542648.1413506-.1323297.1838957-.11976878.0123471.00364535.0874007.08183822.1552692.12349024.1752031.10752507.1819292.11100301.2078916.1071886.0230882-.00339212.0561445-.02748677.129102-.09842211z" fill="#5e5e5e" fill-rule="nonzero"/><path d="m9.03197495 21.180072.08099964-.6617277c1.43275291.175378 2.38941291.2630655 2.87143101.2634021.7269304.0326917 1.5933396-.0199604 2.597864-.1587556l.0912466.6603927c-1.0420666.1439824-1.947966.1990343-2.7040863.1646929-.5031757 0-1.4778191-.0893358-2.93745495-.2680044z" fill="#272727" fill-rule="nonzero"/></g></g></g></g><rect height="32" mask="url(#b)" rx="2" width="43.335938"/></g></svg>