<svg height="32" viewBox="0 0 43 32" width="43" xmlns="http://www.w3.org/2000/svg" xmlns:xlink="http://www.w3.org/1999/xlink"><mask id="a" fill="#fff"><path d="m0 0h43.335938v32h-43.335938z" fill="#fff" fill-rule="evenodd"/></mask><mask id="b" fill="#fff"><path d="m0 0h42.666667v32h-42.666667z" fill="#fff" fill-rule="evenodd"/></mask><g fill="none" fill-rule="evenodd"><g fill-rule="evenodd" mask="url(#a)"><g mask="url(#b)" transform="translate(.3346)"><path d="m0 0h42.6666667v32h-42.6666667z" fill="#f7fcff"/><path d="m0 0h42.666667v10.666667h-42.666667z" fill="#272727"/><path d="m0 21.333333h42.666667v10.666667h-42.666667z" fill="#4e8b1d"/><path d="m-1.333333 9.333333h45.333333v13.333333h-45.333333z" fill="#e31d1c" fill-rule="nonzero" stroke="#f7fcff" stroke-width="2.666667"/><path d="m0 0 26.6666667 16-26.6666667 16z" fill="#3d58db"/><path d="m8.00319005 19.3256505-3.32563801 2.0076828.75855699-3.9177925-2.76944236-2.9320825 3.74998005-.15854 1.58654333-3.6582516 1.58654332 3.6582516h3.74359993l-2.7630622 3.0906225.8318454 3.9177925z" fill="#feca00" transform="matrix(.96592583 -.25881905 .25881905 .96592583 -3.868511 2.615739)"/></g></g><rect height="32" mask="url(#a)" rx="2" width="43.335938"/></g></svg>