<svg height="32" viewBox="0 0 43 32" width="43" xmlns="http://www.w3.org/2000/svg" xmlns:xlink="http://www.w3.org/1999/xlink"><mask id="a" fill="#fff"><path d="m0 0h43.335938v32h-43.335938z" fill="#fff" fill-rule="evenodd"/></mask><mask id="b" fill="#fff"><path d="m0 0h42.666667v32h-42.666667z" fill="#fff" fill-rule="evenodd"/></mask><g fill="none" fill-rule="evenodd"><g fill-rule="evenodd" mask="url(#a)"><g mask="url(#b)" transform="translate(.3346)"><path d="m0 0h42.666667v32h-42.666667z" fill="#fbcd17"/><path d="m0 0h42.666667v10.666667h-42.666667z" fill="#73be4a"/><path d="m0 21.333333h42.666667v10.666667h-42.666667z" fill="#73be4a"/><path d="m0 0v32l13.3333333-16z" fill="#c51918"/><g fill="#272727"><path d="m22.6690592 18.4942379-2.4942285 1.5057621.5689177-2.9383444-2.0770817-2.1990619 2.812485-.118905 1.1899075-2.7436887 1.1899075 2.7436887h2.8077l-2.0722967 2.3179669.6238841 2.9383444z"/><path d="m33.3357259 18.4942379-2.4942285 1.5057621.5689177-2.9383444-2.0770818-2.1990619 2.8124851-.118905 1.1899075-2.7436887 1.1899075 2.7436887h2.8076999l-2.0722967 2.3179669.6238841 2.9383444z"/></g></g></g><rect height="32" mask="url(#a)" rx="2" width="43.335938"/></g></svg>