<svg xmlns="http://www.w3.org/2000/svg" width="512" height="512" viewBox="0 0 512 512"><g fill="none" fill-rule="evenodd"><path fill="#0f47af" fill-rule="nonzero" d="M0 0h512v512H0z"/><path fill="#fff" fill-rule="nonzero" d="M0 170.7h512v170.6H0z"/><g transform="translate(187 187)"><circle cx="69" cy="69" r="69" stroke="#e8aa00" stroke-width="18.947"/><path fill="#1e601b" d="M31.62 27.394Q13.572 57.096 13.572 77.487c0 20.39 21.603 46.02 55.59 46.02 33.154 0 56.983-19.804 57.704-46.02q.72-26.216-17.835-44.88 10.5 37.745 5.25 53.039c-5.25 15.294-22.246 33.799-45.118 31.443S24.585 86.581 24.585 77.487q0-9.095 7.035-50.093"/><g stroke-width="14.21"><path stroke="#188396" d="M38.248 77.908h60.768"/><path stroke="#e8aa00" d="M43.904 68.01h52.284M69.93 40.517l23.056 38.96H46.449z"/></g></g></g></svg>