<svg height="32" viewBox="0 0 43 32" width="43" xmlns="http://www.w3.org/2000/svg" xmlns:xlink="http://www.w3.org/1999/xlink"><defs><path id="a" d="m0 0h42.666667v32h-42.666667z"/><mask id="b" fill="#fff"><path d="m0 0h43.335938v32h-43.335938z" fill="#fff" fill-rule="evenodd"/></mask><mask id="c" fill="#fff"><path d="m0 0h42.666667v32h-42.666667z" fill="#fff" fill-rule="evenodd"/></mask><mask id="d" fill="#fff"><use fill="#fff" fill-rule="evenodd" xlink:href="#a"/></mask></defs><g fill="none" fill-rule="evenodd"><g fill-rule="evenodd" mask="url(#b)"><g mask="url(#c)" transform="translate(.3346)"><use fill="#f7fcff" xlink:href="#a"/><path d="m0 0h42.666667v10.666667h-42.666667z" fill="#3d58db" mask="url(#d)"/><path d="m0 21.333333h42.666667v10.666667h-42.666667z" fill="#3d58db" mask="url(#d)"/><g mask="url(#d)"><g transform="translate(13.3333 8)"><circle cx="7.711443" cy="7.810945" fill="none" r="4.855721" stroke="#e8aa00" stroke-width="1.333333"/><path d="m5.08089651 4.88301239c-.84671234 1.39347825-1.27006851 2.56852915-1.27006851 3.52515271 0 1.43493534 1.52024852 3.2385268 3.9120774 3.2385268 2.3330766 0 4.0099896-1.3936286 4.0607015-3.2385268.0338079-1.22993212-.384554-2.2826828-1.2550857-3.15825203.4926806 1.77075851.6158508 3.0149091.3695105 3.73245176-.3695105 1.07631397-1.56556486 2.37853017-3.1751263 2.21274317s-3.13705933-2.14691404-3.13705933-2.7869429c0-.4266859.16501681-1.60173681.49505044-3.52515271z" fill="#1e601b" fill-rule="evenodd"/><g fill="none" stroke-width="1.333333"><path d="m5.547327 8.437811h4.276402" stroke="#188396"/><path d="m5.945337 7.741294h3.679387" stroke="#e8aa00"/><path d="m7.77689127 5.80649471 1.62250385 2.74174487h-3.27492888z" stroke="#e8aa00"/></g></g></g></g></g><rect height="32" mask="url(#b)" rx="2" width="43.335938"/></g></svg>