<svg height="32" viewBox="0 0 43 32" width="43" xmlns="http://www.w3.org/2000/svg" xmlns:xlink="http://www.w3.org/1999/xlink"><defs><path id="a" d="m0 0h42.666667v32h-42.666667z"/><path id="b" d="m0-2.66666667v37.33333337l26.6666667-18.6666667z"/><mask id="c" fill="#fff"><path d="m0 0h43.335938v32h-43.335938z" fill="#fff" fill-rule="evenodd"/></mask><mask id="d" fill="#fff"><path d="m0 0h42.666667v32h-42.666667z" fill="#fff" fill-rule="evenodd"/></mask><mask id="e" fill="#fff"><use fill="#fff" fill-rule="evenodd" xlink:href="#a"/></mask><mask id="f" fill="#fff"><use fill="#fff" fill-rule="evenodd" xlink:href="#b"/></mask></defs><g fill="none" fill-rule="evenodd"><g fill-rule="evenodd" mask="url(#c)"><g mask="url(#d)" transform="translate(.3346)"><use fill="#e31d1c" xlink:href="#a"/><path d="m0 16h42.666667v16h-42.666667z" fill="#2e42a5" mask="url(#e)"/><use fill="#f7fcff" xlink:href="#b"/><g mask="url(#f)"><g transform="translate(2.6667 8)"><g fill-rule="evenodd"><g fill="none" transform="translate(2.6946)"><ellipse cx="5.473193" cy="2.792541" fill="#fbcd17" rx="3.468531" ry="2.792541"/><path d="m5.29225779.97081999c0-.27457847.20119534-.45699942.48435338-.45699942h1.12970323c.03133883-.00003177.03133883-.00003177.05057664.00004674l.00390829.66632878-.03128631.00074158c-.0715243.00190796-.0715243.00190796-.19963547.0078691-.21191133.01129813-.41243394.03071957-.57708601.0593381.01871358.01404216.03786576.02874347.05712739.04365174 1.02238224-.15243876 1.50444659-.15243876 2.02419426-.05708219.06144092.01140113.06144092.01140113.11751797.02160107.12637336.02247012.2138444.03183657.32459183.03183657.09938824-.00012079.09938824-.00012079.1528872.00020333.01187416.00019501.01187416.00019501.03261526.00141453.014229.000149.014229.000149.12729889.0356826l.16881953.20415258-.16346111.38718373c.00548242-.00247444.00548242-.00247444-.05567893.02352689-.08207438.01716004-.08207438.01716004-.09876221.01731609-.1412435.01036462-.28711008.02169977-.46860823.03821608-.50623832.04606763-1.07512708.11284478-1.71489312.20684466-.01924365.02535046-.04246181.05382173-.069596.08709504-.07846902.05710932-.12819393.0683001-.31529374.09897055-.19260636.03157312-.50606153.06974631-.78302593.09594292-.14122664.01335788-.26362116.02270071-.35412022.02673472-.63758276.02842036-.44714695.03666329-.48827281-.29950266-.03041186-.24858887-.13613245-.28164321.0839669-.34078553-.0813556-.06354575-.16101159-.13341976-.23721021-.21060284-.13292242-.13463975-.15645-.14700026-.14297139-.14926394-.00802456.0013477-.01759631.00479234-.12700565.04594934-.25391827.09143882-.50733367.11445072-.87229293.04478786-.53128097-.10141007-1.13949586.00244394-1.82888994.3219064l-.28029806-.60487804c.80776746-.3743162 1.55391042-.50172174 2.23418358-.37187227.24480385.04672778.37738906.03468811.5214226-.01717999.09034052-.03618248.16558421-.06326089.24246276-.07617234.25354917-.04258258.45752779.06458014.72780944.33835377.31965179.3237816.45739963.358909.47419832.41661982.00103188-.015168-.00262443-.04190589-.00964538-.07416486-.11416041-.1117627-.16856295-.23361159-.16463069-.37969486.00153644-.05707883.01007458-.10807625.0252808-.15383534-.00018783-.0094963-.00025393-.01950442-.00025393-.03028031zm-.00412701 1.45979403c-.02304234.00465062-.04429212.00906658-.06375549.01324723.0531568-.01141785.0946605-.0198867.1265472-.0266425z" fill="#da610a" fill-rule="nonzero"/></g><path d="m7.90000443 3.44098013c1.41719145-.19698192 2.32042077-.22231372 2.91674547-.02229536.5136055.17227284 1.1474332.15795285 1.9029938-.09353129-.2181692.97134722-.3260235 1.87722448-.3260235 2.71730489 0 .97824613.1903374 1.7648779.3776999 2.51995891.1490856.60082327.298349 1.17827276.298349 1.84346742 0 .4654731-.1311888.814445-.4191042 1.0364733-.378421.2918224-.9466689.3849107-1.6219107.3849107-1.06980738 0-2.07239222.2838057-3.00648285.8557673-.96562354-.5731892-1.96712729-.8557673-3.03529583-.8557673-.67524178 0-1.24348972-.0930883-1.62191067-.3849107-.28791545-.2220283-.41910418-.5710002-.41910418-1.0364733 0-.66519466.14926332-1.24264415.29834899-1.84346742.18736251-.75508101.37769991-1.54171278.37769991-2.51995891 0-.84015574-.10787367-1.74612015-.32592876-2.71744853.75558576.25163049 1.38934212.26593148 1.90289906.09367493.59632462-.20001836 1.49955398-.17468656 2.70102456.02229536z" fill="#56c6f5" stroke="#e31d1c" stroke-width="1.333333"/><path d="m8.01784882 5.25128267 1.02857143.91428571-.38114286-.00028571v.48l1.67638091 1.04409523-.0003809 2.4379048.3813333.0001904v.4571429h-5.33333331v-.4571429l.304-.0001904.0007619-2.4379048 1.5992381-.99709523v-.527l-.304.00028571z" fill="#f7fcff" stroke="#3b3b3b" stroke-width=".333333"/></g><path d="m7.93583185 14.6938495c1.41472305 0 2.38865415-.1544452 2.89016865-.4177116.1314782-.223577.3620659-.349797.6074359-.3407164 1.1019329.040775 1.9553681-.4234394 2.6262815-1.4437349.7249197-1.1024261.8705802-2.66838145.3981063-4.72384275l1.1994885-.27571768c.541352 2.35511017.3645654 4.25569463-.5692348 5.67577683-.8367564 1.2725022-1.9776477 1.9521785-3.3700055 1.9982426-.7111358.5265756-1.95737706.7584732-3.78224055.7584732-1.76540516 0-3.07435511-.3427836-3.91386881-1.071103-1.90651252-.4504073-3.11806032-1.2108279-3.59444634-2.337943-.50782111-1.2014895-.50782111-2.86945063-.03411907-5.01807825l1.20190599.26498092c-.42384469 1.92248364-.42384469 3.35186253-.03411906 4.27394173.27195533.6434382 1.06214536 1.1685397 2.40085872 1.532595l1.24374927.2659449-.05970947.3140716c.60675613.354654 1.53407333.5448208 2.78974877.5448208z" fill="#fbcd17" fill-rule="nonzero"/><path d="m4.05864654 5.10223757c-.34158423-.13741894-.5070929-.52572774-.36967396-.86731197.13741895-.34158423.52572774-.5070929.86731197-.36967396l.68180062.27428761c.10012876.04028168.18487848.10191892.25134343.17741978.09916571-.01757018.19749207-.01130533.28920063.01442139l.6878607-.21076432c.3520352-.10786553.7248584.09007309.83272394.44210829.05496666.17939187.03052304.36418191-.05325578.51655811.27739273.46869802-.14790897 1.16221998-.77665453.97259867l-.03058266-.00922333-.07578104.32068146c-.08100371.34278215-.35052686.50681159-.62469385.51351925-.42905343.34205152-1.2049403.00598756-1.06808128-.66635953l.01535936-.07545589c-.47176877.02957432-.87155972-.4715653-.63793817-.95726126l.03223893-.06702429zm2.54301958.25088754-.84129136.48495254.67834614.20458019z" fill="#73be4a" fill-rule="nonzero"/><path d="m5.60721034 5.96791933c.36818983 0 .66666667-.29847684.66666667-.66666667s-.29847684-.66666667-.66666667-.66666667-.66666667.29847684-.66666667.66666667.29847684.66666667.66666667.66666667z" fill="#fbcd17" fill-rule="evenodd"/><path d="m10.6998687 3.95897467c.1814107 0 .2780819.48826936.2900137 1.46480809.2522209.06654952.4899752.22728054.7135484.48284035h-1.9620548s.2952667-.33751039.6879249-.46688938l.002401.19756261c-.0154047-1.11888111.0739842-1.67832167.2681668-1.67832167z" fill="#f7fcff" fill-rule="evenodd"/><path d="m.73395565 8.75802628.32840109.05712999c-.26583291 1.52809103-.26583291 2.62375133-.00907749 3.27724133.29884257.7606096 2.06186445 1.7809072 2.56059813 1.7809072v.3333334c-.6272516 0-2.51796146-1.0941934-2.87084423-1.9923453-.28451256-.724137-.28451256-1.8729794-.0090775-3.45626662z" fill="#73be4a" fill-rule="nonzero"/><path d="m12.4231482 8.67841303.3287379.05515879c-.2405783 1.43380938-.1866591 2.55240288.1551275 3.35443388.411972.966727 2.0029863 2.1983682 2.4202073 2.1983682v.3333334c-.5616696 0-2.2658597-1.3192533-2.7268571-2.4010224-.3705466-.869519-.4274085-2.0491608-.1772156-3.54027187z" fill="#73be4a" fill-rule="nonzero" transform="matrix(-1 0 0 1 27.598 0)"/><path d="m5.85742678 15.231837.06279369-.3273653c1.06210322.2037277 1.78765028.3055037 2.16776896.3055037.37932514 0 1.06559997-.1015675 2.05068587-.3050422l.0674284.3264423c-1.00623128.2078423-1.70955648.3119332-2.11811427.3119332-.40776425 0-1.14832772-.1038824-2.23056265-.3114717z" fill="#73be4a" fill-rule="nonzero"/></g></g></g></g><rect height="32" mask="url(#c)" rx="2" width="43.335938"/></g></svg>