<svg height="32" viewBox="0 0 43 32" width="43" xmlns="http://www.w3.org/2000/svg" xmlns:xlink="http://www.w3.org/1999/xlink"><mask id="a" fill="#fff"><path d="m0 0h43.335938v32h-43.335938z" fill="#fff" fill-rule="evenodd"/></mask><mask id="b" fill="#fff"><path d="m0 0h42.666667v32h-42.666667z" fill="#fff" fill-rule="evenodd"/></mask><g fill="none" fill-rule="evenodd"><g fill-rule="evenodd" mask="url(#a)"><g mask="url(#b)" transform="translate(.3346)"><path d="m0 0h42.6666667v32h-42.6666667z" fill="#f7fcff"/><path d="m12.001595 17.6628252-1.662819 1.0038415.3792785-1.9588963-1.38472117-1.4660413 1.87499007-.0792699.7932716-1.8291259.7932717 1.8291259h1.8718l-1.3815312 1.5453112.4159228 1.9588963z" fill="#409100"/><path d="m30.6682617 17.6628252-1.662819 1.0038415.3792785-1.9588963-1.3847212-1.4660413 1.87499-.0792699.7932717-1.8291259.7932716 1.8291259h1.8718l-1.3815311 1.5453112.4159227 1.9588963z" fill="#409100"/><path d="m0 0h42.666667v10.666667h-42.666667z" fill="#e31d1c"/><path d="m0 21.333333h42.666667v10.666667h-42.666667z" fill="#272727"/></g></g><rect height="32" mask="url(#a)" rx="2" width="43.335938"/></g></svg>