<svg height="32" viewBox="0 0 43 32" width="43" xmlns="http://www.w3.org/2000/svg" xmlns:xlink="http://www.w3.org/1999/xlink"><defs><path id="a" d="m.0520362 8.0703125c2.52564102-5.31557158 5.59464555-7.97335737 9.20701357-7.97335737 3.61236803 0 6.72384053 2.65778579 9.33441743 7.97335737-3.1876885 5.2457265-6.277927 7.8685897-9.2707155 7.8685897-2.99278846 0-6.08302696-2.6228632-9.2707155-7.8685897z"/><mask id="b" fill="#fff"><path d="m0 0h43.335938v32h-43.335938z" fill="#fff" fill-rule="evenodd"/></mask><mask id="c" fill="#fff"><path d="m0 0h42.666667v32h-42.666667z" fill="#fff" fill-rule="evenodd"/></mask><mask id="d" fill="#fff"><use fill="#fff" fill-rule="evenodd" xlink:href="#a"/></mask></defs><g fill="none" fill-rule="evenodd"><g fill-rule="evenodd" mask="url(#b)"><g mask="url(#c)" transform="translate(.3346)"><path d="m0 0h42.6666667v32h-42.6666667z" fill="#3d58db"/><path d="m44 6.66666667v18.66666663h-45.33333333v-18.66666663z" fill="#c51918" stroke="#ffd018" stroke-width="2.666667"/><g transform="translate(5.3333 5.3333)"><g transform="translate(3.9095 2.1949)"><path d="m.28959276 4.91315273c-.15993766 0-.28959276-.36160223-.28959276-.80766118s.1296551-.80766118.28959276-.80766118h23.21436654c.1599376 0 .2895927.36160223.2895927.80766118s-.1296551.80766118-.2895927.80766118z" fill="#ffd018" fill-rule="nonzero"/><path d="m22.8841591 3.94138905 1.3480478-1.7197198 2.3852855 1.7197198-2.3852855 1.76495194z" fill="#f7fcff"/></g><g transform="translate(3.9095 7.5282)"><path d="m.28959276 4.91315273c-.15993766 0-.28959276-.36160223-.28959276-.80766118s.1296551-.80766118.28959276-.80766118h23.21436654c.1599376 0 .2895927.36160223.2895927.80766118s-.1296551.80766118-.2895927.80766118z" fill="#ffd018" fill-rule="nonzero"/><path d="m22.8841591 3.94138905 1.3480478-1.7197198 2.3852855 1.7197198-2.3852855 1.76495194z" fill="#f7fcff"/></g><path d="m.38828299 2.63408769c-.21444277 0-.38828299-.41057447-.38828299-.91704374 0-.50646928.17384022-.91704374.38828299-.91704374h31.12558331c.2144428 0 .388283.41057446.388283.91704374 0 .50646927-.1738402.91704374-.388283.91704374z" fill="#ffd018" fill-rule="nonzero" transform="translate(.0724 13.1282)"/><g transform="translate(6.371 2.6667)"><use fill="#f7fcff" xlink:href="#a"/><path d="m9.52799774-.42648237c-.82423643 1.00106837-1.0989819 1.97889957-.82423643 2.93349359.41211821 1.43189102 1.37231339 1.28064904 1.37231339 2.54166666 0 1.26101763-.44358036 2.54707533 0 2.54707533.4435803 0 .597285.8701923.1918834 1.46013621-.40540154.58994391-.76397957.60817308-.73996036 1.56830928s2.12271106 1.9026442 1.10605206 1.9026442c-1.01665903 0-2.35661767.9867789-1.93028849.9867789.42632919 0 2.65681559.7688301 2.65681559 1.7778445v1.8165065h-11.636595v-17.53445517z" fill="#272727" mask="url(#d)"/><path d="m3.47511312 5.23076923h.57918552v2.35897436h-.57918552zm1.70859729 0h.57918552v2.35897436h-.57918552zm-.85429865 0h.57918553v2.35897436h-.57918553zm1.70859729 0h.57918552v2.35897436h-.57918552zm.85429864 0h.57918552v2.35897436h-.57918552zm.85429864 0h.57918553v2.35897436h-.57918553zm-4.27149321 3.38461539h.57918552v2.35897438h-.57918552zm1.70859729 0h.57918552v2.35897438h-.57918552zm-.85429865 0h.57918553v2.35897438h-.57918553zm1.70859729 0h.57918552v2.35897438h-.57918552zm.85429864 0h.57918552v2.35897438h-.57918552zm.85429864 0h.57918553v2.35897438h-.57918553z" fill="#f7fcff" mask="url(#d)"/><path d="m10.3529412 5.23076923h.5791855v2.35897436h-.5791855zm1.7085973 0h.5791855v2.35897436h-.5791855zm-.8542987 0h.5791855v2.35897436h-.5791855zm1.7085973 0h.5791855v2.35897436h-.5791855zm.8542986 0h.5791856v2.35897436h-.5791856zm.8542987 0h.5791855v2.35897436h-.5791855zm-4.2714932 3.38461539h.5791855v2.35897438h-.5791855zm1.7085973 0h.5791855v2.35897438h-.5791855zm-.8542987 0h.5791855v2.35897438h-.5791855zm1.7085973 0h.5791855v2.35897438h-.5791855zm.8542986 0h.5791856v2.35897438h-.5791856zm.8542987 0h.5791855v2.35897438h-.5791855z" fill="#272727" mask="url(#d)"/><path d="m6.42845023 1.3380646c-.84265832.10666279-1.5777715 2.13762019-1.5777715 2.65985577 0 .34815705.12386878.34815705.37160634 0 .22732843.86605235.34099264 1.41018963.34099264 1.63241186 0 .22222222.14477282.07979433.43431844-.42728366.56165159.55315171.84247738 1.08273238.84247738 1.58874199 0 .50600962.15785256.24432425.47355769-.78505609h.2239819s0-.2678953 0-.8036859l.35180996.42728366v-.74739584c.16006787.30849359.24010181.30849359.24010181 0s0-.5488542 0-.72108184v-.63248386h.42279411c-.85414031-1.53197926-1.56209657-2.26241462-2.12386877-2.19130609z" fill="#3d58db" mask="url(#d)" transform="matrix(.98480775 -.17364818 .17364818 .98480775 -.625358 1.227322)"/></g><g fill="#3d58db"><path d="m29.4510747 12.9278082c-.8426584.1066628-1.5777715 2.1376202-1.5777715 2.6598558 0 .348157.1238687.348157.3716063 0 .2273284.8660523.3409926 1.4101896.3409926 1.6324118s.1447729.0797944.4343185-.4272836c.5616516.5531517.8424774 1.0827323.8424774 1.588742 0 .5060096.1578525.2443242.4735577-.7850561h.2239819s0-.2678953 0-.8036859l.3518099.4272836v-.7473958c.1600679.3084936.2401018.3084936.2401018 0s0-.5488542 0-.7210819v-.6324838h.4227941c-.8541403-1.5319793-1.5620965-2.2624146-2.1238687-2.1913061z"/><path d="m1.57777149 12.6201159c-.84265831.1066628-1.57777149 2.1376202-1.57777149 2.6598558 0 .348157.12386878.348157.37160634 0 .22732843.8660523.34099264 1.4101896.34099264 1.6324118s.14477282.0797943.43431844-.4272836c.56165158.5531517.84247738 1.0827323.84247738 1.5887419 0 .5060097.15785256.2443243.47355769-.785056h.2239819s0-.2678953 0-.8036859l.35180995.4272836v-.7473958c.16006788.3084936.24010181.3084936.24010181 0s0-.5488542 0-.7210819v-.6324838h.42279412c-.85414031-1.5319793-1.56209657-2.2624146-2.12386878-2.1913061z" transform="matrix(-1 0 0 1 3.7016 0)"/></g></g></g></g><rect height="32" mask="url(#b)" rx="2" width="43.335938"/></g></svg>