<svg height="32" viewBox="0 0 43 32" width="43" xmlns="http://www.w3.org/2000/svg" xmlns:xlink="http://www.w3.org/1999/xlink"><defs><path id="a" d="m0 0h42.666667v32h-42.666667z"/><path id="b" d="m0 0h24v18.666667h-24z"/><mask id="c" fill="#fff"><path d="m0 0h43.335938v32h-43.335938z" fill="#fff" fill-rule="evenodd"/></mask><mask id="d" fill="#fff"><path d="m0 0h42.666667v32h-42.666667z" fill="#fff" fill-rule="evenodd"/></mask><mask id="e" fill="#fff"><use fill="#fff" fill-rule="evenodd" xlink:href="#a"/></mask><mask id="f" fill="#fff"><use fill="#fff" fill-rule="evenodd" xlink:href="#b"/></mask></defs><g fill="none" fill-rule="evenodd"><g fill-rule="evenodd" mask="url(#c)"><g mask="url(#d)" transform="translate(.3346)"><use fill="#2e42a5" xlink:href="#a"/><g mask="url(#e)"><g transform="translate(26.6667 13.3333)"><path d="m1.39557385.04358788c.78760393 10.60559782 2.95736745 15.90839682 6.50929056 15.90839682 3.55192309 0 5.76468559-5.302799 6.63828739-15.90839682z" fill="#feca00" stroke="#f7fcff" stroke-width=".666667"/><g fill="none" transform="translate(1.0667)"><path d="m10.1951198 0 .3220226.03751471-.1621611 1.00197741c.0209737-.006791.0417395-.01331991.0622963-.01958687l.6413684-.77134413.2748636.14640598-.3375283.51390885c.3336927-.01597618.5722471.08066388.7063227.28847666l.9257304-.58860987.1952462.22035936-1.0151545.64650896c.0138522.07315618.020853.15333383.020853.24050986l-.0002108.14987908 1.4012342-.3069518.1033308.26058349-1.504565.53236831v.182l1.4264535-.11488865.0429426.2730124-1.4693961.21387625v.314l1.4729873.24365534-.0592988.27098583-1.4136885-.21164117.0002108 3.06451078h-.2166983l-.0005125-3.09751078-.9511282-.14108304c-.1523503 1.04816175-.2209305 1.72658696-.2057406 2.03527564.0294991.59948166.8022451.58990704.5753005.81212277-.2269446.22221574-.7941184.43509093-1.36154169.43509093-.56742327 0-1.12699478-.21287519-1.24832119-.43509093-.12132641-.22221573.52518981.90190134.56736148-.81212277.01766383-.71792795-.05042351-1.3871952-.20426204-2.00780175l-.75766823.11360915.00005257 3.09751078h-.21669836l-.00035421-3.06451078-1.41312345.21164117-.05929884-.27098583 1.47242229-.24365534v-.314l-1.46883103-.21387625.0429426-.2730124 1.42588843.11488865v-.182l-1.504-.53236831.10333081-.26058349 1.40066919.3069518.00035421-.14987908c0-.08758531.00706669-.16810636.0210486-.24153976l-1.01535006-.64547906.19524623-.22035936.92573037.58860987c.13397622-.20765885.37227664-.30430961.70558128-.28851198l-.33678687-.51387353.27486361-.14640598.63941118.77074806c.02086966.00634955.04195498.01296941.06325486.01985976l-.16116246-1.00165423.32202261-.03751471.21093039 1.29835849c.00494958-.00019035.00986492-.00028552.01474603-.00028552.09137892 0 .19151613.0333563.30041166.1000689zm1.4126044 1.60353697-.744472.47423844.7485161-.16477541.0005125-.19687908c0-.03939001-.0015103-.07691666-.0045566-.11258395zm-3.5819033.11258395-.00005257.19687908.62225081.13551035c.00978971-.01138505.01953283-.02264056.02922935-.03376652l-.64687104-.41120686c-.00304632.03566729-.00455655.07319394-.00455655.11258395zm3.5001223-.40597073c-.1089204-.18863718-.3233028-.25722807-.6567173-.20786983l-.4574176.69475176c.0395795.04518291.0799648.09343446.1211557.14475465zm-3.41378474 0 .76584215.48590405c.07476877-.0767877.14634337-.14469501.21472378-.20372195l-.32384867-.49005193c-.33341449-.04935824-.5477969.01923265-.65671726.20786983z" fill="#cf6900"/><path d="m5.43729362 7.79038271c-1.16774431 1.95565684-1.75161647 3.52617249-1.75161647 4.71154709.79571248.631084 1.87787408.9466261 3.24648479.9466261 1.36861072 0 2.40502899-.3155421 3.10925486-.9466261-.38534656-1.4051647-.90595354-2.97568039-1.56182095-4.71154709z" fill="#00a727"/><path d="m6.98527549 5.51745666c.80783459 0 1.46271393.65487934 1.46271393 1.46271394v1.00064672h-2.92542787v-1.00064672c0-.8078346.65487934-1.46271394 1.46271394-1.46271394z" fill="#e31d1c"/><path d="m.95881343 3.77797659c1.5412323.31751461 2.31184846.72660113 2.31184846 1.22725958 0 .75098767.93089127 1.02178591 1.15956052.81876068.22866924-.20302523 1.83960711-.34503515 1.83960711-1.32392427 0-.97888911.13448327-1.24537809-.25680581-1.86698981-.39128909-.62161173-1.20724962-2.72286896-1.39502546-1.88099493-.18777584.84187402-.47043041 1.46554244-.99251815.96370874s-1.19271574-1.56426383-1.42806146-.96370874c-.23534572.60055508.74597678 1.20336273 0 1.20336273s-.22020443.03937103-.22020443.54786451c0 .50849347.08846328.98780146-.46496875.98780146-.36895468 0-.55343203.09562001-.55343203.28686005z" fill="#ff927f"/></g></g></g><g mask="url(#e)"><use fill="#2b409a" xlink:href="#b"/><g mask="url(#f)"><g fill-rule="nonzero"><path d="m1.32764499 3.28505196 5.28126726-2.31626725 21.51092825 17.13103699 2.7857478 3.4420421-5.6475555.7741648-8.7737935-7.382254-7.06200197-4.97391428z" fill="#f7fcff" transform="matrix(1 0 0 -1 -4 20.6181)"/><path d="m2.05065842 2.76731119 2.69056181-1.34416892 25.16402527 21.54362063h-3.7778619z" fill="#f50100" transform="matrix(1 0 0 -1 -4 21.7233)"/><path d="m1.32764499 3.28505196 5.28126726-2.31626725 21.51092825 17.13103699 2.7857478 3.4420421-5.6475555.7741648-8.7737935-7.382254-7.06200197-4.97391428z" fill="#f7fcff" transform="matrix(-1 0 0 -1 28 20.6181)"/><path d="m1.50784817 3.09890547 2.6905618-1.34416891 10.71510273 9.22394324 3.176798 1.030569 13.0833277 10.4993758h-3.7778619l-13.075977-10.2501652-3.4732688-1.2357627z" fill="#f50100" transform="matrix(-1 0 0 -1 28 21.5967)"/></g><path d="m14.3127673-1-.000682 7.99909357 10.6879147.00099999v4.66663544l-10.6879147-.0006666.000682 8.0006043h-4.66675002l-.00001536-8.0006041-10.64600192.0006667v-4.66663537l10.64600192-.001.00001536-7.99909393z" fill="#f50100" stroke="#f7fcff" stroke-width="2"/></g></g></g></g><rect height="32" mask="url(#c)" rx="2" width="43.335938"/></g></svg>