<svg height="32" viewBox="0 0 43 32" width="43" xmlns="http://www.w3.org/2000/svg" xmlns:xlink="http://www.w3.org/1999/xlink"><defs><path id="a" d="m0 0h42.666667v32h-42.666667z"/><mask id="b" fill="#fff"><path d="m0 0h43.335938v32h-43.335938z" fill="#fff" fill-rule="evenodd"/></mask><mask id="c" fill="#fff"><path d="m0 0h42.666667v32h-42.666667z" fill="#fff" fill-rule="evenodd"/></mask><mask id="d" fill="#fff"><use fill="#fff" fill-rule="evenodd" xlink:href="#a"/></mask><mask id="e" fill="#fff"><path d="m0 0h16v13.333333h-16z" fill="#fff" fill-rule="evenodd"/></mask></defs><g fill="none" fill-rule="evenodd"><g fill-rule="evenodd" mask="url(#b)"><g mask="url(#c)" transform="translate(.3346)"><use fill="#2e42a5" xlink:href="#a"/><g fill="#f7fcff" mask="url(#d)"><path d="m10.4 15.320289.4432182 1.3509208 1.349637.0291393-1.0757131.8640543.3909034 1.3689299-1.1080455-.8169058-1.10804546.8169058.39090337-1.3689299-1.07571312-.8640543 1.34963703-.0291393zm4.147263-3.1955869.4432181 1.3509208 1.3496371.0291394-1.0757131.8640543.3909033 1.3689299-1.1080454-.8169059-1.1080455.8169059.3909034-1.3689299-1.0757131-.8640543 1.349637-.0291394zm-8.29452597 0 .44321819 1.3509208 1.34963703.0291394-1.07571313.8640543.39090337 1.3689299-1.10804546-.8169059-1.10804545.8169059.39090337-1.3689299-1.07571313-.8640543 1.34963703-.0291394zm9.53010957-11.85803543-1.0455459 2.00536391h-3.2555839v1.07715794h2.4958429l-1.0166879 1.86562344h-1.479155v3.73105089l2.4362771-3.83904107 3.1529163 5.45948172h-1.2880636l-.4498881-.59776777h-2.8537925l-2.0074993 3.70613097.0013251.2066021-.0563251-.1036021-.0550454.1036021.0000454-.2066021-2.00621964-3.70613097h-2.85379249l-.44988807.59776777h-1.2880636l3.15291626-5.45948172 2.43627712 3.83904107v-6.67383227h-3.25558398l-1.0455458-2.00536391zm-1.8020883 7.07933442c-.4668195.71797463-.7002292 1.07696195-.7002292 1.07696195h1.3256263zm-7.1269035 0-.62539713 1.07696195h1.32562626s-.23340971-.35898732-.70022913-1.07696195zm-3.99433292-4.80805957.44321818 1.35092077 1.34963703.02913937-1.07571313.86405431.39090338 1.36892989-1.10804546-.81690583-1.10804546.81690583.39090337-1.36892989-1.07571312-.86405431 1.34963703-.02913937zm15.08095622 0 .4432182 1.35092077 1.349637.02913937-1.0757131.86405431.3909034 1.36892989-1.1080455-.81690583-1.1080454.81690583.3909033-1.36892989-1.0757131-.86405431 1.349637-.02913937z" transform="translate(20 8)"/></g><g mask="url(#d)"><path d="m-.666667-.666667h17.333333v14.666667h-17.333333z" stroke="#fff" stroke-width="1.333333"/><path d="m10.6666667 0h5.3333333v13.3333333h-5.3333333z" fill="#f50100" mask="url(#e)"/><path d="m0 0h5.33333333v13.3333333h-5.33333333z" fill="#2e42a5" mask="url(#e)"/><path d="m5.33333333 0h5.33333337v13.3333333h-5.33333337z" fill="#f7fcff" mask="url(#e)"/></g></g></g><rect height="32" mask="url(#b)" rx="2" width="43.335938"/></g></svg>