<svg height="32" viewBox="0 0 43 32" width="43" xmlns="http://www.w3.org/2000/svg" xmlns:xlink="http://www.w3.org/1999/xlink"><mask id="a" fill="#fff"><path d="m0 0h43.335938v32h-43.335938z" fill="#fff" fill-rule="evenodd"/></mask><mask id="b" fill="#fff"><path d="m0 0h42.666667v32h-42.666667z" fill="#fff" fill-rule="evenodd"/></mask><g fill="none" fill-rule="evenodd"><g fill-rule="evenodd" mask="url(#a)"><g mask="url(#b)" transform="translate(.3346)"><path d="m0 0h42.6666667v32h-42.6666667z" fill="#f7fcff"/><path d="m0 0h42.666667v10.666667h-42.666667z" fill="#c51918"/><path d="m0 21.333333h42.666667v10.666667h-42.666667z" fill="#409100"/><g fill="#fb0" transform="translate(13.3333 9.6)"><path d="m8.02685036 1.90638298-.78824381.55695931.2780817-.93332452-.76524316-.58910474.96010774-.01986697.31529753-.92104606.31529752.92104606.96010775.01986697-.76524316.58910474.27808169.93332452zm-3.32947977.81702128-.78824381.55695931.2780817-.93332453-.76524316-.58910473.96010775-.01986697.31529752-.92104606.31529752.92104606.96010775.01986697-.76524316.58910473.27808169.93332453zm-2.58959538 2.45106383-.7882438.55695931.27808169-.93332453-.76524316-.58910473.96010775-.01986697.31529752-.92104606.31529753.92104606.96010774.01986697-.76524316.58910473.2780817.93332453zm-.83236994 3.17730496-.78824381.55695931.2780817-.93332452-.76524316-.58910474.96010775-.01986697.31529752-.92104606.31529752.92104606.96010775.01986697-.76524316.58910474.2780817.93332452zm13.41040463 0-.7882438.55695931.2780817-.93332452-.7652432-.58910474.9601078-.01986697.3152975-.92104606.3152975.92104606.9601078.01986697-.7652432.58910474.2780817.93332452zm-1.017341-3.17730496-.7882439.55695931.2780817-.93332453-.7652431-.58910473.9601077-.01986697.3152976-.92104606.3152975.92104606.9601077.01986697-.7652431.58910473.2780817.93332453zm-2.5508106-2.45106383-.7882438.55695931.2780817-.93332453-.76524316-.58910473.96010776-.01986697.3152975-.92104606.3152975.92104606.9601078.01986697-.7652432.58910473.2780817.93332453zm-3.12238109 8.58979504c1.763094 0 3.32452129.1830283 4.68458659.5510371l-.2457826.8751581c-1.2748277-.3449451-2.75453058-.5183938-4.43880399-.5183938-1.68427342 0-3.16397629.1734487-4.43880402.5183938l-.24578255-.8751581c1.36006524-.3680088 2.92149256-.5510371 4.68458657-.5510371zm2.91178129-1.1458234c.1500697.1542526.2194274.3557861.208073.6046004l.538361.2224204c-.2958647.3496901-.6246752.4938118-.9864314.4323653-.3617561-.0614466-.5879634-.3005311-.67862179-.7172536h.48802499c.1656643-.3055185.3091957-.4862293.4305942-.5421325zm-5.90628933-.0907802c.12139856.0559032.26492997.236614.43059423.5421325h.48802501c-.09065838.4167225-.31686566.6558071-.67862184.7172536-.36175618.0614466-.69056661-.0826752-.98643131-.4323653l.53836099-.2224203c-.01135439-.2488143.05800326-.4503478.20807292-.6046005zm2.86399923-.18734686c.1124369.07225453.22942138.27118236.35095346.59678366l.48327558.0679199c-.14777266.4000498-.40505265.6053256-.77183995.6158275-.3667873.0105018-.6723399-.177979-.9166578-.5654423l.56407662-.1453304c.02338438-.2479731.12011508-.4378926.29019209-.56975836z"/><path d="m8.01705961 4.21628944c1.00491274.06318654 1.4517213.65333398 1.341883 1.7741635-.07786584-.19638539-.25631668-.29457809-.53535254-.29457809-.27903585 0-.49897532.13850904-.6598184.41552713v1.60244031c0 .53584087.51737968 1.09425889 1.45256633 1.55117747.6234578.30461238 1.1681701.15230619 1.6341371-.45691858.2485334.58436709.6876158.95566841 1.3172471 1.11390395.6296313.15823557 1.1474258.05579131 1.5533836-.30733271-.4106045.98717218-1.0057836 1.35721918-1.7855373 1.11014108s-1.1911383-.6911117-1.2341537-1.33210089c-.3334689.61639209-.8284945.88769259-1.4850768.81390149-.65658228-.0737911-1.19331225-.58770643-1.61018989-1.54174589l-.0313858-1.90257877-.03004226 1.90257877c-.41687764.95403946-.95360761 1.46795479-1.61018989 1.54174589-.65658229.0737911-1.15160789-.1975094-1.48507681-.81390149-.0430154.64098919-.45439995 1.08502279-1.23415365 1.33210089-.77975369.2470781-1.37493282-.1229689-1.78553739-1.11014108.40595784.36312402.9237524.46556828 1.55338368.30733271.62963128-.15823554 1.06871363-.52953686 1.31724705-1.11390395.46596697.60922477 1.01067935.76153096 1.63413712.45691858.93518666-.45691858 1.45256633-1.0153366 1.45256633-1.55117747v-1.60244031c-.16084308-.27701809-.38078254-.41552713-.6598184-.41552713-.27903585 0-.4574867.0981927-.53535254.29457809-.10985698-1.12102008.33712221-1.71117762 1.34093756-1.77047261.01510459-.0032795.02915941-.00276865.04310992-.00215835zm-.08619309.45291325c-.46295878 0-.74132247.19596045-.83509106.58788134.4076475 0 .68601119.08884227.83509106.26652683.30181635-.17768456.60466242-.26652683.90853823-.26652683-.14273337-.39192089-.44557944-.58788134-.90853823-.58788134z"/></g></g></g><rect height="32" mask="url(#a)" rx="2" width="43.335938"/></g></svg>