<svg height="32" viewBox="0 0 43 32" width="43" xmlns="http://www.w3.org/2000/svg" xmlns:xlink="http://www.w3.org/1999/xlink"><defs><path id="a" d="m0 0h42.666667v32h-42.666667z"/><mask id="b" fill="#fff"><path d="m0 0h43.335938v32h-43.335938z" fill="#fff" fill-rule="evenodd"/></mask><mask id="c" fill="#fff"><path d="m0 0h42.666667v32h-42.666667z" fill="#fff" fill-rule="evenodd"/></mask><mask id="d" fill="#fff"><use fill="#fff" fill-rule="evenodd" xlink:href="#a"/></mask></defs><g fill="none" fill-rule="evenodd"><g fill-rule="evenodd" mask="url(#b)"><g mask="url(#c)" transform="translate(.3346)"><use fill="#2e42a5" xlink:href="#a"/><g fill="#f7fcff"><path d="m4.392635 13.4178493-1.18073694.7306208.45839591-1.2265294-1.0036273-.9285562h1.21732797l.50864036-1.3267178.38815782 1.3267178h1.21920718l-.87865609.9285562.43019428 1.2265294z" mask="url(#d)"/><path d="m9.72596833 8.08451595-1.18073693.73062082.4583959-1.22652944-1.0036273-.92855614h1.21732797l.50864036-1.32671786.38815787 1.32671786h1.2192071l-.8786561.92855614.4301943 1.22652944z" mask="url(#d)"/><path d="m15.0593017 13.4178493-1.180737.7306208.4583959-1.2265294-1.0036273-.9285562h1.217328l.5086404-1.3267178.3881578 1.3267178h1.2192072l-.8786561.9285562.4301943 1.2265294z" mask="url(#d)"/><path d="m9.72596833 18.7511826-1.18073693.7306208.4583959-1.2265294-1.0036273-.9285561h1.21732797l.50864036-1.3267179.38815787 1.3267179h1.2192071l-.8786561.9285561.4301943 1.2265294z" mask="url(#d)"/></g><path d="m9.7883008 22.0602429c11.9264781-8.057729 19.7045884-12.98311054 23.334331-14.7761446-1.7634631 2.65055347-1.7634631 5.7323185 0 9.2452951 2.6451946 5.2694648 3.6824606 4.9084312 6.4671793 5.5308495zm-1.37489511 2.9064729.40750947-1.0132505 30.33823054.0535502.8408543 1.1133246-.8408543 1.5463266-30.33823054-.5866263z" fill="#feca00" mask="url(#d)"/></g></g><rect height="32" mask="url(#b)" rx="2" width="43.335938"/></g></svg>