<svg height="32" viewBox="0 0 43 32" width="43" xmlns="http://www.w3.org/2000/svg" xmlns:xlink="http://www.w3.org/1999/xlink"><defs><path id="a" d="m0 0h42.666667v32h-42.666667z"/><path id="b" d="m0 .902778h13.333333v35.097222h-13.333333z"/><mask id="c" fill="#fff"><path d="m0 0h43.335938v32h-43.335938z" fill="#fff" fill-rule="evenodd"/></mask><mask id="d" fill="#fff"><path d="m0 0h42.666667v32h-42.666667z" fill="#fff" fill-rule="evenodd"/></mask><mask id="e" fill="#fff"><use fill="#fff" fill-rule="evenodd" xlink:href="#a"/></mask><mask id="f" fill="#fff"><use fill="#fff" fill-rule="evenodd" xlink:href="#b"/></mask><mask id="g" fill="#fff"><path d="m2.42268928.06785301-2.36209439 1.33186849v2.20750145l2.36209439 1.38566985h2.5583825l2.4182645-1.38566985v-2.20750145l-2.4182645-1.33186849z" fill="#fff" fill-rule="evenodd"/></mask></defs><g fill="none" fill-rule="evenodd"><g fill-rule="evenodd" mask="url(#c)"><g mask="url(#d)" transform="translate(.3346)"><use fill="#29c470" xlink:href="#a"/><g mask="url(#e)"><g transform="translate(2.6667 -1.3333)"><g fill-rule="evenodd"><use fill="#c51918" xlink:href="#b"/><path d="m.79380475 27.0643765-.72811777.9356235-.06568698-.0649461.70642775-.9077521v-.1822203l.00266235-.0169277.08213599-.2529115-.05026914-.0881027-.41660646.4165514.80305048-1.2506798v.4273648l.1541139.1391056.36810239-.6438161-.36934392-.6196221-.26655552.2048505.10809561.2171559-.07433317.0516116-.60173633-1.0066919.38336059.2621307.06753113-.097924-.36736059-.3741991.16249425-.178946-.53692516-.7836225.06915396-.0602001.58446507.8530052-.15161493.1669653.35856549.3652402-.16508682.2393855-.10994754-.0751789.20976128.3509261.35359739-.2717431.45047425.7557288-.45171578.790057-.26247255-.2369117v-.1706071l-.26348374.4103526.11166513.1957065-.09440061.2906765zm0-5.5153348-.72811777.9356236-.06568698-.0649461.70642775-.9077521v-.1822203l.00266235-.0169277.08213599-.2529115-.05026914-.0881027-.41660646.4165514.80305048-1.2506799v.4273649l.1541139.1391056.36810239-.6438161-.36934392-.6196221-.26655552.2048505.10809561.2171559-.07433317.0516116-.60173633-1.0066919.38336059.2621307.06753113-.0979241-.36736059-.374199.16249425-.1789461-.53692516-.7836224.06915396-.0602001.58446507.8530052-.15161493.1669652.35856549.3652402-.16508682.2393856-.10994754-.0751789.20976128.3509261.35359739-.2717431.45047425.7557288-.45171578.790057-.26247255-.2369117v-.1706071l-.26348374.4103526.11166513.1957065-.09440061.2906765zm0-6.2047515-.72811777.9356235-.06568698-.0649461.70642775-.9077521v-.1822202l.00266235-.0169278.08213599-.2529115-.05026914-.0881027-.41660646.4165515.80305048-1.2506799v.4273649l.1541139.1391055.36810239-.6438161-.36934392-.6196221-.26655552.2048506.10809561.2171559-.07433317.0516115-.60173633-1.0066919.38336059.2621308.06753113-.0979241-.36736059-.3741991.16249425-.178946-.53692516-.7836224.06915396-.0602001.58446507.8530051-.15161493.1669653.35856549.3652402-.16508682.2393855-.10994754-.0751789.20976128.3509261.35359739-.271743.45047425.7557287-.45171578.790057-.26247255-.2369117v-.170607l-.26348374.4103525.11166513.1957066-.09440061.2906764zm0-6.10626345-.72811777.93562355-.06568698-.0649461.70642775-.90775212v-.18222027l.00266235-.01692774.08213599-.25291149-.05026914-.08810272-.41660646.41655147.80305048-1.25067989v.4273649l.1541139.13910556.36810239-.6438161-.36934392-.61962212-.26655552.20485054.10809561.2171559-.07433317.05161157-.60173633-1.00669188.38336059.26213073.06753113-.09792409-.36736059-.37419904.16249425-.17894606-.53692516-.78362241.06915396-.06020012.58446507.85300516-.15161493.16696527.35856549.3652402-.16508682.23938555-.10994754-.07517891.20976128.3509261.35359739-.27174305.45047425.75572872-.45171578.79005705-.26247255-.23691174v-.17060705l-.26348374.41035254.11166513.19570656-.09440061.29067646zm0-6.69719215-.72811777.93562354-.06568698-.06494612.70642775-.9077521v-.18222026l.00266235-.01692774.08213599-.25291149-.05026914-.08810272-.41660646.41655146.80305048-1.25067988v.42736489l.1541139.13910556.36810239-.6438161-.36934392-.61962211-.26655552.20485053.10809561.21715591-.07433317.05161157-.60173633-1.00669189.38336059.26213073.06753113-.09792409-.36736059-.37419903.16249425-.17894607-.53692516-.78362241.06915396-.06020011.58446507.85300516-.15161493.16696526.35856549.36524021-.16508682.23938554-.10994754-.0751789.20976128.3509261.35359739-.27174306.45047425.75572873-.45171578.79005704-.26247255-.23691173v-.17060706l-.26348374.41035254.11166513.19570657-.09440061.29067646zm11.74572385 24.5235419.7281178.9356235.0656869-.0649461-.7064277-.9077521v-.1822203l-.0026624-.0169277-.082136-.2529115.0502692-.0881027.4166064.4165514-.8030504-1.2506798v.4273648l-.1541139.1391056-.3681024-.6438161.3693439-.6196221.2665555.2048505-.1080956.2171559.0743332.0516116.6017363-1.0066919-.3833606.2621307-.0675311-.097924.3673606-.3741991-.1624943-.178946.5369252-.7836225-.069154-.0602001-.5844651.8530052.151615.1669653-.3585655.3652402.1650868.2393855.1099476-.0751789-.2097613.3509261-.3535974-.2717431-.4504743.7557288.4517158.790057.2624726-.2369117v-.1706071l.2634837.4103526-.1116651.1957065.0944006.2906765zm0-5.5153348.7281178.9356236.0656869-.0649461-.7064277-.9077521v-.1822203l-.0026624-.0169277-.082136-.2529115.0502692-.0881027.4166064.4165514-.8030504-1.2506799v.4273649l-.1541139.1391056-.3681024-.6438161.3693439-.6196221.2665555.2048505-.1080956.2171559.0743332.0516116.6017363-1.0066919-.3833606.2621307-.0675311-.0979241.3673606-.374199-.1624943-.1789461.5369252-.7836224-.069154-.0602001-.5844651.8530052.151615.1669652-.3585655.3652402.1650868.2393856.1099476-.0751789-.2097613.3509261-.3535974-.2717431-.4504743.7557288.4517158.790057.2624726-.2369117v-.1706071l.2634837.4103526-.1116651.1957065.0944006.2906765zm0-6.2047515.7281178.9356235.0656869-.0649461-.7064277-.9077521v-.1822202l-.0026624-.0169278-.082136-.2529115.0502692-.0881027.4166064.4165515-.8030504-1.2506799v.4273649l-.1541139.1391055-.3681024-.6438161.3693439-.6196221.2665555.2048506-.1080956.2171559.0743332.0516115.6017363-1.0066919-.3833606.2621308-.0675311-.0979241.3673606-.3741991-.1624943-.178946.5369252-.7836224-.069154-.0602001-.5844651.8530051.151615.1669653-.3585655.3652402.1650868.2393855.1099476-.0751789-.2097613.3509261-.3535974-.271743-.4504743.7557287.4517158.790057.2624726-.2369117v-.170607l.2634837.4103525-.1116651.1957066.0944006.2906764zm0-6.10626345.7281178.93562355.0656869-.0649461-.7064277-.90775212v-.18222027l-.0026624-.01692774-.082136-.25291149.0502692-.08810272.4166064.41655147-.8030504-1.25067989v.4273649l-.1541139.13910556-.3681024-.6438161.3693439-.61962212.2665555.20485054-.1080956.2171559.0743332.05161157.6017363-1.00669188-.3833606.26213073-.0675311-.09792409.3673606-.37419904-.1624943-.17894606.5369252-.78362241-.069154-.06020012-.5844651.85300516.151615.16696527-.3585655.3652402.1650868.23938555.1099476-.07517891-.2097613.3509261-.3535974-.27174305-.4504743.75572872.4517158.79005705.2624726-.23691174v-.17060705l.2634837.41035254-.1116651.19570656.0944006.29067646zm0-6.69719215.7281178.93562354.0656869-.06494612-.7064277-.9077521v-.18222026l-.0026624-.01692774-.082136-.25291149.0502692-.08810272.4166064.41655146-.8030504-1.25067988v.42736489l-.1541139.13910556-.3681024-.6438161.3693439-.61962211.2665555.20485053-.1080956.21715591.0743332.05161157.6017363-1.00669189-.3833606.26213073-.0675311-.09792409.3673606-.37419903-.1624943-.17894607.5369252-.78362241-.069154-.06020011-.5844651.85300516.151615.16696526-.3585655.36524021.1650868.23938554.1099476-.0751789-.2097613.3509261-.3535974-.27174306-.4504743.75572873.4517158.79005704.2624726-.23691173v-.17060706l.2634837.41035254-.1116651.19570657.0944006.29067646z" fill="#e8aa00" mask="url(#f)"/><g fill="none" mask="url(#f)"><g transform="translate(3.2 20.2667)"><path d="m3.37307411.03952781s.16741914.14879077.50225743.44637231l2.07157111.00021099-.00090265.4854167.47287906.00069441-.00087906.38830559.56725074.0005833v1.26388889l-.56725074-.00047219.00087906.38936108-.47287906-.00036108.00090265.38924997-2.01786037.00159363-.15745362.13993409c-.26567637.23611511-.39851455.35417267-.39851455.35417267s-.13347059-.11805756-.40041176-.35417267l-.15966235-.14177769-1.8690472.00024997-.0009528-.38924997-.4710236.00036108-.0009764-.38936108-.471.00047219v-1.26388889l.471-.0005833.0009764-.38830559.4710236-.00069441.0009528-.4854167 1.92447278-.00021099c.33643235-.29758154.50464853-.44637231.50464853-.44637231z" fill="#389f5d" stroke="#e8aa00" stroke-width=".666667"/><path d="m1.22030299.7508956v.85887002l1.00076239-.85887002zm4.21020192 0v.85887002l-1.0007624-.85887002zm-4.21020192 2.41442557v-.85887002l1.00076239.85887002zm4.21020192 0v-.85887002l-1.0007624.85887002z" fill="#c51918"/><path d="m3.33892427.3724105-.34544934.45238622h.68655531zm0 1.32738622-.34544934-.45238622h.68655531zm0 .61705823-.34544934.45238622h.68655531zm0 1.32738622-.34544934-.45238622h.68655531z" fill="#e8aa00"/><path d="m3.69272476.77117012-.00044411.194.19877744.00044445v.26666666l-.19877744-.00011111.00044411.19455556h-.69211078l-.00033333-.19455556-.198.00011111v-.26666666l.198-.00044445.00033333-.194zm0 1.94444445-.00044411.19355555.19877744.00088889v.26666667l-.19877744-.00055556.00044411.195h-.69211078l-.00033333-.195-.198.00055556v-.26666667l.198-.00088889.00033333-.19355555z" fill="#af0100"/><path d="m2.00076912 1.34463273-.32882812.45441305h.65352184zm0 1.33333333-.32882812-.45441305h.65352184zm2.73746312-1.33333333-.32882811.45441305h.65352184zm0 1.33333333-.32882811-.45441305h.65352184z" fill="#af0100"/><path d="m2.3283473 1.74339234-.00060057.198.18939113.00033333v.272l-.18939113-.00033333.00060057.19866666h-.65881001l-.00079056-.19866666-.188.00033333v-.272l.188-.00033333.00079056-.198zm2.73746312 0-.00006369.198.18885426.00033333v.272l-.18885426-.00033333.00006369.19866666h-.65881l-.00025369-.19866666-.18853687.00033333v-.272l.18853687-.00033333.00025369-.198z" fill="#e8aa00"/></g></g><g fill="none" mask="url(#f)"><g transform="translate(3.2 24.2667)"><g fill="none" fill-rule="evenodd"><path d="m.09439528 2.52777778h3.68141593v2.43055555h-3.68141593z" fill="#e8aa00" fill-rule="nonzero" mask="url(#g)"/><g mask="url(#g)"><g transform="translate(-.2832 .0972)"><path d="m0 0h4.058997v2.430556h-4.058997z" fill="#f9e8e7" fill-rule="evenodd"/><path d="m.9439528 1.41642902 1.22202255-.73587346v.73587346z" fill="#e8aa00" fill-rule="nonzero"/></g></g><g mask="url(#g)"><g transform="matrix(-1 0 0 1 7.8348 .0972)"><path d="m0 0h4.058997v2.430556h-4.058997z" fill="#e8aa00" fill-rule="evenodd"/><path d="m1.22713864 1.41642902 1.22202255-.73587346v.73587346z" fill="#f9e8e7" fill-rule="nonzero"/></g></g><g mask="url(#g)"><g transform="matrix(-1 0 0 -1 7.4572 4.9584)"><path d="m0 0h3.681416v2.430556h-3.681416z" fill="#f9e8e7" fill-rule="evenodd"/><path d="m.9439528 1.41642902 1.22202255-.73587346v.73587346z" fill="#e8aa00" fill-rule="nonzero"/></g></g><path d="m.66076696 4.13865124 1.22202255-.73587346v.73587346z" fill="#fcfcfc" fill-rule="nonzero" mask="url(#g)" transform="matrix(1 0 0 -1 0 7.527)"/></g><path d="m2.45427729 1.55555556h.61356932l.61356932-.19444445.61356932.19444445h.61356932v1.84722222h-.61356932l-.61356932.29166666-.61356932-.29166666h-.61356932z" fill="#c51918" fill-rule="evenodd"/><g fill-rule="nonzero"><path d="m1.18289086 1.61678568-.00033334.37533334.13692593.00083503v.26666667l-.13692593-.0005017.00033334.14401808h-.33333334v-.78635142zm.13864306 0h.33333334v.78635142h-.33333334zm-.13864306.97222223-.00033334.37611111.13692593.00005725v.26666667l-.13692593-.00072392.00033334.1442403h-.33333334v-.78635141zm.13864306 0h.33333334v.78635141h-.33333334zm5.05309735-.97222223-.00007375.37533334.13666635.00083503v.26666667l-.13666635-.0005017.00007375.14401808h-.33333333v-.78635142zm.13864307 0h.33333333v.78635142h-.33333333zm-.13864307.97222223-.00007375.37611111.13666635.00005725v.26666667l-.13666635-.00072392.00007375.1442403h-.33333333v-.78635141zm.13864307 0h.33333333v.78635141h-.33333333zm-1.64896756-2.13888889-.00074926.376.13734186.00016837v.26666666l-.13734186-.00083503.00074926.14435141h-.33333333v-.78635141zm.13864307 0h.33333334v.78635141h-.33333334zm-2.40412979 0-.00026254.376.13685514.00016837v.26666666l-.13685514-.00083503.00026254.14435141h-.33333333v-.78635141zm.13864307 0h.33333333v.78635141h-.33333333zm2.12684365 3.30555555-.00074926.37544445.13734186.00072392v.26666667l-.13734186-.00039059.00074926.14390697h-.33333333v-.78635142zm.13864307 0h.33333334v.78635142h-.33333334zm-2.40412979 0-.00026254.37544445.13685514.00072392v.26666667l-.13685514-.00039059.00026254.14390697h-.33333333v-.78635142zm.13864307 0h.33333333v.78635142h-.33333333z" fill="#c9343f"/><path d="m3.59453486 1.69067064v.26434926h-.09439528v-.16712704h-.28284181l-.00005514.23477778.49.423.491-.424.00037921-.23377778h-.28284181v.16712704h-.09439528v-.26434926h.47163237v.30224665h.38865986v.43318255h-.3613953v-.09722223h.26700002v-.2387381l-.32103907-.00046887-.482.418.482.417.32103907.00051626v-.23873811h-.26700002v-.09722222h.3613953v.43318255h-.38865986v.30224664h-.47163237v-.26434926h.09439528v.16712704h.28284181l-.00037921-.2347629-.491-.424-.49.423.00005514.2357629h.28284181v-.16712704h.09439528v.26434926h-.47163237v-.30224664h-.38865986v-.43318255h.3613953v.09722222h-.26700001v.23873811l.31960471-.00051626.482-.417-.482-.418-.31960471.00046887v.2387381h.26700001v.09722223h-.3613953v-.43318255h.38865986v-.30224665z" fill="#fff"/></g></g></g><g fill="none" mask="url(#f)"><g transform="translate(2.6667 7.7333)"><path d="m1.03896104 1.12820513h1.03896104v2.87179487h-1.03896104zm4.88311688 0h1.03896104v2.87179487h-1.03896104zm-2.8051948-1.12820513h1.66233766v5.33333333h-1.66233766z" fill="#e8aa00" fill-rule="nonzero"/><g fill-rule="evenodd"><path d="m0 1.53846154h1.03896104v1.94871795h-1.03896104zm2.07792208-1.12820513h1.03896104v4.1025641h-1.03896104zm4.88311688 1.12820513h1.03896104v1.94871795h-1.03896104zm-2.18181818-1.12820513h1.03896104v4.1025641h-1.03896104z" fill="#389f5d"/><path d="m.51948052 2.25641026c.1721407 0 .31168831-.13775854.31168831-.30769231s-.13954761-.30769231-.31168831-.30769231-.31168831.13775854-.31168831.30769231.13954761.30769231.31168831.30769231zm0 1.12820512c.1721407 0 .31168831-.13775853.31168831-.3076923s-.13954761-.30769231-.31168831-.30769231-.31168831.13775854-.31168831.30769231.13954761.3076923.31168831.3076923zm2.07792208.92307693c.1721407 0 .31168831-.13775854.31168831-.30769231s-.13954761-.30769231-.31168831-.30769231-.31168831.13775854-.31168831.30769231.13954761.30769231.31168831.30769231zm0-3.07692308c.1721407 0 .31168831-.13775854.31168831-.30769231s-.13954761-.3076923-.31168831-.3076923-.31168831.13775853-.31168831.3076923.13954761.30769231.31168831.30769231zm4.88311688 1.02564103c.1721407 0 .31168831-.13775854.31168831-.30769231s-.13954761-.30769231-.31168831-.30769231-.31168831.13775854-.31168831.30769231.13954761.30769231.31168831.30769231zm0 1.12820512c.1721407 0 .31168831-.13775853.31168831-.3076923s-.13954761-.30769231-.31168831-.30769231-.31168831.13775854-.31168831.30769231.13954761.3076923.31168831.3076923zm-2.18181818.92307693c.1721407 0 .31168831-.13775854.31168831-.30769231s-.13954761-.30769231-.31168831-.30769231-.31168831.13775854-.31168831.30769231.13954761.30769231.31168831.30769231zm0-3.07692308c.1721407 0 .31168831-.13775854.31168831-.30769231s-.13954761-.3076923-.31168831-.3076923-.31168831.13775853-.31168831.3076923.13954761.30769231.31168831.30769231z" fill="#e1e5e8"/><path d="m1.55844156 1.94871795c.1721407 0 .31168831-.13775854.31168831-.30769231s-.13954761-.30769231-.31168831-.30769231-.31168831.13775854-.31168831.30769231.13954761.30769231.31168831.30769231zm2.38961039-1.12820513c.1721407 0 .31168831-.13775854.31168831-.30769231s-.13954761-.3076923-.31168831-.3076923-.31168831.13775853-.31168831.3076923.13954761.30769231.31168831.30769231zm0 4.41025641c.1721407 0 .31168831-.13775854.31168831-.30769231s-.13954761-.3076923-.31168831-.3076923-.31168831.13775853-.31168831.3076923.13954761.30769231.31168831.30769231zm2.49350649-3.28205128c.1721407 0 .31168831-.13775854.31168831-.30769231s-.13954761-.30769231-.31168831-.30769231-.31168831.13775854-.31168831.30769231.13954761.30769231.31168831.30769231zm-4.88311688 1.84615384c.1721407 0 .31168831-.13775853.31168831-.3076923s-.13954761-.30769231-.31168831-.30769231-.31168831.13775854-.31168831.30769231.13954761.3076923.31168831.3076923zm4.88311688 0c.1721407 0 .31168831-.13775853.31168831-.3076923s-.13954761-.30769231-.31168831-.30769231-.31168831.13775854-.31168831.30769231.13954761.3076923.31168831.3076923z" fill="#c51918"/><path d="m4.7956989 1.20846079 1.15188552 1.047 1.53293506.00094947v.41025641l-1.49093506-.00020588.00023963.02161824-1.19412515 1.21448665h-1.64223603l-1.01142943-1.09611719-.00044902-.1399877-1.726.00020588v-.41025641l1.726-.00094947.00044902-.13355568 1.01142943-.91344432z" fill="#c51918"/></g><path d="m4.52913958 1.17726083.11163548.10734831-.0663207.06665169.22.223.15300569-.11943267.42058774.40812935-.640973.60716488.63686649.64542785-.38812936.40933581h-.16460506l-.32873016.20680789-.49202234-.45643311-.49242891.45643311-.32873016-.20680789h-.16460506l-.38812936-.40933581.63686648-.64542785-.64097299-.60716488.42058774-.40812935.15141226.11843267.221-.222-.06572728-.06665169.11163549-.10734831.53809179.545zm.08548316 1.39938233-.51216838.48361767.05921888.05698493-.05821888.05301507.3973452.36747481.26497016-.16669574h.14245338l.2402467-.25337321zm-1.24874334 0-.53384705.54102353.2402467.25337321h.14245338l.26497016.16669574.45553566-.42176447zm.62357496-.63138233-.023.021-.49182945.50017496.51482945.48782504.51642287-.48782504-.49442287-.50117496zm.49971996-.45951774-.38389804.35422199.01617808.01629575.14994286.13866532-.00694286.00633468.35387492.35865419.526034-.49828834-.20778831-.20163333-.15462895.1214728zm-.9978465 0-.2927717.29572306-.15462895-.1214728-.20778831.20163333.526034.49828834.513053-.51994994z" fill="#e8aa00" fill-rule="nonzero"/></g></g></g><path d="m10.5852012 29.3333741c.1555503.0113834.3014307 1.6583377-1.72046126 2.9113931-.07263907.0403909-.13974125.0660359-.20130655.076935.35936628.0048855.83017783-.0571758 1.25751282-.1834513-.80601968.3237161-1.44837952.4138514-1.92707952.270406-.06962929-.0300291-.14306734-.0534967-.22034104-.0710323-.20360599-.0462038-.41211942-.0505436-.66264841-.0272431.10302515.0496143.22615253.1060293.36935791.1641485v.0588033c-.28432635-.1153924-.61778692-.1696187-.75741287-.18607-.1350217.0164513-.46848227.0706776-.75280862.18607v-.0588033c.14320538-.0581192.26633276-.1145342.37223269-.1638378l.06840152.0069243c-.28284003-.030981-.51131549-.0305081-.73392471.0200081-.07727369.0175356-.15071175.0410032-.22034104.0710323-.47869999.1434454-1.12105984.0533101-1.92707952-.270406.38246522.1130167.79975634.1745961 1.14116593.1822998-.06140468-.0094693-.12884129-.0351731-.20187513-.0757835-2.021892-1.2530554-1.87601158-2.9000097-1.72046129-2.9113931.12284832-.0089903 1.09733168 1.4718318 2.19273795 2.5012962.11588324.1627621.11588324.299461 0 .4100969-.04218791.0402776-.08988168.0658919-.14308131.0768429.19513031-.0045292.35655351-.0283662.45964162-.0728251.09385238-.0404758.19350121-.0723192.29820637-.0960797.29270523-.066423.57801682-.0670135.9165932-.0299275.03469152.0038.13081638.0151531.13363561.0154731l.05380529.0051863c.01976237 0 .04141811.0029098.06515548.0083725.02433354-.0054627.04598928-.0083725.06575165-.0083725l.05380529-.0051863c.00281923-.00032.09894409-.0116731.13363561-.0154731.33857638-.037086.62388797-.0364955.9165932.0299275.10470516.0237605.20435399.0556039.29820637.0960797.07580648.0326931.18315758.054235.31212922.0648442-.04110603-.0135858-.07857385-.036487-.11248438-.068862-.11588324-.1106359-.11588324-.2473348 0-.4100969 1.09540626-1.0294644 2.06988962-2.5102865 2.19273792-2.5012962z" fill="#e8aa00" fill-rule="nonzero" mask="url(#f)"/><g fill="none" fill-rule="evenodd" mask="url(#f)"><g transform="translate(2.6667 14.1333)"><path d="m2.35199062.50319585-1.6692387 1.47101463v1.40103852l1.4593049 1.46638999h2.97970554l1.64288656-1.56464464v-1.19277809l-1.64288656-1.58102041z" fill="#389f5d" fill-rule="evenodd"/><path d="m2.54867257 4.47222222h.37758112v.29166667h-.37758112zm0-3.81337084h.37758112v.29166666h-.37758112zm.9439528 3.81337084h.37758112v.29166667h-.37758112zm0-3.81337084h.37758112v.29166666h-.37758112zm.9439528 3.81337084h.37758112v.29166667h-.37758112zm0-3.81337084h.37758112v.29166666h-.37758112z" fill="#c51918" fill-rule="evenodd"/><path d="m3.02064897.58333333h.38435374v.29166667h-.38435374zm0 3.88888889h.38435374v.29166667h-.38435374zm.96088435-3.88888889h.38435374v.29166667h-.38435374zm0 3.88888889h.38435374v.29166667h-.38435374z" fill="#e8aa00" fill-rule="nonzero"/><g fill-rule="evenodd"><path d="m1.21829119.32256399h5.04004136v.77883489h.72166584v3.21974619h-.72166584v.66556911h-5.04004136v-.66556911h-.78364489v-3.21974619h.78364489zm.28318584 1.07050156h-.78364489v2.63641286h.78364489v.66556911h4.47366968v-.66556911h.72166584v-2.63641286h-.72166584v-.77883489h-4.47366968z" fill="#750100"/><path d="m2.73746313 0h.4719764v.48611111h-.4719764zm.75516224 0h.4719764v.48611111h-.4719764zm.75516224 0h.4719764v.48611111h-.4719764zm-1.51032448 4.86111111h.4719764v.48611111h-.4719764zm.75516224 0h.4719764v.48611111h-.4719764zm.75516224 0h.4719764v.48611111h-.4719764zm-4.25485496-1.0765118v-.4719764h.48611111v.4719764zm0-.77777778v-.4719764h.48611111v.4719764zm0-.77777777v-.47197641h.48611111v.47197641zm6.79646017 1.55555555v-.4719764h.48611111v.4719764zm0-.77777778v-.4719764h.48611111v.4719764zm0-.77777777v-.47197641h.48611111v.47197641z" fill="#389f5d"/><path d="m2.37115347.91282278-.81403588.70802654v2.29102679l.67557874.47805782h2.92884533l.67459211-.47805782v-2.29102679l-.76134982-.70802654z" fill="#c51918"/><path d="m3.73769344 1.86247353-.98225033.83924905h.98225033z" fill="#e1e5e8"/></g><path d="m3.73769344 2.64025131-.98225033.83924905h.98225033z" fill="#e8aa00" fill-rule="nonzero" transform="matrix(1 0 0 -1 0 6.1032)"/><path d="m4.68164624 1.86247353-.98225033.83924905h.98225033z" fill="#e8aa00" fill-rule="evenodd" transform="matrix(-1 0 0 1 8.3338 0)"/><ellipse cx="3.681416" cy="2.625" fill="#29ae66" fill-rule="evenodd" rx="1" ry="1"/><path d="m4.68164624 2.64025131-.98225033.83924905h.98225033z" fill="#e1e5e8" fill-rule="nonzero" transform="matrix(-1 0 0 -1 8.3338 6.1032)"/><path d="m.75516224 2.33333333h.84955752v.272h-.84955752zm0 .49583333h.84955752v.27199999h-.84955752zm5.09734513-.49583333h.84955753v.272h-.84955753zm0 .49583333h.84955753v.27199999h-.84955753z" fill="#c51918" fill-rule="evenodd"/><path d="m.75516224 2.04166667h.75516224v.29749999h-.75516224zm0 .49583332h.75516224v.2975h-.75516224zm0 .49583332h.75516224v.2975h-.75516224zm5.09734513-.99166664h.75516225v.29749999h-.75516225zm0 .49583332h.75516225v.2975h-.75516225zm0 .49583332h.75516225v.2975h-.75516225z" fill="#e8aa00" fill-rule="nonzero"/></g></g><g fill="none" fill-rule="evenodd" mask="url(#f)"><g transform="translate(2.6667 1.3333)"><path d="m5.20608553.16510405c.14396135 0 .41330132.13821979.80801993.41465937h1.00446909l.46371544.47373928v.47601022l.49768967.59094105-.00286863.54023522-3.94601596-.00058514-.00203598 2.45391848h-1.2370699c-.14396134 0-.41330132-.13821979-.80801992-.41465937h-1.00446909l-.46371544-.47373928v-.47601022l-.49768967-.59094105.00286862-.54023522 3.94513138-.00033334.00292057-2.453z" fill="#e8aa00" fill-rule="nonzero"/><g fill-rule="evenodd"><path d="m5.20608553.16510405c.14396135 0 .41330132.13821979.80801993.41465937h1.00446909l.46371544.47373928v.47601022l.49768967.59094105-.00286863.54023522-3.94601596-.00058514-.00203598 2.45391848h-1.2370699c-.14396134 0-.41330132-.13821979-.80801992-.41465937h-1.00446909l-.46371544-.47373928v-.47601022l-.49768967-.59094105.00286862-.54023522 3.94513138-.00033334.00292057-2.453z" fill="#e1e5e8" transform="matrix(-1 0 0 1 7.998 0)"/><path d="m4.47630304 4.26410398c.0636588.18047855.12155216.30432215.16673169.36643837l.71965953-.14865849.04320176.20865869-.85101664.19569627c-.10216237.04933123-.27946261.18986768-.52367037.41823682l-.06771275-.07625494-.06633406.07625494c-.24420776-.22836914-.421508-.36890559-.52367037-.41823682l-.85101664-.19569627.04320176-.20865869.71965953.14865849c.04517953-.06211622.10307289-.18595982.1667317-.36643837l.19927714.0586727-.08068789.38651293.39283883.36893109.39421752-.36893109-.08068788-.38651293zm-1.87560465-.54621661.11362038.17861643-.58782251.3937169.06543496.09176862-.16749523.12625475-.07293973-.10102337-.23241859.15658449-.11362037-.17861643.22303896-.15096806-.04540519-.06345953.16749522-.12625476.05190997.07271429zm2.72697443 0 .59682344.39933333.05328866-.07271429.16749523.12625476-.04678389.06345953.22441765.15096806-.11362037.17861643-.23379728-.15658449-.07156104.10102337-.16749523-.12625475.06405627-.09176862-.58644382-.3937169zm-3.45424715-.21333333.11362037.17861643-.58854978.39305023.06616223.09243529-.16749522.12625475-.07266701-.10169004-.23269132.15725116-.11362037-.17861643.22331169-.15063473-.04567792-.06379286.16749522-.12625476.0521827.07304762zm4.18151987 0 .59655072.39966666.05356139-.07304762.16749522.12625476-.04605661.06379286.22369038.15063473-.11362037.17861643-.23407001-.15725116-.07128832.10169004-.16749522-.12625475.06478354-.09143529-.58717109-.39405023zm-4.49320818-.64.11362037.17861643-.58786147.39305023.06547392.09243529-.16749522.12625475-.0729787-.10169004-.23237963.15725116-.11362037-.17861643.223-.15063473-.04536623-.06379286.16749522-.12625476.05287101.07304762zm4.8048965 0 .5968624.39966666.0532497-.07304762.16749523.12625476-.04674493.06379286.22437869.15063473-.11362037.17861643-.23375832-.15725116-.0716.10169004-.16749523-.12625475.06509523-.09243529-.58748278-.39305023zm.98551682-1.07266289.11362038.17861643-.2242748.14971312.04664103.06471447-.16749522.12625476-.05314581-.07396923-.5969663.40058827-.11362038-.17861643.58658668-.39497184-.06419912-.09051368.16749522-.12625475.0717039.09976843zm-6.56813794-.10666667.23248352.15599622.0728748-.1004351.16749522.12625476-.06637002.09118034.58875757.39430517-.11362037.17861644-.5971372-.40092161-.05297491.07430256-.16749522-.12625475.04547013-.06504781-.2231039-.14937979zm6.25644963-.53333333.11362038.17861643-.22458649.14971312.04695272.06471447-.16749523.12625476-.05345749-.07396923-.59665461.40058827-.11362038-.17861643.58727499-.39497184-.06488743-.09051368.16749522-.12625475.07139221.09976843zm-5.94476132-.10666667.23279521.15599622.07256311-.1004351.16749522.12625476-.06605833.09118034.58844589.39430517-.11362038.17861644-.59782551-.40092161-.0522866.07430256-.16749522-.12625475.04578182-.06504781-.22341559-.14937979zm5.21748859-.10666666.11362038.17861643-.22431376.14904645.04667999.06538114-.16749522.12625476-.05318477-.0746359-.59692734.40125494-.11362037-.17861643.58654771-.39463851-.06416016-.09084701.16749522-.12625476.07166494.10010177zm-4.49021586-.10666667.23252248.15532955.07283584-.09976843.16749522.12625475-.06533106.09051368.58771861.39497184-.11362037.17861643-.59809824-.40158827-.05201387.07496923-.16749522-.12625476.04550909-.06471447-.22314286-.14971312zm2.17808452-.74067045.11343796.128.02060886-.02133333c.24420776.22836914.42150799.36890559.52367037.41823682l.85101663.19569627-.04320176.20865869-.71965952-.14865849c-.04517954.06211622-.1030729.18595982-.1667317.36643837l-.19927714-.05867271.08068788-.38651292-.45111362-.4228527-.33594272.31618604.08068788.38651292-.19927714.0586727c-.06365881-.18047855-.12155217-.30432215-.1667317-.36643837l-.71965952.14865849-.04320176-.20865868.85101663-.19569627c.10216238-.04933124.27946261-.18986769.52367037-.41823683z" fill="#c51918"/><path d="m4.12018422.91326326-.00001145 1.706 2.90910235.00066667-.6931787.49924057v.65317699h-1.09711518l-1.17671756.62401173-.00009091-1.70709596-2.909.0004293.6931787-.49924058v-.65317699h1.09711519z" fill="#c51918"/></g><path d="m4.12018422.91326326-.00001145 1.706 2.90910235.00066667-.6931787.49924057v.65317699h-1.09711518l-1.17671756.62401173-.00009091-1.70709596-2.909.0004293.6931787-.49924058v-.65317699h1.09711519z" fill="#29ae66" fill-rule="nonzero" transform="matrix(-1 0 0 1 8.1824 0)"/><path d="m2.56385743 1.60120635.48798904.261.13503206-.19996438.34205059.24232769-.10508265.15663669 1.445.773.08973817-.1324418.34205059.24232769-.06078876.08811411.15718711.08434566-.19201096.37839624-.20217615-.1087419-.073.108-.09081841.13666769-.34205059-.2423277.134869-.20133999-1.446-.773-.11852452.17714511-.34205059-.24232769.08857511-.13381742-.442-.23560376z" fill="#29ae66" fill-rule="nonzero"/><path d="m2.66775354 1.60120635.48798904.261.13503205-.19996438.3420506.24232769-.10508265.15663669 1.445.773.08973816-.1324418.3420506.24232769-.06078876.08811411.15718711.08434566-.19201096.37839624-.20217615-.1087419-.073.108-.09081841.13666769-.3420506-.2423277.13486901-.20133999-1.446-.773-.11852452.17714511-.3420506-.24232769.08857512-.13381742-.442-.23560376z" fill="#c51918" fill-rule="evenodd" transform="matrix(-.99756405 .06975647 .06975647 .99756405 7.784402 -.271837)"/></g></g></g></g><g fill="#f7fcff" mask="url(#e)"><g transform="translate(16 2.6667)"><path d="m9.43116795 0c2.07128555 4.90808873 2.18681115 8.40431946.34657692 10.4886922-1.84023423 2.0843727-5.09948252 2.9256253-9.77774487 2.5237579 6.00568881 2.7125837 10.3168645 2.2013499 12.9335271-1.5337016 2.6166626-3.73505147 1.4492096-7.56130097-3.50235915-11.4787485z"/><path d="m3.79237221 4.33129558-.82206262.57862892.29001252-.96963737-.79807515-.61202502 1.0013002-.02063993.32882505-.95688119.32882504.95688119 1.00130021.02063993-.79807515.61202502.29001251.96963737zm-2.34006295.89972965.32882505.95688119 1.0013002.02063993-.79807515.61202502.29001252.96963737-.82206262-.57862892-.82206261.57862892.29001251-.96963737-.79807515-.61202502 1.00130021-.02063993zm2.49908543-.2065056.32882504.95688118 1.00130021.02063993-.79807515.61202503.29001251.96963736-.82206261-.57862892-.82206262.57862892.29001252-.96963736-.79807515-.61202503 1.0013002-.02063993zm0 4.78517709-.82206262.57862888.29001252-.96963733-.79807515-.61202503 1.0013002-.02063993.32882505-.95688118.32882504.95688118 1.00130021.02063993-.79807515.61202503.29001251.96963733zm2.71680362-3.6217903-.82206261.57862892.29001251-.96963737-.79807515-.61202502 1.00130021-.02063993.32882504-.95688119.32882505.95688119 1.0013002.02063993-.79807515.61202502.29001251.96963737z"/></g></g></g></g><rect height="32" mask="url(#c)" rx="2" width="43.335938"/></g></svg>