<svg height="32" viewBox="0 0 43 32" width="43" xmlns="http://www.w3.org/2000/svg" xmlns:xlink="http://www.w3.org/1999/xlink"><defs><path id="a" d="m0 0h42.666667v32h-42.666667z"/><mask id="b" fill="#fff"><path d="m0 0h43.335938v32h-43.335938z" fill="#fff" fill-rule="evenodd"/></mask><mask id="c" fill="#fff"><path d="m0 0h42.666667v32h-42.666667z" fill="#fff" fill-rule="evenodd"/></mask><mask id="d" fill="#fff"><use fill="#fff" fill-rule="evenodd" xlink:href="#a"/></mask></defs><g fill="none" fill-rule="evenodd"><g fill-rule="evenodd" mask="url(#b)"><g mask="url(#c)" transform="translate(.3346)"><use fill="#e31d1c" xlink:href="#a"/><circle cx="21.333333" cy="16" fill="#f7fcff" mask="url(#d)" r="10.666667"/><path d="m23.3369763 8.30229086c-3.7666988 1.04458841-5.6851623 3.57856614-5.7553904 7.60193324s1.7593968 6.5789441 5.4888749 7.6667309c-2.1511691.9136509-9.1203416-.5085718-8.9943274-7.7279188.1260142-7.21934702 6.9522239-8.4809058 9.2608429-7.54074534zm-.4088057 3.61650284 1.7275921 2.2383748 2.5642426-.8135601-1.3496188 2.5302945 2.1361094 1.8057573-3.0039195-.2659876-1.8621368 2.1481989-.0519377-2.8079127-2.9789772-1.1000152 2.8065001-.9702599z" fill="#e31d1c" mask="url(#d)" transform="matrix(.9998477 -.01745241 .01745241 .9998477 -.274706 .369633)"/></g></g><rect height="32" mask="url(#b)" rx="2" width="43.335938"/></g></svg>