<svg height="32" viewBox="0 0 43 32" width="43" xmlns="http://www.w3.org/2000/svg" xmlns:xlink="http://www.w3.org/1999/xlink"><defs><path id="a" d="m0 0h42.666667v32h-42.666667z"/><mask id="b" fill="#fff"><path d="m0 0h43.335938v32h-43.335938z" fill="#fff" fill-rule="evenodd"/></mask><mask id="c" fill="#fff"><path d="m0 0h42.666667v32h-42.666667z" fill="#fff" fill-rule="evenodd"/></mask><mask id="d" fill="#fff"><use fill="#fff" fill-rule="evenodd" xlink:href="#a"/></mask></defs><g fill="none" fill-rule="evenodd"><g fill-rule="evenodd" mask="url(#b)"><g mask="url(#c)" transform="translate(.3346)"><use fill="#e31d1c" xlink:href="#a"/><path d="m21.163507 5.42080927c2.4703562.03898135 5.4584006 1.52996213 6.289927 3.59253441-1.8233459-1.09386716-3.7854246-1.40897992-5.8862361-.94533831-3.1512172.69546243-5.1846945 3.43219773-5.2662163 6.71048203-.0870885 3.5021389 2.1070366 5.9305729 4.9494179 6.683647 1.8949209.5020494 3.8550757.2131781 5.8804647-.8666139-.3856033 1.079698-2.2002499 3.6019335-5.9321422 3.5430456-4.6551796-.0734571-9.8892668-3.5329902-9.7422605-9.4446401.1417965-5.70214858 5.108646-9.34567785 9.7070455-9.27311673zm6.6699284 5.44116723 2.0737811 2.3880101 2.9762378-.9441688-1.8614816 2.5062945 2.72644 2.4276165-3.4884894-.3147788-2.1588568 2.5008499.1137611-3.3817111-3.1893457-1.1881014 2.8624339-.9950862z" fill="#f7fcff" mask="url(#d)" transform="matrix(.9998477 -.01745241 .01745241 .9998477 -.254499 .396691)"/></g></g><rect height="32" mask="url(#b)" rx="2" width="43.335938"/></g></svg>