<svg height="32" viewBox="0 0 43 32" width="43" xmlns="http://www.w3.org/2000/svg" xmlns:xlink="http://www.w3.org/1999/xlink"><defs><path id="a" d="m0 0h42.666667v32h-42.666667z"/><path id="b" d="m0 0h24v18.666667h-24z"/><mask id="c" fill="#fff"><path d="m0 0h43.335938v32h-43.335938z" fill="#fff" fill-rule="evenodd"/></mask><mask id="d" fill="#fff"><path d="m0 0h42.666667v32h-42.666667z" fill="#fff" fill-rule="evenodd"/></mask><mask id="e" fill="#fff"><use fill="#fff" fill-rule="evenodd" xlink:href="#a"/></mask><mask id="f" fill="#fff"><use fill="#fff" fill-rule="evenodd" xlink:href="#b"/></mask></defs><g fill="none" fill-rule="evenodd"><g fill-rule="evenodd" mask="url(#c)"><g mask="url(#d)" transform="translate(.3346)"><use fill="#00b4ff" xlink:href="#a"/><g mask="url(#e)"><use fill="#2b409a" xlink:href="#b"/><g mask="url(#f)"><g fill-rule="nonzero"><path d="m1.32764499 3.28505196 5.28126726-2.31626725 21.51092825 17.13103699 2.7857478 3.4420421-5.6475555.7741648-8.7737935-7.382254-7.06200197-4.97391428z" fill="#f7fcff" transform="matrix(1 0 0 -1 -4 20.6181)"/><path d="m2.05065842 2.76731119 2.69056181-1.34416892 25.16402527 21.54362063h-3.7778619z" fill="#f50100" transform="matrix(1 0 0 -1 -4 21.7233)"/><path d="m1.32764499 3.28505196 5.28126726-2.31626725 21.51092825 17.13103699 2.7857478 3.4420421-5.6475555.7741648-8.7737935-7.382254-7.06200197-4.97391428z" fill="#f7fcff" transform="matrix(-1 0 0 -1 28 20.6181)"/><path d="m1.50784817 3.09890547 2.6905618-1.34416891 10.71510273 9.22394324 3.176798 1.030569 13.0833277 10.4993758h-3.7778619l-13.075977-10.2501652-3.4732688-1.2357627z" fill="#f50100" transform="matrix(-1 0 0 -1 28 21.5967)"/></g><path d="m14.3127673-1-.000682 7.99909357 10.6879147.00099999v4.66663544l-10.6879147-.0006666.000682 8.0006043h-4.66675002l-.00001536-8.0006041-10.64600192.0006667v-4.66663537l10.64600192-.001.00001536-7.99909393z" fill="#f50100" stroke="#f7fcff" stroke-width="2"/></g></g><g fill="#ffd018" mask="url(#e)"><path d="m3.96552714 20.9808143-1.466823.8692935.48730707-1.6927416-1.38191293-1.084537h1.56653381l.76263507-1.550957.81655491 1.550957h1.38302373l-1.2047752 1.084537.58722892 1.6927416zm5.98635449-.2349304-.80959346 1.5005997-.45412267-1.7019444-1.74310843-.2178919 1.34278155-.8068246-.14509604-1.7222157 1.49872606.9088728 1.18548276-.7123099-.4741161 1.5501348 1.3751798 1.1485174zm0-5.3333333-.80959346 1.5005997-.45412267-1.7019444-1.74310843-.2178919 1.34278155-.8068246-.14509604-1.7222157 1.49872606.9088727 1.18548276-.7123098-.4741161 1.5501347 1.3751798 1.1485175zm3.52419427-.2816102 1.4987261.9088727 1.1854827-.7123099-.4741161 1.5501348 1.3751798 1.1485175-1.7761334.0530618-.8095935 1.5005996-.4541227-1.7019444-1.7431084-.2178919 1.3427816-.8068245zm5.3333333-2.6666667 1.4987261.9088727 1.1854827-.7123098-.474116 1.5501347 1.3751798 1.1485175-1.7761335.0530618-.8095935 1.5005997-.4541226-1.7019444-1.7431085-.2178919 1.3427816-.8068246zm2.6666667-2.66666666 1.4987261.90887276 1.1854827-.71230991-.4741161 1.55013481 1.3751798 1.1485174-1.7761334.0530618-.8095935 1.5005997-.4541227-1.7019444-1.7431084-.2178919 1.3427816-.8068246zm-8-2.66666667 1.4987261.90887273 1.1854827-.71230987-.4741161 1.55013476 1.3751798 1.14851751-1.7761334.0530618-.8095935 1.5005996-.4541227-1.70194438-1.7431084-.21789189 1.3427816-.80682456zm2.6666667-2.66666667 1.498726.90887274 1.1854828-.71230988-.4741161 1.55013477 1.3751798 1.14851746-1.7761335.05306181-.8095934 1.50059966-.4541227-1.7019444-1.7431084-.2178919 1.3427815-.80682455zm5.3333333-2.66666666 1.4987261.90887273 1.1854827-.71230988-.4741161 1.55013477 1.3751798 1.14851746-1.7761334.05306182-.8095935 1.50059966-.4541227-1.70194441-1.7431084-.21789189 1.3427816-.80682456z" transform="translate(13.3333 8)"/></g></g></g><rect height="32" mask="url(#c)" rx="2" width="43.335938"/></g></svg>