<svg height="32" viewBox="0 0 43 32" width="43" xmlns="http://www.w3.org/2000/svg" xmlns:xlink="http://www.w3.org/1999/xlink"><defs><path id="a" d="m0 0h42.666667v32h-42.666667z"/><mask id="b" fill="#fff"><path d="m0 0h43.335938v32h-43.335938z" fill="#fff" fill-rule="evenodd"/></mask><mask id="c" fill="#fff"><path d="m0 0h42.666667v32h-42.666667z" fill="#fff" fill-rule="evenodd"/></mask><mask id="d" fill="#fff"><use fill="#fff" fill-rule="evenodd" xlink:href="#a"/></mask></defs><g fill="none" fill-rule="evenodd"><g fill-rule="evenodd" mask="url(#b)"><g mask="url(#c)" transform="translate(.3346)"><use fill="#ef0000" xlink:href="#a"/><g mask="url(#d)"><path d="m0 0h24v18.666667h-24z" fill="#2e42a5"/><path d="m13.6150515 2.13333333.4785327 3.12224941 2.9432136-1.14670324-1.1467032 2.94321364 3.1222494.47853269-2.464681 1.97554617 2.464681 1.9755462-3.1222494.4785327 1.1467032 2.9432136-2.9432136-1.1467032-.4785327 3.1222494-1.9755462-2.464681-1.97554613 2.464681-.47853269-3.1222494-2.94321365 1.1467032 1.14670324-2.9432136-3.1222494-.4785327 2.46468095-1.9755462-2.46468095-1.97554617 3.1222494-.47853269-1.14670324-2.94321364 2.94321365 1.14670324.47853269-3.12224941 1.97554613 2.46468096zm-1.9755462 3.55637654c-2.1077738 0-3.81646209 1.7086883-3.81646209 3.81646213 0 2.1077738 1.70868829 3.8164621 3.81646209 3.8164621 2.1077739 0 3.8164622-1.7086883 3.8164622-3.8164621 0-2.10777383-1.7086883-3.81646213-3.8164622-3.81646213zm0 .76329243c1.6862191 0 3.0531697 1.36695064 3.0531697 3.0531697 0 1.6862191-1.3669506 3.0531697-3.0531697 3.0531697-1.68621903 0-3.05316967-1.3669506-3.05316967-3.0531697 0-1.68621906 1.36695064-3.0531697 3.05316967-3.0531697z" fill="#feffff"/></g></g></g><rect height="32" mask="url(#b)" rx="2" width="43.335938"/></g></svg>