<svg height="32" viewBox="0 0 43 32" width="43" xmlns="http://www.w3.org/2000/svg" xmlns:xlink="http://www.w3.org/1999/xlink"><defs><path id="a" d="m0 0h42.666667v32h-42.666667z"/><mask id="b" fill="#fff"><path d="m0 0h43.335938v32h-43.335938z" fill="#fff" fill-rule="evenodd"/></mask><mask id="c" fill="#fff"><path d="m0 0h42.666667v32h-42.666667z" fill="#fff" fill-rule="evenodd"/></mask><mask id="d" fill="#fff"><use fill="#fff" fill-rule="evenodd" xlink:href="#a"/></mask></defs><g fill="none" fill-rule="evenodd"><g fill-rule="evenodd" mask="url(#b)"><g mask="url(#c)" transform="translate(.3346)"><use fill="#feca00" xlink:href="#a"/><path d="m0 0h42.666667v5.333333h-42.666667z" fill="#272727" mask="url(#d)"/><path d="m0 10.666667h42.666667v5.333333h-42.666667z" fill="#d74800" mask="url(#d)"/><path d="m0 16h42.666667v5.333333h-42.666667z" fill="#272727" mask="url(#d)"/><path d="m0 26.666667h42.666667v5.333333h-42.666667z" fill="#d74800" mask="url(#d)"/><circle cx="21.333333" cy="16" fill="#f7fcff" mask="url(#d)" r="8"/><g mask="url(#d)"><g transform="translate(16 5.3333)"><path d="m3.23007124 4.85611991c.60397808 0 1.08807676.30513242 1.45229604.91539725-.7980588.57836191-1.1970882 1.10399147-1.1970882 1.57688868 0 .70934581-.41060179 1.68965671 1.1970882 2.32334585 1.60768999.63368911 4.18893579.63368911 4.52057905 1.78426681.33164325 1.1505777-.62300013 1.5754856-1.93097153 1.5754856-1.30797139 0-2.3720663-.5493603-1.84001885 0 .53204746.5493604 1.89387106 1.8520108.94693553 1.8520108-.31630333 0-1.50576019-.9480349-1.55152253-.1528285-.02894297.5029384.53840152 1.885511 0 2.4198571-.12805039.1270858 1.59746312.3873596 1.46268832.5036977-.34461164.29747-1.01316754 0-1.91565847 0-.1143993 0-1.63235435.9175068-1.78638131.9102859-.14780336-.0070131 1.02951345-.8975516.89726159-.9102859-.77333415-.074463-1.66510453.07541-1.69900504 0-.05953283-.1324277 1.95809432.0368941 2.38696076-.5036977.67614096-.8522847-.10269566-2.5020524-.18699545-2.5098655-1.06816408-.098999-2.10890797-.1180591-2.35744121.2428369-.47213174.6855842-1.48073009 1.3741721-1.48073009 1.0298781 0-.3442939-.54499665-1.4034788 1.87475557-1.4034788 1.61316815 0 2.27837306-.0878121 1.99561473-.2634364v-.8995806c-2.43602436-.5723349-3.65403654-1.4896403-3.65403654-2.7519161 0-1.89341377 1.64699927-2.81112928 1.87505643-3.24657526.15203811-.29029732.15203811-.6213804 0-.99324926l-1.41063166-.12077343 1.41063166-.46286599c.05643059-.61026483.38663493-.91539725.990613-.91539725zm1.47364669 8.57683319v.669023c.63452895.1691703.88639657.0968843.75560286-.2168581-.13079372-.3137424-.38266134-.464464-.75560286-.4521649z" fill="#272727"/><path d="m1.43589744 3.61500566 1.35141911 1.60258693.69986294-.16461135-.33564003-1.61779605z" fill="#d74800"/><path d="m2.83328504 4.93157216 2.38792378.33260452-.07924909-1.18574303-1.46871204-.75796997z" fill="#ffd018" transform="matrix(.17364818 .98480775 -.98480775 .17364818 7.554974 -.419068)"/><g fill="#d74800"><ellipse cx="2.25641" cy="6.837963" rx="1" ry="1"/><path d="m3.48717949 4.10111677 1.35141911 1.60258693.69986294-.16461135-.33564002-1.61779605z" transform="matrix(.17364818 .98480775 -.98480775 .17364818 8.468548 -.467422)"/><path d="m8.15821134 15.8574642c1.57550569-.703805 2.36325856-1.5478419 2.36325856-2.5321106s-1.27911778-2.012473-3.8373533-3.0846129c-1.50481332.3444076-1.91808166.7470582-1.23980504 1.2079516 1.01741493.6913403 2.38052594.9569382 2.38052594 1.8766613s.37343579 1.796729-.38364255 1.796729c-.5047189 0-.26571344.2451272.71701639.7353816z"/></g><path d="m4.74867476 9.97086179c-.55721691.09788001-.82259619.19207521-.79613784.28258561.10970807.3752965 1.25256774.8641158 1.75065751 1.2025711 1.01741493.6913402 1.98202621.6136834 2.69963898.1637675.47840852-.2999439-.73964437-.8495853-3.65415865-1.64892421z" fill="#fffdff"/></g></g></g></g><rect height="32" mask="url(#b)" rx="2" width="43.335938"/></g></svg>