<svg height="32" viewBox="0 0 43 32" width="43" xmlns="http://www.w3.org/2000/svg" xmlns:xlink="http://www.w3.org/1999/xlink"><mask id="a" fill="#fff"><path d="m0 0h43.335938v32h-43.335938z" fill="#fff" fill-rule="evenodd"/></mask><mask id="b" fill="#fff"><path d="m0 0h42.666667v32h-42.666667z" fill="#fff" fill-rule="evenodd"/></mask><g fill="none" fill-rule="evenodd"><g fill-rule="evenodd" mask="url(#a)"><g mask="url(#b)" transform="translate(.3346)"><path d="m0 0h42.6666667v32h-42.6666667z" fill="#f7fcff"/><g fill="#e31d1c"><path d="m0 19.555556h42.666667v2.666667h-42.666667z"/><path d="m0 24.444444h42.666667v2.666667h-42.666667z"/><path d="m0 9.777778h42.666667v2.666667h-42.666667z"/><path d="m0 29.333333h42.666667v2.666667h-42.666667z"/><path d="m0 14.666667h42.666667v2.666667h-42.666667z"/><path d="m0 0h42.666667v2.666667h-42.666667z"/><path d="m0 4.888889h42.666667v2.666667h-42.666667z"/></g><path d="m0 0h26.666667v17.333333h-26.666667z" fill="#2e42a5"/><path d="m23.6280341 12.3052893.4415615.9854232h.9571417l-.7520486.765216.2911487 1.2074798-.9364507-.6785168-.9678393.6785168.3267532-1.2074798-.8596219-.765216h1.122783zm-5.3333334 0 .4415616.9854232h.9571417l-.7520486.765216.2911487 1.2074798-.9364507-.6785168-.9678393.6785168.3267532-1.2074798-.859622-.765216h1.1227831zm-5.3333333 0 .4415616.9854232h.9571417l-.7520486.765216.2911486 1.2074798-.9364507-.6785168-.9678393.6785168.3267533-1.2074798-.859622-.765216h1.1227831zm-5.33333333 0 .44156156.9854232h.95714169l-.75204858.765216.29114866 1.2074798-.93645071-.6785168-.96783931.6785168.32675325-1.2074798-.85962196-.765216h1.12278306zm-5.33333333 0 .44156155.9854232h.95714169l-.75204857.765216.29114865 1.2074798-.9364507-.6785168-.96783931.6785168.32675325-1.2074798-.85962197-.765216h1.12278307zm2.66666667-2.66666663.44156155.98542323h.95714169l-.75204858.7652159.29114866 1.2074799-.9364507-.6785168-.96783931.6785168.32675324-1.2074799-.85962196-.7652159h1.12278306zm5.33333329 0 .4415616.98542323h.9571417l-.7520486.7652159.2911487 1.2074799-.9364507-.6785168-.96783935.6785168.32675325-1.2074799-.85962197-.7652159h1.12278307zm5.3333334 0 .4415615.98542323h.9571417l-.7520486.7652159.2911487 1.2074799-.9364507-.6785168-.9678393.6785168.3267532-1.2074799-.8596219-.7652159h1.122783zm5.3333333 0 .4415616.98542323h.9571417l-.7520486.7652159.2911486 1.2074799-.9364507-.6785168-.9678393.6785168.3267533-1.2074799-.859622-.7652159h1.1227831zm-2.6666667-2.66666667.4415616.9854232h.9571417l-.7520486.76521594.2911487 1.20747987-.9364507-.67851681-.9678393.67851681.3267532-1.20747987-.859622-.76521594h1.1227831zm-10.66666663 0 .44156156.9854232h.95714169l-.75204858.76521594.29114866 1.20747987-.93645071-.67851681-.96783931.67851681.32675325-1.20747987-.85962196-.76521594h1.12278306zm5.33333333 0 .4415616.9854232h.9571417l-.7520486.76521594.2911486 1.20747987-.9364507-.67851681-.9678393.67851681.3267533-1.20747987-.859622-.76521594h1.1227831zm-10.66666666 0 .44156155.9854232h.95714169l-.75204857.76521594.29114865 1.20747987-.9364507-.67851681-.96783931.67851681.32675325-1.20747987-.85962197-.76521594h1.12278307zm21.33333336 0 .4415615.9854232h.9571417l-.7520486.76521594.2911487 1.20747987-.9364507-.67851681-.9678393.67851681.3267532-1.20747987-.8596219-.76521594h1.122783zm-13.3333334-2.66666667.4415616.9854232h.9571417l-.7520486.76521594.2911487 1.20747988-.9364507-.67851682-.96783935.67851682.32675325-1.20747988-.85962197-.76521594h1.12278307zm5.3333334 0 .4415615.9854232h.9571417l-.7520486.76521594.2911487 1.20747988-.9364507-.67851682-.9678393.67851682.3267532-1.20747988-.8596219-.76521594h1.122783zm5.3333333 0 .4415616.9854232h.9571417l-.7520486.76521594.2911486 1.20747988-.9364507-.67851682-.9678393.67851682.3267533-1.20747988-.859622-.76521594h1.1227831zm-15.99999999 0 .44156155.9854232h.95714169l-.75204858.76521594.29114866 1.20747988-.9364507-.67851682-.96783931.67851682.32675324-1.20747988-.85962196-.76521594h1.12278306zm-2.66666667-2.66666666.44156155.9854232h.95714169l-.75204857.76521593.29114865 1.20747988-.9364507-.67851681-.96783931.67851681.32675325-1.20747988-.85962197-.76521593h1.12278307zm5.33333333 0 .44156156.9854232h.95714169l-.75204858.76521593.29114866 1.20747988-.93645071-.67851681-.96783931.67851681.32675325-1.20747988-.85962196-.76521593h1.12278306zm5.33333333 0 .4415616.9854232h.9571417l-.7520486.76521593.2911486 1.20747988-.9364507-.67851681-.9678393.67851681.3267533-1.20747988-.859622-.76521593h1.1227831zm5.3333333 0 .4415616.9854232h.9571417l-.7520486.76521593.2911487 1.20747988-.9364507-.67851681-.9678393.67851681.3267532-1.20747988-.859622-.76521593h1.1227831zm5.3333334 0 .4415615.9854232h.9571417l-.7520486.76521593.2911487 1.20747988-.9364507-.67851681-.9678393.67851681.3267532-1.20747988-.8596219-.76521593h1.122783z" fill="#f7fcff"/></g></g><rect height="32" mask="url(#a)" rx="2" width="43.335938"/></g></svg>