<svg height="32" viewBox="0 0 43 32" width="43" xmlns="http://www.w3.org/2000/svg" xmlns:xlink="http://www.w3.org/1999/xlink"><defs><path id="a" d="m0 0h42.666667v32h-42.666667z"/><mask id="b" fill="#fff"><path d="m0 0h43.335938v32h-43.335938z" fill="#fff" fill-rule="evenodd"/></mask><mask id="c" fill="#fff"><path d="m0 0h42.666667v32h-42.666667z" fill="#fff" fill-rule="evenodd"/></mask><mask id="d" fill="#fff"><use fill="#fff" fill-rule="evenodd" xlink:href="#a"/></mask></defs><g fill="none" fill-rule="evenodd"><g fill-rule="evenodd" mask="url(#b)"><g mask="url(#c)" transform="translate(.3346)"><use fill="#f7fcff" xlink:href="#a"/><g fill="#2e42a5"><path d="m0 2.666667h42.666667v4h-42.666667z" mask="url(#d)"/><path d="m0 10.666667h42.666667v4h-42.666667z" mask="url(#d)"/><path d="m0 18.666667h42.666667v4h-42.666667z" mask="url(#d)"/><path d="m0 25.333333h42.666667v4h-42.666667z" mask="url(#d)"/></g><path d="m0 0h18.666667v18.666667h-18.666667z" fill="#f7fcff" mask="url(#d)"/><g mask="url(#d)"><g transform="translate(2.6667 2.6667)"><g fill="#ffc125" stroke="#984111" stroke-width=".2"><path d="m2.79721368 4.49577225c.84119713.37348718 1.44299688.61529802 1.85398154.55240903.09612479-.01470904-.0183923.41557388-.0047332.51245142.01365911.09687754-.13276476.72696804-.22888956.74167708-.48104303.07360935-1.2940582-.55334018-1.71190119-.81010538-.19998764-.12289273-.36365341-.2399067-.66667268-.23821706-.04176806.0002329-.19301301.00247839-.19297814.00247798-.06499363.00077243-.11745482.00081522-.16961076-.00009387-.3217255-.00560775-.94772543-.00332891-1.26520877-.37426507-.06316757-.07380272-.05460341-.18588479.01912858-.25034231.07373199-.06445753.184711-.05688174.24787857.01692098.25900074.3026072 1.35729166-.45161804 2.11900561-.1529128zm.91272047-3.71946406c.09771474.00655804.17083187.09038894.16331168.18724156-.03083442.39711679 1.27909231.64040796 1.60648891 1.39023756.33072087.85891151.58527148 1.45543428.92035075 1.70157509.07837135.05756963-.30686043.28084979-.36570475.359011-.05884431.07816121-.6079229.42016516-.68629425.36259553-.39219847-.28809912-.52376674-1.30630793-.63766594-1.78332794-.05451433-.2283109-.08750214-.42678145-.30296387-.63985368-.02969917-.0293698-.1382333-.13472832-.13820835-.13470396-.04650363-.04541124-.08362954-.08247665-.11986654-.11999929-.22352901-.23145956-.66778919-.67249697-.62999233-1.15928307.00752019-.09685262.09282995-.17005084.19054469-.1634928zm8.84476535 3.26443465c.0940753.02422422.1513476.12094868.1279212.21604012s-.1186803.15254067-.2127557.12831645c-.3857293-.09932458-.8527908 1.14845435-1.6480806 1.34067052-.90329177.17654806-1.53495427.32364637-1.83554155.61089313-.07030406.06718386-.22329729-.35096758-.29005285-.42249047s-.30821721-.6716481-.23791315-.73883196c.3518268-.33621219 1.37741332-.28897155 1.86696475-.31830671.2343086-.01404036.4354922-.01206296.682742-.18725174.0340808-.02414796.1566854-.1127379.1566571-.11271756.0527966-.03791155.0957457-.0680371.1389908-.09720784.2667586-.17994057.7782406-.5408661 1.251068-.41911394zm-3.44836746-3.13186605c.04771922.08552224.01723516.19250101-.06808807.23894376-.34984379.19042539.15955229 1.42152825-.29099476 2.10449261-.54022031.7451626-.9018682 1.28353629-.925802 1.6986153-.00559785.09708242-.40266862-.10439305-.50026904-.1111744s-.6834787-.28100869-.67788084-.37809111c.02801366-.48583534.8102982-1.15073404 1.1483269-1.50606167.161787-.17006659.31027196-.3058273.37162049-.60257617.00845626-.04090375.03770543-.1893105.03769859-.18927631.01275738-.06373395.02362282-.11505764.03535588-.16588483.07237569-.31352912.20029935-.92632325.62913817-1.15974685.08532323-.04644275.19317545-.01476257.24089468.07075967z"/><path d="m2.76140074 10.4794393c.84119713.3734872 1.44299688.615298 1.85398154.5524091.0961248-.0147091-.0183923.4155738-.00473319.5124514.01365911.0968775-.13276477.726968-.22888956.7416771-.48104304.0736093-1.29405821-.5533402-1.71190119-.8101054-.19998764-.1228927-.36365342-.2399067-.66667269-.2382171-.04176806.0002329-.19301301.0024784-.19297814.002478-.06499362.0007724-.11745482.0008152-.16961076-.0000939-.3217255-.0056077-.94772543-.0033289-1.26520877-.374265-.06316756-.0738028-.0546034-.1858848.01912858-.2503424.07373199-.0644575.18471101-.0568817.24787857.016921.25900075.3026072 1.35729166-.451618 2.11900561-.1529128zm.91272048-3.71946403c.09771474.00655804.17083186.09038894.16331167.18724155-.03083442.39711679 1.27909231.64040797 1.60648892 1.39023757.33072087.85891151.58527147 1.45543428.92035074 1.70157511.07837136.0575696-.30686043.2808498-.36570474.359011-.05884432.0781612-.6079229.4201651-.68629426.3625955-.39219846-.2880991-.52376674-1.30630792-.63766593-1.78332794-.05451434-.2283109-.08750215-.42678145-.30296388-.63985367-.02969916-.0293698-.13823329-.13472832-.13820835-.13470396-.04650362-.04541124-.08362954-.08247665-.11986654-.1199993-.22352901-.23145955-.66778919-.67249697-.62999233-1.15928307.00752019-.09685261.09282996-.17005083.1905447-.16349279zm8.84476538 3.26443463c.0940753.0242242.1513476.1209487.1279212.2160401-.0234264.0950915-.1186804.1525407-.2127557.1283165-.3857294-.0993246-.8527908 1.1484543-1.6480806 1.3406705-.90329181.1765481-1.53495431.3236464-1.83554158.6108931-.07030407.0671839-.2232973-.3509675-.29005286-.4224904s-.30821721-.6716481-.23791315-.738832c.35182681-.3362122 1.37741332-.2889715 1.86696469-.3183067.2343087-.0140404.4354923-.012063.682742-.1872517.0340808-.024148.1566855-.1127379.1566571-.1127176.0527967-.0379116.0957458-.0680371.1389909-.0972078.2667586-.1799406.7782406-.54086614 1.251068-.419114zm-3.4483675-3.13186603c.04771923.08552224.01723516.192501-.06808807.23894376-.34984379.19042538.15955229 1.42152825-.29099475 2.10449261-.54022031.7451626-.90186821 1.28353626-.92580201 1.69861526-.00559785.0970825-.40266861-.104393-.50026903-.1111744-.09760042-.0067813-.67788085-.20799-.67788085-.3780911 0-.45920624.8102982-1.15073401 1.1483269-1.50606164.161787-.17006659.31027196-.30582731.3716205-.60257617.00845626-.04090375.03770543-.1893105.03769858-.18927631.01275738-.06373395.02362283-.11505764.03535588-.16588484.0723757-.31352911.20029936-.92632324.62913818-1.15974684.08532323-.04644275.19317545-.01476257.24089467.07075967z" transform="matrix(1 0 0 -1 0 19.0872)"/><path d="m6.66666667.0789058c.16992632 0 .31390812.1251367.33759028.29340467l.55129861 3.91712165h-1.77777778l.5512986-3.91712165c.02368216-.16826797.16766396-.29340467.33759029-.29340467zm4.65825033 1.92951049c.1201561.12015605.1334816.31045157.031244.44618081l-2.3799963 3.15965026-1.25707872-1.25707872 3.15965022-2.3799963c.1357293-.10223761.3260248-.08891211.4461808.03124395zm1.9295105 4.65825038c0 .16992632-.1251367.31390812-.2934046.33759028l-3.91712168.55129861v-1.77777778l3.91712168.5512986c.1682679.02368216.2934046.16766396.2934046.33759029zm-1.9295105 4.65825033c-.120156.1201561-.3104515.1334816-.4461808.031244l-3.15965022-2.3799963 1.25707872-1.25707872 2.3799963 3.15965022c.1022376.1357293.0889121.3260248-.031244.4461808zm-4.65825033 1.9295105c-.16992633 0-.31390813-.1251367-.33759029-.2934046l-.5512986-3.91712168h1.77777778l-.55129861 3.91712168c-.02368216.1682679-.16766396.2934046-.33759028.2934046zm-4.65825038-1.9295105c-.12015606-.120156-.13348156-.3104515-.03124395-.4461808l2.3799963-3.15965022 1.25707872 1.25707872-3.15965026 2.3799963c-.13572924.1022376-.32602476.0889121-.44618081-.031244zm-1.92951049-4.65825033c0-.16992633.1251367-.31390813.29340467-.33759029l3.91712165-.5512986v1.77777778l-3.91712165-.55129861c-.16826797-.02368216-.29340467-.16766396-.29340467-.33759028zm1.92951049-4.65825038c.12015605-.12015606.31045157-.13348156.44618081-.03124395l3.15965026 2.3799963-1.25707872 1.25707872-2.3799963-3.15965026c-.10223761-.13572924-.08891211-.32602476.03124395-.44618081z"/><ellipse cx="6.666667" cy="6.578947" rx="2.577778" ry="2.54386"/></g><g fill="none" transform="translate(4.9778 5.4386)"><path d="m1.4401626.4766995c-.02658669-.01647172-.1393129-.09087362-.16701413-.1084049-.09755675-.06174075-.17537669-.10199209-.24764252-.12454652-.039601-.01235962-.07575877-.01859569-.10845891-.01859569-.15687653 0-.37850737.09791666-.65882427.29746585l-.10400565-.14228253c.30788765-.21917598.56014154-.33062191.76282992-.33062191.05221449 0 .10609289.0092923.16206669.02676194.0903739.02820603.1803746.07475771.29000536.14413973.02992215.01893683.14168034.09269981.16556945.10750026.03884721.02406771.06399485.03564195.06369778.03564195.21225673 0 .22511626.7594092.07499752.99226426-.04057538.06293808-.09038134.11381345-.15564812.1650212-.02509647.01969047-.10390637.07645991-.11551903.08541125-.05229948.04031379-.06888336.06379812-.06888336.09253822 0 .00497725.06388441.02080499.20634315.01411814.02822156-.00132468.05624924-.00319214.09753207-.00632787.10124261-.00769012.11432826-.00854773.14698591-.00854773v.1754386c-.02575343 0-.03936785.00089226-.13334269.00803034-.04287633.00325677-.07238151.00522267-.1027289.00664714-.25047148.01175683-.39256731-.02344825-.39256731-.18935862 0-.09529305.04606995-.16053247.13722604-.23079794.01488291-.01147213.09286312-.06764391.11431754-.08447686.05102813-.04003622.08765132-.07744579.11628965-.12186781.04597776-.07131792.07451966-.25689273.07118812-.45363446-.00152948-.09032232-.00977368-.17321923-.02280087-.23137195-.00391047-.01745616-.00808694-.03182649-.01203605-.04236266-.03372032-.00816731-.07002128-.02707904-.11957739-.05778143z" fill="#984111" fill-rule="nonzero"/><path d="m3.12073408.5261171c-.00071918-.00156214-.00142476-.00297666-.00211329-.00423837.00023244.00042594.000505.00087148.0008195.00133213zm-.11612707-.0494176c-.02658668-.01647172-.1393129-.09087362-.16701413-.1084049-.09755675-.06174075-.17537669-.10199209-.24764252-.12454652-.039601-.01235962-.07575877-.01859569-.10845891-.01859569-.15687653 0-.37850737.09791666-.65882427.29746585l-.10400565-.14228253c.30788765-.21917598.56014154-.33062191.76282992-.33062191.05221449 0 .10609289.0092923.16206669.02676194.0903739.02820603.1803746.07475771.29000536.14413973.02992215.01893683.14168034.09269981.16556945.10750026.03884721.02406771.06399485.03564195.06369778.03564195.21225674 0 .22511627.7594092.07499753.99226426-.04057539.06293808-.09038134.11381345-.15564813.1650212-.02509647.01969047-.10390637.07645991-.11551903.08541125-.05229948.04031379-.06888336.06379812-.06888336.09253822 0 .00497725.06388442.02080499.20634315.01411814.02822156-.00132468.05624924-.00319214.09753207-.00632787.10124262-.00769012.11432826-.00854773.14698591-.00854773v.1754386c-.02575343 0-.03936785.00089226-.13334269.00803034-.04287633.00325677-.07238151.00522267-.1027289.00664714-.25047148.01175683-.39256731-.02344825-.39256731-.18935862 0-.09529305.04606996-.16053247.13722605-.23079794.01488291-.01147213.09286311-.06764391.11431753-.08447686.05102813-.04003622.08765132-.07744579.11628965-.12186781.04597776-.07131792.07451966-.25689273.07118812-.45363446-.00152948-.09032232-.00977368-.17321923-.02280087-.23137195-.00391047-.01745616-.00808694-.03182649-.01203604-.04236266-.03372033-.00816731-.07002129-.02707904-.1195774-.05778143z" fill="#984111" fill-rule="nonzero" transform="matrix(-1 0 0 1 5.0674 0)"/><g stroke="#984111" stroke-width=".2"><path d="m1.71014875 2.52642688c.13950234 0 .26668277-.07936178.38326348-.24725349-.10981727-.06596726-.23694669-.09893224-.38326348-.09893224-.14723893 0-.28791715.03348165-.42299797.10094681.14201884.16578338.28304449.24523892.42299797.24523892zm-.60395384-.34554709c.18920519-.11708451.39109961-.17607724.60395384-.17607724.21531029 0 .40266588.06048445.55877553.18138791l.06121978.04741336-.03953145.06615154c-.15758032.26369343-.35189103.40211012-.58046386.40211012-.22552261 0-.43493463-.13501761-.62835481-.39471968l-.05667386-.07609505z"/><path d="m2.57777778.95298246c.24545989 0 .44444444-.09551259.44444444-.21333334 0-.11782074-.19898455-.21333333-.44444444-.21333333s-.44444445.09551259-.44444445.21333333c0 .11782075.19898456.21333334.44444445.21333334zm-1.77777778 0c.24545989 0 .44444444-.09551259.44444444-.21333334 0-.11782074-.19898455-.21333333-.44444444-.21333333s-.44444444.09551259-.44444444.21333333c0 .11782075.19898455.21333334.44444444.21333334z"/></g></g></g></g></g></g><rect height="32" mask="url(#b)" rx="2" width="43.335938"/></g></svg>