<svg height="32" viewBox="0 0 43 32" width="43" xmlns="http://www.w3.org/2000/svg" xmlns:xlink="http://www.w3.org/1999/xlink"><mask id="a" fill="#fff"><path d="m0 0h43.335938v32h-43.335938z" fill="#fff" fill-rule="evenodd"/></mask><mask id="b" fill="#fff"><path d="m0 0h42.666667v32h-42.666667z" fill="#fff" fill-rule="evenodd"/></mask><g fill="none" fill-rule="evenodd"><g fill-rule="evenodd" mask="url(#a)"><g mask="url(#b)" transform="translate(.3346)"><g transform="translate(-2.6667)"><path d="m2.66666667 21.3333333h42.66666663v10.6666667h-42.66666663z" fill="#14dc5a"/><path d="m2.66666667 0h42.66666663v13.3333333h-42.66666663z" fill="#0099b5"/><g fill="#f7fcff"><path d="m48.6666667 12.6666667v9.3333333h-49.33333337v-9.3333333z" stroke="#c51918" stroke-width="1.333333"/><path d="m8.57022034 7.94807645-.89738303.4986248.25629697-1.01339943-.85962197-.74469046h1.12278307l.37657234-.95899107.44156155.95899107h.95714169l-.75204857.74469046.36160493 1.01339943zm4.23666276-2.21845616.4415616.95899107h.9571417l-.7520486.74469046.3616049 1.01339943-1.0069069-.4986248-.8973831.4986248.256297-1.01339943-.859622-.74469046h1.1227831zm0-2.71708096.4415616.95899107h.9571417l-.7520486.74469046.3616049 1.01339943-1.0069069-.4986248-.8973831.4986248.256297-1.01339943-.859622-.74469046h1.1227831zm3.9732478 2.71708096.4415615.95899107h.9571417l-.7520486.74469046.361605 1.01339943-1.006907-.4986248-.8973831.4986248.256297-1.01339943-.8596219-.74469046h1.122783zm0-2.71708096.4415615.95899107h.9571417l-.7520486.74469046.361605 1.01339943-1.006907-.4986248-.8973831.4986248.256297-1.01339943-.8596219-.74469046h1.122783zm-.0598222-2.555842.4415616.95899108h.9571417l-.7520486.74469046.3616049 1.01339942-1.0069069-.49862479-.8973831.49862479.256297-1.01339942-.859622-.74469046h1.1227831zm4.058975 5.27292296.4415616.95899107h.9571417l-.7520486.74469046.3616049 1.01339943-1.0069069-.4986248-.8973831.4986248.256297-1.01339943-.859622-.74469046h1.1227831zm0-2.71708096.4415616.95899107h.9571417l-.7520486.74469046.3616049 1.01339943-1.0069069-.4986248-.8973831.4986248.256297-1.01339943-.859622-.74469046h1.1227831zm-.059823-2.555842.4415616.95899108h.9571417l-.7520486.74469046.3616049 1.01339942-1.0069069-.49862479-.8973831.49862479.256297-1.01339942-.859622-.74469046h1.1227831zm4.1000989 5.27292296.4415616.95899107h.9571417l-.7520486.74469046.3616049 1.01339943-1.006907-.4986248-.897383.4986248.256297-1.01339943-.859622-.74469046h1.1227831zm0-2.71708096.4415616.95899107h.9571417l-.7520486.74469046.3616049 1.01339943-1.006907-.4986248-.897383.4986248.256297-1.01339943-.859622-.74469046h1.1227831zm-.0598229-2.555842.4415616.95899108h.9571417l-.7520486.74469046.3616049 1.01339942-1.0069069-.49862479-.8973831.49862479.256297-1.01339942-.859622-.74469046h1.1227831zm-22.74033767 5.0925041c-.04043712 2.15420892 1.01305473 3.52252719 3.16047557 4.1049548-1.23863586.48919097-5.25146177-.27230173-5.17890323-4.13771629.07255853-3.86541457 4.00306694-4.54088393 5.33236196-4.03749907-2.16885241.55929812-3.27349718 1.91605164-3.3139343 4.07026056z" transform="translate(5.3333 1.3333)"/></g></g></g></g><rect height="32" mask="url(#a)" rx="2" width="43.335938"/></g></svg>