<svg height="32" viewBox="0 0 43 32" width="43" xmlns="http://www.w3.org/2000/svg" xmlns:xlink="http://www.w3.org/1999/xlink"><mask id="a" fill="#fff"><path d="m0 0h43.335938v32h-43.335938z" fill="#fff" fill-rule="evenodd"/></mask><mask id="b" fill="#fff"><path d="m0 0h42.666667v32h-42.666667z" fill="#fff" fill-rule="evenodd"/></mask><g fill="none" fill-rule="evenodd"><g fill-rule="evenodd" mask="url(#a)"><g mask="url(#b)" transform="translate(.3346)"><path d="m0 0h42.666667v32h-42.666667z" fill="#f7fcff"/><path d="m0 0h18.666667v32h-18.666667z" fill="#ffdc17"/><g transform="translate(16 2.6667)"><path d="m17.5487188 14.3348631.4602201.0299831c-.1099207 1.5810279-.4495801 2.802321-1.0260007 3.6641887-.9295826 1.3899178-2.156348 2.4645698-2.9772325 2.4645698-.1864528 0-.229816.0692488-.1683258.2401923.0874328.2430646.3639701.4821277.7197366.5738721.5917151.1525905 1.937441.2315751 4.014355.2315751v.4465116c-2.1184815 0-3.4885714-.0804146-4.1330925-.2466226-.5005565-.1290826-.8977356-.4724392-1.0366072-.8585043-.1606003-.4464711.0817772-.8335359.6039339-.8335359.609669 0 1.7406967-.9907853 2.5900348-2.2607209.5278837-.7892951.847884-1.9399012.9529783-3.451509z" fill="#af0100" fill-rule="nonzero" transform="matrix(-1 0 0 1 31.9242 0)"/><path d="m12.1959727 14.3348631.4602202.0299831c-.1099207 1.5810279-.4495801 2.802321-1.0260007 3.6641887-.9295826 1.3899178-2.15634798 2.4645698-2.97723251 2.4645698-.18645281 0-.22981597.0692488-.16832581.2401923.08743285.2430646.36397006.4821277.71973659.5738721.59171511.1525905 1.93744103.2315751 4.01435503.2315751v.4465116c-2.1184815 0-3.48857139-.0804146-4.13309251-.2466226-.50055652-.1290826-.89773563-.4724392-1.03660725-.8585043-.16060028-.4464711.0817772-.8335359.60393395-.8335359.60966898 0 1.74069661-.9907853 2.59003471-2.2607209.5278837-.7892951.847884-1.9399012.9529783-3.451509z" fill="#af0100" fill-rule="nonzero"/><g transform="translate(4.1658 3.9194)"><path d="m17.2566817 2.47813378.9557375 1.1702756-1.2067615 1.0227244.2701469.2790409-.1581469.1429591 1.161.891.5287201-.40612595.933893 1.13516651-.2556131.19595944.0271996.02142836-.1851996.10057164-1.6135641 1.24483126-.9338929-1.13516652.445457-.34466474-1.06-.839-.337751.30626764-.314249-.32526764-.593.503.3947865.40671532-.1447865.12928468 1.224.846.4523598-.34745153.9338929 1.13516651-.1172527.08928502-.027.021-1.8829244 1.45250572-.933893-1.13516656.4578174-.35333916-1.095-.811-.3151114.28694206-.4388886-.45294206-6.55005636 5.55941302c.2824065.4116396.44392118.8870281.44392118 1.3991199 0 1.2512528-.96428753 2.2833767-2.30026138 2.701834-.32500991-.1018544-.57318321-.3262105-.65515151-.5540836-.06149016-.1709435-.018127-.2401923.16832581-.2401923.82088453 0 1.77012168-1.6226164 1.34769562-1.2293132-.03241303.0301784-.06473213.0596454-.09692443.0883717.17193292-.2338547.26784742-.4954614.26784742-.7666166 0-.8884661-1.02974578-1.6744186-2.36396396-1.6744186s-2.36396396.7859525-2.36396396 1.6744186c0 .888466 1.02974578 1.6744186 2.36396396 1.6744186.11267803 0 .2231845-.0056056.33108255-.0164051-.14289973.1534482-.17993829.3856249-.08967115.6365689.0747203.2077235.22422092.4030829.42436886.5593538-.2152143.031684-.43836423.0483893-.66578026.0483893-1.9775001 0-3.63243243-1.2631256-3.63243243-2.9023255 0-1.6392 1.65493233-2.9023256 3.63243243-2.9023256.48498937 0 .95057648.0759763 1.37710645.2148431z" fill="#f4b300" fill-rule="nonzero"/><path d="m.74954955 13.048062c.35027789 0 .63423423-.2248988.63423423-.5023256 0-.2774267-.28395634-.5023255-.63423423-.5023255-.3502779 0-.63423423.2248988-.63423423.5023255 0 .2774268.28395633.5023256.63423423.5023256zm.23063063 4.5767442c.3502779 0 .63423423-.2248988.63423423-.5023256 0-.2774267-.28395633-.5023256-.63423423-.5023256-.35027789 0-.63423423.2248989-.63423423.5023256 0 .2774268.28395634.5023256.63423423.5023256zm5.65045045 0c.3502779 0 .63423423-.2248988.63423423-.5023256 0-.2774267-.28395633-.5023256-.63423423-.5023256-.35027789 0-.63423423.2248989-.63423423.5023256 0 .2774268.28395634.5023256.63423423.5023256z" fill="#bfbfbf"/></g><g transform="matrix(-1 0 0 1 22.5008 6.586)"><path d="m17.4200132.02290845.792406.95883426-1.2557615.97116574.3191469.33059956-.1581469.14240044 1.162.891.5277201-.40556729.933893 1.13516652-.2556131.19540077.0271996.02198702-.2361996.14001298-1.5625641 1.20538992-.9338929-1.13516651.419457-.32422341-1.047-.848-.324751.29482631-.425249-.43982631-.617.478.5297865.54627398-.1437865.12972602 1.224.846.4513598-.34789287.9338929 1.13516652-.1172527.08972635-.048.037-1.8619244 1.43606434-.933893-1.13516651.4098174-.31689783-1.072-.825-.2901114.26450072-.5519094-.57021369.2030208-.18528703-.079-.061-6.99866991 5.42070065c.5473979.5042157.88153473 1.1648379.88153473 1.9013909 0 1.250944-.96381151 2.2828671-2.29927208 2.701524-.32548997-.1010842-.57408844-.3256668-.65614081-.5537735-.06149016-.1709436-.018127-.2401924.16832581-.2401924.82088453 0 1.77012168-1.6226164 1.34769562-1.2293132-.03241303.0301784-.06473213.0596454-.09692443.0883717.17193292-.2338547.26784742-.4954614.26784742-.7666166 0-.8884661-1.02974578-1.6744186-2.36396396-1.6744186s-2.36396396.7859525-2.36396396 1.6744186 1.02974578 1.6744186 2.36396396 1.6744186c.11267803 0 .2231845-.0056056.33108255-.0164051-.14303126.1542752-.17977753.3860719-.08967115.6365689.07459741.2073819.22372935.4024402.4233817.5585825-.21491695.0325069-.43772857.0491607-.6647931.0491607-1.9775001 0-3.63243243-1.2631256-3.63243243-2.9023256s1.65493233-2.90232558 3.63243243-2.90232558c.57902086 0 1.13038655.10829338 1.62065014.30261213z" fill="#bfbfbf" fill-rule="nonzero"/><path d="m.74954955 10.3813953c.35027789 0 .63423423-.2248988.63423423-.50232553 0-.27742676-.28395634-.50232558-.63423423-.50232558-.3502779 0-.63423423.22489882-.63423423.50232558 0 .27742673.28395633.50232553.63423423.50232553zm.23063063 4.5767442c.3502779 0 .63423423-.2248988.63423423-.5023255 0-.2774268-.28395633-.5023256-.63423423-.5023256-.35027789 0-.63423423.2248988-.63423423.5023256 0 .2774267.28395634.5023255.63423423.5023255zm5.65045045 0c.3502779 0 .63423423-.2248988.63423423-.5023255 0-.2774268-.28395633-.5023256-.63423423-.5023256-.35027789 0-.63423423.2248988-.63423423.5023256 0 .2774267.28395634.5023255.63423423.5023255z" fill="#f4b300"/></g><path d="m13.3333333 13.0604651c.0955304 0 .172973.0774427.172973.172973l-.0000991.720027.9858104.0000233c.0924756 0 .1674419.0749662.1674419.1674418s-.0749663.1674419-.1674419.1674419l-.9858104-.000907.0000991 9.5395619c0 .0955304-.0774426.172973-.172973.172973h-.3459459c-.0955303 0-.172973-.0774426-.172973-.172973l-.0002072-9.5395619-.6395581.000907c-.0924756 0-.1674419-.0749663-.1674419-.1674419s.0749663-.1674418.1674419-.1674418l.6395581-.0000233.0002072-.720027c0-.0955303.0774427-.172973.172973-.172973z" fill="#af0100"/><path d="m8.69090968 6.78434711c1.21151947.94857362 1.31421092 3.21290283-.01786421 4.00955529-1.17761207.7042752-1.7633841 2.0522258-1.30513277 2.7082335.38384945.5494981 1.49032035.3008678 2.6419318-.5691202.2079276-.1570795.4064851-.324192.5936725-.4992957l.2720558.2111842c-.205307.1941921-.4237437.3790056-.6528914.5521159-1.29113121.9753886-2.5988924 1.2692499-3.14134485.4927044-.58786169-.8415508.08409643-2.3878288 1.40988224-3.1807199 1.11163289-.66481612 1.02158146-2.65043556-.0178642-3.46428194-.60207224-.47139964-1.19401115-.29098542-1.8517612.60719977l-.28222582-.19367044c.76095236-1.03911225 1.57011455-1.28573291 2.35154211-.67390488zm3.60028242 2.80589432.3419932.05047913c-.111037.70492804-.4456325 1.42066424-.935452 2.08152524l-.2813538-.1953225c.4597113-.6202375.7725533-1.2874797.8748126-1.93668187z" fill="#979797" fill-rule="nonzero"/><path d="m16.4170358 6.78434711c1.2115195.94857362 1.3142109 3.21290283-.0178642 4.00955529-1.1776121.7042752-1.7633841 2.0522258-1.3051328 2.7082335.3838495.5494981 1.4903204.3008678 2.6419319-.5691202.2079275-.1570795.4064851-.324192.5936724-.4992957l.2720558.2111842c-.205307.1941921-.4237436.3790056-.6528914.5521159-1.2911312.9753886-2.5988924 1.2692499-3.1413448.4927044-.5878617-.8415508.0840964-2.3878288 1.4098822-3.1807199 1.1116329-.66481612 1.0215815-2.65043556-.0178642-3.46428194-.6020722-.47139964-1.1940111-.29098542-1.8517612.60719977l-.2822258-.19367044c.7609524-1.03911225 1.5701145-1.28573291 2.3515421-.67390488zm3.6002824 2.80589432.3419932.05047913c-.111037.70492804-.4456325 1.42066424-.935452 2.08152524l-.2813538-.1953225c.4597113-.6202375.7725533-1.2874797.8748126-1.93668187z" fill="#979797" fill-rule="nonzero" transform="matrix(-1 0 0 1 34.4248 0)"/><ellipse cx="13.16036" cy="23.665116" fill="#af0100" rx="1" ry="1"/><ellipse cx="13.045045" cy="9.209302" fill="#af0100" rx="2.421622" ry="1"/><path d="m13.1813814.05116279-.0008278.398.400077.00083721v.33488372l-.400077-.00072093.0008278.97804651h-.345946l-.0008818-.97804651-.3267458.00072093v-.33488372l.3267458-.00083721.0008818-.398zm-.0696697 8.4434593c1.0378911 0 1.8843879.1585559 2.5378964.47884073l-.1742913.25111141c-.5953403-.29177656-1.3826774-.43925136-2.3636051-.43925136-.9839081 0-1.8272353.14838902-2.5316261.44375268l-.1544655-.26011405c.7552689-.31669773 1.6511809-.47433941 2.6860916-.47433941zm0-1.89767442c1.0378911 0 1.8843879.1585559 2.5378964.47884073l-.1742913.25111141c-.5953403-.29177656-1.3826774-.43925136-2.3636051-.43925136-.9697872 0-1.8029997.14416027-2.5012123.43112646l.4034646.88560637c.0988776-.02850478.1997697-.05472976.3026735-.07867738-.0722032-.07866001-.1166375-.18946445-.1166375-.31175041 0-.24660156.1806995-.44651163.4036036-.44651163s.4036036.19991007.4036036.44651163c0 .07045759-.014751.13710363-.0410227.1963645.272583-.03832315.5596625-.0609568.8589904-.06970303l-.0006213-.37845217-.4320611.00004829v-.26934073l.4330611-.00070756.0002144-.32006977h.4575008l-.0007152.32006977.5287077.00070756v.26934073l-.5287077-.00004829v.377l.134782.00207962c.2906576.00923004.5651192.03189282.8233458.06806634-.0277322-.05825163-.0424832-.12489767-.0424832-.19535526 0-.24660156.1806995-.44651163.4036036-.44651163s.4036036.19991007.4036036.44651163c0 .12736006-.0481983.24226602-.1255164.323611.1302292.03135537.2546464.06942154.3738836.11181932l.330781-.7263094.3164784.13524653-.3279905.72062329c.0258099.01188533.0513321.02401162.0765666.03637905l-.1742913.25111142-.0287632-.01327191-.0522784.11635001-.3164784-.13524653.0527303-.11301475c-.5044534-.18122902-1.1194218-.27918966-1.8455999-.29249935l-.0016584.11950364h-.4575008l-.0002144-.11709302-.0366068.00151449c-.846834.02929589-1.5827361.17571326-2.2088612.43825874l-.1544655-.26011406c.0842331-.03532043.1702155-.06866246.257945-.10002807l-.4490115-.98735667.272-.11627443-.0809335-.13587571c.7552689-.31669773 1.6511809-.47433941 2.6860916-.47433941zm0-1.89767441c1.0378911 0 1.8843879.15855589 2.5378964.47884072l-.1742913.25111141c-.5953403-.29177656-1.3826774-.43925136-2.3636051-.43925136-.9697872 0-1.8029997.14416027-2.5012123.43112646l.4034646.88560638c.0988776-.02850479.1997697-.05472977.3026735-.07867739-.0718337-.07774067-.1166375-.18895704-.1166375-.31175041 0-.24660156.1806995-.44651163.4036036-.44651163s.4036036.19991007.4036036.44651163c0 .07084902-.0149153.13784402-.0414617.1973515.2723261-.03925526.5597387-.06193319.8594294-.07069003l-.0006213-.37877775-.4320611.00037387v-.26934073l.4330611-.00003314.0002144-.32074419h.4575008l-.0007152.32074419.5287077.00003314v.26934073l-.5287077-.00037387v.377l.134782.0024052c.2906576.00923004.5651192.03189282.8233458.06806634-.0277322-.05825163-.0424832-.12489767-.0424832-.19535526 0-.24660156.1806995-.44651163.4036036-.44651163s.4036036.19991007.4036036.44651163c0 .12736007-.0481983.24226602-.1255164.323611.1302292.03135537.2546464.06942154.3738836.11181932l.330781-.7263094.3164784.13524653-.3279905.72062329c.0258099.01188533.0513321.02401162.0765666.03637905l-.1742913.25111142-.0287632-.01359749-.0522784.11667559-.3164784-.13524653.0527303-.11301474c-.5044534-.18122903-1.1194218-.27918967-1.8455999-.29249935l-.0016584.11950364h-.4575008l-.0002144-.11741861-.0366068.00184007c-.846834.02929589-1.5827361.17571326-2.2088612.43825874l-.1544655-.26011406c.0845474-.03545222.1708572-.06891126.2589272-.1003791l-.4499937-.98700564.272-.11660001-.0809335-.13555013c.7552689-.31669773 1.6511809-.4743394 2.6860916-.4743394zm.1715571-1.52252907-.0007152.3204186.5287077.00035872v.26934073l-.5287077-.00069945v.377l.134782.00273078c.2906576.00923004.5651192.03189282.8233458.06806634-.0276371-.05782239-.0424832-.12467075-.0424832-.19535526 0-.24660156.1806995-.44651163.4036036-.44651163s.4036036.19991007.4036036.44651163c0 .12717817-.0480607.24193777-.1251852.32326226.129898.03170411.2543152.06977028.3735524.11216806l.330781-.7263094.3164784.13524653-.3279905.72062329c.0258099.01188533.0513321.02401162.0765666.03637906l-.1742913.25111141-.0287632-.01292307-.0522784.11600117-.3164784-.13524652.0527303-.11301475c-.5044534-.18122903-1.1194218-.27918967-1.8455999-.29249935l-.0016584.11950364h-.4575008l-.0002144-.11674419-.0366068.00116565c-.846834.02929589-1.5827361.17571326-2.2088612.43825874l-.1544655-.26011405c.0842331-.03532043.1702155-.06866247.257945-.10002808l-.4490115-.98735667.3164784-.13524653.462932 1.0161906c.0988776-.02850478.1997697-.05472977.3026735-.07867739-.0720291-.07822631-.1166375-.1892251-.1166375-.31175041 0-.24660156.1806995-.44651163.4036036-.44651163s.4036036.19991007.4036036.44651163c0 .07068451-.0148461.13753287-.0412769.19693684.2728372-.03889549.5599167-.06152913.8592446-.07027536l-.0006213-.37910334-.4320611.00069945v-.26934073l.4330611-.00035872.0002144-.3204186z" fill="#f4b300" fill-rule="nonzero"/></g></g></g><rect height="32" mask="url(#a)" rx="2" width="43.335938"/></g></svg>