<svg height="32" viewBox="0 0 43 32" width="43" xmlns="http://www.w3.org/2000/svg" xmlns:xlink="http://www.w3.org/1999/xlink"><mask id="a" fill="#fff"><path d="m0 0h43.335938v32h-43.335938z" fill="#fff" fill-rule="evenodd"/></mask><mask id="b" fill="#fff"><path d="m0 0h42.666667v32h-42.666667z" fill="#fff" fill-rule="evenodd"/></mask><g fill="none" fill-rule="evenodd"><g fill-rule="evenodd" mask="url(#a)"><g mask="url(#b)" transform="translate(.3346)"><path d="m10.666667 0h21.333333v32h-21.333333z" fill="#ffdc17"/><path d="m32 0h10.666667v32h-10.666667z" fill="#5fbf2b"/><path d="m0 0h10.666667v32h-10.666667z" fill="#2e42a5"/><path d="m9.49382263 7.4730286s1.24577757 1.94845781 3.73733277 5.8453734l-3.73733277 6.0164427-4.36963962-6.0164427c.97103102-1.2989718 1.78022355-2.3814484 2.42757757-3.2474297l.42231231-.56493743c.33981982-.45458525.62265122-.83293571.8484942-1.13505137l.32363793-.43293834c.23174507-.31001104.34761761-.46501656.34761761-.46501656zm4.80802957-6.6730286s1.3511621 1.98350026 4.0534862 5.95050079l-4.0534862 5.74003081-4.0534862-5.74003081c2.5637434-3.7635646 3.9113521-5.74184856 4.0428262-5.93485187zm-9.93221257.10512737s1.2457776 1.94845781 3.7373328 5.84537342l-4.05348622 5.63513351-4.05348621-5.63513351c2.91309308-3.89691561 4.36963963-5.84537342 4.36963963-5.84537342z" fill="#5fbf2b" transform="translate(12 6.6667)"/></g></g><rect height="32" mask="url(#a)" rx="2" width="43.335938"/></g></svg>