<svg height="32" viewBox="0 0 43 32" width="43" xmlns="http://www.w3.org/2000/svg" xmlns:xlink="http://www.w3.org/1999/xlink"><defs><path id="a" d="m0 0h42.666667v32h-42.666667z"/><mask id="b" fill="#fff"><path d="m0 0h43.335938v32h-43.335938z" fill="#fff" fill-rule="evenodd"/></mask><mask id="c" fill="#fff"><path d="m0 0h42.666667v32h-42.666667z" fill="#fff" fill-rule="evenodd"/></mask><mask id="d" fill="#fff"><use fill="#fff" fill-rule="evenodd" xlink:href="#a"/></mask></defs><g fill="none" fill-rule="evenodd"><g fill-rule="evenodd" mask="url(#b)"><g mask="url(#c)" transform="translate(.3346)"><use fill="#2e42a5" xlink:href="#a"/><path d="m0 0h42.666667v10.666667h-42.666667z" fill="#feca00" mask="url(#d)"/><path d="m0 21.333333h42.666667v10.666667h-42.666667z" fill="#e31d1c" mask="url(#d)"/><g fill="#f7fcff" mask="url(#d)"><g transform="translate(6.6667 10.6667)"><path d="m11.623994 1.09549218.6447144 1.42958977h1.3975016l-1.0980497 1.11012698.5279715 1.51069754-1.4701629-.74331131-1.3102493.74331131.3742136-1.51069754-.0144425-.01371675-1.09100635 1.10398724.52797145 1.51069754-1.47016284-.74331131-1.31024932.74331131.01644703-.06868478-.62876184.63656007.52797145 1.51069754-1.47016284-.74331132-.30004677.16905371.07139198.00068568-1.09804966 1.11012698.52797145 1.51069756-1.47016284-.74331133-1.31024932.74331133.3742136-1.51069756-1.25511521-1.11012698h1.63935097l.54982503-1.42958978.64471435 1.42958978.45710965-.00068568.23301105-.93643993-1.25511521-1.11012698h1.63935097l.54982503-1.42958978.64471435 1.42958978 1.04521381-.00043309.24076657-.96801276-1.25511521-1.11012698h1.63935097l.54982503-1.42958977.64471436 1.42958977 1.38145831-.00086026-1.23167268-1.08941023h1.63935098z"/><path d="m25.9264213 1.03704363.6447144 1.42958978h1.3975016l-1.0980496 1.11012698.5279714 1.51069753-1.4701628-.74331131-1.3102494.74331131.3742136-1.51069753-.0179624-.01571676-1.094007 1.10598779.5279714 1.51069754-1.4701628-.74331131-1.3102493.74331131.0164477-.06868533-.6287626.63656007.5279715 1.51069754-1.4701629-.74331131-.300046.1690537.071392.00068568-1.0980497 1.11012698.5279714 1.51069751-1.4701628-.74331128-1.3102493.74331128.3742136-1.51069751-1.2551152-1.11012698h1.6393509l.5498251-1.42958977.6447143 1.42958977.4571097-.00068568.2330103-.93643993-1.2551152-1.11012698h1.639351l.549825-1.42958978.6447144 1.42958978 1.0452145-.00043309.2407659-.96801221-1.2551153-1.11012698h1.639351l.549825-1.42958977.6447144 1.42958977 1.387459-.00086081-1.2311528-1.08941022h1.639351z" transform="matrix(-1 0 0 1 43.582 0)"/><path d="m14.443884 3.3796485-1.3102493.74331131.3742136-1.51069754-1.2551152-1.11012698h1.639351l.549825-1.42958977.6447144 1.42958977h1.3975016l-1.0980497 1.11012698.5279715 1.51069754z"/></g></g></g></g><rect height="32" mask="url(#b)" rx="2" width="43.335938"/></g></svg>