<svg height="32" viewBox="0 0 43 32" width="43" xmlns="http://www.w3.org/2000/svg" xmlns:xlink="http://www.w3.org/1999/xlink"><defs><path id="a" d="m0 0h42.666667v32h-42.666667z"/><path id="b" d="m0 0h24v18.666667h-24z"/><mask id="c" fill="#fff"><path d="m0 0h43.335938v32h-43.335938z" fill="#fff" fill-rule="evenodd"/></mask><mask id="d" fill="#fff"><path d="m0 0h42.666667v32h-42.666667z" fill="#fff" fill-rule="evenodd"/></mask><mask id="e" fill="#fff"><use fill="#fff" fill-rule="evenodd" xlink:href="#a"/></mask><mask id="f" fill="#fff"><use fill="#fff" fill-rule="evenodd" xlink:href="#b"/></mask></defs><g fill="none" fill-rule="evenodd"><g fill-rule="evenodd" mask="url(#c)"><g mask="url(#d)" transform="translate(.3346)"><use fill="#2e42a5" xlink:href="#a"/><g mask="url(#e)"><use fill="#2b409a" xlink:href="#b"/><g mask="url(#f)"><g fill-rule="nonzero"><path d="m1.32764499 3.28505196 5.28126726-2.31626725 21.51092825 17.13103699 2.7857478 3.4420421-5.6475555.7741648-8.7737935-7.382254-7.06200197-4.97391428z" fill="#f7fcff" transform="matrix(1 0 0 -1 -4 20.6181)"/><path d="m2.05065842 2.76731119 2.69056181-1.34416892 25.16402527 21.54362063h-3.7778619z" fill="#f50100" transform="matrix(1 0 0 -1 -4 21.7233)"/><path d="m1.32764499 3.28505196 5.28126726-2.31626725 21.51092825 17.13103699 2.7857478 3.4420421-5.6475555.7741648-8.7737935-7.382254-7.06200197-4.97391428z" fill="#f7fcff" transform="matrix(-1 0 0 -1 28 20.6181)"/><path d="m1.50784817 3.09890547 2.6905618-1.34416891 10.71510273 9.22394324 3.176798 1.030569 13.0833277 10.4993758h-3.7778619l-13.075977-10.2501652-3.4732688-1.2357627z" fill="#f50100" transform="matrix(-1 0 0 -1 28 21.5967)"/></g><path d="m14.3127673-1-.000682 7.99909357 10.6879147.00099999v4.66663544l-10.6879147-.0006666.000682 8.0006043h-4.66675002l-.00001536-8.0006041-10.64600192.0006667v-4.66663537l10.64600192-.001.00001536-7.99909393z" fill="#f50100" stroke="#f7fcff" stroke-width="2"/></g></g><g mask="url(#e)"><g transform="translate(25.6 13.3333)"><path d="m1.39557385.04358788v8.70552788c-.08599789 4.80191264 2.08376563 7.20286894 6.50929056 7.20286894 4.42552489 0 6.63828739-2.4009563 6.63828739-7.20286894v-8.70552788z" fill="#3b7e05" stroke="#f7fcff" stroke-width=".666667"/><g fill="none" transform="translate(1.0667 .8)"><path d="m11.8486285 11.3236753.6015905.602579.0258963-.0369927c.3680199.3115508.6106455.603068.7271241.9407443.1897232.5500155-.01293 1.0785209-.4576561 1.3581412-.1102896.0693443-.1978438.119301-.2757176.1555534-.1804912.0840235-.325183.1205735-.5400131.0599972-.2190141-.061756-.4030632-.2305059-.4980233-.462637-1.49906271 1.3276056-3.10902164 2.0024692-4.81860112 2.0024692-1.69506304 0-3.29287419-.6634488-4.78345088-1.9681706-.09758657.2276111-.28381582.3918192-.50282157.4494663-.21585459.0568177-.35988644.0177482-.53888369-.0694126-.07722933-.037606-.16389829-.0890831-.27296092-.1603416-.43977828-.2873393-.63317696-.8193009-.43388354-1.3659216.05419894-.1486565.14122203-.2865904.25381003-.4206493-.0057364-.0071958-.0123453-.0153412-.01895179-.0235004l1.05756702-1.0617458c1.65275318 2.0412036 3.39114087 3.03469 5.23957534 3.03469 1.84828359 0 3.58522932-.9933226 5.23540032-3.034269z" fill="#ffd018" fill-rule="nonzero" stroke="#fff" stroke-width=".666667"/><path d="m2.7561169 1.20142491-.14833887-.05437908c.08874258-.20295378.06250038-.36026608 0-.41654561l-.00651043-.00586243-.00551294-.00701702c-.10799763-.13746242-.04573999-.34136713.09235611-.6239171l.06800613.13950684c-.09937318.20332138-.03175379.29394414 0 .34416756.14126726.13560306.12121942.34681872 0 .62404684zm0 2.01801802-.14833887-.05437909c.08874258-.20295377.06250038-.36026607 0-.4165456l-.00651043-.00586243-.00551294-.00701702c-.10799763-.13746242-.04573999-.34136713.09235611-.6239171l.06800613.13950683c-.09937318.20332139-.03175379.29394415 0 .34416757.14126726.13560306.12121942.34681872 0 .62404684zm0 1.8018018-.14833887-.05437908c.08874258-.20295378.06250038-.36026608 0-.41654561l-.00651043-.00586243-.00551294-.00701702c-.10799763-.13746242-.04573999-.34136713.09235611-.6239171l.06800613.13950684c-.09937318.20332138-.03175379.29394414 0 .34416756.14126726.13560306.12121942.34681872 0 .62404684zm1.0355987 2.16216216-.14833887-.05437908c.08874258-.20295378.06250039-.36026608 0-.41654561l-.00651043-.00586242-.00551294-.00701702c-.10799763-.13746243-.04573998-.34136713.09235611-.62391711l.06800613.13950684c-.09937317.20332138-.03175378.29394414 0 .34416756.14126726.13560306.12121942.34681872 0 .62404684zm-1.22977346 1.72972973-.14833887-.05437908c.08874258-.20295378.06250038-.36026608 0-.41654561l-.00651043-.00586242-.00551294-.00701702c-.10799763-.13746243-.04573998-.34136713.09235611-.62391711l.06800613.13950684c-.09937318.20332138-.03175379.29394414 0 .34416756.14126726.13560306.12121942.34681872 0 .62404684zm0 2.01801798-.14833887-.054379c.08874258-.2029538.06250038-.3602661 0-.4165456l-.00651043-.0058625-.00551294-.007017c-.10799763-.1374624-.04573998-.3413671.09235611-.6239171l.06800613.13950684c-.09937318.20332136-.03175379.29394416 0 .34416756.14126726.1356031.12121942.3468187 0 .6240468zm6.40776699 0-.14833887-.054379c.08874258-.2029538.06250038-.3602661 0-.4165456l-.00651043-.0058625-.00551294-.007017c-.10799763-.1374624-.04573998-.3413671.09235611-.6239171l.06800613.13950684c-.09937318.20332136-.03175379.29394416 0 .34416756.14126726.1356031.12121942.3468187 0 .6240468zm0-1.94594591-.14833887-.05437908c.08874258-.20295377.06250038-.36026608 0-.41654561l-.00651043-.00586242-.00551294-.00701702c-.10799763-.13746243-.04573998-.34136713.09235611-.6239171l.06800613.13950683c-.09937318.20332138-.03175379.29394414 0 .34416756.14126726.13560307.12121942.34681873 0 .62404684zm0-1.94594594-.14833887-.05437909c.08874258-.20295377.06250038-.36026608 0-.4165456l-.00651043-.00586243-.00551294-.00701702c-.10799763-.13746242-.04573998-.34136713.09235611-.6239171l.06800613.13950683c-.09937318.20332139-.03175379.29394415 0 .34416757.14126726.13560306.12121942.34681872 0 .62404684zm-.06472492-1.87387388-.14833887-.05437908c.08874258-.20295377.06250038-.36026608 0-.41654561l-.00651043-.00586242-.00551294-.00701702c-.10799763-.13746243-.04573998-.34136713.09235611-.6239171l.06800613.13950683c-.09937318.20332138-.03175379.29394414 0 .34416756.14126726.13560307.12121942.34681873 0 .62404684zm0-2.01801802-.14833887-.05437908c.08874258-.20295377.06250038-.36026608 0-.4165456l-.00651043-.00586243-.00551294-.00701702c-.10799763-.13746243-.04573998-.34136713.09235611-.6239171l.06800613.13950683c-.09937318.20332138-.03175379.29394415 0 .34416757.14126726.13560306.12121942.34681872 0 .62404683zm0-1.87387387-.14833887-.05437908c.08874258-.20295378.06250038-.36026608 0-.41654561l-.00651043-.00586242-.00551294-.00701702c-.10799763-.13746243-.04573998-.34136713.09235611-.6239171l.06800613.13950683c-.09937318.20332138-.03175379.29394414 0 .34416756.14126726.13560307.12121942.34681872 0 .62404684z" fill="#f50100" fill-rule="nonzero"/><path d="m3.56375405.72072072c.07363796 0 .13333333.06453553.13333333.14414415 0 .03731653-.01311666.07132111-.03463758.09691926l.17297253.17272555h.38688011c.38006581-.34484855.57009871-.43106068.57009871-.25863641s-.09086941.34910015-.27260825.53002765c-.10950367.07559328-.16425551.07559328-.16425551 0 0-.02267798-.00149732-.02667897-.00643605-.01854761l-.02708457.05424652c-.04129703.0775543-.13106373.20539807-.32179086.20682612v.15806237h-.92343715l.13011097-.15806237c-.15210671-.10517148-.25786526-.18601316-.31727566-.24252503-.19474628-.03779664-.32339575-.12826038-.3859484-.27139124h.85657305l.12565775-.15260718c-.03360647-.02617119-.05548576-.06884215-.05548576-.11703763 0-.07960862.05969537-.14414415.13333334-.14414415zm0-.64864865c.07363796 0 .13333333.06453553.13333333.14414415 0 .02507671-.00592327.0486578-.01633978.06919726l.53614596.80210119-.05188105.04309271-.53005571-.79249942c-.0206006.01409383-.04502037.0222524-.07120275.0222524-.01830999 0-.03575795-.00398998-.05164054-.01120956l-.50403027.780949-.05254879-.04207755.50465269-.78101561c-.01861253-.02478386-.02976643-.05637896-.02976643-.09079042 0-.07960862.05969537-.14414415.13333334-.14414415zm0 2.66666667c.07363796 0 .13333333.06453553.13333333.14414414 0 .03731654-.01311666.07132112-.03463758.09691927l.17297253.17272554h.38688011c.38006581-.34484854.57009871-.43106068.57009871-.2586364 0 .17242427-.09086941.34910015-.27260825.53002765-.10950367.07559327-.16425551.07559327-.16425551 0 0-.02267798-.00149732-.02667897-.00643605-.01854761l-.02708457.05424651c-.04129703.07755431-.13106373.20539808-.32179086.20682613v.15806236h-.92343715l.13011097-.15806236c-.15210671-.10517148-.25786526-.18601316-.31727566-.24252503-.19474628-.03779664-.32339575-.12826039-.3859484-.27139125h.85657305l.12565775-.15260717c-.03360647-.02617119-.05548576-.06884215-.05548576-.11703764 0-.07960861.05969537-.14414414.13333334-.14414414zm0-.64864865c.07363796 0 .13333333.06453553.13333333.14414414 0 .02507672-.00592327.0486578-.01633978.06919727l.53614596.80210119-.05188105.04309271-.53005571-.79249942c-.0206006.01409383-.04502037.0222524-.07120275.0222524-.01830999 0-.03575795-.00398999-.05164054-.01120957l-.50403027.78094901-.05254879-.04207755.50465269-.78101561c-.01861253-.02478386-.02976643-.05637896-.02976643-.09079043 0-.07960861.05969537-.14414414.13333334-.14414414zm0 2.45045045c.07363796 0 .13333333.06453553.13333333.14414414 0 .03749309-.01324107.07164281-.03494361.09728204l.17327856.17236277h.38688011c.38006581-.34484854.57009871-.43106067.57009871-.2586364s-.09086941.34910015-.27260825.53002765c-.10950367.07559328-.16425551.07559328-.16425551 0 0-.02267798-.00149732-.02667897-.00643605-.01854761l-.02708457.05424651c-.04129703.07755431-.13106373.20539808-.32179086.20682613v.15806237h-.92343715l.13011097-.15806237c-.15210671-.10517148-.25786526-.18601316-.31727566-.24252503-.19474628-.03779664-.32339575-.12826038-.3859484-.27139125h.85657305l.12656072-.15191011c-.03411699-.02610671-.05638873-.06910889-.05638873-.1177347 0-.07960861.05969537-.14414414.13333334-.14414414zm0-.64864865c.07363796 0 .13333333.06453553.13333333.14414415 0 .02507671-.00592327.0486578-.01633978.06919726l.53614596.80210119-.05188105.04309271-.53005571-.79249942c-.0206006.01409383-.04502037.0222524-.07120275.0222524-.01830999 0-.03575795-.00398998-.05164054-.01120956l-.50403027.780949-.05254879-.04207755.50465269-.78101561c-.01861253-.02478385-.02976643-.05637896-.02976643-.09079042 0-.07960862.05969537-.14414415.13333334-.14414415zm-.19417476 4.54054054c.07363796 0 .13333333.06453553.13333333.14414415 0 .03749309-.01324106.0716428-.0349436.09728203l.17327855.17236278h.38688011c.38006581-.34484855.57009872-.43106068.57009872-.25863641s-.09086942.34910016-.27260825.53002765c-.10950368.07559328-.16425552.07559328-.16425552 0 0-.11338991-.03743294.24014494-.35531148.24252503v.15806237h-.92343715l.13011097-.15806237c-.1521067-.10517148-.25786526-.18601315-.31727566-.24252503-.19474628-.03779663-.32339574-.12826038-.38594839-.27139124h.85657305l.12661104-.15187162c-.03414542-.02610292-.05643906-.06912349-.05643906-.11777319 0-.07960862.05969537-.14414415.13333334-.14414415zm0-.64864865c.07363796 0 .13333333.06453554.13333333.14414415 0 .0249032-.00584159.04833141-.0161242.06877049l.53593038.80252796-.05188105.04309271-.53005571-.79249942c-.0206006.01409384-.04502036.0222524-.07120275.0222524-.01800039 0-.03516767-.0038562-.05083356-.01084613l-.50483725.78058557-.05254879-.04207755.5045226-.78118912c-.0185344-.02475772-.02963634-.0562857-.02963634-.09061691 0-.07960861.05969537-.14414415.13333334-.14414415zm1.22977346-1.08108108c.07363797 0 .13333333.06453553.13333333.14414415 0 .03731653-.01311665.07132111-.03463758.09691926l.17297254.17272555h.3868801c.38006581-.34484855.57009872-.43106068.57009872-.25863641s-.09086942.34910016-.27260825.53002765c-.10950368.07559328-.16425552.07559328-.16425552 0 0-.11338991-.03743293.24014495-.35531147.24252503v.15806237h-.92343716l.13011098-.15806237c-.15210671-.10517148-.25786527-.18601315-.31727567-.24252503-.19474628-.03779663-.32339574-.12826038-.38594839-.27139124h.85657305l.12568275-.15258771c-.03362062-.02616949-.05551076-.06884967-.05551076-.1170571 0-.07960862.05969536-.14414415.13333333-.14414415zm0-.64864865c.07363797 0 .13333333.06453554.13333333.14414415 0 .02547475-.0061128.04940603-.01683919.07017303l.53664537.80112542-.05188104.04309271-.53078808-.79200196c-.02044597.01378817-.04459759.02175494-.07047039.02175494-.01840949 0-.03594757-.00403347-.05189935-.01132756l-.50377146.781067-.05254879-.04207755.5038243-.78212987c-.0181146-.02461336-.02893803-.0557783-.02893803-.08967616 0-.07960861.05969536-.14414415.13333333-.14414415zm-1.22977346 4.39639645c.07363796 0 .13333333.0645355.13333333.1441441 0 .0374931-.01324106.0716428-.0349436.097282l.17327855.1723628h.38688011c.38006581-.3448485.57009872-.4310607.57009872-.2586364s-.09086942.3491002-.27260825.5300277c-.10950368.0755932-.16425552.0755932-.16425552 0 0-.022678-.00149732-.026679-.00643605-.0185477l-.02708457.0542466c-.04129703.0775543-.13106373.205398-.32179086.2068261v.1580623h-.92343715l.13011097-.1580623c-.1521067-.1051715-.25786526-.1860132-.31727566-.242525-.19474628-.0377967-.32339574-.1282604-.38594839-.2713913h.85657305l.12661104-.1518716c-.03414542-.0261029-.05643906-.0691235-.05643906-.1177732 0-.0796086.05969537-.1441441.13333334-.1441441zm0-.6486487c.07363796 0 .13333333.06453553.13333333.14414415 0 .02507671-.00592327.0486578-.01633977.06919725l.53614595.8021012-.05188105.0430927-.53005571-.7924994c-.0206006.0140938-.04502036.0222524-.07120275.0222524-.01800039 0-.03516767-.0038562-.05083356-.0108461l-.50483725.7805855-.05254879-.0420775.5046527-.7810156c-.01861253-.0247839-.02976644-.05637899-.02976644-.09079045 0-.07960862.05969537-.14414415.13333334-.14414415zm6.40776699.6486487c.07363796 0 .13333333.0645355.13333333.1441441 0 .0374931-.01324106.0716428-.0349436.097282l.17327859.1723628h.3868801c.3800658-.3448485.5700987-.4310607.5700987-.2586364s-.0908694.3491002-.2726083.5300277c-.1095036.0755932-.1642555.0755932-.1642555 0 0-.11339-.0374329.2401449-.3553115.242525v.1580623h-.92343711l.13011097-.1580623c-.1521067-.1051715-.25786526-.1860132-.31727566-.242525-.19474628-.0377967-.32339574-.1282604-.38594839-.2713913h.85657305l.12661104-.1518716c-.03414541-.0261029-.05643906-.0691235-.05643906-.1177732 0-.0796086.05969537-.1441441.13333334-.1441441zm0-.6486487c.07363796 0 .13333333.06453553.13333333.14414415 0 .02547475-.0061128.04940602-.01683919.07017305l.53664538.8011254-.0518811.0430927-.53078803-.792002c-.02044598.0137882-.04459759.021755-.07047039.021755-.01840949 0-.03594757-.0040335-.05189935-.0113276l-.50377146.781067-.05254879-.0420775.5038243-.7821299c-.0181146-.0246133-.02893804-.05577829-.02893804-.08967615 0-.07960862.05969537-.14414415.13333334-.14414415zm0-1.2972973c.07363796 0 .13333333.06453554.13333333.14414415 0 .03749309-.01324106.07164281-.0349436.09728203l.17327859.17236278h.3868801c.3800658-.34484854.5700987-.43106068.5700987-.25863641s-.0908694.34910016-.2726083.53002766c-.1095036.07559327-.1642555.07559327-.1642555 0 0-.11338992-.0374329.24014494-.3553115.24252503v.15806236h-.92343711l.13011097-.15806236c-.1521067-.10517149-.25786526-.18601316-.31727566-.24252503-.19474628-.03779664-.32339574-.12826039-.38594839-.27139125h.85657305l.12661104-.15187162c-.03414541-.02610292-.05643906-.06912348-.05643906-.11777319 0-.07960861.05969537-.14414415.13333334-.14414415zm0-.64864864c.07363796 0 .13333333.06453553.13333333.14414414 0 .02547476-.0061128.04940603-.01683919.07017303l.53664538.80112542-.0518811.04309272-.53078803-.79200197c-.02044598.01378818-.04459759.02175494-.07047039.02175494-.01840949 0-.03594757-.00403347-.05189935-.01132756l-.50377146.781067-.05254879-.04207755.5038243-.78212987c-.0181146-.02461336-.02893804-.0557783-.02893804-.08967616 0-.07960861.05969537-.14414414.13333334-.14414414zm0-1.2972973c.07363796 0 .13333333.06453553.13333333.14414414 0 .03749309-.01324106.07164281-.0349436.09728203l.17327859.17236278h.3868801c.3800658-.34484854.5700987-.43106068.5700987-.2586364 0 .17242427-.0908694.34910015-.2726083.53002765-.1095036.07559327-.1642555.07559327-.1642555 0 0-.11338991-.0374329.24014494-.3553115.24252503v.15806236h-.92343711l.13011097-.15806236c-.1521067-.10517148-.25786526-.18601316-.31727566-.24252503-.19474628-.03779664-.32339574-.12826039-.38594839-.27139125h.85657305l.12661104-.15187162c-.03414541-.02610292-.05643906-.06912348-.05643906-.11777319 0-.07960861.05969537-.14414414.13333334-.14414414zm0-.64864865c.07363796 0 .13333333.06453553.13333333.14414414 0 .02547476-.0061128.04940603-.01683919.07017304l.53664538.80112541-.0518811.04309272-.53078803-.79200196c-.02044598.01378817-.04459759.02175494-.07047039.02175494-.01840949 0-.03594757-.00403347-.05189935-.01132756l-.50377146.781067-.05254879-.04207755.5038243-.78212988c-.0181146-.02461335-.02893804-.0557783-.02893804-.08967616 0-.07960861.05969537-.14414414.13333334-.14414414zm-.06472492-1.22522523c.07363797 0 .13333333.06453554.13333333.14414415 0 .03731654-.01311666.07132112-.03463758.09691927l.17297254.17272554h.38688005c.3800659-.34484854.5700988-.43106068.5700988-.25863641s-.0908694.34910016-.2726083.53002766c-.1095037.07559327-.1642555.07559327-.1642555 0 0-.02267799-.0014973-.02667898-.0064361-.01854762l-.0270845.05424652c-.041297.0775543-.1310638.20539807-.3217909.20682613v.15806236h-.92343713l.13011098-.15806236c-.15210671-.10517149-.25786527-.18601316-.31727567-.24252503-.19474628-.03779664-.32339574-.12826039-.38594839-.27139125h.85657305l.12568275-.1525877c-.03362062-.0261695-.05551076-.06884967-.05551076-.11705711 0-.07960861.05969536-.14414415.13333333-.14414415zm0-.64864864c.07363797 0 .13333333.06453553.13333333.14414414 0 .02507671-.00592327.0486578-.01633977.06919727l.53614598.80210118-.0518811.04309272-.53005569-.79249942c-.02060059.01409383-.04502036.02225239-.07120275.02225239-.01800039 0-.03516767-.00385619-.05083356-.01084612l-.50483725.78058556-.05254879-.04207755.5046527-.78101561c-.01861253-.02478385-.02976643-.05637896-.02976643-.09079042 0-.07960861.05969536-.14414414.13333333-.14414414zm0-1.36936937c.07363797 0 .13333333.06453553.13333333.14414414 0 .03731654-.01311666.07132112-.03463758.09691927l.17297254.17272554h.38688005c.3800659-.34484854.5700988-.43106068.5700988-.25863641 0 .17242428-.0908694.34910016-.2726083.53002766-.1095037.07559327-.1642555.07559327-.1642555 0 0-.02267798-.0014973-.02667898-.0064361-.01854761l-.0270845.05424651c-.041297.07755431-.1310638.20539807-.3217909.20682613v.15806236h-.92343713l.13011098-.15806236c-.15210671-.10517148-.25786527-.18601316-.31727567-.24252503-.19474628-.03779664-.32339574-.12826039-.38594839-.27139125h.85657305l.12568275-.1525877c-.03362062-.0261695-.05551076-.06884967-.05551076-.11705711 0-.07960861.05969536-.14414414.13333333-.14414414zm0-.64864865c.07363797 0 .13333333.06453553.13333333.14414414 0 .02507672-.00592327.0486578-.01633977.06919727l.53614598.80210118-.0518811.04309272-.53005569-.79249942c-.02060059.01409383-.04502036.0222524-.07120275.0222524-.01800039 0-.03516767-.0038562-.05083356-.01084613l-.50483725.78058556-.05254879-.04207754.5046527-.78101562c-.01861253-.02478385-.02976643-.05637895-.02976643-.09079042 0-.07960861.05969536-.14414414.13333333-.14414414z" fill="#ffd018"/><path d="m6.18639007 2.64751308s-.14949661.48598144-.44848984 1.45794431c-.50088288.64801867-.79751676 1.13080843-.88990165 1.44836928-.13857734.47634127-.21450532.79283823-.17654133.79283823s.34495169-.13561364.34495169-.46422593c0-.21907487.38999371-.68085819 1.16998113-1.38534998l.34922191-1.84957591c-.2328146 0-.34922191 0-.34922191 0z" fill="#ffc6b5"/><path d="m9.71262136.79279279c.07363797 0 .13333333.06453553.13333333.14414415 0 .03731653-.01311666.07132111-.03463758.09691926l.17297254.17272555h.38688005c.3800659-.34484855.5700988-.43106068.5700988-.25863641s-.0908694.34910016-.2726083.53002765c-.1095037.07559328-.1642555.07559328-.1642555 0 0-.02267798-.0014973-.02667897-.0064361-.01854761l-.0270845.05424652c-.041297.0775543-.1310638.20539807-.3217909.20682612v.15806237h-.92343713l.13011098-.15806237c-.15210671-.10517148-.25786527-.18601315-.31727567-.24252503-.19474628-.03779663-.32339574-.12826038-.38594839-.27139124h.85657305l.12568275-.15258771c-.03362062-.02616949-.05551076-.06884966-.05551076-.1170571 0-.07960862.05969536-.14414415.13333333-.14414415zm0-.64864865c.07363797 0 .13333333.06453554.13333333.14414415 0 .02507671-.00592327.0486578-.01633977.06919727l.53614598.80210118-.0518811.04309271-.53005569-.79249942c-.02060059.01409384-.04502036.0222524-.07120275.0222524-.01800039 0-.03516767-.00385619-.05083356-.01084612l-.50483725.78058556-.05254879-.04207755.5046527-.78101561c-.01861253-.02478385-.02976643-.05637896-.02976643-.09079042 0-.07960861.05969536-.14414415.13333333-.14414415z" fill="#ffd018"/><path d="m7.67324475 2.79146416-.07569399.82000004c.05670225.30718247.11576384.52447695.17718478.65188342.09213141.19110971.11225408.3503678-.10149079.80671225-.21374486.45634445-.64930706 1.31451432-.567003 1.57479871.08230405.26028438.15731126.57267776.36215713.28633888s-.14595543-.51689331.30633666-1.26488052c.45229209-.7479872.65117894-.59078563.55173551-1.16574316-.09944342-.57495753-.37455073-2.00906198-.55173551-2.00906198-.11812319 0-.15195345.09998412-.10149079.29995236zm-.37104096-.6527302c0-.08409087-.08452691-.09529431-.08452691-.42827073s.1995303-.23325285 0-.59059023c-.19953031-.35733737-.04006985-.47126064-.34764251-.47126064-.30757267 0-.47294123-.29760745-.47294123.0868266v.60330283c0 .15813973-.00813096.37172144.13547704.37172144s.31248634.19807928.15624317.31317501c-.15624317.11509572-.257032.32261976 0 .32261976s.61339044-.12343316.61339044-.20752404z" fill="#ffc6b5"/><path d="m7.66990291 12.0703561c.19660622 0 .35598706-.1690217.35598706-.3775204 0-.2084988-.15938084-.3775204-.35598706-.3775204s-.35598705.1690216-.35598705.3775204c0 .2084987.15938083.3775204.35598705.3775204zm-1.97204528-.2034951c.08042112.0958422.2750934.0648926.4348127-.0691278.15971931-.1340204.22400319-.3203608.14358207-.416203-.08042111-.0958422-.27509339-.0648926-.4348127.0691278-.15971931.1340205-.22400319.3203609-.14358207.416203z" fill="#ffd018"/><path d="m6.60142013.24620071c-.24679518.05011147-.32906024.13695978-.24679518.26054493.12339759.18537772-.16080587.13743745.24679518.16140759.40760104.02397013.51921166.17235047.46340635.28197475s-.09961891.3818286 0 .54584163c.09961892.16401304.13120683.44944001.30716319.30672653.17595637-.14271349.51394702-.33877355.41040886-.59567086-.10353815-.2568973.04176624-.55574234-.18432131-.70027964s-.27659748-.05614743-.40596315-.26054493-.31997384-.26067521-.45533389-.13033761c-.09024004.08689174-.13536005.13033761-.13536005.13033761z" fill="#a95601"/><path d="m6.52800748 2.10336499c-.49604719.59725583-.70345498 1.00110048-.62222335 1.21153394.12184744.31565018.3038874.33225992.21286742.78104857-.09101998.44878864.05539584 1.1426198-.21286742 2.0252809-.26826326.88266109-.4445706 2.95360249-.35641693 2.95360249s.21058607 1.14398771.10529304 1.65719601c-.10529304.5132084-.83971198.9425865-.10529304.9425865.73441893 0 .82151967.1017428 1.11499477 0 .29347509-.1017428.70990905.2927222.70990905 0 0-.2927223.03141242-.3526476.25510163-.3526476h.41046736c.1980679 0 .45767373.1843355.45767373-.2529891 0-.4373247.04831781-1.37704513-.20467796-2.10676636-.25299577-.72972122-.16706495-.2637366-.41526404-1.23954251-.14702015-.57801634-.26056422-.80742958-.34996947-1.00933261-.06152849-.13894923-.23715714.10497435-.27886395-.11257387-.01414185-.07376577.10603261-.50657639.10729993-.56214709.00790118-.3464576.2733344-.40542195.2733344-1.00138306 0-.69155138-.16577804-1.45130041 0-1.83143546.16577804-.38013506.57273563-.15157202.41046736-.52128528s-.21509028-.58114547-.52044009-.58114547c-.20356653 0-.53403068 0-.99139244 0z" fill="#f7fcff"/><path d="m1.31571543 12.7272835.12458523-.1658438c1.78138888 1.6592696 3.42826503 2.4860761 4.93977011 2.4860761 1.5130617 0 3.35524163-.8775831 5.52292203-2.6375203l.1143989.1747072c-2.19784689 1.7844293-4.07574796 2.6790294-5.63732093 2.6790294-1.56312961 0-3.25096194-.8473684-5.06435534-2.5364486z" fill="#272727" fill-rule="nonzero"/></g></g></g></g></g><rect height="32" mask="url(#c)" rx="2" width="43.335938"/></g></svg>