<svg height="32" viewBox="0 0 43 32" width="43" xmlns="http://www.w3.org/2000/svg" xmlns:xlink="http://www.w3.org/1999/xlink"><defs><path id="a" d="m0 0h42.666667v32h-42.666667z"/><path id="b" d="m.08784314 0c.82718954.57117358 1.65437908.85676038 2.48156862.85676038.82718955 0 1.65437909-.2855868 2.48156863-.85676038.82718954.57117358 1.65437909.85676038 2.48156863.85676038s1.65437908-.2855868 2.48156858-.85676038v3.86784282c0 2.66614315-1.65437904 5.03237314-4.96313721 7.09868998-3.46896303-1.8972673-5.12334211-4.27932678-4.96313725-7.14617845z"/><mask id="c" fill="#fff"><path d="m0 0h43.335938v32h-43.335938z" fill="#fff" fill-rule="evenodd"/></mask><mask id="d" fill="#fff"><path d="m0 0h42.666667v32h-42.666667z" fill="#fff" fill-rule="evenodd"/></mask><mask id="e" fill="#fff"><use fill="#fff" fill-rule="evenodd" xlink:href="#a"/></mask><mask id="f" fill="#fff"><use fill="#fff" fill-rule="evenodd" xlink:href="#b"/></mask></defs><g fill="none" fill-rule="evenodd"><g fill-rule="evenodd" mask="url(#c)"><g mask="url(#d)" transform="translate(.3346)"><use fill="#f7fcff" xlink:href="#a"/><g mask="url(#e)"><g transform="translate(2.6667 6.4)"><path d="m1.03627451.09270415c.65866533-.28262403 10.82261449 3.02154533 11.35406039 3.02154533.531446 0 1.5312488 1.28679919 1.0313474 1.82842641-.4999014.54162721-.6690302.85815582-.3345151.85815582.2230101 0 .8969116-.14595196 2.0217047-.43785589v5.02899828c-1.0779811.255865-1.7518827.255865-2.0217047 0-.404733-.3837975-1.2484169-.0225968-1.2484169-.44081086 0-.41821409-.9317235-.4839611-.9317235-.4839611s-.8622186-.28432911-.8622186-.55184012c0-.17834066-.18807934-.5195519-.56423807-1.02363372-1.43358536-.81163593-2.7598241-1.66278254-3.97871621-2.55343981-1.82833816-1.33598591-3.55063664-2.28939582-3.80691408-3.44096203-.95489189-.94558795-1.31733066-1.52199828-.65866533-1.80462231zm17.67318079 12.25806235 2.4462199 1.0323248c.5417826.2311823.8126739.5000839.8126739.8067047 0 .4599312 1.3767338 1.6248816 1.3767338 2.0808149s-1.1985158 1.5590034-1.6939618 2.0491795c-.4954459.4901761-1.1457633 1.4322876-1.662239 1.4322876s-.842971.6898968-1.2794268.6898968c-.0106844 0-.0209764-.0036365-.0308761-.0109096-.0100621.0070266-.0206837.0109096-.0317242.0109096-.4364558 0-.7629511-.6898968-1.2794268-.6898968s-1.166793-.9421115-1.662239-1.4322876-1.6939618-1.5932462-1.6939618-2.0491795 1.3767338-1.6208837 1.3767338-2.0808149c0-.3066208.2708913-.5755224.812674-.8067047l2.4462198-1.0323248c.0108679.2014724.0213298.3991823.0313858.5931297.0098848-.1939474.0203467-.3916573.0312145-.5931297zm-4.251079-1.6415685c1.1048326 1.5849027 1.6572489 2.3773541 1.6572489 2.3773541s-.0035011-.0001864-.0101532-.00041l-.0749233-.0005953c-.3035447.0038079-1.3153603.0830524-1.3153603.9704068 0 1.0439463-1.2844169 1.5197197-2.0029918 1.5197197s-1.1140405.4705343-1.1140405 1.2987929c0 .8282585-1.4702983.3193097-1.82120949 0-.35091118-.3193098.35091119-1.6991034.71643629-1.6991034.365525 0 .7825551-.2831549 1.5588725-.2831549.7763175 0 .0801031-1.0125091.8811097-2.3483259.5340044-.8905446 1.0423415-1.5021059 1.5250112-1.834684zm8.7192383 0c.4826697.3325781.9910067.9441394 1.5250111 1.834684.8010066 1.3358168.1047922 2.3483259.8811097 2.3483259s1.1933475.2831549 1.5588726.2831549c.365525 0 1.0673474 1.3797936.7164362 1.6991034-.3509112.3193097-1.8212094.8282585-1.8212094 0 0-.8282586-.3954657-1.2987929-1.1140406-1.2987929-.7185748 0-2.0029917-.4757734-2.0029917-1.5197197 0-.8873544-1.0118156-.9665989-1.3153603-.9704068l-.0749234.0005953c-.0066521.0002236-.0101532.00041-.0101532.00041s.5524164-.7924514 1.657249-2.3773541zm13.4221017-10.61649385c-.6586653-.28262403-10.8226144 3.02154533-11.3540604 3.02154533s-1.5312488 1.28679919-1.0313474 1.82842641c.4999014.54162721.6690303.85815582.3345151.85815582-.2230101 0-.8969116-.14595196-2.0217046-.43785589v5.02899828c1.0779811.255865 1.7518826.255865 2.0217046 0 .404733-.3837975 1.2484169-.0225968 1.2484169-.44081086 0-.41821409.9317236-.4839611.9317236-.4839611s.8622185-.28432911.8622185-.55184012c0-.17834066.1880794-.5195519.5642381-1.02363372 1.4335854-.81163593 2.7598241-1.66278254 3.9787162-2.55343981 1.8283382-1.33598591 3.5506367-2.28939582 3.8069141-3.44096203.9548919-.94558795 1.3173307-1.52199828.6586653-1.80462231zm-15.2802371 5.11405051c-.1290121-.3133634-.3010626-.53124574-.5161517-.65364702-.215089-.12240128-.0430384-.26590854.5161517-.43052179-.74878-.48597542-1.12317-.78518974-1.12317-.89764298 0-.11245323.1195361-.16867985.3586081-.16867985-.239072-.87173101-.3586081-1.38960066-.3586081-1.55360896 0-.24601245-.380937-1.49835699-1.4294701-1.49835699-1.0485332 0-1.6899753.20356522-1.6899753.46470139s-.6165288.08691096-.8317557.30207103c-.1434846.14344005-.2689129.54626863-.3762852 1.20848576.4401021-.41391931.8427824-.57288638 1.2080409-.47690119s.4732854.3341333.3240807.71444436c-.1816644.81284934-.3862091 1.21927401-.6136342 1.21927401-.2274252 0-.3025099.06281383-.2252543.1884415h.2252543c-.359952.50499769-.6030212.75749654-.7292076.75749654-.1261865 0-.0638514.05693239.1870054.17079717l-.3762852.65364702" fill="#e8aa00"/><path d="m9.33455053 10.2363653c0 .4027688-.75411514 1.1202497-.9810772 1.1202497-.0302616 0-.05447089-.0095664-.07262786-.0286992l.10268993.2033758c.32031915.6234206.68681497 1.2846902 1.09948748 1.9838087.01728337-.103347.05063185-.2344926.10025437-.3913612.11059879-.2454417.31199829-.5139542.60419855-.8055375.4383003-.4373749.3768786 0 .3768786.4027688 0 .3635574-.61442951.9835325-.90098315 1.1008015.1246804.2042016.25310014.4149241.38546375.6288792.0159582-.0627243.0366965-.1347102.0615011-.2131235.1105988-.2454417.3119983-.5139542.6041985-.8055375.4383004-.4373749.3768787 0 .3768787.4027688 0 .3185229-.4716367.8338724-.7811937 1.0355246.087821.1383097.1777036.2797001.2692121.4224233.0155539-.0588537.0350189-.1258866.0579632-.1984188.1105988-.2454418.3119983-.5139543.6041985-.8055375.4383004-.4373749.3768787 0 .3768787.4027687 0 .3134884-.456845.8176303-.766396 1.0257296.5637195.8624759 1.1848991 1.7746916 1.8636849 2.7341244h-.939387c-.4705743-.2935346-1.0842048-1.2456719-1.84089164-2.856412-.09914446.0416575-.23109826.0824383-.35711785.1283057-.37847884.137755-1.31061296-.3254885-1.38823856-.5387631-.05175039-.142183.17298679-.2239807.67421156-.2453929.25002817.0186104.54579636.1043836.88730456.2573196-.0755492-.1658335-.15347682-.3406509-.23278438-.5218212-.08839182.0692258-.2842495.1251805-.467552.1918972-.37847884.137755-1.31061296-.3254885-1.38823856-.538763-.0517504-.1421831.17298679-.2239807.67421155-.245393.26846683.0199829.58966875.1173998.96360575.2922509.04477818.020938.08322839.04079.11588305.0596661-.12665542-.2883153-.25472501-.5928672-.38610849-.9126755-.05511352.0883264-.28954952.1521945-.50641213.231126-.37847884.137755-1.31061296-.3254885-1.38823855-.538763-.0517504-.1421831.17298678-.2239807.67421155-.245393.26846683.0199829.58966874.1173998.96360575.2922509.08992603.0420489.15433082.0797179.19752659.1138983-.24725217-.60389-.5053039-1.2610284-.77484968-1.9710832l-.12009807-.3182107c-.00622517.1093103-.27353402.179236-.51843209.2683717-.37847885.137755-1.31061297-.3254885-1.38823856-.5387631-.0517504-.142183.17298678-.2239807.67421155-.2453929.26846683.0199828.58966874.1173998.96360575.2922508.1329776.0621797.21014831.1147818.24545587.1606883-.08695533-.2306564-.17491789-.4671845-.26403747-.7090393l-.02671527-.0725003.0229658.0511465c.14146714.3150227.29698595.641563.46655642.9796209-.03220055-.1049583.0017149-.3165991.10169688-.6326658.11059879-.2454418.31199829-.5139543.60419853-.80553758.43830035-.4373749.37687867 0 .37687867.40276878zm.70274507 1.2851405c0 .4027688-.75411511 1.1202498-.98107717 1.1202498-.15130804 0-.15130804-.2391603 0-.717481.11059878-.2454417.31199829-.5139543.60419852-.8055375.43830035-.4373749.37687865 0 .37687865.4027687zm-2.75413456.2475917c.26846682.0199828.58966874.1173998.96360575.2922508.56090551.2622766.12890009.3541501-.24957875.4919052-.37847884.137755-1.31061296-.3254885-1.38823856-.538763-.05175039-.1421831.17298679-.2239807.67421156-.245393zm-.05204305-3.96798997c.30853877.25889478.3734252 1.29776835.2275368 1.47163138-.01130306.01347046-.02376696.02329915-.03739171.02948604.07654681.21407841.15274064.42427151.22812839.63075357l.11286276.30805398-.10590842-.24166107c-.10249757-.23782077-.1966067-.46876593-.28232739-.69283546-.10279878-.00430901-.25863304-.17040336-.46498592-.49498493-.11692777-.24249051-.19316318-.569368-.22870623-.98063247-.05331458-.61689671.24225294-.28870581.55079172-.02981104zm-.59781874 1.32526844c.24544176.11059878.51395427.31199829.80553754.60419852.4373749.43830031 0 .37687871-.40276877.37687871s-1.12024972-.75411517-1.12024972-.98107723c0-.15130804.23916031-.15130804.71748095 0zm1.87402537-.43135907c.13775504.37847884-.32548845 1.310613-.53876303 1.3882386-.14218304.0517504-.22398069-.17298683-.24539293-.6742116.01998283-.26846682.11739977-.58966874.29225083-.96360575.26227658-.56090551.3541501-.12890009.49190513.24957875z" fill="#46a000"/><path d="m1.106256 7.47220249c1.32773588 3.39956191 2.0991256 5.37694301 2.31416916 5.93214341l-.57691186.3725829h2.76025521c-.69663817-.0992227-1.01228969-.223417-.94695458-.3725829 0-.672968.68559312-2.581219 2.05677934-5.72475297l.62099873-.20739044h-2.57047299c.37373837.01239868.56060755.20863122.56060755.58869759 0 .38006638-.4451613 1.64172208-1.33548389 3.78496712l-1.38103323-3.93767202c.08478243-.29066179.24134733-.43599269.46969469-.43599269.22834735 0-.42886869 0-1.97164813 0zm27.4433918 1.25545415-1.5275731 2.81452356h.7637865l-1.1253925 4.0010296 1.1253925.4327399 2.7130265-3.4156409.6413388.4616767 1.1495305-2.8171451-2.6404055 1.7287416.515428.2574057-2.6737956 3.0635608c1.5970067-2.9797754 2.39551-4.4696631 2.39551-4.4696631l.4051268.3568188.7121507-3.05932612-2.0910705 2.26351622.562412.2113287c-1.1261678 2.1596667-1.6892517 3.2395-1.6892517 3.2395.2236692-1.3940705.3355037-2.0911058.3355037-2.0911058l.4731476.1535561zm-2.4097029 8.15228906h-.8445829v.642505h-.6649357l-1.8832813 2.1846052h1.0394519l.3611029 1.2300347.4827265-.4340694v.4340694l.944052-.4340694.9024558.7814131.6735262-3.0039424-.4533378-.3327914.232848-.2035848-.232848-.86417zm6.5992018-9.49516754h2.8497097c-.4942375.08927348-.7413562.28381595-.7413562.58362743v5.31219041c.089352.3387116.3364707.5115848.7413562.5186195.4048855.0070346-.5450177.0070346-2.8497097 0 .4377363-.0877661.6612343-.2606392.6704939-.5186195.0092596-.2579802.0092596-2.0287104 0-5.31219041-.0442482-.38908495-.2677461-.58362743-.6704939-.58362743z" fill="#0093e1"/><g fill="none" transform="translate(13.7035 4.2838)"><use fill="#f7fcff" xlink:href="#b"/><path d="m-.26352941-.25702811h10.45333331v4.02677376h-10.45333331z" fill="#2e42a5" mask="url(#f)"/><path d="m.87843137 3.76974565h.87843138v8.13922355h-.87843138zm1.49333334 0h.87843137v8.13922355h-.87843137zm1.49333333 0h.87843137v8.13922355h-.87843137zm1.49333333 0h.87843138v8.13922355h-.87843138zm1.49333334 0h.87843137v8.13922355h-.87843137zm1.49333333 0h.87843137v8.13922355h-.87843137z" fill="#af0100" mask="url(#f)"/></g></g></g></g></g><rect height="32" mask="url(#c)" rx="2" width="43.335938"/></g></svg>