<svg height="32" viewBox="0 0 43 32" width="43" xmlns="http://www.w3.org/2000/svg" xmlns:xlink="http://www.w3.org/1999/xlink"><mask id="a" fill="#fff"><path d="m0 0h43.335938v32h-43.335938z" fill="#fff" fill-rule="evenodd"/></mask><mask id="b" fill="#fff"><path d="m0 0h42.666667v32h-42.666667z" fill="#fff" fill-rule="evenodd"/></mask><g fill="none" fill-rule="evenodd"><g fill-rule="evenodd" mask="url(#a)"><g mask="url(#b)" transform="translate(.3346)"><g transform="translate(0 -96)"><path d="m0 96h42.6666667v32h-42.6666667z" fill="#f7fcff"/><path d="m0 96h42.666667v10.666667h-42.666667z" fill="#c51918"/><path d="m0 117.333333h42.666667v10.666667h-42.666667z" fill="#5eaa22"/><path d="m0 93.3333333 22.2261187 18.6666667-22.2261187 18.666667z" fill="#272727"/><path d="m-1.33333333 88.8234132 24.99686783 19.1760038 20.3364655.000624v8.000022l-20.6643834-.000972-24.66894993 18.408182v-9.293151l17.76446353-13.120568-17.76446353-13.2795647z" fill="#ffd018" stroke="#272727" stroke-width="2.666667"/><path d="m201.333333-1.333333h34.666667v13.333333h-34.666667z" fill="#5eaa22" stroke="#f7fcff" stroke-width="2.666667"/><g fill="#ffd018" fill-rule="nonzero" transform="translate(1.3333 105.3333)"><path d="m5.16491627 13.024089.00266428-2.1071399c1.87777031-.4142513 3.12170232-.95309568 3.72719251-1.60109251 1.49098424-1.83754145.49983409-6.1427109-2.56332483-6.11456164-1.51757693 0-3.08689795.72317661-3.08689795 2.42522639 0 2.1139235.43501712 3.01758043 1.92303027 3.01758043 1.47873547 0 2.02088381.07904738 2.99494107-1.24856766l1.05704647.32660865c-1.04379426 1.42266476-2.45079491 2.54648374-4.05465182 2.54648374-2.64206107 0-4.07986827-1.99207271-4.07986827-4.29596687 0-2.84414532 2.30890635-4.83606856 5.0928299-4.83606856 2.07721467 0 5.3627396 2.54427099 5.3627396 4.83606856s0 3.34319696-1.80155235 4.94428947c-.72563939.644897-2.52357769 1.7966119-4.57414888 2.1071399z"/><path d="m5.32189395 3.8397816c.10171094.02685726.16239184.13108239.13553458.23279333l-.14724535.56018415c.12874261.16770324.25106524.32777097.36707521.48039179l.18448357-.40606681c.0435014-.09578129.15641234-.13816252.25219363-.09466112.0957813.0435014.13816253.15641234.09466112.25219364l-.26921788.59499158c.0664383.08826841.1304365.17367739.19202092.2562732l.11129459-.24689254c.0435014-.09578129.15641234-.13816252.25219363-.09466112.0957813.04350141.13816253.15641234.09466113.25219364l-.19828263.44076297c.16107248.21984859.3013535.4156693.42152497.58866056l.19180766-.42505128c.0435014-.0957813.15641234-.13816253.25219364-.09466113.09578129.04350141.13816252.15641234.09466112.25219364l-.28185772.62059374-.00899034.01526212c.21001689.32555466.31051128.52865226.31051128.62515937 0 .10519709-.0852791.19047619-.19047619.19047619-.1051971 0-.19047619-.0852791-.19047619-.19047619 0-.03787598-.08328154-.18170193-.2441374-.42144765l-.38795765.20733169c-.09268502.04975857-.20815837.01495982-.25791695-.0777252s-.01495982-.20815837.0777252-.25791695l.35100652-.18667695c-.10924231-.15522951-.23722971-.33335569-.38325478-.53313526l-.54946475.2935496c-.09268502.04975857-.20815837.01495982-.25791695-.0777252s-.01495982-.20815837.0777252-.25791695l.50143106-.26792384c-.08954704-.12084766-.18439527-.24800114-.28442864-.38125647l-.41776305.22291769c-.09268502.04975858-.20815837.01495982-.25791695-.07772519-.04975858-.09268502-.01495982-.20815837.0777252-.25791695l.3659248-.19500494c-.10615418-.14019979-.21726263-.286181-.33321418-.43774827l-.19434698.17860998c-.07728698.07136632-.19779429.06656667-.26916061-.01072031-.07136632-.07728699-.06656667-.1977943.01072031-.26916061l.22001624-.202036c-.04311825-.05601262-.08683031-.11270472-.13113131-.1700677-.06429983-.0832584-.04893088-.20287798.03432751-.26717781.0832584-.06429983.20287798-.04893088.26717781.03432751l.01035277.01352699.0734135-.27510636c.02685726-.10171094.13108238-.16239184.23279333-.13553458z"/><path d="m5.32189395 3.8397816c.10171094.02685726.16239184.13108239.13553458.23279333l-.14724535.56018415c.12874261.16770324.25106524.32777097.36707521.48039179l.18448357-.40606681c.0435014-.09578129.15641234-.13816252.25219363-.09466112.0957813.0435014.13816253.15641234.09466112.25219364l-.26921788.59499158c.0664383.08826841.1304365.17367739.19202092.2562732l.11129459-.24689254c.0435014-.09578129.15641234-.13816252.25219363-.09466112.0957813.04350141.13816253.15641234.09466113.25219364l-.19828263.44076297c.16107248.21984859.3013535.4156693.42152497.58866056l.19180766-.42505128c.0435014-.0957813.15641234-.13816253.25219364-.09466113.09578129.04350141.13816252.15641234.09466112.25219364l-.28185772.62059374-.00899034.01526212c.21001689.32555466.31051128.52865226.31051128.62515937 0 .10519709-.0852791.19047619-.19047619.19047619-.1051971 0-.19047619-.0852791-.19047619-.19047619 0-.03787598-.08328154-.18170193-.2441374-.42144765l-.38795765.20733169c-.09268502.04975857-.20815837.01495982-.25791695-.0777252s-.01495982-.20815837.0777252-.25791695l.35100652-.18667695c-.10924231-.15522951-.23722971-.33335569-.38325478-.53313526l-.54946475.2935496c-.09268502.04975857-.20815837.01495982-.25791695-.0777252s-.01495982-.20815837.0777252-.25791695l.50143106-.26792384c-.08954704-.12084766-.18439527-.24800114-.28442864-.38125647l-.41776305.22291769c-.09268502.04975858-.20815837.01495982-.25791695-.07772519-.04975858-.09268502-.01495982-.20815837.0777252-.25791695l.3659248-.19500494c-.10615418-.14019979-.21726263-.286181-.33321418-.43774827l-.19434698.17860998c-.07728698.07136632-.19779429.06656667-.26916061-.01072031-.07136632-.07728699-.06656667-.1977943.01072031-.26916061l.22001624-.202036c-.04311825-.05601262-.08683031-.11270472-.13113131-.1700677-.06429983-.0832584-.04893088-.20287798.03432751-.26717781.0832584-.06429983.20287798-.04893088.26717781.03432751l.01035277.01352699.0734135-.27510636c.02685726-.10171094.13108238-.16239184.23279333-.13553458z" transform="matrix(-1 0 0 1 11.9248 0)"/></g></g></g></g><rect height="32" mask="url(#a)" rx="2" width="43.335938"/></g></svg>