<svg height="32" viewBox="0 0 43 32" width="43" xmlns="http://www.w3.org/2000/svg" xmlns:xlink="http://www.w3.org/1999/xlink"><defs><path id="a" d="m0 0h42.666667v32h-42.666667z"/><mask id="b" fill="#fff"><path d="m0 0h43.335938v32h-43.335938z" fill="#fff" fill-rule="evenodd"/></mask><mask id="c" fill="#fff"><path d="m0 0h42.666667v32h-42.666667z" fill="#fff" fill-rule="evenodd"/></mask><mask id="d" fill="#fff"><use fill="#fff" fill-rule="evenodd" xlink:href="#a"/></mask></defs><g fill="none" fill-rule="evenodd"><g fill-rule="evenodd" mask="url(#b)"><g mask="url(#c)" transform="translate(.3346)"><use fill="#c51918" xlink:href="#a"/><g mask="url(#d)"><path d="m0 0h21.333333v18.666667h-21.333333z" fill="#2e42a5"/><g fill="#feffff"><path d="m4.75421259 10.3626853-1.41339615.8532652.32238672-1.66506183-1.17701301-1.24613504 1.59374153-.06737949.67428091-1.55475695.67428091 1.55475695h1.59102999l-1.17430147 1.31351453.35353433 1.66506183z"/><path d="m15.4208793 10.3626853-1.4133962.8532652.3223867-1.66506183-1.177013-1.24613504 1.5937415-.06737949.674281-1.55475695.6742809 1.55475695h1.59103l-1.1743015 1.31351453.3535343 1.66506183z"/><path d="m9.95413284 5.51727001-1.3302552.80307315.30342279-1.56711703-1.10777694-1.17283299 1.49999202-.06341599.63461733-1.46330066.63461736 1.46330066h1.49744l-1.105225 1.23624898.3327382 1.56711703z"/><path d="m11.3949967 11.2336626-.8314095.5019207.1896392-.9794481-.6923606-.7330206.937495-.03963504.3966359-.91456291.3966358.91456291h.9359l-.6907656.77265564.2079614.9794481z"/><path d="m9.87835914 17.1043781-1.9953828 1.2046097.45513419-2.3506755-1.66166542-1.7592495 2.24998804-.095124.95192599-2.194951.95192596 2.194951h2.24616l-1.6578373 1.8543735.4991072 2.3506755z"/></g></g></g></g><rect height="32" mask="url(#b)" rx="2" width="43.335938"/></g></svg>