<svg height="32" viewBox="0 0 43 32" width="43" xmlns="http://www.w3.org/2000/svg" xmlns:xlink="http://www.w3.org/1999/xlink"><defs><path id="a" d="m0 0h42.666667v32h-42.666667z"/><mask id="b" fill="#fff"><path d="m0 0h43.335938v32h-43.335938z" fill="#fff" fill-rule="evenodd"/></mask><mask id="c" fill="#fff"><path d="m0 0h42.666667v32h-42.666667z" fill="#fff" fill-rule="evenodd"/></mask><mask id="d" fill="#fff"><use fill="#fff" fill-rule="evenodd" xlink:href="#a"/></mask></defs><g fill="none" fill-rule="evenodd"><g fill-rule="evenodd" mask="url(#b)"><g mask="url(#c)" transform="translate(.3346)"><path d="m0 0h42.6666667v32h-42.6666667z" fill="#f7fcff"/><use fill="#5eaa22" xlink:href="#a"/><g mask="url(#d)"><g transform="translate(21.3333 5.3333)"><path d="m14.666667 8h6.666667v18.666667h-6.666667z" fill="#ff8126"/><path d="m8 8h6.666667v18.666667h-6.666667z" fill="#272727"/><path d="m1.333333 8h6.666667v18.666667h-6.666667z" fill="#c51918"/><path d="m1.39747398.6849002c-.3542222-.19663269-.2738211-.90058394 0-.61950203s2.51494149 1.05151225 2.83666624 1.32724654-.05584747-.27573429-.32172475-.70774451c-.16142549-.26229192.52333053.06058912 1.26798774.40226665l.26402711.1204503c.39593057.17907941.78272344.3447515 1.04370891.41297627.81195479.21225484 2.17070926.8669289 2.17070926.42660879 0-.4403201.63057087-1.12931357 1.30675854-1.36230201s.78860477.23298844 1.43024887.43201022c.4277627.13268119.4277627.30057552 0 .503683-.0844514-.08281128-.1266771-.15879418-.1266771-.22794871 0-.10373179-.4914987 0-.7449671.37641802-.2059431.30583963.0901001.34871778.4719851.3540449l.272982.00045892c.4914988 0 1.5013598-.07636434 1.8727553-.07636434.3713954 0 .5471299 0 1.0370644-.27813948.4899346-.27813949 2.7184433-.65215231 3.0275428-.76787641.2060663-.07714941.1030331.08791399-.3090995.49519019 1.5897711-.54098421 2.5439103-.90384195 2.8624176-1.08857325.4777611-.27709694-.1681174.27709694-.477761.70910716-.3096436.43201023.8248094-.43201022 1.3501085-.70910716s-.1335691.47453037-.4231501.70910716c-.289581.2345768.6799509 0 1.0156417-.23457679.3356909-.2345768-.2014417.4068577-.3356908.61404288-.1342492.20718518-.1812432.27268622.1342491.27268622s-.8142.74105385-.8142.74105385l.0323047-.00074047c.0753775.00425029.2369009.05435037-.0323047.4490939-.336507.49342941-2.8824122.99536926-3.0025155 1.22157087-.1201034.22620161-1.6963407.50094208-1.5805899.50094208s.3081473.1235481.0992246.1235481c-.2089226 0-.5758295.09966018-.5758295.09966018s.1930767 0 0 .23218827c-.1930767.23218826-.6899481-.0971364-.4156011.23218826s.1782508.21293707-.101877.21293707-.6005847-.21293707-.9428044-.21293707c-.2444427 0-.1244143.10864136.0378865.21474165l.0998757.06246579c.0332643.02012732.065642.03926353.0945554.05651918.2023939.12078954.0891594.10834669-.3339906.10834669-.4231501 0-.4454569-.07988074-.4454569 0 0 .07988075-.6444504-.22913624-.8882615-.22913624-.1625408 0 .0097479.14146894.516866.42440681-.2641457-.07207462-.4677411-.13716481-.610786-.19527057-.2145674-.08715863.4281147.70237538.3377311.70237538-.0903835 0-.5130575-.24633321-.5130575-.09214752s.1753264.26875381.3898938.26875381.2498639.24081609.1231637.24081609c-.1267001 0-.3377311-.13258678-.3377311 0s.2145674.18611451.2145674.43602796c0 .24991346-.3193008.28548123-.2145674.11985047s-.363415-.56544534-.363415-.36976392v.24991345c0 .28548123-.1054017.13917404-.2415903.28548123-.1541757.16563076-.0475381.18916653-.1588914.18916653-.1113534 0-.1753033-.35479729-.5169789-.47464776-.3416757-.11985046-.1205794.11985047-.3546653.28548123s0 .17942354 0 .3121864c0 .13276285-.2614254-.13276286-.2614254-.3121864s-.29717927-.4181267-.29717927-.28548123 0 .28548123-.15276622.28548123 0 .19086861-.18484761.3121864c-.18484762.12131778 0-.12131779-.15036721-.3121864-.15036721-.19086862.15036721-.55259164 0-.4181267-.15036721.13446495-.34262777.13264547-.47068813.13264547-.12806035 0-.22402061.27309707-.22402061.11985047s.18960822-.55587843.54638179-.55587843c.35677358 0 .48354177-.15852894.63630799-.24081609.15276627-.08228715 0-.18963607-.15276622-.26875381-.06365259-.03296572-.04773945-.13314273-.00751454-.22936443l.01267373-.02850451-.03999579.02220313c-.07739952.03666826-.16537173.0641667-.23623845.07562415l-.06413977.00585597c-.15036721 0 .15036721-.42340903.15036721-.68517841s.11840312-.44512533 0-.36084264c-.11840313.0842827-.96914471-.08428269-1.09630004-.08428269s.26421375-.45539655 0-.33184845c-.26421375.12354811-.84106344.09966018-1.11377828.09966018-.27271483 0 .17709463-.31875998 0-.22320828-.17709462.09555169-.35316911.1235481-.55236655.1235481-.19919745 0-.08283458-.22103665-.3774091-.2190998-.29457451.00193686-.36062118-.00193685-.5228219-.1098727s.16220072-.13041515-.10697837-.13041515h-.79916938c-.39812285 0 .00122416-.2615933.14472249-.2615933s.30984758-.23541637 0-.12971084-.65356349 0-1.12581581 0c-.47225233 0-.56277189-.18411896-.28352822-.18411896s.29570177-.13487579-.13832967-.13487579-.74503517-.15847025-.89819073-.15847025c-.15315557 0-.31875672-.18153648 0-.18153648.31875671 0 .72762494-.15130974.37880839-.15130974-.34881656 0-1.10983377-.27720556-1.31664819-.27720556s1.17410198-.17537374.3514689-.17537374c-.82263309 0-1.70055723-.79534459-2.02897118-.92188602s0-.37641802.09460008-.27268622c.09460009.10373179.75697925.26323669.47007605.12421691-.2869032-.13901979-.47007605-.37559769-.56467613-.503683-.09460009-.1280853-.02176278-.21655814.09460008-.1157241.07757524.06722269.29536173.19770882.65335946.39145839-.19154166-.18382286-.36334048-.41973769-.51539644-.70774451-.22808395-.43201022.22808395-.32678628.61901623 0 .39093227.32678629.75743129.41324081.94146314.43201022.18403185.01876942-.18403185-.23537753-.53825405-.43201022zm9.38170222 4.26201932c.0278383.89197231-.0091131 1.33795847-.1108541 1.33795847-.1526115 0-.83276639.44665134-.1683895.44665134.6643768 0 1.0653561.44665134.8648665 0-.2004897-.44665134-.1351333-.25408064-.1351333-.6091127 0-.23668804-.1501632-.62852041-.4504896-1.17549711z" fill="#ff8126" stroke="#272727" stroke-width=".333333"/></g></g></g></g><rect height="32" mask="url(#b)" rx="2" width="43.335938"/></g></svg>