<svg height="32" viewBox="0 0 43 32" width="43" xmlns="http://www.w3.org/2000/svg" xmlns:xlink="http://www.w3.org/1999/xlink"><defs><path id="a" d="m0 0h42.666667v32h-42.666667z"/><mask id="b" fill="#fff"><path d="m0 0h43.335938v32h-43.335938z" fill="#fff" fill-rule="evenodd"/></mask><mask id="c" fill="#fff"><path d="m0 0h42.666667v32h-42.666667z" fill="#fff" fill-rule="evenodd"/></mask><mask id="d" fill="#fff"><use fill="#fff" fill-rule="evenodd" xlink:href="#a"/></mask><mask id="e" fill="#fff"><path d="m0 0v32l21.7750553-15.797395z" fill="#fff" fill-rule="evenodd"/></mask></defs><g fill="none" fill-rule="evenodd"><g fill-rule="evenodd" mask="url(#b)"><g mask="url(#c)" transform="translate(.3346)"><use fill="#f7fcff" xlink:href="#a"/><path d="m0 2.666667h42.666667v26.666667h-42.666667z" fill="#feca00" mask="url(#d)"/><path d="m-2.333333 11h47.333333v10h-47.333333z" fill="#272727" mask="url(#d)" stroke="#e31d1c" stroke-width="4.666667"/><path d="m0 0v5.33333333h42.6666667v-5.33333333zm0 26.6666667v5.3333333h42.6666667v-5.3333333z" fill="#5eaa22" mask="url(#d)"/><path d="m-1.33333333-2.65407102 25.36020843 18.87028222-25.36020843 18.3983565z" stroke="#272727" stroke-width="2.666667"/><g mask="url(#e)"><g transform="translate(2.6667 8)"><path d="m7.30458934 11.0376832-5.03857897 4.0672718 2.31116398-5.43547411-3.97122372-3.82430184h4.68747507l1.9234452-4.61179077 2.0429131 4.61179077h4.6795l-4.18100021 3.82430184 2.09247221 5.43547411z" fill="#e31d1c" fill-rule="evenodd"/><path d="m4.02347979 3.22866423c-.04876349-.11755935.07077547-.22831237.35861689-.33225905.43176213-.15592003.56346754-.48630234.90192918-.24315117s.55020172-.24570354.64731338.45544864c.06474111.46743478.18633225 1.06969498.36477341 1.80678058l4.38343735 3.29421412h-.82358021c-.85497355 1.25616843-1.2118803 2.43534025-1.07072024 3.53751545-.58990146-.0897335-1.28463465-.1346002-2.08419958-.1346002s-1.46119465.0958141-1.98488916.2874424l-.69268102-2.56491081c.16720308-.2872672.28674204-.54665847.35861689-.77817382.10781227-.34727302.55423277-.41138265.55423277-.68763961s-.44033727-.50784738-.22016864-1.22296254c.14677909-.47674345.22016864-1.42817843.22016864-2.85430494-.46388838-.20398974-.64863264-.30598461-.55423277-.30598461.14159981 0 .46437699-.25741444.2321885-.25741444-.15479233 0-.35172746 0-.59080539 0z" fill="#feca00" fill-rule="evenodd"/><path d="m5.70245568 2.87439025c.02940479.04309132.04534592.12399005.06379285.25717795.0670198.4838871.19421684 1.11100522.38200407 1.88128097l4.0321031 3.03018152h-.41206501c-.86261966 1.24278261-1.24798848 2.41353121-1.16983768 3.50965341-.54954054-.0710313-1.18199717-.1067382-1.89740304-.1067382-.73768278 0-1.3609024.0807108-1.87022019.2394591l-.62845586-2.32709309c.1563366-.27588979.26896452-.52667282.3388952-.75192583.0423696-.13647627.15811657-.21122331.25502196-.28401543.17917584-.13459097.30670504-.2652753.30670504-.45303989 0-.11732021-.05360484-.23111246-.12720087-.36226631-.09827999-.17514257-.22698309-.40033417-.10034628-.81165482.14930099-.48493464.22754715-1.45217647.22754715-2.90334635l-.00017553-.10919455c-.03161762-.01367741-.06475119-.02813559-.09940142-.04337264-.22546042-.09914371-.38321646-.17325426-.47301074-.2228285-.01574841-.00869449-.02908998-.01356047-.03675678-.01801428l-.04223543-.06797528-.13195321-.09471574c.1546455-.10419204.27964711-.19828978.38490129-.27758513.7186784-.03433103.84055412-.06072268.94291307-.07576138.01971961-.00289723.03820922-.00876919.05517831-.00822553z" fill="none" stroke="#0a0a0a" stroke-width=".333333"/></g></g></g></g><rect height="32" mask="url(#b)" rx="2" width="43.335938"/></g></svg>