<?xml version="1.0" encoding="UTF-8"?>
<svg width="64px" height="59px" viewBox="0 0 64 59" version="1.1" xmlns="http://www.w3.org/2000/svg" xmlns:xlink="http://www.w3.org/1999/xlink">
    <title>Group Copy</title>
    <defs>
        <linearGradient x1="39.1344597%" y1="37.5111687%" x2="50%" y2="100%" id="linearGradient-1">
            <stop stop-color="#00BDFF" offset="0%"></stop>
            <stop stop-color="#20C3DD" offset="51.7892264%"></stop>
            <stop stop-color="#62A0F6" offset="100%"></stop>
        </linearGradient>
        <linearGradient x1="58.4642982%" y1="27.3840364%" x2="46.0569481%" y2="73.0917206%" id="linearGradient-2">
            <stop stop-color="#0A6690" offset="0%"></stop>
            <stop stop-color="#0085C3" stop-opacity="0" offset="100%"></stop>
        </linearGradient>
        <path d="M30.1336914,0.462168704 C39.8227459,0.462168704 48.4208131,5.1332408 53.7988244,12.3463165 L54.0467569,12.0649077 C55.4845338,10.4401029 57.2939866,9.16811134 59.2853136,8.37413407 L59.551763,8.26333453 C60.9728673,7.6948928 62.5825918,8.05537163 63.6382917,9.19920858 C64.6574662,10.3268059 64.877819,11.9427264 64.2060449,13.329403 C63.4700985,14.81228 62.1261402,16.4063244 58.8701223,19.8418902 C58.7248185,19.9960902 58.6402866,20.2046022 58.6335806,20.4423698 C58.6190806,20.9092692 58.5821352,21.403511 58.525367,21.9190511 C59.2469522,24.4766321 59.6336914,27.1742365 59.6336914,29.9621687 C59.6336914,46.2545688 46.4260915,59.4621687 30.1336914,59.4621687 C13.8412913,59.4621687 0.633691373,46.2545688 0.633691373,29.9621687 C0.633691373,13.6697686 13.8412913,0.462168704 30.1336914,0.462168704 Z" id="path-3"></path>
        <linearGradient x1="4.32213834%" y1="37.5111687%" x2="50%" y2="100%" id="linearGradient-4">
            <stop stop-color="#FFFFFF" offset="0%"></stop>
            <stop stop-color="#FFFFFF" offset="48.3036495%"></stop>
            <stop stop-color="#E4EFFF" offset="100%"></stop>
        </linearGradient>
        <linearGradient x1="76.5063536%" y1="13.7078879%" x2="15.2486098%" y2="46.1887133%" id="linearGradient-5">
            <stop stop-color="#FFFFFF" offset="0%"></stop>
            <stop stop-color="#0085C3" stop-opacity="0" offset="100%"></stop>
        </linearGradient>
        <path d="M48.95,27.13 C48.82,27.19 48.69,27.24 48.54,27.29 C47.56,27.6 46.8,28.41 46.61,29.42 C46.59,29.53 46.57,29.63 46.55,29.73 C45.63,33.96 43.48,37.75 40.49,40.7 C39.17,42.01 37.37,42.72 35.51,42.72 C30.06,42.72 24.8,40.71 20.71,36.99 C14.91,31.71 12.34,23.67 14.01,16 C14.93,11.78 17.07,7.96 20.12,4.97 C21.42,3.7 23.18,3.01 25,3.01 L25,3.01 C30.42,3.01 35.75,5 39.86,8.74 C40.44,9.27 40.99,9.83 41.5,10.41 C42.04,11.03 42.9,11.27 43.7,11.07 C43.74,11.07 43.77,11.05 43.8,11.04 C44.01,10.99 44.19,10.88 44.33,10.72 L44.41,10.63 C44.75,10.25 44.77,9.67 44.45,9.27 C43.67,8.3 42.81,7.38 41.87,6.53 C35.28,0.51 25.91,-1.53 17.42,1.18 C8.93,3.89 2.47,10.98 0.57,19.69 C-1.33,28.4 1.59,37.54 8.18,43.54 C12.85,47.79 18.9,50.05 25.06,50.05 C27.6,50.05 30.16,49.66 32.64,48.87 C41.13,46.16 47.59,39.07 49.49,30.36 C49.67,29.52 49.81,28.68 49.9,27.83 C49.96,27.32 49.43,26.91 48.96,27.13 L48.95,27.13 Z M31.73,46.02 C24.25,48.4 16.01,46.61 10.2,41.33 C4.4,36.05 1.83,28.01 3.5,20.34 C5.01,13.44 9.77,7.7 16.15,4.88 C13.68,7.91 11.92,11.48 11.08,15.36 C9.18,24.07 12.1,33.21 18.69,39.21 C22.69,42.85 27.69,45.05 32.95,45.59 C32.55,45.75 32.14,45.89 31.72,46.03 L31.73,46.02 Z" id="path-6"></path>
        <linearGradient x1="42.6256576%" y1="48.8263625%" x2="96.3830157%" y2="53.1224579%" id="linearGradient-8">
            <stop stop-color="#FFFFFF" offset="0%"></stop>
            <stop stop-color="#FFFFFF" stop-opacity="0.798295455" offset="100%"></stop>
        </linearGradient>
        <linearGradient x1="16.530637%" y1="81.6640655%" x2="110.051583%" y2="23.5519437%" id="linearGradient-9">
            <stop stop-color="#D1ECF6" offset="0%"></stop>
            <stop stop-color="#FFFFFF" offset="100%"></stop>
        </linearGradient>
    </defs>
    <g id="UI" stroke="none" stroke-width="1" fill="none" fill-rule="evenodd">
        <g id="Group-Copy" transform="translate(-0.6337, -0.4622)">
            <g id="Combined-Shape">
                <use fill="url(#linearGradient-1)" xlink:href="#path-3"></use>
                <use fill="url(#linearGradient-2)" xlink:href="#path-3"></use>
            </g>
            <g id="Asset-6-Copy" transform="translate(5.6345, 4.4603)">
                <g id="Clipped">
                    <mask id="mask-7" fill="white">
                        <use xlink:href="#path-6"></use>
                    </mask>
                    <g id="Shape">
                        <use fill="url(#linearGradient-4)" xlink:href="#path-6"></use>
                        <use fill="url(#linearGradient-5)" xlink:href="#path-6"></use>
                    </g>
                </g>
                <path d="M31.65,26.89 C31.31,26.72 30.91,26.71 30.56,26.85 C30.07,27.05 29.57,27.24 29.06,27.4 C21.59,29.78 13.34,27.99 7.53,22.71 C6.01,21.33 4.7,19.75 3.62,18.01 L1.07,19.59 C2.29,21.57 3.79,23.36 5.51,24.93 C10.18,29.18 16.24,31.44 22.39,31.44 C24.93,31.44 27.49,31.05 29.97,30.26 C31.18,29.88 32.34,29.4 33.45,28.85 C33.88,28.64 33.87,28.02 33.45,27.8 L31.66,26.89 L31.65,26.89 Z" id="Path" fill="url(#linearGradient-8)"></path>
                <path d="M40.45,24.36 L46.37,19.19 L46.68,23.87 C46.68,24.07 46.81,24.25 46.98,24.35 C47.16,24.45 47.37,24.46 47.56,24.36 C48.91,23.68 49.9,22.43 50.24,20.95 C50.59,19.45 50.95,17.53 51,15.92 C51.02,15.21 51.29,14.53 51.78,14.01 L51.78,14.01 C54.5,11.14 56.11,9.33 56.78,7.98 C57.09,7.34 56.99,6.6 56.52,6.08 C56.04,5.56 55.31,5.4 54.66,5.66 L54.42,5.76 C52.69,6.45 51.14,7.54 49.91,8.93 L47.65,11.49 C46.49,12.81 44.98,13.78 43.29,14.27 C41.6,14.76 39.75,15.42 38.57,15.87 C37.48,16.28 36.66,17.15 36.32,18.25 C36.26,18.44 36.3,18.66 36.43,18.82 C36.56,18.98 36.77,19.06 36.97,19.03 L41.5,18.43 L39.05,21.19 C38.38,21.94 37.4,22.33 36.4,22.25 L35.53,22.18 C34.32,22.08 33.1,22.37 32.07,23 L31.74,23.21 C31.19,23.55 31.27,24.36 31.87,24.59 L34.26,25.49 C36.37,26.29 38.75,25.85 40.46,24.37 L40.45,24.36 Z" id="Path" fill="url(#linearGradient-9)"></path>
            </g>
        </g>
    </g>
</svg>