<?xml version="1.0" encoding="UTF-8"?>
<svg width="33px" height="32px" viewBox="0 0 33 32" version="1.1" xmlns="http://www.w3.org/2000/svg" xmlns:xlink="http://www.w3.org/1999/xlink">
    <title>Graphic</title>
    <g id="Graphic" stroke="none" fill="none" transform="translate(0.5, 0)" fill-rule="evenodd" stroke-width="1">
        <g id="Group">
            <path d="M9.5,7.5 C9.5,8.6045695 8.6045695,9.5 7.5,9.5 C6.3954305,9.5 5.5,8.6045695 5.5,7.5 C5.5,6.3954305 6.3954305,5.5 7.5,5.5 C8.6045695,5.5 9.5,6.3954305 9.5,7.5 Z M16,5.5 C14.8954305,5.5 14,6.3954305 14,7.5 C14,8.6045695 14.8954305,9.5 16,9.5 C17.1045695,9.5 18,8.6045695 18,7.5 C18,6.96956702 17.7892863,6.46085919 17.4142136,6.08578644 C17.0391408,5.71071368 16.530433,5.5 16,5.5 Z M24.5,9.5 C25.6045695,9.5 26.5,8.6045695 26.5,7.5 C26.5,6.3954305 25.6045695,5.5 24.5,5.5 C23.3954305,5.5 22.5,6.3954305 22.5,7.5 C22.5,8.6045695 23.3954305,9.5 24.5,9.5 Z M7.5,14 C6.3954305,14 5.5,14.8954305 5.5,16 C5.5,17.1045695 6.3954305,18 7.5,18 C8.6045695,18 9.5,17.1045695 9.5,16 C9.5,14.8954305 8.6045695,14 7.5,14 Z M16,14 C14.8954305,14 14,14.8954305 14,16 C14,17.1045695 14.8954305,18 16,18 C17.1045695,18 18,17.1045695 18,16 C18,14.8954305 17.1045695,14 16,14 Z M24.5,14 C23.3954305,14 22.5,14.8954305 22.5,16 C22.5,17.1045695 23.3954305,18 24.5,18 C25.6045695,18 26.5,17.1045695 26.5,16 C26.5,14.8954305 25.6045695,14 24.5,14 Z M7.5,22.5 C6.3954305,22.5 5.5,23.3954305 5.5,24.5 C5.5,25.6045695 6.3954305,26.5 7.5,26.5 C8.6045695,26.5 9.5,25.6045695 9.5,24.5 C9.5,23.3954305 8.6045695,22.5 7.5,22.5 Z M16,22.5 C14.8954305,22.5 14,23.3954305 14,24.5 C14,25.6045695 14.8954305,26.5 16,26.5 C17.1045695,26.5 18,25.6045695 18,24.5 C18,23.3954305 17.1045695,22.5 16,22.5 Z M24.5,22.5 C23.3954305,22.5 22.5,23.3954305 22.5,24.5 C22.5,25.6045695 23.3954305,26.5 24.5,26.5 C25.6045695,26.5 26.5,25.6045695 26.5,24.5 C26.5,23.3954305 25.6045695,22.5 24.5,22.5 Z" id="Shape" fill="#000000" fill-rule="nonzero"></path>
            <rect id="Rectangle" x="0" y="0" width="32" height="32"></rect>
        </g>
    </g>
</svg>