<?xml version="1.0" encoding="UTF-8"?>
<svg width="16px" height="16px" viewBox="0 0 16 16" version="1.1" xmlns="http://www.w3.org/2000/svg" xmlns:xlink="http://www.w3.org/1999/xlink">
    <title>Group</title>
    <g id="UI" stroke="none" stroke-width="1" fill="none" fill-rule="evenodd">
        <g id="Frame" transform="translate(-1309, -101)">
            <g id="Group" transform="translate(1309, 101)">
                <path d="M14.6470744,7.17840329 L11.8329554,9.60566731 L12.6903237,13.2356241 C12.7870599,13.6385875 12.6315775,14.060136 12.2963077,14.3038922 C11.9610379,14.5476485 11.5119271,14.5656665 11.1581923,14.3495526 L8.00012543,12.4067412 L4.84018252,14.3495526 C4.48652058,14.564406 4.03832683,14.5457313 3.70378003,14.3022025 C3.36923322,14.0586737 3.21389883,13.6380183 3.30992717,13.2356241 L4.17042221,9.60566731 L1.35630326,7.17840329 C1.04345496,6.90812921 0.922773105,6.47696063 1.04988632,6.08364582 C1.17699954,5.69033101 1.5272302,5.41122769 1.93913856,5.37498926 L5.62876119,5.07744157 L7.05208002,1.63438975 C7.20964856,1.25060938 7.58354689,1 7.99856203,1 C8.41357717,1 8.78747551,1.25060938 8.94504404,1.63438975 L10.3677375,5.07744157 L14.0573601,5.37498926 C14.4701161,5.40988327 14.8217329,5.68869114 14.9496482,6.08251209 C15.0775635,6.47633304 14.956852,6.90842845 14.6433222,7.17902839 L14.6470744,7.17840329 Z" id="Path" fill="#000000" fill-rule="nonzero"></path>
                <rect id="Rectangle" x="0" y="0" width="16" height="16"></rect>
            </g>
        </g>
    </g>
</svg>