<?xml version="1.0" encoding="UTF-8"?>
<svg width="16px" height="16px" viewBox="0 0 16 16" version="1.1" xmlns="http://www.w3.org/2000/svg" xmlns:xlink="http://www.w3.org/1999/xlink">
    <title>Star Copy 7</title>
    <g id="Star-Copy-7" stroke="none" fill="none" fill-rule="evenodd" stroke-width="1">
        <g id="Group">
            <path d="M7.70716124,1.58861214 C8.10468512,1.5 8.2055536,1.53203594 8.28996283,1.58861214 C8.37432189,1.64515471 8.4422416,1.72621105 8.48294001,1.82533442 L10.022504,5.55122395 L14.0152408,5.87321206 C14.1213927,5.88218605 14.2196861,5.92251824 14.2996636,5.98593481 C14.3795918,6.04931242 14.4412261,6.13574831 14.474104,6.23697153 C14.5069697,6.33815718 14.5078956,6.44425985 14.4804655,6.54244768 C14.4530265,6.64066767 14.3972151,6.73096424 14.3165506,6.80058384 L11.2766282,9.42543481 L12.2041369,13.352339 C12.2289057,13.4555159 12.2213836,13.5610718 12.1862096,13.6564367 C12.151021,13.7518411 12.0881601,13.8370432 12.0022821,13.8994804 C11.916352,13.9619554 11.8158316,13.9954954 11.7141308,13.9995756 C11.6124249,14.003656 11.5095339,13.9782738 11.4201809,13.9236865 L8.00020265,11.8197498 L4.58057863,13.9222286 C4.48993013,13.9772985 4.38716595,14.0024351 4.28562839,13.9982043 C4.18409621,13.9939738 4.08378603,13.9603788 3.99804131,13.8979621 C3.91234856,13.8355832 3.84959922,13.7505246 3.81443054,13.6552856 C3.77927644,13.560086 3.77168266,13.4547173 3.79644421,13.3509548 L4.72700249,9.42543963 L1.68317339,6.80004378 C1.60276734,6.73057986 1.54704734,6.64044425 1.51960438,6.54239683 C1.4921704,6.44438153 1.49299704,6.33846296 1.52565663,6.23740737 C1.55832828,6.13631445 1.61968119,6.04990577 1.69932517,5.98643645 C1.77901811,5.92292812 1.8770241,5.88238515 1.97933032,5.87337126 L5.9739418,5.55122791 L7.51461346,1.82429189 C7.55488246,1.72621105 7.62280217,1.64515471 7.70716124,1.58861214 Z" id="Path" stroke="#000000" fill-rule="nonzero"></path>
            <rect id="Rectangle" x="0" y="0" width="16" height="16"></rect>
        </g>
    </g>
</svg>