<?xml version="1.0" encoding="UTF-8"?>
<svg width="32px" height="32px" viewBox="0 0 32 32" version="1.1" xmlns="http://www.w3.org/2000/svg" xmlns:xlink="http://www.w3.org/1999/xlink">
    <title>Warning</title>
    <g id="Warning" stroke="none" fill="none" fill-rule="evenodd" stroke-width="1">
        <g id="Group">
            <rect id="Rectangle" x="0" y="0" width="32" height="32"></rect>
            <path d="M29.6,23.51125 L18.66875,4.5275 L18.66875,4.5275 C18.1129338,3.58114439 17.0975065,2.99991776 16,2.99991776 C14.9024935,2.99991776 13.8870662,3.58114439 13.33125,4.5275 L2.4,23.51125 C1.8648789,24.4271496 1.8648789,25.5603504 2.4,26.47625 C2.94904848,27.4289307 3.96923903,28.0114189 5.06875,28.0001649 L26.93125,28.0001649 C28.0298703,28.0105123 29.0488918,27.4281461 29.5975,26.47625 C30.1333936,25.5608016 30.1343491,24.4276008 29.6,23.51125 Z M15,13 C15,12.4477153 15.4477153,12 16,12 C16.5522847,12 17,12.4477153 17,13 L17,18 C17,18.5522847 16.5522847,19 16,19 C15.4477153,19 15,18.5522847 15,18 L15,13 Z M16,24 C15.1715729,24 14.5,23.3284271 14.5,22.5 C14.5,21.6715729 15.1715729,21 16,21 C16.8284271,21 17.5,21.6715729 17.5,22.5 C17.5,23.3284271 16.8284271,24 16,24 Z" id="Shape" fill="#EE8F2E" fill-rule="nonzero"></path>
        </g>
    </g>
</svg>