<?xml version="1.0" encoding="utf-8" ?>
<svg xmlns="http://www.w3.org/2000/svg" xmlns:xlink="http://www.w3.org/1999/xlink" width="64" height="64">
	<defs>
		<radialGradient id="gradient_0" gradientUnits="userSpaceOnUse" cx="32" cy="64.239243" r="49.256584" gradientTransform="matrix(6.12323e-17 1 -1 6.12323e-17 96.2392 32.2392)">
			<stop offset="0" stop-color="#2579D2"/>
			<stop offset="1" stop-color="#67BCEF"/>
		</radialGradient>
	</defs>
	<path fill="url(#gradient_0)" d="M14 0L50 0C57.731987 -1.7763568e-15 64 6.2680135 64 14L64 50C64 57.731987 57.731987 64 50 64L14 64C6.2680135 64 0 57.731987 0 50L0 14C-1.7763568e-15 6.2680135 6.2680135 1.7763568e-15 14 0Z" fill-rule="evenodd"/>
	<path fill="white" transform="translate(12.7663 10.9906)" d="M34.674351 21.264376C34.522476 21.17625 34.355602 21.091875 34.183102 21.009375C34.355602 20.926874 34.522476 20.842501 34.674351 20.754375C37.013985 19.424164 38.461502 16.942326 38.467438 14.250988C38.473335 11.559649 37.036743 9.0714722 34.702984 7.7309861C32.369225 6.3905001 29.49613 6.4032421 27.174353 7.7643752C27.022476 7.8525 26.864977 7.9518752 26.709352 8.0625C26.724352 7.875 26.733727 7.6875 26.733727 7.5C26.733727 3.3578644 23.375862 0 19.233727 0C15.091592 0 11.733727 3.3578644 11.733727 7.5C11.733727 7.67625 11.733727 7.86375 11.758102 8.0625C11.602477 7.9556251 11.444977 7.8525 11.293102 7.7643752C8.971324 6.4032421 6.0982308 6.3905001 3.7644715 7.7309861C1.4307119 9.0714722 -0.0058803405 11.559649 1.8093964e-05 14.250988C0.0059529394 16.942326 1.4534712 19.424164 3.793102 20.754375C3.944977 20.842501 4.1118522 20.926874 4.2843523 21.009375C4.1118522 21.091875 3.944977 21.17625 3.793102 21.264376C1.4534712 22.594587 0.0059529394 25.076424 1.8093964e-05 27.767763C-0.0058803405 30.459101 1.4307119 32.947277 3.7644715 34.287766C6.0982308 35.62825 8.971324 35.615509 11.293102 34.254375C11.444977 34.166248 11.602477 34.066875 11.758102 33.956249C11.743102 34.143749 11.733727 34.331249 11.733727 34.509377C11.733727 38.651512 15.091592 42.009377 19.233727 42.009377C23.375862 42.009377 26.733727 38.651512 26.733727 34.509377C26.733727 34.333126 26.724352 34.145626 26.709352 33.956249C26.864977 34.063126 27.022476 34.166248 27.174353 34.254375C28.310457 34.912525 29.60013 35.259197 30.913101 35.259377C31.572838 35.258511 32.229637 35.171524 32.866852 35.000626C35.796989 34.215282 37.965492 31.742155 38.361149 28.734512C38.756805 25.72687 37.301689 22.777054 34.674351 21.260626L34.674351 21.264376ZM19.233727 26.259375C16.334232 26.259375 13.983727 23.908871 13.983727 21.009375C13.983727 18.10988 16.334232 15.759375 19.233727 15.759375C22.133223 15.759375 24.483727 18.10988 24.483727 21.009375C24.483727 23.908871 22.133223 26.259375 19.233727 26.259375Z"/>
</svg>
