<?xml version="1.0" encoding="utf-8" ?>
<svg xmlns="http://www.w3.org/2000/svg" xmlns:xlink="http://www.w3.org/1999/xlink" width="64" height="64">
	<defs>
		<radialGradient id="gradient_0" gradientUnits="userSpaceOnUse" cx="32" cy="64.239243" r="49.256584" gradientTransform="matrix(6.12323e-17 1 -1 6.12323e-17 96.2392 32.2392)">
			<stop offset="0" stop-color="#E78813"/>
			<stop offset="1" stop-color="#F7D777"/>
		</radialGradient>
	</defs>
	<path fill="url(#gradient_0)" d="M14 0L50 0C57.731987 -1.7763568e-15 64 6.2680135 64 14L64 50C64 57.731987 57.731987 64 50 64L14 64C6.2680135 64 0 57.731987 0 50L0 14C-1.7763568e-15 6.2680135 6.2680135 1.7763568e-15 14 0Z" fill-rule="evenodd"/>
	<path fill="white" transform="translate(13.9077 13.9077)" d="M18.092348 15.842347C19.334988 15.842347 20.342348 16.849707 20.342348 18.092348C20.342348 19.334988 19.334988 20.342348 18.092348 20.342348C16.849707 20.342348 15.842347 19.334988 15.842347 18.092348C15.842347 16.849707 16.849707 15.842347 18.092348 15.842347ZM33.894848 23.289848C35.844521 25.172907 36.626442 27.961432 35.940075 30.583652C35.253712 33.205872 33.205872 35.253712 30.583652 35.940075C27.961432 36.626442 25.172907 35.844521 23.289848 33.894848L18.092348 28.699223L12.894848 33.894848C11.011789 35.844521 8.2232628 36.626442 5.6010427 35.940075C2.9788218 35.253712 0.93098456 33.205872 0.24461877 30.583652C-0.44174704 27.961432 0.34017307 25.172907 2.2898474 23.289848L7.4854727 18.092348L2.2898474 12.894848C0.34017307 11.011789 -0.44174704 8.2232628 0.24461877 5.6010427C0.93098456 2.9788218 2.9788218 0.93098456 5.6010427 0.24461877C8.2232628 -0.44174704 11.011789 0.34017307 12.894848 2.2898474L18.092348 7.4854727L23.289848 2.2898474C25.172907 0.34017307 27.961432 -0.44174704 30.583652 0.24461877C33.205872 0.93098456 35.253712 2.9788218 35.940075 5.6010427C36.626442 8.2232628 35.844521 11.011789 33.894848 12.894848L28.699223 18.092348L33.894848 23.289848ZM15.971723 26.576723L9.6079721 20.212973L4.4048476 25.404848C3.2660635 26.543631 2.8213174 28.203445 3.2381415 29.759054C3.6549654 31.314661 4.8700333 32.529728 6.4256415 32.946552C7.9812493 33.363377 9.6410637 32.918633 10.779847 31.779848L15.971723 26.576723ZM24.456097 18.092348L18.092348 11.728598L11.728598 18.092348L18.092348 24.456097L24.456097 18.092348ZM31.768597 10.779847C32.907383 9.6430731 33.353199 7.985116 32.938114 6.4305129C32.523033 4.8759098 31.310108 3.6608415 29.756241 3.2430129C28.202374 2.8251841 26.543631 3.2680728 25.404848 4.4048476L20.212973 9.6079721L26.576723 15.971723L31.768597 10.779847Z"/>
</svg>
