<?xml version="1.0" encoding="utf-8" ?>
<svg xmlns="http://www.w3.org/2000/svg" xmlns:xlink="http://www.w3.org/1999/xlink" width="64" height="64">
	<defs>
		<radialGradient id="gradient_0" gradientUnits="userSpaceOnUse" cx="32" cy="64.92411" r="48.571716" gradientTransform="matrix(6.12323e-17 1 -1 6.12323e-17 96.9241 32.9241)">
			<stop offset="0" stop-color="#C71212"/>
			<stop offset="1" stop-color="#F67171"/>
		</radialGradient>
	</defs>
	<path fill="url(#gradient_0)" d="M14 0L50 0C57.731987 -1.7763568e-15 64 6.2680135 64 14L64 50C64 57.731987 57.731987 64 50 64L14 64C6.2680135 64 0 57.731987 0 50L0 14C-1.7763568e-15 6.2680135 6.2680135 1.7763568e-15 14 0Z" fill-rule="evenodd"/>
	<path fill="white" transform="translate(10.9966 15.4872)" d="M42.003426 10.887773C42.009861 13.773063 40.862137 16.541103 38.815899 18.575274L22.072147 35.566525C21.790213 35.85281 21.405203 36.014015 21.003397 36.014015C20.601591 36.014015 20.216583 35.85281 19.934649 35.566525L3.1908977 18.575274C-1.0599688 14.329584 -1.0641661 7.4417644 3.1815228 3.1908979C7.4272118 -1.0599687 14.315031 -1.0641661 18.565897 3.1815228L21.003397 5.4596477L23.457773 3.1740229C26.572866 0.074395366 31.247316 -0.8458029 35.304821 0.84184897C39.36232 2.529501 42.00536 6.4932885 42.003426 10.887773Z"/>
</svg>
