<?xml version="1.0" encoding="utf-8" ?>
<svg xmlns="http://www.w3.org/2000/svg" xmlns:xlink="http://www.w3.org/1999/xlink" width="64" height="64">
	<defs>
		<radialGradient id="gradient_0" gradientUnits="userSpaceOnUse" cx="32" cy="64" r="50.334553" gradientTransform="matrix(6.12323e-17 1 -1 6.12323e-17 96 32)">
			<stop offset="0" stop-color="#159C39"/>
			<stop offset="1" stop-color="#5DE682"/>
		</radialGradient>
	</defs>
	<path fill="url(#gradient_0)" d="M14 0L50 0C57.731987 -1.7763568e-15 64 6.2680135 64 14L64 50C64 57.731987 57.731987 64 50 64L14 64C6.2680135 64 0 57.731987 0 50L0 14C-1.7763568e-15 6.2680135 6.2680135 1.7763568e-15 14 0Z" fill-rule="evenodd"/>
	<path fill="white" transform="translate(15.5009 9.49495)" d="M32.061592 23.003798L26.474092 7.2181721C25.069805 2.9503479 21.105728 0.048929572 16.613066 0.00061226485C12.120404 -0.047705043 8.0948439 2.767787 6.599093 7.0044217L6.599093 7.0044217L1.065968 22.660671C-1.5120486 29.484364 0.69647485 37.191097 6.497335 41.613647C12.298195 46.036201 20.314642 46.124943 26.211985 41.831894C32.109329 37.538841 34.487919 29.882887 32.061592 23.003798L32.061592 23.003798ZM16.499092 36.005047C12.356957 36.005047 8.9990931 32.647182 8.9990931 28.505047C8.9990931 24.362911 12.356957 21.005047 16.499092 21.005047C20.641228 21.005047 23.999092 24.362911 23.999092 28.505047C23.999092 30.494171 23.208918 32.401825 21.802393 33.80835C20.39587 35.21487 18.488216 36.005047 16.499092 36.005047Z"/>
</svg>
