<?xml version="1.0" encoding="utf-8" ?>
<svg xmlns="http://www.w3.org/2000/svg" xmlns:xlink="http://www.w3.org/1999/xlink" width="64" height="64">
	<defs>
		<radialGradient id="gradient_0" gradientUnits="userSpaceOnUse" cx="32" cy="64.239243" r="49.256584" gradientTransform="matrix(6.12323e-17 1 -1 6.12323e-17 96.2392 32.2392)">
			<stop offset="0" stop-color="#A424B4"/>
			<stop offset="1" stop-color="#EE8EEB"/>
		</radialGradient>
	</defs>
	<path fill="url(#gradient_0)" d="M14 0L50 0C57.731987 -1.7763568e-15 64 6.2680135 64 14L64 50C64 57.731987 57.731987 64 50 64L14 64C6.2680135 64 0 57.731987 0 50L0 14C-1.7763568e-15 6.2680135 6.2680135 1.7763568e-15 14 0Z" fill-rule="evenodd"/>
	<path fill="white" transform="translate(10.252 13.25)" d="M37.497993 9.000001L37.497993 8.250001C37.493965 4.9271502 35.496849 1.9310426 32.431324 0.64889419C29.365797 -0.63325423 25.830282 0.048845168 23.461742 2.3793764C23.323339 2.5188749 23.246389 2.7078757 23.247993 2.9043763L23.247993 19.539377C23.248726 19.814856 23.400423 20.06776 23.643114 20.198109C23.885805 20.328457 24.180422 20.315266 24.410492 20.163752C25.836807 19.24921 27.493685 18.758909 29.187992 18.750002C30.002357 18.734873 30.686514 19.358931 30.746117 20.171251C30.76774 20.582537 30.619303 20.984619 30.335621 21.283195C30.051939 21.58177 29.65797 21.750568 29.246117 21.750002C25.932409 21.750002 23.246117 24.436293 23.246117 27.750002L23.246117 34.102501C23.245804 34.329758 23.348547 34.544899 23.525492 34.6875C25.683022 36.473061 28.549749 37.15049 31.278315 36.51955C34.006882 35.888607 36.28521 34.021458 37.439869 31.470001C37.556816 31.211842 37.518253 30.909807 37.340195 30.689314C37.162132 30.468819 36.874989 30.367529 36.597992 30.427502C35.663132 30.641758 34.707092 30.749943 33.747993 30.750002L32.298618 30.750002C31.495901 30.759895 30.82136 30.14913 30.751743 29.349377C30.724205 28.934631 30.869997 28.527056 31.154341 28.223873C31.438686 27.920691 31.836086 27.749088 32.251743 27.750002L33.751743 27.750002C35.318897 27.75238 36.863171 27.374033 38.251743 26.647501L38.251743 26.647501C41.60886 24.899075 43.650665 21.365643 43.489143 17.583958C43.327621 13.802273 40.991966 10.455809 37.497993 9.000001L37.497993 9.000001ZM35.247993 15.750001L34.497993 15.750001C30.770071 15.750001 27.747993 12.727923 27.747993 9.000001L27.747993 8.250001C27.747993 7.4215741 28.419565 6.7500014 29.247993 6.7500014C30.07642 6.7500014 30.747993 7.4215741 30.747993 8.250001L30.747993 9.000001C30.747993 11.071069 32.426926 12.750001 34.497993 12.750001L35.247993 12.750001C36.07642 12.750001 36.747993 13.421575 36.747993 14.250001C36.747993 15.078428 36.07642 15.750001 35.247993 15.750001L35.247993 15.750001ZM14.247993 6.6195935e-07C9.6937847 0.005167759 6.003159 3.6957939 5.9979925 8.250001L5.9979925 9.000001C2.5044188 10.456592 0.16955252 13.803505 0.0088363821 17.585155C-0.15187976 21.366806 1.8905998 24.899752 5.2479925 26.647501L5.2479925 26.647501C6.6365633 27.374033 8.1808386 27.75238 9.7479925 27.750002L11.197368 27.750002C12.001518 27.738125 12.678275 28.349415 12.747993 29.150627C12.775531 29.565371 12.629739 29.972948 12.345394 30.276131C12.061049 30.579311 11.66365 30.750914 11.247993 30.750002L9.7479925 30.750002C8.7881413 30.750402 7.8313613 30.641577 6.8961177 30.425627C6.6193242 30.365246 6.332129 30.465986 6.1537042 30.686043C5.9752798 30.906099 5.9360785 31.207916 6.0523677 31.466251C7.2067227 34.018387 9.4850531 35.886345 12.213959 36.518017C14.942864 37.149685 17.810253 36.472828 19.968618 34.6875C20.145563 34.544899 20.248306 34.329758 20.247997 34.102501L20.247997 27.750002C20.247997 24.436293 17.561701 21.750002 14.247993 21.750002C13.83614 21.750568 13.442171 21.58177 13.158489 21.283195C12.874807 20.984619 12.72637 20.582537 12.747993 20.171251C12.807631 19.358194 13.49291 18.733864 14.307993 18.750002C16.0023 18.758909 17.659178 19.24921 19.085493 20.163752C19.315563 20.315266 19.61018 20.328457 19.852871 20.198109C20.095562 20.06776 20.247259 19.814856 20.247997 19.539377L20.247997 2.9043763C20.248655 2.707504 20.171883 2.5182648 20.034243 2.3775012C18.494101 0.85354698 16.414665 -0.00086816284 14.247993 6.6195935e-07ZM15.747993 9.000001C15.747993 12.727923 12.725915 15.750001 8.9979925 15.750001L8.2479925 15.750001C7.4195657 15.750001 6.7479925 15.078428 6.7479925 14.250001C6.7479925 13.421575 7.4195657 12.750001 8.2479925 12.750001L8.9979925 12.750001C11.06906 12.750001 12.747993 11.071069 12.747993 9.000001L12.747993 8.250001C12.747993 7.4215741 13.419565 6.7500014 14.247993 6.7500014C15.07642 6.7500014 15.747993 7.4215741 15.747993 8.250001L15.747993 9.000001Z"/>
</svg>
