<?xml version="1.0" encoding="utf-8" ?>
<svg xmlns="http://www.w3.org/2000/svg" xmlns:xlink="http://www.w3.org/1999/xlink" width="64" height="64">
	<defs>
		<radialGradient id="gradient_0" gradientUnits="userSpaceOnUse" cx="32" cy="64" r="50.334553" gradientTransform="matrix(6.12323e-17 1 -1 6.12323e-17 96 32)">
			<stop offset="0" stop-color="#159C39"/>
			<stop offset="1" stop-color="#5DE682"/>
		</radialGradient>
	</defs>
	<path fill="url(#gradient_0)" d="M14 0L50 0C57.731987 -1.7763568e-15 64 6.2680135 64 14L64 50C64 57.731987 57.731987 64 50 64L14 64C6.2680135 64 0 57.731987 0 50L0 14C-1.7763568e-15 6.2680135 6.2680135 1.7763568e-15 14 0Z" fill-rule="evenodd"/>
	<path fill="white" transform="translate(13.2495 9.5)" d="M13.500451 5.25C13.500451 2.3505051 15.850956 0 18.75045 0C21.649946 0 24.00045 2.3505051 24.00045 5.25C24.00045 8.1494951 21.649946 10.5 18.75045 10.5C15.850956 10.5 13.500451 8.1494951 13.500451 5.25ZM37.425449 15.856875C37.14352 14.470423 35.915146 13.480637 34.50045 13.499721L3.0004506 13.499721C1.5913336 13.499721 0.37208232 14.480571 0.070030786 15.856935C-0.23202075 17.233297 0.46454629 18.634378 1.7442007 19.224375L1.7554507 19.224375L11.859826 23.67375L7.7498255 39.2925C7.0975118 40.784794 7.7549677 42.524971 9.2310753 43.213123C9.6277695 43.401474 10.061314 43.499454 10.500451 43.500004C11.65458 43.501694 12.707348 42.84116 13.207951 41.80125L18.75045 32.25L24.296701 41.8125C25.01404 43.271744 26.763325 43.893875 28.240984 43.215279C29.718643 42.536686 30.386703 40.80442 29.747326 39.309376L25.637325 23.690624L35.762325 19.235624C37.058811 18.65766 37.758202 17.236801 37.425449 15.856875L37.425449 15.856875Z"/>
</svg>
