<?xml version="1.0" encoding="utf-8" ?>
<svg xmlns="http://www.w3.org/2000/svg" xmlns:xlink="http://www.w3.org/1999/xlink" width="64" height="64">
	<defs>
		<radialGradient id="gradient_0" gradientUnits="userSpaceOnUse" cx="32" cy="64.239243" r="49.256584" gradientTransform="matrix(6.12323e-17 1 -1 6.12323e-17 96.2392 32.2392)">
			<stop offset="0" stop-color="#2579D2"/>
			<stop offset="1" stop-color="#67BCEF"/>
		</radialGradient>
	</defs>
	<path fill="url(#gradient_0)" d="M14 0L50 0C57.731987 -1.7763568e-15 64 6.2680135 64 14L64 50C64 57.731987 57.731987 64 50 64L14 64C6.2680135 64 0 57.731987 0 50L0 14C-1.7763568e-15 6.2680135 6.2680135 1.7763568e-15 14 0Z" fill-rule="evenodd"/>
	<path fill="white" transform="translate(18.4996 10.9967)" d="M27.000473 35.34705L27.000473 40.5033C27.000473 41.331726 26.328815 42.0033 25.500389 42.0033C24.671961 42.0033 24.000389 41.331726 24.000389 40.5033L24.000389 35.34705C24.015394 30.797132 21.442793 26.634289 17.366638 24.612675L8.2916384 20.077049C3.1967287 17.550098 -0.018699367 12.34666 0.00030382245 6.6595492L0.00030382245 1.503299C0.00030382245 0.67487192 0.67196119 0.0032990566 1.5003884 0.0032990566C2.3288155 0.0032990566 3.0003884 0.67487192 3.0003884 1.503299L3.0003884 6.6595492C2.9853833 11.209465 5.5579844 15.372309 9.6341381 17.393925L18.709139 21.929548C23.804049 24.456501 27.019476 29.659939 27.000473 35.34705ZM20.096638 33.0033L5.2335134 33.0033C4.8178568 33.004211 4.4204564 32.832611 4.1361117 32.529427C3.8517675 32.226246 3.7059751 31.818668 3.7335134 31.403925C3.8032312 30.602713 4.4799876 29.991423 5.2841382 30.0033L17.569138 30.0033C17.875816 30.002916 18.151365 29.815859 18.264908 29.530972C18.378448 29.246086 18.307106 28.920774 18.084763 28.709549C17.465916 28.145744 16.77179 27.670584 16.022263 27.297674L7.2753882 22.921425C7.0293632 22.798491 6.7357864 22.820078 6.5103884 22.977674C2.4221523 25.76498 -0.016769867 30.399075 0.00019118206 35.34705L0.00019118206 40.452675C-0.012409827 41.257172 0.59936422 41.934464 1.4010134 42.0033C1.8157578 42.030838 2.2233348 41.885044 2.5265169 41.6007C2.8296993 41.316357 3.0013015 40.918957 3.0003884 40.5033L3.0003884 37.5033L20.250389 37.5033C20.664602 37.5033 21.000389 37.167511 21.000389 36.7533L21.000389 35.34705C21.000389 34.760483 20.943815 34.175285 20.831638 33.599548C20.758801 33.251789 20.451942 33.002861 20.096638 33.0033ZM25.401012 0.0032990566C24.599363 0.072134763 23.987591 0.74942678 24.000389 1.5539241L24.000389 4.5032992L6.7503881 4.5032992C6.336175 4.5032992 6.0003881 4.8390856 6.0003881 5.2532992L6.0003881 6.6595492C6.0003881 7.2461138 6.0569606 7.8313112 6.1691384 8.4070492C6.2419753 8.7548075 6.5488338 9.0037384 6.9041386 9.0032988L21.716639 9.0032988C22.519354 8.9934053 23.193895 9.6041708 23.263514 10.403924C23.291052 10.818668 23.14526 11.226246 22.860914 11.529428C22.576571 11.83261 22.179171 12.004212 21.763514 12.003299L9.4316387 12.003299C9.1249599 12.003682 8.849411 12.19074 8.7358694 12.475626C8.6223278 12.760512 8.6936712 13.085825 8.9160137 13.29705C9.5348616 13.860854 10.228988 14.336015 10.978514 14.708924L19.729137 19.085175C19.975164 19.208107 20.26874 19.18652 20.494139 19.028925C24.58095 16.24077 27.018391 11.606822 27.000488 6.6595492L27.000488 1.503299C27.001301 1.0876424 26.829699 0.69024205 26.526518 0.40589762C26.223335 0.12155317 25.815758 -0.024239264 25.401012 0.0032990566Z"/>
</svg>
