<?xml version="1.0" encoding="utf-8" ?>
<svg xmlns="http://www.w3.org/2000/svg" xmlns:xlink="http://www.w3.org/1999/xlink" width="64" height="64">
	<defs>
		<radialGradient id="gradient_0" gradientUnits="userSpaceOnUse" cx="32" cy="64.239243" r="49.256584" gradientTransform="matrix(6.12323e-17 1 -1 6.12323e-17 96.2392 32.2392)">
			<stop offset="0" stop-color="#E78813"/>
			<stop offset="1" stop-color="#F7D777"/>
		</radialGradient>
	</defs>
	<path fill="url(#gradient_0)" d="M14 0L50 0C57.731987 -1.7763568e-15 64 6.2680135 64 14L64 50C64 57.731987 57.731987 64 50 64L14 64C6.2680135 64 0 57.731987 0 50L0 14C-1.7763568e-15 6.2680135 6.2680135 1.7763568e-15 14 0Z" fill-rule="evenodd"/>
	<path fill="white" transform="translate(12.5 12.5)" d="M19.5 0C8.7304478 0 0 8.7304478 0 19.5C0 30.269552 8.7304478 39 19.5 39C30.269552 39 39 30.269552 39 19.5C38.988632 8.7351599 30.264841 0.011367863 19.5 0L19.5 0ZM12.75 13.5C13.99264 13.5 15 14.50736 15 15.75C15 16.992641 13.99264 18 12.75 18C11.50736 18 10.5 16.992641 10.5 15.75C10.5 14.50736 11.50736 13.5 12.75 13.5ZM27.011326 22.445425C27.562258 22.437967 28.072931 22.733154 28.341446 23.214281C28.609962 23.695408 28.593088 24.285017 28.297501 24.75C26.368126 28.085625 23.161875 30 19.5 30C15.838125 30 12.631875 28.0875 10.7025 24.75C10.406911 24.285017 10.390038 23.695408 10.658553 23.214281C10.927068 22.733154 11.437742 22.437967 11.988675 22.445425C12.539608 22.452881 13.042106 22.761782 13.2975 23.25C14.698125 25.670626 16.899376 27 19.5 27C22.100624 27 24.301874 25.668751 25.702499 23.25C25.957893 22.761782 26.460392 22.452881 27.011326 22.445425ZM30 14.5C30.828426 14.5 31.5 15.171573 31.5 16C31.5 16.828426 30.828426 17.5 30 17.5L24 17.5C23.171574 17.5 22.5 16.828426 22.5 16C22.5 15.171573 23.171574 14.5 24 14.5L30 14.5Z"/>
</svg>
