<?xml version="1.0" encoding="UTF-8"?>
<svg width="128px" height="48px" viewBox="0 0 128 48" version="1.1" xmlns="http://www.w3.org/2000/svg" xmlns:xlink="http://www.w3.org/1999/xlink">
    <title>bbb</title>
    <g id="UI" stroke="none" stroke-width="1" fill="none" fill-rule="evenodd" opacity="0.5">
        <g id="homepage" transform="translate(-1521, -4599)" fill="#474150">
            <g id="Group-Copy-8" transform="translate(272, 4507)">
                <g id="Group" transform="translate(1249, 92)">
                    <path d="M121.688552,0 C125.149269,0.00464366333 127.996125,2.84656562 128,6.30299903 L128,41.697001 C127.996125,45.1534344 125.149269,47.9953563 121.688552,48 L6.31144752,48 C2.85073118,47.9953563 0.00387538224,45.1534344 0,41.697001 L0,6.30299903 C0.00387538224,2.84656562 2.85073118,0.00464366333 6.31144752,0 L121.688552,0 Z M43.3918799,0.984456627 L6.31144752,0.984456627 C3.39095946,0.987552402 0.988997548,3.38677846 0.985897242,6.30299903 L0.985897242,41.697001 C0.988997548,44.6132215 3.39095946,47.0124476 6.31144752,47.0155434 L43.3918799,47.0155434 L43.3918799,0.984456627 Z M22.1540101,35.1788455 C23.7057132,35.1788455 25.1264283,35.8854563 25.1264283,37.6175427 C25.1264283,38.4835859 24.6761089,39.1151242 23.9421115,39.5462109 C24.9140573,39.9788455 25.3922795,40.2636569 25.5782979,41.4702354 C25.8922038,43.5769107 23.9483121,44.3771687 22.1168064,44.3771687 L17.8213328,44.3771687 L17.8213328,35.1788455 L22.1540101,35.1788455 Z M30.7550335,35.1788455 C32.3067365,35.1788455 33.7282267,35.8854563 33.7282267,37.6175427 C33.7282267,38.4851338 33.2755821,39.116672 32.5400345,39.5477588 C33.5127555,39.9803934 33.9909776,40.2652048 34.177771,41.4717833 C34.4932272,43.5769107 32.5493354,44.3771687 30.7178298,44.3771687 L26.4223561,44.3771687 L26.4223561,35.1788455 Z M13.5529868,35.1788455 C15.1046898,35.1788455 16.5254049,35.8854563 16.5254049,37.6175427 C16.5254049,38.4835859 16.0750855,39.1151242 15.3403131,39.5462109 C16.313034,39.9788455 16.7912562,40.2636569 16.9772745,41.4702354 C17.2911805,43.5769107 15.349614,44.3771687 13.5157831,44.3771687 L9.22030943,44.3771687 L9.22030943,35.1788455 L13.5529868,35.1788455 Z M37.4966484,40.0376653 C38.6600381,40.0376653 39.6172576,40.9919381 39.6203579,42.1528539 L39.6203579,42.1698807 C39.6203579,43.3331183 38.6623634,44.2904869 37.4966484,44.2904869 C36.3340337,44.2904869 35.3768143,43.3369881 35.373714,42.1760722 L35.373714,42.1582715 C35.373714,40.9950339 36.3317085,40.0376653 37.4966484,40.0376653 Z M37.4966484,40.2311512 C36.437894,40.2311512 35.566708,41.1010642 35.566708,42.1582715 L35.566708,42.1760722 C35.5705834,43.2309578 36.4402192,44.097001 37.4966484,44.097001 C38.5554028,44.097001 39.4273638,43.227088 39.4273638,42.1698807 L39.4273638,42.1528539 C39.4234884,41.0979684 38.5538527,40.2311512 37.4966484,40.2311512 Z M37.6415877,41.0159303 C37.877986,41.0050951 38.1105089,41.0871332 38.2872264,41.2450177 C38.4019377,41.3549178 38.465494,41.5073847 38.4631687,41.6668172 L38.4631687,41.6784263 C38.4631687,42.0297968 38.2283206,42.2403096 37.8996882,42.31693 L38.5747797,43.1891648 L38.1756154,43.1891648 L37.5478034,42.3695582 L36.9905235,42.3695582 L36.9905235,43.1891648 L36.6680917,43.1891648 L36.6642163,41.0159303 L37.6415877,41.0159303 Z M30.8929971,40.5415027 L28.3832995,40.5415027 L28.3832995,42.6388907 L30.8929971,42.6388907 C32.626068,42.6388907 32.7384541,40.5415027 30.8929971,40.5415027 Z M22.2919737,40.5415027 L19.7822762,40.5415027 L19.7822762,42.6373428 L22.2942989,42.6373428 C24.0250447,42.6388907 24.1374307,40.5415027 22.2919737,40.5415027 Z M13.6909504,40.5415027 L11.1758273,40.5415027 L11.1758273,42.6388907 L13.6909504,42.6388907 C15.4240213,42.6388907 15.5379576,40.5415027 13.6909504,40.5415027 Z M37.6260862,41.3053854 L36.9866481,41.3053854 L36.9866481,42.0785553 L37.6082594,42.082425 C37.9136395,42.082425 38.1244603,41.9415672 38.1244603,41.6915834 L38.1244603,41.6799742 C38.1244603,41.4516608 37.9368918,41.3053854 37.6260862,41.3053854 Z M13.4312998,36.9387939 L11.1758273,36.9387939 L11.1758273,38.9007417 L13.5188834,38.9007417 C14.8876684,38.9007417 14.8372884,36.9387939 13.4312998,36.9387939 Z M30.6333465,36.937246 L28.3910503,36.937246 L28.3832995,38.8984199 L30.7217052,38.8984199 C32.0904902,38.8984199 32.0401102,36.937246 30.6333465,36.937246 Z M22.0346483,36.9349242 L19.7846014,36.9349242 L19.7822762,38.896872 L22.122232,38.896872 C23.491017,38.896872 23.440637,36.9349242 22.0346483,36.9349242 Z M67.4448273,27.0431474 C65.8334433,27.0431474 64.8475461,27.986585 64.8475461,29.1242825 C64.8475461,30.6868752 66.2837628,30.9910351 67.4037482,31.2464366 C68.1524721,31.4306353 68.7895849,31.5745888 68.7895849,32.0761045 C68.7895849,32.4623025 68.3989464,32.8345695 67.5982924,32.8345695 C66.7767114,32.8376653 65.9892337,32.5040955 65.4211027,31.9120284 L64.6305247,33.0195421 C65.2676375,33.6650113 66.2124557,34.0991938 67.5269854,34.1123509 C69.3755427,34.1123509 70.2684308,33.1689133 70.2684308,31.917446 C70.2684308,30.3695582 68.821363,30.0305708 67.7006025,29.7635601 C66.9611796,29.5886488 66.3356929,29.4470171 66.3356929,29.0050951 C66.3356929,28.5964528 66.6852524,28.3186069 67.310739,28.3186069 C68.0447364,28.3100935 68.7554815,28.5763302 69.3026855,29.0646888 L70.1149656,27.9958723 C69.4375488,27.3712996 68.5338097,27.0431474 67.4448273,27.0431474 Z M90.1785946,27.0431474 C88.5664356,27.0431474 87.5805383,27.986585 87.5805383,29.1242825 C87.5805383,30.6868752 89.016755,30.9910351 90.1375155,31.2464366 C90.8862394,31.4306353 91.5225771,31.5745888 91.5225771,32.0761045 C91.5225771,32.4623025 91.1327137,32.8345695 90.3312846,32.8345695 C89.5097036,32.8376653 88.7222259,32.5040955 88.1540949,31.9120284 L87.364292,33.0195421 C88.0068304,33.6650113 88.9516486,34.0991938 90.2661782,34.1123509 C92.1147355,34.1123509 93.0076236,33.1689133 93.0076236,31.917446 C93.0076236,30.3695582 91.5597808,30.0305708 90.4397953,29.7635601 C89.7019226,29.5886488 89.0748857,29.4470171 89.0748857,29.0050951 C89.0748857,28.5964528 89.4236701,28.3186069 90.0491568,28.3186069 C90.7831542,28.3108675 91.4946744,28.5771042 92.0418783,29.0646888 L92.8487329,27.9958723 C92.170541,27.3712996 91.2668019,27.0431474 90.1785946,27.0431474 Z M96.4187351,27.0431474 C94.8073511,27.0431474 93.8214539,27.986585 93.8214539,29.1242825 C93.8214539,30.6868752 95.2576705,30.9910351 96.377656,31.2464366 C97.1263798,31.4306353 97.7634927,31.5745888 97.7634927,32.0761045 C97.7634927,32.4623025 97.3728542,32.8345695 96.5722002,32.8345695 C95.7506192,32.8376653 94.9631415,32.5040955 94.3950104,31.9120284 L93.6052075,33.0195421 C94.2399952,33.6650113 95.1848133,34.0991938 96.5008932,34.1123509 C98.3494505,34.1123509 99.2423386,33.1689133 99.2423386,31.917446 C99.2423386,30.3695582 97.7952708,30.0305708 96.6745103,29.7635601 C95.9374126,29.5886488 95.3096007,29.4470171 95.3096007,29.0050951 C95.3096007,28.5964528 95.6591601,28.3186069 96.2846468,28.3186069 C97.0186442,28.3108675 97.7293893,28.5771042 98.2773684,29.0646888 L99.0896485,27.9958723 C98.4114566,27.3712996 97.5077175,27.0431474 96.4187351,27.0431474 Z M58.9802174,27.1437601 L57.4866451,27.1437601 L57.4866451,31.255724 C57.4866451,32.937504 58.5136214,34.1069332 60.5970269,34.1069332 C62.6812074,34.1069332 63.6880317,32.9483392 63.6880317,31.2464366 L63.6880317,27.1437601 L62.1936843,27.1437601 L62.1936843,31.2054176 C62.1936843,32.1581425 61.6433801,32.814447 60.5916013,32.814447 C59.5405977,32.814447 58.9802174,32.1581425 58.9802174,31.2054176 L58.9802174,27.1437601 Z M86.6264192,27.1437601 L81.7713403,27.1437601 L81.7713403,33.9838762 L86.6171183,33.9800064 L86.6171183,32.6991293 L83.2300342,32.6991293 L83.2300342,31.1512415 L86.5465863,31.1512415 L86.5465863,29.8703644 L83.2300342,29.8703644 L83.2300342,28.4254112 L86.6264192,28.4254112 L86.6264192,27.1437601 Z M54.2165975,27.1437601 L50.6124921,27.1437601 L50.6124921,33.9838762 L54.322783,33.9800064 C55.6280117,33.9800064 56.3155046,33.1596259 56.3155046,32.1341503 C56.3155046,31.2758465 55.7365224,30.5676878 55.0079506,30.455466 C55.6543643,30.3231216 56.188392,29.7488552 56.188392,28.8874557 C56.188392,27.9742019 55.5233764,27.1437601 54.2165975,27.1437601 Z M75.7063671,27.1437601 L74.2120197,27.1437601 L74.2120197,33.9838762 L75.6707136,33.9838762 L75.6707136,29.5236375 L78.9368858,33.9838762 L80.3389991,33.9838762 L80.3389991,27.1437601 L78.8810803,27.1437601 L78.8810803,31.4329571 L75.7063671,27.1437601 Z M72.7858791,27.1437601 L71.3271852,27.1437601 L71.3271852,33.9838762 L72.7858791,33.9838762 L72.7858791,27.1437601 Z M29.5451391,29.1985811 L30.0938932,31.0637859 L25.90383,31.0637859 L25.1566563,33.5992261 L18.3111811,33.5992261 L17.5640074,31.0637859 L13.3754943,31.0637859 L13.9242484,29.1985811 L29.5451391,29.1985811 Z M53.9491962,31.1326669 C54.5243029,31.1326669 54.8327833,31.5018381 54.8327833,31.9321509 C54.8327833,32.4212835 54.4987254,32.7215737 53.9491962,32.7215737 L52.0711859,32.7215737 L52.0711859,31.1326669 L53.9491962,31.1326669 Z M53.9530715,28.3874879 C54.363087,28.3874879 54.7002452,28.7241535 54.7002452,29.1335698 C54.6986951,29.5739439 54.3902147,29.8811996 53.8988162,29.8811996 L52.0711859,29.8811996 L52.0711859,28.3898097 L53.8988162,28.3898097 C53.917418,28.3882619 53.9352448,28.3874879 53.9530715,28.3874879 Z M18.4491447,16.0291519 L18.9940234,16.4246372 C18.7421236,16.9369881 18.7909534,17.3974847 19.2443731,17.7295066 L23.0430228,20.4932602 C24.7908202,21.7625282 24.8931303,23.9798775 23.7150141,25.6098033 L21.808326,28.2458562 L21.261122,27.8395356 C21.5672772,27.3527249 21.5168973,26.8868107 20.8712586,26.4208965 L17.1067123,23.7074492 C15.7170002,22.7059658 15.4015441,20.2262496 16.4192195,18.8261851 L18.4491447,16.0291519 Z M21.7060159,3.68474686 L22.183463,4.02296034 C21.5354991,4.93776201 21.9245875,5.9020961 22.7027642,6.46165753 L28.2623876,10.4946791 C30.790687,12.3273783 30.8836961,15.669268 29.2738624,17.930732 L25.6891338,22.965237 L25.2481153,22.6355369 C26.015441,21.6286359 25.8774774,19.6612706 24.8241485,18.8896485 L19.6272609,15.0795227 C17.6012111,13.5881329 17.0617578,10.0976459 18.5444791,8.05056433 L21.7060159,3.68474686 Z M61.0248691,15.2776524 C58.9709165,15.2776524 57.3796845,16.7187359 57.3796845,18.8199936 C57.3796845,20.923573 58.9802174,22.3522735 61.0271943,22.3522735 C62.5354931,22.3522735 63.3981531,21.5241535 63.8911018,20.6735892 L62.6455539,20.0528862 C62.3347483,20.6557885 61.7131369,21.0388907 61.03417,21.0466301 C59.7924975,21.0466301 58.8887584,20.0939052 58.8887584,18.8091583 C58.8887584,17.5244115 59.7924975,16.5716866 61.03417,16.5716866 C61.7100366,16.5879394 62.3254473,16.9718155 62.636253,17.5708481 L63.8895516,16.9555627 C63.3353719,15.8975814 62.220812,15.2443728 61.0248691,15.2776524 Z M68.1524721,15.2776524 C66.0985195,15.2776524 64.5072875,16.7187359 64.5072875,18.8199936 C64.5072875,20.923573 66.1008447,22.3522735 68.1524721,22.3352467 C69.6615459,22.3352467 70.524206,21.5071267 71.0171546,20.6573363 L69.763856,20.0528862 C69.4530503,20.6557885 68.831439,21.0388907 68.1524721,21.0466301 C66.9107996,21.0466301 66.0070605,20.0939052 66.0070605,18.8091583 C66.0070605,17.5244115 66.9107996,16.5716866 68.1524721,16.5716866 C68.831439,16.5848436 69.4515002,16.9687198 69.763856,17.5708481 L71.0171546,16.9555627 C70.462975,15.8975814 69.348415,15.2443728 68.1524721,15.2776524 Z M75.1684641,15.3968397 L71.964298,15.3968397 L71.964298,22.2361819 L73.4222168,22.2361819 L73.4222168,19.8121896 L74.4902722,19.8121896 L75.8350298,22.2361819 L77.5153956,22.2415995 L75.9753187,19.6310867 C76.7093161,19.4654628 77.468891,18.8107062 77.468891,17.6010319 C77.468891,16.3294421 76.5953798,15.3968397 75.1684641,15.3968397 Z M54.3599867,15.3968397 L52.5323564,15.3968397 L49.88237,22.2361819 L51.5464592,22.2361819 L51.9774017,21.0783618 L54.9149414,21.0783618 L55.3350328,22.2361819 L56.999122,22.2361819 L54.3599867,15.3968397 Z M100.073221,15.3968397 L94.6097066,15.3968397 L94.6097066,16.6777169 L96.6132792,16.6777169 L96.6132792,22.2361819 L98.081274,22.2361819 L98.081274,16.6777169 L100.073221,16.6777169 L100.073221,15.3968397 Z M83.4951104,15.3968397 L78.6400315,15.3968397 L78.6400315,22.2361819 L83.4873596,22.2323122 L83.4873596,20.951435 L80.0979503,20.951435 L80.0979503,19.4043212 L83.4145024,19.4043212 L83.4145024,18.1226701 L80.0979503,18.1226701 L80.0979503,16.6777169 L83.4951104,16.6777169 L83.4951104,15.3968397 Z M87.3999455,15.3968397 L84.6995792,15.3968397 L84.6995792,22.2361819 L87.3999455,22.2361819 C89.5414817,22.2361819 91.035054,20.8848758 91.035054,18.8223154 C91.035054,16.7597549 89.5453571,15.3968397 87.3999455,15.3968397 Z M93.6052075,15.3968397 L92.1465137,15.3968397 L92.1465137,22.2361819 L93.6052075,22.2361819 L93.6052075,15.3968397 Z M105.935124,15.3968397 L101.080045,15.3968397 L101.080045,22.2361819 L105.927373,22.2323122 L105.927373,20.951435 L102.537964,20.951435 L102.537964,19.4043212 L105.851415,19.4043212 L105.851415,18.1226701 L102.537964,18.1226701 L102.537964,16.6777169 L105.935124,16.6777169 L105.935124,15.3968397 Z M109.839959,15.3968397 L107.139592,15.3968397 L107.139592,22.2361819 L109.839959,22.2361819 C111.981495,22.2361819 113.475842,20.8848758 113.475842,18.8223154 C113.475842,16.7597549 111.98537,15.3968397 109.839959,15.3968397 Z M109.84926,16.6800387 C111.247498,16.6800387 111.994671,17.6118671 111.994671,18.8223154 C111.986921,19.9801354 111.197118,20.9537569 109.84926,20.9537569 L108.607587,20.9537569 L108.607587,16.6800387 L109.84926,16.6800387 Z M87.4092464,16.6800387 C88.8074843,16.6800387 89.554658,17.6118671 89.554658,18.8223154 C89.5469073,19.9801354 88.7555542,20.9537569 87.4092464,20.9537569 L86.1667989,20.9537569 L86.1667989,16.6800387 L87.4092464,16.6800387 Z M53.4469466,16.8510803 L54.515002,19.793615 L52.3788913,19.793615 L53.4469466,16.8510803 Z M74.9460171,16.6777169 C75.53275,16.6777169 75.9729934,17.0267656 75.9729934,17.6010319 C75.9729934,18.1752983 75.5381755,18.523573 74.9460171,18.523573 L73.4167913,18.523573 L73.4167913,16.6777169 L74.9460171,16.6777169 Z" id="Combined-Shape"></path>
                </g>
            </g>
        </g>
    </g>
</svg>