<?xml version="1.0" encoding="UTF-8"?>
<svg width="147px" height="35px" viewBox="0 0 147 35" version="1.1" xmlns="http://www.w3.org/2000/svg" xmlns:xlink="http://www.w3.org/1999/xlink">
    <title>ezlocal</title>
    <g id="UI" stroke="none" stroke-width="1" fill="none" fill-rule="evenodd" opacity="0.5">
        <g id="homepage" transform="translate(-977, -4605)" fill="#474150">
            <g id="Group-Copy-8" transform="translate(272, 4507)">
                <g id="ezlocal" transform="translate(705, 98)" fill-rule="nonzero">
                    <g id="ezlocal-night">
                        <path d="M141.716776,33.3102467 C144.317113,32.1467693 145.742694,29.5573028 144.987041,27.4410054 C144.964816,27.3761878 144.939416,27.3081292 144.91084,27.2433115 C143.990086,25.0913644 141.072248,24.3200339 138.38936,25.5191611 C135.706473,26.7182883 134.277717,29.4341492 135.195296,31.5860963 C135.344521,31.9361118 135.550897,32.240755 135.795374,32.5162301 C137.059029,33.9292556 139.468865,34.31168 141.716776,33.3102467 Z" id="Path"></path>
                        <path d="M8.46141385,26.1256325 C8.38838852,25.3607839 8.35028834,24.5862125 8.35028834,23.7986777 C10.3505475,23.6333926 11.9952051,23.510239 13.284261,23.4356987 C14.5733169,23.3611583 15.681397,23.3222677 16.6085013,23.3222677 L25.7207931,23.3222677 L25.7207931,22.4796378 C25.7207931,19.9938796 25.3270913,17.8127646 24.5460377,15.9298108 C23.9808851,14.5718803 23.2188816,13.3695123 22.2473272,12.3259476 C19.9295665,9.83694851 16.7958271,8.59244898 12.849284,8.59244898 C8.95989114,8.59244898 5.84520184,9.80129879 3.50839111,12.2222393 C1.16840537,14.6334571 0,17.8516552 0,21.8671107 C0,24.4144457 0.539752478,26.6150061 1.60973239,28.4687918 C2.14948487,29.4021665 2.82258796,30.2512781 3.63221668,31.0064042 C6.0547528,33.2653005 9.34406791,34.3931282 13.500162,34.3931282 C16.776777,34.3931282 19.4533143,33.6250386 21.5234238,32.0888595 C23.2220566,30.8281555 24.3618869,29.1720637 24.9492646,27.1141022 C25.0794402,26.6636193 25.1810406,26.1904502 25.257241,25.7010767 L16.3449751,25.9700701 L16.0782738,28.4979598 L9.24881747,28.3910106 L8.78209033,28.3845288 C8.64238968,27.6423664 8.5376142,26.8904812 8.46141385,26.1256325 Z M9.87429534,14.3806682 L16.6561265,14.244551 L16.7799521,15.6413721 L17.0815784,19.0378188 L10.5505734,19.0378188 L9.87429534,19.0378188 L9.87429534,14.3806682 Z" id="Shape"></path>
                        <path d="M37.9953995,32.7532408 C40.4941359,32.7532408 42.8817469,32.7791678 45.1487073,32.8342629 C47.4188427,32.886117 49.6159528,32.9671391 51.7463876,33.0740883 C51.7463876,32.7402772 51.7432126,32.3772982 51.7336876,31.9883921 C51.7273375,31.599486 51.7241625,31.1068716 51.7241625,30.5137898 C51.7241625,29.5253201 51.7432126,28.7345443 51.7813128,28.1479443 C51.7876628,28.0377542 51.7971878,27.930805 51.8067129,27.8238559 C51.8479881,27.3506868 51.9083134,26.8807586 51.9972138,26.4237939 L42.3451694,26.5923199 L40.2528348,26.6279696 L50.8923087,15.9298108 L50.965334,10.5564248 L50.9843841,9.15636283 C49.1397006,9.20173521 47.0060908,9.23738494 44.5835547,9.26007112 C42.1610186,9.28275731 39.4400311,9.29247997 36.4205922,9.29247997 C34.3377827,9.29247997 32.7915506,9.28275731 31.7818959,9.26007112 C30.7690663,9.23738494 29.835612,9.20173521 28.972008,9.15636283 L28.4608307,15.4955323 C28.7243569,15.476087 28.9910581,15.4566417 29.2545843,15.4371964 C31.146893,15.3010793 33.0455517,15.1941301 34.9505605,15.1163489 C37.1190954,15.0256041 39.2622303,14.97375 41.373615,14.9607864 L39.9162833,16.373812 L27.5305514,28.3974924 L27.441651,32.8472264 C27.6766021,32.8407446 27.9115532,32.8375037 28.1465042,32.8342629 C29.39746,32.8115767 30.6769909,32.7921314 31.9850969,32.7791678 C33.534504,32.7597225 35.5411132,32.7532408 37.9953995,32.7532408 Z" id="Path"></path>
                        <path d="M145.587119,28.3678983 C145.437893,28.0178828 145.231517,27.7099988 144.987041,27.4377646 C145.742694,29.5540619 144.317113,32.1435284 141.716776,33.3070059 C139.468865,34.31168 137.059029,33.9292556 135.795374,32.5129892 C135.820774,32.5778069 135.842999,32.6458655 135.871574,32.7106832 C136.792328,34.8626303 139.710167,35.6339607 142.393054,34.4348336 C145.075941,33.2357064 146.507873,30.5198454 145.587119,28.3678983 Z" id="Path"></path>
                        <path d="M56.185058,32.7949462 C56.2263332,30.9087515 56.2580833,28.9480166 56.2771334,26.9095004 C56.2993585,24.8677434 56.3088836,22.6995918 56.3088836,20.3985641 C56.3088836,17.6502942 56.3025335,15.4238068 56.2930085,13.7191017 C56.2834834,12.0143966 56.2676084,10.3485821 56.2453833,8.71841737 L62.7509881,8.97444722 L62.3287112,24.7802395 L62.5477872,33.1546843 L56.185058,32.7949462 Z" id="Path"></path>
                        <path d="M73.8413141,15.893735 C76.4924512,15.893735 78.6959114,16.8238688 80.4453444,18.6841363 C82.1979524,20.5476447 83.0742565,22.9264537 83.0742565,25.830286 C83.0742565,28.1280729 82.2138275,30.0466763 80.4929696,31.5893372 C78.7721117,33.1319981 76.648027,33.9033286 74.1207154,33.9033286 C71.4473531,33.9033286 69.2788181,33.0380125 67.6151105,31.3041394 C65.9514028,29.5702664 65.119549,27.3016474 65.119549,24.4918008 C65.119549,21.8666846 65.9069526,19.7763143 67.4817599,18.2239308 C69.0597421,16.6715472 71.1774768,15.893735 73.8413141,15.893735 Z M75.9463487,20.2980966 L71.6696041,20.7096889 L70.7964751,28.209095 C71.5680036,28.4748475 72.3903324,28.6693006 73.2698114,28.795695 C74.1492905,28.9253304 75.1144949,28.9869072 76.1654247,28.9869072 L76.5877017,28.9869072 L75.9463487,20.2980966 Z" id="Shape"></path>
                        <path d="M103.038748,26.9645955 C102.838722,29.1521923 102.013218,30.8601383 100.552712,32.0754699 C99.09538,33.2940423 97.1490961,33.9000877 94.7106849,33.9000877 C91.8690468,33.9000877 89.5385861,33.0542169 87.7193028,31.3657162 C85.9031945,29.6739747 84.9919653,27.5123049 84.9919653,24.8742251 C84.9919653,22.1421598 85.814294,19.9610447 87.4589516,18.3341208 C89.1036091,16.7071969 91.3261194,15.893735 94.1264822,15.893735 C96.907795,15.893735 99.085855,16.564598 100.670187,17.9063241 C102.251345,19.2480502 103.067323,21.1083177 103.121299,23.4838858 L97.3618221,23.3574913 L97.0157455,20.0939209 L92.1516231,20.3953232 C92.0881229,21.0013685 92.0436726,21.6527862 92.0182725,22.3560581 C91.9928724,23.0560891 91.9801724,23.869551 91.9801724,24.793203 C91.9801724,25.4737887 91.9992224,26.1640971 92.0341476,26.8641281 C92.0690728,27.564159 92.129398,28.2771536 92.2151234,28.9998707 C92.7898011,29.0646884 93.2501782,29.1100608 93.5994298,29.1359879 C93.9486814,29.161915 94.2534828,29.1748785 94.513834,29.1748785 C94.8376855,29.1748785 95.3996631,29.1359879 96.2029417,29.0646884 C96.3585175,29.0549658 96.479168,29.0420022 96.5648934,29.0322796 L96.7522193,26.9710772 L103.038748,26.9710772 L103.038748,26.9645955 Z" id="Path"></path>
                        <path d="M116.262684,31.8712942 C115.34828,32.519471 114.325925,33.021808 113.198795,33.3718235 C112.071665,33.721839 110.909609,33.9000877 109.715804,33.9000877 C108.052096,33.9000877 106.75034,33.5176633 105.804186,32.7528147 C104.858031,31.987966 104.384954,30.9314377 104.384954,29.5832299 C104.384954,28.5202199 104.61673,27.4961005 105.080283,26.5076308 C105.543835,25.5191611 106.096287,24.8612616 106.740815,24.5306914 C107.372643,24.2130848 108.610899,23.898719 110.449232,23.590835 C112.287566,23.282951 114.427525,23.0398847 116.869112,22.8583952 L116.869112,22.2944813 C116.869112,21.967152 116.859587,21.6527862 116.837361,21.3481431 C116.815136,21.0467409 116.780211,20.7680249 116.729411,20.511995 C115.942007,20.2494834 115.141904,20.0453077 114.325925,19.8929861 C113.506771,19.7471463 112.789218,19.672606 112.17009,19.672606 C112.036739,19.672606 111.909739,19.6758469 111.789088,19.6790878 C111.671613,19.6855695 111.547787,19.6920513 111.423962,19.701774 L111.357286,21.9023343 C110.690533,21.827794 110.08093,21.772699 109.522128,21.7370492 C108.963325,21.7013995 108.436273,21.6819542 107.937796,21.6819542 C107.531394,21.6819542 107.105942,21.6916769 106.65509,21.7046404 C106.207413,21.7208448 105.750211,21.7370492 105.280308,21.7597354 L105.280308,21.4129608 C105.280308,19.8184458 106.112162,18.4994059 107.78222,17.4558412 C109.449103,16.4122765 111.550962,15.8904941 114.087799,15.8904941 C116.789736,15.8904941 118.834446,16.4317218 120.221927,17.5109362 C121.609408,18.5901507 122.301562,20.1846657 122.301562,22.2912404 C122.301562,23.0463665 122.276161,23.953814 122.222186,25.0168241 C122.171386,26.0798341 122.145986,26.7636606 122.145986,27.0715446 C122.145986,27.8266707 122.196786,28.6466144 122.301562,29.5346166 C122.406337,30.4226189 122.612713,31.680082 122.927039,33.303765 C122.634938,33.2810788 122.253936,33.2551517 121.787209,33.2227429 C121.317307,33.1870931 121.031556,33.1708887 120.92678,33.1708887 C120.583879,33.1708887 120.113977,33.2130202 119.520249,33.2972832 C118.926521,33.3815462 118.113717,33.5111816 117.081838,33.6894302 L116.262684,31.8712942 Z M110.808009,29.972136 L115.268904,29.6383249 C115.351455,29.0452431 115.408605,28.5202199 115.446705,28.0664961 C115.48163,27.6127723 115.50068,27.1525667 115.50068,26.6858794 L115.484805,26.1608562 C114.694227,26.2127103 113.906823,26.3099369 113.122594,26.4525358 C112.335191,26.5951347 111.547787,26.7895877 110.757209,27.032654 L110.808009,29.972136 Z" id="Shape"></path>
                        <path d="M125.600402,32.7949462 C125.641677,30.9087515 125.670252,28.9480166 125.692477,26.9095004 C125.714702,24.8677434 125.724227,22.6995918 125.724227,20.3985641 C125.724227,17.6502942 125.717877,15.4238068 125.708352,13.7191017 C125.698827,12.0143966 125.682952,10.3485821 125.660727,8.71841737 L132.166332,8.97444722 L131.744055,24.7802395 L131.963131,33.1546843 L125.600402,32.7949462 Z" id="Path"></path>
                        <path d="M142.621655,16.8562776 C143.469384,17.0248036 144.107562,17.3748191 144.526664,17.909565 C144.945766,18.44107 145.110866,19.1022104 145.018791,19.8929861 C144.91084,20.8166381 144.488563,21.5296326 143.75831,22.0384515 C143.028057,22.5472703 142.145403,22.7352416 141.113523,22.6088471 C140.043543,22.4759708 139.221214,22.10651 138.646537,21.490742 C138.071859,20.8782149 137.840083,20.119848 137.948033,19.2124004 C138.052809,18.3114346 138.398886,17.6340898 138.983088,17.1868478 C139.567291,16.7396058 140.322944,16.564598 141.253224,16.6618246 L140.983347,18.525333 L139.691116,18.4734788 L139.624441,20.064753 C139.859392,20.1133662 140.113393,20.1619795 140.38962,20.2008701 C140.662671,20.2430016 140.980172,20.288374 141.342124,20.3305055 C141.608825,20.3629143 141.881876,20.3920823 142.154928,20.4115276 C142.431154,20.4342138 142.710555,20.4471773 142.999482,20.4569 C143.047107,20.2754105 143.082032,20.1263298 143.104257,20.0161397 C143.129657,19.9059497 143.145532,19.8054822 143.155057,19.7212193 C143.167757,19.6142701 143.174107,19.4327806 143.177282,19.1702689 C143.180457,19.1216557 143.180457,19.0795242 143.177282,19.0535971 L142.380354,18.8947938 L142.621655,16.8562776 Z" id="Path"></path>
                        <path d="M138.697337,12.8732309 C138.798937,12.0143966 139.246614,11.3435336 140.043543,10.8638827 C140.837297,10.3842319 141.805676,10.2157059 142.939156,10.3550639 C143.84086,10.465254 144.558414,10.8379556 145.094991,11.4731689 C145.631569,12.1051414 145.85382,12.8310994 145.755394,13.654284 C145.653794,14.522841 145.231517,15.1839814 144.488563,15.640946 C143.74561,16.0979107 142.828031,16.256714 141.726301,16.1205969 C140.700771,15.9942024 139.910192,15.6377052 139.36409,15.0511051 C138.817987,14.4612642 138.595736,13.7353061 138.697337,12.8732309 Z M140.49757,12.4000618 L140.494395,13.8033647 L143.402708,14.4515415 C143.536059,14.214957 143.64401,13.9589271 143.729735,13.6769702 C143.812285,13.3982542 143.875786,13.0871293 143.913886,12.7468364 L143.929761,12.6107193 L140.49757,12.4000618 Z" id="Shape"></path>
                        <path d="M145.84747,9.88513568 C145.479168,9.80735446 145.082291,9.73605501 144.647314,9.66799644 C144.215512,9.59993787 143.65671,9.52215665 142.967731,9.43789366 C142.218428,9.34714891 141.577075,9.27260857 141.043673,9.21751354 C140.513445,9.16241851 140.021318,9.11704613 139.573641,9.0813964 L139.773667,7.3993775 L140.557895,7.45447253 C140.199119,7.18872002 139.935593,6.87111337 139.767317,6.50165257 C139.599041,6.13219177 139.535541,5.74652655 139.583166,5.34465691 C139.627616,4.96547346 139.776842,4.6478668 140.030843,4.38535518 C140.281669,4.12284356 140.602346,3.95755847 140.992872,3.8894999 C140.624571,3.65939712 140.35787,3.36123577 140.199119,3.00149763 C140.040368,2.63851859 139.989568,2.21396276 140.046718,1.72134836 C140.122918,1.09585771 140.380095,0.638893038 140.818247,0.343972575 C141.259574,0.0490521124 141.846951,-0.0578970664 142.583555,0.0296068072 L147,0.531943859 L146.682499,2.5769418 C146.526923,2.54777384 146.349122,2.51860588 146.155446,2.49267881 C145.96177,2.46675173 145.666494,2.42786112 145.266442,2.37600697 C145.187067,2.36628432 145.028316,2.3500799 144.79019,2.32739371 C144.552064,2.30146664 144.209162,2.2690578 143.761485,2.23016718 L142.100953,2.11673624 L141.894577,3.53624352 L146.438022,4.10663914 C146.355472,4.4631364 146.288797,4.78074306 146.237997,5.05297733 C146.184021,5.32845249 146.145921,5.55855527 146.123696,5.74652655 C146.117346,5.80810335 146.107821,5.89560722 146.101471,6.00903817 C146.095121,6.12246912 146.088771,6.20997299 146.079246,6.27154979 L141.818376,5.7562492 L141.704076,7.25029682 C141.961252,7.30215097 142.234303,7.35076423 142.526404,7.39613661 C142.818506,7.44150899 143.142357,7.48364049 143.504309,7.52901287 L144.028186,7.59383055 C144.158362,7.6035532 144.301238,7.61651674 144.453638,7.62948028 C144.606039,7.6456847 144.83464,7.67161177 145.145791,7.71050238 C145.383918,7.73967034 145.561718,7.76235653 145.679194,7.77856095 C145.796669,7.79476537 145.90462,7.81096979 145.99987,7.82717421 C145.95542,8.33923392 145.920495,8.75082621 145.901445,9.05871021 C145.882395,9.36335333 145.863345,9.63882849 145.84747,9.88513568 Z" id="Path"></path>
                    </g>
                </g>
            </g>
        </g>
    </g>
</svg>