<?xml version="1.0" encoding="UTF-8"?>
<svg width="113px" height="26px" viewBox="0 0 113 26" version="1.1" xmlns="http://www.w3.org/2000/svg" xmlns:xlink="http://www.w3.org/1999/xlink">
    <title>manta</title>
    <g id="UI" stroke="none" stroke-width="1" fill="none" fill-rule="evenodd" opacity="0.5">
        <g id="homepage" transform="translate(-1266, -4609)" fill="#474150">
            <g id="Group-Copy-8" transform="translate(272, 4507)">
                <g id="manta" transform="translate(994, 102)" fill-rule="nonzero">
                    <g id="manta_logo_coral">
                        <path d="M101.045258,12.4375773 C99.3188239,12.4375773 97.9507063,13.8195303 97.9507063,15.4907293 C97.9507063,17.1940667 99.3513981,18.5438813 101.045258,18.5438813 C102.771692,18.5438813 104.13981,17.1619283 104.13981,15.4907293 C104.13981,13.8195303 102.771692,12.4375773 101.045258,12.4375773 M112.511387,5.1421508 L112.055347,6.33127318 L111.599308,5.1421508 L111.07812,5.1421508 L111.07812,6.81334981 L111.403863,6.81334981 L111.403863,5.49567367 L111.403863,5.49567367 L111.92505,6.81334981 L112.15307,6.81334981 L112.674258,5.49567367 L112.674258,5.49567367 L112.674258,6.81334981 L113,6.81334981 L113,5.1421508 L112.511387,5.1421508 Z M89.4814067,20.5364648 L88.1132891,20.5364648 C85.3444797,20.5364648 83.0968579,18.3189122 83.0968579,15.5871446 L83.0968579,10.605686 L89.3836841,10.605686 C89.8722975,10.605686 90.2631882,10.2200247 90.2631882,9.73794808 L90.2631882,6.00988875 C90.2631882,5.52781211 89.8722975,5.1421508 89.3836841,5.1421508 L83.0968579,5.1421508 L83.0968579,0.867737948 C83.0968579,0.38566131 82.7059671,0 82.2173537,0 L78.4713174,0 C77.9827039,0 77.5918132,0.38566131 77.5918132,0.867737948 L77.5918132,15.5550062 C77.5918132,21.3077874 82.3150764,25.9678616 88.1458634,25.9678616 L89.513981,25.9678616 C90.0025944,25.9678616 90.3934852,25.5822002 90.3934852,25.1001236 L90.3934852,21.4363412 C90.3934852,20.9221261 90.0025944,20.5364648 89.4814067,20.5364648 M108.309311,22.6897404 C107.91842,23.0754017 107.29951,23.0754017 106.908619,22.6897404 L103.846642,19.6687268 C101.859614,20.986403 99.188527,20.7614339 97.4295186,19.0580964 C95.4424906,17.0976514 95.4424906,13.9480841 97.4295186,11.9876391 C99.4165466,10.0271941 102.608821,10.0271941 104.595849,11.9876391 C106.322283,13.6909765 106.550303,16.3584672 105.214759,18.3189122 L108.276737,21.3399258 C108.700202,21.6934487 108.700202,22.3040791 108.309311,22.6897404 M108.569905,8.09888752 C104.432978,4.01730532 97.6901124,4.01730532 93.5531854,8.09888752 C89.4162583,12.1804697 89.4162583,18.8331273 93.5531854,22.9147095 C95.6053618,24.9394314 98.2764485,25.9357231 100.947535,25.9678616 L110.784952,25.9678616 C111.273566,25.9678616 111.664457,25.5822002 111.664457,25.1001236 L111.664457,15.394314 C111.631882,12.7589617 110.589507,10.091471 108.569905,8.09888752 M65.8650908,5.01359703 C59.9040069,4.91718171 55.0504468,9.8986403 55.0504468,15.7799753 L55.0504468,25.1001236 C55.0504468,25.5822002 55.4413376,25.9678616 55.929951,25.9678616 L59.7085615,25.9678616 C60.197175,25.9678616 60.5880657,25.5822002 60.5880657,25.1001236 L60.5880657,15.4907293 C60.5880657,12.6304079 63.0637071,10.31644 65.9953877,10.5092707 C68.6990487,10.7021014 70.7186509,13.0160692 70.7186509,15.68356 L70.7186509,25.1322621 C70.7186509,25.6143387 71.1095417,26 71.5981551,26 L75.3767656,26 C75.8653791,26 76.2564396,25.6143387 76.2564396,25.1322621 L76.2564396,15.4907293 C76.288844,9.77008653 71.6307293,5.11001236 65.8650908,5.01359703 M21.1732488,5.01359703 C18.9582012,5.1421508 16.9711732,6.13844252 15.4727587,7.58467244 C13.6811761,5.84919654 11.2055347,4.82076638 8.46929951,5.01359703 C3.64831364,5.33498146 0,9.51297899 0,14.2694685 L0,25.1001236 C0,25.5822002 0.390890747,26 0.912078409,26 L4.6255405,26 C5.11415393,26 5.53761891,25.6143387 5.53761891,25.1001236 L5.53761891,14.2051916 C5.53761891,12.276885 7.00345921,10.5735476 8.92533871,10.4771323 C11.0100894,10.3807169 12.7039493,11.9876391 12.7039493,14.0123609 L12.7039493,25.1001236 C12.7039493,25.5822002 13.09484,26 13.6160277,26 L17.3294898,26 C17.8181032,26 18.2415682,25.6143387 18.2415682,25.1001236 L18.2415682,14.2051916 C18.2415682,12.276885 19.7074085,10.5735476 21.629288,10.4771323 C23.7140386,10.3807169 25.4078985,11.9876391 25.4078985,14.0123609 L25.4078985,25.1001236 C25.4078985,25.5822002 25.7987893,26 26.3199769,26 L30.033439,26 C30.5220525,26 30.9455174,25.6143387 30.9455174,25.1001236 L30.9455174,13.9802225 C30.880369,8.80593325 26.4828481,4.69221261 21.1732488,5.01359703 M109.905448,6.81334981 L110.231191,6.81334981 L110.231191,5.39925834 L110.752378,5.39925834 L110.752378,5.1421508 L109.384261,5.1421508 L109.384261,5.39925834 L109.905448,5.39925834 L109.905448,6.81334981 L109.905448,6.81334981 Z M46.3531277,19.0580964 C44.3660997,21.0185414 41.1738253,21.0185414 39.1867973,19.0580964 C37.1997694,17.0976514 37.1997694,13.9480841 39.1867973,11.9876391 C41.1738253,10.0271941 44.3660997,10.0271941 46.3531277,11.9876391 C48.3401557,13.9159456 48.3401557,17.0976514 46.3531277,19.0580964 M50.2620352,8.09888752 C46.1251081,4.01730532 39.3822427,4.01730532 35.2453157,8.09888752 C31.1083886,12.1804697 31.1083886,18.8331273 35.2453157,22.9147095 C37.2974921,24.9394314 39.9685788,25.9357231 42.6396656,25.9678616 L52.4770827,25.9678616 C52.9656962,25.9678616 53.3565869,25.5822002 53.3565869,25.1001236 L53.3565869,15.394314 C53.3565869,12.7589617 52.3142116,10.1236094 50.2620352,8.09888752" id="Shape"></path>
                    </g>
                </g>
            </g>
        </g>
    </g>
</svg>