<?xml version="1.0" encoding="UTF-8"?>
<svg width="112px" height="42px" viewBox="0 0 112 42" version="1.1" xmlns="http://www.w3.org/2000/svg" xmlns:xlink="http://www.w3.org/1999/xlink">
    <title>Combined Shape</title>
    <g id="UI" stroke="none" stroke-width="1" fill="none" fill-rule="evenodd" opacity="0.5">
        <g id="homepage" transform="translate(-272, -4602)" fill="#000000">
            <g id="Group-Copy-8" transform="translate(272, 4507)">
                <path d="M90.6809121,119.613445 L92.5102143,119.197899 C92.5484166,119.189242 92.6130666,119.174813 92.6894712,119.150285 C93.7396833,118.873768 94.3782386,117.830158 94.1338118,116.789755 L94.1264652,116.758012 C94.0659944,116.518192 93.9603431,116.291608 93.8149696,116.089964 C93.6101392,115.834647 93.3566105,115.620969 93.0685555,115.460875 C92.7294275,115.271115 92.3745433,115.109899 92.0077072,114.978957 L90.0020868,114.258967 C88.8765884,113.84775 87.7510901,113.448076 86.6138372,113.057059 C85.8777083,112.800228 85.2532478,112.573698 84.7110691,112.407769 C84.6078729,112.379727 84.5054725,112.348935 84.4039814,112.315425 C83.7486651,112.119195 83.287299,112.036952 82.8979294,112.034066 C82.6376903,112.024554 82.3784655,112.070837 82.1382915,112.169696 C81.8873632,112.276371 81.6620891,112.433682 81.477098,112.631413 C81.3853227,112.733728 81.299007,112.840643 81.2184978,112.951729 C81.0619607,113.187896 80.9328362,113.440528 80.8335362,113.704906 C80.4609144,114.785653 80.275172,115.920035 80.2840109,117.061014 C80.2913575,118.09122 80.3192746,119.414329 80.896717,120.311792 C81.0363023,120.542651 81.2229058,120.741766 81.4447729,120.896153 C81.8561823,121.174626 82.2705302,121.212141 82.7039793,121.242441 C83.3504797,121.28717 83.9749403,121.132783 84.5994008,120.98994 L90.6765042,119.612002 L90.6809121,119.613445 Z M111.089753,110.077539 C110.590408,109.048265 109.918935,108.108447 109.103234,107.297135 C108.99782,107.193952 108.884872,107.098469 108.76529,107.011447 C108.654805,106.930073 108.54004,106.854459 108.42147,106.784917 C108.299388,106.719239 108.173828,106.659997 108.045324,106.607445 C107.791648,106.509502 107.519773,106.465252 107.247484,106.477587 C106.987414,106.492015 106.733222,106.564159 106.502539,106.683917 C106.15431,106.854175 105.776695,107.12832 105.274188,107.585708 C105.20513,107.653523 105.118441,107.729995 105.039097,107.802138 C104.626219,108.184498 104.164853,108.656315 103.616797,109.204605 C102.768999,110.045796 101.935896,110.891316 101.10573,111.74405 L99.6217182,113.256174 C99.3507296,113.531969 99.1039839,113.829781 98.8841201,114.146423 C98.6958754,114.414368 98.5626214,114.715775 98.4918119,115.033786 C98.4520782,115.278086 98.4580532,115.527454 98.5094437,115.769648 L98.5167903,115.801391 C98.7605387,116.840673 99.7983745,117.503951 100.864762,117.301972 C100.926531,117.293428 100.987828,117.28187 101.048427,117.267344 L108.956302,115.472417 C109.580762,115.331017 110.21257,115.201159 110.77238,114.880842 C111.148526,114.668741 111.50557,114.456639 111.750947,114.029551 C111.88165,113.794309 111.960731,113.534794 111.983099,113.267717 C112.105052,112.208653 111.542303,111.006745 111.089753,110.077539 Z M96.9328645,113.342746 C97.5058989,112.635742 97.5058989,111.582449 97.5558557,110.719615 C97.7292353,107.841096 97.9099616,104.962577 98.0554242,102.082615 C98.109789,100.991808 98.2288038,99.9154292 98.1626845,98.8159648 C98.1083197,97.9098446 98.1024424,96.8680949 97.5191227,96.1235757 C96.4905994,94.810567 94.2954369,94.918782 92.7982008,95.1236691 C92.3363288,95.1863196 91.8778456,95.2710686 91.4243875,95.3776136 C90.9688987,95.4843857 90.5163484,95.6012579 90.0755527,95.741216 C88.6385587,96.2029333 86.6182451,97.0513389 86.2773631,98.6774496 C86.083413,99.5965557 86.5418405,100.535862 86.8944771,101.37561 C87.3249876,102.391388 87.9112458,103.307609 88.4460779,104.264229 C89.8610321,106.790689 91.3009648,109.30272 92.7364894,111.816193 C93.1669999,112.566484 93.632774,113.51589 94.4629392,113.905464 C94.5187733,113.92855 94.5746075,113.94875 94.6319109,113.967508 C95.0036486,114.106023 95.41065,114.131994 95.7970809,114.043979 L95.8661389,114.029551 C96.2246527,113.932879 96.5479029,113.740977 96.8020951,113.476933 C96.8491133,113.433647 96.8917235,113.390361 96.9343338,113.342746 L96.9328645,113.342746 Z M96.2466925,121.049097 C95.7879141,120.415351 94.9660055,120.143402 94.2102164,120.375278 C94.1235378,120.403312 94.0390702,120.437552 93.9574935,120.477722 C93.8312316,120.54096 93.7107868,120.614823 93.5975103,120.69848 C93.2740552,120.948768 92.9851156,121.239296 92.7379587,121.562758 C92.674778,121.642115 92.6160053,121.747445 92.5396007,121.816702 L91.2671704,123.533713 C90.5472041,124.497548 89.8345844,125.462826 89.1307806,126.442533 C88.6694144,127.075951 88.2726983,127.611255 87.9567947,128.083072 C87.898022,128.17253 87.8363106,128.270645 87.7804764,128.351445 C87.4028615,128.92282 87.1898102,129.341252 87.0796113,129.713511 C86.9972906,129.960815 86.9712096,130.22284 87.0032067,130.481116 C87.0384704,130.74949 87.1310374,131.007763 87.2735614,131.240064 C87.349966,131.355494 87.4322478,131.468037 87.520407,131.576252 C87.7108265,131.791484 87.9252165,131.985075 88.1595607,132.153399 C89.0382135,132.753631 89.9991481,133.185048 91.0100396,133.518351 C91.8519594,133.792495 92.7262042,133.956982 93.6107342,134.00604 C93.7620741,134.013254 93.9134139,134.010368 94.0632845,133.997382 C94.2022557,133.984619 94.3405285,133.965359 94.4776324,133.939668 C94.6148075,133.908314 94.750178,133.869783 94.8831645,133.824238 C95.1417192,133.729098 95.3770055,133.58162 95.5737444,133.391378 C95.7603479,133.208134 95.9043412,132.987376 95.9939696,132.743531 C96.1409015,132.382815 96.2378766,131.926869 96.3025266,131.248721 C96.3069346,131.152049 96.3216278,131.03662 96.331913,130.931291 C96.3818698,130.368573 96.4053789,129.704854 96.4406426,128.928592 C96.5038233,127.732455 96.5523108,126.54209 96.5905131,125.34884 L96.672795,123.22494 C96.6918961,122.737251 96.6757336,122.194733 96.5376176,121.708487 C96.4768934,121.474922 96.3786892,121.252339 96.2466925,121.049097 Z M110.606347,124.372019 C110.34187,124.084888 109.965724,123.800644 109.372119,123.448584 C109.286899,123.40097 109.185516,123.338926 109.092948,123.284098 C108.599257,122.991196 108.004183,122.685308 107.309195,122.314491 C106.241,121.737344 105.172805,121.177512 104.092856,120.620566 L102.187149,119.627873 C102.088705,119.599016 101.988791,119.529758 101.894755,119.48503 C101.528318,119.301224 101.139121,119.164935 100.736931,119.079584 C100.598384,119.053317 100.457788,119.038835 100.316706,119.03627 C100.225356,119.03583 100.13407,119.041131 100.043413,119.05217 C99.26086,119.170832 98.6444732,119.76972 98.515321,120.536879 C98.487404,120.774952 98.4962199,121.015911 98.5432381,121.249656 C98.6358052,121.748887 98.8620803,122.240905 99.0971713,122.672322 L100.11394,124.546606 C100.681097,125.602784 101.254132,126.653191 101.841859,127.700712 C102.220944,128.383188 102.536847,128.967549 102.83218,129.452352 C102.888014,129.543253 102.951195,129.641368 102.999683,129.726497 C103.359666,130.307972 103.647652,130.67446 103.940047,130.938505 C104.334381,131.310989 104.877602,131.49092 105.42112,131.42908 C105.56094,131.412352 105.699745,131.38827 105.836938,131.356936 C106.118017,131.283045 106.389627,131.178002 106.646532,131.043834 C107.419925,130.618134 108.132806,130.09419 108.76676,129.485538 C109.527867,128.749676 110.200815,127.947443 110.723893,127.029779 C110.797358,126.899921 110.85907,126.765735 110.911965,126.625777 C110.961204,126.497618 111.003868,126.367115 111.039796,126.23476 C111.070652,126.09913 111.094161,125.963501 111.110323,125.826429 C111.136676,125.557029 111.10514,125.285198 111.017756,125.028523 C110.931495,124.782197 110.791029,124.557557 110.606347,124.370576 L110.606347,124.372019 Z M44.9792142,106.14717 C44.9792142,104.603303 46.258991,103.342238 47.8047146,103.342238 C49.3283984,103.342238 50.565565,104.603303 50.6316843,106.170256 L50.6316843,128.064315 C50.6316843,129.608182 49.3504382,130.869247 47.8047146,130.869247 C47.0500909,130.868902 46.3269298,130.572296 45.7962358,130.045465 C45.2655418,129.518634 44.9713698,128.805313 44.9792142,128.064315 L44.9792142,106.14717 Z M42.3506025,119.671159 C42.3285627,120.105462 42.2183638,120.910582 41.6453294,121.497829 C41.0267461,122.128361 40.1877649,122.279862 39.7014203,122.279862 C37.6811067,122.291405 35.6607931,122.297177 33.6404795,122.301505 C31.6201659,122.307277 29.5998523,122.313048 27.5795386,122.323148 C27.7558569,122.867109 28.1084935,123.693872 28.9033951,124.454262 C29.3882703,124.911651 29.8525751,125.171367 30.0524025,125.281025 C30.2948401,125.432526 31.1338213,125.868272 32.1711605,125.868272 C33.2760884,125.868272 34.2473082,125.519098 35.1979576,125.041509 L35.2758315,125.001109 C35.9370251,124.664921 36.6173198,124.318633 37.3387554,124.193103 C38.0440285,124.084888 38.7963198,124.214746 39.3473145,124.693778 C40.0099773,125.259382 40.2759241,126.084702 40.0320171,126.933107 C39.7454999,127.889728 38.9285585,128.71649 38.0675376,129.215722 C37.5747628,129.498909 37.0575184,129.738873 36.521814,129.932827 C35.1552225,130.409013 33.7101636,130.630677 32.260789,130.586446 C31.9081524,130.586446 31.5320067,130.586446 31.1558611,130.54316 C30.7591449,130.499874 30.3624288,130.411859 29.9862832,130.325287 C29.3764776,130.195417 28.7835333,129.998423 28.2186924,129.73804 C27.6536451,129.492041 27.1138982,129.193446 26.6068495,128.846348 C26.1011118,128.489389 25.6285908,128.089111 25.1948339,127.650212 C24.7634965,127.205856 24.3717151,126.726032 24.0237867,126.216003 C22.832169,124.432619 22.279705,122.236576 22.389904,120.105462 C22.4780631,118.019077 23.1848055,115.931249 24.4660517,114.235881 C24.6041677,114.022336 24.7643235,113.841978 24.9156633,113.67172 C24.9817827,113.596691 25.0464327,113.524547 25.1066748,113.452404 C26.687662,111.553592 28.8005427,110.953359 29.6718489,110.705186 L29.7203364,110.690757 C31.4887279,110.197675 33.3619774,110.197675 35.1303689,110.690757 C35.5505942,110.800415 37.9132591,111.51752 39.7454999,113.452404 C39.833659,113.538976 40.077566,113.821778 40.386123,114.235881 C41.1698418,115.283894 41.7455628,116.467471 42.0831864,117.724732 L42.0861251,117.736275 C42.2183638,118.213864 42.3506025,118.86604 42.3506025,119.669717 L42.3506025,119.671159 Z M29.3897396,116.084193 C28.5179113,116.780444 27.9111067,117.745445 27.6676978,118.822754 L37.2946758,118.822754 C37.0348931,117.746372 36.422097,116.783651 35.5505942,116.08275 C34.6727351,115.391466 33.5843251,115.008948 32.459147,114.996271 C31.339893,115.007185 30.2574235,115.390163 29.3882703,116.08275 L29.3897396,116.084193 Z M65.9992917,110.321384 C63.4823482,110.321384 61.1858027,111.430948 59.5519199,113.235974 L59.5519199,113.169602 C59.4837665,111.661482 58.1968132,110.485568 56.6601201,110.527311 C55.123427,110.569053 53.9046394,111.813032 53.9213169,113.322546 L53.9213169,134.216698 C53.9179652,134.954677 54.2144379,135.663535 54.7451504,136.186047 C55.275863,136.708559 55.9969442,137.001533 56.7484593,136.999994 C57.49972,137.001149 58.2204226,136.708005 58.7508166,136.185534 C59.2812107,135.663064 59.5774822,134.954427 59.5739597,134.216698 L59.5739597,127.693498 C61.2078424,129.476881 63.4823482,130.608089 66.0213315,130.608089 C71.0787274,130.608089 75.185474,126.106345 75.185474,120.496479 C75.1634342,114.888056 71.0566877,110.321384 65.9992917,110.321384 Z M64.7635944,126.063059 C61.8925451,126.063059 59.5519199,123.605857 59.5519199,120.541208 C59.5519199,117.453473 61.8705053,114.996271 64.7635944,114.996271 C67.6331744,114.996271 69.9737996,117.453473 69.9737996,120.541208 C69.9517598,123.605857 67.6331744,126.063059 64.7635944,126.063059 L64.7635944,126.063059 Z M18.1509187,121.953774 L17.2237784,123.95503 C16.8035531,124.823636 16.3833279,125.715328 15.9866118,126.607019 L15.6031195,127.443882 C13.8369981,131.299222 11.7432185,135.875995 7.1765751,136.847044 C4.96818865,137.326076 1.63430385,136.6739 0.397137262,134.629358 C-0.838560012,132.564616 0.993680773,130.193986 3.35634571,130.737947 C3.72955274,130.818747 4.09541317,130.997663 4.46568155,131.179464 C5.08132621,131.482466 5.70578679,131.786911 6.38167352,131.651281 C7.0222966,131.543066 7.41901273,131.085677 7.9273971,130.498431 C8.63267022,129.694754 8.94269653,128.846348 9.07493524,128.345674 L9.04261022,128.270645 C9.03237041,128.244729 9.02109693,128.219219 9.00881588,128.194173 C8.43431216,127.14088 7.93180506,126.200131 7.51304915,125.413769 C7.27762938,124.969715 7.04008685,124.52675 6.80042944,124.084888 L5.83802549,122.289962 C5.13275238,120.976954 5.01520686,120.760524 4.70371123,120.193477 C4.01699876,118.920664 3.2952984,117.666352 2.53940435,116.431924 C1.72246299,115.082843 0.883481849,113.583705 1.5681845,111.995109 C2.10176501,110.71989 3.54135719,110.058837 4.88002951,110.474327 C6.30086098,110.897087 6.93119883,112.225967 7.51892642,113.466833 C7.62618671,113.69192 7.73050836,113.914121 7.83923796,114.126223 C8.78841803,115.974535 9.71555832,117.822847 10.6426986,119.671159 C10.7249805,119.854403 10.8484033,120.104019 11.0012124,120.409907 C11.1363898,120.681166 11.2936069,120.997154 11.45964,121.344885 L11.7050162,121.847002 C11.800522,122.043232 11.8842732,122.210605 11.9459846,122.344791 C12.376495,121.291499 12.8128828,120.242535 13.2478012,119.192128 C13.6841889,118.143164 14.1205767,117.0942 14.5510871,116.039464 C14.5628417,115.981749 14.665694,115.756662 14.8214418,115.417589 C14.9522112,115.130458 15.1197136,114.762527 15.3019091,114.344096 L15.4885126,113.901136 C16.0615471,112.530412 16.752127,110.881216 18.2831574,110.431041 C19.3970334,110.113607 20.5934432,110.523567 21.2644056,111.452591 C21.5950024,111.908537 21.7272411,112.430855 21.7492809,112.953172 C21.7669127,114.107466 21.1997556,115.345445 20.7119417,116.407395 C20.5943961,116.667111 20.4797893,116.915284 20.3813449,117.149029 L20.3225721,117.276001 C20.1873948,117.574674 19.820065,118.382679 19.1882579,119.714445 C18.9605134,120.190591 18.7415849,120.669623 18.5197177,121.152983 L18.1509187,121.953774 Z" id="Combined-Shape" fill-rule="nonzero"></path>
            </g>
        </g>
    </g>
</svg>