<?xml version="1.0" encoding="UTF-8"?>
<svg width="119px" height="36px" viewBox="0 0 119 36" version="1.1" xmlns="http://www.w3.org/2000/svg" xmlns:xlink="http://www.w3.org/1999/xlink">
    <title>yp.ca</title>
    <g id="UI" stroke="none" stroke-width="1" fill="none" fill-rule="evenodd" opacity="0.5">
        <g id="homepage" transform="translate(-526, -4604)" fill="#474150">
            <g id="Group-Copy-8" transform="translate(272, 4507)">
                <g id="yp.ca" transform="translate(254, 97)" fill-rule="nonzero">
                    <path d="M48.7262458,5.69943986 L51.7358285,5.69943986 C51.7358285,5.69943986 52.4882241,5.69943986 52.1872659,6.29938089 C50.9834328,9.44907134 49.6291206,12.748747 49.1776832,15.8984375 C49.0272041,16.6483638 49.3281624,17.2483048 49.6291206,17.6982606 C50.8329537,18.8981427 53.3910989,17.3982901 54.8958902,15.7484522 C56.2502024,14.0986144 57.002598,11.8488355 57.6045146,9.74904186 C57.9054728,8.99911556 58.2064311,7.34927771 58.3569102,6.44936615 C58.4973574,5.88942119 59.1621408,5.85209152 59.2501543,5.84960288 L62.720805,5.84942512 C63.3227215,5.84942512 63.1722424,6.29938089 63.1722424,6.29938089 L58.8083476,20.5479805 C59.8617015,20.3979953 60.9150555,20.24801 61.9684094,20.24801 L62.2693676,20.24801 L66.6332624,6.29938089 C66.6332624,5.99941038 67.0846998,5.69943986 67.3856581,5.84942512 L70.8466781,5.84942512 C71.1476364,5.84942512 71.4485946,5.99941038 71.2981155,6.44936615 C70.9971572,7.04930719 70.8466781,7.94921875 70.8466781,7.94921875 C72.5019485,6.59935141 74.3076981,6.14939564 75.361052,6.14939564 C80.4773425,6.14939564 81.6811755,10.1989976 81.6811755,13.1987028 C81.6811755,17.9982311 77.1668016,24.1476268 71.5990737,24.1476268 C70.5457198,24.1476268 69.642845,23.9976415 68.5894911,23.8476562 C67.8370955,23.697671 66.9342207,23.5476857 66.0313459,23.5476857 C65.6551481,24.6725752 65.3834496,25.901621 65.042085,27.1480263 L64.8275129,27.8972582 C64.8275129,28.1972288 64.6770337,28.4971993 64.5265546,28.7971698 C64.3760755,29.3971108 64.1419968,30.2470273 63.8967716,31.1191638 L63.6951152,31.8330681 C63.2703509,33.3311595 62.8712842,34.710225 62.8712842,34.7965802 C62.8712842,35.0965507 62.5703259,35.246536 62.4198468,35.246536 L58.2064311,35.246536 C58.055952,34.9465654 57.9054728,34.6465949 57.9054728,34.4966097 C57.9054728,34.4670671 58.0397502,34.0069195 58.2554079,33.2869453 L58.3605281,32.9368221 C58.6368116,32.0185005 59.0106069,30.7892355 59.4006543,29.5113746 L59.5887923,28.8953438 C60.469488,26.0131459 61.3664928,23.0977299 61.3664928,23.0977299 C60.1626598,23.0977299 58.8083476,23.0977299 58.055952,23.3977005 C55.9492441,32.5468013 53.541578,35.5465065 47.5224128,35.5465065 C45.2652258,35.5465065 42.1051641,34.6465949 42.1051641,31.0469487 C42.1051641,27.4473025 44.5128302,23.9976415 54.2939737,21.2979068 C54.4444528,20.8479511 54.594932,20.3979953 54.7454111,19.7980542 L55.0463693,18.8981427 C53.2406198,20.24801 51.1339119,20.9979363 48.876725,20.9979363 C47.2214545,20.9979363 44.8137884,19.648069 44.8137884,17.0983196 C44.8137884,16.7983491 44.8137884,16.4983785 44.9642676,16.0484228 C45.7166632,12.748747 46.619538,9.44907134 47.8233711,6.29938089 C48.1243293,5.5494546 48.7262458,5.69943986 48.7262458,5.69943986 Z M69.9438033,32.6967865 L69.9438033,34.7965802 L69.642845,34.7965802 L69.642845,32.8467718 L69.4923659,33.2967276 L68.8904494,34.9465654 L68.7399703,34.9465654 L68.1380537,33.2967276 L67.9875746,32.9967571 L67.9875746,34.9465654 L67.8370955,34.9465654 L67.8370955,32.8467718 L68.2885329,32.8467718 L68.7399703,34.3466244 L68.8904494,34.6465949 L69.0409285,34.3466244 L69.4923659,32.6967865 L69.9438033,32.6967865 Z M67.5361372,32.6967865 L67.5361372,32.8467718 L66.7837416,32.8467718 L66.7837416,34.7965802 L66.4827833,34.7965802 L66.4827833,32.8467718 L65.7303876,32.8467718 L65.7303876,32.6967865 L67.5361372,32.6967865 Z M53.541578,24.1476268 C51.7358285,24.5975825 50.2310372,25.0475383 49.0272041,25.6474794 C44.0613928,28.0472435 45.8671424,32.2468308 48.2748085,32.2468308 C50.9834328,32.2468308 52.1872659,28.7971698 53.2406198,25.4974941 C53.2406198,25.1975236 53.3910989,25.0475383 53.3910989,24.7475678 L53.541578,24.1476268 Z M82.7345294,20.24801 C83.7878834,20.24801 84.540279,21.1479216 84.540279,22.0478331 C84.540279,23.0977299 83.7878834,23.8476562 82.7345294,23.8476562 C81.6811755,23.8476562 80.9287799,23.0977299 80.9287799,22.0478331 C80.9287799,21.0504312 81.6078169,20.3237526 82.57884,20.2535782 L82.7345294,20.24801 Z M74.6086564,8.99911556 C72.2009903,8.99911556 69.642845,11.548865 69.1914077,12.5987618 C68.7399703,13.6486586 66.7837416,20.6979658 66.7837416,20.6979658 C67.3856581,20.6979658 67.9875746,20.8479511 68.439012,20.8479511 C69.0409285,20.9979363 69.642845,20.9979363 70.2447616,20.9979363 C74.3076981,20.9979363 76.7153642,16.4983785 76.7153642,13.1987028 C76.8658433,10.9489239 76.5648851,8.99911556 74.6086564,8.99911556 Z M101.995858,17.5482753 C101.243463,20.9979363 98.3843591,23.8476562 93.8699851,23.8476562 C88.7536947,23.8476562 85.2926747,20.0980248 85.2926747,14.6985554 C85.2926747,9.44907134 88.9041738,5.5494546 94.0204643,5.5494546 C98.2338799,5.5494546 101.092983,7.79923349 102.146337,11.548865 L98.3843591,12.2987913 C97.6319634,10.0490124 96.1271721,8.99911556 94.1709434,8.99911556 C91.7632773,8.99911556 89.5060903,10.7989387 89.5060903,14.6985554 C89.5060903,18.5981722 91.7632773,20.3979953 94.1709434,20.3979953 C96.2776512,20.3979953 97.9329217,18.8981427 98.5348382,16.7983491 L101.995858,17.5482753 Z M114.786584,20.9979363 C113.432272,22.9477447 111.175085,23.9976415 108.767419,23.9976415 C105.607357,23.9976415 103.35017,22.1978184 103.35017,19.3480985 C103.35017,16.4983785 105.306399,14.8485407 109.670294,13.9486291 L114.786584,12.748747 L114.786584,12.4487765 C114.786584,10.1989976 113.582751,8.99911556 111.325564,8.99911556 C109.218856,8.99911556 107.864544,10.0490124 107.112149,11.8488355 L103.50065,10.7989387 C104.704483,7.64924823 107.714065,5.84942512 111.476043,5.84942512 C116.291376,5.84942512 118.849521,8.39917453 118.849521,12.2987913 L118.849521,21.2979068 C118.849521,21.8978479 118.849521,23.0977299 119,23.697671 L114.786584,23.697671 C114.786584,22.7977594 114.786584,21.8978479 114.786584,20.9979363 Z M109.971252,20.9979363 C111.777002,20.9979363 114.034189,19.7980542 114.636105,17.8482459 L114.636105,15.4484817 L110.121731,16.4983785 C108.165503,16.9483343 107.262628,17.6982606 107.262628,18.8981427 C107.262628,20.0980248 108.315982,20.9979363 109.971252,20.9979363 L109.971252,20.9979363 Z M18.0285031,0 C23.1447936,0 27.9601258,2.39976415 30.3677919,7.64924823 C34.1297701,15.2984965 34.7316867,31.4969045 26.9067719,35.246536 C19.081857,38.8461822 5.08729787,28.7971698 1.32531959,20.9979363 C-2.43665868,13.1987028 2.22819438,5.5494546 10.0531092,1.79982311 C12.6112544,0.599941038 15.3198788,0 18.0285031,0 Z M15.4703579,17.6982606 L12.159817,24.4475973 C11.8588588,24.8975531 11.8588588,25.3475088 11.8588588,25.9474499 C11.8588588,26.9973467 13.2131709,27.8972582 13.2131709,27.8972582 L17.878024,19.9480395 C18.0285031,19.4980837 18.0285031,19.0481279 17.878024,18.7481574 C16.8246701,17.2483048 15.4703579,17.6982606 15.4703579,17.6982606 Z M14.2665249,8.09920401 L9.30071354,8.09920401 L11.2569422,11.0989092 C12.3102962,12.748747 12.159817,14.8485407 11.1064631,16.4983785 L9.45119267,18.7481574 L9.6016718,18.8981427 C10.3540675,19.648069 11.5579005,19.648069 12.3102962,18.8981427 L14.1160457,17.2483048 C14.2665249,17.0983196 14.2665249,16.9483343 14.417004,16.9483343 C15.7713162,16.0484228 17.5770657,16.3483933 18.4799405,17.6982606 L24.800064,26.6973762 C24.800064,26.8473614 24.9505432,26.9973467 24.9505432,26.9973467 C25.7029388,27.747273 26.9067719,27.747273 27.6591675,26.9973467 L20.2856901,11.3988797 C18.7808988,8.39917453 15.9217953,8.09920401 14.2665249,8.09920401 Z" id="Combined-Shape"></path>
                </g>
            </g>
        </g>
    </g>
</svg>