<?xml version="1.0" encoding="UTF-8"?>
<svg width="48px" height="48px" viewBox="0 0 48 48" version="1.1" xmlns="http://www.w3.org/2000/svg" xmlns:xlink="http://www.w3.org/1999/xlink">
    <title>yp</title>
    <g id="UI" stroke="none" stroke-width="1" fill="none" fill-rule="evenodd" opacity="0.5">
        <g id="homepage" transform="translate(-787, -4599)">
            <g id="Group-Copy-8" transform="translate(272, 4507)">
                <g id="yp-yp-com-seeklogo.com" transform="translate(515, 92)">
                    <path d="M24,0 C37.254834,0 48,10.745166 48,24 C48,37.254834 37.254834,48 24,48 C10.745166,48 0,37.254834 0,24 C0,10.745166 10.745166,0 24,0 Z M37.29375,31.425 L10.6453125,31.425 L10.6453125,34.1484375 L37.29375,34.1484375 L37.29375,31.425 Z M14.859375,13.7625 L11.596875,13.7625 L16.4578125,26.4 C16.65,28.2703125 13.2328125,27.2671875 13.2328125,27.2671875 L13.2328125,29.8734375 C13.2328125,29.8734375 15.271875,30.628125 17.0765625,30.046875 C18.7567888,29.501347 19.5390383,26.9120077 19.6389433,26.5574521 L19.65,26.5171875 L24.0046875,13.7625 L20.8734375,13.7625 L18.0234375,23.0953125 L14.859375,13.7625 Z M30.1171875,13.55625 C29.41875,13.7203125 28.753125,14.0390625 28.2140625,14.5125 C28.125,14.5921875 28.0359375,14.6765625 27.9515625,14.765625 L27.9515625,13.81875 L25.0265625,13.81875 L25.0265625,30.1359375 L27.9515625,30.1359375 L27.9515625,25.3546875 C27.9609375,25.359375 27.965625,25.359375 27.9703125,25.3640625 C28.0546875,25.4109375 28.1390625,25.453125 28.2234375,25.4953125 C28.546875,25.659375 28.8796875,25.809375 29.2171875,25.9453125 C29.6578125,26.11875 30.1078125,26.26875 30.571875,26.3671875 C31.0453125,26.465625 31.51875,26.4796875 32.0015625,26.4375 C33.0375,26.34375 34.059375,25.9828125 34.89375,25.359375 C35.26875,25.078125 35.5921875,24.7453125 35.8921875,24.384375 C36.1078125,24.121875 36.3046875,23.8453125 36.4734375,23.55 C36.853125,22.875 37.0640625,22.125 37.171875,21.3609375 C37.246875,20.8453125 37.2796875,20.3296875 37.2890625,19.809375 C37.303125,19.2609375 37.2890625,18.7265625 37.1859375,18.1921875 C37.021875,17.353125 36.6796875,16.5515625 36.20625,15.8390625 C35.934375,15.43125 35.625,15.0421875 35.2640625,14.7046875 C35.1421875,14.5875 35.025,14.465625 34.8890625,14.3625 C34.396875,13.9875 33.796875,13.7484375 33.196875,13.6078125 C32.7,13.4859375 32.184375,13.4296875 31.6734375,13.415625 C31.1484375,13.4015625 30.628125,13.4390625 30.1171875,13.55625 Z M31.0078125,16.1203125 C32.7515625,16.1203125 34.1625,17.840625 34.1625,19.9640625 C34.1625,22.0875 32.746875,23.8125 31.0078125,23.8125 C29.5453125,23.8125 28.3125,22.5984375 27.95625,20.953125 L27.95625,18.9796875 C28.3125,17.334375 29.5453125,16.1203125 31.0078125,16.1203125 Z" id="Combined-Shape" fill="#474150" fill-rule="nonzero"></path>
                    <g id="Group" transform="translate(10.6453, 13.4128)"></g>
                </g>
            </g>
        </g>
    </g>
</svg>